<svg id="Layer_1" data-name="Layer 1" xmlns="http://www.w3.org/2000/svg" viewBox="0 0 446.88 392.62"><defs><style>.cls-1,.cls-10,.cls-12,.cls-4{fill:#cee7fd;}.cls-1,.cls-12,.cls-13,.cls-2,.cls-3,.cls-5,.cls-7{stroke:#1060ea;}.cls-1,.cls-13,.cls-3,.cls-5,.cls-7{stroke-linecap:round;stroke-linejoin:round;}.cls-13,.cls-2,.cls-3{fill:none;}.cls-12,.cls-2{stroke-miterlimit:10;}.cls-4{opacity:0.72;}.cls-5,.cls-7,.cls-8{fill:#fff;}.cls-6{fill:#005be9;}.cls-7{stroke-width:2px;}.cls-9{fill:#1060ea;}.cls-11{fill:#4a97fc;}.cls-13{stroke-width:1.5px;}</style></defs><polygon class="cls-1" points="102.8 281.83 129.9 293.39 156.35 280.65 129.9 269.73 102.8 281.83"/><polygon class="cls-2" points="103.09 276.52 129.9 287.96 155.32 276 129.9 264.56 103.09 276.52"/><polyline class="cls-3" points="103.09 276.52 129.9 238.04 155.32 276"/><line class="cls-3" x1="129.89" y1="287.97" x2="129.89" y2="238.04"/><polyline class="cls-3" points="156.01 280.91 129.9 318.1 103.09 281.95"/><polygon class="cls-3" points="103.09 281.95 129.9 293.39 129.9 318.1 103.09 281.95"/><line class="cls-3" x1="129.89" y1="293.4" x2="156.01" y2="280.91"/><polygon class="cls-4" points="345.31 145.7 365.43 156.37 370.61 159.35 370.61 199.97 345.31 186.86 345.31 145.7"/><polygon class="cls-5" points="336.68 148.99 356.8 159.66 361.98 162.75 361.98 203.25 336.68 190.14 336.68 148.99"/><polygon class="cls-5" points="328.68 153.34 347.89 163.53 353.98 175.27 353.98 207.6 328.68 194.49 328.68 153.34"/><ellipse class="cls-5" cx="353.79" cy="188.99" rx="5.03" ry="6.26"/><path class="cls-6" d="M353.79,182.73V189l4.88,1.49S359.71,183.22,353.79,182.73Z"/><line class="cls-7" x1="333.27" y1="191.48" x2="333.27" y2="181.01"/><line class="cls-7" x1="338.29" y1="194.09" x2="338.29" y2="177.72"/><line class="cls-7" x1="343.31" y1="196.85" x2="343.31" y2="189.79"/><polyline class="cls-3" points="347.89 163.53 347.89 172.84 353.98 175.27"/><line class="cls-5" x1="332.64" y1="160.51" x2="341.33" y2="164.78"/><line class="cls-5" x1="332.64" y1="164.78" x2="344.19" y2="170.08"/><path class="cls-8" d="M336.69,308.87a.49.49,0,0,1-.41-.22l-6.1-9a5.52,5.52,0,0,1-.93-3.37l2.06-39.7a5.52,5.52,0,0,1,3.9-5l13.53-4.09a5.62,5.62,0,0,1,3.46.09l9.49,3.44a.5.5,0,0,1,.33.46l.87,49.77a.5.5,0,0,1-.36.49l-25.7,7.1Z"/><path class="cls-9" d="M350.33,247.77a5.24,5.24,0,0,1,1.7.29l9.49,3.44.87,49.76-25.7,7.11-6.09-9a5,5,0,0,1-.85-3.06l2.06-39.71a5,5,0,0,1,3.55-4.52L348.88,248a5.09,5.09,0,0,1,1.45-.21m0-1a6.05,6.05,0,0,0-1.74.25l-13.52,4.09a6,6,0,0,0-4.26,5.43l-2.06,39.71a6,6,0,0,0,1,3.67l6.09,9a1,1,0,0,0,.83.44.84.84,0,0,0,.27,0l25.7-7.1a1,1,0,0,0,.73-1l-.87-49.77a1,1,0,0,0-.66-.92l-9.49-3.44a6.16,6.16,0,0,0-2-.35Z"/><path class="cls-10" d="M336.69,308.37l25.7-7.11-10.34-7.39a6.38,6.38,0,0,0-5.49-.92l-14.23,4.23a2,2,0,0,0-1.11,3.1Z"/><path class="cls-10" d="M354.21,248.85l7.31,2.65.87,49.76-9.63-6.88a7.54,7.54,0,0,1-3.15-6.28l.78-36.63A2.85,2.85,0,0,1,354.21,248.85Z"/><path class="cls-11" d="M335.22,273.9l-.57.14a.58.58,0,0,1-.64-.15,1.19,1.19,0,0,1-.17-.85l.16-2.37a1.94,1.94,0,0,1,.29-1,1.16,1.16,0,0,1,.68-.47l.57-.14a.56.56,0,0,1,.63.16,1.17,1.17,0,0,1,.18.84l0,.22c0,.11-.05.18-.12.2l-.46.11c-.08,0-.11,0-.1-.14v-.18a.53.53,0,0,0-.05-.32c0-.06-.12-.07-.24,0L335,270a.38.38,0,0,0-.24.16.67.67,0,0,0-.1.36l-.15,2.28c0,.16,0,.27.05.32s.12.07.23,0l.35-.08a.38.38,0,0,0,.25-.16.79.79,0,0,0,.09-.36l0-.47c0-.05,0-.08,0-.07l-.32.08c-.08,0-.11,0-.11-.13l0-.51q0-.15.12-.18l1-.23c.08,0,.12,0,.11.14l-.09,1.25a1.85,1.85,0,0,1-.29,1A1.1,1.1,0,0,1,335.22,273.9Z"/><path class="cls-11" d="M338.46,273.11l-.61.15a.57.57,0,0,1-.63-.15,1.22,1.22,0,0,1-.17-.85l.16-2.37a1.94,1.94,0,0,1,.29-1,1.14,1.14,0,0,1,.68-.48l.6-.14a.58.58,0,0,1,.64.15,1.19,1.19,0,0,1,.17.85l-.16,2.37a1.94,1.94,0,0,1-.29,1A1.16,1.16,0,0,1,338.46,273.11Zm-.44-.7.38-.09a.42.42,0,0,0,.25-.16.67.67,0,0,0,.1-.36l.15-2.28c0-.16,0-.27,0-.32s-.12-.07-.23,0l-.39.09a.41.41,0,0,0-.25.16.79.79,0,0,0-.09.36l-.15,2.28a.47.47,0,0,0,0,.32C337.82,272.42,337.9,272.44,338,272.41Z"/><path class="cls-11" d="M342.15,272.21l-1.77.43c-.08,0-.11,0-.1-.13l.3-4.49c0-.1.05-.17.12-.18l.46-.12c.08,0,.11,0,.11.13l-.26,3.74c0,.05,0,.08.06.07l1.14-.28c.07,0,.1,0,.1.14l0,.5C342.26,272.13,342.22,272.19,342.15,272.21Z"/><path class="cls-11" d="M343,271.85l.3-4.49c0-.1.05-.16.13-.18l1.33-.33a.57.57,0,0,1,.63.16,1.19,1.19,0,0,1,.17.84l-.16,2.37a1.85,1.85,0,0,1-.29,1,1.14,1.14,0,0,1-.68.48l-1.33.32C343,272,343,272,343,271.85Zm.79-.84.58-.15a.39.39,0,0,0,.26-.16.77.77,0,0,0,.09-.35l.16-2.28a.57.57,0,0,0-.05-.33.24.24,0,0,0-.24,0l-.59.15a.08.08,0,0,0-.06.09l-.21,3C343.7,271,343.72,271,343.76,271Z"/><path class="cls-8" d="M299.62,264.37a.49.49,0,0,1-.41-.22l-4.67-6.9a4.39,4.39,0,0,1-.74-2.65l1.58-30.39a4.34,4.34,0,0,1,3.07-3.92l10.36-3.13a4.25,4.25,0,0,1,2.72.07l7.27,2.63a.52.52,0,0,1,.33.46l.66,38.1a.48.48,0,0,1-.36.49l-19.68,5.44Z"/><path class="cls-9" d="M310.06,217.48a3.86,3.86,0,0,1,1.3.22l7.27,2.63.66,38.1-19.67,5.44L295,257a3.88,3.88,0,0,1-.65-2.34l1.58-30.4a3.82,3.82,0,0,1,2.72-3.46L309,217.64a3.82,3.82,0,0,1,1.11-.16m0-1a4.79,4.79,0,0,0-1.4.2l-10.35,3.13a4.83,4.83,0,0,0-3.42,4.37l-1.59,30.39a4.88,4.88,0,0,0,.83,3l4.66,6.9a1,1,0,0,0,.83.44.84.84,0,0,0,.27,0l19.67-5.44a1,1,0,0,0,.73-1l-.66-38.09a1,1,0,0,0-.66-.93l-7.27-2.63a4.83,4.83,0,0,0-1.64-.28Z"/><path class="cls-10" d="M299.62,263.87l19.67-5.44-7.91-5.66a4.85,4.85,0,0,0-4.21-.7l-10.89,3.23a1.56,1.56,0,0,0-.85,2.37Z"/><path class="cls-10" d="M313,218.31l5.6,2,.66,38.1-7.37-5.27a5.77,5.77,0,0,1-2.41-4.81l.59-28A2.18,2.18,0,0,1,313,218.31Z"/><path class="cls-11" d="M298.49,237.48l-.44.11a.44.44,0,0,1-.48-.12.92.92,0,0,1-.13-.65l.12-1.81a1.58,1.58,0,0,1,.22-.74.9.9,0,0,1,.52-.36l.44-.11a.42.42,0,0,1,.48.13.89.89,0,0,1,.14.64l0,.17q0,.13-.09.15l-.35.09c-.06,0-.09,0-.08-.11v-.14c0-.12,0-.2,0-.24s-.09-.06-.18,0l-.27.07a.29.29,0,0,0-.18.12.49.49,0,0,0-.08.28l-.12,1.74a.4.4,0,0,0,0,.25s.09.05.18,0l.27-.07a.29.29,0,0,0,.19-.12.59.59,0,0,0,.07-.27l0-.36s0-.06,0-.05l-.24.06c-.06,0-.09,0-.08-.1l0-.39c0-.08,0-.13.1-.14l.72-.18c.06,0,.09,0,.09.11l-.07.95a1.47,1.47,0,0,1-.22.74A.83.83,0,0,1,298.49,237.48Z"/><path class="cls-11" d="M301,236.88l-.46.11a.46.46,0,0,1-.49-.12,1,1,0,0,1-.13-.65l.13-1.81a1.47,1.47,0,0,1,.22-.74.87.87,0,0,1,.52-.36l.46-.11a.44.44,0,0,1,.49.12.89.89,0,0,1,.13.64l-.12,1.82a1.43,1.43,0,0,1-.23.73A.89.89,0,0,1,301,236.88Zm-.33-.54.29-.07a.29.29,0,0,0,.19-.12.66.66,0,0,0,.08-.28l.11-1.74a.4.4,0,0,0,0-.25.19.19,0,0,0-.19,0l-.29.07a.29.29,0,0,0-.19.12.6.6,0,0,0-.07.28l-.12,1.74a.34.34,0,0,0,0,.25S300.55,236.36,300.64,236.34Z"/><path class="cls-11" d="M303.8,236.19l-1.36.33c-.06,0-.08,0-.08-.1l.24-3.44c0-.08,0-.13.09-.14l.35-.09c.06,0,.09,0,.08.1l-.19,2.86s0,.06,0,0l.87-.21c.06,0,.08,0,.08.11l0,.38A.14.14,0,0,1,303.8,236.19Z"/><path class="cls-11" d="M304.42,235.91l.24-3.43c0-.08,0-.13.09-.14l1-.25a.42.42,0,0,1,.49.12.89.89,0,0,1,.13.64l-.12,1.82a1.47,1.47,0,0,1-.23.73.83.83,0,0,1-.52.36l-1,.25C304.44,236,304.42,236,304.42,235.91Zm.61-.64.45-.11a.34.34,0,0,0,.19-.13.48.48,0,0,0,.07-.27l.12-1.75c0-.12,0-.2,0-.24s-.09-.05-.18,0l-.45.11s0,0-.05.07l-.15,2.29S305,235.27,305,235.27Z"/><ellipse class="cls-12" cx="73.44" cy="182.25" rx="26.78" ry="32.92"/><path class="cls-13" d="M75.51,171.16h9.24a5.07,5.07,0,0,1,5.07,5.07v.27a5.07,5.07,0,0,1-5.07,5.07H75.51a0,0,0,0,1,0,0V171.16a0,0,0,0,1,0,0Z"/><path class="cls-13" d="M75.51,181.57h10.6a5.81,5.81,0,0,1,5.81,5.81v.31a5.81,5.81,0,0,1-5.81,5.81H75.51a0,0,0,0,1,0,0V181.57a0,0,0,0,1,0,0Z"/><line class="cls-13" x1="78.65" y1="170.9" x2="78.65" y2="166.21"/><line class="cls-13" x1="82.99" y1="170.9" x2="82.99" y2="166.21"/><line class="cls-13" x1="78.65" y1="198.48" x2="78.65" y2="193.8"/><line class="cls-13" x1="82.99" y1="198.48" x2="82.99" y2="193.8"/><line class="cls-13" x1="75.51" y1="171.16" x2="71.16" y2="171.16"/><line class="cls-13" x1="75.51" y1="193.54" x2="71.16" y2="193.54"/><ellipse class="cls-3" cx="79.89" cy="182.25" rx="26.78" ry="32.92"/><circle class="cls-12" cx="177.14" cy="218.56" r="20.67"/><g id="Ub8UkE.tif"><path class="cls-3" d="M164.66,220c.91-.91,1.76-1.89,2.75-2.7a7.05,7.05,0,0,1,5.41-1.57.9.9,0,0,0,.7-.39,32.29,32.29,0,0,0,1.75-3c1.53-3.14,4.21-4.71,7.45-5.48.92-.21,1.88-.26,2.82-.38a.71.71,0,0,1,.86.6,14.15,14.15,0,0,1,.13,8.35,9.67,9.67,0,0,1-1.42,2.62c-.88,1.22-1.9,2.34-2.82,3.53a1,1,0,0,0-.15.8,8,8,0,0,1-.09,7.32,10.79,10.79,0,0,1-1.16,1.92,8.52,8.52,0,0,0-2.57-5.31c-.63.84-1.37.73-2.13.15a8.65,8.65,0,0,1-3.27,3.63c-1,.6-2.07,1.11-3.2.4s-1.09-1.85-.95-3a8.49,8.49,0,0,1,2.28-4.73c-.66-.52-1.11-1.12-.48-2a7.5,7.5,0,0,0-5-.69,8.08,8.08,0,0,1-.86.08Zm15.9-3.15a2.87,2.87,0,0,0,2.87-2.94,2.88,2.88,0,1,0-5.75,0A2.88,2.88,0,0,0,180.56,216.81Zm-5,9.14-3.66-2.63a5.43,5.43,0,0,0-1.42,4,1.38,1.38,0,0,0,1.93,1.25A5.71,5.71,0,0,0,175.58,226Z"/></g><ellipse class="cls-12" cx="146.62" cy="133.02" rx="22.29" ry="27.4"/><ellipse class="cls-3" cx="150.38" cy="132.98" rx="22.29" ry="27.4"/><ellipse class="cls-9" cx="152.5" cy="132.94" rx="1.49" ry="1.62"/><ellipse class="cls-9" cx="141.93" cy="127.91" rx="0.93" ry="1.01"/><rect class="cls-9" x="146.62" y="122.13" width="2.74" height="1.58"/><rect class="cls-9" x="144.54" y="127.16" width="6.71" height="1.58"/><rect class="cls-9" x="143.41" y="132.26" width="5.95" height="1.58"/><rect class="cls-9" x="137.56" y="132.26" width="3.31" height="1.58"/><rect class="cls-9" x="144.7" y="137.28" width="6.51" height="1.58"/><rect class="cls-9" x="140.83" y="137.28" width="2.18" height="1.58"/><rect class="cls-9" x="145.79" y="142.34" width="3.6" height="1.58"/><path class="cls-9" d="M151.31,122.1v1.58h2.78c4.62,0,8.37,4.06,8.37,9.08v.11c.23,5-3.28,9.21-7.86,9.46a4.34,4.34,0,0,1-.51,0h-2.84v1.58h2.84c5.37.12,9.81-4.5,9.92-10.33v-.44c.15-5.94-4.17-10.89-9.65-11.05h-3.05Z"/><ellipse class="cls-12" cx="129.58" cy="194.01" rx="11.47" ry="14.1"/><ellipse class="cls-3" cx="132.09" cy="194.01" rx="11.47" ry="14.1"/><g id="wgSJ3Z.tif"><path class="cls-9" d="M139.44,196c-.13.34-.24.67-.37,1a3.76,3.76,0,0,1-1.94,2.08,2.53,2.53,0,0,1-3.11-1,12.05,12.05,0,0,1-1.34-2.31c-.44-.92-.86-1.87-1.31-2.8a7.86,7.86,0,0,0-1.25-2,1.77,1.77,0,0,0-2.21-.54,3.38,3.38,0,0,0-1.74,2.5,5.11,5.11,0,0,0,1,4.44,2.18,2.18,0,0,0,1.51.72,2,2,0,0,0,1.51-.78,8.93,8.93,0,0,0,1.19-1.89,1.33,1.33,0,0,1,.06-.12c.1.22.2.42.29.63s.07.18.12.26a.3.3,0,0,1,0,.34,9.52,9.52,0,0,1-1.23,1.84,2.48,2.48,0,0,1-2,.92c-1.35-.11-2.34-1.06-3-2.83a6.82,6.82,0,0,1-.33-2.9,5.1,5.1,0,0,1,2.15-4.15,2.25,2.25,0,0,1,2.28-.14,3.94,3.94,0,0,1,1.37,1.28,14.83,14.83,0,0,1,1.35,2.46c.46,1,.91,2,1.39,2.92a5.47,5.47,0,0,0,1.23,1.69,1.7,1.7,0,0,0,1.82.35,3,3,0,0,0,1.62-1.79c0-.09.09-.13.16-.12h.82Z"/><path class="cls-9" d="M133.45,193l-.46-1a.16.16,0,0,1,0-.12,6.91,6.91,0,0,1,1.75-2.37,2.26,2.26,0,0,1,1.79-.48,3.15,3.15,0,0,1,2.15,1.56,6.12,6.12,0,0,1,.93,2.93c0,.33,0,.68,0,1,0,.14,0,.2-.14.2h-3.84c-.1,0-.13,0-.13-.19s0-.54,0-.82,0-.2.14-.2h3.12a.68.68,0,0,0,0-.21,3.65,3.65,0,0,0-1.74-2.89c-1-.5-1.82-.14-2.57.86a10.14,10.14,0,0,0-.94,1.58Z"/></g></svg>