<svg id="Layer_1" data-name="Layer 1" xmlns="http://www.w3.org/2000/svg" viewBox="0 0 153.99 169.82"><defs><style>.cls-1{fill:#fff;}.cls-2{fill:#1060ea;}.cls-3{fill:#cee7fd;}</style></defs><path class="cls-1" d="M93.1,120.27H93l-28.84-7a.51.51,0,0,1-.38-.44L58.92,59.47a.49.49,0,0,1,.31-.51L69.17,55a5.92,5.92,0,0,1,2.13-.4,6.31,6.31,0,0,1,1.61.22l15.21,4a6.56,6.56,0,0,1,4.76,5.17l6.88,42.52a5.59,5.59,0,0,1-.63,3.63L93.54,120A.5.5,0,0,1,93.1,120.27Z"/><path class="cls-2" d="M71.31,55.13a5.72,5.72,0,0,1,1.47.2l15.21,4a6,6,0,0,1,4.4,4.76l6.88,42.52a5.07,5.07,0,0,1-.58,3.3l-5.59,9.82-28.84-7L59.42,59.42l9.94-3.92a5.32,5.32,0,0,1,2-.37m0-1a6.25,6.25,0,0,0-2.32.44l-9.94,3.92a1,1,0,0,0-.63,1l4.85,53.38a1,1,0,0,0,.76.88l28.84,7a.85.85,0,0,0,.23,0,1,1,0,0,0,.87-.5l5.59-9.82a6,6,0,0,0,.69-4L93.37,64a7,7,0,0,0-5.12-5.57L73,54.36a6.86,6.86,0,0,0-1.73-.23Z"/><path class="cls-3" d="M93.1,119.77l-28.84-7,10.41-8.18a6.73,6.73,0,0,1,5.88-1.13l16,4.17a2.33,2.33,0,0,1,1.57,3.3Z"/><path class="cls-3" d="M67.08,56.4l-7.66,3,4.84,53.38,9.7-7.62a7.39,7.39,0,0,0,2.7-6.82L71.55,59.11A3.39,3.39,0,0,0,67.08,56.4Z"/><path class="cls-2" d="M79.66,80.45l-.72-.17a1.64,1.64,0,0,1-.88-.55,2.13,2.13,0,0,1-.46-1.09L77.16,76a1.16,1.16,0,0,1,.13-.94.72.72,0,0,1,.77-.16l.72.17a1.6,1.6,0,0,1,.88.56,2.22,2.22,0,0,1,.46,1.08l0,.25c0,.12,0,.17-.11.15L79.47,77c-.1,0-.15-.09-.17-.22l0-.2a.88.88,0,0,0-.15-.4.6.6,0,0,0-.32-.19l-.44-.1c-.14,0-.24,0-.29,0a.48.48,0,0,0,0,.36l.42,2.56a.78.78,0,0,0,.16.4.54.54,0,0,0,.32.19l.44.1c.14,0,.24,0,.29,0a.55.55,0,0,0,0-.36l-.08-.53a.13.13,0,0,0-.09-.11l-.41-.09a.24.24,0,0,1-.17-.21l-.1-.57q0-.18.12-.15l1.19.29c.1,0,.16.1.18.23l.23,1.4a1.18,1.18,0,0,1-.12.94A.7.7,0,0,1,79.66,80.45Z"/><path class="cls-2" d="M83.75,81.42,83,81.24a1.57,1.57,0,0,1-.89-.55,2.22,2.22,0,0,1-.46-1.08L81.2,77a1.18,1.18,0,0,1,.13-1,.7.7,0,0,1,.77-.15l.76.18a1.57,1.57,0,0,1,.89.55,2.32,2.32,0,0,1,.46,1.08l.43,2.66a1.19,1.19,0,0,1-.12,1A.71.71,0,0,1,83.75,81.42ZM83,80.35l.48.12c.15,0,.24,0,.29,0a.49.49,0,0,0,0-.36l-.42-2.56a.93.93,0,0,0-.15-.41.53.53,0,0,0-.33-.18l-.48-.12c-.15,0-.24,0-.29,0a.55.55,0,0,0,0,.36l.42,2.56a.75.75,0,0,0,.15.4A.54.54,0,0,0,83,80.35Z"/><path class="cls-2" d="M88.4,82.53,86.17,82a.23.23,0,0,1-.18-.21l-.82-5.05c0-.11,0-.16.11-.14l.58.14A.23.23,0,0,1,86,77l.69,4.2a.13.13,0,0,0,.09.11l1.44.34c.09,0,.14.09.16.22l.1.57C88.53,82.5,88.49,82.55,88.4,82.53Z"/><path class="cls-2" d="M89.38,82.6l-.82-5c0-.12,0-.16.11-.14l1.68.4a1.58,1.58,0,0,1,.88.55,2.21,2.21,0,0,1,.46,1.08l.44,2.66A1.16,1.16,0,0,1,92,83a.69.69,0,0,1-.77.16l-1.67-.39A.25.25,0,0,1,89.38,82.6Zm.82-.53.74.18c.14,0,.24,0,.29,0a.48.48,0,0,0,0-.36l-.42-2.56a.93.93,0,0,0-.15-.41.59.59,0,0,0-.33-.18l-.74-.18c-.05,0-.07,0-.06.08L90.11,82A.12.12,0,0,0,90.2,82.07Z"/></svg>