<svg id="Layer_1" data-name="Layer 1" xmlns="http://www.w3.org/2000/svg" viewBox="0 0 153.99 169.82"><defs><style>.cls-1{fill:#cee7fd;stroke-miterlimit:10;}.cls-1,.cls-2,.cls-3{stroke:#1060ea;}.cls-2,.cls-3{fill:none;stroke-linecap:round;stroke-linejoin:round;}.cls-3{stroke-width:1.5px;}</style></defs><ellipse class="cls-1" cx="74.15" cy="89.49" rx="25.98" ry="31.94"/><ellipse class="cls-2" cx="79.84" cy="89.49" rx="25.98" ry="31.94"/><g id="Ub8UkE.tif"><path class="cls-3" d="M67.83,92.62c1-1.1,1.93-2.29,3-3.27a7.34,7.34,0,0,1,6-1.9,1,1,0,0,0,.78-.46,40.7,40.7,0,0,0,1.92-3.64,11.49,11.49,0,0,1,8.2-6.61,29.32,29.32,0,0,1,3.1-.46c.52-.07.81.16,1,.72a18.66,18.66,0,0,1,.14,10.08,12.31,12.31,0,0,1-1.56,3.17c-1,1.48-2.09,2.83-3.11,4.26a1.26,1.26,0,0,0-.16,1,10.47,10.47,0,0,1-.1,8.84,13.87,13.87,0,0,1-1.27,2.31,10.85,10.85,0,0,0-2.83-6.41c-.7,1-1.51.88-2.35.18a10,10,0,0,1-3.6,4.39c-1.08.72-2.27,1.34-3.51.48s-1.21-2.24-1.05-3.6A10.84,10.84,0,0,1,74.86,96c-.73-.62-1.22-1.34-.53-2.41a7.64,7.64,0,0,0-5.56-.83,7.5,7.5,0,0,1-.94.1Zm17.49-3.8a3.35,3.35,0,0,0,3.16-3.56,3.19,3.19,0,1,0-3.16,3.56Zm-5.48,11-4-3.18a7,7,0,0,0-1.56,4.82c.15,1.3,1,1.87,2.13,1.51A6.48,6.48,0,0,0,79.84,99.85Z"/></g></svg>