<svg id="Layer_1" data-name="Layer 1" xmlns="http://www.w3.org/2000/svg" viewBox="0 0 153.99 169.82"><defs><style>.cls-1{fill:#cee7fd;opacity:0.72;}.cls-2,.cls-4{fill:#fff;}.cls-2,.cls-4,.cls-5{stroke:#1060ea;stroke-linecap:round;stroke-linejoin:round;}.cls-3{fill:#005be9;}.cls-4{stroke-width:2px;}.cls-5{fill:none;}</style></defs><polygon class="cls-1" points="101.53 46.55 65.78 59.69 56.57 63.37 56.57 113.41 101.53 97.26 101.53 46.55"/><polygon class="cls-2" points="105.77 51.17 70.01 64.32 60.8 68.13 60.8 118.04 105.77 101.89 105.77 51.17"/><polygon class="cls-2" points="109.29 56.53 75.14 69.09 64.32 83.56 64.32 123.4 109.29 107.24 109.29 56.53"/><ellipse class="cls-2" cx="64.66" cy="100.46" rx="8.95" ry="7.71"/><path class="cls-3" d="M64.66,92.75v7.71L56,102.31S54.14,93.36,64.66,92.75Z"/><line class="cls-4" x1="101.13" y1="103.53" x2="101.13" y2="90.63"/><line class="cls-4" x1="92.21" y1="106.75" x2="92.21" y2="86.58"/><line class="cls-4" x1="83.28" y1="110.15" x2="83.28" y2="101.45"/><polyline class="cls-5" points="75.14 69.09 75.14 80.56 64.32 83.56"/><line class="cls-2" x1="102.24" y1="65.37" x2="86.8" y2="70.63"/><line class="cls-2" x1="102.24" y1="70.63" x2="81.72" y2="77.17"/></svg>