<svg id="Layer_1" data-name="Layer 1" xmlns="http://www.w3.org/2000/svg" viewBox="0 0 115 37.54"><title>N-Nagele</title><path d="M12.29,11.59a2.82,2.82,0,0,1,1.26-1,9.12,9.12,0,0,1,5.79-.32,4.12,4.12,0,0,1,2.82,2.79c.48,1.39.9,2.81,1.34,4.21.57,1.82,1.12,3.63,1.7,5.44a5.68,5.68,0,0,0,1.21,2.12,1.4,1.4,0,0,0,1.64.46,3.48,3.48,0,0,1-1.29,1,8,8,0,0,1-4.2.61,4.69,4.69,0,0,1-4.49-3.56l-2.91-9A5.8,5.8,0,0,0,13.78,12,1.33,1.33,0,0,0,12.29,11.59Z"/><path d="M35.58,9.66c-.32.75-.61,1.42-.91,2.09-1.5,3.43-3,6.86-4.51,10.27a17.9,17.9,0,0,1-1.48,2.54,1.08,1.08,0,0,1-1.8.18,5,5,0,0,1-1.12-1.59c-.54-1.37-.93-2.8-1.43-4.19a1.82,1.82,0,0,1,.09-1.53c.78-1.61,1.43-3.29,2.29-4.86a5.33,5.33,0,0,1,5.06-2.91h3.81Z"/><path d="M4.75,27.21c.38-.86.73-1.68,1.09-2.49C7.31,21.36,8.77,18,10.27,14.64a16.87,16.87,0,0,1,1.39-2.35,1,1,0,0,1,1.61-.24,4.08,4.08,0,0,1,1.42,2c.52,1.46,1,2.95,1.47,4.43a.61.61,0,0,1,0,.4c-.75,1.68-1.48,3.37-2.28,5a6,6,0,0,1-2,2.41A5.12,5.12,0,0,1,9,27.23c-1.33,0-2.67,0-4,0Z"/><path d="M43.12,12.63c.77,0,1.51,0,2.25,0A1,1,0,0,1,46,13c.6.83,1.22,1.66,1.74,2.55.94,1.61,1.8,3.26,2.7,4.9a.67.67,0,0,0,.25.26v-.39c0-2.36,0-4.72,0-7.08,0-.36.05-.52.46-.52.64,0,1.28-.07,2-.11,0,.15,0,.27,0,.4q0,5.4,0,10.81c0,.34-.09.45-.43.43a9.48,9.48,0,0,0-1.41,0,1.77,1.77,0,0,1-1.52-.65A12.12,12.12,0,0,1,47.89,21c-.71-1.29-1.4-2.6-2.1-3.9a.85.85,0,0,0-.27-.34c0,.12,0,.24,0,.36,0,2.27,0,4.53,0,6.8,0,.32-.08.42-.41.41-.65,0-1.31,0-2,0Z"/><path d="M99.81,22h5.57c0,.72-.09,1.41-.16,2.09,0,.07-.19.15-.29.16-.44,0-.89,0-1.34,0H97.75c-.32,0-.39-.09-.39-.4,0-3.61,0-7.23,0-10.84v-.38h7.8c0,.73-.09,1.45-.14,2.21h-5.2v2.46h.43c1.36,0,2.72,0,4.08,0,.34,0,.42.1.38.42a14.5,14.5,0,0,0-.09,1.47c0,.31-.14.37-.41.36-1.34,0-2.67,0-4,0-.33,0-.42.1-.41.42C99.82,20.65,99.81,21.3,99.81,22Z"/><path d="M77.84,12.63h7.38c.31,0,.42.07.38.39-.06.61-.09,1.22-.13,1.86H80.26v2.45h.39c1.38,0,2.75,0,4.12,0,.33,0,.43.09.4.42-.06.5-.09,1-.11,1.51,0,.26-.11.33-.36.33H80.25V22h5.57c0,.73-.1,1.42-.17,2.1,0,.06-.19.14-.29.15-.88,0-1.76,0-2.64,0H78.15c-.27,0-.34-.08-.34-.34v-11C77.81,12.84,77.83,12.76,77.84,12.63Z"/><path d="M65.12,24.27c-.82,0-1.56,0-2.31,0-.06,0-.16-.18-.18-.28-.15-.73-.29-1.45-.41-2.18,0-.26-.17-.33-.43-.33q-1.92,0-3.84,0c-.25,0-.36.08-.4.32-.12.72-.28,1.43-.39,2.14,0,.26-.13.36-.4.35-.68,0-1.36,0-2.1,0,.07-.43.12-.82.19-1.21a37.21,37.21,0,0,1,3.22-9.27,9.69,9.69,0,0,1,.46-.91.53.53,0,0,1,.36-.23c.67,0,1.34,0,2,0a.46.46,0,0,1,.32.2,37.85,37.85,0,0,1,3.61,9.87C64.93,23.2,65,23.7,65.12,24.27ZM61.5,19.2c-.53-1.33-1-2.6-1.54-3.87h-.15L58.27,19.2Z"/><path d="M75.66,18.25v.44c0,1.08,0,2.16,0,3.24a1.16,1.16,0,0,1-.24.66,5.26,5.26,0,0,1-8.89-1.66,6.43,6.43,0,0,1,1-6.63A4.89,4.89,0,0,1,72,12.6a5,5,0,0,1,3.36,1.65l.16.18.1.16-1.87,1.55a4.64,4.64,0,0,0-.31-.4,2.65,2.65,0,0,0-4.36.84,5.25,5.25,0,0,0-.26,2.6,4.9,4.9,0,0,0,.49,1.56,2.55,2.55,0,0,0,3.47.9,1,1,0,0,0,.63-1.07c-.06-.61,0-1.22,0-1.83,0-.24.06-.36.33-.37C74.33,18.35,75,18.3,75.66,18.25Z"/><path d="M87.82,12.79c.73,0,1.43-.08,2.13-.14.32,0,.28.16.28.35v9H95.8c0,.74-.09,1.43-.16,2.11,0,.06-.19.15-.29.15-.88,0-1.76,0-2.64,0H88.13c-.25,0-.35-.07-.35-.33q0-5.43,0-10.84A2,2,0,0,1,87.82,12.79Z"/><path d="M62.51,11a1.09,1.09,0,0,1-1.08,1.11,1.12,1.12,0,0,1,0-2.24A1.1,1.1,0,0,1,62.51,11Z"/><path d="M59.35,11a1.07,1.07,0,0,1-1,1.1,1.12,1.12,0,0,1,0-2.24A1.07,1.07,0,0,1,59.35,11Z"/></svg>