<svg id="Layer_1" data-name="Layer 1" xmlns="http://www.w3.org/2000/svg" viewBox="0 0 476.44 157.02"><defs><style>.cls-1{fill:#fff;}</style></defs><title>Yahoo-Finance</title><path d="M418.77,130.18c-12-.5-23.59-2.37-33.82-9.06-11.91-7.77-18.28-19.06-20.1-33a57.35,57.35,0,0,1,1.77-24.78c4.31-13.81,13.18-23.68,26.65-28.87,17.75-6.83,35.69-6.82,53.13,1,15.07,6.76,23.49,18.9,26,35.14,1.62,10.43.92,20.68-3.22,30.48-6.4,15.14-18.23,23.67-34,27C429.82,129.18,424.25,129.49,418.77,130.18Zm40.31-50.5c-.68-5.08-.94-10.25-2.1-15.21-3-12.63-9.94-22.19-22.5-26.82a45.56,45.56,0,0,0-21.8-2.29c-14.78,1.86-25.32,9.38-30.46,23.45a61.06,61.06,0,0,0-.43,40.83c3.53,10.8,10.68,18.51,21.58,22.39A46.75,46.75,0,0,0,425.91,124c13.15-1.86,22.77-8.57,28.34-20.77C457.66,95.74,458.75,87.85,459.08,79.68Z" transform="translate(-28.86 -24.78)"/><path d="M312.05,124.77a69.22,69.22,0,0,1-19.91-3.38c-12.28-4.3-20.53-12.7-24.68-24.91a51.36,51.36,0,0,1-.7-30.84c3.76-13.48,12.32-22.84,25.52-27.37,15-5.15,30.06-4.9,44.44,2.2,12.77,6.29,19.71,17.08,21.71,31,1.32,9.18.91,18.29-2.61,27-5.65,14-16.29,21.93-30.88,24.75C320.71,124.07,316.35,124.28,312.05,124.77Zm32.95-45c-.46-4.14-.63-8.33-1.42-12.41-2.64-13.75-10.86-24.86-26.53-26.85-14.52-1.84-28.2,3.6-34.28,19.1-4,10.12-4.19,20.63-2.57,31.26,2.48,16.14,13.16,29.42,33.16,28.67,12.59-.47,21.9-6.11,27.26-17.68C343.86,94.92,344.85,87.48,345,79.81Z" transform="translate(-28.86 -24.78)"/><path d="M247.34,82.83h-49c.3,13.58.58,27,.87,40h-13.7V36.6H199.3q-.45,19.44-.94,40.06c16.32.73,32.35.63,49,0-.36-13.61-.72-27-1.07-40.11H260v86.22h-13.7C246.63,109.82,247,96.46,247.34,82.83Z" transform="translate(-28.86 -24.78)"/><path d="M79,134.38H65.27c0-5.21-.08-10.8,0-16.4.15-9.25.47-18.49.57-27.74a8.6,8.6,0,0,0-1.12-4.3Q47.06,55.82,29.24,25.79c-.16-.27-.28-.56-.38-.76H43l29,48c1.5-2.47,2.79-4.58,4.07-6.7q12.11-20.13,24.18-40.28c.72-1.19,1.29-1.4,2.77-1.28,4,.32,8.08.11,12.26.11-.24.43-.51,1-.81,1.49Q96.72,56.49,79,86.59a7.8,7.8,0,0,0-.86,3.89c.22,13.91.53,27.82.82,41.73C79,133,79,133.8,79,134.38Z" transform="translate(-28.86 -24.78)"/><path d="M142.45,36.58c11.7,28.82,23.1,58.17,36.76,86-4.26.23-8.61.53-13,.64-.55,0-1.37-.9-1.64-1.55-3-7.27-5.9-14.55-8.71-21.88A2.64,2.64,0,0,0,153,97.69q-15.79.12-31.61,0a2.54,2.54,0,0,0-2.79,1.92c-2.81,7.24-5.73,14.45-8.61,21.66-.26.66-.55,1.31-.66,1.59H95.07c13.78-28.07,25.21-57.42,36.87-86.28ZM121.78,91.64a220.39,220.39,0,0,0,30.84-.06c-5.25-13.64-10.34-26.84-15.4-40Z" transform="translate(-28.86 -24.78)"/><path d="M488.25,111.15l-5.17-.92c.4-3.36.82-6.68,1.19-10,1.1-10,2.27-19.9,3.25-29.87,1-10.38,1.86-20.78,2.77-31.17q.31-3.47.6-7c.42-5,3.42-7.16,8.91-6.3,4,.62,6.26,4.2,5.27,8.46-3.2,13.87-6.58,27.7-9.65,41.6C493,86.77,491,97.63,488.85,108.46,488.68,109.32,488.47,110.17,488.25,111.15Z" transform="translate(-28.86 -24.78)"/><path d="M298.45,169.86V149.65h4.31v31.74c-1.8.63-3.07.11-4.34-1.36-5.35-6.22-10.82-12.33-16.26-18.48-.55-.63-1.15-1.22-2.24-2.35V181h-4.58v-31.2c2.61-.45,4.74-.41,6.75,2,4.45,5.39,9.27,10.48,14,15.68C296.62,168.1,297.27,168.68,298.45,169.86Z" transform="translate(-28.86 -24.78)"/><path d="M210,180.93c-.78.12-1.08.19-1.39.21-3.22.14-3.24.14-3.24-3q0-12.3,0-24.59V149.8a6.32,6.32,0,0,1,7.16,2.36c4.48,5.36,9.28,10.45,13.93,15.67a15.47,15.47,0,0,1,1.26,2l.9-.52V149.73h4.19v31.65c-1.78.66-3,.12-4.3-1.35-5.35-6.2-10.81-12.31-16.23-18.45-.56-.63-1.16-1.23-2.27-2.39Z" transform="translate(-28.86 -24.78)"/><path d="M343,157.25l-2.86,2c-1.1-1.2-2-2.31-3.06-3.29-3.19-3-6.85-4.41-11.23-2.91-4.55,1.55-6.89,5.05-7.35,9.53a19.42,19.42,0,0,0,.89,8.48c2.84,7.7,11.74,9.45,17.57,3.7,1.07-1.06,2-2.25,3.1-3.47,1,.69,1.84,1.34,2.7,2-3.43,6.59-11.21,9.82-19.07,8-8.25-1.85-13.55-7.54-13.81-14.83-.29-8.2,4-14.34,11.72-16.73C330.39,147.05,338.35,149.76,343,157.25Z" transform="translate(-28.86 -24.78)"/><path d="M237.56,181c2.26-4.71,4.41-9.18,6.54-13.65,2.7-5.65,5.34-11.33,8.15-16.92a3.15,3.15,0,0,1,2.35-1.37,2.78,2.78,0,0,1,2.11,1.35c4.59,9.8,9.08,19.66,13.59,29.5a8.51,8.51,0,0,1,.32,1.22c-2.24,0-4.3.1-6.34-.07a2.65,2.65,0,0,1-1.63-1.37c-.94-1.77-1.75-3.61-2.52-5.46a2.46,2.46,0,0,0-2.68-1.83c-3,.12-6.11-.07-9.16.1A3.69,3.69,0,0,0,246,174a20.37,20.37,0,0,0-1.75,3.42C242.34,181.31,242.34,181.31,237.56,181Zm15.54-22.11-5,10.7H258Z" transform="translate(-28.86 -24.78)"/><path d="M350.11,149.65h23c.65,1.65.12,2.29-1.53,2.28-3.7,0-7.4,0-11.1,0-.95,0-1.89.11-3.06.18,0,3.24-.09,6.29.09,9.32,0,.53,1.18,1.39,1.84,1.42,3.6.13,7.21.06,10.89.06.59,1.66.3,2.37-1.46,2.33-3.67-.07-7.35,0-11.2,0v13h15.62l.21,2.76H350.11Z" transform="translate(-28.86 -24.78)"/><path d="M167,165.17c0,4.5,0,8.58,0,12.66,0,3.32,0,3.32-3.21,3.32h-4V149.72H182c.65,1.63,0,2.21-1.6,2.2-3.7,0-7.39.05-11.09,0-1.62,0-2.35.49-2.27,2.21.1,2.24.09,4.5,0,6.74-.06,1.61.64,2.11,2.16,2.07,3.13-.06,6.27,0,9.4,0,1.5,0,2.12.51,1.51,2.26Z" transform="translate(-28.86 -24.78)"/><path d="M196.6,181h-7.19V149.74h7.19Z" transform="translate(-28.86 -24.78)"/><path d="M482.5,121.49c4.84,0,7.38,2.24,7.4,6.53,0,4.46-2.26,6.88-6.5,6.88-4.79,0-7.54-2.36-7.56-6.46C475.83,123.82,478.06,121.5,482.5,121.49Z" transform="translate(-28.86 -24.78)"/><path class="cls-1" d="M253.1,158.91l4.87,10.7H248.1Z" transform="translate(-28.86 -24.78)"/></svg>