<svg id="Layer_1" data-name="Layer 1" xmlns="http://www.w3.org/2000/svg" viewBox="0 0 441.41 419.91"><defs><style>.cls-1{fill:#f9f9f9;}</style></defs><title>@BrandingDSTOQ—220418</title><circle class="cls-1" cx="247.06" cy="208.87" r="22.4"/><circle class="cls-1" cx="88.77" cy="139.75" r="13.67"/><rect class="cls-1" x="159.24" y="59.94" width="41.18" height="21.67"/><rect class="cls-1" x="127.86" y="129.58" width="100.53" height="21.67"/><rect class="cls-1" x="111.14" y="199.52" width="89.28" height="21.67"/><rect class="cls-1" x="23.6" y="199.52" width="49.53" height="21.67"/><rect class="cls-1" x="130.51" y="268.94" width="97.32" height="21.67"/><rect class="cls-1" x="72.45" y="268.94" width="32.64" height="21.67"/><rect class="cls-1" x="146.67" y="338.62" width="53.75" height="21.67"/><path class="cls-1" d="M229.58,59.61V81.4h39.64c70.95-.15,126.79,54.6,127,127.47,0,86.36-65.57,129.75-126.78,129.75H228.39V360.3h41.06c80.5,0,148.36-59.23,148.36-149.61,0-96.43-75.74-151.08-148.36-151.08Z"/></svg>