<svg id="Layer_1" data-name="Layer 1" xmlns="http://www.w3.org/2000/svg" viewBox="0 0 125.4 73.11"><defs><style>.cls-1{fill:#0057ff;}</style></defs><g id="Layer_2" data-name="Layer 2"><g id="Layer_1-2" data-name="Layer 1-2"><path class="cls-1" d="M17.81,36.18v0A3.36,3.36,0,0,0,19.63,33a3.48,3.48,0,0,0-2-3.25,5.73,5.73,0,0,0-2.52-.42h-.54V28.18a.44.44,0,0,0-.42-.42H13a.42.42,0,0,0-.42.42v1.18H11.19V28.18a.42.42,0,0,0-.42-.42H9.56a.42.42,0,0,0-.42.42v1.18H7.91a.26.26,0,0,0-.26.25h0v1.14a.27.27,0,0,0,.26.27H9.15V42.07H8a.36.36,0,0,0-.34.33h0v1a.33.33,0,0,0,.33.33H9.14v1.16a.42.42,0,0,0,.42.42h1.21a.41.41,0,0,0,.42-.4h0V43.77h1.35v1.16a.42.42,0,0,0,.42.42h1.21a.41.41,0,0,0,.42-.41h0V43.78h.8a6.91,6.91,0,0,0,2.17-.26,4,4,0,0,0,2.65-3.85A3.42,3.42,0,0,0,17.81,36.18ZM15.13,31a3.07,3.07,0,0,1,1.49.28,2.09,2.09,0,0,1,.94,1.89,2,2,0,0,1-2.12,2.22H11.21V31Zm1.63,10.84a3.53,3.53,0,0,1-1.29.21H11.19v-5h4.44a2.33,2.33,0,0,1,2.49,2.47,2.4,2.4,0,0,1-1.36,2.32Z"/><path class="cls-1" d="M23.14,30.72v-.66a.57.57,0,0,1,.5-.66h.85a.59.59,0,0,1,.66.52h0v.8a.61.61,0,0,1-.54.66H23.8a.58.58,0,0,1-.66-.52A.17.17,0,0,1,23.14,30.72Zm0,3.37a.59.59,0,0,1,.52-.66h.77a.59.59,0,0,1,.66.51h0a.49.49,0,0,1,0,.17V43a.58.58,0,0,1-.5.66h-.8a.58.58,0,0,1-.66-.51V43S23.15,34.09,23.15,34.09Z"/><path class="cls-1" d="M28.42,35.11h-.7a.59.59,0,0,1-.65-.53v-.39a.58.58,0,0,1,.52-.66h.86V31.29a.58.58,0,0,1,.52-.66h.72a.59.59,0,0,1,.68.5.49.49,0,0,1,0,.17v2.24h1.77a.58.58,0,0,1,.66.52v.41a.58.58,0,0,1-.5.66H30.38v4.54c0,1.95,1.19,2.25,1.95,2.31.53.05.7.2.7.66v.42c0,.47-.26.66-.8.66A3.52,3.52,0,0,1,28.44,40l0-4.86Z"/><path class="cls-1" d="M39.52,33.18a5.35,5.35,0,0,1,3.37,1.1.57.57,0,0,1,.21.8.27.27,0,0,1-.1.11l-.2.3a.58.58,0,0,1-.91.15,4,4,0,0,0-2.27-.76,3.47,3.47,0,0,0-3.55,3.63,3.52,3.52,0,0,0,3.59,3.67,4.32,4.32,0,0,0,2.61-.92.55.55,0,0,1,.8,0,.64.64,0,0,1,.11.16l.15.29a.6.6,0,0,1-.12.85.07.07,0,0,1-.06,0,5.73,5.73,0,0,1-3.64,1.26,5.21,5.21,0,0,1-5.46-5.35A5.29,5.29,0,0,1,39.52,33.18Z"/><path class="cls-1" d="M50.15,33.18a5.35,5.35,0,1,1-5.48,5.33A5.33,5.33,0,0,1,50.15,33.18Zm0,9a3.65,3.65,0,1,0-3.49-3.9h0v.23a3.52,3.52,0,0,0,3.4,3.67h.09Z"/><path class="cls-1" d="M57.81,30.72v-.66a.58.58,0,0,1,.5-.66h.86a.58.58,0,0,1,.66.52v.8a.61.61,0,0,1-.54.66h-.81a.58.58,0,0,1-.66-.52A.61.61,0,0,1,57.81,30.72Zm0,3.37a.58.58,0,0,1,.52-.66h.77a.57.57,0,0,1,.65.51v9a.57.57,0,0,1-.5.66h-.8a.57.57,0,0,1-.65-.51v-9Z"/><path class="cls-1" d="M62.6,34.09a.59.59,0,0,1,.52-.66h.71a.57.57,0,0,1,.65.51h0a.25.25,0,0,1,0,.17V35a2.24,2.24,0,0,1-.06.58h0a4.22,4.22,0,0,1,3.87-2.4c2.4,0,3.5,1.32,3.5,3.92V43a.57.57,0,0,1-.5.66h-.8a.6.6,0,0,1-.66-.51V37.54C69.88,36.11,69.6,35,68,35a3.53,3.53,0,0,0-3.41,3.78V43a.57.57,0,0,1-.5.66h-.8a.6.6,0,0,1-.66-.51v-9Z"/><path class="cls-1" d="M74.36,42.18a.57.57,0,0,1,.5-.66h.94a.58.58,0,0,1,.66.51V43a.56.56,0,0,1-.5.66H75a.56.56,0,0,1-.66-.5v-1Z"/><path class="cls-1" d="M83.91,33.18a5.35,5.35,0,0,1,3.37,1.1.58.58,0,0,1,.21.8c0,.05,0,.08-.1.11l-.2.3a.58.58,0,0,1-.91.15A4,4,0,0,0,84,34.88a3.47,3.47,0,0,0-3.54,3.63,3.52,3.52,0,0,0,3.59,3.67,4.29,4.29,0,0,0,2.6-.92.55.55,0,0,1,.8,0,.46.46,0,0,1,.11.16l.16.29a.61.61,0,0,1-.13.85l0,0a5.75,5.75,0,0,1-3.64,1.26,5.35,5.35,0,1,1,0-10.7Z"/><path class="cls-1" d="M94.54,33.18a5.35,5.35,0,1,1-5.49,5.33A5.33,5.33,0,0,1,94.54,33.18Zm0,9A3.63,3.63,0,1,0,91,38.26v.24a3.54,3.54,0,0,0,3.4,3.67h.11Z"/><path class="cls-1" d="M102.22,34.09a.59.59,0,0,1,.52-.66h.71a.57.57,0,0,1,.65.51V35a2.24,2.24,0,0,1-.06.58h0a4.08,4.08,0,0,1,3.56-2.4,2.81,2.81,0,0,1,3.07,2.32h0a4.16,4.16,0,0,1,3.6-2.32c2.32,0,3.38,1.32,3.38,3.92V43a.58.58,0,0,1-.51.66h-.8a.6.6,0,0,1-.65-.51V37.53c0-1.43-.29-2.56-1.81-2.56-1.89,0-3,2-3,3.92V43a.6.6,0,0,1-.49.66h-.8a.58.58,0,0,1-.64-.51V37.53c0-1.34-.21-2.56-1.77-2.56-1.93,0-3.08,2-3.08,3.92V43a.57.57,0,0,1-.5.66h-.8a.59.59,0,0,1-.66-.51v-9Z"/></g></g></svg>