<svg id="Layer_1" data-name="Layer 1" xmlns="http://www.w3.org/2000/svg" viewBox="0 0 125.4 73.11"><defs><style>.cls-1{fill:#0057ff;}</style></defs><path class="cls-1" d="M30.9,41.92H17.09v-.19h13.8Z"/><path class="cls-1" d="M26.25,35.27h6.57v.18H26.27Z"/><path class="cls-1" d="M30,42.72H17.79v-.09H30Z"/><path class="cls-1" d="M25.46,40.91h6v.17h-6Z"/><path class="cls-1" d="M26.25,36.06h5.81l0,.17H26.27Z"/><path class="cls-1" d="M26.93,45H21v-.17h5.88Z"/><path class="cls-1" d="M26.26,36.85h5.41V37H26.25Z"/><ellipse class="cls-1" cx="24" cy="43.45" rx="7.43" ry="0.06"/><path class="cls-1" d="M16.51,40.9h5.06v.18H16.52Z"/><path class="cls-1" d="M30.71,31.42H26.29v-.18h4.41Z"/><ellipse class="cls-1" cx="23.91" cy="44.23" rx="5.91" ry="0.07"/><path class="cls-1" d="M26.25,30.42h3.86v.17H26.26Z"/><ellipse class="cls-1" cx="29.55" cy="37.81" rx="4.52" ry="0.06"/><path class="cls-1" d="M32.11,34.6H26.39v-.11h5.76Z"/><path class="cls-1" d="M32,39.44H26.38v-.09h5.56Z"/><ellipse class="cls-1" cx="29.05" cy="40.16" rx="3.84" ry="0.07"/><path class="cls-1" d="M15.67,38.53H21v.1H15.68Z"/><path class="cls-1" d="M26.38,38.53h5.2v.11H26.36Z"/><path class="cls-1" d="M21.06,39.45H15.88v-.1h5.18Z"/><path class="cls-1" d="M26.39,32.9h5.17V33h-5.2Z"/><path class="cls-1" d="M31.33,33.78h-5v-.1h5Z"/><path class="cls-1" d="M26.36,32.12h4.79v.09H26.37Z"/><ellipse class="cls-1" cx="18.65" cy="40.16" rx="3.42" ry="0.07"/><path class="cls-1" d="M33.39,39.76a9.92,9.92,0,1,1,.23-5.64H37a13.2,13.2,0,1,0-.16,5.63Z"/><path class="cls-1" d="M33.39,39.76a9.92,9.92,0,1,1,.23-5.64h1.8a11.64,11.64,0,1,0-.19,5.65H33.39Z"/><polygon class="cls-1" points="34.49 31.42 33.64 34.22 37.03 34.22 34.49 31.42"/><polygon class="cls-1" points="34.13 42.36 33.35 39.85 36.81 39.85 34.13 42.36"/><path class="cls-1" d="M47.85,34.13a2.11,2.11,0,0,0-.75-.57,2.62,2.62,0,0,0-1-.2,2.54,2.54,0,0,0-1.93.86,2.78,2.78,0,0,0-.58,1,3.69,3.69,0,0,0,0,2.41,2.87,2.87,0,0,0,.57.95,2.44,2.44,0,0,0,.83.63,2.49,2.49,0,0,0,1,.22,2.42,2.42,0,0,0,1.12-.26,2.22,2.22,0,0,0,.8-.75l1.72,1.28a3.59,3.59,0,0,1-1.5,1.23,4.71,4.71,0,0,1-1.89.4,5.78,5.78,0,0,1-2-.33,4.67,4.67,0,0,1-1.6-1,4.32,4.32,0,0,1-1-1.55,5.13,5.13,0,0,1-.38-2,4.92,4.92,0,0,1,.38-2,4.5,4.5,0,0,1,1-1.55,4.67,4.67,0,0,1,1.6-1,5.78,5.78,0,0,1,2-.33,4.65,4.65,0,0,1,.83.07,5,5,0,0,1,.84.23,4.19,4.19,0,0,1,.81.43,3.8,3.8,0,0,1,.69.64Z"/><path class="cls-1" d="M50.29,37.84a3.28,3.28,0,0,1,.28-1.38,3.32,3.32,0,0,1,.76-1.07,3.39,3.39,0,0,1,1.14-.68,4.33,4.33,0,0,1,2.8,0,3.49,3.49,0,0,1,1.14.68,3.12,3.12,0,0,1,.76,1.07,3.59,3.59,0,0,1,0,2.77,3.32,3.32,0,0,1-.76,1.07,3.39,3.39,0,0,1-1.14.68,4.33,4.33,0,0,1-2.8,0,3.49,3.49,0,0,1-1.14-.68,3.22,3.22,0,0,1-.76-1.07A3.63,3.63,0,0,1,50.29,37.84Zm2,0A1.69,1.69,0,0,0,52.69,39a1.52,1.52,0,0,0,1.18.44A1.5,1.5,0,0,0,55,39a1.61,1.61,0,0,0,.42-1.18A1.65,1.65,0,0,0,55,36.67a1.45,1.45,0,0,0-1.17-.44,1.55,1.55,0,0,0-1.18.44A1.69,1.69,0,0,0,52.28,37.84Z"/><path class="cls-1" d="M58.47,32.61a1.15,1.15,0,1,1,1.15,1.14,1.18,1.18,0,0,1-.81-.33A1.09,1.09,0,0,1,58.47,32.61Zm.16,2h2v6.42h-2Z"/><path class="cls-1" d="M62,34.63h1.9v.87h0a1.47,1.47,0,0,1,.27-.37,1.45,1.45,0,0,1,.41-.33,1.83,1.83,0,0,1,.54-.23,2.05,2.05,0,0,1,.65-.1,2.65,2.65,0,0,1,1.22.23,1.62,1.62,0,0,1,.72.65,2.53,2.53,0,0,1,.35,1,8.12,8.12,0,0,1,.1,1.21v3.54h-2V37.91c0-.18,0-.38,0-.57a2.57,2.57,0,0,0-.12-.55.85.85,0,0,0-.89-.57,1.33,1.33,0,0,0-.62.13.86.86,0,0,0-.36.37,1.59,1.59,0,0,0-.17.52,4.1,4.1,0,0,0,0,.62v3.19H62V34.63Z"/><path class="cls-1" d="M70.29,39.27V41l.63.18a4.45,4.45,0,0,0,.81.08A3.56,3.56,0,0,0,73.27,41a2.37,2.37,0,0,0,.91-.75,3,3,0,0,0,.44-1.08,7.66,7.66,0,0,0,.11-1.26V31.7H72.67v6c0,.18,0,.37,0,.57a1.81,1.81,0,0,1-.12.57,1,1,0,0,1-.29.44.81.81,0,0,1-.55.18"/><path class="cls-1" d="M76,37.84a3.28,3.28,0,0,1,.28-1.38A3.32,3.32,0,0,1,77,35.39a3.39,3.39,0,0,1,1.14-.68,4.3,4.3,0,0,1,2.79,0,3.43,3.43,0,0,1,1.15.68,3.26,3.26,0,0,1,.76,1.07,3.6,3.6,0,0,1,0,2.77,3.48,3.48,0,0,1-.76,1.07A3.34,3.34,0,0,1,81,41a4.3,4.3,0,0,1-2.79,0A3.49,3.49,0,0,1,77,40.3a3.22,3.22,0,0,1-.76-1.07A3.63,3.63,0,0,1,76,37.84Zm2,0A1.69,1.69,0,0,0,78.4,39a1.52,1.52,0,0,0,1.18.44A1.5,1.5,0,0,0,80.75,39a1.61,1.61,0,0,0,.41-1.18,1.64,1.64,0,0,0-.41-1.17,1.45,1.45,0,0,0-1.17-.44,1.55,1.55,0,0,0-1.18.44A1.69,1.69,0,0,0,78,37.84Z"/><path class="cls-1" d="M90.5,41.06H88.59v-.87h0a1.68,1.68,0,0,1-.27.37,1.61,1.61,0,0,1-.41.33,1.83,1.83,0,0,1-.54.23,2.05,2.05,0,0,1-.65.1A2.76,2.76,0,0,1,85.47,41a1.7,1.7,0,0,1-.73-.65,2.35,2.35,0,0,1-.34-1,8.2,8.2,0,0,1-.08-1.21V34.63h2v3.15c0,.19,0,.38,0,.57a2.07,2.07,0,0,0,.11.55,1.07,1.07,0,0,0,.31.42,1,1,0,0,0,.59.15,1.37,1.37,0,0,0,.63-.13,1,1,0,0,0,.36-.37,1.59,1.59,0,0,0,.17-.52,4.12,4.12,0,0,0,0-.62V34.64h2v6.42Z"/><path class="cls-1" d="M91.9,34.63h2v1h0a2.59,2.59,0,0,1,.75-.89,1.87,1.87,0,0,1,1.1-.3h.34a1.77,1.77,0,0,1,.32,0v1.81a3,3,0,0,0-.41-.09,3.15,3.15,0,0,0-.44,0,2.33,2.33,0,0,0-.9.15,1.21,1.21,0,0,0-.5.45,1.85,1.85,0,0,0-.24.68,8.27,8.27,0,0,0-.05.86v2.69h-2V34.63Z"/><path class="cls-1" d="M97.52,34.63h1.91v.87h0a1.23,1.23,0,0,1,.26-.37,1.8,1.8,0,0,1,.41-.33,1.83,1.83,0,0,1,.54-.23,2.11,2.11,0,0,1,.66-.1,2.65,2.65,0,0,1,1.22.23,1.59,1.59,0,0,1,.71.65,2.53,2.53,0,0,1,.35,1,7,7,0,0,1,.1,1.21v3.54h-2V37.91c0-.18,0-.38,0-.57a1.75,1.75,0,0,0-.12-.55.83.83,0,0,0-.89-.57,1.33,1.33,0,0,0-.62.13.86.86,0,0,0-.36.37,1.87,1.87,0,0,0-.17.52,4.12,4.12,0,0,0,0,.62v3.19h-2V34.63Z"/><path class="cls-1" d="M109.15,40.25h0a2,2,0,0,1-.88.74,3.05,3.05,0,0,1-1.15.22,2.82,2.82,0,0,1-.87-.13,2,2,0,0,1-.73-.38,2,2,0,0,1-.51-.62,2,2,0,0,1-.19-.86,1.82,1.82,0,0,1,.75-1.58,3,3,0,0,1,.8-.39,6,6,0,0,1,.94-.2c.31,0,.64-.07,1-.08h.89a1,1,0,0,0-.38-.84,1.34,1.34,0,0,0-.89-.31,2.07,2.07,0,0,0-.89.2,2.22,2.22,0,0,0-.72.57L105.2,35.5a3.57,3.57,0,0,1,1.29-.78,4.78,4.78,0,0,1,1.54-.25,4.2,4.2,0,0,1,1.44.22,2,2,0,0,1,.89.65,2.31,2.31,0,0,1,.47,1,6.21,6.21,0,0,1,.13,1.42v3.27l-1.79-.8Zm-.5-2-.56,0a3,3,0,0,0-.65.11,1.46,1.46,0,0,0-.52.28.65.65,0,0,0-.23.52.57.57,0,0,0,.31.53,1.27,1.27,0,0,0,.63.17,1.79,1.79,0,0,0,.57-.09,2.3,2.3,0,0,0,.48-.22,1.05,1.05,0,0,0,.47-.9v-.42Z"/><path class="cls-1" d="M112.63,31.06h2v10h-2Z"/><path class="cls-1" d="M109.19,40.25s.19,1.36,2.52.78V39.66s-.77.2-.77-.58h-1.75Z"/></svg>