<svg id="Layer_1" data-name="Layer 1" xmlns="http://www.w3.org/2000/svg" viewBox="0 0 125.4 73.11"><defs><style>.cls-1{fill:#0057ff;}</style></defs><path class="cls-1" d="M38.08,36.52V59.1c0,.18-.08.24-.26.24H34.74c-.2,0-.29-.09-.27-.29V14c0-.2.07-.27.29-.27h3.08c.2,0,.27.07.25.27V36.52Z"/><path class="cls-1" d="M42.52,23.65a8.1,8.1,0,0,1,3.76-6.84,7.19,7.19,0,0,1,7.54-.38,8.46,8.46,0,0,1,1.92,1.44.22.22,0,0,1,.07.29l-.05.06c-.57.67-1.12,1.35-1.66,2-.15.18-.24.13-.39,0A4.7,4.7,0,0,0,50.63,19a4.23,4.23,0,0,0-4.15,2.48,5,5,0,0,0,.4,5.4,4.4,4.4,0,0,0,6.31.91,13.37,13.37,0,0,0,1.2-1.06c.14-.14.24-.14.38,0,.6.58,1.22,1.17,1.82,1.73a.22.22,0,0,1,0,.35,8.42,8.42,0,0,1-5,3.15,7.08,7.08,0,0,1-6-1.58A8.38,8.38,0,0,1,42.52,23.65Z"/><path class="cls-1" d="M43.51,45.1V37.57c0-.36,0-.36.36-.36h9.19c.27,0,.36,0,.36.35q0,1.2,0,2.4c0,.26-.07.33-.33.33-2,0-3.9,0-5.83,0-.29,0-.36.08-.36.37,0,.74,0,1.47,0,2.2,0,.26.07.33.33.33,1.67,0,3.35,0,5,0,.36,0,.36,0,.36.37v2.4c0,.24-.07.31-.31.29h-5c-.38,0-.38,0-.38.4v6c0,.38,0,.38-.39.38H43.84c-.26,0-.33-.07-.33-.33Z"/><path class="cls-1" d="M69.77,26.18A5.84,5.84,0,0,1,64,32.07h0A5.9,5.9,0,0,1,64,20.28h.06A5.85,5.85,0,0,1,69.77,26.18Zm-3.1,0a3.4,3.4,0,0,0-.56-1.87,2.41,2.41,0,0,0-3.74-.64,3.56,3.56,0,0,0-.53,4.56,2.59,2.59,0,0,0,3.59.63h0a3,3,0,0,0,1.22-2.68Z"/><path class="cls-1" d="M58.34,46.69v-6c0-.42,0-.42-.4-.42H54.63c-.26,0-.33-.07-.33-.33,0-.8,0-1.62,0-2.44,0-.24.05-.33.31-.33H65.45c.24,0,.33.06.33.31,0,.8,0,1.62,0,2.44,0,.26-.07.35-.33.33-1.11,0-2.2,0-3.31,0-.42,0-.42,0-.42.44v11.9c0,.44,0,.44-.46.44H58.65c-.23,0-.29-.07-.29-.29C58.34,50.73,58.34,48.71,58.34,46.69Z"/><path class="cls-1" d="M77.19,26.16V20.93c0-.25.07-.34.35-.34.67,0,1.35,0,2,0a.4.4,0,0,1,.42.23c.29.59.29.57.89.3a4.64,4.64,0,0,1,5.07.45,3.52,3.52,0,0,1,1.42,2.72c.07,1.09,0,2.17.06,3.26v3.83c0,.4,0,.4-.42.4H84.61c-.24,0-.31-.07-.31-.31,0-2,0-4,0-6a3.25,3.25,0,0,0-.07-.82,1.93,1.93,0,0,0-2.34-1.26,1.83,1.83,0,0,0-1.51,1.3,2.46,2.46,0,0,0-.07.6v6.12c0,.28-.06.37-.35.37-.8,0-1.62,0-2.44,0-.26,0-.31-.08-.31-.31C77.21,29.68,77.19,27.93,77.19,26.16Z"/><path class="cls-1" d="M71.69,31.72c0-.09,0-.2,0-.29V21c0-.29.07-.36.36-.34q1.23,0,2.46,0c.2,0,.28.05.28.27V31.54c0,.15,0,.26-.2.26H71.83A.5.5,0,0,0,71.69,31.72Z"/><path class="cls-1" d="M73.24,19.07a1.65,1.65,0,0,1-1.7-1.62v-.07a1.7,1.7,0,1,1,3.39,0,1.66,1.66,0,0,1-1.66,1.68Z"/></svg>