<svg id="Layer_1" data-name="Layer 1" xmlns="http://www.w3.org/2000/svg" viewBox="0 0 125.4 73.11"><defs><style>.cls-1{fill:#0057ff;}</style></defs><path class="cls-1" d="M41.94,47.22h0l1-2.72h.34l-1.19,3.13h-.34L40.58,44.5h.34Z"/><path class="cls-1" d="M50.89,47.34h1.67v.29h-2V44.5h1.94v.28H50.88v1.07H52.4v.29H50.88v1.2Z"/><path class="cls-1" d="M62.26,47.16h0V44.5h.31v3.13h-.4l-1.82-2.69h0v2.69H60V44.5h.4Z"/><path class="cls-1" d="M71.26,47.63H71V44.78h-1v-.29h2.41v.29h-1Z"/><path class="cls-1" d="M80.77,47.71a1.17,1.17,0,0,1-.58-.13,1.05,1.05,0,0,1-.36-.3,1.13,1.13,0,0,1-.19-.4,3,3,0,0,1,0-.41v-2h.31v1.93a1.57,1.57,0,0,0,0,.37,1.09,1.09,0,0,0,.14.31.67.67,0,0,0,.27.23.93.93,0,0,0,.8,0,.74.74,0,0,0,.27-.23.87.87,0,0,0,.14-.31,1.57,1.57,0,0,0,0-.37V44.5H82v2a1.92,1.92,0,0,1,0,.41,1.44,1.44,0,0,1-.18.4.9.9,0,0,1-.37.3A1.17,1.17,0,0,1,80.77,47.71Z"/><path class="cls-1" d="M89.92,47.63H89.6V44.5h.92a1.58,1.58,0,0,1,.43,0,.85.85,0,0,1,.34.14.55.55,0,0,1,.22.26.76.76,0,0,1,.08.39.79.79,0,0,1-.23.56.76.76,0,0,1-.25.16,1.18,1.18,0,0,1-.31.08l.91,1.49h-.39l-.87-1.46h-.52v1.46Zm0-1.74h.55a1.1,1.1,0,0,0,.59-.14.45.45,0,0,0,.21-.42.58.58,0,0,0,0-.26.46.46,0,0,0-.17-.17.72.72,0,0,0-.24-.1,1.77,1.77,0,0,0-.33,0h-.56Z"/><path class="cls-1" d="M99.41,47.34h1.67v.29h-2V44.5H101v.28H99.4v1.07h1.52v.29H99.41Z"/><path class="cls-1" d="M110.07,45a.9.9,0,0,0-.26-.22.79.79,0,0,0-.62-.05.62.62,0,0,0-.22.1.5.5,0,0,0-.15.18.62.62,0,0,0-.06.26.54.54,0,0,0,.06.25.39.39,0,0,0,.15.16.94.94,0,0,0,.22.12l.26.08.32.12a1.08,1.08,0,0,1,.3.16,1.07,1.07,0,0,1,.22.25,1,1,0,0,1,.08.38,1.06,1.06,0,0,1-.08.4,1,1,0,0,1-.23.28,1,1,0,0,1-.33.16,1.19,1.19,0,0,1-.37.06,1.43,1.43,0,0,1-.29,0,1.14,1.14,0,0,1-.26-.09,1,1,0,0,1-.24-.14.72.72,0,0,1-.19-.2l.27-.2a.86.86,0,0,0,.29.28.89.89,0,0,0,.68.07,1.13,1.13,0,0,0,.22-.11.74.74,0,0,0,.16-.19.52.52,0,0,0,.07-.27.55.55,0,0,0-.07-.28.73.73,0,0,0-.17-.18,1.34,1.34,0,0,0-.24-.12l-.29-.1L109,46a1,1,0,0,1-.27-.17.75.75,0,0,1-.19-.24.86.86,0,0,1,0-.75.77.77,0,0,1,.24-.27,1.17,1.17,0,0,1,.32-.15,1.41,1.41,0,0,1,.35,0,1,1,0,0,1,.55.12.89.89,0,0,1,.34.27Z"/><path class="cls-1" d="M51.43,37.21l1.3,1.16a8,8,0,0,1-5.53,2.28,7.44,7.44,0,0,1-5.48-2.23,7.56,7.56,0,0,1,0-10.74,7.43,7.43,0,0,1,5.48-2.25,8,8,0,0,1,5.53,2.29l-1.3,1.17a6.4,6.4,0,0,0-4.23-1.82,5.63,5.63,0,0,0-4.11,1.73,6,6,0,0,0,0,8.48A5.59,5.59,0,0,0,47.19,39,6.3,6.3,0,0,0,51.43,37.21Z"/><path class="cls-1" d="M56.41,35.62v4.87H54.54V25.61h5.15a5.19,5.19,0,0,1,3.11,1.51,4.76,4.76,0,0,1,1.46,3.49,4.84,4.84,0,0,1-1.5,3.53A3.94,3.94,0,0,1,61,35.32l3.34,5.16H62.18l-3.13-4.87L57.94,34h1.2a3.16,3.16,0,0,0,2.28-1,3.26,3.26,0,0,0,1-2.41,3.23,3.23,0,0,0-1-2.4,3.16,3.16,0,0,0-2.28-1H56.42V34"/><path class="cls-1" d="M69.58,34.47l-5.11-8.86h2.07l4,6.89,4-6.89h2.07l-5.11,8.86v6H69.59Z"/><path class="cls-1" d="M79.92,35.62v4.87H78.05V25.61h4.26a5.24,5.24,0,0,1,3.11,1.51,4.72,4.72,0,0,1,1.46,3.49,4.83,4.83,0,0,1-1.48,3.52,4.92,4.92,0,0,1-3.64,1.49Zm0-8.38V34h1.84A3.16,3.16,0,0,0,84,33a3.26,3.26,0,0,0,1-2.41,3.23,3.23,0,0,0-1-2.4,3.16,3.16,0,0,0-2.28-1Z"/><path class="cls-1" d="M93.31,27.23V40.49H91.45V27.23H87.89V25.61h9v1.62Z"/><path class="cls-1" d="M110.3,27.65a7.53,7.53,0,0,1,0,10.76,7.81,7.81,0,0,1-11,0,7.58,7.58,0,0,1,0-10.76,7.81,7.81,0,0,1,11,0ZM104.8,27a5.64,5.64,0,0,0-4.11,1.74,6.07,6.07,0,0,0,0,8.51,5.75,5.75,0,0,0,8.24,0,6.07,6.07,0,0,0,0-8.51A5.63,5.63,0,0,0,104.8,27Z"/><path class="cls-1" d="M24.78,24.62A11.94,11.94,0,1,0,36.71,36.55,11.94,11.94,0,0,0,24.78,24.62Zm0,22.54A10.61,10.61,0,1,1,35.39,36.55,10.6,10.6,0,0,1,24.78,47.16Z"/><rect class="cls-1" x="29.42" y="32.35" width="1.33" height="1.33"/><rect class="cls-1" x="27.65" y="32.35" width="1.33" height="1.33"/><rect class="cls-1" x="27.65" y="30.59" width="1.33" height="1.33"/><rect class="cls-1" x="25.89" y="30.59" width="1.33" height="1.33"/><rect class="cls-1" x="24.12" y="30.59" width="1.33" height="1.33"/><rect class="cls-1" x="24.12" y="42.96" width="1.33" height="1.33"/><rect class="cls-1" x="22.34" y="30.59" width="1.33" height="1.33"/><rect class="cls-1" x="20.58" y="30.59" width="1.33" height="1.33"/><rect class="cls-1" x="20.58" y="32.35" width="1.33" height="1.33"/><rect class="cls-1" x="18.81" y="32.35" width="1.33" height="1.33"/><rect class="cls-1" x="20.58" y="34.12" width="1.33" height="1.33"/><rect class="cls-1" x="18.81" y="34.12" width="1.33" height="1.33"/><rect class="cls-1" x="20.58" y="35.9" width="1.33" height="1.33"/><rect class="cls-1" x="18.81" y="35.9" width="1.33" height="1.33"/><rect class="cls-1" x="20.58" y="37.66" width="1.33" height="1.33"/><rect class="cls-1" x="18.81" y="37.66" width="1.33" height="1.33"/><rect class="cls-1" x="20.58" y="39.43" width="1.33" height="1.33"/><rect class="cls-1" x="18.81" y="39.43" width="1.33" height="1.33"/><rect class="cls-1" x="27.65" y="41.19" width="1.33" height="1.33"/><rect class="cls-1" x="25.89" y="41.19" width="1.33" height="1.33"/><rect class="cls-1" x="24.12" y="41.19" width="1.33" height="1.33"/><rect class="cls-1" x="22.34" y="41.19" width="1.33" height="1.33"/><rect class="cls-1" x="20.58" y="41.19" width="1.33" height="1.33"/><rect class="cls-1" x="24.12" y="28.82" width="1.33" height="1.33"/><rect class="cls-1" x="29.42" y="39.43" width="1.33" height="1.33"/><rect class="cls-1" x="27.65" y="39.43" width="1.33" height="1.33"/></svg>