<svg id="Layer_1" data-name="Layer 1" xmlns="http://www.w3.org/2000/svg" viewBox="0 0 125.4 73.11"><defs><style>.cls-1{fill:#0057ff;}</style></defs><g id="Layer_2" data-name="Layer 2"><g id="Layer_1-2" data-name="Layer 1-2"><path class="cls-1" d="M27.91,26.39H33v.72H28.68v3h4v.72h-4v4H27.9V26.39Z"/><path class="cls-1" d="M37.76,26.39h.79v8.45h-.79Z"/><path class="cls-1" d="M44.09,26.39h1l5.15,7.4h0v-7.4h.78v8.45h-1L44.9,27.45h0v7.39h-.78V26.39Z"/><path class="cls-1" d="M59.19,26.39H60l3.55,8.45h-.87l-.93-2.24H57.28l-1,2.24h-.82Zm.37.85-2,4.63h3.88Z"/><path class="cls-1" d="M68,26.39h1l5.15,7.4h0v-7.4H75v8.45H74l-5.14-7.41h0v7.4H68Z"/><path class="cls-1" d="M87.48,33.52a3.52,3.52,0,0,1-1.42,1.17,4.28,4.28,0,0,1-1.72.36,4.72,4.72,0,0,1-1.78-.33,4,4,0,0,1-1.38-.92,3.93,3.93,0,0,1-.89-1.41,5.1,5.1,0,0,1,0-3.57,4.28,4.28,0,0,1,.89-1.4,3.89,3.89,0,0,1,1.38-.92,4.36,4.36,0,0,1,1.78-.33,4.14,4.14,0,0,1,1.6.3,3.12,3.12,0,0,1,1.31,1l-.64.54a2.27,2.27,0,0,0-1-.88,3,3,0,0,0-1.26-.27,3.79,3.79,0,0,0-1.49.28,3.21,3.21,0,0,0-1.13.79A3.44,3.44,0,0,0,81,29.13a4.59,4.59,0,0,0,0,2.93,3.78,3.78,0,0,0,.72,1.18,3.06,3.06,0,0,0,1.13.78,3.63,3.63,0,0,0,1.49.29,3.14,3.14,0,0,0,.67-.08,2.18,2.18,0,0,0,.66-.24,2.93,2.93,0,0,0,.63-.4,2.09,2.09,0,0,0,.52-.59Z"/><path class="cls-1" d="M92.13,26.39H97.3v.72H92.92v3H97v.72H92.92v3.28h4.57v.72H92.13Z"/><path class="cls-1" d="M35.83,39.32,33,46.85H32.2l-2.86-7.38h0L29.15,46h.78v.82H27.29V46h.93l.21-7.23h-1v-.84h2.31l2.84,7.35h0l2.8-7.35h2.32v.82h-.94L37,45.94h1v.82H35.19v-.82H36l-.16-6.63Z"/><path class="cls-1" d="M33,46.91h-.83l-2.81-7.25-.16,6.22H30v.94H27.23v-.94h.93l.21-7.12h-1v-.94h2.4l2.83,7.29,2.78-7.29h2.41v.94h-.94l.18,7.12h1v.94h-2.9v-.94H36l-.16-6.39Zm-.75-.1h.68l2.89-7.55.13,0L36.09,46h-.83v.71h2.68V46H37l-.18-7.35h.94V38H35.5L32.7,45.3h-.1L29.76,38H27.52v.72h1L28.27,46h-.94v.71h2.52V46h-.79l.16-6.59h.12Z"/><path class="cls-1" d="M42.15,45.94v.82H39.52v-.82h.82L43,37.8h1l2.7,8.14h.78v.82H44.78v-.82h.82l-.8-2.47H42.06l-.77,2.47Zm1.24-6.74L42.3,42.65h2.23L43.42,39.2Z"/><path class="cls-1" d="M47.48,46.84H44.73V45.9h.8l-.78-2.35H42.09l-.74,2.35h.85v.94H39.46V45.9h.83l2.65-8.14h1l2.71,8.14h.79v.94Zm-2.64-.12h2.53V46h-.76l-2.7-8.14H43L40.38,46h-.8v.72h2.51V46H41.2l.8-2.57h2.83L45.68,46h-.85v.72Zm-.23-4H42.23l1.11-3.55.11,0Zm-2.24-.11h2.09L43.4,39.34Z"/><path class="cls-1" d="M53.24,42.65H56v.82h-.65v2.89a6.14,6.14,0,0,1-2.56.58,3.66,3.66,0,0,1-3-1.22,5,5,0,0,1-1.06-3.38A4.94,4.94,0,0,1,49.89,39a3.66,3.66,0,0,1,2.91-1.23,7.08,7.08,0,0,1,2.59.52v2.1h-.9V38.89a5,5,0,0,0-1.71-.27,2.71,2.71,0,0,0-2.18.9,4.16,4.16,0,0,0-.76,2.73,4.35,4.35,0,0,0,.79,2.85,2.77,2.77,0,0,0,2.22.92,5.4,5.4,0,0,0,1.56-.23v-2.3H53.24Z"/><path class="cls-1" d="M52.8,47h0a3.73,3.73,0,0,1-3-1.25,5,5,0,0,1-1.07-3.42,5,5,0,0,1,1.1-3.4,3.71,3.71,0,0,1,3-1.25h0a7.06,7.06,0,0,1,2.6.53l0,0v2.2h-1V38.93a5.46,5.46,0,0,0-1.65-.25,2.64,2.64,0,0,0-2.13.88,4.15,4.15,0,0,0-.75,2.71,4.32,4.32,0,0,0,.78,2.81,2.71,2.71,0,0,0,2.17.91,5.84,5.84,0,0,0,1.5-.21V43.56H53.15v-.93h2.9v.93h-.63v2.86h0A6.34,6.34,0,0,1,52.8,47Zm0-9.21A3.65,3.65,0,0,0,49.92,39a4.88,4.88,0,0,0-1.07,3.34,5,5,0,0,0,1,3.35,3.62,3.62,0,0,0,2.91,1.2h0a6.08,6.08,0,0,0,2.52-.55v-2.9H56v-.72H53.3v.72h1.17v2.41h0a6,6,0,0,1-1.58.24,2.8,2.8,0,0,1-2.26-.94,4.32,4.32,0,0,1-.81-2.88,4.21,4.21,0,0,1,.78-2.78,2.73,2.73,0,0,1,2.22-.91,4.56,4.56,0,0,1,1.72.27h0V40.3h.78v-2a7,7,0,0,0-2.54-.52Z"/><path class="cls-1" d="M64.22,38.71h-1v-.82h2.9v.82h-1v8.07h-1l-4-6.94h0v6.1h1v.82H58.25v-.82h1V38.71h-1v-.82h2l4,6.85h0v-6Z"/><path class="cls-1" d="M65.2,46.84h-1l-4-6.83V45.9h1v.94h-3V45.9h1V38.77h-1v-.94h2.07l3.93,6.76V38.77h-1v-.94h3v.94h-1v8.07Zm-1-.12h.86V38.65h1v-.71H63.28v.71h1v6.13h-.12l-4-6.84H58.27v.71h1V46h-1v.72h2.78V46h-1V39.78h.12Z"/><path class="cls-1" d="M70,45.94v.82H67.34v-.82h.82l2.65-8.14h1l2.7,8.14h.77v.82H72.6v-.82h.81l-.8-2.47H69.86l-.78,2.47Zm1.23-6.74-1.08,3.45h2.23L71.24,39.2Z"/><path class="cls-1" d="M75.29,46.84H72.55V45.9h.8l-.77-2.35H69.92l-.75,2.35H70v.94H67.28V45.9h.84l2.65-8.14h1v0l2.68,8.11h.79Zm-2.64-.12h2.52V46h-.76v0l-2.68-8.11h-.88L68.19,46h-.8v.71H69.9V46H69l.8-2.58h2.83L73.49,46h-.85v.73Zm-.22-4H70.05l1.12-3.55.1,0ZM70.2,42.6h2.08l-1-3.26Z"/><path class="cls-1" d="M77.76,45.94H78.9V38.71H77.09V40h-.88V37.89h6.35V40h-.87V38.73H79.87V46H81v.82H77.73v-.84Z"/><path class="cls-1" d="M81.11,46.84H77.7V45.9h1.14V38.77H77.15v1.31h-1V37.83h6.45v2.25h-1V38.77H80V45.9h1.14v.94Zm-3.29-.12H81V46H79.86V38.65h1.9V40h.76v-2H76.29v2H77V38.67H79V46H77.82Z"/><path class="cls-1" d="M89.62,45.94V44.8h.88v2H84.57V46h1V38.73h-1v-.84h5.76v2h-.88V38.73H86.54v3.12h1.65V41H89v2.63h-.82v-1H86.54v3.29Z"/><path class="cls-1" d="M90.54,46.84h-6V45.9h1V38.77h-1v-.94h5.88v2.09h-1V38.77h-2.8v3h1.53V41h.94V43.7h-.94v-1H86.61v3.18h3V44.74h1v2.1Zm-5.92-.12h5.8V44.86h-.76V46H86.48V42.6h1.75v1H89V41.08h-.72v.82H86.48V38.65h3V39.8h.76V37.94H84.6v.71h1V46h-1v.72Z"/><path class="cls-1" d="M95.11,46.94a5.93,5.93,0,0,1-2.32-.46V44.63h.89v1.22a3.92,3.92,0,0,0,1.52.21,2.12,2.12,0,0,0,1.4-.41,1.56,1.56,0,0,0,.35-1.8,1.58,1.58,0,0,0-.37-.48A2.64,2.64,0,0,0,96,43c-.24-.12-.52-.24-.82-.36l-.88-.36a3.88,3.88,0,0,1-.79-.46,2.24,2.24,0,0,1-.58-.71,2.36,2.36,0,0,1,.57-2.76,3.25,3.25,0,0,1,2.14-.65,4.63,4.63,0,0,1,2.17.49V40h-.89V38.82a3.52,3.52,0,0,0-1.37-.26,2,2,0,0,0-1.37.43,1.34,1.34,0,0,0-.46,1,1.39,1.39,0,0,0,.13.61,1.71,1.71,0,0,0,.39.45,2.39,2.39,0,0,0,.63.34l.83.33c.31.12.61.25.89.38a4,4,0,0,1,.78.5,2.29,2.29,0,0,1,.55.71,2.41,2.41,0,0,1,.2,1.06,2.19,2.19,0,0,1-.81,1.81A3.13,3.13,0,0,1,95.11,46.94Z"/><path class="cls-1" d="M95.06,47a6,6,0,0,1-2.29-.46l0,0V44.59h1v1.23a4.56,4.56,0,0,0,1.46.2,2.13,2.13,0,0,0,1.37-.4,1.5,1.5,0,0,0,.34-1.73,1.26,1.26,0,0,0-.37-.46,2.72,2.72,0,0,0-.58-.37c-.24-.12-.52-.24-.82-.36l-.87-.36a3.64,3.64,0,0,1-.81-.47,2.32,2.32,0,0,1-.59-.73,2.13,2.13,0,0,1-.23-1,2.22,2.22,0,0,1,.82-1.76,3.29,3.29,0,0,1,2.17-.67,4.87,4.87,0,0,1,2.21.51h0V40.1h-1V38.89a3.21,3.21,0,0,0-1.3-.22,1.88,1.88,0,0,0-1.33.41,1.31,1.31,0,0,0-.31,1.58,1.51,1.51,0,0,0,.37.43,2.44,2.44,0,0,0,.61.34l.83.33c.32.12.61.25.9.39a3.63,3.63,0,0,1,.79.5,2.46,2.46,0,0,1,.55.73,2.57,2.57,0,0,1,.2,1.09,2.31,2.31,0,0,1-.83,1.86,3.3,3.3,0,0,1-2.23.71S95.08,47,95.06,47Zm-2.21-.57a5.81,5.81,0,0,0,2.26.45h0a3.16,3.16,0,0,0,2.16-.68,2.2,2.2,0,0,0,.78-1.77,2.36,2.36,0,0,0-.19-1,2.19,2.19,0,0,0-.53-.68,4.1,4.1,0,0,0-.76-.49c-.29-.14-.58-.27-.9-.39l-.83-.33a2.66,2.66,0,0,1-.64-.35,1.84,1.84,0,0,1-.42-.46,1.46,1.46,0,0,1,.33-1.7,2,2,0,0,1,1.4-.45,3.42,3.42,0,0,1,1.38.26h0V40h.78V38.27a4.87,4.87,0,0,0-2.12-.48,3.15,3.15,0,0,0-2.09.64,2.08,2.08,0,0,0-.78,1.67,1.92,1.92,0,0,0,.23,1,1.88,1.88,0,0,0,.56.69,3.21,3.21,0,0,0,.78.46l.87.36c.3.11.58.23.84.35a3.94,3.94,0,0,1,.61.39,1.51,1.51,0,0,1,.38.49,1.62,1.62,0,0,1-.37,1.86,2.23,2.23,0,0,1-1.44.43,4.4,4.4,0,0,1-1.53-.22l0,0v-1.2h-.77v1.75Z"/><path class="cls-1" d="M106.28,55.15H19.12V18h87.16ZM21.07,53.2h83.28V19.9H21.07Z"/></g></g></svg>