<?xml version="1.0" encoding="utf-8"?>
<!-- Generator: Adobe Illustrator 22.1.0, SVG Export Plug-In . SVG Version: 6.00 Build 0)  -->
<svg version="1.1" id="Layer_1" xmlns="http://www.w3.org/2000/svg" xmlns:xlink="http://www.w3.org/1999/xlink" x="0px" y="0px"
	 viewBox="0 0 125.4 73.1" style="enable-background:new 0 0 125.4 73.1;" xml:space="preserve">
<style type="text/css">
	.st0{fill:#0057FF;}
</style>
<g id="_x35_Afr2K_1_">
	<g>
		<path class="st0" d="M103,37.9c0,5.2,0,10.5,0,15.7c-25.8,0-51.6,0-77.3,0c0-4.5,0-9,0-13.5c-0.5,0-0.9,0-1.3,0.1
			c-0.6-5.3-1.2-10.4-1.8-15.7c14.6-1.7,29-3.4,43.6-5.1c0.6,5.3,1.2,10.5,1.8,15.7c-7.5,0.9-14.9,1.7-22.3,2.6c0,0,0,0.1,0,0.1
			c0.7,0,1.3,0,2,0c18.2,0,36.4,0,54.6,0C102.4,37.9,102.7,37.9,103,37.9z M56.3,48.5c-0.1-0.2-0.2-0.2-0.2-0.3
			c-1.2-2.3-2.5-4.6-3.5-6.9c-0.7-1.4-1.5-2-3.1-1.8c-1.2,0.1-1.3,0.2-1.3,1.4c0,3.4,0,6.8,0,10.3c0,1,0.1,1.1,1.1,1.1
			c0.2,0,0.3,0,0.5,0c0.5,0,0.8-0.2,0.8-0.8c-0.1-2.8-0.1-5.7-0.1-8.5c0-0.1,0-0.2,0.1-0.3c1.4,2.7,2.9,5.3,4.2,8
			c0.6,1.2,1.4,1.8,2.7,1.6c1-0.1,1.2-0.2,1.2-1.3c0-3.3,0-6.7,0-10c0-1.5-0.1-1.5-1.6-1.4c-0.5,0-0.7,0.2-0.7,0.8
			c0,2.4,0,4.8,0,7.2C56.3,47.7,56.3,48,56.3,48.5z M62.9,28.7c0.2,1.6,0.4,3.2,0.5,4.7c0.1,0.5,0.3,0.7,0.8,0.7c0.2,0,0.5,0,0.7,0
			c1.1-0.1,1.2-0.2,1-1.3c-0.4-3.4-0.8-6.8-1.2-10.3c-0.1-1.2-0.3-1.3-1.5-1.1c-0.1,0-0.1,0-0.2,0c-1,0.2-1,0.2-0.9,1.2
			c0.2,1.3,0.3,2.6,0.5,4c-1.6,0.2-3.2,0.4-4.7,0.5c-0.1-0.1-0.1-0.2-0.1-0.2c-0.1-1.1-0.3-2.2-0.4-3.3c-0.2-1.6-0.3-1.6-1.8-1.4
			c-0.8,0.1-0.9,0.2-0.8,1.1c0.4,3.6,0.9,7.2,1.3,10.9c0.1,0.7,0.4,0.9,1,0.8c0.2,0,0.4,0,0.5-0.1c1.1-0.2,1.1-0.2,1-1.3
			c-0.2-1.4-0.3-2.8-0.5-4.3c0.8-0.1,1.5-0.2,2.2-0.3C61.2,28.9,62,28.8,62.9,28.7z M73.9,47c1.5-0.2,2.1,0.1,2.7,1.3
			c0.4,0.8,0.7,1.6,1,2.3c0.6,1.6,0.7,1.6,2.4,1.5c0,0,0.1,0,0.1,0c0.6,0,0.8-0.3,0.5-0.8c-0.9-1.8-1.2-3.8-2.9-5.1
			c1-0.4,1.7-0.9,2.1-1.8c0.9-2.2-0.2-4.4-2.6-4.7c-1.5-0.2-3.1-0.1-4.7-0.2c-1.1,0-1.2,0.1-1.2,1.2c0,3.4,0,6.8,0,10.1
			c0,1.3,0.1,1.4,1.4,1.4c0.1,0,0.2,0,0.3,0c0.6,0,0.9-0.3,0.8-0.9C73.9,49.8,73.9,48.4,73.9,47z M87.4,39.3c-0.1,0-0.3,0-0.4,0
			c-1.2,0-1.2,0-1.6,1.2c-1.2,3.3-2.3,6.6-3.5,9.9c-0.6,1.7-0.4,1.9,1.4,1.7c0.4,0,0.7-0.2,0.8-0.6c0.2-0.6,0.4-1.2,0.6-1.8
			c0.1-0.2,0.4-0.4,0.6-0.4c0.7-0.1,1.4,0,2.1,0c0.8,0,1.7-0.2,2.2,0.2c0.5,0.3,0.6,1.3,0.8,2c0.2,0.6,0.5,0.8,1.1,0.8
			c0.2,0,0.4,0,0.6,0c1.3,0,1.4-0.1,0.9-1.3c-1.2-3.3-2.3-6.7-3.5-10C88.9,39.3,88.9,39.3,87.4,39.3z M40.8,46.5
			c0.1,0,0.2-0.1,0.2-0.1c1.1,0,2.1,0,3.2,0c0.7,0,0.9-0.1,0.9-1c0-0.8-0.1-0.9-0.8-0.9c-1.1,0-2.2,0-3.4,0c0-1.1,0-2.1,0-3.1
			c1.4,0,2.7,0,4,0c0.7,0,0.8-0.1,0.8-1c0-0.8-0.1-1-0.8-1c-1.9,0-3.8,0-5.7,0c-0.7,0-1,0.2-1,1c0,3.6,0,7.2,0,10.7
			c0,0.7,0.2,0.9,1,0.9c1.9,0,3.8,0,5.8,0c0.6,0,0.8-0.2,0.7-0.7c0-0.2,0-0.4,0-0.5c0-0.5-0.2-0.7-0.7-0.7c-1.2,0-2.4,0-3.6,0
			c-0.2,0-0.4,0-0.6,0C40.8,48.8,40.8,47.7,40.8,46.5z M37.5,26.4c1.4-0.2,2.7-0.3,4-0.5c0.8-0.1,0.9-0.2,0.8-1c-0.1-1-0.2-1.1-1-1
			c-1.8,0.2-3.7,0.4-5.5,0.7c-0.8,0.1-0.9,0.3-0.9,1c0.1,1.2,0.3,2.4,0.4,3.6c0.3,2.4,0.6,4.7,0.8,7.1c0.1,0.5,0.2,1,0.9,0.9
			c2-0.2,4-0.5,6.1-0.7c0.2,0,0.4-0.2,0.5-0.3c0.4-1-0.2-1.7-1.2-1.6c-0.2,0-0.3,0-0.5,0.1c-1.1,0.1-2.2,0.2-3.3,0.4
			c-0.1-1.2-0.3-2.4-0.4-3.5c1.1-0.1,2.2-0.3,3.3-0.4c0.8-0.1,0.9-0.2,0.8-1c-0.1-0.9-0.2-1.1-1-1c-1.1,0.1-2.2,0.2-3.3,0.4
			C37.8,28.5,37.7,27.5,37.5,26.4z M44.3,29.2c0,1.2,0.3,2.6,0.9,3.9c0.7,1.3,1.7,2.2,3.2,2.6c1.7,0.4,3.2,0.2,4.7-0.6
			c1.1-0.6,1.3-1.2,0.9-2.4c-0.1-0.4-0.3-0.5-0.6-0.2c-0.5,0.3-0.9,0.7-1.4,0.9c-1.9,0.9-3.8,0.1-4.5-1.9c-0.4-1.2-0.6-2.4-0.4-3.6
			c0.2-1.7,1.2-2.8,2.8-2.9c0.8,0,1.7,0.3,2.5,0.6c0.6,0.2,0.7,0.2,0.8-0.5c0-1.4-0.4-1.9-1.8-2.1C47.4,22.1,44.3,24.8,44.3,29.2z
			 M36,42.5c0.7-0.8,0.5-2.1-0.4-2.6c-1.2-0.7-2.5-0.6-3.8-0.5c-1.8,0.2-3.1,1.1-3.9,2.7c-1.2,2.4-1.1,4.8-0.2,7.2
			c0.5,1.3,1.5,2.2,2.9,2.6c1.5,0.5,3,0.4,4.5-0.1c1.3-0.5,1.6-1.1,1.3-2.4c-0.1-0.4-0.2-0.5-0.6-0.3c-0.4,0.2-0.8,0.5-1.2,0.7
			c-2.2,0.9-4.2-0.1-4.6-2.4c-0.2-1.1-0.2-2.2,0-3.3c0.5-2.6,2.8-3.5,5.1-2.2C35.4,42.1,35.7,42.3,36,42.5z M66.2,41.5
			c0.2,0,0.2-0.1,0.3-0.1c0.7,0,1.4,0,2.1,0c1.1,0,1.2-0.1,1.1-1.2c0-0.1,0-0.2,0-0.3c0-0.4-0.2-0.6-0.6-0.6c-2.8,0-5.6,0-8.5,0
			c-0.4,0-0.6,0.2-0.6,0.5c0,0.2,0,0.5,0,0.7c0,0.6,0.2,0.8,0.8,0.8c0.9,0,1.8,0,2.8,0c0,0.3,0,0.6,0,0.9c0,2.8,0,5.5,0,8.3
			c0,1.5,0.1,1.5,1.5,1.5c0.1,0,0.1,0,0.2,0c0.6,0,0.8-0.3,0.8-0.9c0-3,0-6,0-8.9C66.2,42,66.2,41.8,66.2,41.5z M27.4,27.7
			c0.1,0.3,0.1,0.6,0.1,0.9c0.3,2.9,0.7,5.7,1,8.6c0.1,1,0.2,1,1.2,1c0.1,0,0.2,0,0.3,0c1.2-0.2,1.2-0.2,1-1.4
			c-0.3-2.9-0.7-5.8-1-8.7c-0.1-0.6,0.1-0.8,0.7-0.8c0.7,0,1.4-0.2,2.1-0.2c0.5,0,0.7-0.3,0.6-0.7c0-0.3-0.1-0.5-0.1-0.8
			c-0.1-0.5-0.3-0.6-0.8-0.6c-2.6,0.3-5.2,0.6-7.7,0.9c-1.1,0.1-1.2,0.3-1,1.4c0,0.1,0,0.2,0.1,0.3c0.1,0.4,0.3,0.6,0.7,0.5
			C25.4,27.9,26.4,27.8,27.4,27.7z M97.4,50c0-0.3,0-0.6,0-0.8c0-2.7,0-5.4,0-8.1c0-1.7-0.2-1.9-2-1.7c-0.4,0.1-0.6,0.2-0.6,0.6
			c0,3.7,0,7.5,0,11.2c0,0.5,0.2,0.8,0.8,0.8c1.8,0,3.7,0,5.5,0c0.2,0,0.5-0.1,0.5-0.2c0.1-0.5,0.1-1.1,0-1.6c0-0.1-0.6-0.2-0.9-0.3
			C99.7,50,98.6,50,97.4,50z"/>
		<path class="st0" d="M73.9,45.1c0-1.2,0-2.3,0-3.4c0-0.1,0.3-0.3,0.4-0.3c0.6,0,1.1,0,1.7,0.1c0.9,0.1,1.3,0.6,1.4,1.4
			c0.1,0.8-0.3,1.7-1,1.9C75.6,45,74.8,45,73.9,45.1z"/>
		<path class="st0" d="M89,47.2c-1.3,0-2.4,0-3.6,0c0.6-1.8,1.2-3.5,1.7-5.2c0.1,0,0.1,0,0.2,0C87.9,43.7,88.4,45.4,89,47.2z"/>
	</g>
</g>
</svg>
