<svg id="Layer_1" data-name="Layer 1" xmlns="http://www.w3.org/2000/svg" viewBox="0 0 1520.52 552.45"><defs><style>.cls-1{fill:#f9f9f9;}</style></defs><title>@BrandingDSTOQ—220418</title><rect class="cls-1" x="2.19" width="1518.33" height="551.47"/><path d="M642.58,362.68V189.77q0-3.93,3.93-3.93h69.16q19.41,0,30.51,11.1t11.1,30.51V325q0,19.41-11.1,30.51t-30.51,11.1H646.51Q642.58,366.61,642.58,362.68Zm23.33-14.06h47.23q23.63,0,23.62-24.46V228.29q0-24.47-23.62-24.46H665.91c-1.87,0-2.81.84-2.81,2.53V346.09C663.1,347.78,664,348.62,665.91,348.62Z"/><path d="M796.92,330.11v-9q0-3.93,3.94-3.93h12.65c2.62,0,3.94,1.31,3.94,3.93v7.31q0,25.31,25,25.3h24.74q25,0,25-25.86V318.3q0-20.24-33.46-26.42-14.06-2.53-28.11-5.91a49.91,49.91,0,0,1-23.9-13.07q-9.84-9.7-9.84-26.57V232.55q0-19.4,11.11-30.5t30.5-11.11h31.21q19.11,0,30.36,11.11t11.25,30.5v7c0,2.82-1.22,4.22-3.66,4.22H894.76c-2.44,0-3.66-1.4-3.66-4.22v-5.06q0-25.58-25-25.58H842.19q-25,0-25,26.71v11.24q0,14.34,18.83,19.68,8.43,2.25,18.56,4.08a206.61,206.61,0,0,1,20.38,4.78,102.27,102.27,0,0,1,18.7,7.31A33.63,33.63,0,0,1,907.27,296q5.21,8.87,5.2,21.51v12.65q0,19.39-11.24,30.5t-30.37,11.11H838.53q-19.12,0-30.36-11.11T796.92,330.11Z"/><path d="M999.06,371.72H986.41q-3.95,0-3.94-3.94V211.47c0-1.69-.94-2.53-2.81-2.53H941.43q-4.21,0-4.22-3.94V194.88c0-2.62,1.41-3.94,4.22-3.94H1044c2.82,0,4.22,1.32,4.22,3.94V205c0,2.63-1.4,3.94-4.22,3.94h-38.23c-1.88,0-2.81.84-2.81,2.53V367.78C1003,370.41,1001.68,371.72,999.06,371.72Z"/><path d="M1147.22,371.72h-33.46q-19.4,0-30.5-11t-11.1-30.64V232.55q0-19.67,11.1-30.64t30.5-11h33.46q19.4,0,30.5,11.11t11.11,30.5v97.56q0,19.39-11.11,30.5T1147.22,371.72Zm-31.21-18h28.68q23.61,0,23.61-24.45V233.4q0-24.47-23.61-24.46H1116q-23.34,0-23.33,24.46v95.87Q1092.68,353.72,1116,353.72Z"/><path d="M1326.58,409.11h-11.52c-3.38,0-5.81-1.31-7.31-3.93l-20.24-33.46h-17.44q-19.11,0-30.22-11t-11.1-30.64V232.55q0-19.4,11.1-30.5t30.22-11.11h33.46q19.4,0,30.5,11t11.11,30.64v97.56q0,18-9.56,28.82t-26.43,12.23l20,33.45c.75,1.31.85,2.39.29,3.24A3.16,3.16,0,0,1,1326.58,409.11Zm-54-55.39h28.67q23.63,0,23.62-24.45V233.4q0-24.47-23.62-24.46h-28.67q-23.34,0-23.34,24.46v95.87Q1249.27,353.72,1272.61,353.72Z"/><circle cx="389.77" cy="275.18" r="21.49"/><circle cx="237.91" cy="208.87" r="13.11"/><rect x="305.52" y="132.29" width="39.51" height="20.79"/><rect x="275.41" y="199.11" width="96.45" height="20.79"/><rect x="259.37" y="266.22" width="85.65" height="20.79"/><rect x="175.38" y="266.22" width="47.52" height="20.79"/><rect x="277.96" y="332.82" width="93.37" height="20.79"/><rect x="222.25" y="332.82" width="31.31" height="20.79"/><rect x="293.46" y="399.67" width="51.57" height="20.79"/><path d="M373,132v20.91h38c68.08-.15,121.65,52.38,121.87,122.29C532.9,358,470,399.67,411.26,399.67h-39.4v20.8h39.4c77.23,0,142.33-56.83,142.33-143.54,0-92.52-72.66-145-142.33-145Z"/></svg>