<svg id="Layer_1" data-name="Layer 1" xmlns="http://www.w3.org/2000/svg" viewBox="0 0 1520.52 552.45"><title>@BrandingDSTOQ—220418</title><path d="M1301.28,208.94h-28.67q-23.34,0-23.34,24.46v95.87q0,24.45,23.34,24.45h28.67q23.63,0,23.62-24.45V233.4Q1324.9,208.94,1301.28,208.94Z"/><path d="M1144.69,208.94H1116q-23.34,0-23.33,24.46v95.87q0,24.45,23.33,24.45h28.68q23.61,0,23.61-24.45V233.4Q1168.3,208.94,1144.69,208.94Z"/><path d="M2.19,0V551.47H1520.52V0ZM305.52,132.29H345v20.8H305.52Zm-30.11,66.82h96.45V219.9H275.41Zm114.36,54.58a21.49,21.49,0,1,1-21.49,21.49A21.49,21.49,0,0,1,389.77,253.69ZM237.91,195.75a13.12,13.12,0,1,1-13.12,13.12A13.11,13.11,0,0,1,237.91,195.75Zm-62.53,70.47h47.53V287H175.38Zm78.18,87.39H222.25V332.82h31.31Zm5.81-87.39H345V287H259.37ZM345,420.47H293.46v-20.8H345Zm26.3-66.86H278V332.82h93.37Zm39.93,66.86h-39.4v-20.8h39.4C470,399.67,532.9,358,532.9,275.18c-.22-69.91-53.79-122.44-121.87-122.29H373V132h38.26c69.67,0,142.34,52.43,142.34,145C553.6,363.64,488.49,420.47,411.26,420.47Zm346-95.47q0,19.41-11.1,30.51t-30.51,11.1H646.51q-3.93,0-3.93-3.93V189.77q0-3.93,3.93-3.93h69.16q19.41,0,30.51,11.1t11.1,30.51Zm155.19,5.11q0,19.39-11.24,30.51t-30.37,11.1H838.53q-19.12,0-30.36-11.1t-11.25-30.51v-9q0-3.93,3.94-3.93h12.65c2.62,0,3.94,1.31,3.94,3.93v7.31q0,25.31,25,25.3h24.74q25,0,25-25.86V318.3q0-20.24-33.46-26.42-14.06-2.53-28.11-5.91a49.91,49.91,0,0,1-23.9-13.07q-9.84-9.7-9.84-26.57V232.55q0-19.4,11.11-30.5t30.5-11.11h31.21q19.11,0,30.36,11.11t11.25,30.5v7c0,2.82-1.22,4.22-3.66,4.22H894.76c-2.44,0-3.66-1.4-3.66-4.22v-5.06q0-25.58-25-25.58H842.19q-25,0-25,26.71v11.24q0,14.34,18.83,19.68,8.43,2.25,18.56,4.08a206.61,206.61,0,0,1,20.38,4.78,102.27,102.27,0,0,1,18.7,7.31A33.63,33.63,0,0,1,907.27,296q5.21,8.87,5.2,21.51ZM1048.26,205c0,2.63-1.4,3.94-4.22,3.94h-38.23c-1.88,0-2.81.84-2.81,2.53V367.78c0,2.63-1.32,3.94-3.94,3.94H986.41q-3.95,0-3.94-3.94V211.47c0-1.69-.94-2.53-2.81-2.53H941.43q-4.21,0-4.22-3.94V194.88c0-2.62,1.41-3.94,4.22-3.94H1044c2.82,0,4.22,1.32,4.22,3.94Zm140.57,125.11q0,19.39-11.11,30.51t-30.5,11.1h-33.46q-19.4,0-30.5-11t-11.1-30.64V232.55q0-19.67,11.1-30.64t30.5-11h33.46q19.4,0,30.5,11.11t11.11,30.5Zm156.31,0q0,18-9.56,28.82t-26.43,12.23l20,33.45c.75,1.31.85,2.39.29,3.24a3.16,3.16,0,0,1-2.82,1.26h-11.52c-3.38,0-5.81-1.31-7.31-3.93l-20.24-33.46h-17.44q-19.11,0-30.22-11t-11.1-30.64V232.55q0-19.4,11.1-30.5t30.22-11.11h33.46q19.4,0,30.5,11t11.11,30.64Z"/><path d="M713.14,203.83H665.91c-1.87,0-2.81.84-2.81,2.53V346.09c0,1.69.94,2.53,2.81,2.53h47.23q23.63,0,23.62-24.46V228.29Q736.76,203.83,713.14,203.83Z"/></svg>