<?xml version="1.0" encoding="UTF-8"?>
<svg width="477px" height="339px" viewBox="0 0 477 339" version="1.1" xmlns="http://www.w3.org/2000/svg" xmlns:xlink="http://www.w3.org/1999/xlink">
    <!-- Generator: Sketch 52.4 (67378) - http://www.bohemiancoding.com/sketch -->
    <title>dstoq</title>
    <desc>Created with Sketch.</desc>
    <defs>
        <polygon id="path-1" points="0 338.707692 476.553846 338.707692 476.553846 0 0 0"></polygon>
        <polygon id="path-3" points="0 338.707692 476.553846 338.707692 476.553846 0 0 0"></polygon>
        <polygon id="path-5" points="0 338.707692 476.553846 338.707692 476.553846 0 0 0"></polygon>
        <polygon id="path-7" points="0 338.707692 476.553846 338.707692 476.553846 0 0 0"></polygon>
        <polygon id="path-9" points="0 338.707692 476.553846 338.707692 476.553846 0 0 0"></polygon>
        <polygon id="path-11" points="0 338.707692 476.553846 338.707692 476.553846 0 0 0"></polygon>
        <polygon id="path-13" points="0 338.707692 476.553846 338.707692 476.553846 0 0 0"></polygon>
        <polygon id="path-15" points="0 338.707692 476.553846 338.707692 476.553846 0 0 0"></polygon>
    </defs>
    <g id="Page-1" stroke="none" stroke-width="1" fill="none" fill-rule="evenodd">
        <g id="dstoq" transform="translate(-21.000000, -80.000000)">
            <path d="M288.38747,214.070892 C306.469233,206.581386 327.197649,215.167187 334.687267,233.248677 C342.178732,251.330167 333.590956,272.060115 315.509193,279.549621 C297.427428,287.039127 276.699014,278.453325 269.209394,260.371835 C261.719775,242.290345 270.305707,221.560397 288.38747,214.070892" id="Fill-1" fill="#4A95FC"></path>
            <path d="M332.595657,418.789744 L284.882051,418.789744 L284.882051,383.604144 L332.595657,383.604144 C404.166065,383.604144 462.421048,325.270124 462.421048,253.602614 L462.421048,245.269181 C462.421048,173.601671 404.166065,115.267651 332.595657,115.267651 L286.176607,115.267651 L286.176607,80.0820513 L332.595657,80.0820513 C423.584393,80.0820513 497.558974,154.156998 497.558974,245.269181 L497.558974,253.602614 C497.558974,344.714797 423.584393,418.789744 332.595657,418.789744" id="Fill-3" fill="#4A95FC"></path>
            <g id="Fill-5-Clipped" transform="translate(21.005128, 80.082051)">
                <mask id="mask-2" fill="white">
                    <use xlink:href="#path-1"></use>
                </mask>
                <g id="path-1"></g>
                <polygon id="Fill-5" fill="#4A95FC" mask="url(#mask-2)" points="174.605128 338.707692 232.369231 338.707692 232.369231 303.261538 174.605128 303.261538"></polygon>
            </g>
            <g id="Fill-7-Clipped" transform="translate(21.005128, 80.082051)">
                <mask id="mask-4" fill="white">
                    <use xlink:href="#path-3"></use>
                </mask>
                <g id="path-1"></g>
                <polygon id="Fill-7" fill="#4A95FC" mask="url(#mask-4)" points="95.8358974 187.733333 208.738462 187.733333 208.738462 152.287179 95.8358974 152.287179"></polygon>
            </g>
            <g id="Fill-8-Clipped" transform="translate(21.005128, 80.082051)">
                <mask id="mask-6" fill="white">
                    <use xlink:href="#path-5"></use>
                </mask>
                <g id="path-1"></g>
                <path d="M110.933333,70.8923077 C124.34648,70.8923077 135.220513,81.7663403 135.220513,95.1794872 C135.220513,108.592634 124.34648,119.466667 110.933333,119.466667 C97.5201864,119.466667 86.6461538,108.592634 86.6461538,95.1794872 C86.6461538,81.7663403 97.5201864,70.8923077 110.933333,70.8923077" id="Fill-8" fill="#4A95FC" mask="url(#mask-6)"></path>
            </g>
            <g id="Fill-9-Clipped" transform="translate(21.005128, 80.082051)">
                <mask id="mask-8" fill="white">
                    <use xlink:href="#path-7"></use>
                </mask>
                <g id="path-1"></g>
                <polygon id="Fill-9" fill="#4A95FC" mask="url(#mask-8)" points="161.476923 112.902564 258.625641 112.902564 258.625641 77.4564103 161.476923 77.4564103"></polygon>
            </g>
            <g id="Fill-10-Clipped" transform="translate(21.005128, 80.082051)">
                <mask id="mask-10" fill="white">
                    <use xlink:href="#path-9"></use>
                </mask>
                <g id="path-1"></g>
                <polygon id="Fill-10" fill="#4A95FC" mask="url(#mask-10)" points="161.476923 261.251282 258.625641 261.251282 258.625641 225.805128 161.476923 225.805128"></polygon>
            </g>
            <g id="Fill-11-Clipped" transform="translate(21.005128, 80.082051)">
                <mask id="mask-12" fill="white">
                    <use xlink:href="#path-11"></use>
                </mask>
                <g id="path-1"></g>
                <polygon id="Fill-11" fill="#4A95FC" mask="url(#mask-12)" points="189.046154 35.4461538 233.682051 35.4461538 233.682051 0 189.046154 0"></polygon>
            </g>
            <g id="Fill-12-Clipped" transform="translate(21.005128, 80.082051)">
                <mask id="mask-14" fill="white">
                    <use xlink:href="#path-13"></use>
                </mask>
                <g id="path-1"></g>
                <polygon id="Fill-12" fill="#4A95FC" mask="url(#mask-14)" points="84.0205128 261.251282 128.65641 261.251282 128.65641 225.805128 84.0205128 225.805128"></polygon>
            </g>
            <g id="Fill-13-Clipped" transform="translate(21.005128, 80.082051)">
                <mask id="mask-16" fill="white">
                    <use xlink:href="#path-15"></use>
                </mask>
                <g id="path-1"></g>
                <polygon id="Fill-13" fill="#4A95FC" mask="url(#mask-16)" points="0 187.733333 55.1384615 187.733333 55.1384615 152.287179 0 152.287179"></polygon>
            </g>
            <rect id="Rectangle" x="0" y="0" width="512" height="512"></rect>
        </g>
    </g>
</svg>