<svg id="Layer_1" data-name="Layer 1" xmlns="http://www.w3.org/2000/svg" viewBox="0 0 125.4 73.11"><defs><style>.cls-1{fill:#000102;}</style></defs><path class="cls-1" d="M44.93,38.4c-.72-.08-1.43,0-2.14,0a.74.74,0,0,0-.69.37,5.22,5.22,0,0,1-2.5,2.11,4.64,4.64,0,0,1-3.51.1,7,7,0,0,1-2.94-2.3c-.69-.87-1.31-1.79-2-2.69s-1.27-1.86-2-2.76a14.48,14.48,0,0,0-3.52-3.55,7.21,7.21,0,0,0-3.82-1.18,7,7,0,0,0-2.8.53,8,8,0,0,0-3.28,2.31,7.82,7.82,0,0,0-1.7,4.92,6.09,6.09,0,0,0,.2,1.7,8.16,8.16,0,0,0,1.42,2.84A7.07,7.07,0,0,0,18.55,43a8,8,0,0,0,3.89.69,7.09,7.09,0,0,0,3.46-1.23,13.71,13.71,0,0,0,2.83-2.76.72.72,0,0,0,.08-1c-.28-.4-.55-.81-.84-1.2-.11-.15-.16-.4-.33-.42s-.23.25-.36.37l-.18.21a13.65,13.65,0,0,1-2,2.19A5.74,5.74,0,0,1,23.23,41a4.7,4.7,0,0,1-3.4-.19,5.06,5.06,0,0,1-1.63-8.32,5.1,5.1,0,0,1,2.43-1.33,4.61,4.61,0,0,1,2.09-.07,5.77,5.77,0,0,1,3,1.79,33.27,33.27,0,0,1,3.23,4.32,27,27,0,0,0,3.47,4.36,7.75,7.75,0,0,0,4.06,2.11,7.86,7.86,0,0,0,7-2.54,15.36,15.36,0,0,0,1.6-2.55C45.19,38.37,45,38.41,44.93,38.4Z"/><path class="cls-1" d="M61.63,32.11a4.06,4.06,0,0,0-3.94.12c-.21.11-.41.23-.6.35a.24.24,0,0,1-.33,0A3.23,3.23,0,0,0,55,31.76a5,5,0,0,0-3.19.47,2.57,2.57,0,0,0-1.45,2c0,.32,0,.4.36.4.5,0,1,.08,1.49.12.17,0,.24,0,.3-.19a1.46,1.46,0,0,1,1.27-1.07,1.49,1.49,0,0,1,1.64.67,2,2,0,0,1,.21,1.12c0,.25-.08.3-.31.3a15.38,15.38,0,0,0-2.54.09,3.54,3.54,0,0,0-1.81.74,2.66,2.66,0,0,0-.81,2.7,2.31,2.31,0,0,0,1.27,1.69,4.09,4.09,0,0,0,1.61.42,4.55,4.55,0,0,0,3.5-1.11c.19-.16.28-.13.43,0a4.35,4.35,0,0,0,3.53,1.09A9.07,9.07,0,0,0,63,40.4a.39.39,0,0,0,.24-.55c-.13-.32-.31-.64-.42-1s-.16-.17-.31-.1a4.84,4.84,0,0,1-1.8.63,3,3,0,0,1-1.81-.27,2.3,2.3,0,0,1-1.11-1.83c0-.22,0-.26.23-.26.86,0,1.73,0,2.6,0h2.63c.2,0,.28,0,.26-.25,0-.65,0-1.3-.05-1.95A3.33,3.33,0,0,0,61.63,32.11Zm-6,5.77v0c0,.9-.17,1.12-1.05,1.43a2.16,2.16,0,0,1-1.54.09,1,1,0,0,1-.77-.83,1.17,1.17,0,0,1,.49-1.2A2,2,0,0,1,54,37.06c.48,0,1,0,1.44,0,.17,0,.24.05.22.22S55.63,37.68,55.63,37.88Zm5.2-2.35H58c-.17,0-.23,0-.19-.23a2.1,2.1,0,0,1,1.23-1.74A1.62,1.62,0,0,1,61.4,35C61.44,35.53,61.42,35.53,60.83,35.53Z"/><path class="cls-1" d="M76.45,32.61a3.61,3.61,0,0,0-3.17-.88,4,4,0,0,0-3.38,3A7.3,7.3,0,0,0,69.81,38a4.18,4.18,0,0,0,3.41,3.2,5.16,5.16,0,0,0,2.55-.28,3.39,3.39,0,0,0,1.64-1.18c.08-.1.14-.2,0-.32-.27-.32-.55-.63-.82-.94-.11-.13-.2-.11-.3,0a3.52,3.52,0,0,1-.88.65,2.33,2.33,0,0,1-3.58-1.63c0-.21,0-.3.25-.29.89,0,1.77,0,2.66,0s1.76,0,2.63,0c.28,0,.34-.09.34-.35a12.57,12.57,0,0,0-.14-1.94A3.81,3.81,0,0,0,76.45,32.61ZM75.6,35.4c0,.16-.13.13-.23.13H73.75c-.51,0-1,0-1.52,0-.3,0-.35-.11-.31-.36a2,2,0,0,1,2.5-1.68A2,2,0,0,1,75.6,35.4Z"/><path class="cls-1" d="M111.1,31.85h-1.78a.34.34,0,0,0-.36.26c-.06.22-.13.43-.2.64-.31,1.11-.64,2.21-1,3.31-.17.56-.34,1.12-.54,1.75l-.5-1.61c-.36-1.18-.72-2.37-1.1-3.55-.11-.36-.19-.79-.7-.8h-1.69c-.15,0-.16.08-.12.2l.33,1c.52,1.45,1,2.89,1.54,4.34.38,1.07.77,2.14,1.15,3.22a.72.72,0,0,1,0,.56c-.13.3-.26.6-.38.9a1.3,1.3,0,0,1-.87.71,4.22,4.22,0,0,1-.79.07c-.15,0-.34,0-.34.24s0,.68,0,1a.46.46,0,0,0,.37.49,2.73,2.73,0,0,0,2.65-.7,4.54,4.54,0,0,0,1-1.88c.44-1.29.9-2.57,1.35-3.86.37-1.07.73-2.14,1.09-3.2s.65-1.89,1-2.83C111.3,32,111.31,31.85,111.1,31.85Z"/><path class="cls-1" d="M44.94,33.63a7.68,7.68,0,0,0-6.49-5.1,7.14,7.14,0,0,0-4.56,1A12.8,12.8,0,0,0,30.6,32.7a.49.49,0,0,0-.07.57c.39.6.8,1.18,1.2,1.77.09.13.15.19.28,0s.47-.61.71-.91a10,10,0,0,1,2.33-2.3,4.55,4.55,0,0,1,2.7-.85,5.49,5.49,0,0,1,3,1.07,4.86,4.86,0,0,1,1.79,2.59c.05.16,0,.23-.17.23H36.5c-.46,0-.63.18-.63.63v1.13c0,.57.19.76.78.76h8c.43,0,.61-.16.73-.58a2.65,2.65,0,0,0,0-.69A7.32,7.32,0,0,0,44.94,33.63Z"/><path class="cls-1" d="M92.31,34.15a2.41,2.41,0,0,0-1.25-2.07,3.36,3.36,0,0,0-3.58.2c-.19.12-.37.28-.6.45,0-.22,0-.38,0-.54s-.13-.3-.35-.29q-.7,0-1.41,0c-.2,0-.27.07-.27.26q0,4.28,0,8.54c0,.21.08.27.27.26.5,0,1,0,1.5,0,.27,0,.35-.06.35-.34,0-1.91,0-3.82,0-5.73a.72.72,0,0,1,.07-.38,1.88,1.88,0,0,1,2.23-1,1.14,1.14,0,0,1,.93.83,3.76,3.76,0,0,1,.09.88c0,1.8,0,3.59,0,5.39,0,.26.05.36.33.35a12.51,12.51,0,0,1,1.5,0c.3,0,.36-.1.35-.37,0-1.35,0-2.69,0-4C92.33,35.76,92.39,35,92.31,34.15Z"/><path class="cls-1" d="M68.78,39.37c-.92,0-1.23,0-1.22-1.07,0-.71,0-1.43,0-2.14s0-1.61,0-2.42c0-.26.08-.33.33-.32s.65,0,1,0c.16,0,.24,0,.24-.22,0-.37,0-.75,0-1.13,0-.17,0-.23-.22-.23-.37,0-.74,0-1.1,0s-.28-.07-.27-.28c0-.53,0-1.06,0-1.59,0-.21,0-.29-.27-.29q-.8,0-1.59,0c-.22,0-.27.08-.27.29,0,.53,0,1.06,0,1.59,0,.26-.09.34-.33.33s-.6,0-.89,0-.27,0-.26.23q0,.57,0,1.14c0,.15.05.22.21.21.32,0,.64,0,.95,0s.33.09.32.34c0,1,0,1.91,0,2.87a22,22,0,0,0,0,2.57A2,2,0,0,0,66.78,41a3.45,3.45,0,0,0,2.13,0,.3.3,0,0,0,.26-.35c0-.33,0-.66,0-1S69.16,39.37,68.78,39.37Z"/><path class="cls-1" d="M102,39.34l-.15,0a.77.77,0,0,1-1-.7,1.22,1.22,0,0,1,0-.27V36.12c0-.79,0-1.59,0-2.39,0-.19.06-.26.26-.25.36,0,.72,0,1.07,0,.2,0,.27-.07.26-.26q0-.57,0-1.14c0-.17,0-.23-.22-.23-.36,0-.72,0-1.08,0s-.3-.05-.29-.29c0-.54,0-1.08,0-1.62,0-.19,0-.27-.25-.26H99c-.23,0-.27.08-.27.28,0,.55,0,1.1,0,1.65,0,.22-.08.29-.29.28s-.65,0-1,0c-.15,0-.22,0-.22.21,0,.39,0,.77,0,1.16,0,.16.06.22.22.21s.63,0,.95,0,.32.08.32.33c0,1.8,0,3.59,0,5.38a1.87,1.87,0,0,0,.78,1.55,3,3,0,0,0,2.81.26c.14,0,.14-.15.14-.27v-1C102.47,39.32,102.45,39.3,102,39.34Z"/><path class="cls-1" d="M83.58,31.79a2.59,2.59,0,0,0-2.17.57c-.07.08-.15.23-.3.15s-.06-.2-.06-.31-.09-.31-.32-.3c-.46,0-.92,0-1.38,0-.25,0-.33.07-.32.32,0,1.41,0,2.82,0,4.22s0,2.78,0,4.16c0,.27,0,.39.34.37a14.42,14.42,0,0,1,1.47,0c.26,0,.32-.08.32-.33,0-1.76,0-3.51,0-5.26,0-.86.43-1.3,1.31-1.53a5,5,0,0,1,1.16-.05c.15,0,.25,0,.24-.21v-1.5A.27.27,0,0,0,83.58,31.79Z"/><path class="cls-1" d="M95.57,31.9c-.47,0-.94,0-1.4,0-.26,0-.34.06-.34.32,0,1.41,0,2.82,0,4.22v4.23c0,.22,0,.3.29.3q.75,0,1.5,0c.24,0,.29-.09.28-.31,0-.52,0-1,0-1.56V32.24C95.92,32,95.85,31.88,95.57,31.9Z"/><path class="cls-1" d="M94.85,28.44a1.06,1.06,0,0,0-1.18,1.13,1.08,1.08,0,0,0,1.21,1.11,1.06,1.06,0,0,0,1.21-1.1C96.1,28.86,95.64,28.44,94.85,28.44Z"/></svg>