<svg xmlns="http://www.w3.org/2000/svg" viewBox="0 0 585.82 250"><defs><style>.cls-1{stroke:#000;stroke-miterlimit:10;stroke-width:0.75px;}</style></defs><title>Asset 3</title><g id="Layer_2" data-name="Layer 2"><g id="Layer_1-2" data-name="Layer 1"><path d="M59.06,56.66h34v4.81H64.35V81.69H91.07V86.5H64.35v27H59.06Z"/><path d="M125.32,56.66h5.3v56.8h-5.3Z"/><path d="M167.84,56.66h6.82l34.58,49.74h.16V56.66h5.29v56.8h-6.82L173.3,63.72h-.16v49.74h-5.3Z"/><path d="M269.32,56.66h5.46l23.91,56.8h-5.94l-6.18-15.09H256.49l-6.42,15.09h-5.53Zm2.49,5.77L258.57,93.56h26.08Z"/><path d="M328.53,56.66h6.82l34.57,49.74h.17V56.66h5.29v56.8h-6.82L334,63.72h-.17v49.74h-5.29Z"/><path d="M459.38,104.55a24.07,24.07,0,0,1-9.47,7.94,28.07,28.07,0,0,1-11.63,2.41,31.31,31.31,0,0,1-11.92-2.21,26.81,26.81,0,0,1-9.26-6.17,28.34,28.34,0,0,1-6-9.47,34.13,34.13,0,0,1,0-24,28.32,28.32,0,0,1,6-9.42,27.21,27.21,0,0,1,9.26-6.22,30.76,30.76,0,0,1,11.92-2.25,28.39,28.39,0,0,1,10.79,2,21.37,21.37,0,0,1,8.78,6.86l-4.33,3.61a15.73,15.73,0,0,0-6.78-5.86A20.58,20.58,0,0,0,438.28,60a25,25,0,0,0-10,1.92,22.23,22.23,0,0,0-7.58,5.3,23.4,23.4,0,0,0-4.82,7.94,29.83,29.83,0,0,0,0,19.74,23.6,23.6,0,0,0,4.82,7.94,22.2,22.2,0,0,0,7.58,5.29,25,25,0,0,0,10,1.93,20.41,20.41,0,0,0,4.49-.53,20.06,20.06,0,0,0,4.53-1.6,21.32,21.32,0,0,0,4.21-2.73,17.13,17.13,0,0,0,3.53-4Z"/><path d="M490.74,56.66h34.74v4.81H496V81.69h27.59V86.5H496v22.14h30.72v4.82h-36Z"/><path class="cls-1" d="M112.26,143.6,92.91,194.23H87.83L68.59,144.59h-.22l-1.11,43.56h5.31v5.53H54.88v-5.53h6.3l1.44-48.64H56.1V134H71.58L90.7,183.4h.22L109.72,134h15.59v5.53H119l1.21,48.64h6.52v5.53H108v-5.53h5.64l-1.11-44.55Z"/><path class="cls-1" d="M154.79,188.15v5.53H137.1v-5.53h5.53l17.8-54.72h6.41L185,188.15h5.19v5.53H172.48v-5.53H178l-5.42-16.58H154.13l-5.2,16.58Zm8.3-45.33L155.79,166h15l-7.51-23.22Z"/><path class="cls-1" d="M229.28,166h18.79v5.53h-4.42v19.35a40.35,40.35,0,0,1-17.25,3.87q-12.83,0-19.9-8.24t-7.07-22.72q0-14.37,7.29-22.67t19.57-8.29a46.51,46.51,0,0,1,17.36,3.54v14.15h-6.08v-9.84a33.69,33.69,0,0,0-11.5-1.77q-9.51,0-14.59,6t-5.09,18.41q0,12.93,5.31,19.12t14.92,6.19a38.26,38.26,0,0,0,10.51-1.54V171.57h-7.85Z"/><path class="cls-1" d="M303.1,139.51h-6.64V134h19.46v5.53h-6.63v54.17h-6.41l-27-46.55h-.22v41h6.63v5.53H262.85v-5.53h6.64V139.51h-6.64V134h13.27l26.76,46h.22Z"/><path class="cls-1" d="M341.76,188.15v5.53H324.07v-5.53h5.53l17.8-54.72h6.41l18.13,54.72h5.2v5.53H359.45v-5.53H365l-5.42-16.58H341.1l-5.2,16.58Zm8.29-45.33L342.76,166h15l-7.52-23.22Z"/><path class="cls-1" d="M394.13,188.15h7.74V139.51H389.71v8.84h-5.86V134h42.68v14.37h-5.86v-8.84H408.51v48.64h7.74v5.53H394.13Z"/><path class="cls-1" d="M473.81,188.15v-7.74h5.86v13.27h-39.8v-5.53h6.64V139.51h-6.64V134h38.7v13.27h-5.86v-7.74H453.14v21H464.2V155h5.52v17.69H464.2V166H453.14v22.11Z"/><path class="cls-1" d="M510.71,194.79a39.06,39.06,0,0,1-15.59-3.1V179.31h6v8.18a29.74,29.74,0,0,0,10.17,1.44q6.07,0,9.45-2.82a10.53,10.53,0,0,0,2.44-12.05,10.65,10.65,0,0,0-2.55-3.21,18,18,0,0,0-4-2.54q-2.45-1.17-5.53-2.38t-5.92-2.38a23.13,23.13,0,0,1-5.3-3.15,14.25,14.25,0,0,1-3.87-4.75,14.65,14.65,0,0,1-1.5-6.86,14.21,14.21,0,0,1,5.31-11.55q5.31-4.37,14.37-4.37a32.2,32.2,0,0,1,14.6,3.32v12.16h-6v-8a23.83,23.83,0,0,0-9.18-1.66q-6.08,0-9.17,2.88a9,9,0,0,0-3.1,6.85,8.48,8.48,0,0,0,.94,4.15,9.84,9.84,0,0,0,2.65,3,17.51,17.51,0,0,0,4.2,2.32l5.59,2.21q3.09,1.22,6,2.6a23.22,23.22,0,0,1,5.2,3.32,14.75,14.75,0,0,1,3.65,4.75,16.21,16.21,0,0,1,1.38,7.13,15.16,15.16,0,0,1-5.47,12.22Q520,194.79,510.71,194.79Z"/><path d="M585.82,250H0V0H585.82ZM13.06,236.94h559.7V13.06H13.06Z"/></g></g></svg>