<svg id="Layer_1" data-name="Layer 1" xmlns="http://www.w3.org/2000/svg" viewBox="0 0 584 812.68"><defs><style>.cls-1,.cls-3,.cls-5,.cls-7{fill:none;}.cls-1,.cls-3,.cls-4,.cls-5,.cls-7{stroke:#1060ea;}.cls-1,.cls-5,.cls-7{stroke-linecap:round;stroke-linejoin:round;}.cls-2,.cls-4{fill:#cee7fd;}.cls-3,.cls-4{stroke-miterlimit:10;}.cls-5{stroke-width:2.5px;}.cls-6{fill:#1060ea;}.cls-7{stroke-width:3px;}</style></defs><polygon class="cls-1" points="247.99 644.68 318.26 674.68 386.85 641.64 318.26 613.32 247.99 644.68"/><polygon class="cls-2" points="249.93 644.6 318.24 673.76 385.95 642.31 318.24 614.84 249.93 644.6"/><polygon class="cls-3" points="248.74 630.93 318.24 660.6 384.17 629.58 318.24 599.91 248.74 630.93"/><polyline class="cls-1" points="248.74 630.93 318.24 531.14 384.17 629.58"/><line class="cls-1" x1="318.24" y1="660.6" x2="318.24" y2="531.14"/><polyline class="cls-1" points="385.95 642.31 318.24 738.73 248.74 645.01"/><polygon class="cls-1" points="248.74 645.01 318.24 674.68 318.24 738.73 248.74 645.01"/><line class="cls-1" x1="318.24" y1="674.68" x2="385.95" y2="642.31"/><ellipse class="cls-4" cx="152.7" cy="364.63" rx="69.44" ry="85.35"/><ellipse class="cls-1" cx="169.44" cy="364.63" rx="69.44" ry="85.35"/><circle class="cls-4" cx="421.6" cy="458.77" r="53.6"/><g id="Ub8UkE.tif"><path class="cls-5" d="M389.24,462.4c2.36-2.35,4.55-4.91,7.12-7a18.35,18.35,0,0,1,14-4.07,2.37,2.37,0,0,0,1.83-1,85.72,85.72,0,0,0,4.52-7.82c4-8.13,10.91-12.2,19.33-14.19,2.38-.56,4.87-.67,7.31-1a1.84,1.84,0,0,1,2.24,1.55c2,7.19,2.64,14.45.32,21.65a25.21,25.21,0,0,1-3.68,6.8c-2.27,3.17-4.92,6.07-7.31,9.15a2.4,2.4,0,0,0-.38,2.07c3.32,6.4,2.59,12.71-.25,19a27.78,27.78,0,0,1-3,5,22.29,22.29,0,0,0-6.67-13.77c-1.65,2.18-3.56,1.89-5.52.4a22.32,22.32,0,0,1-8.49,9.41c-2.55,1.56-5.36,2.88-8.28,1.05s-2.84-4.81-2.47-7.74a22.07,22.07,0,0,1,5.92-12.27c-1.73-1.35-2.89-2.89-1.27-5.19a19.64,19.64,0,0,0-13.09-1.79,18,18,0,0,1-2.21.22Zm41.21-8.16a7.43,7.43,0,0,0,7.44-7.63,7.45,7.45,0,1,0-14.9,0A7.47,7.47,0,0,0,430.45,454.24Zm-11.32,24.88-13.32-9.55c-2.42,3.23-1.94,8-1.44,11.89.35,2.78,2.33,4,5,3.24C413,483.68,417,482.31,419.13,479.12Z"/></g><ellipse class="cls-4" cx="342.46" cy="236.98" rx="57.8" ry="71.04"/><ellipse class="cls-1" cx="352.21" cy="236.87" rx="57.8" ry="71.04"/><ellipse class="cls-6" cx="357.71" cy="236.76" rx="3.86" ry="4.19"/><ellipse class="cls-6" cx="330.28" cy="223.73" rx="2.4" ry="2.61"/><rect class="cls-6" x="342.45" y="208.74" width="7.12" height="4.1"/><rect class="cls-6" x="337.05" y="221.77" width="17.4" height="4.1"/><rect class="cls-6" x="334.14" y="234.99" width="15.43" height="4.1"/><rect class="cls-6" x="318.97" y="234.99" width="8.57" height="4.1"/><rect class="cls-6" x="337.48" y="248.02" width="16.89" height="4.1"/><rect class="cls-6" x="327.45" y="248.02" width="5.66" height="4.1"/><rect class="cls-6" x="340.31" y="261.15" width="9.34" height="4.1"/><path class="cls-6" d="M354.63,208.65v4.1h7.2c12,0,21.69,10.54,21.69,23.54v.28c.61,12.89-8.51,23.88-20.38,24.55-.44,0-.87,0-1.31,0h-7.38v4.09h7.38c13.91.31,25.43-11.68,25.71-26.79,0-.38,0-.76,0-1.13.38-15.42-10.82-28.25-25-28.66h-7.89Z"/><ellipse class="cls-4" cx="298.26" cy="395.12" rx="29.75" ry="36.57"/><ellipse class="cls-1" cx="304.78" cy="395.12" rx="29.75" ry="36.57"/><g id="wgSJ3Z.tif"><path class="cls-6" d="M323.83,400.26c-.34.89-.62,1.73-1,2.5-1.24,2.72-2.92,4.55-5,5.39-3,1.18-5.68.3-8-2.73a31.3,31.3,0,0,1-3.49-6c-1.14-2.41-2.23-4.86-3.38-7.26a20.47,20.47,0,0,0-3.24-5.14c-1.75-1.91-3.68-2.38-5.74-1.42-2.22,1-3.72,3.24-4.51,6.5-1,4.09.13,9.08,2.54,11.51a5.68,5.68,0,0,0,3.91,1.88,5.17,5.17,0,0,0,3.92-2,22.91,22.91,0,0,0,3.09-4.91,3.16,3.16,0,0,1,.16-.31c.26.56.5,1.09.74,1.63.11.22.19.47.31.67a.75.75,0,0,1,0,.89,22.6,22.6,0,0,1-3.19,4.76,6.44,6.44,0,0,1-5.27,2.4c-3.48-.29-6.05-2.76-7.7-7.34a17.43,17.43,0,0,1-.87-7.51c.47-5.19,2.39-8.78,5.59-10.78a5.8,5.8,0,0,1,5.89-.35,10.11,10.11,0,0,1,3.56,3.31,40.94,40.94,0,0,1,3.51,6.38c1.19,2.53,2.36,5.09,3.59,7.58a14,14,0,0,0,3.2,4.37,4.38,4.38,0,0,0,4.71.92,7.81,7.81,0,0,0,4.22-4.63c.1-.26.21-.34.41-.34.58,0,1.16,0,1.75,0Z"/><path class="cls-6" d="M308.31,392.43c-.41-.89-.8-1.75-1.19-2.62a.48.48,0,0,1,0-.31,18.1,18.1,0,0,1,4.56-6.15,5.88,5.88,0,0,1,4.62-1.24,8.24,8.24,0,0,1,5.59,4.06,16,16,0,0,1,2.41,7.59c.06.87,0,1.76.06,2.64,0,.37-.09.53-.37.53h-10c-.26,0-.35-.09-.33-.49,0-.71,0-1.42,0-2.13,0-.52,0-.52.36-.52h7.7l.4,0c0-.21,0-.39-.05-.55-.61-3.71-2.12-6.24-4.52-7.49s-4.72-.36-6.67,2.22a26.9,26.9,0,0,0-2.44,4.1Z"/></g><path class="cls-7" d="M215.6,375.53v2.66a1.65,1.65,0,0,0-.07.32,20,20,0,0,1-1.88,7,22.92,22.92,0,0,1-10.36,10.67,29.38,29.38,0,0,1-12.17,3.24c-.79.05-1.59,0-2.43,0v15.75h-8.13V399.58h-8v15.65h-8.12V399.55H146.3v-.13q1.15-5.52,2.29-11.05c.06-.3.19-.35.44-.35h8.68V336.69H146.29V326.23h18.15v-.58q0-7.29,0-14.59c0-.17,0-.35,0-.53h8.11c0,.08,0,.17,0,.25V325.9a3,3,0,0,0,0,.31h8V311c0-.16,0-.31,0-.46h8.11c0,.18,0,.36,0,.54v15.17h.39a28,28,0,0,1,6.69.84,19.14,19.14,0,0,1,8.91,4.88,20.83,20.83,0,0,1,6,12.27,12,12,0,0,1-.91,7,20,20,0,0,1-4,5.54c-.66.66-1.36,1.28-2.05,1.92.12.08.23.16.36.23a41.36,41.36,0,0,1,5.47,3.7A15.61,15.61,0,0,1,215.31,373C215.42,373.85,215.5,374.69,215.6,375.53ZM172.6,388l.38,0h13a18.49,18.49,0,0,0,5.33-.69,10.49,10.49,0,0,0,5.37-3.4,10.6,10.6,0,0,0,2.21-6.76c.06-4.47-1.9-7.89-5.59-9.67a15.51,15.51,0,0,0-6.84-1.45c-4.5,0-9,0-13.49,0l-.34,0Zm0-31.42.27,0h10.58a11.55,11.55,0,0,0,4.52-.87,9.1,9.1,0,0,0,6-7.82,9.3,9.3,0,0,0-3.34-8.74,11.24,11.24,0,0,0-7.33-2.45c-3.45,0-6.9,0-10.35,0h-.39Z"/></svg>