<?xml version="1.0" encoding="utf-8"?>
<!-- Generator: Adobe Illustrator 22.1.0, SVG Export Plug-In . SVG Version: 6.00 Build 0)  -->
<svg version="1.1" id="Layer_1" xmlns="http://www.w3.org/2000/svg" xmlns:xlink="http://www.w3.org/1999/xlink" x="0px" y="0px"
	 viewBox="0 0 88.6 96.8" style="enable-background:new 0 0 88.6 96.8;" xml:space="preserve">
<style type="text/css">
	.st0{fill:none;stroke:#0A73FC;}
	.st1{fill:#CEE7FD;stroke:#0A73FC;stroke-linecap:round;stroke-linejoin:round;stroke-miterlimit:10;}
	.st2{fill:none;stroke:#0A73FC;stroke-linecap:round;stroke-linejoin:round;stroke-miterlimit:10;}
	.st3{fill:none;stroke:#0A73FC;stroke-width:0.9523;}
</style>
<g transform="translate(0.5 0.5)">
	<g transform="translate(0 2.15)">
		<path class="st0" d="M71,0H12.9C5.8,0,0,5.8,0,12.9v64.5c0,7.1,5.8,12.9,12.9,12.9h61.6c7.1,0,12.9-5.8,12.9-12.9V16.2"/>
	</g>
	<path class="st1" d="M14.3,0v28.9l10.2-7.5l9.2,7.5V0H14.3z"/>
	<path class="st2" d="M30.9,71.7v-5.6c0-4.2-3.4-7.5-7.5-7.5s-7.5,3.4-7.5,7.5"/>
	<line class="st2" x1="15.8" y1="71.8" x2="15.8" y2="66.1"/>
	<path class="st1" d="M31.2,71.7H16.9c-3.5,0-6.4,2.6-6.4,5.7v12.7c0,3.1,2.9,5.7,6.4,5.7h14.3c3.5,0,6.4-2.6,6.4-5.7V77.4
		C37.6,74.3,34.7,71.7,31.2,71.7z M25.2,82.8c-0.1,0.6-0.6,1-1.2,1c-0.5-0.1-0.9-0.5-1-1v-3.7c0.1-0.6,0.6-1,1.2-1
		c0.5,0.1,0.9,0.5,1,1V82.8z"/>
	<g transform="translate(69.224 2.15)">
		<path class="st3" d="M1.9,0.3C1.2,1.9,0.8,3.6,0.8,5.4c0,6.5,5.2,11.9,11.7,11.9c1.9,0,3.7-0.4,5.4-1.1C11.9,10.1,5.6,4.4,1.9,0.3
			z"/>
	</g>
	<g transform="translate(30.85 30.438)">
		<g transform="translate(0 0)">
			<line class="st2" x1="0" y1="8.2" x2="43" y2="8.2"/>
			<line class="st2" x1="0" y1="15.8" x2="43" y2="15.8"/>
			<line class="st2" x1="0" y1="23.3" x2="43" y2="23.3"/>
			<line class="st2" x1="22.8" y1="41.7" x2="43" y2="41.7"/>
			<line class="st2" x1="22.8" y1="0" x2="43" y2="0"/>
			<line class="st2" x1="22.8" y1="48" x2="43" y2="48"/>
		</g>
	</g>
</g>
</svg>
