<svg xmlns="http://www.w3.org/2000/svg" viewBox="0 0 101 101.12"><defs><style>.cls-1,.cls-4{fill:none;}.cls-1,.cls-2,.cls-3{stroke:#4a97fc;stroke-width:2px;}.cls-1,.cls-2{stroke-miterlimit:10;}.cls-2{fill:#fff;}.cls-3{fill:#cee7fd;stroke-linecap:round;stroke-linejoin:round;}</style></defs><title>Asset 6</title><g id="Layer_2" data-name="Layer 2"><g id="Layer_1-2" data-name="Layer 1"><rect class="cls-1" x="9" y="17.12" width="83" height="83" rx="17.7" ry="17.7"/><path class="cls-2" d="M50.5,7h0A9.5,9.5,0,0,1,60,16.5V24a2,2,0,0,1-2,2H43a2,2,0,0,1-2-2V16.5A9.5,9.5,0,0,1,50.5,7Z"/><path class="cls-3" d="M56.83,58.45A17.42,17.42,0,0,0,59,54.37a3.79,3.79,0,0,0,1.86-3.26v-2.9A3.77,3.77,0,0,0,60.1,46V44.23a7.49,7.49,0,0,0-1.74-5.39C56.69,36.94,54,36,50.5,36s-6.2,1-7.86,2.87a7.4,7.4,0,0,0-1.74,5.37V46a3.77,3.77,0,0,0-.72,2.22v2.9a3.81,3.81,0,0,0,1.19,2.76,15.79,15.79,0,0,0,2.43,5V61a1,1,0,0,1-.52.88l-6.46,3.52a7.45,7.45,0,0,0-3.88,6.54v3a1,1,0,0,0,1,1H67.06a1,1,0,0,0,1-1V72.06a7.41,7.41,0,0,0-4.12-6.66L57,61.94a1,1,0,0,1-.55-.89V58.93Z"/><line class="cls-1" x1="32.5" y1="86" x2="68.5" y2="86"/><rect class="cls-4" width="101" height="101"/></g></g></svg>