<svg xmlns="http://www.w3.org/2000/svg" viewBox="0 0 101 101.31"><defs><style>.cls-1,.cls-2{fill:none;}.cls-2,.cls-3,.cls-4{stroke:#4a97fc;stroke-width:2px;}.cls-2,.cls-4{stroke-miterlimit:10;}.cls-3{fill:#cee7fd;stroke-linecap:round;stroke-linejoin:round;}.cls-4{fill:#fff;}</style></defs><title>Asset 4</title><g id="Layer_2" data-name="Layer 2"><g id="Layer_1-2" data-name="Layer 1"><rect class="cls-1" width="101" height="101"/><g id="Rectangle_132" data-name="Rectangle 132"><rect class="cls-2" x="9.6" y="17.55" width="81.79" height="82.76" rx="17" ry="17"/><rect class="cls-2" x="10.1" y="18.05" width="80.79" height="81.76" rx="16.5" ry="16.5"/></g><path id="Path_835" data-name="Path 835" class="cls-3" d="M90.9,83.31c0,15.07-16.5,16.5-16.5,16.5s-31.53.47-47.8,0-16.5-16.5-16.5-16.5L9.6,36.84s1.94,10,12.36,10.67,58,0,58,0,10.78-.87,11,11C91,58.46,90.9,68.23,90.9,83.31Z"/><path id="Path_836" data-name="Path 836" class="cls-4" d="M16.13,45.79,61.9,30.71l2.52,8.57L37.66,47.8S22.6,48.67,16.13,45.79Z"/><path id="Path_837" data-name="Path 837" class="cls-3" d="M37.66,47.65,76.22,35.73l3.57,11.92Z"/><path id="Path_838" data-name="Path 838" class="cls-3" d="M16.13,45.79,47,35.73l-4.16-8.39L9.86,37.93C11.05,44.45,16.13,45.79,16.13,45.79Z"/><g id="Ellipse_32" data-name="Ellipse 32"><circle class="cls-4" cx="75.52" cy="69.99" r="4.33"/><circle class="cls-4" cx="75.52" cy="69.99" r="3.83"/></g></g></g></svg>