<svg xmlns="http://www.w3.org/2000/svg" viewBox="0 0 23.8 24.3"><defs><style>.cls-1{fill:#1060ea;}.cls-2{fill:#cee7fd;stroke:#1060ea;stroke-linecap:round;stroke-linejoin:round;}</style></defs><title>Asset 9</title><g id="Layer_2" data-name="Layer 2"><g id="Layer_1-2" data-name="Layer 1"><g id="Path_1633" data-name="Path 1633"><path class="cls-1" d="M1.54,16.29a3,3,0,0,1,.54.05,2.68,2.68,0,0,1,1,.46,3.2,3.2,0,0,1,1,1.14A3.11,3.11,0,0,0,6.3,19.59a3.44,3.44,0,0,0,.78.08,4.17,4.17,0,0,0,.61,0,4.76,4.76,0,0,0,1.08-.38l.32-.14a.76.76,0,0,1,.16,0h0a.44.44,0,0,1,.23.15A2,2,0,0,1,10,20.32c0,.58-.42.9-.92,1.06a6.6,6.6,0,0,1-1.89.28A5.23,5.23,0,0,1,4.59,21a2.54,2.54,0,0,1-1.21-1.46l-.25-.5a4.13,4.13,0,0,0-.63-1c-.4-.47-.9-.77-1.33-1.2A.42.42,0,0,1,1,16.64c-.09-.28.21-.35.52-.35m1.16.89a.12.12,0,0,0,.12-.09c.05-.11,0-.19-.12-.25a.27.27,0,0,0-.14-.05.25.25,0,0,0-.18.08c0,.08,0,.17.16.25a.32.32,0,0,0,.16.06m.65.63a.18.18,0,0,0,.11,0c.08-.09.06-.2-.06-.32a.31.31,0,0,0-.21-.11.13.13,0,0,0-.11.05c-.09.08-.07.19.06.31a.33.33,0,0,0,.21.12m.67.93a.13.13,0,0,0,.08,0q.18-.13,0-.39a.26.26,0,0,0-.16-.15H3.86a.23.23,0,0,0-.14,0h0c-.08,0-.08.17,0,.38l.22.13.08,0m.79.93A.25.25,0,0,0,5,19.59a.19.19,0,0,0,0-.19.51.51,0,0,0-.35-.35H4.6a.25.25,0,0,0-.12,0h0a.27.27,0,0,0,0,.19.37.37,0,0,0,.12.26.44.44,0,0,0,.27.14m1.05.59a.28.28,0,0,0,.13,0A.3.3,0,0,0,6.15,20c0-.1-.07-.19-.28-.25l-.16,0a.23.23,0,0,0-.23.19s0,.09,0,.16a1.25,1.25,0,0,0,.22.16.27.27,0,0,0,.12,0m2.47,0h0c.21-.08.3-.19.28-.32s-.14-.19-.35-.19h0c-.21,0-.3.13-.28.26s.06.2.12.22a.78.78,0,0,0,.22,0M7,20.45H7.1c.23,0,.35-.12.35-.29s0-.08-.1-.13A.54.54,0,0,0,7.1,20h0c-.21,0-.32.09-.32.26s.09.22.28.22M1.54,15.29a1.51,1.51,0,0,0-1.31.55,1.22,1.22,0,0,0-.17,1.1,1.42,1.42,0,0,0,.4.62,6.63,6.63,0,0,0,.65.58,5.12,5.12,0,0,1,.63.57,3.18,3.18,0,0,1,.47.77l0,0,.22.45a3.56,3.56,0,0,0,1.65,2,6.29,6.29,0,0,0,3,.74,7.34,7.34,0,0,0,2.18-.33,2,2,0,0,0,1.63-2,2.93,2.93,0,0,0-.7-1.72,1.38,1.38,0,0,0-.82-.47H9.25a1.32,1.32,0,0,0-.51.1l-.37.15-.11.05a3.41,3.41,0,0,1-.73.26,3.4,3.4,0,0,1-.45,0,2.6,2.6,0,0,1-.56-.06A2.06,2.06,0,0,1,5.05,17.5,4.39,4.39,0,0,0,3.71,16a3.82,3.82,0,0,0-1.44-.62,3.74,3.74,0,0,0-.73-.07Z"/></g><path id="Path_1633-2" data-name="Path 1633" class="cls-2" d="M17.09,23.8V18.49A3.61,3.61,0,0,0,16,15.57a17.06,17.06,0,0,0,3.48-.63A5.66,5.66,0,0,0,22.22,13a8.1,8.1,0,0,0,1.07-4.49,4.58,4.58,0,0,0-.44-2.1,7.4,7.4,0,0,0-1.2-1.58A5,5,0,0,0,22,3.33,7.16,7.16,0,0,0,21.52.54,2.93,2.93,0,0,0,19.75.8,17.3,17.3,0,0,0,18,1.68l-.82.58a14.42,14.42,0,0,0-4-.58,13.66,13.66,0,0,0-4,.58l-.82-.58A14.1,14.1,0,0,0,6.51.8,2.76,2.76,0,0,0,4.79.54a6,6,0,0,0-.44,2.8A3.63,3.63,0,0,0,4.61,4.8,7.91,7.91,0,0,0,3.5,6.54a5,5,0,0,0-.35,2,8.24,8.24,0,0,0,1,4.43,5.19,5.19,0,0,0,2.66,2,18.22,18.22,0,0,0,3.42.63,3.47,3.47,0,0,0-1,2.16l-.06,2.21.06,3.86"/></g></g></svg>