<svg id="Layer_1" data-name="Layer 1" xmlns="http://www.w3.org/2000/svg" viewBox="0 0 153.99 169.82"><defs><style>.cls-1{fill:#cee7fd;stroke-miterlimit:10;}.cls-1,.cls-2{stroke:#1060ea;}.cls-2{fill:none;stroke-linecap:round;stroke-linejoin:round;}.cls-3{fill:#1060ea;}</style></defs><ellipse class="cls-1" cx="74.15" cy="89.49" rx="25.98" ry="31.94"/><ellipse class="cls-2" cx="79.84" cy="89.49" rx="25.98" ry="31.94"/><g id="wgSJ3Z.tif"><path class="cls-3" d="M96.48,94c-.3.77-.54,1.51-.84,2.18a8.48,8.48,0,0,1-4.4,4.7c-2.6,1-5,.27-7-2.38a27.32,27.32,0,0,1-3-5.21c-1-2.11-2-4.25-3-6.35a18.47,18.47,0,0,0-2.83-4.49c-1.53-1.66-3.21-2.07-5-1.23S67.12,84,66.43,86.88c-.86,3.57.12,7.93,2.23,10.05a4.9,4.9,0,0,0,3.41,1.65,4.51,4.51,0,0,0,3.42-1.78,20.09,20.09,0,0,0,2.7-4.29,2.46,2.46,0,0,1,.14-.26c.23.49.44,1,.65,1.42a5.14,5.14,0,0,0,.27.58.68.68,0,0,1,0,.78,19.37,19.37,0,0,1-2.79,4.16,5.56,5.56,0,0,1-4.59,2.09c-3-.25-5.3-2.41-6.73-6.41a15.24,15.24,0,0,1-.77-6.55c.42-4.54,2.09-7.67,4.89-9.42a5,5,0,0,1,5.14-.3,8.74,8.74,0,0,1,3.11,2.89,34.45,34.45,0,0,1,3.07,5.56c1,2.22,2.06,4.45,3.14,6.62a12.16,12.16,0,0,0,2.79,3.83,3.84,3.84,0,0,0,4.11.8,6.8,6.8,0,0,0,3.68-4c.1-.22.2-.3.37-.29.5,0,1,0,1.52,0Z"/><path class="cls-3" d="M82.93,87.14c-.36-.78-.71-1.52-1-2.28a.4.4,0,0,1,0-.28,15.91,15.91,0,0,1,4-5.37,5.17,5.17,0,0,1,4-1.08,7.18,7.18,0,0,1,4.88,3.55,13.75,13.75,0,0,1,2.1,6.62c.06.76,0,1.54,0,2.31,0,.32-.07.47-.32.47q-4.33,0-8.69,0c-.23,0-.31-.08-.3-.43,0-.61,0-1.23,0-1.85,0-.45,0-.46.32-.46,2.24,0,4.47,0,6.71,0l.36,0c0-.19,0-.34,0-.49-.53-3.23-1.85-5.45-4-6.53s-4.11-.32-5.82,1.93a23.28,23.28,0,0,0-2.13,3.59C83.05,86.91,83,87,82.93,87.14Z"/></g></svg>