<?xml version="1.0" encoding="utf-8"?>
<!-- Generator: Adobe Illustrator 22.1.0, SVG Export Plug-In . SVG Version: 6.00 Build 0)  -->
<svg version="1.1" id="Layer_1" xmlns="http://www.w3.org/2000/svg" xmlns:xlink="http://www.w3.org/1999/xlink" x="0px" y="0px"
	 viewBox="0 0 90.2 89.4" style="enable-background:new 0 0 90.2 89.4;" xml:space="preserve">
<style type="text/css">
	.st0{fill:none;stroke:#0A73FC;stroke-miterlimit:10;}
	.st1{fill:#CEE7FD;stroke:#0A73FC;stroke-miterlimit:10;}
	.st2{fill:#FFFFFF;stroke:#0A73FC;stroke-miterlimit:10;}
	.st3{fill:#FFFFFF;stroke:#0A73FC;stroke-linecap:round;stroke-miterlimit:10;}
	.st4{fill:none;stroke:#0A73FC;stroke-linecap:round;stroke-miterlimit:10;}
</style>
<path class="st0" d="M53.6,0.5h28.3c4.3,0,7.8,3.5,7.8,7.8v61.8c0,4.3-3.5,7.8-7.8,7.8H53.6c-4.3,0-7.8-3.5-7.8-7.8V8.3
	C45.7,4,49.2,0.5,53.6,0.5C53.6,0.5,53.6,0.5,53.6,0.5z"/>
<path class="st1" d="M8.5,11.4h29c4.4,0,8,3.5,8,7.8V81c-0.1,4.4-3.7,7.9-8,7.8h-29c-4.4,0-8-3.5-8-7.8V19.2
	C0.6,14.8,4.2,11.3,8.5,11.4z"/>
<circle class="st2" cx="46" cy="45.3" r="16.9"/>
<g transform="translate(0 0)">
	<path class="st3" d="M47.4,44.9h-4.3v-5.3h4.3c1.4,0,2.6,1.2,2.6,2.6l0,0c0.1,1.4-1,2.6-2.5,2.7C47.4,44.9,47.4,44.9,47.4,44.9z"/>
	<path class="st3" d="M48,50.9h-4.9v-6H48c1.7,0,3,1.3,3,3c0,0,0,0,0,0l0,0C51,49.6,49.7,50.9,48,50.9C48,50.9,48,50.9,48,50.9z"/>
	<line class="st4" x1="43.5" y1="39.6" x2="43.5" y2="37.3"/>
	<line class="st4" x1="46.7" y1="39.6" x2="46.7" y2="37.3"/>
	<line class="st4" x1="43.5" y1="53.4" x2="43.5" y2="51"/>
	<line class="st4" x1="46.7" y1="53.4" x2="46.7" y2="51"/>
	<line class="st4" x1="43.1" y1="39.7" x2="41" y2="39.7"/>
	<line class="st4" x1="43.1" y1="50.9" x2="41" y2="50.9"/>
</g>
<path class="st4" d="M74.1,28.4H46"/>
<polyline class="st4" points="70.5,35.2 76.6,28.4 70.5,21.4 "/>
<path class="st4" d="M17.8,62.5H46"/>
<path class="st4" d="M33.8,16.4c0,2.8-2.3,5.2-5.2,5.2H17.9c-2.8,0-5.2-2.3-5.2-5.2l0,0"/>
<path class="st4" d="M78.2,5.2c0,2.8-2.3,5.2-5.2,5.2H62.3c-2.8,0-5.2-2.3-5.2-5.2l0,0"/>
<polyline class="st4" points="21.9,55.6 15.8,62.4 21.9,69.4 "/>
</svg>
