<svg xmlns="http://www.w3.org/2000/svg" viewBox="0 0 90.002 90.002"><defs><style>.a,.c{fill:none;}.a,.b,.c{stroke:#0a73fc;stroke-miterlimit:10;}.b{fill:#cee7fd;}.b,.c{stroke-linecap:round;stroke-linejoin:round;}</style></defs><g transform="translate(0.5 0.5)"><path class="a" d="M77.1,90H13.9A12.937,12.937,0,0,1,1,77.1V13.9A12.937,12.937,0,0,1,13.9,1H77.1A12.937,12.937,0,0,1,90,13.9V77.1A12.937,12.937,0,0,1,77.1,90Z" transform="translate(-1 -1)"/><circle class="b" cx="10.534" cy="10.534" r="10.534" transform="translate(17.091 17.628)"/><path class="a" d="M61.961,19.1H74.108L67.981,29.634,61.854,40.168,55.727,29.634,49.6,19.1H61.961Z" transform="translate(1.565 0.356)"/><g transform="translate(29.345 44.178)"><g transform="translate(14.081 7.094)"><path class="c" d="M55.836,48.7l.645,16.231L42.937,73.208,42.4,57.084Z" transform="translate(-42.4 -48.7)"/></g><g transform="translate(0 8.277)"><path class="b" d="M43.919,73.125,29.945,66.031,29.3,49.8,43.381,57Z" transform="translate(-29.3 -49.8)"/></g><g transform="translate(0)"><path class="c" d="M43.381,57.579,29.3,50.377,42.736,42.1l14.081,7.094Z" transform="translate(-29.3 -42.1)"/></g></g></g></svg>