<svg version="1.1" id="el_yKBbj2THN" xmlns="http://www.w3.org/2000/svg" xmlns:xlink="http://www.w3.org/1999/xlink" x="0px" y="0px" viewBox="0 0 90 90" style="enable-background:new 0 0 90 90;" xml:space="preserve"><style>@-webkit-keyframes el_gANivPbBEGg_kDV_dhiua_Animation{46.67%{-webkit-transform: scale(1, 1);transform: scale(1, 1);}53.33%{-webkit-transform: scale(0.6, 0.6);transform: scale(0.6, 0.6);}75.56%{-webkit-transform: scale(1, 1);transform: scale(1, 1);}0%{-webkit-transform: scale(1, 1);transform: scale(1, 1);}100%{-webkit-transform: scale(1, 1);transform: scale(1, 1);}}@keyframes el_gANivPbBEGg_kDV_dhiua_Animation{46.67%{-webkit-transform: scale(1, 1);transform: scale(1, 1);}53.33%{-webkit-transform: scale(0.6, 0.6);transform: scale(0.6, 0.6);}75.56%{-webkit-transform: scale(1, 1);transform: scale(1, 1);}0%{-webkit-transform: scale(1, 1);transform: scale(1, 1);}100%{-webkit-transform: scale(1, 1);transform: scale(1, 1);}}@-webkit-keyframes el_y7O_Zpvhlh3_0oQ7IAvYF_Animation{34.44%{-webkit-transform: scale(1, 1);transform: scale(1, 1);}41.11%{-webkit-transform: scale(0.6, 0.6);transform: scale(0.6, 0.6);}50%{-webkit-transform: scale(0.75, 0.75);transform: scale(0.75, 0.75);}64.44%{-webkit-transform: scale(1, 1);transform: scale(1, 1);}0%{-webkit-transform: scale(1, 1);transform: scale(1, 1);}100%{-webkit-transform: scale(1, 1);transform: scale(1, 1);}}@keyframes el_y7O_Zpvhlh3_0oQ7IAvYF_Animation{34.44%{-webkit-transform: scale(1, 1);transform: scale(1, 1);}41.11%{-webkit-transform: scale(0.6, 0.6);transform: scale(0.6, 0.6);}50%{-webkit-transform: scale(0.75, 0.75);transform: scale(0.75, 0.75);}64.44%{-webkit-transform: scale(1, 1);transform: scale(1, 1);}0%{-webkit-transform: scale(1, 1);transform: scale(1, 1);}100%{-webkit-transform: scale(1, 1);transform: scale(1, 1);}}@-webkit-keyframes el_2H3CYZOZSUn_SCecK3h-__Animation{21.11%{-webkit-transform: scale(1, 1);transform: scale(1, 1);}28.89%{-webkit-transform: scale(0.6, 0.6);transform: scale(0.6, 0.6);}54.44%{-webkit-transform: scale(1, 1);transform: scale(1, 1);}0%{-webkit-transform: scale(1, 1);transform: scale(1, 1);}100%{-webkit-transform: scale(1, 1);transform: scale(1, 1);}}@keyframes el_2H3CYZOZSUn_SCecK3h-__Animation{21.11%{-webkit-transform: scale(1, 1);transform: scale(1, 1);}28.89%{-webkit-transform: scale(0.6, 0.6);transform: scale(0.6, 0.6);}54.44%{-webkit-transform: scale(1, 1);transform: scale(1, 1);}0%{-webkit-transform: scale(1, 1);transform: scale(1, 1);}100%{-webkit-transform: scale(1, 1);transform: scale(1, 1);}}@-webkit-keyframes el_S7dKQM0aTCq_wz6XF7lT4_Animation{0%{-webkit-transform: scale(1, 1);transform: scale(1, 1);}6.67%{-webkit-transform: scale(0.8, 0.8);transform: scale(0.8, 0.8);}33.33%{-webkit-transform: scale(1, 1);transform: scale(1, 1);}90%{-webkit-transform: scale(1, 1);transform: scale(1, 1);}100%{-webkit-transform: scale(1, 1);transform: scale(1, 1);}}@keyframes el_S7dKQM0aTCq_wz6XF7lT4_Animation{0%{-webkit-transform: scale(1, 1);transform: scale(1, 1);}6.67%{-webkit-transform: scale(0.8, 0.8);transform: scale(0.8, 0.8);}33.33%{-webkit-transform: scale(1, 1);transform: scale(1, 1);}90%{-webkit-transform: scale(1, 1);transform: scale(1, 1);}100%{-webkit-transform: scale(1, 1);transform: scale(1, 1);}}@-webkit-keyframes el_z5-lAl3gGXh_zY8SVk9Tb_Animation{85.56%{-webkit-transform: scale(1, 1);transform: scale(1, 1);}90%{-webkit-transform: scale(0.6, 0.6);transform: scale(0.6, 0.6);}98.89%{-webkit-transform: scale(1, 1);transform: scale(1, 1);}0%{-webkit-transform: scale(1, 1);transform: scale(1, 1);}100%{-webkit-transform: scale(1, 1);transform: scale(1, 1);}}@keyframes el_z5-lAl3gGXh_zY8SVk9Tb_Animation{85.56%{-webkit-transform: scale(1, 1);transform: scale(1, 1);}90%{-webkit-transform: scale(0.6, 0.6);transform: scale(0.6, 0.6);}98.89%{-webkit-transform: scale(1, 1);transform: scale(1, 1);}0%{-webkit-transform: scale(1, 1);transform: scale(1, 1);}100%{-webkit-transform: scale(1, 1);transform: scale(1, 1);}}@-webkit-keyframes el_YXcUrOqJLDG_7Aq_m-tQQ_Animation{40%{-webkit-transform: scale(1, 1);transform: scale(1, 1);}48.89%{-webkit-transform: scale(0.6, 0.6);transform: scale(0.6, 0.6);}70%{-webkit-transform: scale(1, 1);transform: scale(1, 1);}0%{-webkit-transform: scale(1, 1);transform: scale(1, 1);}100%{-webkit-transform: scale(1, 1);transform: scale(1, 1);}}@keyframes el_YXcUrOqJLDG_7Aq_m-tQQ_Animation{40%{-webkit-transform: scale(1, 1);transform: scale(1, 1);}48.89%{-webkit-transform: scale(0.6, 0.6);transform: scale(0.6, 0.6);}70%{-webkit-transform: scale(1, 1);transform: scale(1, 1);}0%{-webkit-transform: scale(1, 1);transform: scale(1, 1);}100%{-webkit-transform: scale(1, 1);transform: scale(1, 1);}}@-webkit-keyframes el_Sm4q3Gpb2uw_34w8RsMZz_Animation{6.67%{-webkit-transform: scale(1, 1);transform: scale(1, 1);}13.33%{-webkit-transform: scale(0.6, 0.6);transform: scale(0.6, 0.6);}41.11%{-webkit-transform: scale(1, 1);transform: scale(1, 1);}0%{-webkit-transform: scale(1, 1);transform: scale(1, 1);}100%{-webkit-transform: scale(1, 1);transform: scale(1, 1);}}@keyframes el_Sm4q3Gpb2uw_34w8RsMZz_Animation{6.67%{-webkit-transform: scale(1, 1);transform: scale(1, 1);}13.33%{-webkit-transform: scale(0.6, 0.6);transform: scale(0.6, 0.6);}41.11%{-webkit-transform: scale(1, 1);transform: scale(1, 1);}0%{-webkit-transform: scale(1, 1);transform: scale(1, 1);}100%{-webkit-transform: scale(1, 1);transform: scale(1, 1);}}@-webkit-keyframes el_q-eJKBjv7aG_Cco0sJmWS_Animation{61.11%{-webkit-transform: scale(1, 1);transform: scale(1, 1);}68.89%{-webkit-transform: scale(0.6, 0.6);transform: scale(0.6, 0.6);}87.78%{-webkit-transform: scale(1, 1);transform: scale(1, 1);}0%{-webkit-transform: scale(1, 1);transform: scale(1, 1);}100%{-webkit-transform: scale(1, 1);transform: scale(1, 1);}}@keyframes el_q-eJKBjv7aG_Cco0sJmWS_Animation{61.11%{-webkit-transform: scale(1, 1);transform: scale(1, 1);}68.89%{-webkit-transform: scale(0.6, 0.6);transform: scale(0.6, 0.6);}87.78%{-webkit-transform: scale(1, 1);transform: scale(1, 1);}0%{-webkit-transform: scale(1, 1);transform: scale(1, 1);}100%{-webkit-transform: scale(1, 1);transform: scale(1, 1);}}@-webkit-keyframes el_x8RQO65JQUn_LlHMC-5-a_Animation{67.78%{-webkit-transform: scale(1, 1);transform: scale(1, 1);}73.33%{-webkit-transform: scale(0.6, 0.6);transform: scale(0.6, 0.6);}87.78%{-webkit-transform: scale(1, 1);transform: scale(1, 1);}0%{-webkit-transform: scale(1, 1);transform: scale(1, 1);}100%{-webkit-transform: scale(1, 1);transform: scale(1, 1);}}@keyframes el_x8RQO65JQUn_LlHMC-5-a_Animation{67.78%{-webkit-transform: scale(1, 1);transform: scale(1, 1);}73.33%{-webkit-transform: scale(0.6, 0.6);transform: scale(0.6, 0.6);}87.78%{-webkit-transform: scale(1, 1);transform: scale(1, 1);}0%{-webkit-transform: scale(1, 1);transform: scale(1, 1);}100%{-webkit-transform: scale(1, 1);transform: scale(1, 1);}}@-webkit-keyframes el_T2e5jN5dOK_LHddRlVou_Animation{0%{-webkit-transform: scale(1, 1);transform: scale(1, 1);}16.67%{-webkit-transform: scale(0.7, 0.7);transform: scale(0.7, 0.7);}25.56%{-webkit-transform: scale(1, 1);transform: scale(1, 1);}56.67%{-webkit-transform: scale(0.7, 0.7);transform: scale(0.7, 0.7);}66.67%{-webkit-transform: scale(1, 1);transform: scale(1, 1);}77.78%{-webkit-transform: scale(0.8, 0.8);transform: scale(0.8, 0.8);}90%{-webkit-transform: scale(1, 1);transform: scale(1, 1);}100%{-webkit-transform: scale(1, 1);transform: scale(1, 1);}}@keyframes el_T2e5jN5dOK_LHddRlVou_Animation{0%{-webkit-transform: scale(1, 1);transform: scale(1, 1);}16.67%{-webkit-transform: scale(0.7, 0.7);transform: scale(0.7, 0.7);}25.56%{-webkit-transform: scale(1, 1);transform: scale(1, 1);}56.67%{-webkit-transform: scale(0.7, 0.7);transform: scale(0.7, 0.7);}66.67%{-webkit-transform: scale(1, 1);transform: scale(1, 1);}77.78%{-webkit-transform: scale(0.8, 0.8);transform: scale(0.8, 0.8);}90%{-webkit-transform: scale(1, 1);transform: scale(1, 1);}100%{-webkit-transform: scale(1, 1);transform: scale(1, 1);}}#el_yKBbj2THN *{-webkit-animation-duration: 3s;animation-duration: 3s;-webkit-animation-timing-function: cubic-bezier(0, 0, 1, 1);animation-timing-function: cubic-bezier(0, 0, 1, 1);}#el_Luv5-Xi3pT{-webkit-transform: translate(0.5px, 0.5px);transform: translate(0.5px, 0.5px);}#el_GTpNOmqNwx{fill: #0A73FC;}#el__xBN2pbtQb{fill: #CEE7FD;}#el_T2e5jN5dOK{fill: #0A73FC;}#el_1v7FihZnoU{-webkit-transform: translate(39.449px, 34.827px);transform: translate(39.449px, 34.827px);}#el_UsuhvWrRVP{fill: #CEE7FD;}#el_nbodY-I6Is{fill: #0A73FC;}#el_qR8eP2t44g{fill: #CEE7FD;}#el_5nq43p_qQz{fill: #0A73FC;}#el_VRPlJe--9Q{fill: #0A73FC;}#el_vgTZzX19IsO{fill: #0A73FC;}#el_hz6SzUAkQCB{fill: #0A73FC;}#el_JVawB0jwfcF{fill: #0A73FC;}#el_T_JjwGe0DS_{fill: #0A73FC;}#el_iukWc6W5LHN{fill: #0A73FC;}#el_dPqeiDNP4sw{fill: #0A73FC;}#el_h4RKTyeI6lc{fill: #0A73FC;}#el_x8RQO65JQUn{fill: #0A73FC;}#el_q-eJKBjv7aG{fill: #0A73FC;visibility: hidden;}#el_Sm4q3Gpb2uw{fill: #0A73FC;}#el_YXcUrOqJLDG{fill: #0A73FC;}#el_z5-lAl3gGXh{fill: #0A73FC;}#el_S7dKQM0aTCq{fill: #0A73FC;}#el_2H3CYZOZSUn{fill: #0A73FC;}#el_y7O_Zpvhlh3{fill: #0A73FC;}#el_gANivPbBEGg{fill: #0A73FC;}#el_ApLU82A-Lq5{fill: #0A73FC;}#el_5aAgt4-FH9Y{fill: #0A73FC;}#el__pVpY9vbILO{fill: #0A73FC;}#el_L16QpcDZXh3{fill: #0A73FC;}#el_oe0nDlff1u2{fill: #0A73FC;}#el_-QP4ZXMN1k6{fill: #0A73FC;}#el_JUdva8WBPXr{fill: #0A73FC;}#el_9gnI2oBqcsE{fill: #0A73FC;}#el_kY82S0AuKRV{fill: #0A73FC;}#el_LFJDB1qT6Y6{fill: #0A73FC;}#el_z7qa5f7LYiw{fill: #0A73FC;}#el_cFUrdgZlpPz{fill: #0A73FC;}#el_mbKstvNJkE4{fill: #0A73FC;}#el_K_g489oR75q{fill: #0A73FC;}#el_D3Gu8VRcRw0{fill: #0A73FC;}#el__xBN2pbtQb_lotBqEmta{-webkit-transform-origin: 50% 50%;transform-origin: 50% 50%;transform-box: fill-box;-webkit-transform: scale(1, 1);transform: scale(1, 1);}#el_T2e5jN5dOK_LHddRlVou{-webkit-animation-name: el_T2e5jN5dOK_LHddRlVou_Animation;animation-name: el_T2e5jN5dOK_LHddRlVou_Animation;-webkit-transform-origin: 50% 50%;transform-origin: 50% 50%;transform-box: fill-box;-webkit-transform: scale(1, 1);transform: scale(1, 1);}#el_x8RQO65JQUn_LlHMC-5-a{-webkit-animation-name: el_x8RQO65JQUn_LlHMC-5-a_Animation;animation-name: el_x8RQO65JQUn_LlHMC-5-a_Animation;-webkit-transform-origin: 50% 50%;transform-origin: 50% 50%;transform-box: fill-box;-webkit-transform: scale(1, 1);transform: scale(1, 1);}#el_q-eJKBjv7aG_Cco0sJmWS{-webkit-animation-name: el_q-eJKBjv7aG_Cco0sJmWS_Animation;animation-name: el_q-eJKBjv7aG_Cco0sJmWS_Animation;-webkit-transform-origin: 50% 50%;transform-origin: 50% 50%;transform-box: fill-box;-webkit-transform: scale(1, 1);transform: scale(1, 1);}#el_Sm4q3Gpb2uw_34w8RsMZz{-webkit-animation-name: el_Sm4q3Gpb2uw_34w8RsMZz_Animation;animation-name: el_Sm4q3Gpb2uw_34w8RsMZz_Animation;-webkit-transform-origin: 50% 50%;transform-origin: 50% 50%;transform-box: fill-box;-webkit-transform: scale(1, 1);transform: scale(1, 1);}#el_YXcUrOqJLDG_7Aq_m-tQQ{-webkit-animation-name: el_YXcUrOqJLDG_7Aq_m-tQQ_Animation;animation-name: el_YXcUrOqJLDG_7Aq_m-tQQ_Animation;-webkit-transform-origin: 50% 50%;transform-origin: 50% 50%;transform-box: fill-box;-webkit-transform: scale(1, 1);transform: scale(1, 1);}#el_z5-lAl3gGXh_zY8SVk9Tb{-webkit-animation-name: el_z5-lAl3gGXh_zY8SVk9Tb_Animation;animation-name: el_z5-lAl3gGXh_zY8SVk9Tb_Animation;-webkit-transform-origin: 50% 50%;transform-origin: 50% 50%;transform-box: fill-box;-webkit-transform: scale(1, 1);transform: scale(1, 1);}#el_S7dKQM0aTCq_wz6XF7lT4{-webkit-animation-name: el_S7dKQM0aTCq_wz6XF7lT4_Animation;animation-name: el_S7dKQM0aTCq_wz6XF7lT4_Animation;-webkit-transform-origin: 50% 50%;transform-origin: 50% 50%;transform-box: fill-box;-webkit-transform: scale(1, 1);transform: scale(1, 1);}#el_2H3CYZOZSUn_SCecK3h-_{-webkit-animation-name: el_2H3CYZOZSUn_SCecK3h-__Animation;animation-name: el_2H3CYZOZSUn_SCecK3h-__Animation;-webkit-transform-origin: 50% 50%;transform-origin: 50% 50%;transform-box: fill-box;-webkit-transform: scale(1, 1);transform: scale(1, 1);}#el_y7O_Zpvhlh3_0oQ7IAvYF{-webkit-animation-name: el_y7O_Zpvhlh3_0oQ7IAvYF_Animation;animation-name: el_y7O_Zpvhlh3_0oQ7IAvYF_Animation;-webkit-transform-origin: 50% 50%;transform-origin: 50% 50%;transform-box: fill-box;-webkit-transform: scale(1, 1);transform: scale(1, 1);}#el_gANivPbBEGg_kDV_dhiua{-webkit-animation-name: el_gANivPbBEGg_kDV_dhiua_Animation;animation-name: el_gANivPbBEGg_kDV_dhiua_Animation;-webkit-transform-origin: 50% 50%;transform-origin: 50% 50%;transform-box: fill-box;-webkit-transform: scale(1, 1);transform: scale(1, 1);}</style>

<g id="el_Luv5-Xi3pT">
	<g id="el_kECuAVjvwl">
		<path d="M76.1,89.5H12.9c-7.4,0-13.4-6-13.4-13.4V12.9c0-7.4,6-13.4,13.4-13.4h63.2c7.4,0,13.4,6,13.4,13.4v63.2&#10;&#9;&#9;&#9;C89.5,83.5,83.5,89.5,76.1,89.5z M12.9,0.5C6.1,0.5,0.5,6.1,0.5,12.9v63.2c0,6.8,5.6,12.4,12.4,12.4h63.2l0,0&#10;&#9;&#9;&#9;c6.8,0,12.4-5.6,12.4-12.4V12.9c0-6.8-5.6-12.4-12.4-12.4H12.9z" id="el_GTpNOmqNwx"/>
	</g>
	<g id="el_A-QWwxG-Xm">
		<circle cx="44.5" cy="42.9" r="16.9" id="el__xBN2pbtQb"/>
		<g id="el_T2e5jN5dOK_LHddRlVou" data-animator-group="true" data-animator-type="2"><path d="M44.5,60.3c-9.6,0-17.4-7.8-17.4-17.4s7.8-17.4,17.4-17.4s17.4,7.8,17.4,17.4S54.1,60.3,44.5,60.3z&#10;&#9;&#9;&#9; M44.5,26.5c-9,0-16.4,7.3-16.4,16.4s7.3,16.4,16.4,16.4c9,0,16.4-7.3,16.4-16.4S53.5,26.5,44.5,26.5z" id="el_T2e5jN5dOK"/></g>
	</g>
	<g id="el_1v7FihZnoU">
		<g id="el_Z_6V9WVR9y">
			<path d="M6.5,7.6H2.2V2.4h4.3C7.9,2.4,9,3.5,9,4.9l0,0C9.1,6.3,8,7.5,6.5,7.6C6.5,7.6,6.5,7.6,6.5,7.6z" id="el_UsuhvWrRVP"/>
			<path d="M6.5,8.1H2.2c-0.3,0-0.5-0.2-0.5-0.5V2.4c0-0.3,0.2-0.5,0.5-0.5h4.3c1.7,0,3.1,1.4,3.1,3.1&#10;&#9;&#9;&#9;&#9;c0,0.8-0.2,1.6-0.8,2.2s-1.3,1-2.1,1L6.5,8.1z M2.7,7.1h3.9c0.6,0,1.1-0.3,1.4-0.7C8.4,6,8.6,5.5,8.5,5c0-1.2-0.9-2.1-2.1-2.1&#10;&#9;&#9;&#9;&#9;H2.7V7.1z" id="el_nbodY-I6Is"/>
		</g>
		<g id="el_TPNpC8to9A">
			<path d="M7.1,13.7H2.2v-6h4.9c1.7,0,3,1.3,3,3l0,0l0,0C10.1,12.3,8.8,13.6,7.1,13.7L7.1,13.7z" id="el_qR8eP2t44g"/>
			<path d="M7.1,14.2L7.1,14.2h-5c-0.3,0-0.5-0.2-0.5-0.5v-6c0-0.3,0.2-0.5,0.5-0.5H7c0.9,0,1.8,0.4,2.5,1&#10;&#9;&#9;&#9;&#9;c0.7,0.7,1,1.5,1,2.5C10.6,12.6,9,14.1,7.1,14.2z M2.7,13.2h4.5c1.4,0,2.5-1.1,2.5-2.5C9.7,10,9.4,9.4,9,8.9&#10;&#9;&#9;&#9;&#9;C8.4,8.4,7.8,8.1,7.1,8.1l0,0H2.7V13.2z" id="el_5nq43p_qQz"/>
		</g>
		<g id="el_he3Aus5zGT">
			<path d="M2.6,2.9c-0.3,0-0.5-0.2-0.5-0.5V0c0-0.3,0.2-0.5,0.5-0.5S3.1-0.3,3.1,0v2.4C3.1,2.6,2.9,2.9,2.6,2.9z" id="el_VRPlJe--9Q"/>
		</g>
		<g id="el_n3VsSwQGPZB">
			<path d="M5.7,2.9c-0.3,0-0.5-0.2-0.5-0.5V0c0-0.3,0.2-0.5,0.5-0.5S6.2-0.3,6.2,0v2.4C6.2,2.6,6,2.9,5.7,2.9z" id="el_vgTZzX19IsO"/>
		</g>
		<g id="el_bm-5TkYV2LB">
			<path d="M2.6,16.6c-0.3,0-0.5-0.2-0.5-0.5v-2.3c0-0.3,0.2-0.5,0.5-0.5s0.5,0.2,0.5,0.5v2.3&#10;&#9;&#9;&#9;&#9;C3.1,16.4,2.9,16.6,2.6,16.6z" id="el_hz6SzUAkQCB"/>
		</g>
		<g id="el_HPWbiablUAx">
			<path d="M5.7,16.6c-0.3,0-0.5-0.2-0.5-0.5v-2.3c0-0.3,0.2-0.5,0.5-0.5s0.5,0.2,0.5,0.5v2.3C6.2,16.4,6,16.6,5.7,16.6&#10;&#9;&#9;&#9;&#9;z" id="el_JVawB0jwfcF"/>
		</g>
		<g id="el_aOXTL_WXec4">
			<path d="M2.2,3H0c-0.3,0-0.5-0.2-0.5-0.5S-0.3,2,0,2h2.1c0.3,0,0.5,0.2,0.5,0.5S2.4,3,2.2,3z" id="el_T_JjwGe0DS_"/>
		</g>
		<g id="el_eQOswQgU6D2">
			<path d="M2.2,14.2H0c-0.3,0-0.5-0.2-0.5-0.5s0.2-0.5,0.5-0.5h2.1c0.3,0,0.5,0.2,0.5,0.5S2.4,14.2,2.2,14.2z" id="el_iukWc6W5LHN"/>
		</g>
	</g>
	<g id="el_vN6oZpkgFXW">
		<path d="M23.9,36.9h-4.4c-4.8,0-5.5-4.8-5.5-4.8V14.9c0-0.3,0.2-0.5,0.5-0.5s0.5,0.2,0.5,0.5V32&#10;&#9;&#9;&#9;c0,0.1,0.6,3.9,4.6,3.9H24c0.3,0,0.5,0.2,0.5,0.5S24.1,36.9,23.9,36.9z" id="el_dPqeiDNP4sw"/>
	</g>
	<g id="el_OOwEBVHdTgQ">
		<path d="M14.4,74.2c-0.3,0-0.5-0.2-0.5-0.5V56.6c0-0.1,0.8-4.9,5.6-4.9h4.4c0.3,0,0.5,0.2,0.5,0.5s-0.2,0.5-0.5,0.5&#10;&#9;&#9;&#9;h-4.4c-3.9,0-4.5,3.8-4.6,4v17C14.9,74,14.7,74.2,14.4,74.2z" id="el_h4RKTyeI6lc"/>
	</g>
	<g id="el_HvyzC1HBCKt">
		<g id="el_x8RQO65JQUn_LlHMC-5-a" data-animator-group="true" data-animator-type="2"><path d="M74.9,15.3c-2.5,0-4.6-2.1-4.6-4.6s2.1-4.6,4.6-4.6s4.6,2.1,4.6,4.6S77.4,15.3,74.9,15.3z M74.9,7.2&#10;&#9;&#9;&#9;c-2,0-3.6,1.6-3.6,3.6s1.6,3.6,3.6,3.6s3.6-1.6,3.6-3.6S76.9,7.2,74.9,7.2z" id="el_x8RQO65JQUn"/></g>
	</g>
	<g id="el_YFDjJX8qFP5">
		<g id="el_q-eJKBjv7aG_Cco0sJmWS" data-animator-group="true" data-animator-type="2"><path d="M79.5,50.1c-2.5,0-4.6-2.1-4.6-4.6s2.1-4.6,4.6-4.6s4.6,2.1,4.6,4.6S82,50.1,79.5,50.1z M79.5,42&#10;&#9;&#9;&#9;c-2,0-3.6,1.6-3.6,3.6c0,2,1.6,3.6,3.6,3.6s3.6-1.6,3.6-3.6S81.5,42,79.5,42z" id="el_q-eJKBjv7aG"/></g>
	</g>
	<g id="el_d2MKoWIKzUV">
		<g id="el_Sm4q3Gpb2uw_34w8RsMZz" data-animator-group="true" data-animator-type="2"><path d="M26.1,29.5c-2.5,0-4.6-2.1-4.6-4.6s2.1-4.6,4.6-4.6s4.6,2.1,4.6,4.6S28.6,29.5,26.1,29.5z M26.1,21.4&#10;&#9;&#9;&#9;c-2,0-3.6,1.6-3.6,3.6s1.6,3.6,3.6,3.6s3.6-1.6,3.6-3.6S28.1,21.4,26.1,21.4z" id="el_Sm4q3Gpb2uw"/></g>
	</g>
	<g id="el_WAF52C5yfze">
		<g id="el_YXcUrOqJLDG_7Aq_m-tQQ" data-animator-group="true" data-animator-type="2"><path d="M62,29.5c-2.5,0-4.6-2.1-4.6-4.6s2.1-4.6,4.6-4.6s4.6,2.1,4.6,4.6S64.5,29.5,62,29.5z M62,21.4&#10;&#9;&#9;&#9;c-2,0-3.6,1.6-3.6,3.6s1.6,3.6,3.6,3.6s3.6-1.6,3.6-3.6S64,21.4,62,21.4z" id="el_YXcUrOqJLDG"/></g>
	</g>
	<g id="el_GM0gF63bJdC">
		<g id="el_z5-lAl3gGXh_zY8SVk9Tb" data-animator-group="true" data-animator-type="2"><path d="M74.6,83.3c-2.5,0-4.6-2.1-4.6-4.6s2.1-4.6,4.6-4.6s4.6,2.1,4.6,4.6S77.1,83.3,74.6,83.3z M74.6,75.2&#10;&#9;&#9;&#9;c-2,0-3.6,1.6-3.6,3.6s1.6,3.6,3.6,3.6s3.6-1.6,3.6-3.6S76.6,75.2,74.6,75.2z" id="el_z5-lAl3gGXh"/></g>
	</g>
	<g id="el_NnRJQBl6xig">
		<g id="el_S7dKQM0aTCq_wz6XF7lT4" data-animator-group="true" data-animator-type="2"><path d="M14.4,15.3c-2.5,0-4.6-2.1-4.6-4.6s2.1-4.6,4.6-4.6S19,8.2,19,10.7S16.9,15.3,14.4,15.3z M14.4,7.2&#10;&#9;&#9;&#9;c-2,0-3.6,1.6-3.6,3.6s1.6,3.6,3.6,3.6s3.6-1.6,3.6-3.6S16.4,7.2,14.4,7.2z" id="el_S7dKQM0aTCq"/></g>
	</g>
	<g id="el_c1B47p-f4CE">
		<g id="el_2H3CYZOZSUn_SCecK3h-_" data-animator-group="true" data-animator-type="2"><path d="M9.3,50.1c-2.5,0-4.6-2.1-4.6-4.6s2.1-4.6,4.6-4.6s4.6,2.1,4.6,4.6S11.8,50.1,9.3,50.1z M9.3,42&#10;&#9;&#9;&#9;c-2,0-3.6,1.6-3.6,3.6s1.6,3.6,3.6,3.6s3.6-1.6,3.6-3.6S11.3,42,9.3,42z" id="el_2H3CYZOZSUn"/></g>
	</g>
	<g id="el_TINZYadqSj9">
		<g id="el_y7O_Zpvhlh3_0oQ7IAvYF" data-animator-group="true" data-animator-type="2"><path d="M14.7,82.3c-2.5,0-4.6-2.1-4.6-4.6s2.1-4.6,4.6-4.6s4.6,2.1,4.6,4.6S17.2,82.3,14.7,82.3z M14.7,74.2&#10;&#9;&#9;&#9;c-2,0-3.6,1.6-3.6,3.6c0,2,1.6,3.6,3.6,3.6s3.6-1.6,3.6-3.6S16.7,74.2,14.7,74.2z" id="el_y7O_Zpvhlh3"/></g>
	</g>
	<g id="el_Ps5f7zgbLiy">
		<g id="el_gANivPbBEGg_kDV_dhiua" data-animator-group="true" data-animator-type="2"><path d="M38.2,74.4c-2.5,0-4.6-2.1-4.6-4.6s2.1-4.6,4.6-4.6s4.6,2.1,4.6,4.6S40.7,74.4,38.2,74.4z M38.2,66.3&#10;&#9;&#9;&#9;c-2,0-3.6,1.6-3.6,3.6s1.6,3.6,3.6,3.6s3.6-1.6,3.6-3.6S40.2,66.3,38.2,66.3z" id="el_gANivPbBEGg"/></g>
	</g>
	<g id="el_Rma7ExKE2bM">
		<path d="M74.6,74.9c-0.3,0-0.5-0.2-0.5-0.5V57.3c0-0.1-0.6-3.9-4.6-3.9h-4.4c-0.3,0-0.5-0.2-0.5-0.5s0.2-0.5,0.5-0.5&#10;&#9;&#9;&#9;h4.4c4.8,0,5.5,4.8,5.5,4.8v17.2C75.1,74.7,74.9,74.9,74.6,74.9z" id="el_ApLU82A-Lq5"/>
	</g>
	<g id="el_pzz5TZQvwns">
		<path d="M69.5,37.5h-4.4c-0.3,0-0.5-0.2-0.5-0.5s0.2-0.5,0.5-0.5h4.4c3.9,0,4.5-3.8,4.6-4v-17c0-0.3,0.2-0.5,0.5-0.5&#10;&#9;&#9;&#9;s0.5,0.2,0.5,0.5v17.1C75.1,32.7,74.3,37.5,69.5,37.5z" id="el_5aAgt4-FH9Y"/>
	</g>
	<g id="el_ZUM_F-WmFyj">
		<path d="M26.1,21.4c-0.3,0-0.5-0.2-0.5-0.5V9.2c0-0.3,0.2-0.5,0.5-0.5s0.5,0.2,0.5,0.5v11.6&#10;&#9;&#9;&#9;C26.6,21.1,26.4,21.4,26.1,21.4z" id="el__pVpY9vbILO"/>
	</g>
	<g id="el_sMkMNhIzGDT">
		<path d="M38.2,25.2c-0.3,0-0.5-0.2-0.5-0.5v-3.9c0-0.3,0.2-0.5,0.5-0.5s0.5,0.2,0.5,0.5v3.9&#10;&#9;&#9;&#9;C38.7,25,38.4,25.2,38.2,25.2z" id="el_L16QpcDZXh3"/>
	</g>
	<g id="el_SsnTFTh3okV">
		<path d="M38.2,17.4c-0.3,0-0.5-0.2-0.5-0.5V5.2c0-0.3,0.2-0.5,0.5-0.5s0.5,0.2,0.5,0.5v11.7&#10;&#9;&#9;&#9;C38.7,17.2,38.4,17.4,38.2,17.4z" id="el_oe0nDlff1u2"/>
	</g>
	<g id="el_fQ1rBY1kR-N">
		<path d="M38.2,86.6c-0.3,0-0.5-0.2-0.5-0.5V74.4c0-0.3,0.2-0.5,0.5-0.5s0.5,0.2,0.5,0.5v11.7&#10;&#9;&#9;&#9;C38.7,86.4,38.4,86.6,38.2,86.6z" id="el_-QP4ZXMN1k6"/>
	</g>
	<g id="el_B9ru6aRFm22">
		<path d="M26.1,84c-0.3,0-0.5-0.2-0.5-0.5V71.9c0-0.3,0.2-0.5,0.5-0.5s0.5,0.2,0.5,0.5v11.6C26.6,83.8,26.4,84,26.1,84&#10;&#9;&#9;&#9;z" id="el_JUdva8WBPXr"/>
	</g>
	<g id="el_O3uLpE5255M">
		<path d="M26.1,68.9c-0.3,0-0.5-0.2-0.5-0.5v-4.7c0-0.3,0.2-0.5,0.5-0.5s0.5,0.2,0.5,0.5v4.7&#10;&#9;&#9;&#9;C26.6,68.6,26.4,68.9,26.1,68.9z" id="el_9gnI2oBqcsE"/>
	</g>
	<g id="el_RtZrDJf7vV6">
		<path d="M51.5,84c-0.3,0-0.5-0.2-0.5-0.5V71.9c0-0.3,0.2-0.5,0.5-0.5s0.5,0.2,0.5,0.5v11.6C52,83.8,51.8,84,51.5,84z" id="el_kY82S0AuKRV"/>
	</g>
	<g id="el_PcW3iFCwYqY">
		<path d="M51.5,68.9c-0.3,0-0.5-0.2-0.5-0.5v-4.7c0-0.3,0.2-0.5,0.5-0.5s0.5,0.2,0.5,0.5v4.7&#10;&#9;&#9;&#9;C52,68.6,51.8,68.9,51.5,68.9z" id="el_LFJDB1qT6Y6"/>
	</g>
	<g id="el_EJARZnvXg0I">
		<path d="M51.5,27.7c-0.3,0-0.5-0.2-0.5-0.5V15.5c0-0.3,0.2-0.5,0.5-0.5s0.5,0.2,0.5,0.5v11.7&#10;&#9;&#9;&#9;C52,27.5,51.8,27.7,51.5,27.7z" id="el_z7qa5f7LYiw"/>
	</g>
	<g id="el_nL4ENIXHNSV">
		<path d="M51.5,11.5c-0.3,0-0.5-0.2-0.5-0.5V6.2c0-0.3,0.2-0.5,0.5-0.5S52,6,52,6.2V11C52,11.2,51.8,11.5,51.5,11.5z" id="el_cFUrdgZlpPz"/>
	</g>
	<g id="el_jwv3r8DZrWk">
		<path d="M62.9,72.6c-0.3,0-0.5-0.2-0.5-0.5V60.5c0-0.3,0.2-0.5,0.5-0.5s0.5,0.2,0.5,0.5v11.6&#10;&#9;&#9;&#9;C63.4,72.4,63.2,72.6,62.9,72.6z" id="el_mbKstvNJkE4"/>
	</g>
	<g id="el_aONRO-lToaL">
		<path d="M62.9,80.9c-0.3,0-0.5-0.2-0.5-0.5v-4.7c0-0.3,0.2-0.5,0.5-0.5s0.5,0.2,0.5,0.5v4.7&#10;&#9;&#9;&#9;C63.4,80.7,63.2,80.9,62.9,80.9z" id="el_K_g489oR75q"/>
	</g>
	<g id="el_YouBBU7k_RD">
		<path d="M62,20.9c-0.3,0-0.5-0.2-0.5-0.5V9.2c0-0.3,0.2-0.5,0.5-0.5s0.5,0.2,0.5,0.5v11.2&#10;&#9;&#9;&#9;C62.5,20.7,62.3,20.9,62,20.9z" id="el_D3Gu8VRcRw0"/>
	</g>
</g>
<script>(function(){var a=document.querySelector('#el_yKBbj2THN'),b=a.querySelectorAll('style'),c=function(d){b.forEach(function(f){var g=f.textContent;g&amp;&amp;(f.textContent=g.replace(/transform-box:[^;\r\n]*/gi,'transform-box: '+d))})};c('initial'),window.requestAnimationFrame(function(){return c('fill-box')})})();</script></svg>