<svg xmlns="http://www.w3.org/2000/svg" xmlns:xlink="http://www.w3.org/1999/xlink" viewBox="0 0 32 31">
  <defs>
    <style>
      .cls-1 {
        clip-path: url(#clip-github);
      }

      .cls-2, .cls-3 {
        fill: none;
        stroke: #000;
      }

      .cls-3 {
        stroke-linecap: round;
        stroke-linejoin: round;
        stroke-miterlimit: 10;
      }

      .cls-4 {
        fill: #fff;
      }
    </style>
    <clipPath id="clip-github">
      <rect width="32" height="31"/>
    </clipPath>
  </defs>
  <g id="github" class="cls-1">
    <rect class="cls-4" width="32" height="31"/>
    <path id="Path_3098" data-name="Path 3098" class="cls-2" d="M6.355,14.476s-1.7.393-2.154-.149-.988-2.067-2.4-1.892S.743,13.461.743,13.461A2.364,2.364,0,0,0,1.8,14.476a1.1,1.1,0,0,1,.591.87,1.847,1.847,0,0,0,1.5,1.573,11.264,11.264,0,0,0,2.471,0Z" transform="translate(7.299 6.229)"/>
    <path id="Path_1633_1_" class="cls-3" d="M13.445,109.9v-3.828a2.347,2.347,0,0,0-.82-2.051l2.461-.41A3.328,3.328,0,0,0,17,102.239a6.5,6.5,0,0,0,.82-3.282,4.915,4.915,0,0,0-.273-1.5,7.583,7.583,0,0,0-.82-1.094A3.218,3.218,0,0,0,17,95.266a10.555,10.555,0,0,0-.273-2.051,1.931,1.931,0,0,0-1.231.137,5.542,5.542,0,0,0-1.231.684l-.547.41a10.255,10.255,0,0,0-5.743,0l-.547-.41a12.7,12.7,0,0,0-1.367-.684,1.931,1.931,0,0,0-1.231-.137,3.585,3.585,0,0,0-.273,2.051,3.011,3.011,0,0,0,.137,1.094l-.82,1.231A4.858,4.858,0,0,0,3.6,98.958a6.232,6.232,0,0,0,.684,3.145A2.827,2.827,0,0,0,6.2,103.47a7.742,7.742,0,0,0,2.461.41,2.2,2.2,0,0,0-.684,1.5v4.375" transform="translate(5.714 -85.896)"/>
  </g>
</svg>
