<svg xmlns="http://www.w3.org/2000/svg" xmlns:xlink="http://www.w3.org/1999/xlink" viewBox="0 0 32 31">
  <defs>
    <style>
      .cls-1 {
        clip-path: url(#clip-twitter);
      }

      .cls-2 {
        fill: none;
        stroke: #000;
        stroke-linecap: round;
        stroke-linejoin: round;
        stroke-miterlimit: 10;
      }

      .cls-3 {
        fill: #fff;
      }
    </style>
    <clipPath id="clip-twitter">
      <rect width="32" height="31"/>
    </clipPath>
  </defs>
  <g id="twitter" class="cls-1">
    <rect class="cls-3" width="32" height="31"/>
    <path id="Path_1632_3_" class="cls-2" d="M16.209,61.62a3.73,3.73,0,0,0,1.41-2.518,5.88,5.88,0,0,1-2.216.806,4.472,4.472,0,0,0-1.108-.806,3.217,3.217,0,0,0-1.41-.3,3.4,3.4,0,0,0-1.712.5,3.274,3.274,0,0,0-1.309,1.309,3.4,3.4,0,0,0-.5,1.712,2.218,2.218,0,0,0,.1.806,9.268,9.268,0,0,1-4.029-1.108A9.994,9.994,0,0,1,2.209,59.4a3.4,3.4,0,0,0-.5,1.712,3.31,3.31,0,0,0,.4,1.712,6.935,6.935,0,0,0,1.108,1.309,3.044,3.044,0,0,1-1.612-.5v.1a3.52,3.52,0,0,0,.806,2.216A3.242,3.242,0,0,0,4.424,67.16a2.788,2.788,0,0,1-.906.1h-.6a3,3,0,0,0,1.209,1.712,3.079,3.079,0,0,0,2.014.705,6.873,6.873,0,0,1-4.331,1.511H1A10.053,10.053,0,0,0,6.338,72.8a9.558,9.558,0,0,0,5.439-1.612A9.721,9.721,0,0,0,15.2,67.361a9.357,9.357,0,0,0,1.209-4.633A3.621,3.621,0,0,1,16.209,61.62Z" transform="translate(8 -49.8)"/>
    <path id="Path_1632_4_" class="cls-2" d="M9.256,63.027a9.268,9.268,0,0,1-4.029-1.108A9.994,9.994,0,0,1,2,59.3a3.4,3.4,0,0,0-.5,1.712,3.31,3.31,0,0,0,.4,1.712,6.935,6.935,0,0,0,1.108,1.309,3.044,3.044,0,0,1-1.612-.5v.1a3.52,3.52,0,0,0,.806,2.216A3.242,3.242,0,0,0,4.22,67.055a2.789,2.789,0,0,1-.906.1h-.6a4.662,4.662,0,0,0,1.309,1.813,3.079,3.079,0,0,0,2.014.705c1.712-.2,3.727-1.209,4.432-2.719C11.271,65.444,10.666,63.329,9.256,63.027Z" transform="translate(8.003 -49.796)"/>
  </g>
</svg>
