<svg id="Layer_1" data-name="Layer 1" xmlns="http://www.w3.org/2000/svg" viewBox="0 0 163 186"><defs><style>.cls-1{fill:none;stroke:#000;stroke-miterlimit:10;stroke-width:2px;}</style></defs><title>SVG</title><circle class="cls-1" cx="120.36" cy="113.99" r="4.93" transform="translate(-6.12 6.83) rotate(-3.17)"/><path class="cls-1" d="M124.18,168.22H34.37c-13.26,0-24.12-11.38-24.12-25.27V48.86c0-13.9,10.86-25.27,24.12-25.27h89.81c13.27,0,24.12,11.37,24.12,25.27V143C148.3,156.84,137.45,168.22,124.18,168.22Z"/><polyline class="cls-1" points="56.27 77.36 122.25 56.46 128.58 77.36"/><polyline class="cls-1" points="23.4 73.22 97.39 49.89 102.28 63.04"/><polyline class="cls-1" points="10.25 61.09 66.61 43.31 72.95 56.19"/><path class="cls-1" d="M148.3,97.1c0-19.49-16.17-19.52-28.42-19.52,0,0-51.66.15-69.16.15-20.25,0-40.47-2.59-40.47-21.27"/></svg>