<svg id="Layer_1" data-name="Layer 1" xmlns="http://www.w3.org/2000/svg" viewBox="0 0 125.4 73.11"><defs><style>.cls-1{fill:#000102;}</style></defs><path class="cls-1" d="M24.36,36.45c.14-.09.14-.26.19-.39.3-.9.6-1.8.89-2.71.06-.18.14-.18.28-.14s.17.14.12.28c-.45,1.34-.87,2.69-1.34,4a1.19,1.19,0,0,0,.34,1.35,2.6,2.6,0,0,0,1.83.73c.2,0,.25.1.26.27s-.16.18-.28.17a3,3,0,0,1-2.42-1.26c-.05-.08-.1-.17-.2,0A3.32,3.32,0,0,1,21.41,40a4.48,4.48,0,0,1-2.31-.37,2.2,2.2,0,0,1-1.41-2.26c0-.4,0-.81,0-1.21,0-.24,0-.47,0-.71a2,2,0,0,1,.9-1.76A3.18,3.18,0,0,1,20,33.1a4.73,4.73,0,0,1,3,.36,2.17,2.17,0,0,1,1.25,1.47,8.15,8.15,0,0,1,0,1.21C24.32,36.24,24.28,36.35,24.36,36.45Zm-.44.09h0c0-.39,0-.78,0-1.18a1.54,1.54,0,0,0-.56-1.19,4.18,4.18,0,0,0-4.22-.31,1.77,1.77,0,0,0-1,1.74,17.38,17.38,0,0,1,0,1.91A1.7,1.7,0,0,0,19,39.1a4.06,4.06,0,0,0,2.55.49A3,3,0,0,0,23.13,39a1.57,1.57,0,0,0,.79-1.25C23.93,37.37,23.92,37,23.92,36.54Z"/><path class="cls-1" d="M21,40.54a4.67,4.67,0,0,1-2.07-.44,2.72,2.72,0,0,1-1.69-2.75c0-.26,0-.52,0-.78V36c0-.16,0-.31,0-.46A2.48,2.48,0,0,1,18.3,33.3,3.66,3.66,0,0,1,20,32.61a5.19,5.19,0,0,1,3.32.41,2.87,2.87,0,0,1,1.33,1.29c.12-.37.24-.74.35-1.11a.68.68,0,0,1,.91-.47.66.66,0,0,1,.44.92L25.88,35c-.29.91-.59,1.82-.91,2.72a.69.69,0,0,0,.22.83,2.07,2.07,0,0,0,1.5.58.73.73,0,0,1,.74.75.64.64,0,0,1-.21.53.71.71,0,0,1-.59.16,3.65,3.65,0,0,1-2.53-1.11,3.92,3.92,0,0,1-2.66,1.1Zm.07-6.6a3.37,3.37,0,0,0-1.63.35,1.29,1.29,0,0,0-.78,1.28,16.12,16.12,0,0,1,0,2,1.19,1.19,0,0,0,.65,1.14,3.63,3.63,0,0,0,2.25.41,2.59,2.59,0,0,0,1.33-.46,1.09,1.09,0,0,0,.58-.87q0-.36,0-.72h0v-.86c0-.28,0-.55,0-.83a1,1,0,0,0-.4-.81A3,3,0,0,0,21,33.94Z"/><path class="cls-1" d="M34.79,39.14c0-1.21,0-2.42,0-3.62a2.1,2.1,0,0,1,1.07-1.94,4.56,4.56,0,0,1,4.84.27,1.87,1.87,0,0,1,.69,1.46c0,.79,0,1.57,0,2.36a1.85,1.85,0,0,1-.78,1.6,3.54,3.54,0,0,1-2,.74A4.41,4.41,0,0,1,36,39.56a3.26,3.26,0,0,1-.61-.44s-.07-.12-.14-.1,0,.11,0,.17c0,.32,0,.64,0,1v2.91c0,.15,0,.27-.21.27s-.21-.11-.21-.27ZM41,36.52c0-.38,0-.75,0-1.13a1.48,1.48,0,0,0-.59-1.23,3.34,3.34,0,0,0-2-.72,3.91,3.91,0,0,0-2.34.5,1.63,1.63,0,0,0-.87,1.53c0,.77,0,1.55,0,2.32a1.29,1.29,0,0,0,.34.88,2.63,2.63,0,0,0,.64.5,4.11,4.11,0,0,0,2.41.42,3.2,3.2,0,0,0,1.58-.53A1.64,1.64,0,0,0,41,37.54C41,37.2,41,36.86,41,36.52Z"/><path class="cls-1" d="M35,43.84h0a.68.68,0,0,1-.71-.77V38c0-.83,0-1.67,0-2.51a2.61,2.61,0,0,1,1.29-2.37,5.09,5.09,0,0,1,5.46.32,2.32,2.32,0,0,1,.85,1.84c0,.78,0,1.56,0,2.34a2.35,2.35,0,0,1-1,2,4,4,0,0,1-2.29.85A5.06,5.06,0,0,1,35.77,40l-.06,0v3.11a.71.71,0,0,1-.19.57A.7.7,0,0,1,35,43.84Zm3.07-9.9a3.08,3.08,0,0,0-1.73.42,1.13,1.13,0,0,0-.64,1.09c0,.63,0,1.27,0,1.9v.44a.76.76,0,0,0,.22.55,2,2,0,0,0,.51.4,3.66,3.66,0,0,0,2.13.35,2.58,2.58,0,0,0,1.33-.45,1.12,1.12,0,0,0,.59-1.07c0-.24,0-.49,0-.74v-.66c0-.27,0-.53,0-.79a1,1,0,0,0-.41-.83,2.71,2.71,0,0,0-1.69-.61Z"/><path class="cls-1" d="M106.89,36.71c-.87,0-1.74,0-2.6,0-.25,0-.36,0-.33.32a1.68,1.68,0,0,1,0,.39,1.79,1.79,0,0,0,1.29,1.93,3.61,3.61,0,0,0,1.49.26H109c.15,0,.27,0,.27.21s-.12.2-.26.2c-1,0-2,.06-3,0a3,3,0,0,1-1.9-.9,1.76,1.76,0,0,1-.55-1.24c0-.88,0-1.75,0-2.63a1.85,1.85,0,0,1,.72-1.4,3.25,3.25,0,0,1,1.9-.76,4.21,4.21,0,0,1,2.44.4,3,3,0,0,1,.73.55,1.57,1.57,0,0,1,.48,1.16c0,.42,0,.85,0,1.28,0,.23,0,.3-.28.3C108.65,36.7,107.77,36.71,106.89,36.71Zm-.19-.4c.81,0,1.62,0,2.44,0,.23,0,.34-.05.31-.3s0-.46,0-.68a1.5,1.5,0,0,0-.45-1.09,3.73,3.73,0,0,0-4-.44,1.73,1.73,0,0,0-1,1.78,2.8,2.8,0,0,1,0,.5c0,.19.06.23.24.23C105,36.3,105.87,36.31,106.7,36.31Z"/><path class="cls-1" d="M107.22,40.52a10.9,10.9,0,0,1-1.27-.06,3.52,3.52,0,0,1-2.2-1.05,2.24,2.24,0,0,1-.7-1.59c0-.88,0-1.75,0-2.63a2.32,2.32,0,0,1,.9-1.78,3.78,3.78,0,0,1,2.18-.88,4.75,4.75,0,0,1,2.72.46,3.49,3.49,0,0,1,.86.66,2,2,0,0,1,.61,1.51c0,.41,0,.83,0,1.24a.81.81,0,0,1-.19.61.88.88,0,0,1-.6.21h-5a1.66,1.66,0,0,1,0,.24c-.06.69.2,1,1,1.44a3.17,3.17,0,0,0,1.28.21H109a.75.75,0,0,1,.58.2.71.71,0,0,1,.19.52.74.74,0,0,1-.2.51.78.78,0,0,1-.57.18h-1.74ZM108,35.8h.93c0-.12,0-.25,0-.37v-.13a1,1,0,0,0-.31-.73,3.25,3.25,0,0,0-3.39-.35,1.27,1.27,0,0,0-.79,1.3,2.46,2.46,0,0,1,0,.28c.52,0,1,0,1.56,0h2Z"/><path class="cls-1" d="M60.62,39a3.07,3.07,0,0,1-1.06.72,4.41,4.41,0,0,1-4.31-.47,1.81,1.81,0,0,1-.77-1.59c0-.7,0-1.41,0-2.12a2.1,2.1,0,0,1,1-1.93,4.6,4.6,0,0,1,4.83.21,2,2,0,0,1,.76,1.62c0,1.42,0,2.83,0,4.25,0,.14,0,.28-.2.28s-.22-.11-.21-.27V39Zm-5.71-2.47c0,.35,0,.71,0,1.07a1.5,1.5,0,0,0,.8,1.46,4,4,0,0,0,4.16,0,1.56,1.56,0,0,0,.83-1.5c0-.71,0-1.43,0-2.15a1.51,1.51,0,0,0-.61-1.27,3.17,3.17,0,0,0-1.94-.69,3.9,3.9,0,0,0-2.32.46,1.63,1.63,0,0,0-.92,1.58C54.93,35.83,54.91,36.18,54.91,36.52Z"/><path class="cls-1" d="M57.68,40.55A4.48,4.48,0,0,1,55,39.64a2.33,2.33,0,0,1-1-2v-.17c0-.64,0-1.29,0-1.93a2.56,2.56,0,0,1,1.25-2.36,5.1,5.1,0,0,1,5.45.24,2.54,2.54,0,0,1,.92,2c0,1,0,2.07,0,3.1v1.15a.75.75,0,0,1-.18.58.79.79,0,0,1-1.05,0,.59.59,0,0,1-.16-.3,2.65,2.65,0,0,1-.48.23A6.32,6.32,0,0,1,57.68,40.55Zm.08-6.61a3.11,3.11,0,0,0-1.68.4,1.11,1.11,0,0,0-.68,1.11,6.43,6.43,0,0,1,0,.76v.63c0,.26,0,.52,0,.78a1,1,0,0,0,.55,1,3.47,3.47,0,0,0,3.66,0,1.06,1.06,0,0,0,.58-1.05c0-.72,0-1.45,0-2.17a1,1,0,0,0-.42-.88A2.74,2.74,0,0,0,58.12,34Z"/><path class="cls-1" d="M45.22,34.1A4.14,4.14,0,0,1,50,33.46a2.24,2.24,0,0,1,1.25,2.07q0,2,0,4c0,.14.06.29-.2.3s-.22-.16-.22-.31c0-1.29,0-2.57,0-3.86a2,2,0,0,0-1.35-2,4.06,4.06,0,0,0-3.17.11,1.84,1.84,0,0,0-1.09,1.77c0,1.33,0,2.66,0,4,0,.15,0,.28-.2.28s-.23-.11-.23-.28V30c0-.13,0-.27.2-.27s.23.06.23.24c0,1.23,0,2.45,0,3.68A1,1,0,0,0,45.22,34.1Z"/><path class="cls-1" d="M45,40.33a.74.74,0,0,1-.52-.19.77.77,0,0,1-.2-.59V30a.77.77,0,0,1,.18-.58.8.8,0,0,1,.53-.19.69.69,0,0,1,.72.75c0,1,0,2.07,0,3.11a4.62,4.62,0,0,1,4.5-.11,2.75,2.75,0,0,1,1.51,2.51q0,1.66,0,3.33v.66a.7.7,0,0,1-.16.58.74.74,0,0,1-.53.22.76.76,0,0,1-.55-.21.75.75,0,0,1-.18-.56V38.39c0-.92,0-1.84,0-2.75a1.48,1.48,0,0,0-1-1.49,3.53,3.53,0,0,0-2.79.09,1.33,1.33,0,0,0-.81,1.32c0,.86,0,1.72,0,2.59v1.4a.79.79,0,0,1-.18.58.7.7,0,0,1-.52.2Zm6.27-.81-.47.12h.5A.2.2,0,0,0,51.25,39.52Z"/><path class="cls-1" d="M80.74,36.5v1.18A2,2,0,0,1,80,39.24a3.54,3.54,0,0,1-2.16.77,4,4,0,0,1-2.21-.45,2.14,2.14,0,0,1-1.22-2.06c0-.71,0-1.42,0-2.13a2,2,0,0,1,.8-1.63A3.2,3.2,0,0,1,77.07,33a4.12,4.12,0,0,1,2.44.42,2.14,2.14,0,0,1,1.24,2.08C80.73,35.85,80.74,36.18,80.74,36.5Zm-.41,0V35.32a1.53,1.53,0,0,0-.44-1.06,3.68,3.68,0,0,0-4.13-.39,1.69,1.69,0,0,0-.93,1.42v2.44a1.44,1.44,0,0,0,.43,1,2.74,2.74,0,0,0,1.69.8,3.63,3.63,0,0,0,2.59-.5,1.63,1.63,0,0,0,.79-1.47C80.31,37.22,80.33,36.86,80.33,36.5Z"/><path class="cls-1" d="M77.57,40.51A4.31,4.31,0,0,1,75.38,40a2.66,2.66,0,0,1-1.47-2.52c0-.56,0-1.12,0-1.68v-.43a2.43,2.43,0,0,1,1-2A3.72,3.72,0,0,1,77,32.53a4.71,4.71,0,0,1,2.73.48,2.61,2.61,0,0,1,1.48,2.55c0,.21,0,.42,0,.63v1.49a2.43,2.43,0,0,1-.92,1.94,4,4,0,0,1-2.46.89Zm0-6.6a2.87,2.87,0,0,0-1.53.38c-.5.32-.69.61-.7,1v2.43a.92.92,0,0,0,.28.66,2.26,2.26,0,0,0,1.4.67,3.06,3.06,0,0,0,2.24-.42,1.13,1.13,0,0,0,.58-1c0-.26,0-.51,0-.77V35.32a1.06,1.06,0,0,0-.31-.73A2.72,2.72,0,0,0,77.56,33.91Z"/><path class="cls-1" d="M94,36.51V35.3a1.88,1.88,0,0,1,.71-1.49A3.24,3.24,0,0,1,96.62,33a4.07,4.07,0,0,1,2.56.48,2.13,2.13,0,0,1,1.1,1.49c0,.25,0,.32-.28.27a.12.12,0,0,1-.12-.11,1.93,1.93,0,0,0-1.6-1.58,3.66,3.66,0,0,0-3,.32,1.73,1.73,0,0,0-.89,1.61c0,.72,0,1.44,0,2.15a1.48,1.48,0,0,0,.46,1.11,2.58,2.58,0,0,0,1.44.75A3.72,3.72,0,0,0,99,39.1a1.63,1.63,0,0,0,.85-1.17c0-.21.15-.19.29-.19s.14.16.12.26a1.93,1.93,0,0,1-.76,1.27,3.29,3.29,0,0,1-1.85.72,4.24,4.24,0,0,1-2.45-.41A2.13,2.13,0,0,1,94,37.48C94,37.15,94,36.83,94,36.51Z"/><path class="cls-1" d="M97.1,40.51A4.25,4.25,0,0,1,95,40a2.61,2.61,0,0,1-1.5-2.57c0-.2,0-.41,0-.63V35.3a2.39,2.39,0,0,1,.88-1.87,3.82,3.82,0,0,1,2.23-.9,4.58,4.58,0,0,1,2.85.55,2.66,2.66,0,0,1,1.34,1.83.73.73,0,0,1-.18.69.72.72,0,0,1-.69.16.6.6,0,0,1-.52-.53c-.1-.59-.48-1-1.24-1.17a3.14,3.14,0,0,0-2.61.27,1.19,1.19,0,0,0-.66,1.16c0,.53,0,1.06,0,1.59v.59a.93.93,0,0,0,.31.74,2.08,2.08,0,0,0,1.17.61,3.18,3.18,0,0,0,2.38-.34,1.1,1.1,0,0,0,.62-.81.67.67,0,0,1,.79-.63.65.65,0,0,1,.51.24.64.64,0,0,1,.11.56,2.47,2.47,0,0,1-1,1.62,3.77,3.77,0,0,1-2.13.83Zm3.28-5.44h0Z"/><path class="cls-1" d="M84.14,37.62c0-.59,0-1.18,0-1.76A2.77,2.77,0,0,1,86.28,33a3.83,3.83,0,0,1,3.15.42,2.6,2.6,0,0,1,1.2,2.24c0,1.33,0,2.66,0,4,0,.14,0,.28-.2.28s-.22-.13-.22-.28c0-1.25,0-2.5,0-3.75A2.43,2.43,0,0,0,88.3,33.4a3.74,3.74,0,0,0-2.22.13,2.28,2.28,0,0,0-1.53,2.22c0,1.32,0,2.63,0,3.94,0,.1,0,.24-.14.26s-.28,0-.27-.23C84.15,39,84.14,38.32,84.14,37.62Z"/><path class="cls-1" d="M90.43,40.46a.72.72,0,0,1-.52-.2.77.77,0,0,1-.19-.57v-1.2c0-.86,0-1.73,0-2.59a1.91,1.91,0,0,0-1.55-2,3.24,3.24,0,0,0-1.93.1,1.79,1.79,0,0,0-1.2,1.76v3.94a.65.65,0,0,1-.59.76.82.82,0,0,1-.61-.17.73.73,0,0,1-.21-.57c0-.5,0-1,0-1.51V37.06c0-.39,0-.78,0-1.18a3.29,3.29,0,0,1,2.52-3.35A4.4,4.4,0,0,1,89.7,33a3.12,3.12,0,0,1,1.43,2.66c0,1,0,1.9,0,2.86v1.13a.71.71,0,0,1-.17.58.72.72,0,0,1-.51.21Zm-.27-.79a.43.43,0,0,0,0,.11l.49-.11Z"/><path class="cls-1" d="M64.59,37.57c0-.58,0-1.16,0-1.73A2.79,2.79,0,0,1,66.71,33a3.9,3.9,0,0,1,3.13.41,2.54,2.54,0,0,1,1.23,2.2c0,1.35,0,2.71,0,4.07,0,.13,0,.25-.19.25s-.23-.08-.23-.25c0-1.27,0-2.54,0-3.81a2.34,2.34,0,0,0-1.87-2.47,3.46,3.46,0,0,0-2.53.22A2.24,2.24,0,0,0,65,35.74c0,1.32,0,2.63,0,3.94,0,.1,0,.24-.13.27s-.27,0-.27-.23C64.59,39,64.59,38.28,64.59,37.57Z"/><path class="cls-1" d="M70.89,40.45a.72.72,0,0,1-.53-.19.76.76,0,0,1-.2-.56c0-1,0-1.9,0-2.85v-1a1.87,1.87,0,0,0-1.5-2,2.94,2.94,0,0,0-2.17.19,1.73,1.73,0,0,0-1,1.66v3.93a.64.64,0,0,1-.56.76.78.78,0,0,1-.62-.15.75.75,0,0,1-.22-.58c0-.51,0-1,0-1.54V37c0-.39,0-.77,0-1.16a3.27,3.27,0,0,1,2.52-3.33,4.37,4.37,0,0,1,3.51.47,3.05,3.05,0,0,1,1.46,2.61c0,.94,0,1.89,0,2.83V39.7a.83.83,0,0,1-.09.43.64.64,0,0,1-.6.32Z"/><path class="cls-1" d="M29.23,33.81V30c0-.15,0-.24.2-.24s.23.06.23.24c0,2.42,0,4.83,0,7.24A2.2,2.2,0,0,0,31.2,39.4a3.13,3.13,0,0,0,1.05.18c.18,0,.25.05.25.24s-.12.19-.26.19a3.22,3.22,0,0,1-2.53-1.17,2.15,2.15,0,0,1-.48-1.38C29.24,36.24,29.23,35,29.23,33.81Z"/><path class="cls-1" d="M32.32,40.51h-.09a3.68,3.68,0,0,1-2.92-1.36,2.69,2.69,0,0,1-.58-1.69c0-.86,0-1.72,0-2.57V30a.73.73,0,0,1,.19-.55.65.65,0,0,1,.52-.19.68.68,0,0,1,.72.74c0,.81,0,1.61,0,2.41,0,1.62,0,3.23,0,4.84a1.73,1.73,0,0,0,1.22,1.67,3.32,3.32,0,0,0,.89.15.7.7,0,0,1,.55.19.77.77,0,0,1,.2.55.7.7,0,0,1-.2.52A.72.72,0,0,1,32.32,40.51Z"/><path class="cls-1" d="M77.58,30.07a.71.71,0,0,1,.74.74.74.74,0,1,1-1.48,0A.71.71,0,0,1,77.58,30.07Z"/><path class="cls-1" d="M77.57,32.07h0a1.25,1.25,0,0,1,0-2.5h0a1.21,1.21,0,0,1,1.23,1.25,1.26,1.26,0,0,1-.36.9A1.25,1.25,0,0,1,77.57,32.07Zm0-1.5a.21.21,0,0,0-.24.24.23.23,0,0,0,.23.26.39.39,0,0,0,.19-.06.31.31,0,0,0,.06-.2.22.22,0,0,0-.24-.24Z"/></svg>