<svg id="Layer_1" data-name="Layer 1" xmlns="http://www.w3.org/2000/svg" viewBox="0 0 532 266"><title>SVG-</title><path d="M192.29,144.83c-2.78-.32-5.57-.09-8.36-.18a2.87,2.87,0,0,0-2.69,1.43,20.3,20.3,0,0,1-9.75,8.24c-4.54,1.75-9.11,2.22-13.74.41a27.41,27.41,0,0,1-11.51-9c-2.68-3.4-5.12-7-7.63-10.51s-5-7.25-7.65-10.77c-4-5.27-8.2-10.2-13.76-13.9a28.19,28.19,0,0,0-14.94-4.6A27.37,27.37,0,0,0,91.33,108a30.93,30.93,0,0,0-12.81,9c-4.59,5.56-6.46,12.13-6.67,19.24a24.58,24.58,0,0,0,.78,6.62A32,32,0,0,0,78.18,154a27.69,27.69,0,0,0,11,8.89,31,31,0,0,0,15.21,2.7,27.31,27.31,0,0,0,13.54-4.81A53.42,53.42,0,0,0,129,150c1.24-1.53,1.28-2.57.3-4-1.09-1.57-2.13-3.17-3.27-4.7-.42-.57-.62-1.55-1.29-1.63s-.9.95-1.41,1.42a6.8,6.8,0,0,0-.69.82,56.69,56.69,0,0,1-7.71,8.6,22.4,22.4,0,0,1-7.44,4.41,18.37,18.37,0,0,1-13.28-.76,19.33,19.33,0,0,1-11.77-13.55c-1.92-7.29.32-13.61,5.38-19a19.67,19.67,0,0,1,9.52-5.2,17.78,17.78,0,0,1,8.14-.28c4.73.93,8.44,3.67,11.69,7,4.94,5.06,8.63,11.11,12.63,16.89,4.15,6,8.26,12,13.6,17a30.4,30.4,0,0,0,15.84,8.28,29.5,29.5,0,0,0,11.23-.45,29.1,29.1,0,0,0,16.15-9.49c2.64-3,4.27-6.6,6.27-10C193.34,144.7,192.68,144.88,192.29,144.83Z"/><path d="M257.62,120.22c-5.15-2.73-10.36-2.1-15.42.5a24,24,0,0,0-2.35,1.37.91.91,0,0,1-1.27-.15,12.72,12.72,0,0,0-6.86-3c-4.38-.65-8.57-.33-12.46,1.83-3,1.66-5.24,4-5.66,7.63-.15,1.28.09,1.6,1.4,1.57,2,0,3.87.34,5.8.48.68,0,1,0,1.19-.72a5.69,5.69,0,0,1,5-4.21c2.61-.33,4.95.14,6.41,2.62a8.24,8.24,0,0,1,.8,4.38c0,1-.32,1.18-1.22,1.17a58.45,58.45,0,0,0-9.9.37,13.84,13.84,0,0,0-7.1,2.87c-3.32,2.83-3.86,6.56-3.17,10.55a9.15,9.15,0,0,0,5,6.63,15.61,15.61,0,0,0,6.3,1.63,17.93,17.93,0,0,0,13.71-4.33c.72-.61,1.09-.5,1.68,0,3.91,3.64,8.61,4.73,13.8,4.27,3.47-.31,6.58-1.78,9.76-3a1.48,1.48,0,0,0,.93-2.12c-.52-1.29-1.19-2.52-1.65-3.82-.29-.84-.62-.67-1.2-.37a19.43,19.43,0,0,1-7,2.45c-2.45.2-4.86.22-7.08-1-2.77-1.58-3.88-4.16-4.33-7.18-.13-.86.11-1,.89-1,3.39,0,6.78,0,10.18,0s6.86,0,10.29,0c.76,0,1.08-.18,1-1-.14-2.54.05-5.07-.21-7.63A13,13,0,0,0,257.62,120.22Zm-23.47,22.59v.12c0,3.53-.68,4.42-4.11,5.63-2,.7-3.95,1.13-6,.34a4.12,4.12,0,0,1-3-3.24,4.63,4.63,0,0,1,1.91-4.71,8.19,8.19,0,0,1,4.73-1.37c1.86-.12,3.75,0,5.62,0,.67,0,.94.19.89.88S234.15,142,234.15,142.81Zm20.32-9.19h-4.91c-2,0-4.07,0-6.1,0-.66,0-.9-.11-.75-.87.57-3,1.81-5.56,4.79-6.81,4.48-1.89,8.87.68,9.19,5.4C256.84,133.62,256.78,133.62,254.47,133.62Z"/><path d="M315.55,122.2a14.12,14.12,0,0,0-12.4-3.43c-6.86,1.15-11.32,5.13-13.22,11.83a28.4,28.4,0,0,0-.33,12.48c1.06,6.59,7.32,11.5,13.32,12.49a20.06,20.06,0,0,0,10-1.08,13.19,13.19,0,0,0,6.41-4.61c.31-.42.55-.8.15-1.26-1.06-1.24-2.14-2.45-3.2-3.69-.42-.49-.77-.43-1.18,0a14.47,14.47,0,0,1-3.43,2.54c-6.49,3.71-12.92-.18-14-6.38-.14-.82,0-1.15.95-1.14,3.47,0,6.94,0,10.41,0s6.86,0,10.29,0c1.1,0,1.31-.35,1.32-1.36a46,46,0,0,0-.55-7.6A14.82,14.82,0,0,0,315.55,122.2Zm-3.34,10.9c-.11.62-.5.52-.87.52H305c-2,0-4-.07-6,0-1.16.06-1.37-.42-1.19-1.39.78-4.35,4.6-8,9.75-6.57C310.16,126.38,312.66,130.55,312.21,133.1Z"/><path d="M451,119.23c-2.31,0-4.63,0-6.94,0a1.35,1.35,0,0,0-1.42,1c-.25.83-.53,1.66-.77,2.5-1.25,4.31-2.54,8.61-3.84,12.91-.66,2.2-1.36,4.39-2.13,6.88-.71-2.28-1.33-4.29-1.95-6.3-1.42-4.64-2.81-9.28-4.29-13.9-.44-1.4-.75-3.07-2.76-3.1-2.2,0-4.39,0-6.59,0-.6,0-.63.33-.47.79.43,1.28.85,2.56,1.3,3.84q3,8.49,6,17c1.49,4.19,3,8.38,4.49,12.57a2.87,2.87,0,0,1,.06,2.21c-.51,1.17-1,2.35-1.49,3.51a4.92,4.92,0,0,1-3.38,2.78,14.58,14.58,0,0,1-3.08.27c-.61,0-1.36,0-1.35,1,0,1.32,0,2.63,0,4a1.79,1.79,0,0,0,1.44,1.9,10.65,10.65,0,0,0,10.34-2.73c2.08-2,3.08-4.67,4-7.35,1.73-5,3.52-10.06,5.27-15.09,1.44-4.17,2.84-8.36,4.27-12.53q1.91-5.53,3.83-11.06C451.81,119.63,451.86,119.23,451,119.23Z"/><path d="M192.33,126.19A29.91,29.91,0,0,0,167,106.26a27.72,27.72,0,0,0-17.82,4c-5.18,3.18-9.17,7.6-12.87,12.31a1.93,1.93,0,0,0-.28,2.25c1.52,2.34,3.13,4.61,4.71,6.91.34.51.59.74,1.08,0,.85-1.25,1.85-2.39,2.77-3.59a39.59,39.59,0,0,1,9.14-9,17.58,17.58,0,0,1,10.55-3.29A21.34,21.34,0,0,1,176.12,120a19.06,19.06,0,0,1,7,10.12c.2.63,0,.89-.66.88-1,0-2.07,0-3.11,0q-10,0-20,0c-1.8,0-2.48.7-2.48,2.46,0,1.48,0,3,0,4.43,0,2.23.76,3,3,3H191c1.69,0,2.41-.65,2.87-2.29.26-.93-.13-1.8-.09-2.71A27.5,27.5,0,0,0,192.33,126.19Z"/><path d="M377.56,128.22c-.35-3.47-1.7-6.44-4.9-8.09a13.14,13.14,0,0,0-14,.76c-.75.5-1.44,1.09-2.34,1.78-.07-.87-.15-1.5-.16-2.12,0-.93-.48-1.18-1.37-1.15-1.83.07-3.67,0-5.51,0-.78,0-1,.26-1,1q0,16.7,0,33.39c0,.8.31,1,1.07,1,1.95,0,3.91-.08,5.86,0,1,0,1.36-.25,1.35-1.32-.05-7.47,0-14.93,0-22.39a3.1,3.1,0,0,1,.26-1.5c1.92-3.71,5.2-4.6,8.75-3.92a4.43,4.43,0,0,1,3.63,3.27,14,14,0,0,1,.35,3.43c0,7,0,14,0,21.06,0,1,.19,1.42,1.3,1.37a57.47,57.47,0,0,1,5.87,0c1.15.06,1.39-.38,1.37-1.44-.06-5.26,0-10.52-.23-15.77C377.63,134.52,377.87,131.36,377.56,128.22Z"/><path d="M285.56,148.63c-3.6,0-4.81-.09-4.75-4.18,0-2.79,0-5.58,0-8.38,0-3.15.05-6.3,0-9.45,0-1,.31-1.31,1.29-1.25,1.27.08,2.55,0,3.83,0,.63,0,.94-.12.92-.84-.05-1.48,0-3,0-4.43,0-.67-.19-.92-.88-.9-1.44,0-2.88,0-4.31,0-.87,0-1.08-.29-1.06-1.1.05-2.08,0-4.15,0-6.23,0-.8-.18-1.13-1.05-1.1-2.08,0-4.15.06-6.23,0-.87,0-1.07.3-1.05,1.11,0,2.07,0,4.15,0,6.22,0,1-.34,1.33-1.31,1.28-1.15-.07-2.31,0-3.47,0-.68,0-1,.14-1,.92.05,1.47,0,3,0,4.43,0,.62.19.85.82.84,1.24,0,2.48.05,3.71,0,1-.07,1.27.33,1.25,1.3-.05,3.75-.06,7.5,0,11.25a88.32,88.32,0,0,0,.18,10,7.91,7.91,0,0,0,5.24,6.93c2.79,1.07,5.55.74,8.33.08a1.23,1.23,0,0,0,1-1.4c-.06-1.27,0-2.55,0-3.83C287.06,148.49,287.06,148.61,285.56,148.63Z"/><path d="M415.5,148.5c-.2,0-.39.07-.59.1-2.31.38-3.57-.48-4-2.75a6.39,6.39,0,0,1,0-1.07v-8.86c0-3.11,0-6.22,0-9.33,0-.78.23-1,1-1,1.39.06,2.79,0,4.18,0,.79,0,1.05-.26,1-1-.05-1.47,0-3,0-4.43,0-.66-.2-.92-.88-.9-1.4,0-2.8,0-4.19,0-.88,0-1.18-.19-1.15-1.12.07-2.11,0-4.22,0-6.34,0-.74-.15-1.06-1-1-2.11.06-4.23.06-6.34,0-.89,0-1.06.33-1.05,1.12.05,2.15,0,4.31,0,6.46,0,.85-.29,1.13-1.11,1.09-1.28,0-2.56,0-3.83,0-.61,0-.86.18-.85.82,0,1.51,0,3,0,4.55,0,.63.22.83.83.82,1.24,0,2.48.05,3.71,0,1-.07,1.26.31,1.26,1.28,0,7-.14,14,.17,21a7.3,7.3,0,0,0,3.05,6c3.44,2.41,7.16,2.22,11,1,.56-.18.55-.59.55-1,0-1.28,0-2.55,0-3.83C417.26,148.42,417.19,148.36,415.5,148.5Z"/><path d="M343.41,119c-3.05-.15-6.07-.19-8.47,2.23-.29.3-.61.9-1.17.59s-.25-.81-.22-1.21c.07-1-.36-1.23-1.28-1.2-1.79.07-3.59.08-5.38,0-1,0-1.28.28-1.27,1.27.05,5.5,0,11,0,16.51s0,10.84,0,16.26c0,1,.18,1.5,1.35,1.43,1.91-.11,3.83-.08,5.74,0,1,0,1.26-.31,1.26-1.29,0-6.86.08-13.72-.07-20.57-.08-3.35,1.66-5.06,5.1-6a18.5,18.5,0,0,1,4.52-.18c.6,0,1-.08,1-.83,0-2,0-3.91,0-5.86A1,1,0,0,0,343.41,119Z"/><path d="M390.31,119.4c-1.83.08-3.67.07-5.5,0-1,0-1.3.25-1.3,1.27.05,5.5,0,11,0,16.51s0,11,0,16.51c0,.88.22,1.2,1.14,1.17,1.95-.06,3.91-.06,5.86,0,.94,0,1.14-.35,1.12-1.19,0-2,0-4.07,0-6.11,0-8.93,0-17.87,0-26.8C391.65,119.72,391.39,119.35,390.31,119.4Z"/><path d="M387.49,105.89c-2.94,0-4.56,1.63-4.6,4.42a4.18,4.18,0,0,0,4.72,4.32c3,0,4.74-1.59,4.74-4.28S390.56,105.87,387.49,105.89Z"/></svg>