<svg id="Layer_1" data-name="Layer 1" xmlns="http://www.w3.org/2000/svg" viewBox="0 0 532 266"><title>SVG-</title><path d="M82.4,100.06c3.57,0,6.74.91,8.83,4.07A11.68,11.68,0,0,1,92.82,112a36.24,36.24,0,0,1-5.16,14.48,2.22,2.22,0,0,0,0,2.63c3.19,5.22,6.3,10.48,9.42,15.75a2.77,2.77,0,0,0,1.65,1.28,58.53,58.53,0,0,1,25.48,16.21c5.15,5.68,3,15.6-4.52,18.32a11.79,11.79,0,0,1-13.6-5c-3.48-5.64-6.82-11.36-10.22-17-1-1.72-2-3.45-3.09-5.13a2.21,2.21,0,0,0-1.22-.89,36.59,36.59,0,0,0-11.88-1c-2.32.27-4.64.67-6.94,1.1a1.94,1.94,0,0,0-1.08.93c-3.3,5.48-6.56,11-9.86,16.48a71.09,71.09,0,0,1-4.15,6.6,11.36,11.36,0,0,1-15.07,2.78,10.91,10.91,0,0,1-4.81-8c-.63-4.71,1.38-8.29,4.76-11.41a62.86,62.86,0,0,1,22.79-13.73,4.17,4.17,0,0,0,2.5-2.07q4.57-7.78,9.27-15.51a1.68,1.68,0,0,0,0-2A36.26,36.26,0,0,1,72,113.35a17.83,17.83,0,0,1,.18-6.31c1.06-4.47,4.65-7,9.32-7ZM59.86,157.63c-.41.12-.5.13-.58.17a53.65,53.65,0,0,0-12.53,9.48,3.83,3.83,0,0,0-.59,4.48A2.57,2.57,0,0,0,49,173.11a4.11,4.11,0,0,0,2.93-2.06q2.71-4.52,5.4-9.05C58.1,160.63,58.91,159.25,59.86,157.63Zm45,0c.18.4.22.55.3.68,2.59,4.34,5.17,8.7,7.8,13a4.42,4.42,0,0,0,1.53,1.38,2.72,2.72,0,0,0,3.73-.66,3.72,3.72,0,0,0-.24-4.5A53.51,53.51,0,0,0,104.88,157.58ZM82.17,118.93h.27a13.79,13.79,0,0,0,.8-2c.56-2.19,1.2-4.39,1.54-6.62.22-1.48-.76-2.21-2.42-2.22s-2.58.7-2.54,2.23C79.89,113.38,81.08,116.15,82.17,118.93Zm.15,16.9-4.55,7.62h9.08Z"/><path d="M170,150.93c-.29.29-.59.84-.92.86a1.59,1.59,0,0,1-1.21-.66c-.57-.91-1-1.93-1.45-2.88a15.42,15.42,0,0,0-15.74-8c-5.75.8-9.71,4-12.32,9.08-.28.53-.52,1.08-.79,1.62s-.7,1.16-1.44.84-.84-1-.46-1.68c1.45-2.64,2.88-5.29,4.37-7.9q5.78-10.23,11.6-20.42c.67-1.17,1.39-1.17,2.07,0q7.11,12.4,14.2,24.84c.63,1.1,1.17,2.24,1.74,3.37A8,8,0,0,1,170,150.93ZM152.62,124c-3.12,5.48-6.15,10.79-9.18,16.09l.15.23a19.32,19.32,0,0,1,18.18,0l.09-.23Z"/><path d="M225.36,134.24v-2.66q0-4.91,0-9.8c0-.35-.07-.78.1-1a1.71,1.71,0,0,1,1-.77c.29,0,.68.44.91.76a1.63,1.63,0,0,1,.1.84c0,6.41,0,12.81,0,19.22a11.11,11.11,0,1,1-3-7.4Zm0,6.79a8.64,8.64,0,0,0-8.78-8.81A8.78,8.78,0,0,0,207.7,141a9,9,0,0,0,8.87,9.05A8.89,8.89,0,0,0,225.36,141Z"/><path d="M310.44,136.4c.23-6.59,3.38-11.36,9.32-14.07a15,15,0,0,1,18,4.65c.42.55.89,1.18.15,1.84-.54.48-1.26.25-1.9-.58l-.06-.08a13.14,13.14,0,0,0-14.43-4.41,13.44,13.44,0,0,0-8.83,15.32A13.09,13.09,0,0,0,326,149.68a13.37,13.37,0,0,0,10.93-6c.18-.26.33-.54.51-.8.3-.48.7-.8,1.26-.45a.92.92,0,0,1,.31,1.4,24.68,24.68,0,0,1-2.08,2.94c-3.79,4.11-8.49,5.88-14,4.85a15.5,15.5,0,0,1-12.54-15.24Z"/><path d="M279.11,147.87c-1,.87-1.71,1.59-2.53,2.18a11.06,11.06,0,1,1,4-13.25,12.21,12.21,0,0,1,.79,4.07c.12,3.26,0,6.53,0,9.8,0,1.07-.42,1.65-1.16,1.63s-1.15-.65-1.16-1.68C279.11,149.78,279.11,148.93,279.11,147.87Zm0-6.86a8.83,8.83,0,1,0-17.65-.32,9,9,0,0,0,8.79,9.33A8.86,8.86,0,0,0,279.09,141Z"/><path d="M375.23,150.31c0-3.51-.09-7,0-10.55a9.31,9.31,0,0,1,2.75-6.12,10.61,10.61,0,0,1,7.13-3.5,10.31,10.31,0,0,1,9.35,3.64,10.71,10.71,0,0,1,2.4,9.94,9.92,9.92,0,0,1-2.88,4.82,10.6,10.6,0,0,1-4.6,2.88,10.72,10.72,0,0,1-11-2.78,6.79,6.79,0,0,0-1.12-.74,6,6,0,0,0-.25,1.25c0,3.48,0,7,0,10.46a2.26,2.26,0,0,1-.06.94,1.08,1.08,0,0,1-.69.62,1,1,0,0,1-.76-.51,2.75,2.75,0,0,1-.13-1.12c0-3.08,0-6.15,0-9.23ZM395.18,141c-.12-6-4.49-9.27-8.94-9.21-5.21.08-9.36,3.83-9.31,10,0,4.13,4.72,8.29,9.27,8.28A9.18,9.18,0,0,0,395.18,141Z"/><path d="M454.59,147.74c-.49.42-.83.68-1.13,1a10.94,10.94,0,0,1-18.18-4.41,10.73,10.73,0,0,1,8.77-14.09c5.88-.76,11,2.21,12.58,8.57a4.32,4.32,0,0,1,.12.94c0,3.71,0,7.43.05,11.14,0,.67-.18,1.27-1,1.27s-1.06-.58-1-1.31c0-.25,0-.51,0-.76,0-.41,0-.83,0-1.24A9.22,9.22,0,0,0,454.59,147.74Zm-8.77-15.86a8.9,8.9,0,0,0-9,9.06,9,9,0,1,0,18,.15A9,9,0,0,0,445.82,131.88Z"/><path d="M365.14,147.7c-.48.41-.76.61-1,.85a11,11,0,0,1-18.75-5.84,10.78,10.78,0,0,1,9.2-12.51c6-.71,11.08,2.41,12.55,8.62a8.52,8.52,0,0,1,.15,1.89c0,3.3,0,6.6,0,9.9,0,.16,0,.32,0,.47,0,.64-.35,1.16-.95,1a1.65,1.65,0,0,1-1-1,10.27,10.27,0,0,1-.07-2.08C365.28,148.65,365.22,148.32,365.14,147.7Zm.16-6.71a8.89,8.89,0,0,0-9-9.1,8.78,8.78,0,0,0-9.06,9.05,9,9,0,1,0,18,.05Z"/><path d="M176.32,145.34a47.25,47.25,0,0,1,0-6.07,10.77,10.77,0,0,1,10.12-9.44,11,11,0,0,1,11.44,7.75,9.93,9.93,0,0,1,.44,2.81c0,3.33,0,6.66,0,10,0,.77-.17,1.41-1.06,1.51-.72.07-1.25-.55-1.25-1.48,0-3.33,0-6.67,0-10a8.75,8.75,0,0,0-17.46-.44c-.2,2.91-.15,5.83-.21,8.75,0,.69,0,1.39-.06,2.09s-.24,1.23-1,1.22-1.08-.53-1.07-1.27c0-1.81,0-3.62,0-5.43Z"/><path d="M239.07,134a14.79,14.79,0,0,1,1.48-1.58,11.14,11.14,0,0,1,11.17-1.89,17.88,17.88,0,0,1,2,.81,1.09,1.09,0,0,1,.55,1.66c-.41.66-1,.64-1.75.34a17.41,17.41,0,0,0-3.82-1.3,8.83,8.83,0,0,0-9.92,8.11c-.15,3.45,0,6.92-.09,10.37a2.12,2.12,0,0,1-.66,1.34,1.1,1.1,0,0,1-1.09-.1,2.34,2.34,0,0,1-.56-1.4c0-3.84,0-7.67,0-11.51,0-2.48,0-4.95,0-7.42,0-1,.46-1.6,1.22-1.59s1.13.62,1.14,1.57,0,1.63,0,2.44Z"/><path d="M417.84,137.52a48.17,48.17,0,0,0,.44,5.66,8.57,8.57,0,0,0,7.74,6.89,2.29,2.29,0,0,1,.93.12,4.74,4.74,0,0,1,.85.88c-.31.27-.62.75-.94.77a8,8,0,0,1-2.63-.23,10.78,10.78,0,0,1-8-8.14,14.27,14.27,0,0,1-.29-3.27c0-5.9,0-11.8,0-17.69,0-.32,0-.74.14-.91s.79-.61,1.08-.52a1.3,1.3,0,0,1,.73,1c.07,2.12,0,4.25.05,6.37,0,1.7.11,1.82,1.85,1.82,2.44,0,4.88,0,7.32,0,.28,0,.8.35.8.53a1.88,1.88,0,0,1-.47,1.18c-.19.19-.66.13-1,.13-2.45,0-4.89,0-7.33,0-.87,0-1.2.32-1.18,1.16,0,1.43,0,2.86,0,4.28Z"/><path d="M465.46,136.24V122.65a2.43,2.43,0,0,1,0-.94c.17-.33.5-.79.77-.8a1.54,1.54,0,0,1,1,.65,1.82,1.82,0,0,1,.14,1q0,13.78,0,27.56a2,2,0,0,1-.22,1.09,1.15,1.15,0,0,1-.93.44c-.28,0-.59-.4-.74-.7a2.19,2.19,0,0,1-.06-.93Z"/><path d="M404.91,140.83q0-4.76,0-9.51a2.08,2.08,0,0,1,.08-.94c.14-.26.46-.58.72-.59a1.14,1.14,0,0,1,.92.43,2.75,2.75,0,0,1,.22,1.29q0,9.36,0,18.73v.29c0,.74-.18,1.44-1,1.46s-1-.75-1-1.46C404.92,147.3,404.91,144.06,404.91,140.83Z"/></svg>