<?xml version="1.0" encoding="utf-8"?>
<!-- Generator: Adobe Illustrator 23.0.0, SVG Export Plug-In . SVG Version: 6.00 Build 0)  -->
<svg version="1.1" id="Layer_1" xmlns="http://www.w3.org/2000/svg" xmlns:xlink="http://www.w3.org/1999/xlink" x="0px" y="0px"
	 viewBox="0 0 256 301" style="enable-background:new 0 0 256 301;" xml:space="preserve">
<g>
	<path d="M41.8,118.1v74c0,9.9-7.9,17.8-17.8,17.8c-9.9,0-17.8-7.9-17.8-17.8v-74c0-9.9,7.9-17.8,17.8-17.8
		C33.9,100.4,41.8,108.2,41.8,118.1z"/>
	<path d="M166.5,33.5L179,10.9c0.7-1.3,0.3-2.7-1-3.4c-0.4-0.2-0.8-0.3-1.2-0.3c-0.9,0-1.8,0.4-2.2,1.3l-12.7,22.9
		c-10.4-4.6-22-7.2-34.3-7.2c-12.3,0-23.9,2.6-34.3,7.2L80.7,8.4c-0.5-0.9-1.3-1.3-2.2-1.3c-0.4,0-0.8,0.1-1.2,0.3
		c-1.3,0.7-1.7,2.2-1,3.4l12.5,22.6C64.7,46,48.4,69.8,48.4,97.2h158.5C206.8,69.8,190.6,46,166.5,33.5z M91.1,68.2
		c-3.6,0-6.6-3-6.6-6.6c0-3.6,3-6.6,6.6-6.6s6.6,3,6.6,6.6C97.7,65.2,94.7,68.2,91.1,68.2z M164.2,68.2c-3.6,0-6.6-3-6.6-6.6
		c0-3.6,3-6.6,6.6-6.6c3.6,0,6.6,3,6.6,6.6C170.8,65.2,167.8,68.2,164.2,68.2z"/>
	<path d="M249,118.1v74c0,9.9-7.9,17.8-17.8,17.8s-17.8-7.9-17.8-17.8v-74c0-9.9,7.9-17.8,17.8-17.8S249,108.2,249,118.1z"/>
	<path d="M231.2,100.4c-9.9,0-17.8,7.9-17.8,17.8v74c0,9.9,7.9,17.8,17.8,17.8S249,202,249,192.1v-74
		C249,108.2,241.1,100.4,231.2,100.4z M24,100.4c-9.9,0-17.8,7.9-17.8,17.8v74c0,9.9,7.9,17.8,17.8,17.8c9.9,0,17.8-7.9,17.8-17.8
		v-74C41.8,108.2,33.9,100.4,24,100.4z"/>
	<path d="M206.9,103.4v114.9c0,10.6-8.5,19.1-19.2,19.1H175v39.2c0,9.9-7.9,17.8-17.8,17.8s-17.8-7.9-17.8-17.8v-39.2h-23.7v39.2
		c0,9.9-7.9,17.8-17.8,17.8c-9.9,0-17.8-7.9-17.8-17.8v-39.2H67.6c-10.6,0-19.2-8.5-19.2-19.1V103.4H206.9z"/>
	<path d="M166.5,33.5L179,10.9c0.7-1.3,0.3-2.7-1-3.4c-0.4-0.2-0.8-0.3-1.2-0.3c-0.9,0-1.8,0.4-2.2,1.3l-12.7,22.9
		c-10.4-4.6-22-7.2-34.3-7.2c-12.3,0-23.9,2.6-34.3,7.2L80.7,8.4c-0.5-0.9-1.3-1.3-2.2-1.3c-0.4,0-0.8,0.1-1.2,0.3
		c-1.3,0.7-1.7,2.2-1,3.4l12.5,22.6C64.7,46,48.4,69.8,48.4,97.2h158.5C206.8,69.8,190.6,46,166.5,33.5z M91.1,68.2
		c-3.6,0-6.6-3-6.6-6.6c0-3.6,3-6.6,6.6-6.6s6.6,3,6.6,6.6C97.7,65.2,94.7,68.2,91.1,68.2z M164.2,68.2c-3.6,0-6.6-3-6.6-6.6
		c0-3.6,3-6.6,6.6-6.6c3.6,0,6.6,3,6.6,6.6C170.8,65.2,167.8,68.2,164.2,68.2z"/>
</g>
</svg>
