<svg id="Layer_1" data-name="Layer 1" xmlns="http://www.w3.org/2000/svg" viewBox="0 0 532 266"><title>SVG-</title><path d="M112,133.91c.55-.36.56-1,.73-1.5,1.19-3.53,2.38-7.06,3.49-10.61.23-.72.53-.72,1.11-.55s.65.54.46,1.1c-1.75,5.24-3.39,10.52-5.25,15.73a4.64,4.64,0,0,0,1.33,5.27,10.23,10.23,0,0,0,7.15,2.86c.81,0,1,.38,1,1,0,.87-.63.68-1.09.64-3.81-.33-7.22-1.47-9.45-4.89-.22-.33-.4-.68-.81-.13-2.54,3.43-6.16,4.74-10.23,5a17.25,17.25,0,0,1-9-1.46c-3.64-1.81-5.83-4.53-5.54-8.84.11-1.57,0-3.15,0-4.72,0-.93,0-1.85,0-2.77a7.78,7.78,0,0,1,3.52-6.9,12.58,12.58,0,0,1,5.62-2.37c4-.6,8-.59,11.78,1.41,2.37,1.27,4.32,3,4.86,5.76a30.82,30.82,0,0,1,.11,4.71C111.83,133.09,111.69,133.51,112,133.91Zm-1.71.38h-.07c0-1.54,0-3.08,0-4.62A5.88,5.88,0,0,0,108,125c-4-3.71-12.61-3.55-16.49-1.24-2.62,1.56-4.18,3.58-4,6.81a72,72,0,0,1,0,7.49A6.57,6.57,0,0,0,91,144.27c3.08,2,6.49,2.15,10,1.9a11.91,11.91,0,0,0,6.22-2.15c1.7-1.21,3-2.7,3.08-4.92C110.32,137.5,110.28,135.89,110.28,134.29Z"/><path d="M98.65,149.9a17.6,17.6,0,0,1-8.07-1.73c-4.72-2.34-7-5.95-6.63-10.73.07-1,0-2,0-3.06l0-1.52V132c0-.61,0-1.21,0-1.81a9.75,9.75,0,0,1,4.33-8.55,14.73,14.73,0,0,1,6.48-2.72c3.64-.54,8.41-.83,13,1.63a11.16,11.16,0,0,1,5.18,5c.47-1.45.94-2.89,1.39-4.34a2.64,2.64,0,0,1,3.56-1.83,2.73,2.73,0,0,1,1.67,1.33,2.86,2.86,0,0,1,.06,2.26L118,128.1c-1.16,3.55-2.32,7.11-3.58,10.64-.45,1.26-.22,2.11.88,3.23a8.26,8.26,0,0,0,5.84,2.29,2.81,2.81,0,0,1,2.89,2.92,2.59,2.59,0,0,1-.79,2.07,2.71,2.71,0,0,1-2.31.6c-3-.26-7-1-9.91-4.31-2.54,2.59-6,4-10.39,4.29C99.92,149.88,99.27,149.9,98.65,149.9Zm.28-25.81a13.4,13.4,0,0,0-6.38,1.37c-2.29,1.36-3.17,2.82-3,5a70.15,70.15,0,0,1,0,7.7A4.62,4.62,0,0,0,92,142.62c2.73,1.75,5.83,1.81,8.79,1.6a9.85,9.85,0,0,0,5.22-1.79c1.54-1.1,2.22-2.11,2.26-3.39,0-.93,0-1.87,0-2.8h-.09v-3.37c0-1.09,0-2.17,0-3.25a4,4,0,0,0-1.55-3.17C104.91,124.78,101.85,124.09,98.93,124.09Z"/><path d="M152.76,144.42c0-4.72.11-9.44,0-14.16-.1-3.44,1.44-5.75,4.18-7.57,4.67-3.1,14.47-3.09,18.94,1a7.28,7.28,0,0,1,2.7,5.72c-.06,3.07-.09,6.16,0,9.23a7.31,7.31,0,0,1-3.08,6.26,13.85,13.85,0,0,1-7.87,2.9,17.46,17.46,0,0,1-10-1.77,11.77,11.77,0,0,1-2.4-1.74c-.16-.15-.27-.47-.55-.36s-.17.41-.18.63c0,1.27,0,2.53,0,3.8,0,3.8,0,7.59,0,11.39,0,.58,0,1-.83,1s-.85-.41-.85-1Q152.76,152.11,152.76,144.42ZM177,134.19c0-1.47,0-2.94,0-4.41a5.84,5.84,0,0,0-2.29-4.82,12.76,12.76,0,0,0-7.77-2.8c-3.23-.15-6.36.16-9.17,2-2.19,1.39-3.52,3.2-3.38,6,.15,3,.06,6,0,9a5,5,0,0,0,1.34,3.45,9.84,9.84,0,0,0,2.47,2c3,1.73,6.18,1.83,9.46,1.62a12.21,12.21,0,0,0,6.14-2.07,6.35,6.35,0,0,0,3.19-5.92C176.93,136.86,177,135.53,177,134.19Z"/><path d="M153.61,162.79h0a2.64,2.64,0,0,1-2.79-3l0-19.67c0-3.28.05-6.56,0-9.83-.12-3.89,1.53-6.92,5-9.26,5.23-3.48,16.12-3.6,21.35,1.24a9.24,9.24,0,0,1,3.33,7.2c-.06,3-.09,6.09,0,9.13a9.3,9.3,0,0,1-3.81,7.85,15.89,15.89,0,0,1-8.95,3.32c-2.86.2-7.13.22-11.13-2l-.23-.13V159.8a2.92,2.92,0,0,1-.75,2.23A2.75,2.75,0,0,1,153.61,162.79Zm12-38.71a11.89,11.89,0,0,0-6.77,1.68c-1.85,1.18-2.57,2.41-2.48,4.25.12,2.47.09,4.94,0,7.42l0,1.73a3,3,0,0,0,.85,2.14,7.85,7.85,0,0,0,2,1.57c2.57,1.51,5.53,1.54,8.34,1.36a10.27,10.27,0,0,0,5.18-1.74,4.43,4.43,0,0,0,2.33-4.18c-.06-1-.05-1.93,0-2.89v-2.61c0-1,0-2.05,0-3.07a3.85,3.85,0,0,0-1.57-3.27,10.85,10.85,0,0,0-6.62-2.36Z"/><path d="M434.64,134.93c-3.38,0-6.77,0-10.16,0-1,0-1.41.18-1.26,1.22a6.53,6.53,0,0,1,0,1.53c-.37,4.23,2,6.1,5.07,7.55a13.8,13.8,0,0,0,5.82,1c2.87,0,5.75,0,8.62,0,.59,0,1.09,0,1.07.82s-.47.79-1,.78c-3.86-.09-7.74.23-11.59-.17a12,12,0,0,1-7.45-3.55,6.82,6.82,0,0,1-2.14-4.84c0-3.43,0-6.85,0-10.27a7.11,7.11,0,0,1,2.81-5.48,12.79,12.79,0,0,1,7.4-3c3.31-.26,6.56-.09,9.57,1.57a11.16,11.16,0,0,1,2.84,2.17,6,6,0,0,1,1.87,4.5c-.08,1.67-.07,3.36,0,5,0,.88-.17,1.16-1.11,1.14C441.56,134.89,438.1,134.93,434.64,134.93Zm-.74-1.57c3.19,0,6.37,0,9.55,0,.9,0,1.33-.18,1.23-1.18a23.77,23.77,0,0,1,0-2.67,5.79,5.79,0,0,0-1.75-4.23c-3.65-3.93-11.68-4-15.64-1.74-2.73,1.55-4.39,3.65-4.06,7a9.77,9.77,0,0,1,0,2c-.06.74.23.92.93.91C427.4,133.34,430.65,133.36,433.9,133.36Z"/><path d="M435.93,149.82a48.21,48.21,0,0,1-4.93-.22,13.86,13.86,0,0,1-8.64-4.11,8.7,8.7,0,0,1-2.7-6.21c0-3.43,0-6.87,0-10.3a9,9,0,0,1,3.51-6.95,14.7,14.7,0,0,1,8.51-3.44c3-.23,6.95-.24,10.66,1.82a12.71,12.71,0,0,1,3.34,2.54,7.91,7.91,0,0,1,2.38,5.93c-.08,1.61-.06,3.23,0,4.85a3.05,3.05,0,0,1-.75,2.36,3.21,3.21,0,0,1-2.34.82c-2.51,0-5,0-7.49,0h-5.61c-2.23,0-4.44,0-6.66,0a9.05,9.05,0,0,1-.05,1c-.23,2.69.77,4.1,4,5.6a11.72,11.72,0,0,0,5,.83c2.32,0,4.63,0,6.95,0h1.64a2.92,2.92,0,0,1,2.3.77,2.72,2.72,0,0,1,.73,2,2.67,2.67,0,0,1-.8,2,3,3,0,0,1-2.21.71c-1.39,0-2.76,0-4.14,0C437.72,149.8,436.84,149.82,435.93,149.82ZM439,131.39l3.64,0c0-.48,0-.95,0-1.42l0-.51a3.89,3.89,0,0,0-1.23-2.86c-2.85-3.08-9.79-3.33-13.25-1.36-2.37,1.34-3.29,2.86-3.07,5.06a9.76,9.76,0,0,1,.05,1.08c2.07,0,4.09,0,6.12,0H439Z"/><path d="M253.76,143.85a11.49,11.49,0,0,1-4.13,2.79c-5.89,2-11.62,2.05-16.87-1.81a7.17,7.17,0,0,1-3-6.2c.05-2.77.11-5.55,0-8.32-.15-3.37,1.37-5.7,4.06-7.54,4.67-3.2,14.46-3.12,18.88.81a8,8,0,0,1,3,6.34c-.06,5.55,0,11.09,0,16.63,0,.56.1,1.07-.79,1.07s-.85-.41-.84-1c0-.88,0-1.76,0-2.63Zm-22.34-9.68c0,1.41.07,2.81,0,4.21a5.79,5.79,0,0,0,3.13,5.69,15.5,15.5,0,0,0,16.26.07,6.13,6.13,0,0,0,3.25-5.87c-.08-2.8,0-5.6,0-8.41a6,6,0,0,0-2.38-5,12.63,12.63,0,0,0-7.58-2.71c-3.19-.14-6.28.1-9.09,1.83-2.3,1.42-3.81,3.26-3.58,6.18C231.5,131.5,231.42,132.84,231.42,134.17Z"/><path d="M242.25,150a17.47,17.47,0,0,1-10.64-3.56,9.09,9.09,0,0,1-3.81-7.81V138c0-2.52.09-5.05,0-7.56-.16-3.84,1.45-6.87,4.91-9.24,5.14-3.52,16-3.77,21.29,1a9.91,9.91,0,0,1,3.63,7.82c-.05,4,0,8.08,0,12.11v4.5a2.93,2.93,0,0,1-.71,2.25,3.11,3.11,0,0,1-4.11,0,2.45,2.45,0,0,1-.63-1.18,10,10,0,0,1-1.87.88A24.62,24.62,0,0,1,242.25,150Zm.34-25.87a12.34,12.34,0,0,0-6.59,1.57c-2,1.26-2.8,2.52-2.66,4.36a26.37,26.37,0,0,1,0,2.95v2.49c0,1,0,2,0,3a3.84,3.84,0,0,0,2.16,3.87,13.65,13.65,0,0,0,14.32.05,4.18,4.18,0,0,0,2.26-4.1c-.09-2.83-.05-5.66,0-8.5a4,4,0,0,0-1.66-3.42,10.68,10.68,0,0,0-6.44-2.29C243.53,124.1,243.07,124.09,242.59,124.09Z"/><path d="M193.56,124.73a16.2,16.2,0,0,1,18.49-2.51,8.84,8.84,0,0,1,4.89,8.09c0,5.21,0,10.41,0,15.61,0,.54.22,1.15-.78,1.16s-.85-.61-.86-1.2c0-5-.09-10.07,0-15.09a7.73,7.73,0,0,0-5.3-7.72,15.78,15.78,0,0,0-12.37.46,7.11,7.11,0,0,0-4.26,6.91c0,5.2,0,10.41,0,15.61,0,.56.09,1.06-.78,1.08s-.89-.45-.89-1.09q0-18.58,0-37.17c0-.53-.15-1.09.77-1.06.73,0,.91.24.9.94,0,4.79,0,9.58,0,14.37A3.8,3.8,0,0,0,193.56,124.73Z"/><path d="M192.6,149.08a2.78,2.78,0,0,1-2-.75,3,3,0,0,1-.77-2.29V108.87a2.86,2.86,0,0,1,.71-2.27,2.81,2.81,0,0,1,2.07-.74,2.63,2.63,0,0,1,2.8,2.9q0,6.09,0,12.17a18.07,18.07,0,0,1,17.61-.42,10.76,10.76,0,0,1,5.91,9.79c0,4.35,0,8.68,0,13v2.59a2.91,2.91,0,0,1-.64,2.29,2.78,2.78,0,0,1-2.08.82,2.84,2.84,0,0,1-2.14-.79,2.74,2.74,0,0,1-.69-2.2l0-4.54c0-3.59,0-7.18,0-10.76a5.78,5.78,0,0,0-4-5.82,13.74,13.74,0,0,0-10.9.37,5.15,5.15,0,0,0-3.15,5.13c0,3.38,0,6.75,0,10.12V146a3,3,0,0,1-.71,2.26,2.73,2.73,0,0,1-2,.78Zm24.53-3.17-1.84.49,2,0A1.21,1.21,0,0,0,217.13,145.91Z"/><path d="M332.43,134.12v4.62a7.5,7.5,0,0,1-2.92,6.07,13.47,13.47,0,0,1-8.43,3,15.74,15.74,0,0,1-8.62-1.74c-3.14-1.79-4.92-4.31-4.78-8.07.1-2.77,0-5.54,0-8.32a7.69,7.69,0,0,1,3.12-6.38,12.81,12.81,0,0,1,7.26-2.78c3.31-.24,6.56-.06,9.55,1.65,3.18,1.8,5,4.34,4.82,8.15C332.37,131.59,332.43,132.86,332.43,134.12Zm-1.62,0V129.5a5.94,5.94,0,0,0-1.71-4.15c-3.71-4.09-12.22-4.1-16.15-1.53-2.05,1.34-3.61,3-3.62,5.57q0,4.77,0,9.54a5.45,5.45,0,0,0,1.66,4,10.74,10.74,0,0,0,6.62,3.16c3.57.4,7,.2,10.12-2a6.39,6.39,0,0,0,3.09-5.77C330.75,136.93,330.81,135.52,330.81,134.12Z"/><path d="M320,149.79a16.87,16.87,0,0,1-8.55-2c-4-2.28-5.91-5.59-5.76-9.84.09-2.19.06-4.37,0-6.56l0-1.67a9.59,9.59,0,0,1,3.86-7.93,14.76,14.76,0,0,1,8.33-3.2c3-.22,7-.19,10.66,1.9,4.09,2.33,6,5.68,5.8,10,0,.83,0,1.65,0,2.48v5.83a9.44,9.44,0,0,1-3.62,7.57,15.43,15.43,0,0,1-9.61,3.46ZM320,124a11.29,11.29,0,0,0-6,1.46c-2,1.28-2.73,2.39-2.74,3.94,0,3.17,0,6.35,0,9.52a3.47,3.47,0,0,0,1.08,2.59,8.84,8.84,0,0,0,5.45,2.6c3.92.43,6.55-.05,8.78-1.62a4.47,4.47,0,0,0,2.27-4.08c-.05-1,0-2,0-3v-5.9a4,4,0,0,0-1.19-2.84C326,124.85,322.94,124,320,124Z"/><path d="M384.19,134.14c0-1.58,0-3.15,0-4.73A7.36,7.36,0,0,1,387,123.6a12.88,12.88,0,0,1,7.57-3.07c3.5-.26,6.91,0,10,1.88a8.42,8.42,0,0,1,4.31,5.83c.16,1-.16,1.26-1.1,1.07a.48.48,0,0,1-.46-.45c-.57-3.58-3.15-5.3-6.26-6.17-4-1.13-8.05-1-11.77,1.27a6.65,6.65,0,0,0-3.48,6.29c.11,2.8,0,5.61,0,8.41a5.82,5.82,0,0,0,1.79,4.33,10.4,10.4,0,0,0,5.65,2.92c3.72.59,7.37.52,10.68-1.62a6.35,6.35,0,0,0,3.3-4.58c.1-.85.61-.76,1.16-.74.76,0,.53.6.47,1a7.6,7.6,0,0,1-3,5,12.84,12.84,0,0,1-7.25,2.82c-3.31.24-6.55.07-9.55-1.61-3.22-1.81-5.12-4.35-4.87-8.21C384.26,136.67,384.19,135.4,384.19,134.14Z"/><path d="M396.38,149.79a16.65,16.65,0,0,1-8.29-1.95c-4.17-2.34-6.14-5.71-5.86-10,0-.82,0-1.64,0-2.47v-5.92a9.25,9.25,0,0,1,3.44-7.31,14.78,14.78,0,0,1,8.69-3.53c3.18-.24,7.33-.21,11.18,2.17a10.25,10.25,0,0,1,5.21,7.16,2.68,2.68,0,0,1-3.41,3.32,2.42,2.42,0,0,1-2-2.07c-.38-2.33-1.87-3.75-4.85-4.59-3.95-1.1-7.29-.75-10.22,1.05a4.71,4.71,0,0,0-2.55,4.55c.07,2.07,0,4.14,0,6.21v2.29a3.78,3.78,0,0,0,1.2,2.92,8.4,8.4,0,0,0,4.59,2.39c4,.64,6.89.23,9.31-1.33,1.55-1,2.27-2,2.42-3.17a2.62,2.62,0,0,1,3.09-2.46,2.51,2.51,0,0,1,2,.91,2.63,2.63,0,0,1,.43,2.22,9.62,9.62,0,0,1-3.71,6.31,14.77,14.77,0,0,1-8.32,3.23C398,149.75,397.21,149.79,396.38,149.79Zm12.82-21.26v0Z"/><path d="M345.72,138.48c0-2.29.1-4.59,0-6.87a10.88,10.88,0,0,1,8.37-11.1c4.31-1.06,8.52-.85,12.32,1.65a10.15,10.15,0,0,1,4.7,8.76c.08,5.2,0,10.4,0,15.6,0,.53.16,1.09-.76,1.1s-.86-.51-.86-1.12c0-4.89-.09-9.78,0-14.67A9.48,9.48,0,0,0,362,122a14.58,14.58,0,0,0-8.67.5,8.92,8.92,0,0,0-6,8.7c0,5.13,0,10.26,0,15.4,0,.4.18.93-.54,1s-1.07,0-1.06-.9C345.75,144,345.72,141.22,345.72,138.48Z"/><path d="M370.32,149.57a2.73,2.73,0,0,1-2-.76,2.85,2.85,0,0,1-.75-2.22l0-4.69c0-3.38,0-6.75.05-10.13a7.5,7.5,0,0,0-6.05-7.87,12.51,12.51,0,0,0-7.54.42,7,7,0,0,0-4.72,6.88v15.39a2.51,2.51,0,0,1-2.3,2.95,2.94,2.94,0,0,1-2.36-.67,2.76,2.76,0,0,1-.84-2.21c0-2,0-3.94,0-5.91V136.3c0-1.53.05-3.07,0-4.6a12.88,12.88,0,0,1,9.85-13.09c5.29-1.29,10-.66,13.86,1.91a12.11,12.11,0,0,1,5.59,10.37c.05,3.73,0,7.46,0,11.18v4.45a2.85,2.85,0,0,1-.67,2.25,2.7,2.7,0,0,1-2,.8Zm-1.06-3a1,1,0,0,0-.1.41l1.95-.41Z"/><path d="M269.26,138.28c0-2.25.09-4.52,0-6.77a10.86,10.86,0,0,1,8.34-11c4.29-1,8.44-.84,12.24,1.58a10.08,10.08,0,0,1,4.8,8.61c.15,5.3,0,10.61,0,15.91,0,.53.06,1-.76,1s-.89-.32-.89-1c0-5,0-9.92,0-14.88s-2.46-8.37-7.32-9.69a13.51,13.51,0,0,0-9.89.88,8.7,8.7,0,0,0-5,8.22c-.05,5.13,0,10.26,0,15.39,0,.4.2.95-.5,1s-1.07,0-1.06-.89C269.29,143.9,269.26,141.09,269.26,138.28Z"/><path d="M293.9,149.57a2.83,2.83,0,0,1-2.07-.76,3,3,0,0,1-.77-2.18c0-3.73,0-7.45,0-11.16v-3.72c0-4.17-1.93-6.72-5.88-7.8a11.59,11.59,0,0,0-8.5.73,6.75,6.75,0,0,0-3.92,6.5c0,3.21,0,6.43,0,9.65v5.72a2.51,2.51,0,0,1-2.2,3,3,3,0,0,1-2.39-.61,2.8,2.8,0,0,1-.87-2.26c0-2,0-4,0-6v-2.38l0-2.14c0-1.51.05-3,0-4.53a12.78,12.78,0,0,1,9.83-13c5.3-1.29,9.8-.68,13.75,1.83a12,12,0,0,1,5.7,10.21c.11,3.67.08,7.36.06,11l0,4.92a3.07,3.07,0,0,1-.35,1.7,2.54,2.54,0,0,1-2.34,1.26Z"/><path d="M131,123.6c0-5,0-9.91,0-14.87,0-.58,0-.93.8-.92s.89.23.89.93c0,9.44.1,18.88-.07,28.31a8.6,8.6,0,0,0,6.08,8.4,12.29,12.29,0,0,0,4.12.69c.69,0,1,.21,1,.94s-.49.77-1,.74c-3.9-.23-7.4-1.33-9.92-4.55a8.44,8.44,0,0,1-1.86-5.41C131.06,133.11,131,128.35,131,123.6Z"/><path d="M143.13,149.78h-.39c-5.2-.31-8.8-2-11.39-5.29a10.42,10.42,0,0,1-2.27-6.63c0-3.35,0-6.7,0-10V108.73a2.8,2.8,0,0,1,.74-2.14,2.54,2.54,0,0,1,2-.73,2.64,2.64,0,0,1,2.82,2.88c0,3.15,0,6.29,0,9.43,0,6.31,0,12.62-.08,18.92a6.73,6.73,0,0,0,4.76,6.51,12,12,0,0,0,3.47.58A2.9,2.9,0,0,1,145,145a2.86,2.86,0,0,1,.8,2.12,2.72,2.72,0,0,1-.8,2A2.61,2.61,0,0,1,143.13,149.78Z"/><path d="M320.08,109a2.94,2.94,0,1,1-2.92,2.89A2.81,2.81,0,0,1,320.08,109Z"/><path d="M320,116.79H320a4.89,4.89,0,0,1,.1-9.78h0a4.75,4.75,0,0,1,4.84,4.88,4.78,4.78,0,0,1-4.89,4.9Zm0-5.87a.85.85,0,0,0-.95.94.92.92,0,0,0,.9,1,1.2,1.2,0,0,0,.74-.25,1.08,1.08,0,0,0,.26-.76.86.86,0,0,0-.95-1Z"/></svg>