<?xml version="1.0" encoding="utf-8"?>
<!-- Generator: Adobe Illustrator 22.0.1, SVG Export Plug-In . SVG Version: 6.00 Build 0)  -->
<svg version="1.1" id="Layer_1" xmlns="http://www.w3.org/2000/svg" xmlns:xlink="http://www.w3.org/1999/xlink" x="0px" y="0px"
	 viewBox="0 0 256.3 62.2" style="enable-background:new 0 0 256.3 62.2;" xml:space="preserve">
<style type="text/css">
	.st0{fill:#231F20;}
</style>
<g>
	<path class="st0" d="M108.5,61.5l-1.6-7.9H95.1l-1.6,7.9H82.9L96,10.6h10L119,61.5H108.5z M101,25.5L97,44.4h7.9L101,25.5z"/>
	<polygon class="st0" points="142.5,61.5 131.9,61.5 120.6,10.6 131.7,10.6 137.2,46.5 142.8,10.6 153.9,10.6 	"/>
	<rect x="161.7" y="10.6" class="st0" width="10.1" height="50.8"/>
	<g>
		<path class="st0" d="M204.5,61.5l-6.2-19.8h-3.4v19.8h-10.1V10.6h14.5c11.1,0,14.1,5.8,14.1,15.5c0,5.4-0.9,10.3-5.8,13.3l7.4,22
			H204.5z M199.2,19.8h-4.3v12.8h4.3c3.9,0,4.1-3.5,4.1-6.4C203.3,23.2,203,19.8,199.2,19.8"/>
		<path class="st0" d="M245.7,61.5l-1.6-7.9h-11.7l-1.6,7.9h-10.6l13.1-50.8h10l13.1,50.8H245.7z M238.2,25.5l-3.9,18.8h7.9
			L238.2,25.5z"/>
		<path class="st0" d="M64.3,45.3c1.7,1.8,1.6,4.6-0.2,6.3c-1.8,1.7-4.6,1.6-6.3-0.2c-0.2-0.2-0.4-0.4-0.6-0.6
			c0,0-22.6-23.8-22.8-24l-6.5,6.1l23.7,25c2.5,2.4,6,3.7,9.6,3.6c3.4-0.1,6.3-1.5,8.5-3.6c2.7-2.5,4.3-6.1,4.3-9.7
			c0-3.8-1.5-6.7-3.3-8.7l-0.2-0.2L64.3,45.3z"/>
		<path class="st0" d="M63.5,10.6C48.9-3.1,26-3.7,11.8,10.1C-2.5,23.9-4.3,46.3,9.2,62.2L63.5,10.6z M12.1,47.7
			C-0.3,25.8,25.6-0.5,48.9,12.8L12.1,47.7z"/>
		<g>
			<g>
				<g>
					<defs>
						<polygon id="SVGID_1_" points="33.7,38.9 43.6,49.3 49.6,42.7 40.2,32.8 						"/>
					</defs>
					<use xlink:href="#SVGID_1_"  style="overflow:visible;fill:#231F20;"/>
					<clipPath id="SVGID_2_">
						<use xlink:href="#SVGID_1_"  style="overflow:visible;"/>
					</clipPath>
				</g>
			</g>
		</g>
	</g>
</g>
</svg>
