<svg id="Layer_1" data-name="Layer 1" xmlns="http://www.w3.org/2000/svg" viewBox="0 0 532 266"><title>SVG-</title><path d="M135.14,94c3.22,2,7.13,2.09,10.5,3.84,11,5.77,14.18,19,6.35,27.83-3.89,4.36-9,6.46-14.68,7.3-.62.09-1.23.17-1.84.28-.08,0-.14.17-.23.29.15,1.39,1.31.85,2,.94a37.24,37.24,0,0,1,14.79,4.62c11.6,7,12.21,22.33,1.16,30.17-7,5-15.22,6.1-23.56,6.15-15.38.09-30.75,0-46.12,0-1.39,0-2.77.17-4.15.26v-3.06c2.41-2,4.78-4.1,7.27-6,1.19-.93,1.24-2,1.24-3.34q0-28.51,0-57c0-1.12.22-2.28-.89-3.13-2.58-2-4.63-4.59-7.6-6.07V94.8c15.22,0,30.45,0,45.68,0,1.33,0,2.83.51,4-.74Zm-23.42,60.2c0,5.35,0,10.69,0,16,0,1-.49,2.2,1.28,2.64,8.1,2,16.77-1.87,20.32-9.2,7.25-14.93-.94-28.24-17.36-28.23a9.76,9.76,0,0,1-1.53,0c-2.16-.3-2.84.56-2.78,2.76C111.83,143.56,111.72,148.9,111.72,154.24Zm0-39.58v16c0,1.12-.26,2.32,1.57,2.36,4.37.1,8.61-.07,12.33-2.87,6.5-4.87,9.23-15.06,6.2-23.48-2.64-7.32-8.27-10.52-17.58-10.23-2,.06-2.61.58-2.56,2.59C111.81,104.25,111.72,109.46,111.72,114.66Z"/><path d="M181,177.27c-.53-1.14-1.76-.88-2.64-1.2-8-2.87-12.11-8.61-12-17,.09-8.09,4.32-13.55,12.47-16.19,6.95-2.24,14.11-1.55,21.2-1.51,2.62,0,3.5-.6,3.37-3.32-.23-4.95-.07-9.92-.06-14.88a8.88,8.88,0,0,0-1.16-5.12c-1.84-2.84-3.41-3.06-6-.85L175.24,135c-1.26,1.07-2.51,2.58-4.29,1.72-1.54-.74-.62-2.5-.66-3.76-.11-4.58,0-9.15,0-13.73,0-1.18-.05-2.12,1.48-2.58,12.31-3.64,24.7-6.14,37.53-3,11,2.67,16.44,9.3,16.65,20.6.16,9.16,0,18.31.07,27.47,0,2.91.56,5.65,3.92,6.61,2.16.61,3.65-1.29,5.62-1.85-1.15,5.2-3.27,7.11-11.79,10.79h-8.4c-5.81-2.43-10.22-6.22-12-12.86-1.61,7.52-7,10.67-13.23,12.86Zm22.47-25.22h-.14a39.47,39.47,0,0,1,0-5.33c.48-3.45-1.28-3.38-3.74-2.72-7,1.89-10.05,8.22-8,16.82.71,2.94,2.18,5.35,5.47,5.44,3.51.1,5.27-2.36,5.78-5.48A87,87,0,0,0,203.43,152.05Z"/><path d="M268.77,94c-.09,6.34-.24,12.69-.25,19,0,15.89.1,31.78-.1,47.67-.05,3.52.88,5.89,3.65,8.08,1.94,1.54,5.75,2.88,4.72,5.67-.88,2.37-4.53.89-6.91.93-9.91.15-19.83.09-29.74,0-1.11,0-2.72.83-3.25-1-.37-1.31.55-2.24,1.55-2.8,6.43-3.61,7.21-9.28,7-16.07-.42-16-.2-32-.07-48a7.33,7.33,0,0,0-2.79-6.16c-2.34-2.06-6-3.3-5.91-7.34Z"/><path d="M357.38,94.8c.07,12.45.16,24.89.2,37.34,0,9.27.24,18.56-.1,27.82-.15,4.1,1,6.9,4.25,9.34,1.78,1.34,5.17,2.57,4.14,5.23-.9,2.33-4.1.86-6.23.89-10.16.15-20.33.08-30.5,0-1,0-2.46.7-3-.72s.36-2.47,1.5-3.13c6.12-3.56,7.24-8.88,7-15.65-.51-16-.25-32-.08-48a8.35,8.35,0,0,0-3.1-6.78c-2.14-2-6-3-5.41-7.1h1.53c1.12,1.24,2.61.74,3.94.74C340.13,94.83,348.76,94.8,357.38,94.8Z"/><path d="M435.24,177.27c-.05-.11-.08-.31-.15-.34-12.09-3.66-15.82-12.49-15.49-24.25.31-10.77,0-21.56.14-32.34.05-3-.67-4.26-3.71-3.71-.5.08-1,0-1.52,0-1,.08-1.82-.13-1.79-1.34s1-1.47,1.9-1.24c4.46,1.11,7.06-1.7,9.7-4.49,5.05-5.3,11-9.73,15.5-15.54h3.05c0,5.85.08,11.7-.07,17.54-.05,2.06.61,2.58,2.57,2.51,4.07-.15,8.14-.08,12.21,0,1,0,2.59-.58,2.66,1.21s-1.49,1.34-2.53,1.35c-4.19,0-8.39.05-12.58,0-1.47,0-2.33.11-2.32,2,.09,13.1,0,26.19.16,39.28,0,3.52,1.71,6.47,5.57,7.23s6.43-.95,8.12-4.23a24.4,24.4,0,0,0,1.65-4.23c.59-2,1.7-1.38,2.89-.75v.77c-2.15,9.68-6.67,17.43-16.8,20.61Z"/><path d="M129,94c-1.12,1.25-2.62.74-4,.74-15.23,0-30.46,0-45.68,0,.68-1.58,2.06-.71,3-.71C98,94,113.5,94,129,94Z"/><path d="M357.38,94.8c-8.62,0-17.25,0-25.87,0-1.33,0-2.82.5-3.94-.74h29.78Z"/><path d="M392,175.49c-5.84,0-11.7-.17-17.53.07-3,.12-3.6-1.48-2.57-3.39,2.92-5.45.52-9.47-2.71-13.64-2.72-3.51-4.87-7.44-7.59-10.94-1.69-2.19-1.18-3.22.8-4.77,6.7-5.24,13.14-10.83,19.88-16,2.68-2.06,3.83-4.22,3.63-7.62-.3-5.14-.08-5.15,5.2-5.15,4.71,0,9.41,0,14.11,0,.89,0,2.16-.5,2.43,1,.22,1.3-.63,1.76-1.65,2.17-2.24.89-4.4,2-6.68,2.74-7.06,2.28-12.73,6.68-18.26,11.39-1.45,1.24-1.35,1.89-.31,3.3,6.57,9,13,18.19,19.57,27.2,2.8,3.81,6.94,6.29,10.38,9.48.93.86,2.15,1.6,1.7,3.11-.54,1.81-2.14.93-3.24.95C403.48,175.54,397.76,175.49,392,175.49Z"/><path d="M303.06,175.49c-6,0-12-.12-17.94.06-2.68.08-3.42-1.3-2.4-3.17,3-5.52.75-9.67-2.65-14-2.84-3.57-5.09-7.6-7.81-11.27-1.26-1.69-1.19-2.53.51-3.87,6.9-5.43,13.56-11.14,20.49-16.52,2.63-2,3.87-4.17,3.65-7.6-.32-5.11-.08-5.12,5.22-5.12,4.58,0,9.16,0,13.74,0,1,0,2.43-.69,2.66,1.19.2,1.62-1.12,1.82-2.1,2.25a59.88,59.88,0,0,1-6.35,2.58c-7,2.19-12.5,6.6-17.94,11.22-1.31,1.12-1.64,1.81-.52,3.34,6.73,9.24,13.14,18.73,20.12,27.78,2.66,3.46,6.54,6,9.86,8.94.93.83,2.25,1.57,1.86,3.07-.48,1.82-2.11,1-3.23,1C314.51,175.53,308.79,175.49,303.06,175.49Z"/></svg>