<svg id="Layer_1" data-name="Layer 1" xmlns="http://www.w3.org/2000/svg" viewBox="0 0 532 266"><title>SVG-</title><path d="M515.33,178c-11.48,0-23,0-34.44-.1-1.82,0-4.24.84-5.29-.4-.9-1.06-.32-3.4-.32-5.17,0-15.25,0-30.49,0-45.73,0-1.67.46-2.08,2.09-2.07,11.88.07,23.76,0,35.64,0,.79,0,1.58-.05,2.37-.08v10.71c-9.05,0-18.1,0-27.15-.11-1.21,0-1.42.51-1.39,1.55,0,2.44.12,4.89,0,7.33-.09,1.63.5,2,2,1.94,7.07-.08,14.14,0,21.21-.07,1.42,0,2,.29,1.92,1.84a49.22,49.22,0,0,0,0,6.54c.12,1.69-.49,2.08-2.1,2.06-7.07-.09-14.14,0-21.21-.06-1.33,0-1.88.27-1.82,1.72.12,2.64.07,5.29,0,7.93,0,1,.18,1.55,1.39,1.54,9.05-.06,18.1-.07,27.15-.1Z"/><path d="M64.16,100.25c1.37,1.42,2.7,2.88,4.1,4.27q12.6,12.63,25.24,25.21c1.09,1.08,1.18,1.67,0,2.76-3,2.81-5.87,5.72-8.7,8.68-1,1-1.54,1.15-2.62,0C76.67,135.55,71,130,65.45,124.34c-1.14-1.17-1.77-1.2-2.93,0C57,130,51.3,135.53,45.76,141.2c-1.07,1.09-1.62,1-2.62,0-2.82-3-5.72-5.87-8.69-8.69-1.1-1-1.15-1.63,0-2.75,9.53-9.43,19-18.94,28.48-28.42.32-.32.57-.71.86-1.06Z"/><path d="M14.21,149.81c3.2-3.14,6.45-6.23,9.58-9.44,1-1.05,1.61-1.09,2.64,0,3,3.11,6,6.12,9.1,9.12.69.68.85,1.1.06,1.86-3.22,3.13-6.41,6.3-9.52,9.54-.89.91-1.3.56-2-.14-3.26-3.28-6.57-6.5-9.86-9.75Z"/><path d="M167.36,150c1.1.57,2.1,1,3.06,1.58,4.85,2.69,6.91,6.9,6.62,12.33a12.82,12.82,0,0,1-8,11.74,26.87,26.87,0,0,1-11,2.2c-8.19.11-16.38,0-24.57.09-1.17,0-1.61-.3-1.61-1.55q.06-25.15,0-50.32c0-1,.2-1.56,1.4-1.54,9,.21,18.1-.4,27.12.36,6.72.56,11.85,4.58,13.23,10.14a12.75,12.75,0,0,1-5.27,14.23C168,149.44,167.74,149.67,167.36,150Zm-15.65,17.62c2.54-.1,5.52.22,8.47-.32s4.69-1.95,5.12-4.22c.69-3.65-1.14-6.28-5-6.87-5.31-.81-10.68-.21-16-.37-1.12,0-1.07.73-1.07,1.47,0,2.91,0,5.81,0,8.72,0,1.36.55,1.66,1.77,1.62C147.06,167.53,149.18,167.58,151.71,167.58Zm-1.13-32.78c-2.23,0-4.08,0-5.93,0-1,0-1.47.24-1.46,1.31,0,2.9,0,5.8,0,8.7,0,.71,0,1.37,1,1.35,4.48-.11,9,.41,13.42-.42,3.4-.64,4.91-2.48,4.85-5.48,0-2.83-1.68-4.47-5-5.16C155.06,134.59,152.62,134.92,150.58,134.8Z"/><path d="M362.1,144.64a3.88,3.88,0,0,0-.28,2.27c0,9.64-.05,19.29,0,28.93,0,1.67-.47,2.16-2.11,2.07a72.55,72.55,0,0,0-7.52,0c-1.65.09-2.13-.45-2.12-2.1.07-11.16,0-22.33,0-33.49,0-5.28.06-10.57,0-15.85,0-1.6.48-2.06,2-2,2.9.13,6.15-.71,8.61.34s3.71,4.31,5.47,6.61c6,7.86,12,15.76,18,23.63.39.5.64,1.16,1.56,1.45,0-.76.1-1.44.1-2.12,0-9.25.06-18.5,0-27.74,0-1.79.52-2.28,2.24-2.18a65.23,65.23,0,0,0,7.53,0c1.62-.09,2,.49,2,2-.06,13,0,25.89,0,38.84,0,3.63-.06,7.27,0,10.9,0,1.31-.37,1.74-1.68,1.68a53.64,53.64,0,0,0-6.34,0,3.43,3.43,0,0,1-3.26-1.67q-11.48-15.17-23-30.26C362.92,145.54,362.53,145.14,362.1,144.64Z"/><path d="M232.7,144.06c0,10.85,0,21.14,0,31.43,0,1.84-.35,2.58-2.34,2.43a54.33,54.33,0,0,0-7.33,0c-1.63.1-1.94-.51-1.94-2,.05-15.12,0-30.25.05-45.37,0-1.95-.86-4.47.41-5.69s3.68-.06,5.55-.37c3.58-.58,5.7,1,7.79,3.83,6.76,9.28,13.84,18.33,20.81,27.46.26.34.38.85,1,.91a3.62,3.62,0,0,0,.16-1.9c0-9.44.05-18.88,0-28.33,0-1.6.47-2,2-2,2.7.12,5.41.07,8.12,0,1.13,0,1.47.37,1.47,1.49q0,25.15,0,50.32c0,1.19-.33,1.64-1.57,1.6-2.24-.08-4.49-.09-6.73,0a2.82,2.82,0,0,1-2.61-1.34Q245.81,161.1,234,145.68C233.71,145.27,233.37,144.88,232.7,144.06Z"/><path d="M331.15,177.88c-5.83,0-5.82,0-8-5.39-.88-2.13-1.26-4.94-2.85-6.16s-4.58-.35-6.95-.38c-4.49,0-9,.06-13.47,0a2.37,2.37,0,0,0-2.7,1.87c-1,2.85-2.32,5.6-3.38,8.44a2.17,2.17,0,0,1-2.45,1.7c-2.7-.12-5.42-.12-8.12,0-1.76.07-2-.4-1.32-2,4.28-9.93,8.49-19.89,12.73-29.84,2.87-6.73,5.77-13.45,8.57-20.21a2.34,2.34,0,0,1,2.62-1.77c2.43.13,4.88.09,7.32,0a2,2,0,0,1,2.23,1.42q10.71,25.32,21.54,50.59c.59,1.38.42,1.89-1.17,1.78S332.67,177.88,331.15,177.88Zm-22-39.59c-2.32,5.67-4.4,10.78-6.51,15.87-.39.94-.22,1.33.84,1.32,3.75,0,7.5,0,11.26,0,.92,0,1.39-.2,1-1.25C313.6,149.09,311.5,144,309.18,138.29Z"/><path d="M440.69,178.73c-14.66.06-26.21-9.58-28-22.76-2-14.71,5.89-27.69,19.47-31.21,10.06-2.61,19.5-1.14,27.67,5.88,1.13,1,1.16,1.56.13,2.63-1.78,1.85-3.45,3.82-5.07,5.82-.87,1.08-1.42,1.3-2.62.28a18.23,18.23,0,0,0-9.85-4.71c-8.34-.93-14.9,3.45-17.16,11.56A18.12,18.12,0,0,0,426.31,159c4.25,9.27,14.42,10.78,21.62,7.14a23,23,0,0,0,5-3.51c.79-.72,1.35-.72,2.11.09,1.76,1.87,3.55,3.73,5.45,5.47,1,.91.67,1.39-.1,2.19A26.64,26.64,0,0,1,440.69,178.73Z"/><path d="M94.72,169.77c-.3.34-.54.65-.81.92q-14.5,14.51-29,29c-.71.71-1.11.76-1.85,0q-14.48-14.55-29-29c-.73-.72-.75-1.14,0-1.86,3.18-3.08,6.33-6.19,9.4-9.38.89-.93,1.33-.78,2.15.05,5.61,5.69,11.32,11.29,16.91,17,1.14,1.16,1.76,1.2,2.93,0,5.54-5.67,11.22-11.2,16.76-16.87,1.08-1.12,1.61-1,2.59,0,2.92,3.05,6,6,9,9C94.05,169,94.35,169.38,94.72,169.77Z"/><path d="M203.39,151.4c0,8.12,0,16.24,0,24.37,0,1.58-.31,2.23-2,2.14-2.63-.15-5.28-.09-7.92,0-1.24,0-1.73-.27-1.73-1.64q.08-25.06,0-50.13c0-1.15.25-1.66,1.53-1.63,2.84.09,5.68.1,8.52,0,1.38,0,1.63.52,1.62,1.74C203.37,134.62,203.39,143,203.39,151.4Z"/><path d="M64,139a11,11,0,0,1,.93.79c3.23,3.21,6.43,6.46,9.68,9.65.74.72.75,1.19,0,1.92q-4.89,4.77-9.67,9.66c-.72.74-1.2.73-1.92,0q-4.78-4.87-9.66-9.67c-.6-.6-.88-1-.13-1.77,3.35-3.28,6.64-6.61,10-9.93C63.41,139.47,63.68,139.28,64,139Z"/><path d="M102.83,139.27c.37.32.74.59,1.06.91,3.13,3.11,6.23,6.26,9.39,9.34.75.73.7,1.15,0,1.85q-4.8,4.71-9.5,9.51c-.71.72-1.12.75-1.85,0q-4.69-4.81-9.5-9.51c-.69-.67-.84-1.09-.06-1.85,3.22-3.12,6.35-6.32,9.53-9.48A11.69,11.69,0,0,1,102.83,139.27Z"/></svg>