<svg id="Layer_1" data-name="Layer 1" xmlns="http://www.w3.org/2000/svg" viewBox="0 0 532 266"><title>SVG-</title><path d="M184.7,200c1.07.58,1.84,1,2.62,1.42,4.76,2.55,6.78,6.72,6.71,11.92s-2.23,9.71-7.19,11.85a31.88,31.88,0,0,1-10.67,2.61c-7.17.4-14.38.14-21.57.11a5.79,5.79,0,0,1-6.17-6.1c-.05-4.38-.1-8.75,0-13.13.06-2-.44-2.87-2.56-2.65a36.37,36.37,0,0,1-4.67,0c-3.16-.1-5.13-2-5.19-4.91s2-5.09,5.16-5.21c2.28-.08,4.57,0,7.06,0,.06-1,.15-1.8.16-2.59,0-4.15,0-8.3,0-12.46,0-3.9,2.38-6.28,6.21-6.29q10.13,0,20.24,0a18.46,18.46,0,0,1,11.24,3.6,13.15,13.15,0,0,1,1.13,19.6C186.5,198.53,185.7,199.17,184.7,200Zm-16,17.36v-.17c2.59,0,5.19.19,7.75,0,3.45-.31,5.44-2.38,5.53-5.28s-1.59-5-5.08-5.35c-5.14-.45-10.33-.35-15.5-.35-.4,0-1.13,1-1.16,1.63-.14,2.51,0,5-.09,7.54-.05,1.58.62,2.09,2.11,2C164.45,217.34,166.59,217.4,168.74,217.4Zm-1.48-21.46v0h5.34a4.91,4.91,0,0,0,.67,0c3.07-.38,5-1.78,5.59-4a5,5,0,0,0-4.7-6.41c-4.13-.34-8.3-.25-12.45-.18-.5,0-1.38,1-1.42,1.64-.17,2.43,0,4.89-.08,7.34,0,1.22.47,1.74,1.71,1.7C163.7,195.9,165.48,195.94,167.26,195.94Z"/><path d="M216.21,74.8c.86,4.75,2.87,8.13,7.94,8.83.61.08,1,1.3,1.57,2-.78.52-1.62,1.55-2.33,1.47-3.53-.39-6.78-1.8-8.43-5.06a32.15,32.15,0,0,1-2.49-8.16A5.82,5.82,0,0,0,211,70.41c-7.25-7.08-8.27-18.87-2.26-26.33A21.36,21.36,0,0,1,220,37c.88-.24,2.37-.13,2.81.43a3.86,3.86,0,0,1,.28,3c-1,3.88-2.16,7.68-1.43,11.81a5.86,5.86,0,0,0,4.17,5,23.24,23.24,0,0,0,5.62,1.22c2.27.15,3.6,1.35,3.84,3.31.41,3.34.43,6.73.52,10.1a11.3,11.3,0,0,1-.53,2.51c2,.79,3.92,1.49,5.8,2.31,4.82,2.11,7.53,6.11,8.55,11,1.44,6.94,2.46,14,3.43,21,.25,1.84.8,2.39,2.57,2.34,3.63-.11,7.27-.13,10.9,0,1.88.06,2.41-.51,2.68-2.44,1-7,2-14.07,3.46-21,1.35-6.4,5.54-10.54,11.91-12.23,2-.53,2.55-1.27,1.92-3.41A16.05,16.05,0,0,1,287.22,61a3.5,3.5,0,0,1,3.25-2.54,21.82,21.82,0,0,0,4.38-.75c4.78-1.27,6.63-3.9,6-8.85-.35-2.78-1.17-5.5-1.62-8.27-.17-1.07-.33-2.64.26-3.21a3.81,3.81,0,0,1,3.24-.32c6.74,2.35,12.38,6.16,14.16,13.51,1.82,7.52-.24,14.2-5.53,19.92A5.35,5.35,0,0,0,310,73.7c-.21,7-4.2,12.23-10.49,13.35a3.77,3.77,0,0,1-2.42-.53,1.83,1.83,0,0,1-.31-1.76,4.88,4.88,0,0,1,2.3-1.37c4.36-1.14,6.59-3.85,6.58-8.33-2.69.73-5.34,1.5-8,2.14-3.82.91-7.67,1.65-11.48,2.6-4.53,1.13-7.77,3.87-8.71,8.53-1.36,6.74-2.38,13.54-3.51,20.32-.22,1.28.21,2,1.5,2.79a6.74,6.74,0,0,1,3.15,3.7,25.6,25.6,0,0,1,.22,7.87c-.2,2-2.42,2.79-4.29,1.86-2.75-1.38-3.47-1.26-5.46,1-.59.67-.93,1.66-1.63,2.08a4.58,4.58,0,0,1-3.07.85c-1.47-.39-1.5-1.87-1.08-3.17,1.06-3.24,5.8-6.68,9.22-6.74.58,0,1.16,0,1.71,0,.26-2.78,0-3.16-2.41-3.17-7.12,0-14.24,0-21.37,0-2.17,0-2.65,1.09-2.54,3.18,4.62-.49,7.79,1.82,10.27,5.34a7.2,7.2,0,0,1,.81,1.32c.54,1.31.45,2.53-.88,3.3s-2.39.3-3.31-.82a38.3,38.3,0,0,0-2.92-3.32,2.63,2.63,0,0,0-3.62-.22c-2.48,1.61-4.7.76-4.94-2.13a25.89,25.89,0,0,1,.55-7.65,5,5,0,0,1,2.62-3c1.81-.74,2.07-1.8,1.89-3.43-.76-7.14-1.43-14.29-3.9-21.14A10.51,10.51,0,0,0,237,80.1c-4.86-1.3-9.8-2.28-14.69-3.47C220.27,76.14,218.33,75.45,216.21,74.8Zm88.31-32c.18,1.22.3,2.16.46,3.1,1.51,9.11-2,14.88-10,16.4-4.37.84-4.78,1.28-4.58,5.78a13.74,13.74,0,0,0,.79,4.12,2.28,2.28,0,0,0,1.87,1.15,50.47,50.47,0,0,0,8-1.8c6-2,10.11-6,11.61-12.39C314.41,52.07,311.11,45.26,304.52,42.83Zm-86.89-.15c-.66.31-1.07.47-1.44.68-9.46,5.44-8.21,16.32-3.56,22.34,3.49,4.52,8.48,6.25,13.84,7.24,4.55.85,4.85.62,5.4-4,.53-4.48-.38-5.59-4.67-6.6-6.82-1.61-10.07-4.89-10.07-11.54C217.13,48.17,217.44,45.6,217.63,42.68Z"/><path d="M375,205.69q0-12.34,0-24.69c0-2.71.8-5,3.38-6.28a5.83,5.83,0,0,1,8.51,5.47c0,10.76,0,21.51,0,32.27v8.91q0,5.2-3.84,6.57a7.1,7.1,0,0,1-8-2.29c-2.39-2.93-4.66-6-7-9l-16.6-21.8c-.08,1.38-.15,2.13-.15,2.87,0,8.09,0,16.18,0,24.26,0,3.46-2,5.94-5,6.4a5.89,5.89,0,0,1-6.86-6c0-11.43,0-22.85,0-34.28,0-2.22.08-4.45,0-6.68-.15-3,.76-5.46,3.66-6.72a7.84,7.84,0,0,1,8.8,1.92c2.4,2.82,4.59,5.82,6.84,8.76q7.44,9.72,14.85,19.47c.3.39.52.85.79,1.28Z"/><path d="M330.76,201.34c0,15.63-12.4,27.68-28.48,27.68s-28.44-12.11-28.39-27.79,12.44-27.6,29-27.57C318.79,173.68,330.76,185.59,330.76,201.34Zm-28.5-16.51c-9,0-15.75,7-15.76,16.36s7,16.6,15.89,16.62,15.91-7.17,15.83-16.54S311.33,184.82,302.26,184.83Z"/><path d="M245.47,173.82a30.65,30.65,0,0,1,16.69,4.39c3,1.83,4,5.07,2.43,7.83s-4.8,3.44-8,2a58.3,58.3,0,0,0-8.68-3.27,12.41,12.41,0,0,0-5.28.12,4,4,0,0,0-3.63,3.67,3.93,3.93,0,0,0,2.76,4.54c3.57,1.23,7.21,2.24,10.8,3.41a54.34,54.34,0,0,1,5.83,2.17c5.73,2.6,8.92,6.93,8.81,13.41s-2.83,11.62-8.91,14.46c-6.36,3-13,2.84-19.57,1a50.44,50.44,0,0,1-10.69-4.8,5.66,5.66,0,0,1-1.94-8.11,5.88,5.88,0,0,1,8.3-1.21c4.85,3.41,10.09,5.46,16.06,4.28a7.21,7.21,0,0,0,4.13-2.6c1.58-2.17.36-5-2.69-6.14-3.59-1.38-7.34-2.31-11-3.5a58.16,58.16,0,0,1-5.62-2.08c-5.13-2.26-8-6.08-8.33-11.83-.33-6.21,1.67-11.22,7-14.67A20.17,20.17,0,0,1,245.47,173.82Z"/><path d="M221.72,117a18.63,18.63,0,0,1,2.13-2.73,3.32,3.32,0,0,1,2.23-1c.53.08,1.21,1.07,1.35,1.75.61,3,1.06,6.14,1.54,9.21,1.79,11.31,7.77,20.16,16.29,27.85a37.78,37.78,0,0,1,2-4c.5-.79,1.37-1.87,2.07-1.87s1.56,1.06,2.18,1.8c2.76,3.27,5.44,6.59,8.17,9.87,1.08,1.3,2.22,1,3.15-.11,2.73-3.28,5.38-6.64,8.11-9.92.57-.69,1.45-1.73,2.05-1.65a3.87,3.87,0,0,1,2.15,1.84,35.61,35.61,0,0,1,2,4.14c7.5-7.28,13.73-14.89,15.62-25.19.66-3.57,1.21-7.16,2-10.7a13.87,13.87,0,0,1,1.58-3.15c1,.64,2,1.25,2.92,2a14.09,14.09,0,0,1,1.55,1.82c.49-2.08.9-3.67,1.22-5.27,1.22-6.29.48-12.26-3-17.77-.72-1.17-1.36-2.35.12-3.26s2.34.21,3,1.33c4.53,7.28,4.85,15.1,2.82,23.17a33.77,33.77,0,0,1-1.8,5.24c-1.22,2.76-2.3,2.88-4.31.7a8.82,8.82,0,0,0-.87-.69c-1,4-1.83,7.91-2.86,11.75-2.24,8.31-7.62,14.64-13.38,20.68-1.18,1.24-2.36,2.48-3.65,3.59-1.65,1.4-2.67,1.11-3.63-.84-.48-1-.93-2-1.43-3-2.57,2.66-4.92,5.28-7.47,7.68-4.15,3.92-4.47,3.88-8.73.1-1.33-1.18-2.62-2.43-3.82-3.73s-2.25-2.69-3.61-4.33c-.61,1.33-1.06,2.4-1.58,3.42-1,1.9-2.07,2.1-3.67.65-10.29-9.25-17.67-20.14-19.29-34.28a9.89,9.89,0,0,0-.38-1.4c-.27,0-.47-.07-.54,0-2.77,2.79-3.74,2.68-5.14-1.12-3.22-8.72-4-17.46.52-26,.28-.52.57-1,.88-1.55.71-1.15,1.63-2.16,3.05-1.26s.84,2,.16,3.12a23.12,23.12,0,0,0-3.56,10.88A32.94,32.94,0,0,0,221.72,117Z"/><path d="M215.46,201.36c0,6.9,0,13.8,0,20.7,0,3.79-2.42,6.38-5.9,6.41s-6.08-2.53-6.09-6.46q0-20.7,0-41.4c0-4,2.41-6.51,6-6.5s5.95,2.55,6,6.55Q215.48,191,215.46,201.36Z"/><path d="M291,45.68c-2.85-1.91-5.86-1.89-8.86-1.36-2.55.46-5,1.33-7.56,1.81a10.78,10.78,0,0,1-3-.32c.22-1.07.16-2.3.71-3.16,1.41-2.21,3.09-4.25,4.89-6.66-8.9-1.48-16.79-.66-23.76,4.9-.87.69-2.17.82-3.27,1.21a21,21,0,0,1-1-3.21,29.52,29.52,0,0,1-.11-3.77c0-.13-.13-.26-.31-.61-6.54,1.1-12.38,3.37-15.59,9.79-.58,1.18-.27,2.76-.64,4.08A9.51,9.51,0,0,1,231,50.69c-.73-.58-2.09-1.18-2.07-1.73.1-2.22.15-4.65,1.07-6.61,2.73-5.85,7.9-8.83,13.89-10.54a53.62,53.62,0,0,1,5.84-1.34c2.42-.41,2.95.09,3,2.49,0,1,0,2,0,3.34a10,10,0,0,0,1.64-.59c8.27-4.91,17.13-4.62,26.12-2.91,1.95.37,2.36,1.58,1.24,3.26s-2.22,3.09-3.71,5.14l3.47-.47c3.81-.51,7.56-.49,11.05,1.42,2.55,1.39,3,2.9,1.77,5.46a21.72,21.72,0,0,1-1.9,3.76,2.57,2.57,0,0,1-2.33.78,2.6,2.6,0,0,1-.85-2.33A25.1,25.1,0,0,1,291,45.68Z"/><path d="M259.94,140.12c-2.91.08-6.51-1.47-9.72-4.06-1.32-1.06-2.32-2.39-1.06-4s2.7-1,4.08.12c5.31,4.16,10.45,4.17,15.81,0,1.38-1.06,2.84-1.71,4.06-.11s.3,2.88-1.05,4C268.85,138.71,265.15,140.1,259.94,140.12Z"/><path d="M238,89.17a6.08,6.08,0,0,0-5.56,2.13c-.78,1-1.71,1.53-2.84.61s-.74-2.07.06-3.1c2-2.55,6.77-4.23,9.83-3.21.77.26,1.84,1.41,1.78,2.05C241.11,89.63,239.45,89.33,238,89.17Z"/><path d="M285.57,85.4a8.64,8.64,0,0,1,7,3.53,3.13,3.13,0,0,1,.13,2.85c-.8,1.16-2,.64-2.79-.35a6.07,6.07,0,0,0-5.72-2.25c-1.41.12-3.14.44-3.24-1.58s1.71-2.06,3.19-2.2C284.44,85.38,284.73,85.4,285.57,85.4Z"/><path d="M288.26,95.49a3.44,3.44,0,1,1-6.87-.06,3.5,3.5,0,0,1,3.48-3.54A3.4,3.4,0,0,1,288.26,95.49Z"/><path d="M237.53,91.89A3.62,3.62,0,0,1,241,95.54a3.49,3.49,0,0,1-3.6,3.46,3.52,3.52,0,0,1-3.47-3.61A3.64,3.64,0,0,1,237.53,91.89Z"/></svg>