<svg id="Layer_1" data-name="Layer 1" xmlns="http://www.w3.org/2000/svg" viewBox="0 0 532 266"><title>SVG-</title><g id="Layer_1-2" data-name="Layer 1-2"><path d="M95.19,126.53v-.19a13.1,13.1,0,0,0,7.11-12.13,13.53,13.53,0,0,0-7.73-12.69,22.63,22.63,0,0,0-9.86-1.66H82.62v-4.6A1.73,1.73,0,0,0,81,93.61H76.25a1.65,1.65,0,0,0-1.66,1.65v4.6H69.32v-4.6a1.65,1.65,0,0,0-1.66-1.65H62.94a1.65,1.65,0,0,0-1.65,1.65v4.6H56.51a1,1,0,0,0-1,1h0v4.48a1,1,0,0,0,1,1h4.84v43.22H56.81a1.39,1.39,0,0,0-1.34,1.28h0v4a1.3,1.3,0,0,0,1.28,1.29h4.54v4.53a1.65,1.65,0,0,0,1.65,1.66h4.72a1.64,1.64,0,0,0,1.66-1.6h0V156.2h5.27v4.53a1.66,1.66,0,0,0,1.66,1.66H81a1.64,1.64,0,0,0,1.65-1.6h0v-4.53h3.13a26.56,26.56,0,0,0,8.46-1,15.43,15.43,0,0,0,10.36-15C104.57,133.76,101.26,128.24,95.19,126.53ZM84.71,106.42a12.78,12.78,0,0,1,5.82,1.1,8.17,8.17,0,0,1,3.68,7.42c0,5.09-3.19,8.65-8.28,8.65H69.38V106.42Zm6.37,42.42a14,14,0,0,1-5,.8H69.32V130.08H86.67c5.88,0,9.74,3.8,9.74,9.69,0,4.23-2.08,7.72-5.33,9.07Z"/><path d="M116,105.2v-2.58a2.21,2.21,0,0,1,2-2.57h3.31a2.26,2.26,0,0,1,2.58,2h0v3.13a2.35,2.35,0,0,1-2.09,2.57H118.6a2.26,2.26,0,0,1-2.57-2A.86.86,0,0,1,116,105.2Zm.06,13.17a2.26,2.26,0,0,1,2-2.57h3a2.24,2.24,0,0,1,2.57,2h0a1.31,1.31,0,0,1,0,.68v34.63a2.24,2.24,0,0,1-2,2.58,1.27,1.27,0,0,1-.67,0H118.6a2.26,2.26,0,0,1-2.57-2v-.55C116.09,153.13,116.09,118.37,116.09,118.37Z"/><path d="M136.69,122.36h-2.76a2.28,2.28,0,0,1-2.51-2.08v-1.54a2.25,2.25,0,0,1,2-2.57h3.37V107.4a2.25,2.25,0,0,1,2-2.57h2.82a2.29,2.29,0,0,1,2.64,2,1.27,1.27,0,0,1,0,.67v8.77h6.93a2.25,2.25,0,0,1,2.57,2v1.6a2.26,2.26,0,0,1-2,2.57h-7.48V140.2c0,7.6,4.66,8.76,7.6,9,2.09.18,2.76.8,2.76,2.57v1.66c0,1.84-1,2.57-3.13,2.57-7.9,0-14.83-4.59-14.83-14.65l-.06-19Z"/><path d="M180.09,114.82a21,21,0,0,1,13.18,4.29,2.23,2.23,0,0,1,.79,3.13,1.36,1.36,0,0,1-.36.43l-.8,1.16c-1,1.41-2.08,1.53-3.56.61a15.47,15.47,0,0,0-8.88-3c-8,0-13.86,6-13.86,14.22s5.83,14.35,14,14.35a17.09,17.09,0,0,0,10.18-3.62,2.28,2.28,0,0,1,3.55.73l.61,1.17a2.34,2.34,0,0,1-.49,3.31.31.31,0,0,1-.24.12A22.17,22.17,0,0,1,180,156.63c-12.57,0-21.34-8.89-21.34-20.91C158.82,123.89,167.64,114.82,180.09,114.82Z"/><path d="M221.65,114.82c11.89,0,21.52,8.77,21.52,20.84s-9.63,21-21.52,21-21.46-8.83-21.46-21S209.76,114.82,221.65,114.82Zm0,35.19c7.6,0,13.73-6,13.73-14.35a13.71,13.71,0,0,0-27.4-.92h0v.92A13.77,13.77,0,0,0,221.28,150h.37Z"/><path d="M251.56,105.2v-2.58a2.24,2.24,0,0,1,2-2.57,1.09,1.09,0,0,1,.67,0h2.7a2.25,2.25,0,0,1,2.57,2v3.13a2.35,2.35,0,0,1-2.08,2.57H254.2a2.25,2.25,0,0,1-2.57-2A1.51,1.51,0,0,1,251.56,105.2Zm.07,13.17a2.25,2.25,0,0,1,2-2.57h3a2.22,2.22,0,0,1,2.58,2v35.31a2.23,2.23,0,0,1-2,2.58h-3.12a2.27,2.27,0,0,1-2.58-2V118.37Z"/><path d="M270.32,118.37a2.26,2.26,0,0,1,2-2.57h2.76a2.25,2.25,0,0,1,2.58,2h0a1.31,1.31,0,0,1,0,.68V122a8.93,8.93,0,0,1-.25,2.27h.19a16.5,16.5,0,0,1,15.14-9.38c9.38,0,13.67,5.15,13.67,15.33v22.86a2.23,2.23,0,0,1-2,2.58h-3.13a2.34,2.34,0,0,1-2.58-2V131.86c0-5.58-1.1-10.05-7.47-10.05-7.73,0-13.31,6.5-13.31,14.77v16.49a2.21,2.21,0,0,1-2,2.58H272.9a2.34,2.34,0,0,1-2.58-2V118.37Z"/><path d="M316.3,150a2.21,2.21,0,0,1,2-2.58h3.68a2.22,2.22,0,0,1,2.57,2v3.74a2.22,2.22,0,0,1-2,2.58h-3.68a2.21,2.21,0,0,1-2.57-2V150Z"/><path d="M353.63,114.82a21,21,0,0,1,13.18,4.29,2.23,2.23,0,0,1,.79,3.13,1.36,1.36,0,0,1-.36.43l-.8,1.16c-.92,1.41-2.08,1.53-3.56.61a15.47,15.47,0,0,0-8.88-3c-8,0-13.86,6-13.86,14.22S346,150,354.18,150a17.09,17.09,0,0,0,10.18-3.62,2.28,2.28,0,0,1,3.55.73l.61,1.17a2.34,2.34,0,0,1-.49,3.31l-.18.12a22.28,22.28,0,0,1-14.22,4.91c-12.57,0-21.33-8.89-21.33-20.91C332.36,123.89,341.18,114.82,353.63,114.82Z"/><path d="M395.19,114.82c11.89,0,21.52,8.77,21.52,20.84s-9.63,21-21.52,21-21.46-8.83-21.46-21S383.3,114.82,395.19,114.82Zm0,35.19c7.6,0,13.73-6,13.73-14.35a13.74,13.74,0,0,0-27.46-1v.92a13.82,13.82,0,0,0,13.3,14.34h.06Z"/><path d="M425.23,118.37a2.25,2.25,0,0,1,2-2.57H430a2.21,2.21,0,0,1,2.57,2V122a9.41,9.41,0,0,1-.24,2.27h.18a16,16,0,0,1,13.92-9.38c6.68,0,10.54,3.07,12,9.07h.18a16.28,16.28,0,0,1,14.1-9.07c9.08,0,13.18,5.15,13.18,15.33v22.86a2.21,2.21,0,0,1-2,2.58h-3.12a2.37,2.37,0,0,1-2.58-2V131.8c0-5.58-1.1-10-7.05-10-7.42,0-11.83,7.66-11.83,15.32v15.94a2.28,2.28,0,0,1-1.9,2.58,2.08,2.08,0,0,1-.61,0h-2.52a2.23,2.23,0,0,1-2.51-2V131.8c0-5.21-.8-10-6.93-10-7.54,0-12,7.91-12,15.32v15.94a2.23,2.23,0,0,1-2,2.58H427.8a2.28,2.28,0,0,1-2.57-2V118.37Z"/></g></svg>