<svg id="Layer_1" data-name="Layer 1" xmlns="http://www.w3.org/2000/svg" viewBox="0 0 532 266"><title>SVG-</title><path d="M503.85,116.15a127.83,127.83,0,0,1-21.69,21.55c-7.48,5.69-15.5,10.34-24.73,12.59-1.55.37-3.15.55-4.7.92-.91.21-1-.21-1-.9-.37-11,3.68-19.82,12.92-26a63.51,63.51,0,0,1,26.73-10.06,71.42,71.42,0,0,1,11.78-.55c2.35.06,2.32,0,2.55,2.44a71.11,71.11,0,0,1,0,13.84c-.74,7.47-2.38,14.72-6.24,21.23-6.6,11.12-16.67,16.28-29.4,16.12-6.2-.08-11.48-2.89-16.12-7.37a64,64,0,0,0,7.75-2c9.65-3.32,17.63-9.16,24.67-16.4a105.6,105.6,0,0,0,17.51-24.47,5.58,5.58,0,0,0,.28-.67l.28-.58c0-.11.12-.29.09-.31s-.22,0-.26.13Z"/><path d="M79,143.13a17.48,17.48,0,0,1,6.83,1.68,10.22,10.22,0,0,1,4.67,13.28c-2,4.4-5.72,6.1-10.07,7a23.8,23.8,0,0,1-4.92.3c-11.29,0-22.58,0-33.87,0-1.29,0-1.74-.27-1.74-1.67q.09-19.86,0-39.71c0-1.3.36-1.62,1.63-1.62,11.2,0,22.39,0,33.58.07,3.43,0,6.89.42,10,2.23,2.67,1.58,4.58,3.68,4.83,7,.29,4-1,7.16-4.54,9.22a12.39,12.39,0,0,1-5.21,1.68A1.41,1.41,0,0,0,79,143.13Zm-16.56,3.29h0c-3.75,0-7.49.05-11.23,0-1.23,0-1.71.25-1.66,1.6.1,3,.09,5.93,0,8.89,0,1.22.35,1.55,1.56,1.54,7,0,14,0,21,0a13.91,13.91,0,0,0,5-.9A5.25,5.25,0,0,0,79.91,150c-1.38-2.64-3.9-3.39-6.59-3.5C69.68,146.31,66,146.42,62.39,146.42Zm-.59-16.65c-3.65,0-7.3,0-10.95,0-1,0-1.37.27-1.34,1.31.07,2.48.07,5,0,7.45,0,1.12.25,1.51,1.45,1.5,6.86,0,13.72,0,20.59,0a11.44,11.44,0,0,0,5.59-1.39,4.26,4.26,0,0,0-.44-7.88,12.51,12.51,0,0,0-4.68-.92C68.61,129.75,65.21,129.77,61.8,129.77Z"/><path d="M269.21,133.16a2.73,2.73,0,0,0-.32,1.76c0,9.63,0,19.27,0,28.91,0,1.31-.38,1.66-1.65,1.61-2.28-.1-4.58-.06-6.86,0-.89,0-1.18-.28-1.18-1.17q0-20.3,0-40.59c0-1,.4-1.22,1.3-1.2,3,0,6,.06,9.05,0a3.81,3.81,0,0,1,3.06,1.25q14.21,14.3,28.48,28.5c.36.37.64.86,1.22,1a2.49,2.49,0,0,0,.13-1.42c0-9.2,0-18.39,0-27.59,0-1.44.43-1.82,1.81-1.75,2.18.11,4.37.06,6.56,0,.89,0,1.32.16,1.32,1.18q0,20.29,0,40.59c0,.87-.25,1.21-1.16,1.2-3.07-.05-6.13-.05-9.2,0a2.37,2.37,0,0,1-1.84-1c-8.78-9.17-17.84-18.07-26.79-27.08C271.82,136,270.58,134.63,269.21,133.16Z"/><path d="M349,122.47c7.34,0,14.69,0,22,0,1.55,0,1.94.46,1.81,1.89a27.78,27.78,0,0,0,0,4.08c.08,1.29-.4,1.68-1.67,1.67-6.81,0-13.63,0-20.44,0-4.77,0-9.54,0-14.31,0-1.16,0-1.65.23-1.59,1.51.1,2.23.08,4.48,0,6.71,0,1.16.32,1.49,1.48,1.48,6.57,0,13.14,0,19.7,0,1.27,0,1.78.28,1.65,1.61a16.31,16.31,0,0,0,0,3.35c.14,1.38-.29,1.83-1.73,1.81-6.48-.07-13,0-19.42-.06-1.4,0-1.71.43-1.67,1.73q.14,4.38,0,8.76c0,1.25.39,1.53,1.57,1.53,11.54,0,23.07,0,34.6-.06,1.49,0,2,.37,1.84,1.86a18.6,18.6,0,0,0,0,3.5c.11,1.3-.27,1.76-1.67,1.73-4.67-.09-9.34,0-14,0-10.12,0-20.25,0-30.37,0-1.32,0-1.61-.39-1.61-1.65q.07-19.84,0-39.71c0-1.26.3-1.65,1.62-1.64C334.24,122.5,341.64,122.47,349,122.47Z"/><path d="M437.91,122.47c-2.57,2.41-4.81,4.54-7.08,6.63-1.31,1.22-2.72,2.34-4,3.57-3.59,3.42-7.2,6.8-10.94,10.05-.67.59-.83,1.09-.06,1.78,2.83,2.5,5.65,5,8.43,7.59,4.51,4.13,9,8.3,13.49,12.44.21.19.55.31.39.67s-.41.2-.64.2c-3.75,0-7.5.06-11.24,0-1.45,0-2.17-1.41-3.1-2.24-3.46-3-6.76-6.28-10.13-9.43-1.17-1.1-2.38-2.15-3.52-3.26-.56-.54-1-.65-1.62-.1-1.44,1.3-2.93,2.54-4.35,3.86q-5,4.6-9.88,9.27a5.94,5.94,0,0,1-4.73,2c-3.29-.21-6.6-.06-10-.2,1.38-1.22,2.59-2.56,3.91-3.79,1.64-1.51,3.35-2.94,5-4.45q6.33-5.84,12.6-11.7c1.75-1.63,1.78-1.7-.06-3.41-5.87-5.44-11.79-10.84-17.68-16.27-1-.92-2-1.88-2.92-2.8.32-.6.76-.36,1.09-.37,2.87,0,5.76.17,8.61-.07a6.23,6.23,0,0,1,5.14,2q5.39,5.12,10.81,10.2c.42.39.91.71,1.35,1.1,2.05,1.81,2.07,1.84,4.08,0,3.21-3,6.38-6,9.58-9,1.34-1.26,2.71-2.49,4-3.77a1.94,1.94,0,0,1,1.44-.57C429.72,122.48,433.56,122.47,437.91,122.47Z"/><path d="M205,122.47c7.26,0,14.51,0,21.76,0,1.19,0,1.66.28,1.58,1.53a29.11,29.11,0,0,0,0,4.38c.09,1.32-.31,1.73-1.69,1.72-9-.06-18.1,0-27.16,0-2.19,0-4.38.07-6.57,0-1.2-.05-1.48.39-1.46,1.51.07,2.92.08,5.84,0,8.76,0,1.17.34,1.48,1.49,1.47,6.57,0,13.14,0,19.71,0,1.28,0,1.76.31,1.64,1.62a21.92,21.92,0,0,0,0,3.8c.11,1.25-.26,1.67-1.59,1.65-6.48-.07-12.95,0-19.43-.07-1.55,0-1.84.47-1.82,1.89.09,4.48,0,9,.06,13.44,0,1.1-.34,1.42-1.42,1.39-2.38-.07-4.77-.05-7.15,0-1,0-1.39-.18-1.39-1.27q0-20.24,0-40.45c0-1.12.48-1.26,1.4-1.25C190.29,122.48,197.64,122.47,205,122.47Z"/><path d="M147.09,122.47c8.22,0,16.45,0,24.67,0,1.27,0,1.73.3,1.64,1.62a39.09,39.09,0,0,0,0,5c.08,1.26-.27,1.67-1.6,1.66-6-.08-12.07,0-18.11-.07-1.38,0-1.68.43-1.67,1.73,0,10.46,0,20.93,0,31.39,0,1.35-.35,1.78-1.7,1.71-2.23-.11-4.48-.1-6.71,0-1.23.05-1.56-.35-1.56-1.56.05-10.46,0-20.93.06-31.39,0-1.44-.29-1.91-1.83-1.89-6,.1-12,0-18,.08-1.33,0-1.68-.4-1.6-1.66a45.85,45.85,0,0,0,0-5.11c-.07-1.18.35-1.47,1.48-1.46C130.54,122.49,138.81,122.47,147.09,122.47Z"/><path d="M102.7,143.94c0-6.61,0-13.22,0-19.84,0-1.23.24-1.73,1.59-1.66,2.33.11,4.67.07,7,0,1,0,1.37.2,1.37,1.28q0,20.2,0,40.41c0,1.06-.39,1.31-1.36,1.29-2.43-.06-4.87-.07-7.3,0-1.06,0-1.3-.38-1.29-1.36C102.71,157.36,102.7,150.65,102.7,143.94Z"/><path d="M236.19,143.87c0-6.61,0-13.22,0-19.84,0-1.16.24-1.64,1.51-1.59,2.38.1,4.77.06,7.15,0,.9,0,1.3.18,1.3,1.2q0,20.26,0,40.55c0,1-.37,1.23-1.29,1.22-2.43-.05-4.86-.08-7.29,0-1.13,0-1.38-.37-1.37-1.43C236.21,157.29,236.19,150.58,236.19,143.87Z"/><path d="M504.46,115.89l-.28.58-.33-.31.44-.45A1.45,1.45,0,0,0,504.46,115.89Z"/><path d="M504.29,115.71c0-.13.12-.24.26-.13s-.06.2-.09.31A1.45,1.45,0,0,1,504.29,115.71Z"/></svg>