<svg id="Layer_1" data-name="Layer 1" xmlns="http://www.w3.org/2000/svg" viewBox="0 0 532 266"><title>SVG-</title><path d="M335.66,229.17v-8.79h1.78c6.23,0,12.45,0,18.68,0,3.38,0,6-2.14,5.85-6.26-2.47,0-5,.11-7.45,0-3.61-.19-7.31-.09-10.78-.93-6.52-1.58-10-6.53-11.8-12.66a24.89,24.89,0,0,1,1.34-18.21c2.41-5,6.29-8.79,12.07-9.55a121,121,0,0,1,13.2-.67c5-.11,9.93,0,15.11,0v1.9c0,11.87.06,23.75,0,35.62a58.47,58.47,0,0,1-.92,9.52c-1,5.83-5.59,9.41-11.44,9.82-.16,0-.32.19-.48.29Zm26.27-23.88V181l-9.91.45a8.52,8.52,0,0,0-7.79,4.89c-1.82,3.77-1.72,7.75-.75,11.77.82,3.38,2.86,5.69,6.24,6.2C353.7,204.89,357.76,205,361.93,205.29Z"/><path d="M492.66,214.1c-3.66,0-7.32.09-11,0s-7-1.1-9.36-4.13a11.3,11.3,0,0,1-2.56-7.1c-.05-6.8,0-13.6,0-20.4v-1.88H462v-8.5h7.7v-15H481v15h11.65v8.48H481.05c0,6.29-.1,12.35,0,18.41.08,3.57,1.53,5.69,4.4,6.19a47.5,47.5,0,0,0,7.17.21Z"/><path d="M101.19,47.49c2.92,1.13,4.59,3.12,4.4,6.39a5.77,5.77,0,0,1-11.31,1c-.84-3.67.15-5.45,4.09-7.4Z"/><path d="M46.87,47.49c2.43,1.27,4.23,2.86,4.12,6a5.76,5.76,0,0,1-11.35,1.24,3.21,3.21,0,0,0-.3-.62V52.52a6.7,6.7,0,0,1,4.39-5Z"/><path d="M39.34,70.73c.68-1.92,1.38-3.73,3.52-4.65,2.74-1.17,6.71.21,7.71,3,1.18,3.27,0,6.76-3.34,7.79-3.69,1.16-6.68-.53-7.66-4.36,0-.07-.15-.11-.23-.17Z"/><path d="M65.08,47.49c3.84,1.95,5,4.85,3.53,8.38a6,6,0,0,1-5.35,3.21,5.81,5.81,0,0,1-5.4-4.3c-.82-2.77.24-5.71,4.08-7.29Z"/><path d="M83.3,47.49c1.64,1,3.26,1.94,3.83,4.09A5.74,5.74,0,0,1,76.58,56c-1.82-3.44-.44-6.92,3.26-8.23.13,0,.21-.2.32-.3Z"/><path d="M39.34,107.15c.5-1.77,1.15-3.41,2.94-4.39s4.82-.89,6.29.29a5.9,5.9,0,0,1,2.06,6.89,5.28,5.28,0,0,1-5.08,3.49c-3.55,0-4.63-.86-6.21-5Z"/><path d="M39.34,88.94c.6-1.9,1.31-3.64,3.38-4.54a6,6,0,0,1,7.1,1.68c1.4,1.53,1.56,4.72.33,6.64a6,6,0,0,1-6.65,2.47,5.28,5.28,0,0,1-3.88-4.68c0-.1-.19-.21-.28-.31Z"/><path d="M172.06,108.5c2.09,1.25,4.68,2.55,5.93,5.3a14.6,14.6,0,0,1,1.61,4.72c.28,3.65.32,7.33-1.42,10.77-1.94,3.85-5.25,5.77-9.25,6.74-4.17,1-8.42,1-12.67,1-8.53,0-17.06,0-25.59,0H128.9V79.84h1.65c11,0,22.09-.1,33.13,0a17.44,17.44,0,0,1,9.82,2.63,13.47,13.47,0,0,1,5.93,9.6c.59,3.72.24,7.31-1.75,10.4C176.23,104.78,174,106.52,172.06,108.5Zm-30.93,17.81c6.66,0,13.16.11,19.66,0,5.54-.12,6.64-5.46,5.06-9.37-1.12-2.78-3.73-3.39-6.38-3.45-5-.1-9.93,0-14.89,0h-3.45Zm0-23.24c6.42,0,12.75.23,19-.1,3.21-.16,5.07-1.2,5.79-4.28a13.25,13.25,0,0,0,.19-3.09,5,5,0,0,0-3.35-4.7,15.41,15.41,0,0,0-3.92-.67c-2.77-.1-5.54,0-8.31,0h-9.45Z"/><path d="M222.78,100.61c3.87-4.18,9.06-5.63,14.75-5.69,5.34-.06,10.67,0,16,0h1.75v8.72c-.5,0-1,.07-1.5.07-4.08,0-8.16-.06-12.24,0a57.59,57.59,0,0,0-5.83.6c-3.72.45-5.3,3.55-5.07,7.18h24.63v8.75H230.81c-.62,4.33,1.57,7.13,5.33,7.27,5.73.22,11.46.24,17.19.35.62,0,1.24,0,1.95,0V137h-1.6c-4.7,0-9.41.07-14.12,0-7.08-.12-11.93-1.1-17.11-5.89-1.33,1-2.61,2.17-4,3.12a20.62,20.62,0,0,1-9.36,3.15,27.16,27.16,0,0,1-13.24-1.28c-7.15-2.72-11.55-7.81-12.68-15.46-.75-5-.65-10,1.51-14.71a19.34,19.34,0,0,1,8.35-9,24.41,24.41,0,0,1,9.7-2.66,25.35,25.35,0,0,1,13.36,2C218.44,97.31,220.47,99.07,222.78,100.61Zm-28,15.42a12.84,12.84,0,0,0,2.48,8.62c2.14,2.84,5,3.7,8.44,3.61a8.88,8.88,0,0,0,7.62-3.93c2.88-4.29,2.91-8.93,1.57-13.7-2.26-8-12.54-9.43-17.33-3.89C195.27,109.38,194.65,112.57,194.77,116Z"/><path d="M180.79,157v10.36H179c-9.79,0-19.57,0-29.35,0-2.28,0-4.53.45-6.16,2.32a7.09,7.09,0,0,0-1.14,7.55c.91,2.44,3.23,3.24,5.67,3.27,6.12.07,12.25-.16,18.36.1a43.37,43.37,0,0,1,9.34,1.65c3.86,1,6,3.94,7,7.71a25.09,25.09,0,0,1,0,13.4c-1.48,5.54-5.29,8.54-10.59,9.76a39.67,39.67,0,0,1-8.42,1c-10.2.11-20.4,0-30.6,0h-1.82V203.74h1.69c9.21,0,18.42,0,27.62,0a28.08,28.08,0,0,0,6.37-.93,5.49,5.49,0,0,0,3.71-6.39c-.91-3.92-3-5.49-7.47-5.51-6,0-11.93.13-17.89-.06a20.64,20.64,0,0,1-10.28-2.71,11.79,11.79,0,0,1-5.65-8.25,26.32,26.32,0,0,1,.69-13.49,12.36,12.36,0,0,1,7.75-7.81,26.14,26.14,0,0,1,9.37-1.62c10.57.06,21.14,0,31.7,0Z"/><path d="M421.39,214.1h-1.7c-9.68,0-19.36.06-29,0a17.64,17.64,0,0,1-5.69-1.11,9.57,9.57,0,0,1-6.38-7.51,18.2,18.2,0,0,1,.52-9.69c1.42-4.13,4.74-6.28,8.84-6.68,5.47-.53,11-.51,16.5-.7,1.61-.05,3.23,0,4.81,0,1-4.65-1.94-7-6.05-7.18-7.15-.25-14.3-.25-21.45-.36-.2,0-.41,0-.74,0V172h1.62c7.54,0,15.07,0,22.61,0a18.12,18.12,0,0,1,10.38,2.81,11.64,11.64,0,0,1,5.4,9.1c.32,4.46.31,8.95.35,13.43C421.43,202.86,421.39,208.36,421.39,214.1Zm-11.68-16.95c-5.29,0-10.41-.09-15.53,0-1.55,0-3.22.53-3.82,2.34-1,3.2-.17,5.67,4,5.75s8.37,0,12.55,0h2.83Z"/><path d="M294.68,137v-9.1h1.72c7.37,0,14.75,0,22.12,0a13.2,13.2,0,0,0,3.05-.43,3.25,3.25,0,0,0,2.56-3.07,3.42,3.42,0,0,0-2.06-3.62,9.34,9.34,0,0,0-3.12-.68c-4.24-.08-8.48.13-12.71-.09a28.6,28.6,0,0,1-7.2-1.4c-2.7-.89-3.91-3.16-4.51-5.9a19,19,0,0,1,.59-10.91,9.57,9.57,0,0,1,8.81-6.44c7.33-.46,14.7-.31,22.05-.41,2.24,0,4.49,0,6.84,0v8.79h-1.69c-5.65,0-11.3,0-16.95,0a30,30,0,0,0-5.52.56c-2.52.52-3,1.4-2.74,4.09.16,1.52,1.44,2.48,3.53,2.54,4.47.14,8.95.27,13.43.31a13.45,13.45,0,0,1,8.81,3.08,9.45,9.45,0,0,1,3.32,6.26c.4,3.92.38,7.87-1.92,11.38a10.2,10.2,0,0,1-8.44,5C314.72,137.11,304.78,137,294.68,137Z"/><path d="M375.25,94.91v8.79c-2,0-4,0-5.94,0-4.12.08-8.26,0-12.34.38-3.81.4-6.21,1.5-6.47,6.49a9.33,9.33,0,0,1-.14,1h24.87v8.69H350.32c.16,1,.29,1.87.43,2.71.56,3.4,2.8,4.44,5.35,4.55,5.73.25,11.47.25,17.2.36.62,0,1.23,0,1.93,0v9c-.42,0-.87.09-1.31.09-5.45,0-10.89.16-16.33,0-5.77-.21-11.22-1.53-15.3-6.13a17.8,17.8,0,0,1-4-8.53,30.07,30.07,0,0,1,.59-15,16,16,0,0,1,9.88-10.81,25.28,25.28,0,0,1,9.53-1.6C363.89,95,369.48,94.91,375.25,94.91Z"/><path d="M247.43,204.68V172.12h11.23V214c-.44,0-.88.09-1.33.09-7.12,0-14.24.16-21.35-.08a29.41,29.41,0,0,1-8.54-1.67c-4.37-1.51-6.68-5.09-6.94-9.51-.4-6.87-.3-13.76-.38-20.65,0-3.33,0-6.67,0-10.08h11.31v1.63c0,7.95,0,15.9,0,23.86a17.38,17.38,0,0,0,.36,3.37,4.1,4.1,0,0,0,3.88,3.37c1.9.2,3.83.27,5.74.33S245.27,204.68,247.43,204.68Z"/><path d="M203.16,180.44c0,6.24,0,12.2,0,18.16a9.94,9.94,0,0,0,.42,2.58c.78,2.8,2.58,4.12,5.53,4.13H215V214c-.4,0-.84.08-1.29.09-3.35,0-6.7.09-10,0-7-.23-11.68-4.58-11.8-11.92-.1-6.59,0-13.18,0-19.77v-1.87h-7.77v-8.44h7.75V157H203.1v15H215v8.44Z"/><path d="M295.87,172h7.73V157h11.27v15h11.92v8.44H314.94v1.82c0,4.92-.05,9.84,0,14.75a24.46,24.46,0,0,0,.65,4.88,5,5,0,0,0,4.81,3.42c2.08,0,4.16,0,6.34,0v8.84c-5.35-.42-10.74.82-15.93-1-4-1.4-6.57-4.38-6.8-8.53-.42-7.23-.3-14.49-.4-21.74,0-.72,0-1.45,0-2.34h-7.77Z"/><path d="M293.53,171.94v8.54H282v5.77c0,3.87-.05,7.74,0,11.61a14.88,14.88,0,0,0,.64,3.92,4.87,4.87,0,0,0,4.88,3.52c1.93,0,3.86,0,5.8.06,0,0,.07.06.19.17v8.57c-1.17,0-2.35,0-3.53,0-3.17-.08-6.35,0-9.5-.34-5.11-.54-8.37-3.62-9.48-8.62a14.26,14.26,0,0,1-.32-3.06c0-7.11,0-14.22,0-21.5h-7.75v-8.49h7.67v-15H281.9v14.88Z"/><path d="M440,214.06H428.42V172.11c.4,0,.85-.08,1.29-.08,6.7,0,13.4-.1,20.1,0,2.67.05,5.45.54,7.2,2.86a9.12,9.12,0,0,1,1.95,4.38c.29,3.46.09,6.95.09,10.52H448.39v-5c0-3.32-.91-4.36-4.19-4.58-1.35-.1-2.71,0-4.24,0Z"/><path d="M280.49,112.38v-5c0-3.27-.91-4.24-4.16-4.33-1.36,0-2.72,0-4.24,0v33.81h-11.3v-42h1.62c6.44,0,12.87-.08,19.31,0a17.15,17.15,0,0,1,5.37,1.11,6.3,6.3,0,0,1,4,5.76c.28,3.46.07,7,.07,10.55Z"/><path d="M63.42,65.71a5.36,5.36,0,0,1,5.73,5.67c-.07,4-2.48,5.58-5.57,5.89s-6.1-2.76-6-5.93A5.63,5.63,0,0,1,63.42,65.71Z"/><path d="M99.77,65.71a5.77,5.77,0,1,1,.06,11.54A5.77,5.77,0,0,1,94,71.39,5.68,5.68,0,0,1,99.77,65.71Z"/><path d="M81.55,65.71c3.09-.38,5.91,2.66,5.84,5.81a5.79,5.79,0,0,1-11.58-.09A5.45,5.45,0,0,1,81.55,65.71Z"/><path d="M81.53,95.22c-3.43.55-5.83-3.2-5.76-5.52a5.7,5.7,0,0,1,5.84-5.82,5.79,5.79,0,0,1,5.81,5.69C87.57,92.31,84.73,95.79,81.53,95.22Z"/><path d="M63.38,95.22c-3.26.5-5.79-2.59-5.79-5.63a5.69,5.69,0,0,1,5.78-5.73,6,6,0,0,1,5.87,5.68C69.22,92.42,66.69,95.68,63.38,95.22Z"/><path d="M81.74,113.43c-3.43,0-6-2.35-6-5.5s2.3-6,5.83-5.83,5.77,2.31,5.77,5.7A5.39,5.39,0,0,1,81.74,113.43Z"/><path d="M99.79,83.92a5.58,5.58,0,0,1,5.8,5.67,5.8,5.8,0,1,1-11.6,0C93.89,86.55,96.69,83.56,99.79,83.92Z"/><path d="M63.65,102.13a5.39,5.39,0,0,1,5.52,5.76c0,3.32-2.38,5.46-5.89,5.57a5.67,5.67,0,1,1,.37-11.33Z"/><path d="M99.72,113.43A5.58,5.58,0,0,1,94,107.72a5.81,5.81,0,0,1,11.62.13A5.59,5.59,0,0,1,99.72,113.43Z"/></svg>