<?xml version="1.0" encoding="utf-8"?>
<!-- Generator: Adobe Illustrator 23.0.0, SVG Export Plug-In . SVG Version: 6.00 Build 0)  -->
<svg version="1.1" id="Layer_1" xmlns="http://www.w3.org/2000/svg" xmlns:xlink="http://www.w3.org/1999/xlink" x="0px" y="0px"
	 viewBox="0 0 2500 443" style="enable-background:new 0 0 2500 443;" xml:space="preserve">
<style type="text/css">
	.st0{fill:#050303;}
</style>
<g>
	<path class="st0" d="M0,0.4c70.4,0.1,140.8-1,211.1,0.6c54.2,1.2,96.7,38.1,105.9,88.4c10.4,57-19.2,105.6-64.8,118.6
		c-1.2,0.3-2.1,1.4-3.7,2.5c43.5,12.4,69.4,41.2,76.7,84.3c12,71.1-27.2,129.5-101.3,137.8c-16.4,1.8-33.1,1.8-49.7,1.9
		c-58.1,0.3-116.2,0.3-174.3,0.4L0,0.4z M93.6,351.9c1.2,0.4,2.4,1.2,3.6,1.2c29.2,0,58.4,1.1,87.5-0.3c30.1-1.4,48-19.9,48.8-47.2
		c0.8-27.4-15.7-47.2-45.2-50.7c-18.6-2.2-37.7-1.2-56.5-1.5c-12.5-0.2-25,0-38.1,0L93.6,351.9L93.6,351.9z M92.9,172.6
		c27.2,0,53,0,78.8,0c5,0,10,0,14.9-0.9c18.2-3.7,32-13,36.7-32c7.6-30.3-11.7-56.5-43-58c-14.6-0.7-29.2-0.2-43.8-0.2
		c-14.2,0-28.3,0-42.9,0c-0.3,3.1-0.6,5.1-0.6,7C92.9,115.8,92.9,143.3,92.9,172.6L92.9,172.6z M1678.2,442.9c-11-2-22.1-3.6-33-6.2
		c-85.1-20.4-128.5-93.6-121-174.6c6.2-67.8,40.4-117.3,105.5-140.2c90.8-32,196.2,11.2,211.7,132.1c2.1,16,2,32.2,2.9,49.8h-234.6
		c5.4,29.8,20.5,50.7,46.6,61.8c42.5,18,82.4,9.1,120-15.1c2.2-1.4,4.3-3.1,6.4-4.7c0.2-0.2,0.6,0,2.1,0
		c11.5,16.9,23.4,34.4,36.7,54c-12.1,7.5-23.3,15.7-35.5,21.9c-22.4,11.3-46.5,17.2-71.6,19.3c-2.9,0.2-5.6,1.3-8.4,2L1678.2,442.9z
		 M1763.3,246.5c1.6-39-35.5-68.8-82.6-67c-39.2,1.5-74,34.7-69.8,67H1763.3z M2015,442.9c-13.5-2.7-27.3-4.6-40.6-8.3
		c-63.4-17.5-107.2-71.1-112.9-136.7c-5.4-61.8,12.5-114.2,62.1-153.2c75.2-59.1,223-45.7,252.4,94.1c2.1,10,3.3,20.3,4,30.5
		c0.7,10.9,0.2,21.8,0.2,34.4h-233.1c2,17.5,8.8,31.5,20.1,43.2c25.8,26.6,57.9,31.6,92.7,25.5c22.2-3.9,42.6-12.3,61-28.1l37.5,55
		c-9.8,6.5-18.6,13.4-28.3,18.8c-24.2,13.2-50.3,20.2-77.7,22.8c-3.2,0.3-6.3,1.4-9.4,2.1C2033.6,442.9,2024.3,442.9,2015,442.9
		L2015,442.9z M1947.6,246.4h152.6c2-37.8-34.3-67.9-80-67C1979.8,180.2,1944.7,212.3,1947.6,246.4L1947.6,246.4z M472.4,442.9
		c-10-2-20-3.8-29.9-6.2c-61.3-14.6-97.5-60.5-97.5-123.5c0-60.4,0-120.9,0-181.3V121h82.8v11.5c0,57.1,0.2,114.2-0.1,171.4
		c-0.1,25.9,7.8,47.9,32.4,59.1c26.6,12.2,53.9,11.8,78.5-5.8c18-12.8,23.1-32.5,23.2-53.6c0.1-56.8,0-113.6,0-170.4v-12.5h81.9
		l0,11.2c0,59.8,0,119.6,0,179.3c0,72.1-44.9,121.7-116.9,129.3c-3.6,0.4-7,1.5-10.5,2.2C501.6,442.9,487,442.9,472.4,442.9
		L472.4,442.9z M1254.5,433.9V0.7h301.3v42c0,9.3-0.6,18.7,0.2,27.9c0.8,9.2-2.9,11-11.4,10.9c-59.5-0.3-118.9-0.2-178.4-0.2h-18.8
		v91.2h11.2c44.8,0,89.7,0.3,134.5-0.2c9.1-0.1,11.2,2.8,11,11.3c-0.6,22.8-0.2,45.7-0.2,69.6h-157.2v180.6L1254.5,433.9
		L1254.5,433.9z M2201.1,433.7v-11.4c0-96.9,0-193.9,0-290.8c0-12.7,0-12.8,13.1-12.7c45.5,0.4,91.1-1.5,136.3,2
		c64.4,5,114.9,34,138.8,97.6c24.3,64.6,5.8,138.4-43.5,178.8c-29,23.8-63.2,35.5-100.1,36.9c-46.8,1.7-93.6,0.5-140.4,0.6
		C2204.4,434.7,2203.5,434.3,2201.1,433.7L2201.1,433.7z M2280.1,367.2c15.9,0,30.7,0,45.6,0c53.5,0,87.2-30.2,93.2-83.4
		c4.3-38.2-16.4-76.2-49.3-89.7c-29-11.9-59.3-5.6-89.5-7.2C2280.1,247.6,2280.1,306.6,2280.1,367.2L2280.1,367.2z M810.6,191.8
		H670.3v-71.1H924c0,13.4-0.7,26.9,0.2,40.3c0.8,12.3-3,21.9-10.7,31.5C871.3,245,829.8,298,788,350.9c-2.2,2.8-4.4,5.8-7.9,10.4
		h145.6v72.5H669.5c0-19.8-0.3-39.6,0.3-59.3c0.1-3.4,3.5-6.9,5.9-10c42.8-54.6,85.8-109,128.6-163.6
		C806.1,198.6,807.6,196.1,810.6,191.8L810.6,191.8z M948.4,191.8c0-22.4,0-43,0-63.6c0-2.3,0.4-4.5,0.6-7.5H1202
		c0,19.1,0.2,37.9-0.2,56.7c-0.1,2.8-2.9,5.8-4.9,8.4c-43.6,55.3-87.2,110.5-130.8,165.7c-2.2,2.7-4.1,5.6-7.4,10.3h12.7
		c41.2,0,82.3,0.2,123.5-0.1c7.6-0.1,10.5,1.8,10.3,10c-0.6,20.5-0.2,41-0.2,62.2H948.6c0-20.5-0.2-40.6,0.2-60.7
		c0-2.5,2.7-5.2,4.5-7.5c41.8-53.3,83.7-106.5,125.6-159.7c3.2-4.1,6.3-8.2,11-14.2L948.4,191.8L948.4,191.8z"/>
</g>
</svg>
