<?xml version="1.0" encoding="utf-8"?>
<!-- Generator: Adobe Illustrator 22.0.1, SVG Export Plug-In . SVG Version: 6.00 Build 0)  -->
<svg version="1.1" id="Layer_1" xmlns="http://www.w3.org/2000/svg" xmlns:xlink="http://www.w3.org/1999/xlink" x="0px" y="0px"
	 viewBox="0 0 276 159.1" style="enable-background:new 0 0 276 159.1;" xml:space="preserve">
<style type="text/css">
	.st0{fill:#010101;}
	.st1{fill:#030303;}
	.st2{fill:#020202;}
	.st3{fill:#050505;}
</style>
<g>
	<path class="st0" d="M-1,0.7c1.8,0.1,3.6,0.4,5.4,0.4c49.5,0,99,0.1,148.5-0.1c4.3,0,5.7,0.9,5.5,5.4c-0.4,10.8-0.1,21.7-0.1,32.5
		c0,1.9,0.7,3.9-2.7,3.9c-3.5,0-2.7-2.1-2.7-4c0-9.3-0.1-18.7,0-28c0.1-3.1-0.5-4.3-4-4.2c-46.8,0.1-93.6,0.1-140.5,0
		c-3.1,0-3.8,0.8-3.8,3.9c0.1,46.8,0.1,93.6,0,140.5c0,3.2,0.9,3.8,3.9,3.8c46.7-0.1,93.3-0.1,140,0c3.4,0,4.5-0.7,4.4-4.3
		c-0.2-12-0.1-24-0.1-36c0-2-0.5-3.9,2.9-3.8c3.1,0.1,2.5,1.9,2.5,3.6c0,14.2,0,28.3,0,42.5c0,2.1-0.2,3.3-2.9,3.3
		C103.6,160,51.8,160-0.1,160c-0.3,0-0.6-0.2-0.9-0.3C-1,106.7-1,53.7-1,0.7z"/>
	<path class="st1" d="M278,95.7c-6.8-0.1-13.6-0.3-20.4-0.2c-2.8,0.1-3.7-0.7-3.7-3.6c0.2-10.1,0.2-20.3,0-30.4
		c-0.1-3,1-3.5,3.7-3.5c6.8,0,13.6,0.6,20.4-0.3c0,2,0,4,0,6c-3.8,2.6-8.1,1.2-12.2,1.5c-2.7,0.2-4.6,1-4.1,4.2
		c0.3,2.4,2.1,2.7,4,2.8c2.5,0.2,5-0.1,7.5,0.5c1.9,0.5,2.8,1.7,2.8,3.6c0,1.9-1,3.1-2.9,3.5c-2.5,0.6-5,0.4-7.5,0.4
		c-3.4,0-4.2,1.9-4.2,4.9c0,3,1.5,4,4.3,4.2c4.1,0.3,8.4-1.2,12.2,1.5C278,92.3,278,94,278,95.7z"/>
	<path class="st0" d="M194,83.2c1.6-7.3,3.5-14.5,4.8-21.8c0.6-3.3,2.3-3.9,4.8-3.3c3,0.8,1,2.9,0.6,4.3c-2.4,9.8-4.8,19.6-7.2,29.5
		c-0.4,1.7-0.6,3.5-3.2,3.6c-2.8,0-2.7-1.9-3.1-3.6c-2-7.5-4-15-6.4-23.8c-2.3,8.6-4.2,16.1-6.2,23.6c-0.5,1.8-0.5,4.2-3.5,3.8
		c-1.2-0.2-2.1-0.1-2.5-1.7c-2.8-11.3-5.7-22.5-8.5-33.7c-0.3-1.2-0.3-2.1,1.2-1.9c1.7,0.2,4-1.2,4.7,2.1c1.6,7.7,3.4,15.4,5.6,24.7
		c2.3-8.3,4.1-15.3,6.2-22.2c0.5-1.8-0.1-4.7,3.2-4.7c3.3,0,2.7,2.9,3.2,4.8c2,6.8,3.9,13.7,5.8,20.5
		C193.4,83.3,193.7,83.3,194,83.2z"/>
	<path class="st2" d="M135.9,70.2c0,7.3-0.1,14.5,0,21.8c0,2.3-0.1,3.7-3.1,3.6c-2.9,0-2.7-1.6-2.7-3.5c0-10,0-20,0.1-29.9
		c0-1.4-1.2-3.6,1.6-3.9c2-0.2,3.8-0.2,5.1,2c4.3,7.1,8.8,14,13.3,21c0.6,0.9,0.6,2.3,2.6,2.4c0-7.3,0-14.5,0-21.7
		c0-2.1-0.2-3.9,3-3.8c3.1,0.1,2.4,2.1,2.4,3.8c0,10,0.1,20,0,29.9c0,1.3,1,3.3-1.3,3.6c-1.9,0.3-3.7,0.4-5.1-1.9
		c-4.8-7.9-9.9-15.7-14.9-23.5C136.4,70.1,136.2,70.1,135.9,70.2z"/>
	<path class="st1" d="M50.2,76.7c0-5,0.1-10,0-15c0-2.2,0-3.8,3-3.8c2.9,0,2.8,1.6,2.7,3.5c0,0.8-0.1,1.7,0,2.5
		c0.3,3.3-1.5,8.5,0.7,9.4C60.2,75,65,74,69.3,74c2.1,0,1.6-1.7,1.6-2.9c0-3.3,0.1-6.6,0-10c0-1.8,0-3.2,2.6-3.1
		c2.2,0,2.9,0.8,2.9,2.9c-0.1,10.6-0.1,21.3,0,31.9c0,2.3-1,2.6-3,2.7c-2.2,0.1-2.4-1-2.4-2.7c0.1-3.7,0-7.3,0-11
		c0-1.1,0.4-2.7-1.2-2.8c-4.1-0.2-8.3-0.2-12.5-0.1c-1.7,0.1-1.3,1.6-1.3,2.7c0,3.7-0.1,7.3,0,11c0.1,2.2-0.7,2.9-2.9,2.8
		c-2.1,0-2.9-0.7-2.9-2.9C50.3,87.3,50.2,82,50.2,76.7z"/>
	<path class="st0" d="M234.6,95.7c-4.3,0.1-8.2-1-11.8-3.3c-0.9-0.6-3-1.2-1.2-2.8c1.1-1,1.4-3.8,4.1-2c3.3,2.2,7,3.1,10.9,2.6
		c3-0.4,5.5-1.6,5.5-5.2c0-3.7-2.4-4.7-5.5-5.2c-2-0.3-4-0.5-5.9-1c-5.3-1.3-8-4.7-8.1-9.8c-0.1-5.5,2.5-8.9,8-10.5
		c5-1.4,9.5-0.1,13.9,1.9c1.4,0.7,2.4,1.4,1.1,2.9c-0.9,1.1-1.2,3.4-3.7,2.1c-2.8-1.5-5.9-2.3-9.1-1.8c-2.8,0.4-4.6,2-4.8,4.8
		c-0.2,2.8,1.7,4.2,4.1,5c1.9,0.6,3.9,0.7,5.9,1.1c6.5,1.3,10.2,5.4,10,11c-0.2,5.7-4.7,9.8-11.4,10.3
		C236,95.7,235.3,95.7,234.6,95.7z"/>
	<path class="st2" d="M99.6,60.1c-0.5-1.4-1.4-2-3-2c-1.9-0.1-2.7,0.8-3.3,2.3c-4.2,11.5-8.3,23-12.7,35c3.4,0.1,6.3,1.1,6.8-3
		c0.7-4.6,3.4-6.4,7.9-5.5c1.1,0.2,2.3,0.2,3.5,0c3.5-0.5,5.7,0.6,6.2,4.4c0.5,4.1,3,5.1,7.2,3.7C108,83.3,103.8,71.7,99.6,60.1z
		 M99.6,82.1H91c1.9-5.6,3.5-10.6,5.5-16.6c1.8,5.4,3.2,10,4.9,14.4C102.2,82,101.1,82.1,99.6,82.1z"/>
	<path class="st0" d="M45.7,85.4c-0.8,7.3-8.1,11-14.2,10.3c-6.8-0.8-11.4-5.9-11.6-13.3c-0.1-3.7-0.1-7.3,0-11
		c0.2-7.6,4.3-12.5,11.2-13.6c5.8-0.9,13.9,3.1,14.7,10.6c-3,0.7-5.2,0.6-7.4-2.4c-3.7-4.8-10.9-3.1-12.4,2.8
		c-1.4,5.2-1.4,10.6,0,15.8c1.6,5.9,8.4,7.7,12.4,3C40.6,85,42.9,85,45.7,85.4z"/>
	<path class="st3" d="M215.9,77.1c0,5.2-0.1,10.3,0.1,15.5c0.1,2.7-1.2,2.9-3.3,2.9c-2.5,0.1-2.6-1.2-2.6-3.1c0-10.5,0.1-21,0-31.5
		c0-2,0.4-3,2.7-3c2.3,0,3.3,0.6,3.2,3.1C215.8,66.4,215.9,71.7,215.9,77.1z"/>
	<path class="st0" d="M122.1,76.9c0,5.2,0,10.3,0,15.5c0,1.8-0.1,3.1-2.6,3.1c-2.2,0-2.8-0.8-2.8-2.9c0.1-10.5,0.1-21,0-31.5
		c0-1.9,0.2-3.1,2.6-3.1c2.8-0.1,2.8,1.5,2.8,3.4C122.1,66.6,122.1,71.8,122.1,76.9z"/>
</g>
</svg>
