<svg id="Layer_1" data-name="Layer 1" xmlns="http://www.w3.org/2000/svg" viewBox="0 0 532 266"><title>SVG-</title><path d="M151.3,147.26v88.3c.07.71-.29.93-1,.93h-12c-.79,0-1.14-.36-1.07-1.14V59.4c0-.79.28-1.07,1.14-1.07h12c.79,0,1.07.28,1,1.07v1.06Z"/><path d="M168.69,97c.35-10.9,4.91-20.38,14.68-26.72,9.4-6.13,19.38-6.56,29.5-1.5a32.27,32.27,0,0,1,7.48,5.63.89.89,0,0,1,.29,1.14l-.22.21c-2.2,2.64-4.34,5.28-6.48,8-.57.71-.93.5-1.5,0a18.46,18.46,0,0,0-12-5c-7.41-.22-13,3.13-16.25,9.69a19.42,19.42,0,0,0,1.57,21.09c5.77,8.06,16.25,9.55,24.66,3.57a44.17,44.17,0,0,0,4.7-4.14c.57-.57.93-.57,1.5,0,2.35,2.28,4.77,4.56,7.12,6.77a.85.85,0,0,1,.15,1.36c-5.14,6.34-11.55,10.76-19.6,12.33a27.55,27.55,0,0,1-23.59-6.2C172.61,116.62,168.9,107.93,168.69,97Z"/><path d="M172.54,180.83V151.4c0-1.43,0-1.43,1.42-1.43h35.92c1.07,0,1.42.22,1.42,1.36-.07,3.13-.07,6.27,0,9.4,0,1-.28,1.29-1.28,1.29-7.63-.08-15.25,0-22.8-.08-1.14,0-1.43.29-1.43,1.43.07,2.92.07,5.77,0,8.62,0,1,.29,1.28,1.28,1.28,6.56-.07,13.12,0,19.67,0,1.43,0,1.43,0,1.43,1.43v9.41c0,.92-.29,1.21-1.21,1.14H187.29c-1.5,0-1.5,0-1.5,1.57V210.4c0,1.5,0,1.5-1.5,1.5H173.82c-1,0-1.28-.29-1.28-1.28Z"/><path d="M275.23,106.86a22.85,22.85,0,0,1-22.67,23h-.07a23.06,23.06,0,0,1,.22-46.11h.21C265.11,83.77,275.23,94.24,275.23,106.86Zm-12.12-.07a13.2,13.2,0,0,0-2.21-7.34c-3.56-5.49-9.83-6.56-14.61-2.5s-5.84,12.69-2.06,17.82a10.13,10.13,0,0,0,14,2.49h.07c3.42-2.49,4.84-5.91,4.77-10.47Z"/><path d="M230.54,187V163.65c0-1.63,0-1.63-1.56-1.63H216c-1,0-1.29-.29-1.29-1.29.07-3.13.07-6.34,0-9.55,0-.92.22-1.28,1.21-1.28h42.41c.92,0,1.28.21,1.28,1.21-.07,3.14-.07,6.34,0,9.55,0,1-.29,1.36-1.28,1.28-4.35-.07-8.63,0-13,0-1.64,0-1.64,0-1.64,1.71v46.54c0,1.71,0,1.71-1.78,1.71H231.76c-.93,0-1.14-.29-1.14-1.14C230.54,202.85,230.54,194.94,230.54,187Z"/><path d="M304.23,106.79V86.33c0-1,.29-1.35,1.35-1.35q4,.1,7.91,0a1.56,1.56,0,0,1,1.64.93c1.14,2.28,1.14,2.2,3.5,1.14,6.91-3.28,13.61-2.85,19.81,1.78A13.87,13.87,0,0,1,344,99.45c.28,4.27.14,8.48.21,12.75v15c0,1.57,0,1.57-1.64,1.57h-9.34c-.92,0-1.21-.29-1.21-1.22.07-7.76.07-15.6,0-23.37a12.46,12.46,0,0,0-.28-3.21c-1.07-4.49-5.92-5.56-9.12-4.91a7.13,7.13,0,0,0-5.92,5,9.07,9.07,0,0,0-.28,2.36v23.94c0,1.07-.22,1.43-1.36,1.43-3.13-.07-6.34-.07-9.55,0-1,0-1.21-.29-1.21-1.22C304.3,120.54,304.23,113.7,304.23,106.79Z"/><path d="M282.71,128.52c0-.36-.07-.78-.07-1.14v-41c0-1.14.28-1.42,1.42-1.35q4.81.11,9.62,0c.79,0,1.07.21,1.07,1.07v41.69c0,.57-.07,1-.78,1H283.28A1.92,1.92,0,0,0,282.71,128.52Z"/><path d="M288.77,79.06a6.45,6.45,0,0,1-6.63-6.34v-.28a6.63,6.63,0,1,1,13.25,0A6.47,6.47,0,0,1,288.91,79,.22.22,0,0,1,288.77,79.06Z"/></svg>