<svg id="Layer_1" data-name="Layer 1" xmlns="http://www.w3.org/2000/svg" viewBox="0 0 532 266"><title>SVG-</title><path d="M277.49,83.45c0,.45.09.89.09,1.34V114c0,1.29,0,1.27,1.16.84,7.66-2.78,15.36-3.16,23-.1s12.66,9,15.1,16.75a47.15,47.15,0,0,1-1.15,32c-3.79,9.67-11.31,14.92-21.37,16.79a38.49,38.49,0,0,0-4.26.67h-7.41a23.39,23.39,0,0,0-4.48-.65,53.77,53.77,0,0,1-12.82-3.5,1.59,1.59,0,0,1-1.14-1.72q0-45.8,0-91.6Zm.18,63.4c0,6.88,0,13.77,0,20.65a1.25,1.25,0,0,0,1,1.42,27.84,27.84,0,0,0,9.06,1.3c7.61-.19,13-3.81,15.7-10.89a35.85,35.85,0,0,0,.29-25.14c-1.71-4.87-4.88-8.6-9.93-10.27-5.25-1.74-10.4-.94-15.47.93-.72.27-.65.79-.65,1.35Z"/><path d="M127.7,180.92a23.19,23.19,0,0,0-3.88-.78c-8.22-1.93-14.33-6.69-17.84-14.26-5.94-12.81-6.07-25.9,0-38.69,5.35-11.34,16-15.72,27.32-14.86a26,26,0,0,1,17.82,8.34,30.77,30.77,0,0,1,7.24,14.1c2.3,9.9,2.07,19.71-1.93,29.15-4.18,9.85-11.62,15.6-22.39,16.78-.18,0-.38,0-.46.22Zm18.54-35a49.86,49.86,0,0,0-.6-7.37A23.49,23.49,0,0,0,141.4,128a13.79,13.79,0,0,0-20.27-1.25,18.17,18.17,0,0,0-4.43,8A44.69,44.69,0,0,0,115.48,152a27.41,27.41,0,0,0,3.41,11.28c3.86,6.57,10.72,7.83,16.39,6,4.59-1.46,7.14-5,8.81-9.25S146.2,151.12,146.24,145.93Z"/><path d="M351.38,180.92a28.29,28.29,0,0,0-4.48-.65,33.65,33.65,0,0,1-9.52-2.85c-6.37-3.15-9.9-8.27-10.42-15.36s1.59-12.83,7.45-17a31.27,31.27,0,0,1,9.31-4.33,84.75,84.75,0,0,1,17.55-2.89c1.45-.12,2.91-.19,4.37-.27.42,0,.83,0,.81-.63-.07-2.24.19-4.5-.29-6.72-1-4.52-4.11-6.77-8.4-7.64-5.41-1.08-10.72-.3-16,1a37.49,37.49,0,0,0-6.69,2.22c-.65.3-.9.17-1.13-.47-.9-2.5-1.81-5-2.78-7.45-.3-.75-.1-1,.58-1.3A60.46,60.46,0,0,1,345.16,113a50.35,50.35,0,0,1,17.74.17c6.23,1.28,11.35,4.17,14.18,10.19a24,24,0,0,1,2.14,10.24c0,8.87,0,17.74,0,26.61,0,5,0,10,0,14.93a1.66,1.66,0,0,1-1.21,1.8,53.46,53.46,0,0,1-13,3.36c-1.8.28-3.63.24-5.4.67Zm15-23c0-3.56,0-7.11,0-10.67,0-.73-.17-1-.93-.89-3.31.28-6.64.4-9.94.88-3.78.56-7.52,1.27-10.87,3.27-3.95,2.36-5.52,6-5.17,10.43a9.57,9.57,0,0,0,6.68,8.73c6.46,2.39,13,1.79,19.5.07.68-.18.73-.59.73-1.16C366.41,165,366.42,161.48,366.42,157.93Z"/><path d="M472.2,180.92a32.25,32.25,0,0,0-4.68-.81c-12-2.47-19.65-9.63-22.77-21.37-2.71-10.18-2.4-20.35,2-30.06s12.27-15.28,23.07-16.3a30.13,30.13,0,0,1,15.77,2.42c7.82,3.63,12,10.06,13.76,18.26a40.12,40.12,0,0,1,.78,8.81c0,.52.08,1,.12,1.55v2.69c-1.1.17-2.21.35-3.32.5L458.67,152c-2.41.34-2.41.32-2,2.75,1.53,8.16,6.75,13.58,14.92,15a38.5,38.5,0,0,0,22.1-3.05c.79-.35,1.09-.37,1.42.52,1,2.7,2,5.37,3.12,8,.32.78.23,1.14-.58,1.51a51.3,51.3,0,0,1-13.15,3.54,42.15,42.15,0,0,0-5.15.66ZM471.72,122a14.75,14.75,0,0,0-11.62,5.75c-3.29,4.12-4.38,9-4.7,14.12-.11,1.74-.52,1.73,1.61,1.45,5.23-.71,10.44-1.45,15.66-2.17,4.52-.62,9-1.25,13.56-1.84.81-.11,1.18-.38,1-1.25s-.15-1.87-.25-2.79C486.09,127,480.77,122.07,471.72,122Z"/><path d="M406,180.92a23.49,23.49,0,0,0-4.25-.66,47.19,47.19,0,0,1-12-3.52c-.76-.35-1-.66-.58-1.49q1.93-4.17,3.71-8.4c.32-.75.57-.78,1.28-.45,5.3,2.52,10.81,4.15,16.76,3.74a13.37,13.37,0,0,0,5.45-1.56,8.25,8.25,0,0,0,1.06-14.21,26.8,26.8,0,0,0-6.58-3.33c-4.11-1.58-8.27-3-12-5.42-6.18-3.9-8.9-9.54-8.22-16.73s4.81-12,11.49-14.69a31.18,31.18,0,0,1,12.32-2,40.36,40.36,0,0,1,17.33,4c1,.49,1.07.91.62,1.85-1.12,2.32-2.15,4.68-3.14,7.06-.34.84-.58,1-1.47.55a27.37,27.37,0,0,0-13.55-3.36,12.9,12.9,0,0,0-5.31,1.26,8,8,0,0,0-1.41,13.69,25,25,0,0,0,6.37,3.25c3.89,1.53,7.87,2.84,11.53,4.91,4.27,2.43,7.66,5.65,8.92,10.58,2.22,8.71-.46,19.05-12.75,23.11a35,35,0,0,1-8.12,1.59c-.23,0-.54-.1-.68.22Z"/><path d="M51.12,142.07c.3-1.79.55-3.58.91-5.35,1.63-8,5.16-14.88,12-19.65a28.37,28.37,0,0,1,18.75-4.76A30.23,30.23,0,0,1,96,116.07c.85.48,1,.89.55,1.8-1.22,2.47-2.34,5-3.45,7.53-.32.75-.53.93-1.37.47-5.77-3.12-11.7-3.88-17.63-.55-4.14,2.32-6.48,6.16-7.72,10.62a35.78,35.78,0,0,0,.74,22.79c2,5.19,5.5,9,11.09,10.38A17.89,17.89,0,0,0,91.68,167c.86-.5,1.07-.27,1.39.48,1.14,2.64,2.29,5.27,3.52,7.87.37.78.27,1.14-.46,1.57a29.57,29.57,0,0,1-12.55,3.82c-.34,0-.75-.17-1,.23H77.17c-.12-.34-.43-.22-.67-.26a27.62,27.62,0,0,1-11.14-3.84c-7.67-4.79-11.6-12-13.33-20.64-.36-1.78-.61-3.57-.91-5.35Z"/><path d="M198.13,148.15c0-10.07,0-20.14,0-30.2a1.36,1.36,0,0,1,1.07-1.52,66.55,66.55,0,0,1,32.54-3.56,27.51,27.51,0,0,1,7.92,2.36c7,3.29,10.49,9,11.12,16.52.12,1.52.1,3.06.1,4.6q0,21,0,42c0,1-.25,1.26-1.24,1.24q-5.44-.09-10.89,0c-1,0-1.3-.22-1.3-1.27,0-14.07,0-28.14,0-42.22a15.77,15.77,0,0,0-1-6c-1.75-4.29-5.26-6.2-9.57-6.79a34.53,34.53,0,0,0-14.31,1.27c-.9.26-1.17.69-1.17,1.64,0,17.37,0,34.73.05,52.09,0,1.12-.31,1.34-1.36,1.32-3.6-.07-7.19-.06-10.78,0-1,0-1.26-.21-1.25-1.22C198.15,168.28,198.13,158.21,198.13,148.15Z"/><path d="M184.5,146.56c0,10.59,0,21.18,0,31.77,0,1-.2,1.26-1.22,1.24-3.67-.07-7.33-.06-11,0-1,0-1.3-.21-1.3-1.27q0-30.53,0-61.07c0-1,0-2,0-3,0-.47.13-.66.63-.65,4.08,0,8.16,0,12.24,0,.63,0,.61.35.61.79,0,1.76,0,3.52,0,5.27Z"/><path d="M177.78,86.37A7.72,7.72,0,0,1,185.64,94a7.94,7.94,0,1,1-7.86-7.66Z"/></svg>