<svg id="Layer_1" data-name="Layer 1" xmlns="http://www.w3.org/2000/svg" viewBox="0 0 532 266"><title>SVG-</title><path d="M51.69,105.43h7.38c.28,8.57,2,16.69,6.53,24.06C77,118,95,116,109.16,129.36c4.39-7.28,6.1-15.3,6.37-23.79h7.26c-.11,1.83-.15,3.68-.35,5.51-.24,2.22-.52,4.45-1,6.64a49.27,49.27,0,0,1-7,17,1.38,1.38,0,0,0,0,1.19,51,51,0,0,1,7.48,19.23c.58,3.32.68,6.74,1,10.22h-7.4a47.74,47.74,0,0,0-6.45-24.07c-6.1,5.94-13.28,9.43-21.75,9.45s-15.65-3.52-21.76-9.42c-4.57,7.43-6.19,15.53-6.49,24H51.74c.22-2.58.4-5.09.64-7.59a47.37,47.37,0,0,1,2.53-11.08A56.85,56.85,0,0,1,60.2,135.9a1.23,1.23,0,0,0,0-1.09,50.36,50.36,0,0,1-7.53-19.32C52.09,112.2,52,108.82,51.69,105.43Zm18.42,30c11.22,11.62,25.84,9.51,34.32-.08C94.43,124.52,79.78,124.91,70.11,135.47Z"/><path d="M247.74,165.45h-7.1V105.56h7.26q5.19,15.63,10.41,31.31a3.11,3.11,0,0,0,.45,1.07c.43.48,1.22.14,1.48-.61l4.05-11.74q3.33-9.63,6.69-19.26c.12-.34.57-.81.88-.82,2.15-.07,4.3,0,6.52,0v59.93h-7.12v-1.36q0-17.7,0-35.39c0-.43-.11-1.11-.38-1.25-.68-.35-1.06,0-1.31.8-2.28,7-4.61,14-6.93,21-.49,1.48-1,3-1.45,4.46a1.25,1.25,0,0,1-1.38,1c-2.79,0-2.76,0-3.64-3.08-1.85-6.58-3.75-13.14-5.63-19.7-.33-1.17-.63-2.34-1.06-3.47-.17-.44-.64-.75-1-1.12-.25.48-.71,1-.71,1.44,0,10,0,20.07,0,30.11Z"/><path d="M171.42,105.48c5.37,0,10.6-.38,15.75.1s8.84,3.39,10.9,8.24a20.14,20.14,0,0,1,1.39,9c-.19,3.56-.62,7.18-2.76,10.18a24.63,24.63,0,0,1-4,4.06c-.62.53-.91.84-.62,1.7,1.58,4.75,3.08,9.51,4.6,14.28,1.21,3.83,2.37,7.68,3.63,11.5.28.86-.11.9-.69.9-1.88,0-3.76,0-5.64,0a1.28,1.28,0,0,1-.91-.76c-2.12-6.7-4.19-13.41-6.27-20.13-.47-1.49-.92-3-1.45-4.45-.12-.32-.54-.74-.83-.75-1.83-.07-3.66,0-5.62,0v1.38c0,7.8,0,15.6,0,23.4,0,1.13-.34,1.46-1.43,1.41-1.68-.09-3.36-.05-5,0-.71,0-1.06-.23-1-1,0-.2,0-.4,0-.6V105.48Zm7.48,27.59c2,0,3.85,0,5.72,0,3.62.13,5.87-2.23,6.74-5.38a18.85,18.85,0,0,0,0-10.24c-.75-2.73-2.35-4.77-5.15-5.19a49.26,49.26,0,0,0-7.3-.08Z"/><path d="M351.17,165.42h-7.36q-2.07-6.58-4.15-13.24c-1.26-4-2.56-8-3.78-12.07-.2-.64-.47-.82-1.07-.8-1.4,0-2.8.06-4.2,0-1,0-1.3.31-1.29,1.3,0,7,0,14,0,21v3.8h-7.13V105.47h6.5c2.6,0,5.2,0,7.8,0,6,0,11.95,5,13,11.1a29.36,29.36,0,0,1-.55,12.89,13,13,0,0,1-5.25,7.34l-1.36,1C345.28,146.9,348.2,156.09,351.17,165.42Zm-21.78-32.35c2.41,0,4.69.14,6.95,0a5.62,5.62,0,0,0,5-3.47,17.67,17.67,0,0,0,.75-11.84c-.7-2.66-2.13-4.94-4.93-5.4-2.51-.42-5.14-.09-7.72-.09Z"/><path d="M356.22,105.53h7.51v28.14l.34.09c.18-.31.39-.6.54-.92q4.56-9.2,9.09-18.38c1.32-2.68,2.61-5.36,3.87-8.07a1.42,1.42,0,0,1,1.55-.94c1.91.07,3.83,0,5.92,0a3.76,3.76,0,0,1-.23,1q-3.6,6.81-7.23,13.61c-1.4,2.63-2.83,5.25-4.15,7.92a2.66,2.66,0,0,0-.14,1.86c2.15,5.87,4.36,11.71,6.55,17.56l5.64,15.16c.32.84.61,1.69,1,2.67a4.44,4.44,0,0,1-.89.19c-1.84,0-3.68.07-5.52,0a1.61,1.61,0,0,1-1.18-.83c-1.27-3.36-2.46-6.76-3.66-10.14q-2.91-8.24-5.83-16.46a6.07,6.07,0,0,0-.52-.9c-1.69,3.4-3.35,6.69-5,10a3,3,0,0,0-.21,1.26c0,5.64,0,11.28,0,17.1-2.33,0-4.63,0-6.93,0-.17,0-.41-.34-.48-.56a2.6,2.6,0,0,1,0-.84v-58.5Z"/><path d="M481,121.26H474c-.13-1.11-.22-2.16-.37-3.2a6.57,6.57,0,0,0-4.46-5.43,6.5,6.5,0,0,0-7.17,1.54,6.1,6.1,0,0,0-2.05,4.72,38.4,38.4,0,0,0,.29,5.69,6,6,0,0,0,4.19,4.66,85.26,85.26,0,0,1,9.21,3.43,12.21,12.21,0,0,1,7.12,10.05,50.6,50.6,0,0,1-.06,12c-.74,4.92-3.9,8.43-8.61,10.26a14.07,14.07,0,0,1-14.15-2,12.18,12.18,0,0,1-5.19-8.56c-.13-1.29-.14-2.6-.25-3.9-.08-.93.32-1.18,1.19-1.15q2.58.08,5.16,0c.83,0,1.11.26,1.12,1.1a18.21,18.21,0,0,0,.26,4.25,7,7,0,0,0,7.76,4.83,7.24,7.24,0,0,0,5.87-7.43c0-1.76,0-3.52,0-5.28,0-4.28-1.87-6.53-5.63-8a64,64,0,0,1-9.65-4.45,12.47,12.47,0,0,1-5.86-9.64,25,25,0,0,1,.27-9,13.54,13.54,0,0,1,10.36-10.48,13.75,13.75,0,0,1,13.4,3.52,13.22,13.22,0,0,1,4.31,9.75C481,119.41,481,120.29,481,121.26Z"/><path d="M283.94,165.47c.94-4.31,1.85-8.46,2.74-12.62,1.19-5.5,2.35-11,3.55-16.5,1-4.43,2-8.85,2.94-13.27,1.11-5.08,2.19-10.16,3.29-15.24,0,0,0-.08,0-.12.42-2.25.42-2.25,2.69-2.25,1.36,0,2.71,0,4.14,0,4.44,20,8.87,39.89,13.35,60-2.32,0-4.58,0-6.83,0-.22,0-.56-.48-.63-.78q-1.12-5.4-2.16-10.81c-.12-.65-.21-1.11-1-1.1-4.08,0-8.15,0-12.35,0-.35,1.82-.69,3.6-1,5.4-.41,2.19-.78,4.39-1.23,6.57-.06.29-.45.71-.69.72C288.47,165.49,286.25,165.47,283.94,165.47Zm11-20.23h10.39c-.81-4-1.63-8-2.4-11.91-.67-3.45-1.3-6.92-1.94-10.38-.1-.55-.26-1-1-.93s-.89.19-1,.87c-.24,1.58-.64,3.14-.93,4.71-.62,3.35-1.21,6.7-1.81,10.05C295.88,140.15,295.44,142.65,295,145.24Z"/><path d="M205,105.35c2.49,0,4.63,0,6.77.05.39,0,.92.6,1.09,1,2.24,5.82,4.44,11.66,6.76,17.81.63-1.57,1.17-2.88,1.67-4.2q2.58-6.78,5.15-13.58a1.29,1.29,0,0,1,1.44-1c2,.11,4,0,6.28,0-.39,1.1-.71,2.06-1.07,3q-3.6,9.4-7.22,18.81c-.71,1.86-1.45,3.71-2,5.6a3.69,3.69,0,0,0,0,2.23c3.54,9.43,7.14,18.84,10.73,28.25.24.64.51,1.28.84,2.1-2.59,0-5,0-7.35,0-.31,0-.74-.45-.87-.78-2.05-5.4-4.05-10.82-6.07-16.24-.52-1.38-1-2.76-1.6-4.28l-8.13,21.31H204l3.15-8.26q2.76-7.22,5.53-14.44c.9-2.37,1.75-4.76,2.69-7.11a3,3,0,0,0,.06-2.44c-2.73-7.23-5.36-14.5-8-21.75C206.68,109.51,205.91,107.6,205,105.35Z"/><path d="M398.06,158c5.13,0,10.17,0,15.2,0,1.22,0,1.62.32,1.54,1.54-.1,1.64,0,3.28,0,4.92,0,.7-.21,1-1,1q-11.46,0-22.92,0a1.26,1.26,0,0,1-.3-.09V105.54h24.08v7.11H398v18.22h13.78v7.46H398.06Z"/><path d="M163.45,121.29h-6.67c0-1.05,0-2.07,0-3.09a6.1,6.1,0,0,0-4.46-6,6,6,0,0,0-7.75,5.62c-.09,11.71-.06,23.42,0,35.14a5.93,5.93,0,0,0,5.25,5.86,6.17,6.17,0,0,0,7-6.23c0-1,0-2,0-3.06h6.62c.46,4.68-.07,9.08-3.6,12.59a13.19,13.19,0,0,1-20-1.41,12.15,12.15,0,0,1-2.5-7.32c0-12.19,0-24.39,0-36.58,0-3.77,1.93-6.75,4.76-9.11a12.54,12.54,0,0,1,7.69-2.84,13,13,0,0,1,8.77,2.82,12.82,12.82,0,0,1,4.82,8.33A36.31,36.31,0,0,1,163.45,121.29Z"/><path d="M450.49,105.47v7.19H438.1v52.72h-7.24V114.24c0-1.57,0-1.57-1.59-1.57-2.76,0-5.52,0-8.28,0-.87,0-1.22-.24-1.19-1.15.06-1.68,0-3.36,0-5,0-.68.16-1,.93-1C430.61,105.48,440.49,105.47,450.49,105.47Z"/></svg>