<svg id="Layer_1" data-name="Layer 1" xmlns="http://www.w3.org/2000/svg" viewBox="0 0 532 266"><title>SVG-</title><path d="M178.09,174h0l4-10.64h1.34l-4.66,12.25h-1.31l-4.67-12.25h1.35Z"/><path d="M213.1,174.52h6.54v1.12h-7.81V163.39h7.58v1.12h-6.34v4.18H219v1.12h-5.93v4.71Z"/><path d="M257.53,173.81h0l0-10.42h1.23v12.25h-1.57l-7.13-10.53h0v10.53h-1.23V163.39h1.57Z"/><path d="M292.73,175.64H291.5V164.47h-4.1v-1.12h9.44v1.12h-4.11Z"/><path d="M329.92,175.93a4.85,4.85,0,0,1-2.28-.48,4.35,4.35,0,0,1-1.42-1.2,4.24,4.24,0,0,1-.71-1.56,8.1,8.1,0,0,1-.18-1.61v-7.69h1.23v7.54a6.63,6.63,0,0,0,.18,1.46,3.82,3.82,0,0,0,.56,1.23,3.27,3.27,0,0,0,1.05.9,3.9,3.9,0,0,0,3.14,0,3.58,3.58,0,0,0,1-.9,3.62,3.62,0,0,0,.56-1.23,6.64,6.64,0,0,0,.19-1.46v-7.54h1.23v7.69a7.79,7.79,0,0,1-.19,1.61,4.44,4.44,0,0,1-.71,1.56,3.56,3.56,0,0,1-1.42,1.2A4.81,4.81,0,0,1,329.92,175.93Z"/><path d="M365.68,175.64h-1.23V163.39H368a6.42,6.42,0,0,1,1.68.19,4.24,4.24,0,0,1,1.35.56,2.52,2.52,0,0,1,.86,1,3.29,3.29,0,0,1,.3,1.54,3.07,3.07,0,0,1-.9,2.2,4.12,4.12,0,0,1-1,.63,5,5,0,0,1-1.23.3l3.58,5.83h-1.53l-3.4-5.72h-2v5.72Zm0-6.8h2.17a4.15,4.15,0,0,0,2.31-.56,1.8,1.8,0,0,0,.82-1.64,2.33,2.33,0,0,0-.22-1,1.79,1.79,0,0,0-.64-.67,3,3,0,0,0-1-.38,7.41,7.41,0,0,0-1.27-.11h-2.2Z"/><path d="M402.79,174.52h6.53v1.12h-7.8V163.39h7.58v1.12h-6.35v4.18h5.94v1.12h-5.9Z"/><path d="M444.45,165.37a3.43,3.43,0,0,0-1-.9,3.2,3.2,0,0,0-2.43-.18,2.43,2.43,0,0,0-.86.41,2.05,2.05,0,0,0-.6.71,2.28,2.28,0,0,0-.22,1,2.13,2.13,0,0,0,.22,1,2,2,0,0,0,.6.64,3.53,3.53,0,0,0,.86.45c.3.11.63.22,1,.33l1.27.45a4,4,0,0,1,1.15.64,3.34,3.34,0,0,1,.86,1,3.26,3.26,0,0,1,.34,1.49,3.63,3.63,0,0,1-.34,1.57,3.43,3.43,0,0,1-2.16,1.72,5.27,5.27,0,0,1-1.46.22,6.07,6.07,0,0,1-1.12-.11,5.07,5.07,0,0,1-1-.34,4.49,4.49,0,0,1-.94-.56,3.43,3.43,0,0,1-.74-.78l1.08-.79a3.16,3.16,0,0,0,1.12,1.09,3.43,3.43,0,0,0,2.65.29,3.88,3.88,0,0,0,.86-.44,2.09,2.09,0,0,0,.63-.75,2,2,0,0,0,.26-1.05,2.18,2.18,0,0,0-.26-1.08,2.07,2.07,0,0,0-.67-.71,4.82,4.82,0,0,0-.93-.48c-.38-.11-.75-.26-1.12-.38a8.3,8.3,0,0,1-1.2-.44,3.84,3.84,0,0,1-1-.64,3.28,3.28,0,0,1-.75-1,3.44,3.44,0,0,1,.08-2.91,3.14,3.14,0,0,1,.93-1.05,3.88,3.88,0,0,1,1.27-.59,5.22,5.22,0,0,1,1.38-.19,4.14,4.14,0,0,1,2.13.45,3.56,3.56,0,0,1,1.34,1Z"/><path d="M215.19,134.91l5.08,4.51c-6.53,6-13.77,8.93-21.61,8.93a29.12,29.12,0,0,1-21.43-8.74,29.55,29.55,0,0,1,0-42,29.09,29.09,0,0,1,21.43-8.81q11.81,0,21.61,9l-5.08,4.55c-5.33-4.7-10.82-7-16.53-7.09A21.91,21.91,0,0,0,182.6,102a23.66,23.66,0,0,0,0,33.15,21.9,21.9,0,0,0,16.05,6.75C204.33,142,209.86,139.61,215.19,134.91Z"/><path d="M234.68,128.67v19h-7.32V89.55h20.13a20.34,20.34,0,0,1,12.17,5.89,18.57,18.57,0,0,1,5.71,13.63,18.86,18.86,0,0,1-5.86,13.81c-2.58,2.62-4.89,4.19-6.87,4.63l13.07,20.16h-8.48l-12.24-19-4.33-6.38h4.7a12.24,12.24,0,0,0,8.88-3.77,12.82,12.82,0,0,0,3.81-9.45,12.64,12.64,0,0,0-3.81-9.37,12.24,12.24,0,0,0-8.88-3.77H234.72v26.36"/><path d="M286.16,124.19l-20-34.64h8.1l15.57,26.91,15.53-26.91h8.1l-20,34.64v23.52H286.2Z"/><path d="M326.59,128.67v19h-7.31V89.55h16.65a20.57,20.57,0,0,1,12.17,5.89,18.57,18.57,0,0,1,5.71,13.63A19,19,0,0,1,348,122.85a19.22,19.22,0,0,1-14.22,5.82Zm0-32.74v26.36h7.21a12.28,12.28,0,0,0,8.89-3.77,12.85,12.85,0,0,0,3.8-9.45,12.67,12.67,0,0,0-3.8-9.37,12.28,12.28,0,0,0-8.89-3.77Z"/><path d="M378.94,95.89v51.82h-7.28V95.89H357.77V89.55h35.05v6.34Z"/><path d="M445.39,97.54a29.47,29.47,0,0,1,0,42,30.52,30.52,0,0,1-42.9,0,29.56,29.56,0,0,1,0-42,30.52,30.52,0,0,1,42.9,0Zm-21.51-2.43a22.06,22.06,0,0,0-16.09,6.79,23.77,23.77,0,0,0,0,33.27,22.51,22.51,0,0,0,32.22,0,23.75,23.75,0,0,0,0-33.27A21.91,21.91,0,0,0,423.88,95.11Z"/><path d="M111,85.66a46.67,46.67,0,1,0,46.66,46.67A46.69,46.69,0,0,0,111,85.66Zm0,88.15a41.48,41.48,0,1,1,41.48-41.48A41.47,41.47,0,0,1,111,173.81Z"/><rect x="129.14" y="115.9" width="5.19" height="5.19"/><rect x="122.24" y="115.9" width="5.19" height="5.19"/><rect x="122.24" y="109" width="5.19" height="5.19"/><rect x="115.33" y="109" width="5.19" height="5.19"/><rect x="108.42" y="109" width="5.19" height="5.19"/><rect x="108.42" y="157.38" width="5.19" height="5.19"/><rect x="101.48" y="109" width="5.19" height="5.19"/><rect x="94.57" y="109" width="5.19" height="5.19"/><rect x="94.57" y="115.9" width="5.19" height="5.19"/><rect x="87.67" y="115.9" width="5.19" height="5.19"/><rect x="94.57" y="122.81" width="5.19" height="5.19"/><rect x="87.67" y="122.81" width="5.19" height="5.19"/><rect x="94.57" y="129.75" width="5.19" height="5.19"/><rect x="87.67" y="129.75" width="5.19" height="5.19"/><rect x="94.57" y="136.66" width="5.19" height="5.19"/><rect x="87.67" y="136.66" width="5.19" height="5.19"/><rect x="94.57" y="143.57" width="5.19" height="5.19"/><rect x="87.67" y="143.57" width="5.19" height="5.19"/><rect x="122.24" y="150.47" width="5.19" height="5.19"/><rect x="115.33" y="150.47" width="5.19" height="5.19"/><rect x="108.42" y="150.47" width="5.19" height="5.19"/><rect x="101.48" y="150.47" width="5.19" height="5.19"/><rect x="94.57" y="150.47" width="5.19" height="5.19"/><rect x="108.42" y="102.09" width="5.19" height="5.19"/><rect x="129.14" y="143.57" width="5.19" height="5.19"/><rect x="122.24" y="143.57" width="5.19" height="5.19"/></svg>