<svg id="Layer_1" data-name="Layer 1" xmlns="http://www.w3.org/2000/svg" viewBox="0 0 532 266"><title>SVG-</title><path d="M189.12,128.51c.16-1,.37-2,.47-2.95a84,84,0,0,1,2.87-14.38,78.18,78.18,0,0,1,6.31-15.39,64.92,64.92,0,0,1,8.07-12c2.36-2.73,4.71-5.49,7.3-8A80.91,80.91,0,0,1,230.5,63.52a69,69,0,0,1,16.5-7c4.12-1.08,8.31-1.87,12.49-2.65A51.66,51.66,0,0,1,272.73,53a121.5,121.5,0,0,1,13.46,1.64A103.19,103.19,0,0,1,299.08,58a67.84,67.84,0,0,1,15.18,7.37,86.17,86.17,0,0,1,11.5,8.82,84.46,84.46,0,0,1,15.79,19.34,76.42,76.42,0,0,1,7.22,16.15,72.12,72.12,0,0,1,3.06,13.83c.33,3,.58,6,.71,9a72,72,0,0,1,0,8.18,79.74,79.74,0,0,1-2.71,15.86,81.44,81.44,0,0,1-6.47,16.33,74,74,0,0,1-9,13.59c-2.18,2.56-4.38,5.14-6.79,7.48A79.22,79.22,0,0,1,312,205.71a72.26,72.26,0,0,1-17.54,7.5c-4.07,1.09-8.23,1.86-12.37,2.65a70.61,70.61,0,0,1-16.17.68,76.06,76.06,0,0,1-15.55-2.44,82.26,82.26,0,0,1-18.85-7.42,68.54,68.54,0,0,1-13.08-9c-2.52-2.24-5.05-4.5-7.38-6.93a74.79,74.79,0,0,1-10.23-13.51,78.58,78.58,0,0,1-7.65-16.61,108,108,0,0,1-2.78-11.25c-.54-2.69-.69-5.46-1-8.19,0-.09-.14-.16-.21-.25Zm79.34-73.44c-18.56.32-36.92,7.38-52.17,21.77C200.21,92,191.66,110.89,191.13,133s7.09,41.28,22.38,57.15,34.19,24.15,56.18,24.46,41-7.38,56.68-22.65,23.93-34,24.19-55.81C351.1,90.8,314.73,55.22,268.46,55.07Z"/><path d="M271.84,69.71a65.26,65.26,0,0,1,64.08,65.64c-.15,18.21-6.95,33.88-20.11,46.53a65,65,0,0,1-92.15-2.22,62.92,62.92,0,0,1-17.9-45.88c.31-18.36,7.34-34,20.79-46.6C238.34,76.16,253.57,69.9,271.84,69.71Zm-62.13,64.82c.29,16.68,5.91,30.93,17.26,42.69a60.8,60.8,0,0,0,86.15,1.57c11.82-11.35,18.29-25.43,18.73-41.81a61.08,61.08,0,0,0-58.57-63.15A59.32,59.32,0,0,0,229.12,90.4C216.36,102.38,210.06,117.36,209.71,134.53Z"/><path d="M223.76,184.84c-1.54,1.41-3,2.68-4.37,4.07-.37.37-.36,1.11-.53,1.7-1-.9-2-1.88-3.08-2.86l.06-.35c1.48.93,2.07-.23,2.84-1,1.12-1.07,2.23-2.16,3.34-3.24-.77-.95-1.48-1.75-2.93-.72l.73-1.68-1.45.6c.11-.51.32-.89.24-1.2a3.35,3.35,0,0,0-.74-1.36c-.1-.11-.72.11-1,.31-1.22.93-2.46,1.85-3.58,2.89a6.36,6.36,0,0,0-.86,1.86c-1.18-.49-1.53-2.15-3-3.1.49-.17.89-.39.94-.32.6.71,1.08.21,1.53-.13,1.26-.94,2.45-2,3.74-2.87.91-.63.66-1.09,0-1.65a3.59,3.59,0,0,1-.46-.51l-1.28.38-.23-.2,1.47-1.7,10.88,12.61-1.72,1-.18-.26.69-1.2Z"/><path d="M330.5,182.61c-1.29,1.94-2,2.16-4.71,1.52-.34-.08-.69-.13-1-.18-.72-.1-1.23-.3-.88-1.21a1.52,1.52,0,0,0-1-2.18c-1-.35-1.35.43-1.71,1.09,1.3,1.17,2.61,2.3,3.86,3.5.64.61,1.19,1.15,2.09.51.09-.06.29,0,.66.1l-3,3.32-.32-.14.15-1.29c-1-.84-2-1.69-3-2.58s-1.75-2.09-3.44-1.51l-.07-.33c1.47-1.52,2.88-3.1,4.45-4.5a1.79,1.79,0,0,1,1.79.09,6.14,6.14,0,0,1,1,2.22c.07.2-.15.51-.27.9Z"/><path d="M241.32,196.21a4.5,4.5,0,0,1,1.13.15c1.64.63,3.24,1.34,4.88,2,1.93.73,2.86,2.79,1.79,5.07-1.17,2.54-3.28,3.43-6.15,2.56-1.12-.33-2.22-.75-3.31-1.17-.44-.17-.78-.32-.42-1a60.51,60.51,0,0,0,2.57-5.76C242,197.57,241.53,196.9,241.32,196.21Zm.25,8.28a9.7,9.7,0,0,0,2.68.76c1.41,0,3.13-2.3,3.19-3.93a3.21,3.21,0,0,0-2.87-3,.8.8,0,0,0-.69.3C243.1,200.48,242.38,202.4,241.57,204.49Z"/><path d="M236.77,75,238,75c-.12.74-2.12,2.07-3.4,2.3.27-2.81-1.86-4.62-2.93-6.87-.12-.26-.77-.27-1.44-.48.56-.36,1-.69,1.45-.93,1.28-.68,2.58-1.31,3.86-2a1.26,1.26,0,0,1,1.77.36,4.68,4.68,0,0,1,.65,2c0,.44-.32.92-.54,1.49l4.47,2.27a2.29,2.29,0,0,1-3.33.72c-.88-.52-1.79-1-2.69-1.46a2,2,0,0,0-.53-.09ZM235,71.84c1.65-1.34,1.83-2.27.51-3.06-.36-.22-1,.07-1.57.2a.66.66,0,0,0-.16.6C234.15,70.35,234.58,71.08,235,71.84Z"/><path d="M257.57,210c-1.71.17-2.5-.32-3-1.77-.29-.81-.55-1.63-.9-2.41s-.32-1.32.7-1.52a1.85,1.85,0,0,0,1.06-.68,1.63,1.63,0,0,0,.32-1.28,2,2,0,0,0-1.18-.83,1,1,0,0,0-.84.53c-.46,1.77-.9,3.55-1.19,5.36-.07.47.44,1,.79,1.79l-4.21-1-.09-.28c1.88-.48,1.51-2.18,2-3.41a13.88,13.88,0,0,0,.45-1.93c.23-.93.58-1.86-.66-2.56l.31-.29c.92.18,1.84.34,2.76.54s1.66.42,2.49.62a1.84,1.84,0,0,1,1.61,1.78,2.37,2.37,0,0,1-1.42,2.14c-.3.15-.63.24-1,.37Z"/><path d="M347,129.48l.33,3.62a12.55,12.55,0,0,0-8.81.66c.17.12.05.08.05,0-.13-2-.32-3.93-.33-5.9a1.75,1.75,0,0,1,1.08-1.21,2.24,2.24,0,0,1,2.51.58c.2.24.35.51.59.86l4-3.22.41.17c-.1.77.07,1.81-.36,2.27a42.74,42.74,0,0,1-4,3.34c-.29-.65-.36-1.17-.65-1.4-.46-.35-1.13-.77-1.59-.66s-.91.79-1.09,1.31a.71.71,0,0,0,.8,1c1.57-.16,3.14-.25,4.69-.5A11.8,11.8,0,0,0,347,129.48Z"/><path d="M273,67c.19-2,.34-4,.59-5.89.17-1.34.23-1.33-.8-2.64a18.25,18.25,0,0,1,7.14.69c2.37.82,3.1,3.75,1.67,6s-2.7,2.32-5.2,2.19c-.6,0-1.2,0-1.8,0A14.92,14.92,0,0,1,273,67Zm2.82-7.32c-.09.94-.19,1.8-.25,2.66s0,1.82-.17,2.72.14,1.44,1.14,1.52c2.55.21,4.15-2.6,3.32-5.07C279.36,59.89,278.39,59.51,275.86,59.69Z"/><path d="M321.14,77.37c2,1.17,2.55,2.65,2.09,5a24.86,24.86,0,0,0-.35,4.27c1-1.38,3.54-1.58,3.15-3.88l2.23,2.09c-1.39-.65-2,.5-2.74,1.26-1.08,1.06-2.13,2.16-3.22,3.21a8.42,8.42,0,0,1-1.25.83c-.95-3.08.21-5.9,0-8.88l-3.56,3.26.4,1c-1.55.15-1.88-1.12-2.64-2,3-.06,4-2.77,5.91-4.25.16-.13,0-.65,0-1S321.17,77.74,321.14,77.37Z"/><path d="M309.77,193.81c1.48,1.12,1.63,3.62,4.32,4l-2.62,2-.25-.18.49-1.42c-1.06-1.48-2.2-3-3.28-4.61-.37-.53-.62-1-1.39-.59-.15.08-.48-.17-.75-.28a3.65,3.65,0,0,1,4.19-1.36,51.14,51.14,0,0,0,5.49,1.34c-1.37-1.3-1.57-3.75-4.35-3.89l2.74-2.06c.15.15.26.22.25.24-.63,1.38.29,2.27,1,3.24,1.08,1.48,2.12,3,3.24,4.55-2,.84-3.72-.17-5.47-.46-1.16-.19-2.3-.53-3.46-.8Z"/><path d="M332.21,107.09a5.35,5.35,0,0,1-.18-2c.85-2.3,1.82-4.55,2.67-6.94-1.44,1.39-4.14,1-4.77,3.89l-1.48-2.83c2.17.72,3.35-1,4.91-1.55a11.56,11.56,0,0,0,1-.58c.91-.4,1.72-.85,1.37-2.13A2.66,2.66,0,0,1,337,98.36c-.75,2-1.58,4-2.48,6.25,1.68-1.23,4-1.23,4.6-4l1.73,3.22c-2.36-1.29-3.7.92-5.44,1.47A19,19,0,0,0,332.21,107.09Z"/><path d="M241,196c-1.35,0-1.78.91-2.28,1.81-.88,1.57-1.81,3.11-2.71,4.67-.41.72-.84.56-1-.09-.45-1.52-.84-3.07-1.2-4.62a24.87,24.87,0,0,0-.83-3.33c-.54.95-1.09,1.89-1.62,2.85-.36.67-1.22,1.31-.23,2.14-.19.14-.45.43-.54.39-.86-.45-1.69-1-2.67-1.53,2.83-.39,2.9-3,4.2-4.54a1.79,1.79,0,0,0,0-2.76c2.16.35,2.86,1.16,3.13,3a47.34,47.34,0,0,0,1.2,5.49c.64-1.61,2.5-2.72,1.85-4.89C239.51,194.32,240.17,195.24,241,196Z"/><path d="M208.63,94.71c1.37.92,2.45,1.62,3.5,2.37.51.36,1,.64,1.58.21.11-.07.33,0,.49,0,0,.17,0,.38-.06.51-.54.77-1.1,1.52-1.65,2.27,0,0-.09,0-.1-.08-.46-3-3.5-3.39-5.27-5.07-.24-.22-1,.11-1.57.19.51-1.94,1.4-2.58,3.36-2.65s3.66-.25,5.79-.4c-1.3-.94-2.28-1.72-3.35-2.36-.35-.21-.92,0-1.39-.11a2.46,2.46,0,0,1-.65-.28L211,86.87h.38c-.54,2.16,1.41,2.3,2.37,3.19a26.3,26.3,0,0,0,3.43,2.45c.78.51.55.91-.13,1.12a13.82,13.82,0,0,1-2.63.55C212.63,94.39,210.79,94.52,208.63,94.71Z"/><path d="M194.66,125a13,13,0,0,1,1.54-1.52c.93-.64,1.94-1.16,2.92-1.74a30.89,30.89,0,0,0,2.79-1.82c-1.89-.11-3.74-1.5-5.93.11l.54-3.27.36-.14c.07,1.93,1.61,1.47,2.6,1.78a17.35,17.35,0,0,0,3.79.7c.49,0,1-.46,1.52-.71a2.39,2.39,0,0,1-1.13,3.14c-.89.57-1.85,1-2.75,1.58s-1.69,1.12-2.78,1.85a13,13,0,0,1,3.16.5c1.2.54,1.8-.31,2.71-.92-.1.75-.15,1.28-.24,1.81s-.22,1.07-.34,1.61c-.06,0-.19.06-.2,0-.9-2-2.89-1.44-4.44-1.86-1.27-.34-2.59-.52-3.89-.77Z"/><path d="M328.66,87.47c2.7-.25,5.17,2.78,5.13,5.16S332,96.87,329.06,97c-2.5.16-4.94-2.55-5.09-5.1C323.84,89.91,326.39,87.09,328.66,87.47ZM328,95.39a5.25,5.25,0,0,0,4.29-3.62c.26-1.33-1.63-3.17-2.92-2.78a5.42,5.42,0,0,0-3.59,2.79A2.42,2.42,0,0,0,328,95.39Z"/><path d="M319.42,76.4l-1.89,1.65c0-.94.25-1.78-.06-2.27a4.88,4.88,0,0,0-2-1.71c-1.55-.72-3.88.59-4.4,2.33a3.27,3.27,0,0,0,.74,3.57c1.18,1.15,1.81,1.06,2.6-.46l-.93-1.07c1.19,0,2.22.54,3.48,1.93-.58.61-1.14,1.25-1.77,1.82a1.21,1.21,0,0,1-.86.23,6.93,6.93,0,0,1-5.23-4.8c-.5-1.87.36-3.18,1.63-4.34a3.66,3.66,0,0,1,3.74-.75A8.49,8.49,0,0,1,319.42,76.4Z"/><path d="M200.38,104.57l1.94-3.86c.15.07.26.09.27.14.16.5.15,1.27.48,1.45a21.42,21.42,0,0,0,4.85,2.28c1.16.31,1.51-1,1.87-2s-.34-1.48-1-1.87c-1.3-.79-2.68-1.47-4.08-2.22l-1,.79a2.53,2.53,0,0,1,1.36-3c-.14,1.23.82,1.52,1.6,2s1.53.79,2.3,1.19c2.23,1.15,2.59,2.68,1.49,5s-2.48,2.8-4.86,1.62c-.42-.21-.85-.42-1.28-.61C203.14,104.89,202,103.69,200.38,104.57Z"/><path d="M232.25,190.42l-1.75,1.63c0-1.74-.41-2.7-1.63-2.74-.7,0-1.44,1-2.09,1.63.91.18,1.15,2.15,2.36.69a2.1,2.1,0,0,1-1.2,2.51l-1.49-2.56-2,2.61c1.05.94,1.94,2.41,3.76.86l.08.37-1.53,2-4.85-3.81,4.88-5.84-.53-1.56.24-.17Z"/><path d="M229,81.54a22,22,0,0,0-1.06-2.34c-.67-1.1-1.49-2.11-2.18-3.2a2.73,2.73,0,0,0-2.36-1.26l5.68-4.16,1.21,2.17c-1.51-.52-2.72-.46-3.46,1.13l1.27,2c.81-.55,1.92-.86,1.57-2.26l.34-.14,1.69,2.33-.23.41c-1.21-1.07-1.84,0-2.71.5l1.78,2.4,2.18-1.52L232.56,76l.34-.15,1.34,2Z"/><path d="M306.17,201.36a7.43,7.43,0,0,0,2.08-1.15c.38-.42.31-1.23.69-1.85l1,2.23-5.28,2.85-3.43-6.9-1.46-.09,0-.37,6.12-3.34.74,2.28c-2.15-.72-2.33-.67-3.48.69l1,2c0,.06.12.09.42.32l2-2.15,1.53,2.86c-1.24-.63-2.24-1-3.22.13Z"/><path d="M336,160.19c-2.1-.66-1.42,1.52-2.7,2l2.81,1.34c.53-1,1.19-1.81.17-2.83l.21-.2,2.69,1.18.09.32c-1.34-.06-2,.57-2,1.92l2.55,1.11c.79-1.37.79-1.37.38-4l2.2,1c-.83,1.91-1.64,3.75-2.47,5.64l-4.14-2.07a13.91,13.91,0,0,0-2.15-.92,2.87,2.87,0,0,0-1.23.19l-.91.2,2.77-6.64C334.73,159.12,336,158.91,336,160.19Z"/><path d="M262.42,206.73l-.34,3c2.21.44,2.73.29,3.83-1a9.37,9.37,0,0,1,0,1.59c-.05.28-.39.76-.56.75-2-.15-4-.37-5.83-.55.85-3,1.75-5.71.53-8.76l6.69.69-.49,2.12c-.62-1.71-2.18-1.19-3.35-1.58l-.36,2.62c1.22.69,2.07.44,2.63-.82l.33.15-.36,3.48c-.53-.7-.76-1.25-1.17-1.48A3.89,3.89,0,0,0,262.42,206.73Z"/><path d="M262.35,67.6c.27-3,.47-5.87-1.14-8.62l6.57-.6v2.47c-1-1.07-2-1.89-3.65-.9l.53,2.54,2.22-.79c.59.15.63.33.39,2.49-.21-.07-.56-.11-.58-.2-.17-1.09-1-.79-1.58-.69-.85.14-.66.87-.61,1.43a15,15,0,0,0,.33,1.73C267.5,66,267.5,66,268,64.65c.93.56.46,1.44.44,2.13,0,.19-.73.48-1.15.51C265.72,67.44,264.1,67.5,262.35,67.6Z"/><path d="M339.22,118.73l3.13-.65.15.28c-.33.37-.81.71-.92,1.14a4.46,4.46,0,0,0,.23,1.62l3-.59c-.27-1.4-.12-3-2.07-3.37a5.26,5.26,0,0,1,.82-.34c1.2-.34,1.58-.07,1.81,1.19.28,1.53.6,3.06.91,4.63-2.77.34-5.62.36-8.29,1.89a15.09,15.09,0,0,1-1.29-6.25H339c-1.92,1.07-1.06,2.27-.71,3.5a20.22,20.22,0,0,0,2.09-.28.77.77,0,0,0,.4-.62,4.22,4.22,0,0,0-.62-1.44c-.18-.24-.63-.28-.95-.41Z"/><path d="M208,178.19a6.31,6.31,0,0,1-2.07-4L207,175a1.42,1.42,0,0,0,.58-2.13c-.84-1.5-1.22-1.72-2.56-1.33l-.14,1.09-.3.13-1.6-2.44c1.51-.1,2.89-.14,4.27-.3s2.85-.47,4.29-.63c.42,0,1.11,0,1.25.3a1.53,1.53,0,0,1-.13,1.34c-1,1.53-2.18,3-3.22,4.5A28.83,28.83,0,0,0,208,178.19Zm2.44-7.64-2.74.5,1.05,1.72c.38-.44.67-.74.92-1.07S210.12,171,210.41,170.55Z"/><path d="M199.07,142.72c-1.23.53-3.1-.48-3.59,1.78l-.38-.14-.54-4.22.23-.2c1.22,1.88,2.81.65,4.24.64a11.75,11.75,0,0,0,2.57-.33,8.15,8.15,0,0,0,1.63-.86c.15,1,.36,2.19.52,3.42a11.52,11.52,0,0,1,0,1.44c0,1.61-.34,2.14-1.46,2.26-1.71.19-2.79-.44-3.08-1.86A15.46,15.46,0,0,1,199.07,142.72Zm.62,0c.63,1.91,1.72,2.41,2.74,1.34a1.44,1.44,0,0,0,.3-1.15c0-.22-.58-.47-.9-.47A17.24,17.24,0,0,0,199.69,142.74Z"/><path d="M196.79,153.69c.34.08.62.06.75.19.36.38.78.68,1.14.18a2.66,2.66,0,0,0,.51-1.47,3.41,3.41,0,0,0-.5-1.55c-.37-.65-.92-.82-1.51-.21a8.78,8.78,0,0,0-.73.91l-.95-3.08a27.44,27.44,0,0,0,2.69.81c1.89.34,3.8.58,5.69.9a6.73,6.73,0,0,1,1.31.49c-.24.51-.34,1.16-.73,1.49-1.22,1-2.56,1.94-3.82,2.94-.95.74-1.85,1.54-2.82,2.37Zm5.7-2.55L201.2,151l-1.39-.19.47,2.07Z"/><path d="M194.7,128.94l6.07.53a2.25,2.25,0,0,0,2.42-.9v6.86c-.62-.12-1.23-.22-1.84-.35-.08,0-.14-.18-.28-.36,1.64-.46,1.21-1.76,1.24-3.18-.9,0-2-.24-2.57.2-.84.69-.11,1.55.94,2.36h-3.13c.26-.84,1.8-1.39.75-2.67h-2.9c.08,1.21-.61,2.62,1.23,3.13.08,0,.18.35.14.38a.9.9,0,0,1-.55.27c-.57-.07-1.14-.21-1.86-.36Z"/><path d="M287.83,68.14l.66.88-.13.35-2.77-.67c1.42-1.63,2.76-3.15,4.08-4.7.53-.63,1-1.34,1.56-1.91a1.57,1.57,0,0,1,1.23-.4c.26.06.51.65.56,1,.28,2.18.46,4.38.77,6.56a10,10,0,0,0,.88,2.1l-4.11-1.28c1.08-1.13,1.29-2,.7-2.46A2.46,2.46,0,0,0,287.83,68.14Zm3.63-1.39L291.09,64l-1.64,2.09Z"/><path d="M337.25,143.71c1.28-.49,2.21-.92,3.18-1.2,2.12-.61,4.37-.86,6.23-2.22,0,0,.15,0,.46.07l-.51,3.85c-.7-.34-1.23-.82-1.67-.75a1.35,1.35,0,0,0-1,1.63c0,.29-.28.67-.18.89a2.58,2.58,0,0,0,.91,1.07c.2.12.64-.13,1-.25a6.21,6.21,0,0,0,.8-.53l-.6,3.57c-1.76-2.52-4.53-3.08-6.62-4.62C338.64,144.83,338.13,144.4,337.25,143.71Zm3.12,1,2.39,1.39L343,144Z"/><path d="M291.9,208.36c-.81.11-2.12.94-4,.47l1.15-.75-.77-1.38a9.83,9.83,0,0,0-2.09.39,2,2,0,0,0-1,1.14c-.08.32.4.79.72,1.38l-2.63.84c0-.31-.11-.53,0-.6,1.35-1.32,1-3.15,1.39-4.75.27-1.1.3-2.26.54-3.37.08-.36.52-.93.73-.91a2.07,2.07,0,0,1,1.28.72c1.15,1.53,2.23,3.12,3.32,4.69C291,207,291.49,207.73,291.9,208.36Zm-4.34-2.65-1.66-2.23-.34,2.72Z"/><path d="M241.65,70.29a3.54,3.54,0,0,1,.88.43c1,1.06,1.92,1.25,3,.38a1.89,1.89,0,0,0,.56-1.5c-.05-.33-.74-.76-1.17-.8a8.91,8.91,0,0,0-2.23.2,2.08,2.08,0,0,1-2.43-1.4,2.92,2.92,0,0,1,.9-3.23,9,9,0,0,1,2.55-1.1c1.35-.32,1.84.35,1.65,2.28a3.79,3.79,0,0,0-1.08-.74,2.86,2.86,0,0,0-1.78,0c-.38.22-.42,1-.62,1.55a17.12,17.12,0,0,0,1.68.52,2.15,2.15,0,0,0,.93-.11c1.58-.39,2.36-.13,2.9,1s.25,3.13-.74,3.78a11,11,0,0,1-2.5,1.25c-1.31.43-2,0-2.26-1.39C241.86,71.11,241.79,70.85,241.65,70.29Z"/><path d="M208.54,162.06l-2.5.36c.19-.36.23-.53.33-.61a1.72,1.72,0,0,0,.21-2.9,1.33,1.33,0,0,0-1.14-.22,1.28,1.28,0,0,0-.68.91,13,13,0,0,0,.17,1.74c0,1,.36,2.23-.68,2.7a4.87,4.87,0,0,1-3,.21c-1.56-.39-2-1.83-2.25-3.28a13.27,13.27,0,0,1,0-1.91l2.34-.4.09.31-.85.73a1.7,1.7,0,0,0,.07,2.67,2,2,0,0,0,1.62.39c.33-.1.55-.83.69-1.32a1.7,1.7,0,0,0-.15-1,2.3,2.3,0,0,1,1.27-3.23,2.86,2.86,0,0,1,3.67,1.56,8.34,8.34,0,0,1,.59,1.53A16.67,16.67,0,0,1,208.54,162.06Z"/><path d="M297.59,63.23,301.73,65l-.08.33-1.36.19v5l3.47-3.73-.45-.42c.14-.11.25-.25.31-.23.85.24,1.71.49,2.54.78.14,0,.2.31.29.47l-.52.23a4.09,4.09,0,0,0-1.11.54c-1.47,1.33-2.88,2.73-4.35,4.07a21,21,0,0,1-1.94,1.36,10.19,10.19,0,0,1-.33-4.85C298.31,67,298.7,65.21,297.59,63.23Z"/><path d="M223.39,82.56l-1.92-4.82a5.66,5.66,0,0,1-.72.14,2.44,2.44,0,0,1-.59-.07c.08-.2.1-.46.24-.59.64-.59,1.31-1.13,2-1.76a15.35,15.35,0,0,0,.39,2.58c.63,2,1.39,3.9,2,5.86a4.41,4.41,0,0,1,.07,1.21,4.24,4.24,0,0,1-1.43,0c-2-.81-3.93-1.74-5.93-2.54a13.19,13.19,0,0,0-2.34-.44c1.19-1,1.9-2.34,3.58-2.94l-.34,1.34,4.69,2.27Z"/><path d="M290.24,199.85l4.22-1.59.2.4-.69.9,3.87,4.22a49.27,49.27,0,0,0-.06-4.93c0-.46-.82-.85-1.35-1.36l2.73-1.07c-.12,1.77-.25,3.47-.36,5.16-.08,1.34-.14,2.69-.25,4-.05.62-.41.84-1,.51a4.54,4.54,0,0,1-.93-.7c-1.38-1.43-2.69-2.93-4.12-4.3A11,11,0,0,0,290.24,199.85Z"/><path d="M342.51,150.76l-2,2.26c1.64.59,2.94,1.28,4.23-.11l.28.22-1.22,4.1c-.23-1.5-1.51-1.45-2.41-1.76s-2.14-.47-3.18-.82a2,2,0,0,0-2.44.57l-.3-.17,1.57-6.46,2.31.8.16.33c-1.65-.09-2.16.85-2.26,2.35l2.37.88a1.5,1.5,0,0,0-.1-2.45l.2-.24Z"/><path d="M255.25,69c2-1.66.19-3.47.26-5.13a10.21,10.21,0,0,0-.53-2.58c-1.4-.26-2.06.44-2.2,1.86l-.31-.16-.78-2.26,7.93-1.53c.06,0,.14,0,.25.09v2.46c-.47-.57-.72-1.17-1.12-1.29s-1,.13-1.73.26c.28,1.55.56,3.11.85,4.66,0,.08.11.15.11.21-.06,1.18.31,2,1.76,2l0,.37Z"/><path d="M328.1,171.34c.13-1.21,1-2.32,1.92-3.71.3,2.69,2.71,2.68,4.11,3.84a13.79,13.79,0,0,0,1.77,1c1.2-1.18,1.65-2.36.43-3.8l.34-.22a9.06,9.06,0,0,1,1.88,1.29c.17.19-.24,1-.49,1.44-.74,1.37-1.54,2.71-2.2,3.88-2-1.17-3.86-2.35-5.8-3.42A7,7,0,0,0,328.1,171.34Z"/><path d="M277.72,211h-6.05c0-2.23.07-4.42,0-6.59,0-.55-.6-1.06-1-1.65h4c-1.3.78-1.19,1.81-.92,3a24.7,24.7,0,0,1,.09,3c0,.46.37,1.27.57,1.27.87,0,2,.56,2.52-.67a1.68,1.68,0,0,1,.76-.85Z"/><path d="M314.7,186.55c1.19-1,1.8-2.57,3.63-2.89l-.59,1.35,4.46,4.86,1.26-.16.21.32-3.12,3c.61-1.84-.83-2.59-1.76-3.59-.5-.55-1-1.16-1.47-1.69C316.63,187,316.05,186,314.7,186.55Z"/><path d="M253.62,69.36l-4.54,1.35a7.41,7.41,0,0,1,.21-.8c.16-.42.57-.89.48-1.24a47.37,47.37,0,0,0-1.65-5.23c-.18-.46-.93-.7-1.57-1.14L250.94,61c0,.27.12.51.08.54-1.46.75-.54,1.85-.38,2.79a21.63,21.63,0,0,0,.73,2.46C251.79,68.16,251.79,68.16,253.62,69.36Z"/><path d="M307.47,67.7l3.74,2.3c-.07.12-.1.24-.13.24-1.71,0-2.08,1.45-2.76,2.55-.45.73-.79,1.55-1.3,2.23s-.85,1.37.35,2.06c-2,.23-3-1-4.31-1.84,2.59-.13,2.49-2.62,3.68-3.95a3.44,3.44,0,0,0,.58-.88c.26-.59.95-1.15.16-1.86C307.37,68.44,307.47,68.1,307.47,67.7Z"/><path d="M221.46,88.55l-3,3.11-.31-.14c.52-1.27-.19-1.85-1.09-2.46a20.72,20.72,0,0,1-2.5-2.2c-.65-.62-1.19-1.49-2.22-.41-.09-1.17,1.64-3.2,2.95-3.53-.7,1-.35,1.58.55,2.18a18.23,18.23,0,0,1,2.82,2.53c.73.76,1.42,1.37,2.53.49Z"/><path d="M338.53,134.62c1,1.71,2.65,1,4.05,1.1a10.89,10.89,0,0,0,2.11.19,12.2,12.2,0,0,0,2.23-.67v3.92c-.48-1.2-1.37-1.36-2.46-1.3-1.28.07-2.56-.06-3.84,0a10.42,10.42,0,0,0-2.09.61Z"/><path d="M339,113.87a2.5,2.5,0,0,1-2.25-2.39,2.39,2.39,0,0,1,4.78,0A2.6,2.6,0,0,1,339,113.87Z"/><path d="M202.24,109.31c1.56,0,2.25.69,2.24,2.21a2.28,2.28,0,1,1-4.56.09A2.11,2.11,0,0,1,202.24,109.31Z"/><path d="M331.18,178.71c1.28,1,1.95,3.3,1.28,4.48C330.08,180.62,330,180.45,331.18,178.71Z"/><path d="M287,60l-3.46,3.19-.45-.33a13.88,13.88,0,0,1,1.63-3c.34-.39,1.37-.18,2.09-.24Z"/><path d="M280.74,201.3c-.32,2.44-.95,3.57-2.23,4.1C278.17,203,278.83,201.76,280.74,201.3Z"/><path d="M266.34,56.13a3,3,0,0,1-2.73,2.21A2.64,2.64,0,0,1,266.34,56.13Z"/><path d="M247.44,173.79c0-4.5,0-8.94,0-13.37a2.39,2.39,0,0,1,.88-1.46,4.49,4.49,0,0,0,1.5-3.69c-.12-4.9-.17-9.81-.26-14.71-.07-4.3-.14-8.61-.25-12.91,0-2.22-.2-4.44-.3-6.66-1.49-.4-1.49-.4-1.31-3.17l1.38-.46c0-1.67-.07-3.38,0-5.09a24.82,24.82,0,0,1,2.49-10.68,15.22,15.22,0,0,1,10.18-7.86,19,19,0,0,1,3.37-.48c.87-.06,1.33-.31,1.23-1.27-.06-.63,0-1.27,0-2H274v2.92l4.88.82c7.19,1.17,13.11,6.27,14.39,13.89a33.27,33.27,0,0,1,.46,4.34c.08,1.78,0,3.56,0,5.32l1.86.54c.19,2.8.19,2.8-1.31,3.18l-.05.11c-.08,3.19-.21,6.37-.25,9.55-.1,7.86-.17,15.73-.26,23.59a7.51,7.51,0,0,1-.17,1c-.16,1.18-.16,2.36.92,3.11,1.31.9,1.36,2.28,1.39,3.57.09,3.6,0,7.2,0,10.8,0,.8-.2,1.14-1.07,1.14q-23.46,0-46.91,0C247.83,173.87,247.72,173.83,247.44,173.79ZM256.39,119v53.48l1.16-.1V170.1h13.21v2.24h2.17v-2.23h13.32c.19,2.25.19,2.25,1,2.21V119Zm-1.59,53.41V119h-2v53.41Zm34-53.41v53.41h1.78V119Zm1.14-6.15h2.75a56,56,0,0,0-1.14-6.39A15,15,0,0,0,281.86,96a50.8,50.8,0,0,0-7.32-1.51c-.12,0-.29.16-.44.25.14.14.25.39.41.42,1,.19,2,.31,3,.5A13.82,13.82,0,0,1,287.72,103,20.63,20.63,0,0,1,289.94,112.82Zm-1.54.09a14.55,14.55,0,0,0-7.47-14.57c-3.22-1.74-5.95-2.19-7.09-1.23.55.17,1,.33,1.49.44a13.41,13.41,0,0,1,9.27,7.36,18.11,18.11,0,0,1,1.7,7c.05.7.25,1,1,1C287.64,112.89,288,112.91,288.4,112.91Zm-33.16.22c.37-2.08.63-4.1,1.11-6.07.77-3.18,2.2-6,5.22-7.65,1.41-.77,2.9-1.38,4.34-2.09.19-.1.31-.33.47-.49-.2-.08-.41-.23-.6-.21a16.32,16.32,0,0,0-2,.31,12.39,12.39,0,0,0-9,7.78,16.67,16.67,0,0,0-1.29,8.42Zm18-9.13L275,98.69H266.9l1.78,5.31Zm-22.06,68.38V157.71c-.41.53-1,1.23-1.49,2a3.8,3.8,0,0,0-.8,1.54,26.76,26.76,0,0,0,0,3.23v7.93Zm41.49-55.55H250.57c.07,1.06.84.62,1.25.62q19.74,0,39.48,0a3.75,3.75,0,0,0,.95,0C292.4,117.4,292.49,117.13,292.7,116.83Zm0-2.16H250.57c.07,1.06.84.62,1.26.62q19.72,0,39.47,0a3.85,3.85,0,0,0,1,0C292.4,115.24,292.49,115,292.69,114.67Zm-41-1.8c.36-2.11.62-4.13,1.07-6.11,1.37-6,4.81-10,11.11-11.16.73-.13,1.46-.28,2.17-.47.15,0,.24-.3.35-.47-.16-.06-.33-.21-.48-.19-.93.12-1.85.29-2.78.44a13.82,13.82,0,0,0-10.33,7.56,22.84,22.84,0,0,0-2.21,8.59c-.06.58,0,1.18,0,1.81Zm40.73,45.82v13.69h2.08c0-3.18-.09-6.33,0-9.46C294.6,161.06,294.24,159.59,292.4,158.69ZM272.6,91.37h-4.69V97h4.69Zm-7.26,7.34L260,102.26l4.2,3.73c.88-.52,1.77-1,2.61-1.57a.82.82,0,0,0,.28-.71C266.58,102.16,266,100.63,265.34,98.71Zm12.25,7.41,4-3.64-5.14-3.3c-.37,1-.66,1.75-.9,2.48C274.52,104.73,274.53,104.74,277.59,106.12Zm-14.25,1.15-4.1-3.74L257.36,108l4.74,1.72Zm16.26,2.49,4.75-1.75-2-4.23-4,3.61Zm-28.8,9.82c0,3.3,0,6.6,0,9.9q.09,11.91.23,23.81c0,.61,0,1.22,0,1.82h.16V119h-1.95l-.05.23ZM285,113.1l-.43-3.62a23.3,23.3,0,0,1-3.12,1.15c-1.25.28-1.85.79-1.38,2.11,0,.1.05.21.09.36Zm-27.9-3.65-.34,3.38H262c-.23-.7-.27-1.57-.64-1.76A44.67,44.67,0,0,0,257.12,109.45Zm27.72,61.83H274.39v1.09h10.45Zm-15.61,0H258.7l.11,1.06h10.42ZM292.41,119v26.52h.08c.12-8.68.24-17.35.36-26l1.31-.34-.05-.22Zm-21.58-8.46h.26c.54-1.63,1.07-3.27,1.63-5H269.2C269.76,107.25,270.3,108.87,270.83,110.49ZM265.3,107l4.08,3.65-1.69-5Zm7.26,3.63,3.82-3.46-2.21-1.37ZM268.3,112l.12-.17-4-3.61-.85,2Zm9.94-1.77-.92-1.87-3.89,3.44.11.16Zm-3.5,2.86h3.83v-1.42Zm-11.53,0h3.18l.06-.23-3.12-1.13Z"/><path d="M226.28,170.47l-2.17-2.64.17-.24,1.15.49c1.43-1.1,2.95-2.2,4.37-3.42.29-.24.19-.94.28-1.51a.62.62,0,0,1,.43.18c1,1.23,2,2.45,2.8,3.76a1.53,1.53,0,0,1-1.29,2.22,5.27,5.27,0,0,1-1.19,0,7.18,7.18,0,0,1-1-.34l-1.11,4.42c-1.29-1-.92-2-.66-2.94s.51-1.87.77-2.87A3.39,3.39,0,0,0,226.28,170.47Zm2.64-3.38c.52.4.94.75,1.39,1.06.95.65,1.53-.19,1.77-.75.17-.4-.25-1.19-.61-1.65-.57-.72-.94,0-1.33.35Z"/><path d="M219.57,154.48c1.51-1.06,3.91-.42,4.89-2.8l.89,2.57c-.71-.68-1.4-.47-2.2-.17-1.82.67-3.69,1.24-5.54,1.84l-.35-.23a23.15,23.15,0,0,1,1.14-2.54c.91-1.55,1.91-3.05,2.8-4.67-1.74.63-3.76.57-5,2.46l-.89-2.37c1.53.76,6.49-.83,7.2-2.26,1.08,1.36.68,2,0,3-1.11,1.62-2.11,3.3-3.16,4.95Z"/><path d="M254.06,181.4c1.23,0,2,.83,2.5,2.2.62,1.72,1.45,3.37,2.22,5.12,1.07-1.94,1.46-4.34.8-5.84l2.68.71,0,.33c-1.31-.22-1.42.74-1.64,1.52-.43,1.51-.8,3-1.21,4.52-.09.33-.24.64-.44,1.17-2.1-2.25-2.58-5.15-4.09-7.64-.33,2-1.62,3.75-.69,6l-2.68-.86v-.34c1.22.26,1.44-.52,1.65-1.37.27-1.1.66-2.17.86-3.28A11.1,11.1,0,0,0,254.06,181.4Z"/><path d="M282.36,190.75c-.53-4.58-1.27-6.61-2.58-6.95.18-.15.3-.32.44-.36,1.78-.4,3.55-.89,5.35-1.13a2.93,2.93,0,0,1,2.91,2.55c.36,2.69-.72,4.39-3.33,5.19C284.26,190.32,283.34,190.51,282.36,190.75Zm-.22-7.1c.29,1,.56,2,.82,2.89s.53,1.94.79,2.88a3,3,0,0,0,3.29-1.86,3.58,3.58,0,0,0-.73-3.72C285.06,182.54,283.68,183.08,282.14,183.65Z"/><path d="M239.52,174.43a4.1,4.1,0,0,1-4.18,3.94c-2.44,0-4.5-1.93-4.42-4a4.12,4.12,0,0,1,4-4.27C237,169.86,239.5,172.31,239.52,174.43Zm-4.64,3c1.43,0,3.44-2.24,3.44-3.83a3.17,3.17,0,0,0-2.76-2.64c-1.66,0-3.25,2.06-3.45,3.8C232,176,233.55,177.49,234.88,177.47Z"/><path d="M245.06,185.82a15.26,15.26,0,0,0,1.18-1.67c.5-.93.87-1.93,1.36-2.87s1-1.74-.21-2.6l.28-.2,5.63,2.41-1,1.65c-.07-1.76-1.62-1.71-2.6-2.38l-1.08,2.1c.71,1.23,1.7,1.1,3.05.31l-1.11,2.36-2.26-1.86-1.15,2.64c1.23,1,2.42,1.5,3.89.56l-.9,1.86Z"/><path d="M287.65,181.3l5.73-2.71.49,2.09c-1.47-1.31-2.43-.36-3.46.33l1.08,2.44,2.32-1.82,1.06,2.54c-1.22-.87-2.14-.95-3.07,0l1,2.33c2.4-.55,2.7-.86,2.76-2.81a5.56,5.56,0,0,1,.75,1.78c0,.32-.64.79-1.09,1-1.26.6-2.57,1.11-3.71,1.59a15.7,15.7,0,0,0-.49-2.27,33.07,33.07,0,0,0-1.4-3.1c-.36-.73-.61-1.75-2-.56Z"/><path d="M222.72,145.5h-2.53c1.81-.95,1.64-2.11.95-3.42l-2.72.41,1.3,2.6-2.55.49c1.34-.93,1.06-1.86.58-3l-2.69.33c.45,1.28-.28,3.17,2.07,3.39l-2.2.47-.8-5.32c1.41-.11,2.76-.17,4.11-.32.65-.07,1.29-.35,1.94-.4.95-.08,1.17-.56,1.07-1.46C222.23,141.27,222.16,143.43,222.72,145.5Z"/><path d="M303.62,171.53l2.14-1.78.15.14-.37.9c1,1.31,2,2.61,3.08,3.89a2.05,2.05,0,0,1,.09,2.62,3.71,3.71,0,0,1-3.43,2.08,1.73,1.73,0,0,1-1-.45c-1.21-1.23-2.38-2.52-3.61-3.84l-1,.22-.18-.28,2.69-2.21.34.12c-1,1.2-.24,1.88.49,2.61s1.14,1.32,1.74,1.95a1.5,1.5,0,0,0,2.44.15c1.41-1.19,1.22-1.93.58-2.84a17.38,17.38,0,0,0-2.26-2.71C305.11,171.74,304.4,171.75,303.62,171.53Z"/><path d="M275.88,185.82c-1.23-1.13-2.6-1.56-3-.85a3.12,3.12,0,0,0,0,2.29c.24.62,1.12.34,2.64-.86v2.12l-2.91-.44.35,3c1.26,0,2.54.1,3.42-1.45v2.13H270.8c1.16-1.76.76-6.4-.87-7.58l6.34-.36Z"/><path d="M297.94,180.14c1.74-1.21,1.91-1.73,1.14-2.81-.45-.62-1.14-.48-2.71.59l3.36,5.32.78-.5c.1.11.2.18.19.22-.18.7-1.91,1.84-3.07,1.92.93-.82.63-1.49,0-2.29-.73-1-1.23-2.09-1.95-3.06a7.11,7.11,0,0,0-1.58-1.16,10.43,10.43,0,0,1,1.15-.83,14.79,14.79,0,0,1,3.28-1.69c1.2-.32,1.94.41,2.16,1.6a3,3,0,0,1-1.76,2.82A3.08,3.08,0,0,1,297.94,180.14Z"/><path d="M313.26,163.61a13.73,13.73,0,0,0-2.53,1.15c-.7.53-.59,1.28,0,2s1.18.31,1.71-.12a7.58,7.58,0,0,0,.85-.85c.75-.81,1.5-1.38,2.65-.59.74.51,1.47,1.87,1,2.75a8,8,0,0,1-2.12,2.88c-.84.62-1.17-.55-1.76-1.16,1.84.31,3.17-.77,3-2.27-.14-1.13-.89-1.51-1.81-.85-.41.29-.66.84-1.08,1.08a4,4,0,0,1-2.11.84,2,2,0,0,1-1.7-2.21,3.29,3.29,0,0,1,2.09-3.15C311.89,162.9,312.6,163.39,313.26,163.61Z"/><path d="M225,161.55c1.42,1.6,1.82,1.71,2.83.88,1.2-1,.25-1.76-.37-2.72-1.85,1.42-4.4,1.85-5.66,4.22l-1.41-2.34a8.41,8.41,0,0,0,1.74-.41c1.08-.53,2.11-1.17,3.17-1.76.82-.46,1.95-.69,1.27-2.18h.32c.29.46.61.92.88,1.4a15.91,15.91,0,0,1,1.29,2.49,1.82,1.82,0,0,1-2,2.85C226,164,225,162.85,225,161.55Z"/><path d="M323.8,150.28c-1.2-.32-2.43-.58-3.6-1a2.44,2.44,0,0,1-1.7-3.27c.38-1.15,1.93-1.71,3.44-1.22,1,.32,1.93.64,2.86,1,1.1.47,1.72,1.09,1.36,2.8C325.93,149.7,325.26,150.11,323.8,150.28Zm.4-1c.42-.34,1.24-.69,1.41-1.23.27-.87-.61-1.15-1.32-1.32-1.25-.28-2.54-.47-3.78-.8a1,1,0,0,0-1.38.81,1.32,1.32,0,0,0,.62,1.15C321.09,148.44,322.49,148.79,324.2,149.31Z"/><path d="M241.22,174.39l2.32,1.42v.24l-1.13.1-1.05,5,.23.16,4.26-3.13-.8-.65.15-.31,2.26,1.06L240,183.3a16.11,16.11,0,0,1,0-2.12C240.39,179,240.81,176.72,241.22,174.39Z"/><path d="M269.88,184.52l-.67,1.76a2.83,2.83,0,0,0-4.15-1.39,3.51,3.51,0,0,0-1.1,4.43,3,3,0,0,0,2.92,1.6c.66,0,1.32,0,2.12,0-.69,1.17-1.69,1-2.6,1a4.24,4.24,0,0,1-3.82-2.31,3.93,3.93,0,0,1,.46-4.38,4.11,4.11,0,0,1,3.55-1.39A13.86,13.86,0,0,1,269.88,184.52Z"/><path d="M320,154.75c-.16-1.32.13-2.51-1.14-2.84-.33-.08-1.1.32-1.13.58a8.83,8.83,0,0,0,.23,2.16c-.53.37-.94-.26-1.28-.72-.47-.64,0-2.3.74-2.89,1.3-1.07,2.08-.07,2.85.75,1.66-.72,2.64-.62,3.38.3a4,4,0,0,1,.19,3.82,1.14,1.14,0,0,1-1.93.27,19.92,19.92,0,0,0,1.76-1.92c.1-.13-.25-.71-.51-1-.52-.52-1.14-1.2-1.9-.5A9.37,9.37,0,0,0,320,154.75Z"/><path d="M321.57,143.56c-1,.2-1.8-.07-2.05-1a2.43,2.43,0,0,1,.64-2.72c1-.73,2-.32,2.76.65.9-1.21,1.68-1.47,2.7-1a3.61,3.61,0,0,1,1.71,3.81c-.4,1.23-1.46,1.08-2.68.94,1.14-.67,2.45-1.19,1.89-2.64a2.15,2.15,0,0,0-1.67-1c-1.32,0-1.45,1.18-1.35,2.33h-.31a4.26,4.26,0,0,0-.42-1.06,3.45,3.45,0,0,0-1.12-1.07c-.22-.11-.78.21-1,.48-.48.55-.28,1.09.26,1.54A7.07,7.07,0,0,1,321.57,143.56Z"/><path d="M311.34,174.17c.61-.55.41-1-.38-1.58s-1.51-1.54-2.35-2.19-1.3-1.65-2.61-.65l-.05-.4,2.39-2.65c-.47,2.55,2,2.81,2.8,4.22a2.16,2.16,0,0,0,.91.71,14.34,14.34,0,0,0,1.48.57Z"/><path d="M322.68,158.46l-1.85,3.72-.32-.09c0-.2-.11-.45,0-.6.42-.72-.07-1-.57-1.29-1.4-.72-2.81-1.41-4.38-2.2l-.26,1.87c-1.26-1.09-.17-2.33-.39-3.63,1.76.88,3.4,1.61,4.94,2.52,1.07.62,1.87.74,2.51-.62Z"/><path d="M257.33,152.18V119.47h13.33v32.71ZM265.12,133v-4.17h-2.5V133Zm4.1,0v-4.19h-2.49V133Zm-10.43-4.21V133H261v-4.18Zm7.9,9.49h2.53v-3.71h-2.53Zm-1.54-3.48h-2.51v3.45h2.51Zm-6.37-.26v3.72H261v-3.72Zm2.54-10h-2.54v2.71h2.54Zm5.34,2.71h2.54v-2.71h-2.54Zm2.54,19.7v-2.73h-2.5v2.73Zm-2.46-7.1v2.53h2.47v-2.53Zm-5.64,4.37h-2.3v2.69h2.3Zm1.76,2.72h2.27V144.2h-2.27Zm0-22.45v2.74h2.25v-2.74Zm2.26,15.4h-2.26v2.73h2.26Zm-6.4,2.72H261v-2.71h-2.29Zm.05,5.89v2.25h2.5v-2.25Zm7.86,2.25h2.54v-2.21h-2.54Zm-1.51-2.22h-2.26v2.25h2.26Zm4-25.57v-2h-2.47v2Zm-4-2h-2.27v2h2.27Zm-4.09,0H258.8v2h2.26Z"/><path d="M273,119.45H286v32.73H273ZM281,133v-4.19h-2.73V133Zm0,5.28v-3.71h-2.73v3.71Zm-6.6-5.29h2.27v-4.17h-2.27Zm8.17-4.24V133h2.24v-4.22Zm0,9.5h2.25v-3.46h-2.25Zm-5.91-.2v-3.5h-2.24v3.5ZM281,147v-2.78h-2.72V147Zm-2.74-19.73H281V124.5h-2.77ZM281,142.63v-2.78h-2.72v2.78Zm3.84,0v-2.78h-2.24v2.78Zm-2.28-15.39h2.29v-2.71h-2.29Zm-5.86,15.37v-2.73h-2.27v2.73Zm0-15.32v-2.77h-2.24v2.77ZM281,148.52h-2.73v2.25H281Zm-4.29-4.31h-2.3v2.69h2.3Zm5.85,0v2.75h2.24v-2.75ZM281,120.9h-2.75v2H281Zm-4.35,29.88v-2.25h-2.25v2.25Zm5.9,0h2.25v-2.26h-2.25Zm2.26-27.81v-2h-2.26v2Zm-8.13-2h-2.25v2h2.25Z"/><path d="M278.32,169.26h-5.38V153.57h5.38ZM274.39,155V168h2.49V155Z"/><path d="M262.72,169.26h-5.13V153.57h5.13Zm-1.44-1.44V155h-2.5v12.81Z"/><path d="M280.88,153.53H286v15.69h-5.14Zm1.43,1.41V168h2.48V154.94Z"/><path d="M265.53,153.53h5.13v15.69h-5.13Zm1.16,14.53h2.53V155h-2.53Z"/></svg>