<?xml version="1.0" encoding="utf-8"?>
<!-- Generator: Adobe Illustrator 22.0.1, SVG Export Plug-In . SVG Version: 6.00 Build 0)  -->
<svg version="1.1" id="Layer_1" xmlns="http://www.w3.org/2000/svg" xmlns:xlink="http://www.w3.org/1999/xlink" x="0px" y="0px"
	 viewBox="0 0 207 140" style="enable-background:new 0 0 207 140;" xml:space="preserve">
<style type="text/css">
	.st0{fill-rule:evenodd;clip-rule:evenodd;}
	.st1{fill-rule:evenodd;clip-rule:evenodd;fill:#58595B;}
</style>
<g>
	<path class="st0" d="M87.8,99.1V79.9h8.5c1.5,0,2.8,0.3,3.9,0.9c1,0.6,1.8,1.3,2.4,2.2c0.6,0.9,1,1.9,1.2,2.9
		c0.2,1,0.3,2.1,0.3,3.1c0,1.2-0.1,2.3-0.4,3.4c-0.3,1.1-0.7,2.2-1.3,3.2c-0.6,1-1.4,1.8-2.5,2.5c-1,0.6-2.3,0.9-3.8,0.9H87.8
		L87.8,99.1L87.8,99.1z M91.7,83.2v12.6h3.9c1,0,1.8-0.3,2.5-0.9c0.7-0.6,1.1-1.4,1.4-2.4c0.3-1,0.4-2,0.4-3.2c0-1.7-0.2-3.1-0.7-4
		c-0.5-0.9-1-1.5-1.6-1.8c-0.6-0.3-1.3-0.4-2.1-0.4H91.7L91.7,83.2z"/>
	<path class="st0" d="M113.8,94.9h3.9c-0.5,1.6-1.3,2.7-2.4,3.5c-1.2,0.7-2.4,1.1-3.8,1.1c-1,0-2-0.1-2.8-0.4
		c-0.9-0.3-1.6-0.7-2.2-1.3c-0.6-0.6-1.1-1.4-1.5-2.4c-0.4-1-0.5-2.2-0.5-3.6c0-0.6,0.1-1.3,0.2-2c0.2-0.8,0.5-1.5,0.9-2.3
		c0.5-0.8,1.2-1.5,2.1-2c0.9-0.5,2.1-0.8,3.6-0.8c0.8,0,1.6,0.1,2.3,0.3c0.8,0.2,1.5,0.6,2.1,1.2c0.7,0.6,1.2,1.4,1.6,2.4
		c0.4,1,0.6,2.3,0.6,3.9V93h-9.8c0.1,0.6,0.2,1.1,0.3,1.6c0.1,0.5,0.5,0.9,1,1.3c0.5,0.4,1.2,0.6,2.1,0.6c0.5,0,1-0.1,1.5-0.4
		C113.4,95.8,113.7,95.4,113.8,94.9L113.8,94.9L113.8,94.9z M108.2,90.5h5.8c-0.1-1-0.4-1.8-1-2.2c-0.6-0.5-1.2-0.7-1.9-0.7
		C109.4,87.6,108.4,88.6,108.2,90.5L108.2,90.5z"/>
	<path class="st0" d="M131.8,84.9v14.2h-3.6v-2h-0.1c-0.4,0.8-1,1.4-1.7,1.8c-0.7,0.4-1.6,0.6-2.6,0.6c-1,0-1.8-0.2-2.5-0.6
		c-0.7-0.4-1.3-1-1.7-1.7c-0.4-0.8-0.6-1.8-0.6-2.9v-9.4h3.8v8.8c0,1.7,0.8,2.6,2.4,2.6c0.8,0,1.4-0.3,2-0.8
		c0.6-0.5,0.9-1.3,0.9-2.5v-8.2H131.8L131.8,84.9z"/>
	<path class="st0" d="M138.1,81v3.8h2.3v2.7h-2.3v7.6c0,0.3,0,0.6,0.1,0.7c0.1,0.1,0.2,0.2,0.4,0.3c0.2,0.1,0.6,0.1,1.1,0.1
		c0.2,0,0.4,0,0.8-0.1v2.9c-0.9,0-1.5,0-1.8,0h-0.5c-1,0-1.8-0.1-2.4-0.4c-0.6-0.2-0.9-0.6-1.1-1c-0.2-0.4-0.3-1-0.3-1.7v-8.6h-1.9
		v-2.7h1.9V81H138.1L138.1,81z"/>
	<path class="st0" d="M153.2,89.2h-3.7c-0.1-0.6-0.3-1-0.6-1.4c-0.3-0.3-0.9-0.5-1.8-0.5c-1.5,0-2.3,0.5-2.3,1.4
		c0,0.5,0.5,0.8,1.5,1.1c1,0.3,2.1,0.5,3.2,0.8c1.1,0.3,2.1,0.7,2.9,1.3c0.8,0.6,1.2,1.5,1.2,2.7c0,1.3-0.3,2.3-1,3
		c-0.7,0.7-1.5,1.2-2.4,1.5c-0.9,0.3-1.9,0.4-2.8,0.4c-1.9,0-3.5-0.4-4.8-1.2c-1.3-0.8-2-2-2-3.8h3.9c0,1.4,1,2.1,3.1,2.1
		c0.9,0,1.5-0.2,1.8-0.5c0.4-0.3,0.5-0.6,0.5-1c0-0.5-0.5-0.9-1.6-1.2c-1-0.3-2.1-0.5-3.2-0.8c-1.1-0.3-2-0.7-2.8-1.3
		c-0.8-0.6-1.2-1.5-1.2-2.7c0-0.8,0.2-1.5,0.5-2.2c0.4-0.7,1-1.3,1.8-1.8c0.9-0.5,2-0.7,3.4-0.7C150.8,84.5,152.9,86.1,153.2,89.2
		L153.2,89.2z"/>
	<path class="st0" d="M163.4,93.9h3.8c0,0.5-0.2,1-0.4,1.6c-0.2,0.6-0.6,1.2-1,1.8c-0.5,0.6-1.1,1.1-2,1.5c-0.8,0.4-1.9,0.6-3.1,0.6
		c-1.3,0-2.3-0.2-3.2-0.6c-0.9-0.4-1.5-1-2-1.7c-0.5-0.7-0.8-1.5-1-2.3c-0.2-0.8-0.3-1.6-0.3-2.5c0-1.6,0.2-3,0.7-4.1
		c0.5-1.2,1.2-2.1,2.2-2.8c1-0.7,2.3-1,3.9-1c0.9,0,1.8,0.2,2.7,0.5c0.9,0.3,1.7,0.9,2.4,1.7c0.7,0.8,1.1,1.9,1.2,3.3h-3.8
		c-0.3-1.5-1.1-2.3-2.5-2.3c-0.7,0-1.3,0.2-1.8,0.6c-0.4,0.4-0.8,0.9-0.9,1.5c-0.2,0.6-0.3,1.3-0.3,1.9c0,0.8,0.1,1.5,0.2,2.1
		c0.1,0.6,0.4,1.2,0.8,1.7c0.4,0.5,1.1,0.8,1.9,0.8c0.6,0,1-0.1,1.4-0.4c0.4-0.3,0.7-0.6,0.8-1C163.4,94.5,163.4,94.2,163.4,93.9
		L163.4,93.9z"/>
	<path class="st0" d="M181.4,89.3v9.8h-3.8v-8.6c0-0.5,0-0.9-0.1-1.3c-0.1-0.4-0.3-0.7-0.7-1c-0.4-0.3-0.9-0.4-1.6-0.4
		c-0.6,0-1.1,0.1-1.5,0.4c-0.4,0.3-0.8,0.6-1,1.1c-0.3,0.5-0.4,1.1-0.4,1.8v8.2h-3.8V79.9h3.8v6.8h0.1c0.3-0.6,0.8-1.1,1.5-1.6
		c0.8-0.4,1.6-0.6,2.6-0.6c0.9,0,1.8,0.2,2.5,0.5c0.7,0.4,1.3,0.9,1.8,1.6C181.2,87.4,181.4,88.3,181.4,89.3L181.4,89.3z"/>
	<path class="st0" d="M191.9,94.9h3.9c-0.5,1.6-1.3,2.7-2.4,3.5c-1.2,0.7-2.4,1.1-3.8,1.1c-1,0-2-0.1-2.8-0.4
		c-0.9-0.3-1.6-0.7-2.2-1.3c-0.6-0.6-1.1-1.4-1.5-2.4c-0.4-1-0.5-2.2-0.5-3.6c0-0.6,0.1-1.3,0.2-2c0.2-0.8,0.5-1.5,0.9-2.3
		c0.5-0.8,1.2-1.5,2.1-2c0.9-0.5,2.1-0.8,3.6-0.8c0.8,0,1.6,0.1,2.3,0.3c0.8,0.2,1.5,0.6,2.1,1.2c0.7,0.6,1.2,1.4,1.6,2.4
		c0.4,1,0.6,2.3,0.6,3.9V93h-9.8c0.1,0.6,0.2,1.1,0.3,1.6c0.1,0.5,0.5,0.9,1,1.3c0.5,0.4,1.2,0.6,2.1,0.6c0.5,0,1-0.1,1.5-0.4
		C191.5,95.8,191.8,95.4,191.9,94.9L191.9,94.9L191.9,94.9z M186.3,90.5h5.8c-0.1-1-0.4-1.8-1-2.2c-0.6-0.5-1.2-0.7-1.9-0.7
		C187.5,87.6,186.5,88.6,186.3,90.5L186.3,90.5z"/>
	<path class="st0" d="M87.8,131.1v-19.2h9.3c1.5,0,2.6,0.3,3.5,0.8c0.9,0.5,1.5,1.1,1.9,1.9c0.4,0.7,0.5,1.5,0.5,2.3
		c0,1.2-0.2,2.1-0.7,2.6c-0.5,0.5-1,1-1.7,1.3c2,0.7,3,2.3,3,4.7c0,0.8-0.1,1.5-0.4,2.2c-0.3,0.7-0.7,1.3-1.2,1.8
		c-0.4,0.4-0.9,0.7-1.3,1c-0.4,0.2-1,0.4-1.8,0.6c-0.8,0.1-1.8,0.2-3,0.2H87.8L87.8,131.1L87.8,131.1z M91.6,115.2v4.2h4.7
		c0.8,0,1.5-0.2,2.1-0.5c0.5-0.4,0.8-0.9,0.8-1.6c0-0.8-0.2-1.3-0.7-1.6c-0.5-0.3-1.2-0.5-2.2-0.5H91.6L91.6,115.2L91.6,115.2z
		 M91.6,122.6v5.2h4.9c2,0,3.1-0.9,3.1-2.8c0-0.8-0.3-1.4-0.8-1.8c-0.6-0.4-1.2-0.6-2.1-0.6H91.6L91.6,122.6z"/>
	<path class="st0" d="M119.1,124c0,1.2-0.2,2.3-0.6,3.3c-0.4,0.9-0.9,1.7-1.6,2.4c-0.7,0.6-1.5,1.1-2.3,1.4
		c-0.9,0.3-1.8,0.5-2.8,0.5c-1.3,0-2.5-0.3-3.6-0.8c-1.1-0.6-2-1.4-2.7-2.5c-0.7-1.1-1-2.5-1-4.2c0-1.2,0.2-2.3,0.6-3.3
		c0.4-1,0.9-1.7,1.6-2.4c0.7-0.6,1.4-1.1,2.3-1.4c0.9-0.3,1.8-0.5,2.8-0.5c1,0,1.9,0.2,2.8,0.5c0.9,0.3,1.6,0.8,2.3,1.4
		c0.7,0.6,1.2,1.4,1.6,2.4C119,121.6,119.1,122.7,119.1,124L119.1,124L119.1,124z M115.3,124c0-1.2-0.2-2.2-0.7-3.1
		c-0.5-0.9-1.4-1.3-2.7-1.3c-1.3,0-2.2,0.4-2.7,1.3c-0.5,0.9-0.7,1.9-0.7,3c0,1.2,0.2,2.2,0.7,3.1c0.5,0.9,1.4,1.3,2.7,1.3
		c1.3,0,2.2-0.4,2.7-1.3C115,126.2,115.3,125.1,115.3,124L115.3,124z"/>
	<path class="st0" d="M120.4,131.1v-14.2h3.6v2.5h0.1c0.3-0.6,0.7-1.1,1-1.5c0.3-0.4,0.7-0.7,1.2-0.9c0.5-0.3,1.1-0.4,1.8-0.4
		c0.2,0,0.4,0,0.7,0.1v3.8c-0.2,0-0.6-0.1-1.1-0.1c-2.3,0-3.4,1.1-3.4,3.4v7.4H120.4L120.4,131.1z"/>
	<path class="st0" d="M141.2,121.2h-3.7c-0.1-0.6-0.3-1-0.6-1.4s-0.9-0.5-1.9-0.5c-1.5,0-2.3,0.5-2.3,1.4c0,0.5,0.5,0.8,1.5,1.1
		c1,0.3,2.1,0.5,3.2,0.8c1.1,0.3,2.1,0.7,2.9,1.3c0.8,0.6,1.2,1.5,1.2,2.7c0,1.3-0.3,2.3-1,3c-0.7,0.7-1.5,1.2-2.4,1.5
		c-0.9,0.3-1.9,0.4-2.8,0.4c-1.9,0-3.5-0.4-4.8-1.2c-1.3-0.8-2-2-2-3.8h3.9c0,1.4,1,2.1,3.1,2.1c0.9,0,1.5-0.2,1.8-0.5
		c0.4-0.3,0.5-0.6,0.5-1c0-0.5-0.5-0.9-1.6-1.2c-1-0.3-2.1-0.5-3.2-0.8c-1.1-0.3-2-0.7-2.8-1.3c-0.8-0.6-1.2-1.5-1.2-2.7
		c0-0.8,0.2-1.5,0.5-2.2c0.4-0.7,1-1.3,1.8-1.8c0.9-0.5,2-0.7,3.4-0.7C138.8,116.5,140.9,118.1,141.2,121.2L141.2,121.2z"/>
	<path class="st0" d="M151.4,126.9h3.9c-0.5,1.6-1.3,2.7-2.4,3.5c-1.2,0.7-2.4,1.1-3.8,1.1c-1,0-2-0.1-2.8-0.4
		c-0.9-0.3-1.6-0.7-2.2-1.3c-0.6-0.6-1.1-1.4-1.5-2.4c-0.4-1-0.5-2.2-0.5-3.6c0-0.6,0.1-1.3,0.2-2c0.2-0.8,0.5-1.5,0.9-2.3
		c0.5-0.8,1.2-1.5,2.1-2c0.9-0.5,2.1-0.8,3.6-0.8c0.8,0,1.6,0.1,2.3,0.3c0.8,0.2,1.5,0.6,2.1,1.2c0.7,0.6,1.2,1.4,1.6,2.4
		c0.4,1,0.6,2.3,0.6,3.9v0.7h-9.8c0.1,0.6,0.2,1.1,0.3,1.6c0.1,0.5,0.5,0.9,1,1.3c0.5,0.4,1.2,0.6,2.1,0.6c0.5,0,1-0.1,1.5-0.4
		C150.9,127.8,151.2,127.4,151.4,126.9L151.4,126.9L151.4,126.9z M145.7,122.5h5.8c-0.1-1-0.4-1.8-1-2.2c-0.6-0.5-1.2-0.7-1.9-0.7
		C146.9,119.6,146,120.6,145.7,122.5L145.7,122.5z"/>
	<polygon class="st0" points="106.7,112.2 106.7,115.7 110.5,115.7 110.5,112.2 106.7,112.2 	"/>
	<polygon class="st0" points="113.2,112.2 113.2,115.7 116.9,115.7 116.9,112.2 113.2,112.2 	"/>
	<polygon class="st1" points="8.8,79.9 55.2,51.7 29.2,51.7 8.8,64.1 8.8,79.9 	"/>
	<polygon class="st0" points="55.1,51.7 29.1,51.7 52.7,66 78.7,66 55.1,51.7 	"/>
	<polygon class="st1" points="124.7,37.8 98.7,37.8 52.3,66 78.2,66 124.7,37.8 	"/>
	<polygon class="st0" points="124.6,38 98.6,38 122.2,52.3 148.2,52.3 124.6,38 	"/>
	<polygon class="st1" points="195.9,7.3 121.9,52.3 147.9,52.3 195.9,23.1 195.9,7.3 	"/>
</g>
</svg>
