<svg id="Layer_1" data-name="Layer 1" xmlns="http://www.w3.org/2000/svg" viewBox="0 0 532 266"><title>SVG-</title><path d="M86.54,187.51h6.2c7.63,0,11.72,4.43,11.72,12.32s-4.09,12.49-11.58,12.49H86.54Zm6,22.23c5.8,0,8.69-3.64,8.69-9.91s-2.89-9.73-8.69-9.73H89.69v19.64Z"/><path d="M108.15,203.16c0-6,4-9.67,8.26-9.67,4.69,0,7.34,3.37,7.34,8.63a9.71,9.71,0,0,1-.15,1.76H111.23c.22,3.9,2.6,6.42,6.1,6.42a8,8,0,0,0,4.57-1.47l1.12,2a10.84,10.84,0,0,1-6.07,1.91C112.05,212.78,108.15,209.2,108.15,203.16ZM121,201.65c0-3.68-1.65-5.68-4.53-5.68-2.59,0-4.89,2.07-5.27,5.68Z"/><path d="M128,205.59V193.94h3.11v11.25c0,3.42,1,4.89,3.47,4.89,1.88,0,3.18-.94,4.92-3.1v-13h3.11v18.38h-2.57l-.26-2.87h-.1c-1.71,2-3.54,3.33-6.06,3.33C129.75,212.78,128,210.28,128,205.59Z"/><path d="M149.37,206.64V196.48h-2.73v-2.35l2.87-.19.37-5.15h2.6v5.15h5v2.54h-5v10.21c0,2.25.73,3.55,2.84,3.55a6.08,6.08,0,0,0,2.1-.49l.6,2.35a11.06,11.06,0,0,1-3.41.68C150.69,212.78,149.37,210.3,149.37,206.64Z"/><path d="M159.2,210.23l1.53-2a8.26,8.26,0,0,0,5.43,2.18c2.41,0,3.61-1.29,3.61-2.86,0-1.89-2.17-2.73-4.2-3.48-2.58-.94-5.49-2.21-5.49-5.31,0-2.94,2.36-5.22,6.34-5.22a9.33,9.33,0,0,1,5.71,2.06l-1.48,2a7,7,0,0,0-4.19-1.63c-2.32,0-3.39,1.23-3.39,2.63,0,1.75,2,2.41,4.09,3.19,2.65,1,5.6,2.07,5.6,5.58,0,3-2.37,5.46-6.71,5.46A11,11,0,0,1,159.2,210.23Z"/><path d="M175.72,203.16c0-6.14,4.14-9.67,8.84-9.67a7.76,7.76,0,0,1,5.38,2.16l-1.6,2.06a5.31,5.31,0,0,0-3.64-1.63c-3.33,0-5.77,2.87-5.77,7.08s2.31,7,5.69,7a6.66,6.66,0,0,0,4.31-1.83l1.35,2.08a8.9,8.9,0,0,1-5.94,2.34C179.45,212.78,175.72,209.24,175.72,203.16Z"/><path d="M194.31,185.39h3.11v7.37l-.11,3.77c1.71-1.66,3.58-3,6.1-3,3.87,0,5.61,2.5,5.61,7.19v11.64h-3.11V201.08c0-3.42-1-4.89-3.47-4.89-1.88,0-3.18,1-5,2.82v13.31h-3.11Z"/><path d="M213.52,203.16c0-6,4-9.67,8.26-9.67,4.68,0,7.33,3.37,7.33,8.62a9.84,9.84,0,0,1-.14,1.77H216.59c.22,3.9,2.6,6.42,6.11,6.42a8,8,0,0,0,4.57-1.47l1.11,2a10.83,10.83,0,0,1-6.06,1.91C217.42,212.78,213.52,209.2,213.52,203.16Zm12.84-1.51c0-3.68-1.65-5.68-4.53-5.68-2.58,0-4.89,2.07-5.27,5.68Z"/><path d="M241.48,187.51h7.36c5,0,8.54,1.72,8.54,6.08a5.41,5.41,0,0,1-3.63,5.38v.16c3,.58,5.05,2.54,5.05,5.93,0,4.88-3.86,7.26-9.39,7.26h-7.93Zm6.83,10.56c4.22,0,6-1.56,6-4.07,0-2.9-2-4-5.83-4h-3.81v8Zm.65,11.75c4.24,0,6.74-1.53,6.74-4.87,0-3.06-2.4-4.46-6.74-4.46h-4.32v9.33Z"/><path d="M262.06,203.16c0-6.14,4-9.67,8.51-9.67s8.52,3.53,8.52,9.67-4,9.62-8.52,9.62S262.06,209.24,262.06,203.16Zm3-14.92a1.88,1.88,0,1,1,1.88,1.88A1.84,1.84,0,0,1,265.05,188.24Zm10.83,14.92c0-4.21-2.15-7.08-5.31-7.08s-5.3,2.87-5.3,7.08,2.14,7,5.3,7S275.88,207.37,275.88,203.16Zm-3.54-14.92a1.88,1.88,0,1,1,1.87,1.88A1.83,1.83,0,0,1,272.34,188.24Z"/><path d="M283.93,193.94h2.57l.26,3.35h.1c1.28-2.33,3.16-3.8,5.23-3.8a4.34,4.34,0,0,1,2,.38l-.58,2.73a5.12,5.12,0,0,0-1.78-.31c-1.55,0-3.41,1.12-4.65,4.23v11.8h-3.11Z"/><path d="M294.87,210.23l1.53-2a8.26,8.26,0,0,0,5.43,2.18c2.41,0,3.61-1.29,3.61-2.86,0-1.89-2.17-2.73-4.2-3.48-2.58-.94-5.49-2.21-5.49-5.31,0-2.94,2.36-5.22,6.34-5.22a9.39,9.39,0,0,1,5.72,2.06l-1.49,2a6.88,6.88,0,0,0-4.19-1.63c-2.32,0-3.39,1.23-3.39,2.63,0,1.75,2,2.41,4.08,3.19,2.66,1,5.61,2.07,5.61,5.58,0,3-2.37,5.46-6.71,5.46A11,11,0,0,1,294.87,210.23Z"/><path d="M311.39,203.16c0-6,4-9.67,8.26-9.67,4.68,0,7.33,3.37,7.33,8.62a9.84,9.84,0,0,1-.14,1.77H314.46c.22,3.9,2.6,6.42,6.11,6.42a8,8,0,0,0,4.57-1.47l1.12,2a10.89,10.89,0,0,1-6.07,1.91C315.29,212.78,311.39,209.2,311.39,203.16Zm12.85-1.51c0-3.68-1.66-5.68-4.54-5.68-2.58,0-4.89,2.07-5.27,5.68Z"/><path d="M337.91,199.94c0-8,4.81-12.88,11.39-12.88a9.63,9.63,0,0,1,7.15,3.06l-1.73,2a7,7,0,0,0-5.34-2.34c-5,0-8.21,3.84-8.21,10S344.12,210,349.41,210a6.69,6.69,0,0,0,4.47-1.46v-6.46h-5.25v-2.62h8.13V209.9a10.57,10.57,0,0,1-7.64,2.88C342.57,212.78,337.91,208,337.91,199.94Z"/><path d="M362.39,193.94H365l.27,3.35h.1c1.28-2.33,3.16-3.8,5.23-3.8a4.34,4.34,0,0,1,2,.38l-.58,2.73a5.12,5.12,0,0,0-1.78-.31c-1.55,0-3.41,1.12-4.65,4.23v11.8h-3.11Z"/><path d="M373.77,203.16c0-6.14,4-9.67,8.52-9.67s8.51,3.53,8.51,9.67-4,9.62-8.51,9.62S373.77,209.24,373.77,203.16Zm13.82,0c0-4.21-2.14-7.08-5.3-7.08S377,199,377,203.16s2.15,7,5.31,7S387.59,207.37,387.59,203.16Z"/><path d="M395.4,205.59V193.94h3.11v11.25c0,3.42,1,4.89,3.46,4.89,1.88,0,3.18-.94,4.93-3.1v-13H410v18.38h-2.58l-.26-2.87h-.1c-1.7,2-3.54,3.33-6.06,3.33C397.13,212.78,395.4,210.28,395.4,205.59Z"/><path d="M416.21,193.94h2.57l.26,2.13h.1a9.7,9.7,0,0,1,5.86-2.58c4.75,0,7.29,3.69,7.29,9.37,0,6.26-3.76,9.92-8,9.92a8.39,8.39,0,0,1-5.1-2.13l.09,3.21v6.22h-3.11Zm12.87,8.94c0-4-1.39-6.77-4.85-6.77-1.56,0-3.12.85-4.91,2.51v9.63a7.15,7.15,0,0,0,4.48,1.91C426.84,210.16,429.08,207.42,429.08,202.88Z"/><polygon points="86.54 177.1 86.54 154.95 121.9 134.41 140.41 146.03 86.54 177.1"/><polygon points="126.2 134.41 159.58 153.96 180.08 144.19 163.88 134.41 126.2 134.41"/><polygon points="164.87 155.76 203.54 155.76 257.29 124.21 237.92 112.97 164.87 155.76"/><polygon points="241.23 111.32 276.59 132.48 296.1 121.9 279.9 111.32 241.23 111.32"/><polygon points="279.9 134.37 316.59 134.37 427.98 70.67 427.98 48.19 279.9 134.37"/></svg>