<?xml version="1.0" encoding="utf-8"?>
<!-- Generator: Adobe Illustrator 23.0.0, SVG Export Plug-In . SVG Version: 6.00 Build 0)  -->
<svg version="1.1" id="图层_1" xmlns="http://www.w3.org/2000/svg" xmlns:xlink="http://www.w3.org/1999/xlink" x="0px" y="0px"
	 viewBox="0 0 320.1 193.6" style="enable-background:new 0 0 320.1 193.6;" xml:space="preserve">
<style type="text/css">
	.st0{fill:#FFFFFF;}
</style>
<g>
	<path d="M310.9,124c-20.5-0.1-40.9-0.2-61.4-0.3c-1.7,0-3.4-0.2-6.5-0.5c2.1-1.5,2.8-2.1,3.6-2.5c10.8-5.3,17.3-14,17.7-25.8
		c0.7-18.6,0.7-37.3,0-55.9c-0.5-12-7.1-20.8-18.2-26c-0.5-0.2-1-0.7-1.3-2c22,0,44,0,66,0C310.9,48.7,310.9,86.4,310.9,124z"/>
	<path d="M158.9,182c0-13.9,0-27.8,0-41.7c5.2-1.4,9.1-0.4,12.3,4.5c4.5,6.9,9.9,13.3,15.8,21.1c0-9.4,0-17.5,0-25.9
		c3.5,0,6.3,0,9.6,0c0,11.8,0,23.4,0,35c0,2.3-0.4,4.6-0.6,6.9c-2.7,0-5.3,0-8,0c-6.4-8.5-12.8-16.9-19.8-26.1
		c-0.4,9.5-0.8,17.8-1.2,26.1C164.2,182,161.6,182,158.9,182z"/>
	<path d="M10.9,182c0-13.8,0-27.6,0-42.6c8.7,0.5,17.2,0,25.3,1.6c9.7,1.9,14.9,10.3,14.6,20.5c-0.2,9.5-6.4,17.1-15.7,19.4
		c-1.1,0.3-2.2,0.7-3.2,1.1C24.9,182,17.9,182,10.9,182z M20.7,148.2c0,7.8,0,15.2,0,22.5c0,0.8,0.2,1.6,0.3,2.8
		c6.4,0.3,12.8,1.5,17.5-4.5c3.1-4.1,3.3-10.7,0.6-15.1C34.8,146.9,28,147.8,20.7,148.2z"/>
	<path d="M56.9,182c0-13.8,0-27.5,0-42.5c8.6,0.4,17.1-0.2,25.2,1.4c10.4,2.1,13.7,16.1,6.5,23.9c-1,1.1-2.2,2-3.6,3.1
		c2.6,4.6,5.3,9.3,7.9,14c-3.3,0-6.7,0-10,0c-1.2-2-2.4-3.9-3.5-5.9c-3.9-7.1-3.9-7.1-12.4-5.7c-0.3,3.8-0.7,7.7-1.1,11.6
		C62.9,182,59.9,182,56.9,182z M66.9,161.8c5.4-0.4,11.2,2,14.9-3.2c1.3-1.8,1.3-6,0-7.7c-3.8-5.1-9.6-2.3-14.9-2.9
		C66.9,152.8,66.9,157,66.9,161.8z"/>
	<path d="M99.9,182c0-13.8,0-27.6,0-41.8c10.8,0,21.1,0,31.7,0c0,2.4,0,4.7,0,7.5c-7.1,0-14.2,0-21.6,0c0,3.1,0,5.7,0,8.9
		c6.4,0,12.8,0,19.5,0c0,2.9,0,5.2,0,8c-6.4,0-12.8,0-19.5,0c0,3.2,0,5.8,0,9c7.4,0,14.8,0,23,0c-0.4,3.3-0.8,5.8-1.1,8.3
		C121.2,182,110.6,182,99.9,182z"/>
	<path d="M217.9,182c-10.1-3.5-13.9-10.8-13.3-21.3c0.4-6.8,0.1-13.6,0.1-20.6c3.3,0,6,0,9.5,0c0,7.7,0,15.3,0,22.9
		c0,4.2,1.1,8,5.3,9.9c6.6,2.9,13.1-1.1,13.3-8.5c0.2-8,0.1-15.9,0.1-24.2c3.3,0,6.2,0,9,0c0,9.8,0.6,19.6-0.2,29.3
		c-0.6,7.1-6.5,10.4-12.8,12.5C225.2,182,221.6,182,217.9,182z"/>
	<path d="M250.9,182c0-13.8,0-27.6,0-41.8c3,0,5.9,0,9.3,0c0,10.8,0,21.5,0,32.9c6.1,0,11.6,0,17.7,0c0,3.4,0,6.1,0,8.9
		C268.9,182,259.9,182,250.9,182z"/>
	<path d="M283.9,182c0-13.8,0-27.6,0-41.8c2.9,0,5.8,0,9.2,0c0,10.9,0,21.6,0,32.8c6.3,0,12,0,17.8,0c0,3,0,6,0,9
		C301.9,182,292.9,182,283.9,182z"/>
	<path d="M139.9,182c0-13.8,0-27.6,0-41.8c3.1,0,6,0,9.6,0c0,6.1,0.1,12.3,0,18.4c-0.1,7.8-0.4,15.6-0.6,23.4
		C145.9,182,142.9,182,139.9,182z"/>
	<path class="st0" d="M166.9,182c0.4-8.3,0.8-16.6,1.2-26.1c7,9.2,13.4,17.6,19.8,26.1C180.9,182,173.9,182,166.9,182z"/>
	<path class="st0" d="M65.9,182c0.4-3.9,0.7-7.7,1.1-11.6c8.5-1.4,8.5-1.4,12.4,5.7c1.1,2,2.4,3.9,3.5,5.9
		C77.2,182,71.6,182,65.9,182z"/>
	<path d="M11.1,123.2c0-37.3,0-74.4,0-111.9c22.5,0,44.9,0,66.8,0c-4.4,3.9-9.5,7.5-13.5,12.1c-4.2,4.8-6,11-5.7,18
		c6.6,0,13,0,19.4,0c3.5-10.5,8.9-14.7,17.2-13.1c7.3,1.4,11.8,7.5,11.3,15.3c-0.6,9-5.1,12.7-16.7,13.5c0,5.5,0,11,0,16.9
		c1.3,0.2,2.5,0.4,3.8,0.5c10,1.2,14.8,6.8,14.3,16.8c-0.4,8.4-5.4,13.9-13.5,14.6c-8.6,0.8-14.6-3.4-16.8-11.5
		c-0.3-1.2-1.7-3.1-2.7-3.1c-5.8-0.3-11.6-0.1-17.3-0.1c-1.3,13,4,20.9,21.8,32.1C56.3,123.2,33.9,123.2,11.1,123.2z"/>
	<path d="M114.1,65.1c11.3-6.9,14.3-16.9,12.5-28.7c-1.9-11.7-8.8-19.7-19.2-25.1c36.3,0,72.7,0,109.8,0c-1.3,1-2,1.7-2.9,2.1
		c-11.6,6-17.4,15.6-17.6,28.5c-0.2,16.3-0.1,32.6-0.1,49c0,13.6,5.8,23.6,18,29.8c0.8,0.4,1.4,1.1,3.2,2.5c-37.8,0-74.3,0-110.8,0
		c11.6-5.6,19.4-13.8,21.1-27C129.8,83.2,126.4,72.5,114.1,65.1z M160.1,56.1c7.4-0.1,13.6-6.4,13.6-13.8c0-7.6-6.6-14.1-14.1-13.9
		c-7.3,0.2-13.5,6.5-13.6,13.9C146,49.9,152.5,56.2,160.1,56.1z M159.7,78c-7.6,0.1-13.9,6.7-13.7,14.3c0.2,7.4,6.6,13.6,14,13.5
		c7.4-0.1,13.7-6.4,13.7-13.8C173.7,84.3,167.3,77.9,159.7,78z"/>
	<path d="M244.8,67.5c0,8,0.2,16,0,24c-0.2,8.8-5.3,14.4-13.1,14.7c-8.7,0.4-14.6-4.7-14.9-13.8c-0.4-12.6-0.2-25.3-0.2-37.9
		c0-4.2-0.1-8.3,0.1-12.5c0.5-8.9,5.9-14.1,14.2-14c7.9,0.1,13.4,5.4,13.7,14.1C245,50.5,244.8,59,244.8,67.5
		C244.8,67.5,244.8,67.5,244.8,67.5z"/>
	<path class="st0" d="M20.7,148.2c7.3-0.4,14.1-1.4,18.4,5.6c2.8,4.4,2.5,11.1-0.6,15.1c-4.6,6-11.1,4.8-17.5,4.5
		c-0.1-1.2-0.3-2-0.3-2.8C20.7,163.4,20.7,156.1,20.7,148.2z"/>
	<path class="st0" d="M160.1,56.1c-7.6,0.1-14.1-6.2-14.1-13.8c0-7.4,6.3-13.8,13.6-13.9c7.4-0.2,14,6.4,14.1,13.9
		C173.7,49.7,167.6,56,160.1,56.1z"/>
	<path class="st0" d="M159.7,78c7.6-0.1,14,6.3,14,14c0,7.4-6.3,13.7-13.7,13.8c-7.4,0.1-13.7-6.1-14-13.5
		C145.8,84.7,152.2,78,159.7,78z"/>
</g>
</svg>
