<?xml version="1.0" encoding="utf-8"?>
<!-- Generator: Adobe Illustrator 22.0.1, SVG Export Plug-In . SVG Version: 6.00 Build 0)  -->
<svg version="1.1" id="Layer_1" xmlns="http://www.w3.org/2000/svg" xmlns:xlink="http://www.w3.org/1999/xlink" x="0px" y="0px"
	 viewBox="0 0 2500 1044.8" style="enable-background:new 0 0 2500 1044.8;" xml:space="preserve">
<style type="text/css">
	.st0{fill:#231F20;}
</style>
<path class="st0" d="M1126.7,35.8H1243v34.7h-72.3v37.8h68.3v34.7h-68.3v41.5h74.9v34.7h-118.9V35.8z M1399.7,219.1h-38.8v-25.2
	h-0.5c-8.5,19.7-25.5,28.4-44.9,28.4c-33.6,0-47-26.3-47-54.6V82.3h42.5v66.2c0,25.7,8,34.4,19.6,34.4c17.5,0,26.5-13.4,26.5-42.8
	V82.3h42.5V219.1z M1512.4,120.1c-4.7-1.6-9.5-1.6-14.4-1.6c-19.9,0-31,16-31,42.8v57.8h-42.6V82.3h38.8v25.2h0.5
	c7.3-17.3,18-28.4,36.4-28.4c5,0,10.2,0.8,14.4,1.6L1512.4,120.1L1512.4,120.1z M1517.6,150.8c0-45.4,31-71.7,71.6-71.7
	c40.7,0,71.6,26.3,71.6,71.7c0,45.1-31,71.4-71.6,71.4C1548.5,222.2,1517.6,195.9,1517.6,150.8L1517.6,150.8z M1616.9,150.8
	c0-20.5-8.1-38.6-27.7-38.6c-19.6,0-27.6,18.1-27.6,38.6c0,20.2,8,38.3,27.6,38.3S1616.9,171,1616.9,150.8z M1678.8,82.3h39.2v24.7
	h0.5c8.5-19.2,26.5-27.8,45.9-27.8c34,0,52.7,36,52.7,69.1c0,40.4-19.6,74-56.3,74c-14.9,0-31-6-39-22.3h-0.5v74.3h-42.6
	L1678.8,82.3L1678.8,82.3z M1747.3,115.3c-15.6,0-26,15.2-26,35.7c0,20,11.8,34.9,26,34.9c16.1,0,25.8-15,25.8-36.8
	C1773.1,131.1,1763.8,115.3,1747.3,115.3z M1873,164.4c2.4,18.9,15.4,26.3,36.2,26.3c11.6,0,24.8-2.9,37.6-10.5v33.3
	c-13.7,6.1-29.3,8.7-45.1,8.7c-40.7,0-71.6-26.5-71.6-71.7c0-45.1,27.6-71.4,65.9-71.4c45.6,0,62.2,36,62.2,76.7v8.7L1873,164.4
	L1873,164.4z M1919.8,137.6c0-15.7-6.6-28.6-23.7-28.6c-15.4,0-22.7,12.9-23.6,28.6H1919.8L1919.8,137.6z M2059.2,219.1
	c-0.2-7.4-0.9-14.5-0.9-21.5h-0.5c-9.7,17.1-21.5,24.7-39,24.7c-24.3,0-46.1-13.4-46.1-43c0-41.7,40.9-46.7,63.6-46.7
	c6.9,0,14.4,0.8,19.9,1.8c-0.3-18.6-12.8-23.6-28.1-23.6c-13.7,0-27.4,2.9-39.2,10.2l-0.7-32c15.1-6.8,31-9.7,49.2-9.7
	c31.4,0,58.6,15,58.6,56.7v50.9c0,10.8,0.5,21.5,2.4,32.3L2059.2,219.1L2059.2,219.1L2059.2,219.1z M2029.9,190.7
	c16.1,0,26.2-16.3,26.2-32.3c-5.4-0.3-11.6-0.8-18-0.8c-14.4,0-25.8,5-25.8,18.1C2012.4,185.2,2020,190.7,2029.9,190.7L2029.9,190.7
	z M2121.3,82.3h38.8v25.2h0.5c8.5-19.7,25.5-28.4,44.9-28.4c33.6,0,47,26.3,47,54.6v85.4H2210v-66.2c0-25.7-8-34.4-19.6-34.4
	c-17.5,0-26.5,13.4-26.5,42.8v57.8h-42.5V82.3z M1126,341.5h44v183.3h-44V341.5z M1199.1,388h38.8v25.2h0.5
	c8.5-19.7,25.5-28.4,44.9-28.4c33.6,0,47,26.3,47,54.6v85.4h-42.5v-66.2c0-25.7-8.1-34.4-19.6-34.4c-17.5,0-26.5,13.4-26.5,42.8
	v57.8h-42.5V388z M1337.1,388h45.6l25.5,97.4h0.5l25.8-97.4h42.3l-45.6,136.8h-48.5L1337.1,388L1337.1,388z M1523,470.1
	c2.4,18.9,15.4,26.3,36.1,26.3c13.2,0,26.2-3.7,37.6-10.5v33.3c-13.7,6.1-29.3,8.7-45.1,8.7c-40.7,0-71.6-26.5-71.6-71.7
	s27.6-71.4,65.9-71.4c45.6,0,62.2,36,62.2,76.7v8.7L1523,470.1L1523,470.1L1523,470.1z M1569.8,443.4c0-15.7-6.6-28.6-23.6-28.6
	c-15.4,0-22.7,12.9-23.6,28.6H1569.8z M1625.1,487c9.9,4.7,24.6,9.5,39.9,9.5c8.7,0,17.2-1.6,17.2-11c0-23.1-60.5-6.8-60.5-56.2
	c0-31.5,27.9-44.4,52.5-44.4c14.6,0,29.5,1.8,43.2,7.9l-3.3,32.8c-9-6-22.4-9.2-33.1-9.2c-9.2,0-19.6,1.8-19.6,9.5
	c0,21.3,63.3,4.5,63.3,56.5c0,36.5-29.5,45.7-57.4,45.7c-19.2,0-32.2-2.1-44.7-6.5L1625.1,487z M1731.9,388h25.1v-30.7l41.8-14.4
	V388h29.8V421h-29.8v50.4c0,16.5,3.5,24.9,17,24.9c4.3,0,8.7-1.1,13-1.8l1.4,30.7c-8,1-16.1,2.6-26.7,2.6c-38,0-47.3-18.6-47.3-51.2
	V421h-24.3L1731.9,388L1731.9,388L1731.9,388z M1846,388h38.8v25.2h0.5c8.5-19.7,25.5-28.4,44.9-28.4c17.5,0,31.9,8.4,38.5,26.3
	c9.9-18.4,26.2-26.3,43.7-26.3c35.5,0,43.5,22.3,43.5,59.3v80.6h-42.5v-73.5c0-15.5-5-27-17-27c-15.1,0-24.1,13.4-24.1,42.8v57.8
	h-42.6v-73.5c0-15.5-5-27-17-27c-15.1,0-24.1,13.4-24.1,42.8v57.8H1846L1846,388L1846,388z M2116.6,470.1
	c2.4,18.9,15.4,26.3,36.1,26.3c11.6,0,24.8-2.9,37.6-10.5v33.3c-13.7,6.1-29.3,8.7-45.2,8.7c-40.6,0-71.6-26.5-71.6-71.7
	s27.7-71.4,66-71.4c45.6,0,62.1,36,62.1,76.7v8.7L2116.6,470.1L2116.6,470.1L2116.6,470.1z M2163.4,443.4c0-15.7-6.6-28.6-23.7-28.6
	c-15.4,0-22.7,12.9-23.6,28.6H2163.4L2163.4,443.4z M2221,388h38.8v25.2h0.5c8.5-19.7,25.5-28.4,44.9-28.4c33.6,0,47,26.3,47,54.6
	v85.4h-42.5v-66.2c0-25.7-8-34.4-19.6-34.4c-17.5,0-26.4,13.4-26.4,42.8v57.8H2221L2221,388L2221,388z M2364.9,388h25.1v-30.7
	l41.8-14.4V388h29.8V421h-29.8v50.4c0,16.5,3.5,24.9,17,24.9c4.3,0,8.7-1.1,13-1.8l1.4,30.7c-8,1-16.1,2.6-26.7,2.6
	c-38.1,0-47.3-18.6-47.3-51.2V421h-24.4L2364.9,388L2364.9,388L2364.9,388z M1126.1,645.9h75.9c30.7,0,53.7,15,53.7,46.5
	c0,23.1-10.6,36-29.1,42.8v0.5c22,5,33.3,18.1,33.3,40.5c0,43.8-34.7,53-64.3,53h-69.5L1126.1,645.9L1126.1,645.9L1126.1,645.9z
	 M1170.1,794.5h13c16.1,0,32.9-2.6,32.9-21.3c0-20-17.3-21.8-32.4-21.8h-13.5L1170.1,794.5L1170.1,794.5L1170.1,794.5z
	 M1170.1,718.4h12.3c14.4,0,29.3-3.9,29.3-19.4c0-16.8-14.2-18.4-28.8-18.4h-12.8V718.4z M1363.4,829.2c-0.2-7.3-0.9-14.4-0.9-21.5
	h-0.5c-9.7,17.1-21.5,24.7-39,24.7c-24.3,0-46.1-13.4-46.1-43c0-41.8,40.9-46.7,63.6-46.7c6.8,0,14.4,0.8,19.9,1.8
	c-0.3-18.7-12.8-23.6-28.1-23.6c-13.7,0-27.4,2.9-39.2,10.2l-0.7-32c15.1-6.8,31-9.7,49.2-9.7c31.4,0,58.6,14.9,58.6,56.7v50.9
	c0,10.8,0.5,21.5,2.4,32.3H1363.4L1363.4,829.2z M1334.1,800.9c16.1,0,26.2-16.3,26.2-32.3c-5.4-0.3-11.6-0.8-18-0.8
	c-14.4,0-25.7,5-25.7,18.1C1316.6,795.3,1324.2,800.9,1334.1,800.9L1334.1,800.9z M1427.2,692.4h38.8v25.2h0.5
	c8.5-19.7,25.5-28.4,44.9-28.4c33.6,0,47,26.2,47,54.6v85.3h-42.6V763c0-25.7-8-34.4-19.6-34.4c-17.5,0-26.4,13.4-26.4,42.8v57.8
	h-42.6V692.4z M1584.8,632.3h42.6v117.6h0.5l35.5-57.5h46.6l-42.8,62.7l46.3,74h-51.5l-34-67.7h-0.5v67.7h-42.6L1584.8,632.3
	L1584.8,632.3z"/>
<path class="st0" d="M250.8,13.2H99.3L36.8,930l73.4-4.6c98.5-181.5,155.6-406.7,158.2-648C269.5,175.1,266.7,91.4,250.8,13.2
	L250.8,13.2z"/>
<path class="st0" d="M384.2,15.5l15,881.7l180.4,20l20-896.8l-56.3-1.3L384.2,15.5z"/>
<path class="st0" d="M836.3,1046.8h-99.6L738.6,35l152.8,2.5l3.8,234.2L836.3,1046.8z"/>
</svg>
