<?xml version="1.0" encoding="utf-8"?>
<!-- Generator: Adobe Illustrator 22.0.1, SVG Export Plug-In . SVG Version: 6.00 Build 0)  -->
<svg version="1.1" id="Layer_1" xmlns="http://www.w3.org/2000/svg" xmlns:xlink="http://www.w3.org/1999/xlink" x="0px" y="0px"
	 viewBox="0 0 1230.2 675.6" style="enable-background:new 0 0 1230.2 675.6;" xml:space="preserve">
<style type="text/css">
	.st0{fill:#00000C;}
</style>
<g>
	<g>
		<g>
			<g>
				<path class="st0" d="M206.3,394.3l-0.1,196.9l-42.5,0l0.1-155.9l-65.4,0l-0.1,155.9l-42.5,0l0.1-155.9l-29.9,0l0-41l29.9,0
					l0-3.9c0-53.2,29.6-79.9,89.1-79.9c13.8,0,28.4,1.6,43.7,5.1l0,39c-13.8-2-28.4-3.2-43.7-3.2c-31.5,0-46.5,10.2-46.5,39l0,3.9
					L206.3,394.3z"/>
			</g>
			<g>
				<path class="st0" d="M426.8,470.5l-0.1,120.9l-42.5,0l0.1-116.6c0-29.5-16.9-45.7-44.1-45.7c-29.9,0-50,18.5-50,56.7l-0.1,105.5
					l-42.5,0l0.1-196.9l42.5,0l0,25.2c13-20.1,33.1-30.3,61.1-30.3C396.5,389.3,426.8,420,426.8,470.5z"/>
			</g>
			<g>
				<path class="st0" d="M464.5,591.4l0.2-287.5l42.5,0l-0.2,287.5L464.5,591.4z"/>
			</g>
			<g>
				<path class="st0" d="M581.9,511.1c6.3,29.9,30.3,46.5,63,46.5c22.4,0,39.4-8.2,50.8-24.4l35,20.5
					c-19.3,28.7-48.1,42.9-86.3,42.9c-31.9,0-57.9-9.9-77.6-29.2c-19.7-19.7-29.5-44.5-29.5-74.4c0-29.5,9.9-53.9,29.2-73.6
					c19.3-20.1,44.5-29.9,74.8-29.9c28.7,0,52.4,10.3,70.9,30.4c18.5,20.1,27.9,44.9,27.9,73.7c0,4.3-0.4,10.2-1.6,17.7L581.9,511.1
					z M697.3,476.5c-5.9-31.9-28.3-48.5-56.3-48.5c-31.5,0-53.6,18.5-59.5,48.4L697.3,476.5z"/>
			</g>
			<g>
				<path class="st0" d="M924.6,394.8l42.5,0L967,591.7l-42.5,0l0-28.4c-16.2,22.4-39,33.4-68.9,33.4c-27.2,0-50-9.9-69.3-30
					c-19.3-20.1-28.7-44.9-28.7-73.7c0-29.1,9.5-53.6,28.8-73.6c19.3-20.1,42.2-29.9,69.3-29.9c29.9,0,52.8,11.1,68.9,33.1
					L924.6,394.8z M862.3,556.2c17.7,0,32.7-5.9,44.5-17.7c11.8-12.2,17.7-27.2,17.7-45.3c0-18.1-5.9-33.1-17.7-44.9
					c-11.8-12.2-26.8-18.1-44.5-18.1c-17.7,0-32.7,5.9-44.5,18.1c-11.8,11.8-17.7,26.8-17.7,44.9c0,18.1,5.9,33.1,17.7,45.3
					C829.6,550.3,844.6,556.2,862.3,556.2z"/>
			</g>
			<g>
				<path class="st0" d="M1189.6,420.1c19.3,20.1,28.7,44.5,28.7,73.3c0,29.1-9.5,53.6-28.8,73.6c-19.3,20.1-42.2,29.9-69.3,29.9
					c-29.9,0-52.8-11.1-68.9-33.1l-0.1,106.7l-42.5,0l0.2-275.7l42.5,0l0,28.4c16.2-22.4,39-33.4,68.9-33.4
					C1147.5,389.8,1170.4,400,1189.6,420.1z M1113.5,556.3c17.7,0,32.7-5.9,44.5-17.7c11.8-12.2,17.7-27.2,17.8-45.3
					c0-18.1-5.9-33.1-17.7-44.9c-11.8-12.2-26.8-18.1-44.5-18.1c-17.7,0-32.7,5.9-44.5,18.1c-11.8,11.8-17.7,26.8-17.7,44.9
					c0,18.1,5.9,33.1,17.7,45.3C1080.9,550.4,1095.8,556.3,1113.5,556.3z"/>
			</g>
		</g>
		<g>
			<path class="st0" d="M839.4,168.4c8.2-42.3-7-78.9-7.4-79.5c-27.6-64-84.1-71.9-90.3-73.7l-1.6-0.4
				c-77.9-11.2-145.3,8.5-145.3,8.5l-19.1,6.4c-1,0.4-2.1,0.4-3.2,0.2c-17.4-3.8-78.9-15.3-127.3-2.4c-5.5,1.5-6.1,9.2-0.9,11.3
				c13,5.4,26.9,17.9,21.8,46.8c-0.3,1.5-1.1,2.8-2.3,3.7C386.7,148.4,351.6,234,338.3,276.4c-1.9,6.1,5.9,10.6,10.2,5.8
				c214.4-236.4,470.8-77.7,470.3-78.4c0.3,0.1,0.6,0.3,0.9,0.4c1.5,0.8,3.2,1.4,5,1.6c6.9,0.8,13.2-3.3,15.3-9.6
				c0,0,0.4-1.1,0.3-1.1c0-0.1,0,0,0-0.1c0.1-0.5,0.2-0.8,0.2-1.3c0.1-0.6,0.1-1.5,0.1-2.1c0.9-11.2-0.4-18-1.1-20.6
				C839.2,170.2,839.2,169.3,839.4,168.4z"/>
		</g>
	</g>
</g>
</svg>
