<?xml version="1.0" encoding="utf-8"?>
<!-- Generator: Adobe Illustrator 23.0.0, SVG Export Plug-In . SVG Version: 6.00 Build 0)  -->
<svg version="1.1" id="Layer_1" xmlns="http://www.w3.org/2000/svg" xmlns:xlink="http://www.w3.org/1999/xlink" x="0px" y="0px"
	 viewBox="0 0 2500 933" style="enable-background:new 0 0 2500 933;" xml:space="preserve">
<path d="M1210,329.3c-19.3,0-29.8,2.1-45.4,9.3c-28.5,13.1-49.9,34.5-69,68.9l-6,10.8l0.8-19.1c0.4-10.5,1.1-30.2,1.6-43.7l0.8-24.5
	h-4.1c-5.3,0-170,32.9-175,35c-3.2,1.3-3.7,2.8-3.7,10.7c0,8.2,0.4,9.2,3.7,9.9c2,0.4,9.6,1.9,16.8,3.3c14.6,2.8,18.9,5.1,24.9,13
	c11.1,14.7,13.4,40.6,13.2,150.1c-0.1,89.6-2,134.2-6.2,148.2c-5.2,17.1-14.5,25.9-30.6,28.9c-5.2,1-12.1,2.3-15.3,3l-5.8,1.2
	l-0.5,11.5c-0.3,8.1,0.1,11.9,1.7,12.9c1.2,0.8,57.5,1.2,125.2,1l123.1-0.4l0.5-12.9c0.3-7.1-0.1-12.9-0.8-12.9
	c-9.6,0-38.8-4-43.5-6c-13.9-5.8-20.6-18.2-23.5-43.5c-3.4-29.7-5.4-103.5-4.5-164c1-61.1,1-61.3,4.8-65.5c8.9-9.6,31.5-17,51.7-17
	c16.2,0,33,4.1,50.8,12.7c8.6,4.1,16.4,7.1,17.5,6.7c2.2-0.9,42.6-107.5,42.6-112.6C1255.8,336.8,1232.9,329.3,1210,329.3z
	 M563,265.5c-0.6-42.2-1.6-79.7-2.2-83.4l-1.1-6.6L330.3,175c-126.2-0.2-231.9,0-234.9,0.5l-5.5,1l0.5,13.6l0.5,13.6l17.5,2.1
	c22.7,2.7,36.2,9.1,44.2,20.8c18.1,26.4,21.4,62.4,21.4,233.2c0,182-3.8,226.1-21.3,249.1c-9,11.8-16.3,15.7-36.8,19.5
	c-26.7,4.9-25.8,4.3-25.8,18.1c0,7.7,0.7,11.8,2.1,12.4c3,1.2,296.5,1.3,299.6,0.1c4-1.5,3.8-23.2-0.3-25.3
	c-1.6-0.8-11.5-2.8-22-4.4c-10.5-1.6-22.1-4.2-25.8-5.8c-19.2-8.4-29.9-31.5-33.9-73.4c-2.9-30-5.1-85.4-5.1-126.3v-37.5l17.9,0.5
	c38.1,1.2,57.8,3.2,65.7,6.7c17.2,7.6,31.2,28.9,38.4,58.5l3.8,15.8l13.6,0.5l13.6,0.5V369.1l-13.6,0.5l-13.6,0.5l-4,15.8
	c-7.7,30.6-20.2,49.4-38.7,57.9c-7.5,3.5-12.8,4.4-30.8,5.5c-11.9,0.7-28.6,1.3-37.1,1.4l-15.4,0.1l0-49.5
	c0-49.6,2.6-154.9,4.3-171.3l0.9-8.7h52.3c60.1,0,70,1.3,91.3,11.7c30.9,15.1,53.4,45.2,73.1,97.2c8,21.2,7.9,21.1,25.7,15.7
	l11.8-3.6L563,265.5z M2392.2,573.6c-14-28-39.7-47.1-93.7-69.6c-44-18.4-66.2-31.1-79.6-45.9c-10.9-12-14.1-21.7-13.1-39.6
	c1-16.5,5-26.4,15.4-37.5c13.3-14.2,31.6-19.2,53.5-14.6c35.9,7.6,59,32.5,78.8,85.1c7.1,18.8,7.9,19.4,20.6,14.6l8.1-3l-0.3-21.6
	c-0.2-11.9-0.8-36.9-1.4-55.5l-1.1-33.9l-6-2.5c-32.9-13.9-95.6-22.6-136.5-18.9c-46.4,4.2-80.5,19-106.7,46.2
	c-26.1,27-37.8,58.7-35.8,96.3c1.7,31.1,10.9,53.5,30.1,73.1c17.8,18.2,32.7,26.8,75.5,43.5c69.1,27,87.4,43,87.2,76.2
	c-0.1,28.1-15,48.6-42.2,58.2c-9.7,3.4-34.2,3.4-47.3-0.1c-34.3-9-60.6-38.8-83-93.9l-5.8-14.1l-6.7,0.3c-3.7,0.2-8.8,1.3-11.3,2.5
	l-4.6,2.2l0.4,24.1c0.2,13.2,0.9,41.2,1.5,62.1l1.1,38l7.7,3.3c15.7,6.8,62.9,17.1,92.5,20.2c3.7,0.4,23.9,0.5,44.9,0.3
	c36.5-0.4,39.1-0.6,57.5-5.4c54.2-14.2,89.3-44.4,104.8-90.2c4.8-14.1,5.4-18.4,6.1-39.3C2403.9,606.3,2401.3,591.8,2392.2,573.6z
	 M2062.5,498.1c-7.7-74.7-37.9-126.2-89.4-152c-45.7-22.9-116.2-21.2-167.8,3.9c-48.9,23.8-82.6,63.6-101.3,119.8
	c-9.8,29.2-12.9,52.8-11.9,90.7c0.6,24,1.7,36.3,4.2,47.4c19.3,86,78.3,144.6,160.8,159.4c18.2,3.3,59.4,3.3,77.8,0.1
	c26.2-4.6,56.4-16.2,75.5-29.1c23.3-15.7,47.1-39.4,47.1-46.7c0-4.5-8-14.8-11.5-14.8c-1.5,0-8,3.4-14.3,7.5
	c-22.8,14.7-44.5,20.8-74.8,20.8c-41.7,0-68.2-10.4-94.8-37.2c-11.8-11.9-16.6-18.3-22.7-30.1c-13.4-25.9-20.6-55.7-21.7-89.4
	l-0.5-14.5l246.1-0.9l0.6-8.3C2064.1,520.1,2063.5,508.2,2062.5,498.1z M1924.2,499.5c-34.7,1.9-109.3,2.9-110.2,1.4
	c-1.2-2,1.9-31.6,4.9-46.9c7.4-37,19.2-63.7,35.6-80.1c8.8-8.8,12.8-11.6,19.9-13.7c4.9-1.5,10.5-2.6,12.4-2.6
	c7.6,0,16.6,3.9,23.3,10.1c18,16.6,28.3,52.2,30.3,104.9l1,26L1924.2,499.5z M1655.3,479.8c-16.6-75.9-64-128.4-128.1-141.6
	c-9.8-2-18.6-2.5-37.7-1.8c-28.7,1-48.4,5.3-69.9,15.2c-7.1,3.3-13.3,6-13.8,6c-0.5,0-0.4-43.4,0.2-96.5c0.8-74.8,0.6-96.5-1-96.5
	c-5.4-0.1-175.3,32.3-177.1,33.8c-1.4,1.1-2,4.7-1.7,10.1c0.6,9.4-0.6,8.7,20.1,13.4c6.2,1.4,13.5,4.1,16.2,6
	c6.9,4.9,12.6,15.6,16.6,30.8c3.2,12.1,3.6,20.7,5,102.1c1.5,83.2,1.2,168.7-1.1,325.3l-1,65.1l12.2,2.8c17.6,4,68,12.4,84.5,14.1
	c24.2,2.5,80.6,2.1,98.6-0.6c78-11.8,136.8-57,164.2-126.3c7.3-18.4,14.2-46.7,16.7-67.7C1661.2,548.8,1659.6,499.6,1655.3,479.8z
	 M1531.4,601.1c-7.7,48.5-21.6,85.9-40.9,110c-9.4,11.7-25,22.8-37.2,26.4c-7.9,2.3-24.7,2.9-39.7,1.3c-3.4-0.3-7-1.7-8-2.9
	c-2.9-3.4-5.9-229.2-4-295.2l1.5-52.4l13.3-3.8c19.6-5.7,40.8-4.8,55.7,2.3c30.1,14.3,49.8,49.5,60.1,107.1
	C1535.5,512.7,1535,577.9,1531.4,601.1z M910.1,514.8c-8.7-73.8-40-127.8-91.7-158.2c-57.4-33.8-144.6-35.7-206.6-4.6
	c-44.8,22.5-81.3,65.7-97.5,115.4c-16.8,51.3-16.8,118.6,0,171c10.7,33.5,25.3,58,47.8,80.3c26.9,26.7,62.2,43.8,102.5,49.6
	c14.4,2.1,60,2.2,74.9,0.1c7.1-1,19.3-3.6,27.1-5.9c73.1-21.2,123-77.3,140.1-157.8C911,584.9,912.7,537.3,910.1,514.8z
	 M785.1,603.4c-5.5,77.6-22.3,119.7-53.8,134.3c-11.4,5.3-31.5,5.6-42.5,0.6c-27.3-12.4-46.7-50.1-56.4-109.7
	c-6.2-37.8-6.7-121.8-1.1-163c7.9-57.8,24.5-92,50.4-103.5c17.8-7.9,42.4-3.2,58.2,11.1C775,405,792.8,495.2,785.1,603.4z"/>
</svg>
