<svg id="Layer_1" data-name="Layer 1" xmlns="http://www.w3.org/2000/svg" viewBox="0 0 532 266"><title>SVG-</title><path d="M324.84,158.66c-6.38,8.71-12.66,17.05-18.63,25.59-1.74,2.5-3.53,3.45-6.55,3.29-5.07-.27-10.17-.08-15.85-.08.84-1.25,1.38-2.12,2-2.94q13.84-19,27.72-37.94c1.26-1.72,1.72-3,.34-5.12Q295.6,114,277.62,86.4c-2-3-4.34-2.78-6.84-1.21A48.83,48.83,0,0,0,266.36,89c-1.42,1.15-2.92,2.21-4.47,3.36.58-2.32,1-4.12,1.46-5.92-2.05-.32-4.2-1.2-6.14-.87-10.87,1.88-21.69,4-32.53,6.12l-3.93.76a6.18,6.18,0,0,1,0-1.43c2.6-7.51,1.74-8.35-6.21-7.42-5.64.67-11.36.7-17.81,1.86l9.48,10.74-.5,1c-2.37-1-5-1.72-7.05-3.2a19.59,19.59,0,0,1-5-5.63c-5-8.18-9.8-16.46-14.56-24.77a14.6,14.6,0,0,0-11.26-7.68c-3.11-.44-6.19-1.14-9.27-1.83s-4,0-3.1,3.28c.42,1.64.94,3.25,1.41,4.88l-1.18.84c-1.75-1.5-3.51-3-5.24-4.5-2.74-2.4-4-2-4.9,1.56a17.15,17.15,0,0,0-.51,4.33c.27,18-3,35.48-8,52.71-5.41,18.44-7.94,37.23-6.3,56.51.43,5,.06,10.16.06,15.5H107.16c.26-2.15.39-4.26.77-6.33,1.73-9.3,3.34-18.63,5.45-27.84.49-2.19,2.77-3.95,4.16-6,1-1.44,2.38-2.84,2.73-4.45,2.1-9.73,4-19.51,5.87-29.28.35-1.8.44-3.48,2.84-4.06.81-.2,1.45-2,1.77-3.16,4.78-17.63,6.81-35.75,9.21-53.79,1.31-9.82,1.6-10,11-7.46,8.18,2.25,16.33,4.69,24.62,6.5a11.11,11.11,0,0,1,8.12,6.41c3,5.95,6.22,11.81,9.2,17.79a4.21,4.21,0,0,0,4.58,2.6c7.64-.32,15.31-.21,22.94-.69,3.55-.23,5.2.78,5.31,4.35a30.07,30.07,0,0,0,.66,3.91,28.85,28.85,0,0,0,4.69-.78c18.06-6.21,36.9-6.7,55.67-8.15C293,78.34,296,80.48,299,85.5c8.42,14,17.43,27.75,26.22,41.58.3.48.72.89,1.3,1.61,5.68-7.72,11.34-15.12,16.63-22.77a5.94,5.94,0,0,1,5.92-3c5.05.22,10.1.06,16,.06l-5.42,7.51c-7.14,9.82-14.18,19.72-21.48,29.42-1.93,2.55-1.68,4.28.17,6.56q12.87,15.83,25.54,31.81c2.07,2.61,3.89,5.43,6.51,9.11-9.13,0-17.22.07-25.3-.09-.88,0-2-1.22-2.57-2.13-5.2-7.77-10.3-15.6-15.44-23.41C326.38,160.82,325.68,159.87,324.84,158.66Z"/><path d="M273.08,143.93c11.62,3.76,16.63,10.65,16.28,21.58s-6.73,19.19-17.08,21.74a40.45,40.45,0,0,1-9.37,1.14c-13.8.12-27.61.06-41.25.06,1.07-28.54,2.14-57.11,3.22-85.94a4.75,4.75,0,0,1,1.35-.32q18.75-.15,37.5-.25c1.46,0,2.91.06,4.37.14,14.9.88,22.5,10.75,19.67,25.47C286.22,135.67,281.28,140.85,273.08,143.93Zm-32.91,32c6.39,0,13,.16,19.65-.1a14.68,14.68,0,0,0,6.12-2.08c4.31-2.36,6.43-8.25,5.35-14-.85-4.54-4.23-8.31-9.1-8.62-7.1-.46-14.24-.12-22-.12Zm1.4-61.55v23.52c3.73,0,7.61.21,11.46-.06,3.59-.26,7.32-.52,10.67-1.7,5-1.77,7.66-7.81,6.69-13.61-.83-4.92-4.19-7.83-10.15-8.09S248.37,114.42,241.57,114.42Z"/><path d="M218.1,139.45c-.66,15.24-1.26,30-2,44.82a3.54,3.54,0,0,1-2.1,2.57c-15.06,3-30.2,5-45.53,2-18.58-3.56-28.42-13.55-31.75-32.22-4.42-24.82,10.22-48.51,33.67-54.18,10.65-2.57,21.45-2.29,32.22-.81,3.84.54,8.8.16,11.12,2.4,2.11,2,1.35,7.07,1.81,10.78.14,1.19.15,2.4.25,4-3.13-.88-6-1.74-8.83-2.46-9.52-2.4-19.09-3.47-28.78-.84-13.58,3.68-22.18,14.51-23.42,29.59-.08,1-.12,1.94-.14,2.91-.33,19.13,10.93,30,30.05,28.86,4-.24,7.89-1.25,11.85-1.81,2.07-.29,2.79-1.34,2.85-3.4.18-6.31.54-12.61.85-19.27H185.13c.24-4.53.47-8.68.71-13Z"/><path d="M115.28,213.1a15.28,15.28,0,0,1-4.66.83,6.88,6.88,0,0,1-4.82-1.62,6.07,6.07,0,0,1-1.82-4.56,8.81,8.81,0,0,1,3-6.75,10.87,10.87,0,0,1,10.18-1.49l-.92,2.68a7.56,7.56,0,0,0-3.06-.62,5.84,5.84,0,0,0-3.68,1.19,6.13,6.13,0,0,0-2.08,4.77,3.38,3.38,0,0,0,3.71,3.73,4,4,0,0,0,1.56-.26l.58-3.12H111l.47-2.52h5.24Z"/><path d="M124,199l-2.74,14.77h-3.08L120.86,199Z"/><path d="M127.16,199.25a20.2,20.2,0,0,1,3.78-.35,6.58,6.58,0,0,1,3.58.79,3,3,0,0,1,1.66,2.69,3.68,3.68,0,0,1-2.9,3.51V206a3.17,3.17,0,0,1,2.26,3.22,4.12,4.12,0,0,1-2,3.5,9.73,9.73,0,0,1-5.43,1.18,19.08,19.08,0,0,1-3.64-.26Zm.77,12.1a10.24,10.24,0,0,0,1.17.06c1.67,0,3.19-.68,3.19-2.32,0-1.47-1.2-1.91-2.63-1.91h-1Zm1.24-6.47h1c1.69,0,2.85-.74,2.85-2,0-1.08-.86-1.54-2-1.54a5.32,5.32,0,0,0-1.2.11Z"/><path d="M140.08,199.3a16.74,16.74,0,0,1,3.85-.4,7.27,7.27,0,0,1,3.79.86,3.21,3.21,0,0,1,1.6,2.89,4.31,4.31,0,0,1-3.27,4.16v.09c.86.37,1.22,1.36,1.37,2.69a27,27,0,0,0,.55,4.19h-3.16a24.4,24.4,0,0,1-.43-3.49c-.13-1.79-.73-2.34-1.95-2.34h-.94l-1.07,5.83h-3.06Zm1.86,6.28h1.28a2.61,2.61,0,0,0,2.89-2.47c0-1.19-1-1.71-2.2-1.71a4.73,4.73,0,0,0-1.2.11Z"/><path d="M154.46,209.94l-1.71,3.84h-3.28l7-14.77h4l1.69,14.77h-3.23l-.3-3.84Zm4-2.41-.28-3.17c-.06-.81-.15-2-.21-2.9h0c-.37.9-.77,2-1.16,2.9l-1.43,3.17Z"/><path d="M166.87,199H170l-2.23,12h5.55l-.52,2.76h-8.62Z"/><path d="M177.72,201.77h-3.81l.53-2.76h10.72l-.51,2.76H180.8l-2.21,12h-3.08Z"/><path d="M187.26,209.94l-1.71,3.84h-3.27l7-14.77h4l1.69,14.77h-3.23l-.3-3.84Zm4-2.41-.27-3.17c-.07-.81-.15-2-.22-2.9h0c-.36.9-.77,2-1.16,2.9l-1.43,3.17Z"/><path d="M199.65,199.3a16.74,16.74,0,0,1,3.85-.4,7.27,7.27,0,0,1,3.79.86,3.21,3.21,0,0,1,1.6,2.89,4.31,4.31,0,0,1-3.27,4.16v.09c.86.37,1.22,1.36,1.37,2.69a25.6,25.6,0,0,0,.56,4.19h-3.17a24.4,24.4,0,0,1-.43-3.49c-.13-1.79-.73-2.34-1.95-2.34h-.94L200,213.78h-3.06Zm1.86,6.28h1.29a2.61,2.61,0,0,0,2.88-2.47c0-1.19-1-1.71-2.2-1.71a4.73,4.73,0,0,0-1.2.11Z"/><path d="M217.15,199.21a15.56,15.56,0,0,1,3.11-.31,4.69,4.69,0,0,1,3.31,1,2.91,2.91,0,0,1,1.05,2.3,4,4,0,0,1-3.12,3.68V206a3.25,3.25,0,0,1,2.37,3.28,4.31,4.31,0,0,1-1.73,3.42,7.5,7.5,0,0,1-4.67,1.2,17.79,17.79,0,0,1-3-.19Zm-.68,13.1a10,10,0,0,0,1.47.09c2.1,0,4.07-.88,4.07-3.25,0-1.73-1.43-2.49-3.06-2.49h-1.43Zm1.32-7h1.33c2.06,0,3.66-1.1,3.66-2.9,0-1.42-1.05-2-2.61-2a5.6,5.6,0,0,0-1.48.15Z"/><path d="M228.73,199h1.77L228,212.2h5.82l-.3,1.58H226Z"/><path d="M248.31,204.82A10.57,10.57,0,0,1,245.7,212a6.83,6.83,0,0,1-4.95,2.06c-3.72,0-5.47-2.87-5.47-6a10.73,10.73,0,0,1,2.76-7.26,7,7,0,0,1,4.83-2C246.74,198.77,248.31,201.66,248.31,204.82Zm-9-3a9.42,9.42,0,0,0-2.2,6.07c0,2.41,1.05,4.62,3.87,4.62a4.65,4.65,0,0,0,3.3-1.46,9.74,9.74,0,0,0,2.14-6.12c0-2.1-.67-4.6-3.81-4.6A4.53,4.53,0,0,0,239.34,201.79Z"/><path d="M259.6,213.3a9.28,9.28,0,0,1-3.74.7c-3.64,0-5.84-2.35-5.84-6.12a9.3,9.3,0,0,1,3.08-7.12,8.08,8.08,0,0,1,5.44-2,5.77,5.77,0,0,1,3.12.72l-.58,1.47a5.78,5.78,0,0,0-2.84-.61,6,6,0,0,0-4.13,1.66,7.87,7.87,0,0,0-2.21,5.61c0,2.65,1.18,4.82,4.39,4.82a7.2,7.2,0,0,0,3.08-.63Z"/><path d="M264.68,199h1.77l-1.35,7.19.11,0c.49-.62,1-1.14,1.41-1.65l5.07-5.52h2.23l-6.08,6.35,3.73,8.42h-1.95l-3.15-7.25-1.73,1.64-1.05,5.61h-1.75Z"/><path d="M283,213.3a9.34,9.34,0,0,1-3.75.7c-3.63,0-5.84-2.35-5.84-6.12a9.3,9.3,0,0,1,3.08-7.12,8.08,8.08,0,0,1,5.44-2,5.74,5.74,0,0,1,3.12.72l-.57,1.47a5.86,5.86,0,0,0-2.85-.61,6,6,0,0,0-4.13,1.66,7.87,7.87,0,0,0-2.2,5.61c0,2.65,1.17,4.82,4.38,4.82a7.2,7.2,0,0,0,3.08-.63Z"/><path d="M289.82,199l-1.18,6.22h6.63l1.16-6.22h1.8l-2.76,14.77h-1.78l1.28-6.95h-6.63l-1.28,6.95h-1.78L288,199Z"/><path d="M302.06,209.11l-2.29,4.67h-1.89L305.35,199h2.1l2,14.77h-1.82l-.58-4.67Zm4.83-1.45-.55-4.27c-.09-.76-.2-1.84-.26-2.71h0c-.39.87-.75,1.79-1.18,2.69l-2.16,4.29Z"/><path d="M316.2,199l-2.74,14.77h-1.77L314.43,199Z"/><path d="M317.12,213.78,319.86,199h1.95l3.31,8.37a32.27,32.27,0,0,1,1.27,4.12l0,0a36.74,36.74,0,0,1,.6-4.63l1.45-7.84h1.69l-2.76,14.77h-1.75l-3.28-8.35a28.58,28.58,0,0,1-1.34-4.25l-.07,0c-.15,1.38-.38,2.85-.75,4.87l-1.43,7.71Z"/><path d="M343.7,206.83h-5.25l-1,5.39h5.9l-.3,1.56h-7.68L338.13,199h7.36l-.3,1.56h-5.56l-.88,4.73H344Z"/><path d="M353.3,213.78l-1.37-3.66c-.38-1-.68-1.82-.92-2.59h0c-.45.7-1,1.51-1.69,2.54l-2.59,3.71h-2.12l5.63-7.52L347.48,199h1.89l1.37,3.79c.3.88.53,1.56.72,2.24h.05c.47-.73,1-1.49,1.47-2.24l2.76-3.79h2.12l-5.56,7.23,2.89,7.54Z"/><path d="M367,213.3a9.28,9.28,0,0,1-3.74.7c-3.64,0-5.84-2.35-5.84-6.12a9.3,9.3,0,0,1,3.08-7.12,8.08,8.08,0,0,1,5.44-2,5.77,5.77,0,0,1,3.12.72l-.58,1.47a5.78,5.78,0,0,0-2.84-.61,6,6,0,0,0-4.13,1.66,7.87,7.87,0,0,0-2.21,5.61c0,2.65,1.18,4.82,4.39,4.82a7.2,7.2,0,0,0,3.08-.63Z"/><path d="M373.82,199l-1.17,6.22h6.63l1.16-6.22h1.79l-2.76,14.77H377.7l1.28-6.95h-6.63l-1.29,6.95h-1.77L372.05,199Z"/><path d="M386.06,209.11l-2.29,4.67h-1.88L389.36,199h2.09l2,14.77h-1.81l-.58-4.67Zm4.84-1.45-.56-4.27c-.08-.76-.19-1.84-.26-2.71h0c-.38.87-.75,1.79-1.17,2.69l-2.17,4.29Z"/><path d="M395.71,213.78,398.45,199h1.95l3.32,8.37A32.06,32.06,0,0,1,405,211.5l0,0a40.9,40.9,0,0,1,.6-4.63l1.45-7.84h1.69L406,213.78h-1.75L401,205.43a27.61,27.61,0,0,1-1.35-4.25l-.07,0c-.15,1.38-.38,2.85-.74,4.87l-1.44,7.71Z"/><path d="M420.28,213.14a11.21,11.21,0,0,1-4.07.79,5.93,5.93,0,0,1-4.71-1.84,6.48,6.48,0,0,1-1.45-4.32,9.22,9.22,0,0,1,2.82-6.72,8.82,8.82,0,0,1,5.93-2.19,7.11,7.11,0,0,1,3.4.68l-.57,1.53a6.77,6.77,0,0,0-3-.64,6.35,6.35,0,0,0-4.48,1.8,7.76,7.76,0,0,0-2.16,5.41c0,2.85,1.39,4.74,4.6,4.74a5.72,5.72,0,0,0,2.21-.42l.81-4.4h-2.93l.28-1.49h4.66Z"/><path d="M431.72,206.83h-5.24l-1,5.39h5.9l-.3,1.56h-7.68L426.16,199h7.36l-.3,1.56h-5.56l-.88,4.73H432Z"/></svg>