<svg id="Layer_1" data-name="Layer 1" xmlns="http://www.w3.org/2000/svg" viewBox="0 0 532 266"><title>SVG-</title><rect x="57.62" y="96.11" width="13.65" height="64.59"/><rect x="102.2" y="96.11" width="13.65" height="64.59"/><rect x="344.17" y="96.11" width="13.65" height="64.59"/><rect x="64.9" y="122.49" width="44.57" height="13.65"/><rect x="344.17" y="95.2" width="57.31" height="13.65"/><rect x="344.17" y="122.49" width="57.31" height="10.92"/><rect x="344.17" y="147.05" width="57.31" height="13.65"/><polygon points="132.22 160.69 145.86 160.69 164.96 121.58 182.25 160.69 197.71 160.69 164.96 95.2 132.22 160.69"/><path d="M261.39,96.11v13.64H235.92s-18.2,0-18.2,19.11c0,20,18.2,20,18.2,20H262.3v11.82H233.19s-28.2,0-27.29-32.74c0-35.48,35.48-31.84,35.48-31.84Z"/><path d="M422.4,160.69V148h25.47s18.2,0,18.2-19.1c0-20-18.2-20-18.2-20H421.49V96.11H450.6s28.2,0,27.29,32.75c0,35.47-35.47,31.83-35.47,31.83Z"/><polygon points="308.69 96.11 325.07 96.11 294.14 128.86 325.07 160.69 305.05 160.69 275.94 128.86 308.69 96.11"/></svg>