<svg id="Layer_1" data-name="Layer 1" xmlns="http://www.w3.org/2000/svg" viewBox="0 0 125.4 73.11"><defs><style>.cls-1{fill:#0057ff;}</style></defs><rect class="cls-1" x="8.95" y="28.4" width="3.49" height="16.52"/><rect class="cls-1" x="20.35" y="28.4" width="3.49" height="16.52"/><rect class="cls-1" x="82.24" y="28.4" width="3.49" height="16.52"/><rect class="cls-1" x="10.81" y="35.14" width="11.4" height="3.49"/><rect class="cls-1" x="82.24" y="28.16" width="14.66" height="3.49"/><rect class="cls-1" x="82.24" y="35.14" width="14.66" height="2.79"/><rect class="cls-1" x="82.24" y="41.43" width="14.66" height="3.49"/><polygon class="cls-1" points="28.03 44.92 31.52 44.92 36.41 34.91 40.83 44.92 44.78 44.92 36.41 28.16 28.03 44.92"/><path class="cls-1" d="M61.07,28.4v3.49H54.55a4.63,4.63,0,0,0-4.65,4.88,4.71,4.71,0,0,0,4.65,5.12H61.3v3H53.86s-7.22,0-7-8.38c0-9.07,9.07-8.14,9.07-8.14Z"/><path class="cls-1" d="M102.25,44.92V41.66h6.52a4.63,4.63,0,0,0,4.65-4.89,4.71,4.71,0,0,0-4.65-5.12H102V28.4h7.44s7.22,0,7,8.37c0,9.08-9.07,8.15-9.07,8.15Z"/><polygon class="cls-1" points="73.17 28.4 77.36 28.4 69.44 36.77 77.36 44.92 72.24 44.92 64.79 36.77 73.17 28.4"/></svg>