<svg id="Layer_1" data-name="Layer 1" xmlns="http://www.w3.org/2000/svg" viewBox="0 0 532 266"><title>SVG-</title><path d="M157,171c3.92-.75,7.83-1.53,11.75-2.26,3-.56,6-1.07,9-1.57s6-1,8.94-1.41c2.65-.38,5.31-.66,8-1,3-.38,6.07-.81,9.12-1.17,1.8-.21,3.61-.33,5.42-.51l9.53-.94c1.06-.1,2.12-.19,3.19-.25l8.91-.49c3.16-.16,6.33-.35,9.5-.47,4.85-.19,9.7-.37,14.55-.47q9.09-.19,18.19-.24c3.87,0,7.73.11,11.59.23s7.46.29,11.19.48c3.92.21,7.83.44,11.74.73s7.56.6,11.33.95,7.77.75,11.64,1.21c4.33.51,8.67,1,13,1.69,5.19.79,10.36,1.69,15.53,2.61s10.39,1.93,15.58,2.9a.76.76,0,0,1,.48.45c-1.37-.08-2.74-.13-4.11-.25-2.28-.21-4.55-.48-6.82-.69-3.5-.33-7-.64-10.49-1-1.14-.1-2.29-.18-3.43-.25l-8.55-.49-11.38-.72q-4.22-.26-8.43-.47-5.22-.27-10.46-.48-6.19-.27-12.39-.48c-2.94-.1-5.89-.18-8.83-.24-4.34-.1-8.69-.19-13-.24-8.87-.1-17.73-.21-26.6-.23-4.62,0-9.25.13-13.87.23-2.78.06-5.57.14-8.35.24q-6.32.21-12.63.48-4.93.21-9.87.48-6,.33-12.09.72-5,.33-10.06.72-6,.45-12,1c-3.46.3-6.92.63-10.37,1-1.45.14-2.9.31-4.35.47Z"/><path d="M230.36,47.93a53.7,53.7,0,0,0-12,24.54,67,67,0,0,0-1.18,14.27,5.72,5.72,0,0,0,0,.72c.4,2.13.37,2.1-1.77,2.67-2.74.74-5.46,1.59-8.1,2.37,0-3.27-.22-6.5.07-9.69a56.2,56.2,0,0,1,1.66-9.35A49.37,49.37,0,0,1,217,57.05c1.52-2.11,3.21-4.09,4.92-6a50.27,50.27,0,0,1,10.79-9.1c2.05-1.31,4.19-2.47,6.33-3.61q4.68-2.48,9.42-4.81A38.73,38.73,0,0,1,261,29.65c2.94-.34,5.89-.57,8.85-.72a52.24,52.24,0,0,1,21.22,3.37,54.24,54.24,0,0,1,15.07,8.55,59.31,59.31,0,0,1,16.45,21.63,49,49,0,0,1,3.42,12,56.29,56.29,0,0,1,.6,14,71.7,71.7,0,0,1-2,11.68,44.94,44.94,0,0,1-7.5,15.82A66.26,66.26,0,0,1,307,127a62.08,62.08,0,0,1-13.86,8.83c-1.83.89-3.49,2.13-5.34,3a69,69,0,0,1-8.78,3.52,47,47,0,0,1-9.65,1.94,124,124,0,0,1-12.5.07,44.27,44.27,0,0,1-14.17-3.09A46.81,46.81,0,0,1,229,133.38c-2.48-2-4.81-4.25-7.17-6.43-.78-.72-1.37-1.66-2.18-2.34a3.93,3.93,0,0,0-1.64-.44,2.5,2.5,0,0,0-.47,0c-6.39.08-12.77.29-19.16.2-3.86-.06-7.71-.6-11.56-.92a.64.64,0,0,1-.49-.36,6,6,0,0,1,.84-.11c2.32,0,4.64.07,6.95,0,4.36-.18,8.73-.27,13.06-.75A165.39,165.39,0,0,0,226.27,119a161.27,161.27,0,0,0,23.25-7.23c.83-.33,1.38-.34,1.83.66a19.56,19.56,0,0,0,2.08,3.41c.48.66.24.93-.34,1.11-2.68.84-5.36,1.71-8.07,2.44-3.68,1-7.39,1.87-11.13,2.8a48.15,48.15,0,0,0,9.82,8.29,48.91,48.91,0,0,0,18.23,7.14c2.91.49,5.86.74,8.8,1,6.71.53,13.2-.66,19.66-2.43a16.19,16.19,0,0,0,6.46-3.89,60.09,60.09,0,0,0,10.55-11.95,50.39,50.39,0,0,0,7.93-19.91,67.57,67.57,0,0,0,.94-12,52.77,52.77,0,0,0-4.46-20.55,54.9,54.9,0,0,0-8.43-13.12A60.56,60.56,0,0,0,290.87,43.4,48.91,48.91,0,0,0,275,36.23,55.28,55.28,0,0,0,267,35a84.33,84.33,0,0,0-9.67-.24,67.12,67.12,0,0,0-6.9.92,21.23,21.23,0,0,1,1.69,1.43c3.58,3.79,7.23,7.51,10.66,11.42s6.58,7.95,9.84,11.94c.53.64,1,1,1.77.26,3.57-3.47,7.22-6.86,10.77-10.34,1.49-1.47,2.78-3.15,4.26-4.64a1.71,1.71,0,0,1,1.54-.26c3.08,1.28,5.18,3.75,7.21,6.26a1,1,0,0,1-.15.9c-3.56,3.52-7.09,7.07-10.74,10.49-2.52,2.37-5.22,4.56-7.79,6.79L290,87a184,184,0,0,0,19.42-18.79,21.16,21.16,0,0,1,2.89,7.23c.16.81.32,1.61.47,2.42a4,4,0,0,1-1.61,4.16c-1.74,1.35-3.36,2.88-5.05,4.29q-3.58,3-7.22,5.92c-1.16.94-2.36,1.83-3.57,2.7a1.3,1.3,0,0,0-.47,1.8c1.22,2.71,2.51,5.4,3.58,8.17q2.6,6.78,4.89,13.68a4.16,4.16,0,0,1-.47,2.59,18.4,18.4,0,0,1-4.35,5.87c-.38-1.29-.73-2.38-1-3.48a189.56,189.56,0,0,0-9.08-26.47c-2.89-6.65-5.92-13.25-9.27-19.68A178.07,178.07,0,0,0,264.52,54c-2.87-3.89-5.85-7.69-8.84-11.48-1.74-2.2-3.6-4.29-5.45-6.4a1.26,1.26,0,0,0-1-.4c-2.56.67-5.14,1.33-7.66,2.17a8.23,8.23,0,0,0-2.9,1.69c-2.46,2.23-4.83,4.56-7.18,6.92a1.75,1.75,0,0,0-.16,1.39,194.57,194.57,0,0,0,8.07,24.58c1.1,2.76,2.41,5.44,3.57,8.18.43,1,.91,1.3,1.93.66,4.09-2.54,8.29-4.91,12.29-7.58s7.64-5.49,11.43-8.27c.54-.4.83-.45,1.2.19,1.31,2.27,2.64,4.54,4,6.77.52.86.1,1.34-.53,1.76-2.4,1.63-4.76,3.32-7.24,4.81-2.92,1.75-5.91,3.41-9,4.93S251.05,86.71,248,88c-1,.41-1.25.86-.67,1.84,3.22,5.42,6.4,10.86,9.59,16.3l1.11,1.89c2.25-1.11,4.52-2.08,6.64-3.32,4.26-2.48,8.46-5.07,12.63-7.7,1.88-1.2,3.65-2.59,5.43-3.94.58-.44.95-.52,1.26.24.85,2.18,1.78,4.34,2.52,6.56.12.36-.43,1.16-.87,1.46a105.43,105.43,0,0,1-14.93,8.44L262.07,114c5.58,7.53,11.13,15,17.87,21.74a5.6,5.6,0,0,1-1.48.48c-2.89,0-5.78.06-8.67,0a2,2,0,0,1-1.28-.92c-2.94-4.25-6-8.41-8.69-12.84-3.92-6.56-7.78-13.17-11.15-20s-6-13.74-8.87-20.69c-3.32-8.12-5.51-16.6-7.63-25.09C231.46,53.77,231,50.9,230.36,47.93Z"/><path d="M342,191.69V177.24c2,0,4,0,5.93,0,.25,0,.58.34.71.6a2.23,2.23,0,0,1,.08.94c0,8.08,0,16.15,0,24.23,0,1.07-.33,1.4-1.37,1.34-1.56-.07-3.13,0-4.68-.05a2.23,2.23,0,0,1-1.56-.8c-3.27-5.2-6.47-10.44-9.69-15.67-.24-.39-.49-.76-.92-1.4v17.82h-6.45v-27c2.66,0,5.28,0,7.91,0,.31,0,.7.45.91.78q4.24,6.62,8.46,13.26a3.32,3.32,0,0,0,.38.46Z"/><path d="M291.18,186.53v17.73h-6.43v-27c2.6,0,5.18,0,7.76,0a2,2,0,0,1,1.26.93c2.93,4.54,5.81,9.1,8.71,13.66a1,1,0,0,0,.18,0V177.24c2.09,0,4.11,0,6.13,0,.21,0,.57.68.58,1.05,0,3.6,0,7.19,0,10.79,0,4.56,0,9.11,0,13.67,0,1.13-.27,1.67-1.54,1.58a38.51,38.51,0,0,0-4.43,0,1.76,1.76,0,0,1-1.73-1q-5.15-8.34-10.3-16.67C291.38,186.67,291.31,186.64,291.18,186.53Z"/><path d="M227.8,115.86c-1.43.37-2.87.8-4.33,1.12-2.33.52-4.67,1-7,1.43a1.43,1.43,0,0,1-1.67-.75,51.26,51.26,0,0,1-6.43-15.79c-.28-1.18-.52-2.35-.79-3.57l-21,.58-.08-.46a151.55,151.55,0,0,0,51.42-13.6c.82,1.9,1.49,3.49,2.19,5.05.31.68.27,1-.57,1.26a113.63,113.63,0,0,1-18.23,4.75,11,11,0,0,0-1.14.24c-1,.3-1,.92-.77,1.83a55.18,55.18,0,0,0,8.38,17.47S227.75,115.57,227.8,115.86Z"/><path d="M235,196.09c0,1.92,0,3.88,0,5.83a1.53,1.53,0,0,1-.81,1,17.38,17.38,0,0,1-7.2,1.91,19.4,19.4,0,0,1-7.7-1,11.63,11.63,0,0,1-7.27-8.63,17.19,17.19,0,0,1,1.09-11.75c1.78-3.75,5-5.76,9-6.45a19,19,0,0,1,11.77,1.44,2,2,0,0,1,1.11,1.28c.13,1.79.06,3.6,0,5.4a3.32,3.32,0,0,1-.32.88c-1.35-.88-2.56-1.71-3.82-2.49-2.81-1.75-6.69-2-9.38.54a9.07,9.07,0,0,0-2.22,4.18,9.89,9.89,0,0,0,1.58,8.62,6.15,6.15,0,0,0,4.16,2.41,9.85,9.85,0,0,0,7.7-2.29C233.3,196.5,233.84,195.59,235,196.09Z"/><path d="M183.68,204.35v-5h4.21v-17h-4.18v-5.1h3.46c3.79,0,7.59,0,11.39,0,.88,0,1.23.27,1.17,1.17a19.42,19.42,0,0,0,0,2.75c.06.93-.33,1.2-1.2,1.15a12.38,12.38,0,0,0-2.51,0c-.32.05-.83.53-.83.81q-.08,7.68,0,15.35c0,.28.51.76.83.8a13.69,13.69,0,0,0,2.64,0c.75,0,1.1.22,1.06,1,0,1,0,2.07,0,3.11,0,.67-.26.92-.93.92Z"/><path d="M272.69,203.39c-1-2.58-1.93-5.19-2.9-7.79-2.15-5.82-4.32-11.63-6.45-17.46a1.19,1.19,0,0,0-1.31-.91c-2,0-3.92.09-5.87,0a1.68,1.68,0,0,0-1.9,1.33L249.73,191c-1.6,4.36-3.22,8.72-4.9,13.27.45.05.75.12,1,.12,1.75,0,3.51,0,5.27,0a1.22,1.22,0,0,0,1.36-1c.37-1.16.84-2.28,1.13-3.45a1.29,1.29,0,0,1,1.45-1.08h7.55a1.31,1.31,0,0,1,1.41,1.13,29.59,29.59,0,0,0,1.22,3.54,1.57,1.57,0,0,0,1.08.82c1.92.08,3.84,0,5.76,0C272.83,204.35,273,204.1,272.69,203.39Zm-16.93-9.66,3.07-8.88c1.06,3.08,2.06,5.94,3.08,8.88Z"/></svg>