<svg id="Layer_1" data-name="Layer 1" xmlns="http://www.w3.org/2000/svg" viewBox="0 0 532 266"><title>SVG-</title><rect x="65.42" y="84.18" width="23.67" height="23.67"/><path d="M99.9,84.18v23.67h19.48s21,2,21,26c0,15.2-7.79,21-7.79,21L140.42,181s25.33-13,25.33-50.14-36.62-46.68-41.69-46.68Z"/><path d="M65.42,117.49H89.09v22.6s1.22,21.82,19.77,21.82h14l7.79,23H113.15s-22,.38-33.12-12.07C64.25,157,65.42,141.06,65.42,132.59Z"/><path d="M190.6,168.67V104.83A5.83,5.83,0,0,1,196.43,99h9v69.66Z"/><path d="M245.87,99c22.51,0,31.23,14.08,31.23,34.6s-8.67,35.06-31.23,35.06H219.8V104.29A5.27,5.27,0,0,1,225.08,99Zm-11.28,57.71h9.14c11.38,0,18.22-5.76,18.22-22.81,0-13-4.14-23-18.22-23h-9.14Z"/><path d="M287.22,133.09A19.35,19.35,0,0,1,306,113.75c4.36-.11,8.59-.2,11.54-.2,10.18,0,18.58,6.89,18.58,20.16v35h-5.71a8.64,8.64,0,0,1-8.63-8.64v-23.1c0-8.17-4.7-11.23-10.05-11.23-6.48,0-10.21,4.64-10.21,11.43v31.54H287.22Z"/><path d="M396.54,139.42v3.83c0,16-8.93,26.39-25.06,26.39s-25.21-10.36-25.21-26.34v-3.82c0-15.06,9-26.08,25.21-26.08S396.54,124.32,396.54,139.42Zm-35.72,0v4.19c0,8.06,3.06,15.05,10.61,15.05s10.62-6.94,10.62-15.05v-4.19c0-8.42-3.17-15-10.62-15S360.82,131,360.82,139.37Z"/><path d="M466.82,168.67H451.66l-10.05-38h-.46l-10,38H415.84L402,114.37h14.54l7.66,39.5h.61l9.85-39.5h13.52l9.9,39.5h.56l6.26-32.06a9.2,9.2,0,0,1,9-7.44h6.76Z"/></svg>