<svg id="Layer_1" data-name="Layer 1" xmlns="http://www.w3.org/2000/svg" viewBox="0 0 532 266"><title>SVG-</title><path d="M191.36,207.64V58.36H337a8.93,8.93,0,0,0,1.45-.23h1.92V207.64Zm73.69-66.31c2,2.5,4,4.95,6,7.38s4,4.8,6,7.17,4.24,4.91,6.37,7.35c2.89,3.3,5.77,6.61,8.7,9.88,2.1,2.34,4.18,4.69,6.43,6.88,4.44,4.33,9,8.56,13.51,12.81a25.36,25.36,0,0,0,2.28,1.69l.37-.28c-.53-1-1.12-2-1.6-3-3.27-7.16-7.66-13.66-11.92-20.24-2.93-4.54-6-9-9.1-13.42-3-4.26-6.14-8.43-9.24-12.62-3-4-6-8-8.9-12-1.06-1.45-1-1.85.08-3.22,3.42-4.45,6.85-8.9,10.22-13.39q6.09-8.15,12.09-16.37a101.62,101.62,0,0,1,11.29-13c3.22-3.14,6.73-5.74,11.28-6.71-.61-.19-1.25-.16-1.82-.34a13.6,13.6,0,0,0-8.91.62,49.71,49.71,0,0,0-15.91,10.33c-2.62,2.45-5,5.11-7.51,7.72-1.36,1.43-2.66,2.93-4,4.43-2.27,2.63-4.49,5.29-6.75,7.93-1.21,1.41-2.47,2.78-3.67,4.2-1.76,2.1-3.49,4.24-5.29,6.42a8.3,8.3,0,0,1-.73-.68c-1.48-1.79-2.93-3.6-4.43-5.38q-5-5.86-10-11.68c-2.13-2.45-4.32-4.85-6.52-7.25-3.75-4.1-7.41-8.29-11.32-12.23-4.17-4.2-8.57-8.19-12.91-12.22-1.06-1-2.27-1.79-3.42-2.67a2.63,2.63,0,0,0,.26,1.4A150.44,150.44,0,0,0,226.42,89.1c3.45,5.18,6.92,10.36,10.54,15.42s7.33,9.81,11,14.7c2.72,3.6,5.47,7.19,8.18,10.79.69.9,1,1.78.11,2.84s-1.91,2.49-2.85,3.74c-3.71,4.92-7.52,9.77-11.1,14.78-4.3,6-8.51,12.11-12.56,18.31-2.92,4.45-5.53,9.09-8.23,13.68-1.39,2.37-2.68,4.79-4,7.2-.71,1.31-1.33,2.66-2.14,4.29a4,4,0,0,0,1-.39c2.54-2.27,5.17-4.46,7.57-6.87,5-5,9.93-10.14,14.83-15.28q3.39-3.57,6.6-7.33c3.25-3.8,6.43-7.67,9.63-11.52Zm-42.93,6.5-.24-.29a7.94,7.94,0,0,0-1,.53c-1.07.73-2.05,1.6-3.17,2.21-2.06,1.1-3.63-.17-4.16-1.82A6.57,6.57,0,0,1,214,143a33.87,33.87,0,0,1,3.39-4.22c2.46-2.89,5.06-5.65,7.38-8.64a38.72,38.72,0,0,0,6.8-13,2,2,0,0,0-2.54-2.58c-2.41.37-4.11,2-5.71,3.52a38.85,38.85,0,0,0-4.11,5c-3.4,4.69-6.24,9.66-7.48,15.39-.45,2.1-.62,4.34-2.16,6-1.25,1.34-2.71,2.49-4.08,3.71-.73.65-1.67,1.16-1.62,2.3l.33.35,6.2-4.84a2.87,2.87,0,0,1,.36.58,22,22,0,0,0,1.25,3.26,4.21,4.21,0,0,0,3.66,2.21c2.76.07,4.42-1.78,6.24-3.39C222.09,148.45,222.06,148.09,222.12,147.83ZM235.47,124l.05.4c.25,0,.55.17.74.08,2-1,3.75-2.22,4.41-4.57a1.93,1.93,0,0,0-1.14-2.33,1.78,1.78,0,0,0-2.37.73,1.55,1.55,0,0,0,.11,2.22c.35.39.65.84,1,1.25Z"/><path d="M191.36,207.64h149V58.12c.08,0,.23.08.23.12,0,.32,0,.64,0,1V207.88H192.44A5.21,5.21,0,0,1,191.36,207.64Z"/><path d="M338.48,58.12a8.93,8.93,0,0,1-1.45.23H191.36c0-.08.07-.23.12-.23.32,0,.64,0,1,0Z"/><path d="M214.33,139.71a36,36,0,0,1,5.36-13.08c2.1-3.11,4.4-6.09,6.71-9a6.13,6.13,0,0,1,2.12-1.44c1-.5,1.49-.18,1.47,1a10.14,10.14,0,0,1-1.94,5.45c-2.51,3.77-5.08,7.51-7.8,11.14a66.52,66.52,0,0,1-4.85,5.38A5.51,5.51,0,0,1,214.33,139.71Z"/></svg>