<svg id="Layer_1" data-name="Layer 1" xmlns="http://www.w3.org/2000/svg" viewBox="0 0 532 266"><defs><style>.cls-1{font-size:26.81px;font-family:MyriadPro-Regular, Myriad Pro;letter-spacing:0.34em;}</style></defs><title>SVG-</title><path d="M97.68,78.48,97,79.1Z"/><circle cx="123.78" cy="57.46" r="3.18"/><circle cx="123.78" cy="43.07" r="1.56"/><circle cx="119.34" cy="47.91" r="1.56"/><circle cx="97.68" cy="72.88" r="1.56"/><circle cx="97.99" cy="65.71" r="1.56"/><circle cx="102.47" cy="61.32" r="1.56"/><circle cx="107.8" cy="60.26" r="1.56"/><circle cx="113.77" cy="60.64" r="1.56"/><circle cx="119.34" cy="62.2" r="1.56"/><circle cx="123.78" cy="64.64" r="1.56"/><circle cx="123.78" cy="69.22" r="1.56"/><circle cx="123.78" cy="73.49" r="1.56"/><circle cx="128.12" cy="47.91" r="1.56"/><path d="M103.69,78,102.93,77c-.14-.2-3.42-4.91-1.19-9.16s5.11-5.16,11.53-3.8c5.35,1.13,7.53,2.53,7.53,4.82a21.24,21.24,0,0,1-1,6.07l-.45,1.23-2.46-.91.46-1.23a18.83,18.83,0,0,0,.85-5.16c0-.41-1.15-1.35-5.46-2.26-6-1.27-7.3-.17-8.67,2.45-1.48,2.83,1,6.4,1,6.44l.75,1.07Z"/><path d="M97,79.1s3.2,5.6,4.34,8.21.5,4.25,4,4.25h18.49V76.2s-5.19.25-6.31,4.61c-.79-1-2.4-4.77-6.58-4.29s-3.54,5.62-3.54,5.62A8,8,0,0,0,97,79.1Z"/><path d="M149.85,78.48l.68.62Z"/><circle cx="149.85" cy="72.88" r="1.56"/><circle cx="149.53" cy="65.71" r="1.56"/><circle cx="145.06" cy="61.32" r="1.56"/><circle cx="139.72" cy="60.26" r="1.56"/><circle cx="133.75" cy="60.64" r="1.56"/><circle cx="128.18" cy="62.2" r="1.56"/><path d="M143.83,78l-2.13-1.52.75-1.06s2.49-3.62,1-6.44c-1.37-2.62-2.67-3.72-8.67-2.45-4.31.91-5.46,1.85-5.46,2.26a18.46,18.46,0,0,0,.85,5.16l.45,1.23-2.45.91-.46-1.23a21.19,21.19,0,0,1-1-6.07c0-2.29,2.18-3.69,7.54-4.82,6.42-1.36,9.33-.4,11.53,3.8s-1.06,9-1.2,9.16Z"/><path d="M150.53,79.1s-3.21,5.6-4.35,8.21-.49,4.25-4,4.25H123.74V76.2s5.19.25,6.32,4.61c.79-1,2.39-4.77,6.58-4.29s3.53,5.62,3.53,5.62A8,8,0,0,1,150.53,79.1Z"/><rect x="123.13" y="43.07" width="1.31" height="13.24"/><rect x="120.02" y="47.26" width="8.67" height="1.31"/><path d="M103.69,97H123.2v64.36s.88,24.75-18.87,33.17c14.16-.35,22-1.46,37.5,4.27s29.45,10.16,36.12,3.5c-5.14,10.08-14.61,19.56-34.51,14.71s-37-15.53-60.29-14.12c14.87-9,19.94-21.82,19.94-40.51S103.69,97,103.69,97Z"/><path d="M126.24,97h20.29v50.5s2.25,39-39.16,47c13.1-9.62,18.87-18.12,18.87-33.17Z"/><path d="M170.84,176.21l20.58-7.05s5.2,12.93-2.31,23.71c-4.73,5.69-12.2,9.44-12.2,9.44s3.74-8.73,0-16.58S170.84,176.21,170.84,176.21Z"/><text class="cls-1" transform="translate(193.16 87.79)">LIECHTENSTEIN</text></svg>