<?xml version="1.0" encoding="utf-8"?>
<!-- Generator: Adobe Illustrator 22.0.1, SVG Export Plug-In . SVG Version: 6.00 Build 0)  -->
<svg version="1.1" id="Layer_1" xmlns="http://www.w3.org/2000/svg" xmlns:xlink="http://www.w3.org/1999/xlink" x="0px" y="0px"
	 viewBox="0 0 612 195" style="enable-background:new 0 0 612 195;" xml:space="preserve">
<style type="text/css">
	.st0{fill:#231F20;}
</style>
<g>
	<g>
		<path class="st0" d="M130,17.6c-4.4,7.5-8,14-8,14.4s9.3,16.6,20.6,36.1c37.6,64.5,40.6,69.9,40.1,71.4
			c-0.3,0.7-11.1,13.1-23.9,27.5s-23.4,26.6-23.6,27.1s7.7,0.9,19,0.9h19.3l23-25.9c12.7-14.3,23-26.4,23-26.9
			c0-1.4-79.9-138.1-80.7-138.2C138.4,4,134.5,10.1,130,17.6z"/>
		<path class="st0" d="M86.5,92.5C70.7,119.7,58,142.4,58.2,143s10.7,12.7,23.3,27l23,26h8l8-0.1l12.5-14.1
			c6.9-7.8,12.7-14.5,12.8-15c0.2-0.4-6.1-0.8-14-0.8h-14.5l-11.6-13.1c-6.4-7.2-11.7-13.5-11.7-14s8.8-16,19.5-34.4L133,71l-8.1-14
			c-4.5-7.7-8.5-14-8.9-14C115.5,43,102.3,65.3,86.5,92.5z"/>
		<path class="st0" d="M274.8,81.7L261,97.1V142v45h35h35v-14.5V158h-20.5c-11.3,0-20.6-0.1-20.7-0.3c-0.1-0.1-0.5-20.7-0.8-45.8
			l-0.5-45.6L274.8,81.7z"/>
		<path class="st0" d="M476.8,81.7L463,97.2v44.9v45l14.3-0.3l14.2-0.3l0.3-17.2c0.1-9.5,0.6-17.3,1-17.3c0.4,0,5.2,6.9,10.7,15.3
			c14.2,21.8,11.1,19.7,28.7,19.7c9.3,0,14.8-0.4,14.8-1s-6.2-9.9-13.8-20.8c-7.6-10.8-14.1-20.2-14.5-20.9
			c-0.5-0.7,4.8-9.5,13.3-22.2c7.7-11.6,14-21.3,14-21.6s-7.3-0.4-16.2-0.3l-16.2,0.3l-10.1,16.2c-5.5,8.9-10.3,16.5-10.7,16.9
			c-0.5,0.4-0.8-14.4-0.8-32.9s-0.3-33.8-0.7-34C490.8,66.5,484.3,73.2,476.8,81.7z"/>
		<path class="st0" d="M404.9,99.3c-14.1,4-21.8,13.5-21.9,27.1c-0.1,14.5,7.3,20.6,34.3,28.1c4.3,1.2,6.1,2.2,6.9,4
			c1.8,3.9-1.2,6.5-7.4,6.5c-5.7,0-9.8-1.8-12.6-5.7l-2.1-2.8l-11.6,5.8c-13.1,6.5-12.9,6-5.4,14.2c13.5,14.6,49.7,14.4,61.9-0.3
			c4.2-5,6.4-13,5.6-19.9c-1.5-13.2-8.6-19.2-28.5-24.3c-10.5-2.6-14.1-4.5-14.1-7c0-1.1,1.1-2.7,2.5-3.6c3.6-2.3,9-1.2,13,2.6
			l3.1,3l10.7-4.8c5.9-2.6,10.7-5.2,10.7-5.7c0-2.2-5.2-8.5-9.3-11.3c-2.3-1.6-6.4-3.7-9.2-4.7C425.1,98.2,411,97.6,404.9,99.3z"/>
		<path class="st0" d="M356.1,116.7L342,132.5l0.2,27l0.3,27l14.3,0.3l14.2,0.3V144c0-23.6-0.2-43-0.4-43
			C370.4,101,363.9,108.1,356.1,116.7z"/>
	</g>
</g>
</svg>
