<svg id="Layer_1" data-name="Layer 1" xmlns="http://www.w3.org/2000/svg" viewBox="0 0 532 266"><title>SVG-</title><path d="M64.15,130.58h.91c.39-.47.84-.88,1.22-1.38a2.75,2.75,0,0,1,1.75-1,8.37,8.37,0,0,1,1.22-.19,5.25,5.25,0,0,1,2.91.94,4.37,4.37,0,0,1,2,3.35c0,.34.3.66.19,1a25.05,25.05,0,0,1-.7,2.71c-.41,1-.83,2-1.2,3a6.21,6.21,0,0,0-.5,2.09c0,.25.1.52-.13.75a.42.42,0,0,0-.06.37,9.54,9.54,0,0,0,.77,2.88,1.92,1.92,0,0,0,2.78.67,4.93,4.93,0,0,0,1.63-1.92,21.2,21.2,0,0,0,1.73-4.28c.23-.8.37-1.63.67-2.42.2-.52.22-1.11.43-1.63.26-.68.66-1.32.94-2a1.17,1.17,0,0,1,1-.75,3.65,3.65,0,0,0,2.14-1.17,3.4,3.4,0,0,0,1.27,1.84A3.23,3.23,0,0,0,87,132.13a2.81,2.81,0,0,0,.6-2.58,3.84,3.84,0,0,1-2.44,3c-.64-.44-.71-1.23-1-2-.4.27-.77.56-1.16.8a8.88,8.88,0,0,1-1.38.76,1.41,1.41,0,0,1-.93,0c-.37-.14-.2-.62-.41-.92-.11-.15,0-.46,0-.68a2.63,2.63,0,0,0-.25-.56,7.54,7.54,0,0,1-1.64.51,2.85,2.85,0,0,1-1.64-.11,5.9,5.9,0,0,1-.07-3.35c-1.51,0-3,.11-4.26-1.16.35-.44.66-.88,1-1.27s.82-.72,1.28-1.12c-.16,0-.3-.07-.4,0-1,.4-2,.1-3,.19-1.09-.4-2.24-.7-2.82-1.88a3,3,0,0,0-.5-.56,2.61,2.61,0,0,1,1-.37,7.07,7.07,0,0,0,1.9-.48c.6-.23,1.19-.51,1.91-.82a9.49,9.49,0,0,1-7.12-6c.81-.33,1.57.22,2.36.13a24,24,0,0,1,2.57,0c-.43-.26-.71-.55-1-.58-.86-.06-1.36-.75-2-1.11a3,3,0,0,1-1.13-1.11,4.62,4.62,0,0,1-.93-2.71c0-.2,0-.4,0-.68a15,15,0,0,0,1.72.83,4.14,4.14,0,0,0,1.92.33,11.93,11.93,0,0,1-2-3,5,5,0,0,1-.83-2.56,3.37,3.37,0,0,1-.19-1.91,3.77,3.77,0,0,1,.59-1.89,11.94,11.94,0,0,0,1.12,2.44,11.3,11.3,0,0,0,1.88,2.15c-.29-1-.55-1.85-.74-2.67a9.57,9.57,0,0,1-.25-1.69c0-.77,0-1.53,0-2.3a8.63,8.63,0,0,1,.67-2.92,3.52,3.52,0,0,1,1-1.64,16.35,16.35,0,0,0,1,3.84,32.85,32.85,0,0,0,1.88,3.51c0-.5,0-.84,0-1.19s0-.73,0-1.09a5,5,0,0,1,1.58-3.54,2.35,2.35,0,0,1,.41-.19c0,.35,0,.61,0,.86A14,14,0,0,0,76,98.92,31.28,31.28,0,0,0,79,106c.52,1,1.11,1.88,1.7,2.8A14.49,14.49,0,0,1,82,111.52a5.48,5.48,0,0,1,.13,1.25,5.61,5.61,0,0,1-.63,2.93c-.45,1.1-.44,1.07,0,2.19a4.4,4.4,0,0,0,1.22,1.79,3.68,3.68,0,0,0,2.23.9c.1,0,.2,0,.3,0a2.11,2.11,0,0,0,2.27-1.28,5.15,5.15,0,0,1,.47-.55c-.89-.89-1.75-1.76-2.63-2.62-.1-.1-.28-.13-.4-.22a.78.78,0,0,1-.17-1.3c.23-.28.54-.5.77-.79.1-.13.21-.41.14-.52a4.19,4.19,0,0,1-.62-1.85c0-.1-.15-.2-.22-.27l-.79,1.24a2.76,2.76,0,0,1-.73-1.94,6.7,6.7,0,0,1,0-1.79c.06-.52.23-1,.36-1.63l-.95-.39a4.07,4.07,0,0,1,.15-1.37c.12-.49.35-.93.43-1.43s.6-.78.74-1.19.88-.51,1-1.1a3.57,3.57,0,0,1-3.27-1.44c-.32-.4-.91-.84-.62-1.64a1.51,1.51,0,0,0,1.35.24C80.2,97.63,79.92,96,80.24,94c.58.25.87.8,1.32,1.15s1,.74,1.46,1.06a9.14,9.14,0,0,0,1.47.81,4,4,0,0,0,1.65.29c-.17-.1-.35-.17-.5-.28s-.34-.33-.44-.42a10.42,10.42,0,0,1,.36-1.8,2.19,2.19,0,0,1,1.1-1.44c.06.39.12.72.16,1.06a4.47,4.47,0,0,0,1,1.77,18,18,0,0,0,1.39,1.64,9.35,9.35,0,0,0,1.3,0c.36,0,.7-.26,1.06-.32a2.35,2.35,0,0,1,1.69.13,1.94,1.94,0,0,1,.55.61,4.23,4.23,0,0,0,1-.16,2.25,2.25,0,0,1,2.29,1.07,2.13,2.13,0,0,1,.15,2.24,5.11,5.11,0,0,0-1-.66,5.94,5.94,0,0,0-1.31-.13c-.25.33-.48.68-.73,1a2.89,2.89,0,0,1-1.58,1,6.32,6.32,0,0,0-1.72.92c-.23.14-.32.51-.49.81.35,0,.63-.32.9,0,1,0,1.84.46,2.8.47a1.71,1.71,0,0,0,1.39-.53c.06-.06.17-.07.37-.15-.14.84-.1,1.71-.82,2.16a2.28,2.28,0,0,1-2.23.38,4.28,4.28,0,0,0-1.19-.26c-.43-.07-.77.25-1.17.3-1,.13-1.93.34-2.71-.52a1.56,1.56,0,0,1-.48-1.21,3.31,3.31,0,0,0,0-.59c-.18.5-.42.85-.34,1.05a4.43,4.43,0,0,1,.18.83,2.1,2.1,0,0,0,1.8,1.32c.51,0,1,.16,1.54-.16.16-.11.54.07.8.18.73.29,1.46.62,2.25,1l-.23-.84a8.05,8.05,0,0,1,2.1-1l2.21,4.42a9.76,9.76,0,0,1,5.78,3.48l-1.45-.19-.19.28a4.92,4.92,0,0,1,2.81,1.81,1.58,1.58,0,0,1,.34.85,4.41,4.41,0,0,1-.49,3,3.32,3.32,0,0,0-1.72-2.61,11.31,11.31,0,0,1,.61,1.77,4,4,0,0,1,.2,1.91c-.19.58-.06,1.26-.55,1.81a4,4,0,0,0-3.34-1.2,4.31,4.31,0,0,0,.39.53,15.3,15.3,0,0,1,2.77,4,7.44,7.44,0,0,0,1.2,1.6c.7.73,1.47,1.39,2.21,2.08l.1-.07a.18.18,0,0,0,0-.09V113h10.75a13.68,13.68,0,0,0,1.55,2,12.43,12.43,0,0,0,2.16,1.33c.74-.11,1.45.54,2.24.06a3,3,0,0,1,1.1-.19,4.28,4.28,0,0,0,1.31-.49c1-.48,2-1,3-1.55a11.84,11.84,0,0,1,3.07-1,8.51,8.51,0,0,1,1.73-.16h11.3v17.28c.9-.82,1.75-1.51,2.48-2.3a7.23,7.23,0,0,0,1.17-1.7,14.18,14.18,0,0,1,2.38-3.42c.21-.23.38-.51.62-.83a4.54,4.54,0,0,0-3.38,1.13c-.85-1.81-.43-3.55.41-5.4-.24.08-.41.08-.5.16a4.14,4.14,0,0,0-1.25,2.48c-.76-.91-.55-2-.49-3a1.82,1.82,0,0,1,.5-1.09,5.77,5.77,0,0,1,2.65-1.6c-.17-.29-.46-.47-.71-.27s-.56.06-.92.22c1.62-2.13,3.26-2.83,5.76-3.51l2.18-4.36c.78,0,1.35.67,2.15.87l-.27.88,1.93-.76c.47-.19.91-.66,1.46-.19a4.27,4.27,0,0,0,2.15-.37,1.6,1.6,0,0,0,.87-1.25,4.06,4.06,0,0,0,.1-.77,1.52,1.52,0,0,0-.3-.8V105a1.68,1.68,0,0,1-1.08,1.65,1.12,1.12,0,0,1-.53.18,5.39,5.39,0,0,1-2.18-.27,1.63,1.63,0,0,0-.93-.08c-.33,0-.63.25-1,.33a2.45,2.45,0,0,1-2.58-1.16,14.27,14.27,0,0,1-.42-1.53,2.85,2.85,0,0,0,2.14.71,5.77,5.77,0,0,0,.82-.2c.63-.2,1.31-.13,1.94-.38.15-.06.38.06.66.12a3.93,3.93,0,0,0-2.13-1.74,3,3,0,0,1-1.77-1.28,1.61,1.61,0,0,0-2.89.36,3.85,3.85,0,0,1-.26-1.13,2.3,2.3,0,0,1,1.07-2.13,1.79,1.79,0,0,1,1.77-.28,2.16,2.16,0,0,0,.85.08,1.08,1.08,0,0,1,1.08-.81,4.41,4.41,0,0,1,.89,0,3.18,3.18,0,0,1,.82.2,4.49,4.49,0,0,0,1.82.2A26.76,26.76,0,0,0,163.79,95a2.33,2.33,0,0,0,.28-1.61,1.12,1.12,0,0,1,.92.83,6.05,6.05,0,0,1,.48,1.19,6.51,6.51,0,0,1,0,1.33l-1,.71a6.92,6.92,0,0,0,2.32-.68,11.91,11.91,0,0,0,2-1.2c.63-.46,1.05-1.17,1.75-1.61.39,1.93,0,3.8-2.28,4.76.47.4.9-.28,1.42,0a4,4,0,0,1-4.06,2.92c.65.86,1.54,1.39,1.86,2.39a7.38,7.38,0,0,1,.58,2.73l-1,.34a7.31,7.31,0,0,1-.25,5.41l-.56-.66-.57-.73a3.89,3.89,0,0,1-.56,2.16.51.51,0,0,0,.15.69,3.53,3.53,0,0,1,.92,1.11c.12.28.11.56-.16.67a4.5,4.5,0,0,0-1.25,1.08c-.65.62-1.28,1.27-1.94,1.93a3.72,3.72,0,0,0,1.36,1.68.91.91,0,0,0,.42.2,4.09,4.09,0,0,0,4.07-1.71,6.22,6.22,0,0,0,.63-1.05,1.79,1.79,0,0,0,0-2,2.67,2.67,0,0,0-.14-.34,3.45,3.45,0,0,1-.57-1.87,5.09,5.09,0,0,1,.69-3.36c.7-1.28,1.46-2.52,2.18-3.79a31.15,31.15,0,0,0,1.52-2.77,26.41,26.41,0,0,0,1.62-4.32c.23-1,.46-1.89.65-2.85s0-1.67.21-2.55a3,3,0,0,1,1.52,1.91,7.06,7.06,0,0,1,.42,2.33c0,.52,0,1,0,1.66,1.89-2.77,2.79-5.32,2.81-7.16.17-.15.2.07.28.12a.83.83,0,0,1,.28.28,15,15,0,0,1,1.07,3,15.71,15.71,0,0,1,.12,3.42,9.4,9.4,0,0,1-.45,2.5c-.16.52-.33,1-.51,1.59.84-.42.78-.46,1.82-1.85A8.67,8.67,0,0,0,184,99.25c.18.26.35.41.39.59a7.78,7.78,0,0,1,.11,3.12,15.56,15.56,0,0,1-2.35,5,3.85,3.85,0,0,1-.49.5c.88.16,1.62-.06,3.58-1.09a5,5,0,0,1-2.22,4.6,13,13,0,0,1-2.85,1.49,11.07,11.07,0,0,0,4.87-.33,1.72,1.72,0,0,1,0,.58,10.6,10.6,0,0,1-2.9,3.88,10,10,0,0,1-3.05,1.56c-.32.11-.65.19-1,.29a16.59,16.59,0,0,0,3.38,1.3c.41.11.9,0,1.24.34a4.55,4.55,0,0,1-3.06,2.43,1.34,1.34,0,0,1-.49,0c-.63,0-1.27,0-1.9,0-.36,0-.72-.13-1.12-.14a9.31,9.31,0,0,1,2.19,2.33,4.16,4.16,0,0,1-4.26,1,6,6,0,0,1,0,3.53c-.53.08-1.08.55-1.67.06-.64.13-1.15-.28-1.79-.5-.1.82,0,1.63-.7,2.31-.68.18-1.31-.4-2-.76a8.76,8.76,0,0,1-1.21-.89l-.95,2a3.64,3.64,0,0,1-2.49-3.09,2.75,2.75,0,0,0,.53,2.62,3.37,3.37,0,0,0,1.91,1.31c.78-.4,1-1.17,1.34-1.84a3.47,3.47,0,0,0,2.2,1.19,1.19,1.19,0,0,1,.91.71,19.77,19.77,0,0,1,1.17,2.92c.48,1.27.8,2.6,1.17,3.91a23.18,23.18,0,0,0,2.05,4.55,3.36,3.36,0,0,0,1.64,1.28,2.1,2.1,0,0,0,2.14-.92,3.75,3.75,0,0,0,.61-2,.8.8,0,0,1,.13-.66c.08-.09,0-.34,0-.52s-.11-.24-.1-.36a7.61,7.61,0,0,0-.69-3c-.42-1.19-1-2.33-1.31-3.56a5.2,5.2,0,0,1-.24-3,7.06,7.06,0,0,1,1.43-2.81,8.06,8.06,0,0,1,2.24-1.1c.31-.06.61-.15.92-.2a4.13,4.13,0,0,1,2.22.42,2.3,2.3,0,0,1,1.13.84,16.5,16.5,0,0,0,1.17,1.34h1.09c-.49.3-.54.72-.94.88s-.66.35-1,.52a5.28,5.28,0,0,1,.35,1,7.06,7.06,0,0,1,0,1.13l-.78.7a1.51,1.51,0,0,0,1,1.72c-.09.55-.63.53-1,.75a6.79,6.79,0,0,1-.63,2.54c-.17.29-.34.55-.67.62-.05,0-.1-.06-.1-.08a8.57,8.57,0,0,0-.76-3.18,3.57,3.57,0,0,1-.3-1.39,5.86,5.86,0,0,0-.27-1.36L181.4,136a1.25,1.25,0,0,1-.38-.21,2.37,2.37,0,0,1-.74-1.79,3,3,0,0,0,0-.6,2.11,2.11,0,0,1,1.16-2.26l-.81-.8a1.16,1.16,0,0,0-1,.37,2,2,0,0,0-.78,1.27c0,.48-.52.95,0,1.45a15.12,15.12,0,0,0,1.3,4.26c.41,1.1.73,2.22,1.09,3.34a1.54,1.54,0,0,1,0,.48c0,.5,0,1,0,1.5a6.2,6.2,0,0,1-2.38,5,2.43,2.43,0,0,1-1.47.54,9.4,9.4,0,0,1-1.3,0,4.69,4.69,0,0,1-3.64-2,14.34,14.34,0,0,1-1.53-2.66c-.15-.31-.26-.63-.39-1-.1.59-.21,1.17-.28,1.75a3.55,3.55,0,0,1-.19,1.23c-.18.38.09.83.26,1.17a2.2,2.2,0,0,0,2.48,1.41c-.6.41-.15.95-.52,1.29.35.35,0,.83.31,1.25a3.64,3.64,0,0,0,.74,1.08,4.4,4.4,0,0,1,1.09,1.95c.19.43-.1.87-.19,1.31a2.23,2.23,0,0,1-.3.54c-.45-.59-.18-1.45-.86-2a4.52,4.52,0,0,0,0,1,4.41,4.41,0,0,1-.66,3.79l-.12.12c-.11-.45,0-.89-.08-1.28a1.65,1.65,0,0,0-.78-1,7.3,7.3,0,0,1-.38,3.19c2,.4,4,.62,5.95,1.21v9c-.53-.14-1.05-.24-1.53-.41s-1-.17-1.55-.36a6.39,6.39,0,0,0-1.41-.2,7.17,7.17,0,0,0-2.21-.23c-2-.42-4-.11-6-.2a4.07,4.07,0,0,0-1.42.17c-.44.15-.93,0-1.42.19a6.76,6.76,0,0,1-1.31.21,27.1,27.1,0,0,0-4.25,1.11,65,65,0,0,0-6,2.57,21.21,21.21,0,0,1-4.69,1.95c-.11,0-.23.2-.31.18-.45-.11-.8.22-1.22.21a10.29,10.29,0,0,1-2.82-.19c-.45-.14-.55-.18-.56-.62,0-.63,0-1.26,0-1.89-.56-.35-1.05.12-1.59.13-.2,0-.41.28-.6.43v3.82a12.33,12.33,0,0,1-3.53,1.14c-.87.16-1.75.28-2.63.42-.54.09-1.1,0-1.62.18a17,17,0,0,1-3.41.19c-.35,0-.68.15-1,.18a3.05,3.05,0,0,1-1,0,31.36,31.36,0,0,0-3.61-.22c-1.11-.12-2.24-.2-3.33-.39s-2.06-.32-3-.59a20.55,20.55,0,0,1-2.17-.83v-3.84c-.18-.16-.34-.44-.56-.5a15.87,15.87,0,0,0-1.63-.26v2.31c-.11.11-.17.22-.25.24a6.31,6.31,0,0,1-1.18.28,8.91,8.91,0,0,1-2,0,9.85,9.85,0,0,1-2.61-.68q-2.7-1.2-5.37-2.48a48.33,48.33,0,0,0-5.5-2.17,12.79,12.79,0,0,0-1.54-.36c-.5-.09-1-.22-1.48-.31-.91-.15-1.84-.23-2.73-.41a25.93,25.93,0,0,0-3.73-.16c-.73,0-1.46,0-2.19,0a19.15,19.15,0,0,1-2.62.21c-.37.26-.84.08-1.2.23a6.62,6.62,0,0,1-1.13.18c-1.06.23-2.12.5-3.24.78a4.56,4.56,0,0,1,0-.54c0-2.56,0-5.13,0-7.69,0-.17,0-.34,0-.5a.45.45,0,0,1,.41-.46l.92-.2a4.15,4.15,0,0,0,1.4-.23c.44-.27,1,0,1.36-.35,0,0,.19,0,.29,0a3.12,3.12,0,0,0,1.59-.27c-.6-1-.28-2.07-.41-3.13-.72.66-.72.66-.82,2.26a5.56,5.56,0,0,1-.78-1.48,3.8,3.8,0,0,1-.15-1.63,15.17,15.17,0,0,1,.2-1.83c-.75.61-.57,1.46-.92,2.09a9.65,9.65,0,0,1-.48-1.1,2.28,2.28,0,0,1,.27-1.47,3.09,3.09,0,0,1,.83-1.26,3.11,3.11,0,0,0,.7-3.46s.08-.11.12-.11a1.65,1.65,0,0,0,1.48-.52,2.58,2.58,0,0,0,.81-1.27c.07-.34.31-.63,0-.95,0,0,0-.13,0-.19-.09-.44.1-.88-.13-1.35a4.44,4.44,0,0,1-.1-1.46c-.31.7-.5,1.25-.78,1.75a11.43,11.43,0,0,1-1.29,2.16,4.68,4.68,0,0,1-3.73,1.83,13.47,13.47,0,0,1-1.56-.1,3.59,3.59,0,0,1-2.18-1.64,5.94,5.94,0,0,1-1.1-2.24c0-.22-.08-.43-.12-.65s.12-.58-.15-.84a.48.48,0,0,1,0-.45c.22-.2.15-.43.15-.64a11.15,11.15,0,0,1,.93-3.82,18,18,0,0,1,.8-2.07,15,15,0,0,0,.64-2,8,8,0,0,0,.19-1.21,2.57,2.57,0,0,0-.37-1.32,2.61,2.61,0,0,0-1-1.08.72.72,0,0,0-.88.08c-.17.15-.33.32-.53.52a3.7,3.7,0,0,1,.6.5c.94,1.13.71,2.35.31,3.61-.14.44-.47.56-.85.77-.1-.48-.08-1-.59-1.39a.83.83,0,0,0-.06.29,7.66,7.66,0,0,1-.71,3.5c-.22.58-.23,1.2-.42,1.78,0,0,.09.08.2.19-.19,0-.33,0-.41,0a2.54,2.54,0,0,1-.84-1.34,10.47,10.47,0,0,1-.28-1.72l-1.1-.64a5.91,5.91,0,0,0,.61-.4c.7-.63.74-1.09.1-1.78a1.09,1.09,0,0,1-.36-.86,3.68,3.68,0,0,1,.17-1.27,2.11,2.11,0,0,0,.06-.41,2.86,2.86,0,0,0-.88-.46c-.45-.05-.42-.53-.74-.66Zm100.74,28.78c-.12,0-.3,0-.36.09a.85.85,0,0,1-1.1.21,3.63,3.63,0,0,0,.25-.72,5.49,5.49,0,0,0,0-.91,1.72,1.72,0,0,1-.72-1.09,2.05,2.05,0,0,0-.22-.6,1.93,1.93,0,0,0-.5-.35,1.47,1.47,0,0,1,2-.43l1.26.6c.6.3.81.29,1.13-.22a6.07,6.07,0,0,0,.88-2.74,1.42,1.42,0,0,0-.38-.94c-.33-.45-.6-.94-.89-1.42a1.52,1.52,0,0,1-.06-1.66,1.81,1.81,0,0,0,.24-1.64c-.61,1.18-1.09,2.44-2.75,2.66.13-.41,0-.73.16-1.1a3.32,3.32,0,0,0,0-1.33c0-.19-.09-.37-.09-.56a6.71,6.71,0,0,0-.33-1.46,9.07,9.07,0,0,0-.94-2.11,1,1,0,0,1-.12-.74,12.13,12.13,0,0,1,1-2.6c0-.58.57-1,.42-1.62.33-.35.17-.65,0-1.05a2.48,2.48,0,0,0-.64-1.15,7.12,7.12,0,0,1-.57,3.14,2.86,2.86,0,0,1-1.82,1.74,25.67,25.67,0,0,1-3.78,1c-.54.1-.58.16-.63.65-.12,1.26.22,2.48.21,3.72a.34.34,0,0,0,0,.1c.44.71.13,1.48.18,2.22,0,.5-.32.8-.86.91a1.49,1.49,0,0,0-1.12.79c-.19.38-.42.76-.59,1.15a1.64,1.64,0,0,1-1,.89l.16-.89c-.54.35-.83.78-1.27,1.08-1,.67-2.1.45-3.32.81.23-.32.35-.47.45-.62s.24-.33.36-.5a3.85,3.85,0,0,1-3.93-.08c.28-.29.54-.54.76-.81a1.14,1.14,0,0,0,.13-.38c-.44.27-.91.14-1.33.32s-.89-.18-1.31-.37-.59-.63-.78-1.08l.82-.66-1.19-.09a1.49,1.49,0,0,1,0-.37,1.47,1.47,0,0,0-.44-1.56,2.47,2.47,0,0,1-.66-1.22.66.66,0,0,1,.42-.81,1.68,1.68,0,0,0,1.29-1.35c.1-.48.29-.53.77-.36l.45.19-.24-1.3a1.66,1.66,0,0,0,1.94-1c0-.09.2-.14.37-.26.25.39.63.71.66,1.07a4.15,4.15,0,0,1-.08,1.85,3.6,3.6,0,0,0-.18,2.43c1.6-.48,3.13-1.22,4.86-1.05,0-.36.12-.74,0-.92-.28-.36-.08-.59.05-.87s.33-.66.48-1c.05-.12.08-.26.17-.57-1,1-1.84,1.92-3.28,1.72.31-.35.68-.59.81-.93.41-1.09.79-2.2,1.21-3.3a4.47,4.47,0,0,1,1.73-2.37,6,6,0,0,1,2.1-.93,14.33,14.33,0,0,0,2.54-.65,4.35,4.35,0,0,0,2.43-2,.75.75,0,0,0,0-1c-.29-.33-.57-.69-.87-1a37.3,37.3,0,0,0-3.09-2.68,9.17,9.17,0,0,0-.76-.54c.2-.32.38-.55.5-.8a8.32,8.32,0,0,0,.29-.8,2.94,2.94,0,0,0,2.43-.52,3.06,3.06,0,0,0,1.16-2.29c-.2.07-.37.09-.4.16a3,3,0,0,1-.94,1.49,2.91,2.91,0,0,1-1.73.41,9.75,9.75,0,0,0-1.08,0c-.27,1.56-1.32,2.61-2.19,3.85a12.84,12.84,0,0,1-.66-1.11c-.38-.8-.12-1.67-.25-2.54l-3.63,3.15,2.06.32.52.65-.39.08a1,1,0,0,0-.92,1.07,1.33,1.33,0,0,1,0,.4,4.32,4.32,0,0,1-.25.55c-.8-.59-1.54-1.09-2.49-.76l-.94,1.25c.59.38,0,1.22.69,1.58,0,.25.1.51-.13.75a5.4,5.4,0,0,0-.53.81l-1.15-.18-.63.57v1.05a4.33,4.33,0,0,1-.85-.51.73.73,0,0,0-.73-.17.47.47,0,0,0-.39.48c0,.1-.17.19-.27.29-.09-.24-.46-.06-.54-.43s-.47-.7-.37-1.14a4.28,4.28,0,0,1,.44-1.51,6.07,6.07,0,0,0,1-2.08,11.44,11.44,0,0,1,.56-1.36,1.91,1.91,0,0,0,.15-.44c0-.66,0-1.32,0-2H128.55v12.74h15a1.81,1.81,0,0,1,.46,1.84,3.56,3.56,0,0,0-.67-.23,1.23,1.23,0,0,1-.62-.2,3.23,3.23,0,0,0-1.93-.42,2.44,2.44,0,0,0-2.14,1.61,4.22,4.22,0,0,1,2.72.76c-.6.57-.11,1.26-.41,1.86H128.56v17.82a16.29,16.29,0,0,0,6.21-3.47c3.87-3.42,5.56-6.07,7.47-11.61l.68.33a1.78,1.78,0,0,1-.08.47,11.65,11.65,0,0,1-1.13,2.73,10.2,10.2,0,0,1-1.7,3.29c-.49.77-1,1.55-1.51,2.27a25.14,25.14,0,0,1-1.74,2,8.71,8.71,0,0,1-.83.64,11.61,11.61,0,0,1-1.49,1.25c-.48.28-.81.83-1.43.87-.28.39-.75.45-1.1.71a12.46,12.46,0,0,1-2.77,1.29c-.89.37-1.85.53-2.75.85a3.21,3.21,0,0,1-1.81.08,15.37,15.37,0,0,1-2.39-.74,22.32,22.32,0,0,1-3-1.25c-.48-.26-1-.52-1.46-.82a13.48,13.48,0,0,1-1.39-1c-.87-.71-1.77-1.41-2.58-2.2-.61-.6-1.08-1.34-1.64-2a21.59,21.59,0,0,1-2.47-3.88c-.39-.77-.8-1.53-1.12-2.33s-.44-1.48-.66-2.23l.4-.15a3.07,3.07,0,0,0,.31-.17c.35,1,.63,1.93,1,2.83a22.54,22.54,0,0,0,3.68,6.05,22.83,22.83,0,0,0,3.21,3.08,21.52,21.52,0,0,0,3.74,2.31q.72.34,1.44.63a3.12,3.12,0,0,0,.59.13V147H109.88a.18.18,0,0,1-.09,0l-.06-.06c0-.61.13-1.24-.24-1.83a4.75,4.75,0,0,1,2.75-.7,4,4,0,0,0-1.51-1.47c-.06,0-.11-.1-.16-.09-.76.06-1.56-.2-2.27.31-.46.32-1,.27-1.55.49a1.9,1.9,0,0,1,.5-1.82h15V129H107.12c.06,1.11-.22,2.23.53,3.2.07.09,0,.25.08.37a3.33,3.33,0,0,0,.63,1.53c.55.56.6,1.35,1,2a.82.82,0,0,1,0,.49,2.07,2.07,0,0,1-1,1.39c-.07,0-.12-.05-.13-.07a1.21,1.21,0,0,1-.05-.18c-.15-.56-.58-.82-.95-.49s-.7.25-1,.52v-1.11l-.19.15-.29-.59-1.21.18a1.69,1.69,0,0,1-.33-.33,7.1,7.1,0,0,1-.41-.83c-.11-.3.1-.49.3-.68a.55.55,0,0,0,.1-.26c.06-.4.12-.81.18-1.19l-.83-1.07c-1-.34-1.74.24-2.47.71l-.36-.37a4,4,0,0,0,0-1,.93.93,0,0,0-.8-.64l-.28.19c-.19-.56.22-.74.39-.9l2-.36-3.51-2.93s-.06,0-.18,0a8.08,8.08,0,0,1,0,1.84,7.7,7.7,0,0,1-.88,1.66c-.79-1.36-1.94-2.38-2.17-3.93-2.67.09-2.91-.16-4.08-2.17,0,.33-.08.64.07,1a3.64,3.64,0,0,0,1.17,1.5,3.08,3.08,0,0,0,2.25.44l.47,1.09c.26.55.26.55-.27.92a3.58,3.58,0,0,1-.29.26,19.11,19.11,0,0,0-1.79,1.44,12.25,12.25,0,0,0-1.91,1.9c-.2.22-.49.56-.29.93a3.82,3.82,0,0,0,1,1.4,10.21,10.21,0,0,0,3,1.27,14.19,14.19,0,0,1,1.74.4,4.91,4.91,0,0,1,3.17,2.81c.26.63.46,1.28.69,1.92s.44,1,.58,1.56.62.62.8,1c-1.18.09-1.44,0-3.14-1.52-.13.43.13.72.32,1s.42.55.41.82a6.08,6.08,0,0,1-.33,1.34c1.82-.22,3.42.55,5.17,1.05a5.25,5.25,0,0,0-.22-2.2,2.2,2.2,0,0,1-.19-1.12c0-.43,0-.86,0-1.27l.89-.8a1.92,1.92,0,0,0,2.15,1.34l-.26,1.16c.17,0,.24,0,.29,0,.7-.29.71-.3.92.37a1.7,1.7,0,0,0,1.57,1.27c.06,1.31,0,1.31-.71,2.21a3.22,3.22,0,0,0-.25.39c-.14.21-.28.35,0,.66s-.06.65-.51.7l-.77.05,1,.74a2.92,2.92,0,0,0-.23.29,1.78,1.78,0,0,1-2.14.92c-.35-.08-.71-.1-1.24-.18l1,1.21a3.48,3.48,0,0,1-3.84,0c-.08.45.32.52.45.76a2.55,2.55,0,0,1,.13.39,8.34,8.34,0,0,0-1.2-.15,4.78,4.78,0,0,1-1.54-.39c-.68-.23-1-.81-1.65-1.27v.87a3.61,3.61,0,0,1-1.33-1.87,1.48,1.48,0,0,0-1.3-.94.57.57,0,0,1-.58-.41,1.37,1.37,0,0,1-.2-.72c.09-.77,0-1.54.15-2.32a9.47,9.47,0,0,0,.26-2.91,6,6,0,0,0-.13-1.05c-.14-.4-.62,0-.87-.29,0,0-.1-.1-.15-.1a10.75,10.75,0,0,1-3.16-.82,2.59,2.59,0,0,1-1.91-1.65,5.85,5.85,0,0,1-.59-2.46c0-.22,0-.44,0-.83a2.51,2.51,0,0,0-.77,2,12.73,12.73,0,0,0,.4,1.43,6.32,6.32,0,0,0,.64,1.43c.37.59.25,1.28.49,1.9.09.22-.22.61-.36.92a6.92,6.92,0,0,0-1,3.28,2.54,2.54,0,0,0,0,2.14,2.2,2.2,0,0,1,0,.64,2.39,2.39,0,0,1-1.8-1c-.32-.53-.61-1.06-1-1.65a2.24,2.24,0,0,0,.35,1.81,1.07,1.07,0,0,1,0,1.23,16.5,16.5,0,0,1-1.07,1.76,1.29,1.29,0,0,0-.23,1.42,1.35,1.35,0,0,1,.1.46,3.76,3.76,0,0,0,.83,1.85c.27.39.34.36.81.14s1-.44,1.5-.72a1.41,1.41,0,0,1,1.14-.1c.25.08.76.13.72.66a1.08,1.08,0,0,0-.8,1,.64.64,0,0,1-.41.68c-.29.13-.31.48-.2.89s.14.71.21,1.08c-.62,0-.62,0-1-.26a2,2,0,0,0-1.8-.48,2.12,2.12,0,0,0-.37.61c0,.24-.28.57.14.74l.18.92c-.88.66-1.08.65-1.85-.09a5.2,5.2,0,0,1-1.34-1.79v1.72c-.62.19-.77-.36-1.14-.57a51,51,0,0,0-5.62,1v7.17a2.35,2.35,0,0,0,.8,0,19,19,0,0,1,3.88-.73,14.92,14.92,0,0,1,3.6-.26c.53.05,1.07,0,1.6,0,.8,0,1.6,0,2.4,0s1.54.13,2.31.2a1.32,1.32,0,0,1,.29,0,15,15,0,0,0,2.37.53c.7.16,1.4.36,2.09.55a48.1,48.1,0,0,1,7.28,2.92c1.26.57,2.49,1.22,3.79,1.7a8.45,8.45,0,0,0,3.92.68c.48-.05.61-.15.62-.65,0-.13,0-.27,0-.4,0-1.87,0-3.73,0-5.6,0-.25,0-.5,0-.75-.77,0-1.47,0-2.16,0a4.4,4.4,0,0,1-1.58-.31,31.14,31.14,0,0,1-4.19-1.7c-1-.45-1.9-.88-2.85-1.32a36.84,36.84,0,0,0-4-1.62c-.7-.24-1.41-.47-2.12-.65s-1.47-.32-2.2-.48V160c.53.12,1,.22,1.53.35.72.19,1.45.35,2.16.58s1.51.56,2.27.8a43.41,43.41,0,0,1,5,2.15,44.13,44.13,0,0,0,4.59,1.94,2.42,2.42,0,0,0,1.61.27v-1a1.16,1.16,0,0,1,.84-1.22,3.32,3.32,0,0,1,1.29-.28,11.24,11.24,0,0,1,1.82.19,6,6,0,0,1,3.07,1.76,1.37,1.37,0,0,1,.38,1c0,.63,0,1.27,0,1.9a.48.48,0,0,0,.36.51c.88.22,1.76.45,2.65.59.5.07,1,.07,1.52.19s1-.08,1.51.23a20.32,20.32,0,0,1,3,.18,24.86,24.86,0,0,0,2.59,0c.88,0,1.74-.16,2.62-.19a13.21,13.21,0,0,1,2.51-.2s.09,0,.1,0c.22-.3.54-.15.82-.2a5.71,5.71,0,0,1,.82-.18,9.72,9.72,0,0,0,1.93-.39c.42-.09.55-.27.54-.66,0-.63,0-1.26,0-1.89a1.5,1.5,0,0,1,.24-.79,4.26,4.26,0,0,1,.93-.87,9.18,9.18,0,0,1,1.28-.76,5.27,5.27,0,0,1,1.43-.4,4.79,4.79,0,0,1,2.67.22,1.24,1.24,0,0,1,.84,1.23c0,.36,0,.72,0,1.1a2,2,0,0,0,.65,0c.56-.29,1.2-.29,1.76-.58s1.21-.45,1.8-.73c1.8-.87,3.6-1.74,5.45-2.51.8-.33,1.61-.63,2.41-1a28.73,28.73,0,0,1,3.27-1,17.33,17.33,0,0,1,1.8-.26V161a2.25,2.25,0,0,0-.83,0c-.84.35-1.73.48-2.58.76a47.74,47.74,0,0,0-5.68,2.22c-1.65.77-3.26,1.6-5,2.23a8.47,8.47,0,0,1-3.28.77c-.59,0-1.18,0-1.8,0v6.75a1.33,1.33,0,0,0,0,.2.43.43,0,0,0,.42.44,9.7,9.7,0,0,0,2.09,0,15.67,15.67,0,0,0,2.38-.76,16.08,16.08,0,0,0,2.37-1c1.26-.74,2.62-1.25,3.93-1.86a34.33,34.33,0,0,1,4.07-1.53,12.94,12.94,0,0,1,2-.55,9.06,9.06,0,0,1,2.63-.44c.43-.38,1-.08,1.41-.22a5.23,5.23,0,0,1,1.42-.19c1.1,0,2.2,0,3.3,0a10.49,10.49,0,0,1,3.21.2c.79-.15,1.54.25,2.32.2.48.39,1.1.11,1.65.36a6.36,6.36,0,0,0,1.8.26v-7.15a14.73,14.73,0,0,0-2.81-.66c-.76-.19-1.57-.13-2.33-.39a.62.62,0,0,0-.73.16,1.25,1.25,0,0,1-.47.29c-.15.06-.16.38-.46.24v-1.88a5.63,5.63,0,0,1-1.38,1.88c-1,.75-1.05.61-1.79-.11.56-1.21.55-1.39-.12-2.2h-.8C165.09,159,165,159.13,164.89,159.36Zm-51.34,16.93a23.25,23.25,0,0,0,4.75,1.26c.37.08.73-.07,1.13.16a1.88,1.88,0,0,0,1.18,0c.42-.08.72.22,1.11.22,1.37,0,2.73,0,4.1,0a19.27,19.27,0,0,0,4-.16c.64-.16,1.34-.09,2-.19.9-.14,1.82-.24,2.72-.45s1.83-.53,2.74-.8v-6.86s0,0-.05-.07l-.13-.08a1.51,1.51,0,0,1-.37.22c-1.17.33-2.37.55-3.56.77a14.51,14.51,0,0,1-1.61.23c-.55,0-1.08.11-1.62.17-1.06.13-2.14.07-3.21.21-2,.25-3.93-.28-5.9-.17,0,0-.08,0-.1,0-.73-.43-1.61,0-2.33-.39a4.11,4.11,0,0,1-1.81-.25,6.84,6.84,0,0,1-1.37-.29,10.83,10.83,0,0,0-1.7-.44Zm.77-56.81c-.53.81-1.11,1.6-1.58,2.44a22.53,22.53,0,0,0-1.47,2.39,1.27,1.27,0,0,0,0,1.17,2.45,2.45,0,0,0,1.29,1.23,4.65,4.65,0,0,0,2.3.48,2.35,2.35,0,0,1,.7,0,4.78,4.78,0,0,0,3-.81,1.64,1.64,0,0,0,.73-2.33c-.81-1.23-1.64-2.46-2.47-3.67-.55-.82-.56-.82-.08-1.64,0,0,.08-.1.16-.2a15.17,15.17,0,0,0,1.57.24,3.28,3.28,0,0,1,1.34.38,5.28,5.28,0,0,0,.76.36.75.75,0,0,0,.81-.06,2.94,2.94,0,0,1,2-.67.82.82,0,0,0,.64-.16c.13-.11.43,0,.7,0a3.83,3.83,0,0,1-1,2.27l1.71,2.68a10.18,10.18,0,0,1,1.6-2.62,4,4,0,0,1-1-2.35c.75.09,1.45.13,2.14.26a2.74,2.74,0,0,1,1.08.5.86.86,0,0,0,1,.1,5.57,5.57,0,0,1,1.73-.65c.63-.09,1.27-.16,1.89-.24a4.6,4.6,0,0,0,.23.45c.34.47.34.47,0,1-.92,1.34-1.7,2.78-2.68,4.09a1,1,0,0,0-.23.89,2.69,2.69,0,0,0,.68,1.21,4.29,4.29,0,0,0,2.28,1,8,8,0,0,0,3.73-.35,3,3,0,0,0,1.5-1.25,1.16,1.16,0,0,0,0-1.34c-.26-.42-.49-.87-.76-1.28-.74-1.16-1.49-2.3-2.21-3.41a4.15,4.15,0,0,1,.38-.79c.43-.53.05-1-.17-1.37a1.39,1.39,0,0,0-1.44-.58,1.1,1.1,0,0,0-1.07.77c0,.08-.14.14-.21.21h-7.67l-.49-.73h-.93l-.47.74h-7.72a1.42,1.42,0,0,0-1-1,1.67,1.67,0,0,0-1.46.28c-.32.27-.65.57-.6,1A1.78,1.78,0,0,0,114.32,119.48Zm-22.38-9.16c-.06.34.19.68-.3.67l-2,1.61-.9-1.25-1.42,1.29.55.79.69-.5.3.36-2.11,1.88-.84-1-.8.79a1.48,1.48,0,0,0,.4.81l.88-.21-.29.65L87.88,118A28.47,28.47,0,0,1,97,111l-1.84-3.73-1.33.59.34.94.6-.27.29.29-2.33,1.4a1.51,1.51,0,0,0-.26-.38c-.23-.21-.18-.62-.59-.7s-.55.4-.91.47c-.19,0-.37.36-.46.59s.21.44.37.63a.22.22,0,0,0,.1.07Zm71.6,2.33L162,111.41c-.34.5-.56,1-1.11,1l-2-1.58,0-.45.91.59.21-.2c.38-.44.37-.6,0-1-.22-.18-.46-.34-.69-.5s-.61-.15-.74.16a1.89,1.89,0,0,1-.66.79c-.7-.61-1.57-.9-2.25-1.47.38-.45.67.11,1,0l.28-.9-1.34-.55c-.56,1.33-1.33,2.47-1.77,3.75a29.59,29.59,0,0,1,9.1,6.87l1.74-1.74-.27-.7.77.3.58-.61c-.34-.37-.39-.89-.93-1-.44.23-.4,1-1.07,1-.28-1-1.34-1.17-1.87-1.93l.45-.32.42.4Zm11.71-3.22c-.71,1.86-1.42,3.72-3.22,5,.15.16.31.32.45.49a1.62,1.62,0,0,1,0,2c-.37.39-.67.73-.22,1.25a.21.21,0,0,1,0,.19c-.26.45-.29,1.09-1,1.15a3,3,0,0,1-.2,1.35,1,1,0,0,1-1.23.57c.21.92-.53,1.16-.89,1.65h-.9l-.66.75c-.46,0-.86,0-1.25,0-.1,0-.2-.14-.29-.2-1.12.93-1.75.89-2.75-.16a1.17,1.17,0,0,0,.4,1.12,1.5,1.5,0,0,0,1.5.44c.32-.35.61-.73,1.23-.52a1.28,1.28,0,0,0,1.83-.66c.1-.15.22-.29.31-.4.29.09.53.25.69.19.55-.19,1.08-.48,1.19-1.11a1,1,0,0,1,.74-.85c.52-.15.67-.58.85-1a2.66,2.66,0,0,0,0-1,1.39,1.39,0,0,0,1-1c.18-.44-.13-.84-.37-1.24a1.8,1.8,0,0,0,.94-1.37,2,2,0,0,0-.77-1.59A7.14,7.14,0,0,0,175.25,109.43Zm-99.64.2a7,7,0,0,0,2.54,4.86,3.28,3.28,0,0,0-.64,1.1,1.06,1.06,0,0,0,.21,1.27,1.1,1.1,0,0,0,.29.28c.21.15.16.37.12.55-.27,1.14-.15,1.47.82,2a1.69,1.69,0,0,0,1.21,2.08c.25.08.13.25.19.38a2.66,2.66,0,0,0,1.06,1.27c.46.29.71,0,1,0,.5.94,1.19,1.46,1.9,1.18a1.14,1.14,0,0,1,1.35.27.63.63,0,0,0,.43.15,2.06,2.06,0,0,0,1.32-.63.77.77,0,0,0,.16-1c-.34,1.08-1.19.88-2,.87l-.57-.56s-.06,0-.09,0c-.52.23-.52.23-1.63.14l-.72-.88a.72.72,0,0,1-.25.14A1.43,1.43,0,0,1,81,122c-.08-.36-.13-.6-.57-.63s-.47-.35-.67-.62c-.31-.42-.08-.89-.21-1.3-1-.51-1.06-.8-.78-2.07-.23-.33-.43-.66-.66-1s0-.71.05-1.06.5-.55.6-.94A10.05,10.05,0,0,1,75.61,109.63Zm83.76-9.38.92.93h1.14l.76-.84-.86-.42c0,.4,0,.82-.55.88l-.57-.72Zm-68.79-.17c0,.34-.35.52-.61.75-.32-.15-.47-.32-.44-.63,0-.07-.07-.15-.13-.26l-.66.39.86.87a1.87,1.87,0,0,0,1.92-.93Z"/><path d="M127.31,64.82v1.7c.25.25.61,0,.91.25s.57,0,.69-.41.12-.61.21-.91a1.4,1.4,0,0,1,.22-.38,2.09,2.09,0,0,0,.53.14,7.34,7.34,0,0,1,2,.42c.4.07.5.34.36.73-.3.84-.62,1.68-.91,2.52a2.36,2.36,0,0,0,0,.61l-1.21,1.32a2.36,2.36,0,0,1-1-.18,6.62,6.62,0,0,0-2.43-.43c-.53,0-1-.31-1.61-.18-1.19.27-2.46.15-3.59.74a1.87,1.87,0,0,1-.62.06A4.37,4.37,0,0,1,119.29,68a12.84,12.84,0,0,0-.76-2.17,9.14,9.14,0,0,1,3.14-.63l.34,1.62a2.73,2.73,0,0,0,1.71-.32V64.82Z"/><path d="M153.59,82.34c1.14.35,2.06-.22,3-.57a7.05,7.05,0,0,0,2.33-1.86,5.92,5.92,0,0,0,1.26-2.68c1.29.34,1.74.9,2.3,2.55a6.57,6.57,0,0,1,.43,2.42,8.87,8.87,0,0,1-.2,2.62,6.4,6.4,0,0,0-.2.62.52.52,0,0,0,.6.36,7.54,7.54,0,0,0,1.51-.23,5.58,5.58,0,0,0,2.76-1.75,2.5,2.5,0,0,0,.23-.43c.09.1.26.2.26.29,0,.85.56,1.68,0,2.53a7,7,0,0,1-2.85,4.9,4.19,4.19,0,0,1-3.13,1.1c-.43,0-.87,0-1.3,0a5.8,5.8,0,0,1-3.49-1.47,6.92,6.92,0,0,1-1.63-2.32,9.83,9.83,0,0,0-.8-1.46A1.84,1.84,0,0,0,152.9,86a3.57,3.57,0,0,1-.8,0,6.36,6.36,0,0,0-2.32.43,1,1,0,0,0-.41.21,7.09,7.09,0,0,0-2.26,3.26.66.66,0,0,0,0,.2,6.14,6.14,0,0,1,2.89.1,4.61,4.61,0,0,1,2.38,2,3.77,3.77,0,0,1,.33,3.3,5,5,0,0,1-1,1.59,6.2,6.2,0,0,1-2.4,1.63c0-.24,0-.39,0-.55a1.76,1.76,0,0,0-1.17-1.79c-.08,0-.16-.13-.24-.13a6.35,6.35,0,0,0-3.28.54,9,9,0,0,0-2.55,1.81,4.75,4.75,0,0,0-1.19,2.51,7.33,7.33,0,0,0-.15,1.92,9.66,9.66,0,0,0,.95,3.5,7.41,7.41,0,0,0,1.71,1.86c.18.17.49.19.93.34a9.33,9.33,0,0,1-2.14.67,6.29,6.29,0,0,1-2,.08,9.36,9.36,0,0,1-2-.45,11.94,11.94,0,0,1-1.78-1,19.92,19.92,0,0,1-1.59-1.46,7.3,7.3,0,0,1-1.25-1.94,21.47,21.47,0,0,0,.18,3.21,15.08,15.08,0,0,0,.62,1.94,5.14,5.14,0,0,0,1.52,2,2.57,2.57,0,0,1-.91,0,2.31,2.31,0,0,0-1.94,0,.67.67,0,0,1-.2,0,8.19,8.19,0,0,0-2.24.36,10.3,10.3,0,0,0-2,.74c-1.17.57-2.3,1.22-3.45,1.83a5.88,5.88,0,0,1-1.6.46,4.58,4.58,0,0,0-1.13.18c-.5.21-1.06-.13-1.58-.24a6.26,6.26,0,0,1-2.33-1.34,2.54,2.54,0,0,1-.9-1.41,1.7,1.7,0,0,1,1-2c.11-.07.21-.16.29-.22.28-.68-.08-1.28-.18-1.9a2.34,2.34,0,0,0-1.65-1.45,3,3,0,0,1-1.3-.67c-.21.18-.43.37-.63.57a9.46,9.46,0,0,1-3,2.08,4.85,4.85,0,0,1-2.45.59,2.67,2.67,0,0,0-.4,0,6.3,6.3,0,0,1-3.32-.7c.22-.12.38-.22.55-.3a4.54,4.54,0,0,0,1.32-1.14c.35-.4.79-.77.79-1.37a6.51,6.51,0,0,0,.76-4.07,3.94,3.94,0,0,0-1.08-2.45,14.68,14.68,0,0,0-5-3.27,5.58,5.58,0,0,0-2.51-.69c-.48-.32-1.08,0-1.5-.24A2.65,2.65,0,0,0,97.73,95a10.37,10.37,0,0,0-3.07.54,2.89,2.89,0,0,1-.78,0,5.22,5.22,0,0,1,.21-.66,5.77,5.77,0,0,1,2.42-2.54,6.44,6.44,0,0,1,2-.87c.87-.16,1.77-.67,2.69-.15a6,6,0,0,1,2.7.87,14,14,0,0,0-1.74-3.55A20.15,20.15,0,0,0,100.6,87a4.62,4.62,0,0,0-2.32-1.41,1.53,1.53,0,0,0-.82-.15,3.5,3.5,0,0,0-1.17.55,5.13,5.13,0,0,0-1.49,1.87,9.47,9.47,0,0,1-2.27,3.06A5.41,5.41,0,0,1,90.3,92a10.59,10.59,0,0,1-3,.15,3.21,3.21,0,0,1-1-.34,7.91,7.91,0,0,1-4.12-5.16,9.93,9.93,0,0,1-.15-2,4.72,4.72,0,0,1,.26-1.1c.44.14.62.48.88.72a5.12,5.12,0,0,0,2.84,1.34c.34,0,.68.17,1,.18a1.13,1.13,0,0,0,.51-.18,11.47,11.47,0,0,1-.32-1.54c-.05-.83,0-1.66,0-2.5a9.11,9.11,0,0,1,1-3.27,3.4,3.4,0,0,1,1.68-1.1c.1.35.22.69.3,1a3.13,3.13,0,0,0,1,1.61,8.11,8.11,0,0,0,2.24,1.84,17.17,17.17,0,0,0,1.8.7,2,2,0,0,0,1.09,0,2.3,2.3,0,0,0,.78-.53,9.19,9.19,0,0,1,3.5-1.69,4.93,4.93,0,0,1,2.73.09,3.64,3.64,0,0,1,1.88,1.46,7.83,7.83,0,0,1,1.29,2.66,8.93,8.93,0,0,1,.35,1.55c0,.74.17,1.47.27,2.29a2.38,2.38,0,0,0,.28-.69,2.11,2.11,0,0,1,.81-1.36,2.44,2.44,0,0,1,1.16-.54,2.41,2.41,0,0,1,1.67.51,6.72,6.72,0,0,1,.86.83c-.1.13-.13.24-.21.28a3.89,3.89,0,0,0-1.85,2.61,3,3,0,0,0-.21,1.22c0,.51-.25,1-.22,1.51a13.93,13.93,0,0,0,.46,2.83,4.6,4.6,0,0,0,1.76,2.65,1.93,1.93,0,0,0,1.15.34c.53,0,1.06,0,1.67,0l-.64,1.19a7.42,7.42,0,0,1-3.54-.45c.93,2.58.82,6.37-1,8.76.45.22.85,0,1.28-.1a7.64,7.64,0,0,0,3.45-2c.35-.37.63-.8.94-1.2a8.35,8.35,0,0,0,4.16.81,6,6,0,0,1,1.94,3.14,23.77,23.77,0,0,1,.73,3.2l.08-.61.22.19a12,12,0,0,1,0-1.59c.07-.54-.22-1-.22-1.52a7.72,7.72,0,0,0-.2-1.51c-.11-.47-.29-.93-.44-1.4a16.59,16.59,0,0,0,6.84-3.09,5.94,5.94,0,0,0-1.4.41c-1.28.39-2.54.81-3.83,1.16a5.1,5.1,0,0,0-1.11.2,17.46,17.46,0,0,1-4.39.24,5.91,5.91,0,0,1-2.36-1,3.15,3.15,0,0,1-.7-1.5A4.22,4.22,0,0,1,114.8,99a13.09,13.09,0,0,1,1.12-1.42c0,.52,0,.85,0,1.17a2.28,2.28,0,0,0,1.33,2.21,5.17,5.17,0,0,0,2,.56,3,3,0,0,0,2-.16c.07,0,.19,0,.29,0a12.93,12.93,0,0,0,3.94-.86,27.64,27.64,0,0,0,4.08-1.74c.52-.27,1-.63,1.57-1-.07.27-.12.53-.2.77a5.79,5.79,0,0,0-.41,1.84c0,.27-.17.54-.18.81a9.32,9.32,0,0,0,.65,3.13,4.19,4.19,0,0,0,1.11,1.67,12.58,12.58,0,0,1,1.11-4.86,12.57,12.57,0,0,0,1.64,3.3,14.22,14.22,0,0,0,2.78,2.49,7.54,7.54,0,0,0,3.54,1.17,15.19,15.19,0,0,1-1-1.59,5.44,5.44,0,0,1-.62-1.83c-.05-.64-.22-1.26-.27-1.91s.27-1.33.23-2a4.35,4.35,0,0,1,.57-1.75c-.1,0-.22,0-.28,0a2.69,2.69,0,0,1-1.55.38,9.58,9.58,0,0,1-1.61.2A5.57,5.57,0,0,1,133,98c-.47-.53-1-1-1.49-1.61-3.14,2.58-6.92,3.52-10.92,3.83-.09-.77.54-2,1.6-3.49a4.5,4.5,0,0,0-.85.37,6.48,6.48,0,0,0-2.47,3.06c-1.69-.62-1.86-2-1.75-3.5a.76.76,0,0,0-.25-.05,2,2,0,0,1-2.12-1.31c-.1-.21-.18-.23-.37-.31A2.75,2.75,0,0,1,113,93.89a1.82,1.82,0,0,1,.91-2.69,1.48,1.48,0,0,0,.33-.17,2,2,0,0,1,1.87-.63c.38-.46.79-.92,1.15-1.41a1.46,1.46,0,0,0,.14-.6l-.94-.75c-.54.46-.67.55-1.1.14-.64-.6-1.44-.94-2.08-1.54a4,4,0,0,1-.89-1.63c-.09-.23.06-.53-.22-.71.2-.64-.29-.84-.7-1.09a2.43,2.43,0,0,1-.7-.9c-.06-.17-.15-.34-.23-.51l-.42.25c-.07-.09-.14-.14-.14-.19s0-.4,0-.6A1.75,1.75,0,0,1,111,79c.23-.1.17-.33.22-.53s.49-.46.87-.46.6,0,.9,0a1.14,1.14,0,0,0,.72-.2c.48-.27.44-.25.33-.81a6.44,6.44,0,0,1-.09-1.46c0-.12.19-.24.32-.38l1.21.58c.4-.45-.39-.62-.35-1.07l.57-.1v-.63l.7-.7a1.42,1.42,0,0,1,.24,0,4.08,4.08,0,0,0,1.78-.38.51.51,0,0,1,.23,0c.15.41.17.92.67,1.25a1.28,1.28,0,0,1,1.82-.16l-.23.63.15.11.15-.44.08.11.29-2.82a16.51,16.51,0,0,1,3.87-.68c1.26.31,2.6.15,3.92.73,0,.52.07,1.12.16,1.72a7.16,7.16,0,0,1,.21,1.31,6.29,6.29,0,0,0,.21,1.2c.4-.09.66-.48,1.13-.32a2.12,2.12,0,0,1,1.49,1.29A3,3,0,0,1,135,77a2.66,2.66,0,0,1,1.33,1.54c0,.11.17.23.15.33-.15.78.31,1.4.49,2.1a1.57,1.57,0,0,1,.11.35,3.28,3.28,0,0,1-1.76,3.14,4.77,4.77,0,0,1-2.61.73,1,1,0,0,0,1.1.81c.33,0,.67,0,1,0a2.37,2.37,0,0,1,2.1,1.78,13.37,13.37,0,0,1,.18,2.82c0,.05-.55,1.59-.6,1.65a2.49,2.49,0,0,1-.85.76,6.55,6.55,0,0,0-.93.66,2.47,2.47,0,0,1-.74,2.94h-1a6.82,6.82,0,0,0,2.34,1.81,3.08,3.08,0,0,0,3.47-.88,7.26,7.26,0,0,0,.87-2,9.08,9.08,0,0,0,.4-2.43c0-1.1,0-2.2,0-3.3a7.91,7.91,0,0,0-.86-3.33c-.15-.28-.34-.53-.53-.83.06-.31.28-.42.62-.41.5,0,1,0,1.5,0a3.71,3.71,0,0,1,2.88,1.68c0-.33,0-.56,0-.78a7.31,7.31,0,0,1,1.2-3.9,5.54,5.54,0,0,1,2.66-2.12,3.29,3.29,0,0,1,1.65,0,9.31,9.31,0,0,1,3.45,1.56A10.51,10.51,0,0,1,153.59,82.34Zm-32,9.49a5,5,0,0,1,.74-.13,3.32,3.32,0,0,1,.76.11c.17,0,.34.18.51.18a1,1,0,0,0,.52-.2,1.72,1.72,0,0,1,1-.19h1.14a2.82,2.82,0,0,1,.26-.37,3.75,3.75,0,0,1,.57-.62c.11-.07.35,0,.49,0s.2-.27.32-.39c.34-.3.79-.16,1.16-.21.08-.22.2-.39.18-.54A1.29,1.29,0,0,0,129,89a.93.93,0,0,0-.13-.15,2.59,2.59,0,0,1-.7-2.39.86.86,0,0,1,.69-.85c.22.44.47.86.68,1.31s.41.89.56,1.24a9.55,9.55,0,0,0,3.78.17,7.56,7.56,0,0,0,.49,1.4,1.28,1.28,0,0,1,.08,1.09c-.06.21-.13.41-.19.61a2.07,2.07,0,0,1-1.12-.5c-.48-.42-1-.31-1.19.27s-.17,1-.26,1.65c1-.54,1.75.18,2.6.32a1.79,1.79,0,0,0,1.13-1.65l.28.86a2.32,2.32,0,0,0,.23-2.63l.59.24a2.54,2.54,0,0,0-.73-1.82s0-.09.05-.15l.71.23c-.12-.26-.2-.42-.28-.58a1.56,1.56,0,0,0-1.65-1,3.87,3.87,0,0,1-.9,0c-.49-.08-1.15-.14-1.29-.65s-.64-1.09-.89-1.73a1,1,0,0,1,.34,0,2.58,2.58,0,0,0,2.17.16,4.15,4.15,0,0,0,2-1.4,2.22,2.22,0,0,0-1.88-3.6c-.3.34-.84,0-1.13.39-.35-.08-.54.15-.76.35a1.52,1.52,0,0,1-.49.25c-.46.18-.67.45-.66.84s.24.61.73.77c.14,0,.27.1.47.18a5.24,5.24,0,0,1,0-.69,1.33,1.33,0,0,1,1-1.09,1.26,1.26,0,0,1,1.39.7c.58,1.07,0,2.1-1.46,2.26a8.77,8.77,0,0,1-3.22-.14,20.29,20.29,0,0,0-2.83-.39,18.87,18.87,0,0,0-3.19,0,.7.7,0,0,0-.73.65,6.12,6.12,0,0,1-2.23,3.06,2.34,2.34,0,0,1-1.39.49c-.71,0-.92.31-.78,1.06a4.69,4.69,0,0,1,0,.75l-.88-.28c-.25,1.13-1.11,1.71-1.78,2.45-.73,0-1.53-.15-1.8.8-.34,0-.67-.09-.85.24a1.5,1.5,0,0,0-.13,1.45l.12-.65a3.42,3.42,0,0,0,.73-.13c.14,0,.23-.25.37-.29s.26.08.42.15l.55-.6a2.27,2.27,0,0,1,.65.12c.38.17.42.59.54,1,.74-.64,1.44-1.17,2-1.79a2.13,2.13,0,0,0,.66-1.42s.09,0,.21-.09v1c.32-.27.57-.4.68-.6a3.62,3.62,0,0,0,.28-2.08l.49.72c.11-.18.28-.33.29-.49,0-.59.39-.83.84-1,.17-.08.32-.21.49-.27A4.09,4.09,0,0,0,125,85.27c.31-.47.94-.55,1.62-.63a4.22,4.22,0,0,1-.89,1.06,2.1,2.1,0,0,0-.26,2c.18.58.71.55,1.05.83-.16.17-.3.42-.5.48-.49.14-.69.59-1,.87-.14.11-.16.36-.3.47a1.27,1.27,0,0,1-.6.21,1.78,1.78,0,0,1-.49-.13l-1.33-.24A1.63,1.63,0,0,0,121.57,91.83ZM89.09,79.13a4.76,4.76,0,0,0-.71,2,13.94,13.94,0,0,0,0,2.89,18.56,18.56,0,0,0,.8,2.8c-1.26,0-2.49,0-3.71,0-.11,0-.22-.1-.34-.14l-2-.68.66,1.8a.85.85,0,0,0,.13.25,7.83,7.83,0,0,0,2,2.25,3.56,3.56,0,0,0,1.81.7c.27,0,.49.26.85,0s.74.06,1.07,0,.83-.18,1.24-.36a5.36,5.36,0,0,0,2.47-2.55c.67-1.15,1-2.46,1.79-3.55a8.23,8.23,0,0,0,.49-.86A8.72,8.72,0,0,1,89.09,79.13Zm71.75,0A6.72,6.72,0,0,1,158.42,82a10.87,10.87,0,0,1-2.55,1.33c-.46.15-.93.24-1.4.35.05.16.05.22.08.28a17.8,17.8,0,0,1,1.51,2.77A8.05,8.05,0,0,0,158,89.82,3.76,3.76,0,0,0,160.82,91c.24,0,.47,0,.7,0a7.84,7.84,0,0,0,1.32,0,6.48,6.48,0,0,0,1.29-.72,8,8,0,0,0,2.34-2.92c.16-.42.25-.86.42-1.45-1.95,1.22-4,.92-6,.91,0-.23.06-.39.11-.54.14-.51.39-1,.55-1.48a8.41,8.41,0,0,0,.18-2.12,5.89,5.89,0,0,0-.41-2.53C161.17,79.79,161,79.49,160.84,79.12Zm-43.75,8.21a7.36,7.36,0,0,1,.1-1.66c.14-.43.17-1,.79-1.32a7,7,0,0,0-.47,2.72,1.06,1.06,0,0,0,.75,1.09,2.5,2.5,0,0,1,.66-1.72,6.4,6.4,0,0,0,.66-1,5.78,5.78,0,0,0,.22-1.27,4.3,4.3,0,0,1,0,2.21s0,.05.08.05h.33a3,3,0,0,0,1.07-3.75,4.1,4.1,0,0,1,1,2,3.06,3.06,0,0,0,.13-3.17l.56-.09L122.14,79l1-.09a.94.94,0,0,0,0-.19l-.89-.63a7,7,0,0,1-.72.92c-.29.27-.11.62-.23.9l-1.21,1.21c-.41.41-.24,1.15-.93,1.45h-.82a.9.9,0,0,1-.92-.62,3.36,3.36,0,0,0-1-1.39l-.7-.64c.13-1-.57-1.38-1.06-1.92l-.53.3c0,.56.5.41.79.54A5.33,5.33,0,0,1,113.83,81h1.29l-.81.63c.07.78-.16,1.52.3,2.13.36-.41.71-.83,1.08-1.23.08-.09.25-.11.37-.16-.26.45-.66.75-.73,1.25s-.36.82,0,1.35.2.89.77,1c.09-1.16.16-1.3.94-1.78A2.47,2.47,0,0,0,117.09,87.33ZM114.4,75.75a1.66,1.66,0,0,0,.2,1.44,3.14,3.14,0,0,0,1.17,1.23c.26.15.67.36.53.72s.06.69.07,1c1.06.43,1.18.4,1.78-.44l-.87-.75a6.44,6.44,0,0,0,1.2.22,8.36,8.36,0,0,0,1.31-.21l-.79.94,1.22.6c.26-.41.5-.74.68-1.1,0-.08-.12-.27-.22-.47.58-.63,1.5-1,1.89-1.88a1.08,1.08,0,0,1-1,0c.16-.63.7-.66,1.19-.82h-1V74.62l-.16-.08-.67.86c-.65-.36-.16-1-.42-1.36-.6-.21-.72.48-1.22.6l-1.06-1.19-.1,1.53c-.22-.7-.71-1-1-1.36-.45,0-.45,0-.75.5.67.19.65.71.62,1.27-.41-.14-.7-.5-1.2-.32.35.37.2.75.16,1.22Zm16.15.52c.12.3.25.55.33.82,0,.09,0,.23-.09.33a1.09,1.09,0,0,1-1.41.54,6.4,6.4,0,0,0-2.45-.36,3,3,0,0,0-2.3,1,1.49,1.49,0,0,0-.51,1.19,2,2,0,0,0,.53,1.28,3.36,3.36,0,0,0,3.24.66,5.54,5.54,0,0,0,1.92-.9c.11-.07.23-.12.43-.23L129.18,80c-1.78.73-2.56.75-3.46.07v-.8a2,2,0,0,1,1-.55,3.4,3.4,0,0,1,1.35,0,2.53,2.53,0,0,1,1.37.59,2,2,0,0,0,2.44.39l-.94-.85c.07-.06.1-.1.12-.1a1.2,1.2,0,0,1,.27.08,2.31,2.31,0,0,0,2.18.1,2.3,2.3,0,0,1,1.31-.17,6.84,6.84,0,0,1,1.18.37,2.91,2.91,0,0,0-1.84-1.87,2,2,0,0,0-2,.29A1.72,1.72,0,0,0,130.84,76ZM113.44,85.7l2.36,1.76.32-.36c-.11-.11-.2-.21-.3-.3a2.88,2.88,0,0,1-1.1-1.61,1.78,1.78,0,0,0-.3-.58,2.33,2.33,0,0,1-.69-1.8c0-.22-.44-.31-.13-.58a.63.63,0,0,0,.08-.73c-.08-.19-.36-.3-.6-.48l1-1.54-.27-.3-.13.38c-.25,0-.61,0-.72.15-.26.36-.94.36-.88,1,0,.08-.28.22-.46.28a2.52,2.52,0,0,1-.57,0,6.22,6.22,0,0,0,.28.86c.25.47.78.6,1.21.86a1.6,1.6,0,0,0,.46,1.39c.23.33-.3.37-.1.6l1,.82Zm12.4-13.46H125a3.31,3.31,0,0,0-.64,2.26.48.48,0,0,0,.47.5,8.77,8.77,0,0,0,.89,0l.85,0c0-.4,0-.73,0-1.06A1.75,1.75,0,0,0,125.84,72.24ZM122,95.4a2.54,2.54,0,0,0-.24-.64c-.45-.48-.92-1-1.4-1.4-.91-.88-1.37-.65-2.07,0a4.2,4.2,0,0,1,1.48,1.42,1.5,1.5,0,0,0,1.49.67C121.46,95.38,121.66,95.4,122,95.4Zm8.83-1.8c.76,1,1.14,2.24,2.62,2.2.1-.17.18-.3.25-.44a.89.89,0,0,0-.19-1.23,2.3,2.3,0,0,0-1.26-.53C131.83,93.61,131.41,93.6,130.84,93.6Zm-3.1,1.57c0-.21,0-.44-.13-.56a7.92,7.92,0,0,1-.92-1.31,2.17,2.17,0,0,0-.82-.63.75.75,0,0,0-.89.12c-.1.08-.3,0-.58,0,1,.69,1.19,1.87,2.29,2.34ZM125,94.88l-1.88-2.06a8,8,0,0,1-.91-.07c-.27,0-.39,0-.68.31.41.42.85.82,1.21,1.27A1.64,1.64,0,0,0,125,94.88Zm5.79.61A6.48,6.48,0,0,0,129,92.83h-1.12c0,.22,0,.47.14.56a3.93,3.93,0,0,1,.83,1.27C129.36,95.53,129.64,95.68,130.76,95.49Zm-13.93-1.91c-.09.3-.1.67-.29.86s-.55.18-.88.27a1.51,1.51,0,0,0,1.31.85c.64,0,1.37.29,2-.25A7.66,7.66,0,0,0,116.83,93.58Zm13.91-10.81c.42,0,.87-.06,1.11.12.42.32.62-.2,1-.11a1.46,1.46,0,0,0,1.48-.69c0-.29.06-.57-.21-.82a.74.74,0,0,0-.69-.26l-.53.53v1.07c-.74,0-1.49.17-2.14-.45Zm1,7.6c.18,0,.28-.24.42-.32.72-.34,1.12.35,1.65.52.38-.69-.51-1-.36-1.52h-2Z"/><path d="M312.4,94.33V83h9v37.5h-8.95v-2.76c-.3.12-.42.34-.6.48a4.55,4.55,0,0,0-.62.43,9.92,9.92,0,0,1-2.72,1.87,8,8,0,0,1-1.94.61,8.38,8.38,0,0,1-1.42.21,9.21,9.21,0,0,1-1.39,0,10.77,10.77,0,0,1-1.89-.28,9.45,9.45,0,0,1-2.68-1.24,7.82,7.82,0,0,1-2.45-2.88,13.87,13.87,0,0,1-1.53-4.16,7.45,7.45,0,0,0-.2-1.21,11.75,11.75,0,0,1-.19-1.22,16.1,16.1,0,0,1-.19-3.32c0-.27-.15-.54-.18-.82a2.42,2.42,0,0,1,0-.89c.25-1,.07-2.09.22-3.11a21.92,21.92,0,0,1,1-4.59,10.92,10.92,0,0,1,1.92-3.7,7.09,7.09,0,0,1,3-2.37,10,10,0,0,1,5.17-.76,7.79,7.79,0,0,1,4.15,1.52A13.64,13.64,0,0,1,312,94,2.31,2.31,0,0,0,312.4,94.33Zm0,5.48c-.47-.39-1-.78-1.47-1.2a4,4,0,0,0-4.09-.8,3.5,3.5,0,0,0-2.2,2.16,11.36,11.36,0,0,0-.82,4.35,37.7,37.7,0,0,0,.17,5.31,9.17,9.17,0,0,0,1,3.17,3.77,3.77,0,0,0,1.61,1.5,3.87,3.87,0,0,0,3.55-.24,5.72,5.72,0,0,0,2.21-1.82Z"/><path d="M274.23,120.57h-9.16V91.43c.21,0,.47,0,.72,0h7.69c.66,0,.75.09.75.72,0,1,0,2,0,3,.26.06.29-.21.44-.28a3.4,3.4,0,0,0,.48-.29c.16-.12.27-.29.43-.41a20.76,20.76,0,0,1,2.63-1.85,7.77,7.77,0,0,1,1.65-.84c.3-.09.53-.32.89-.29a2.37,2.37,0,0,0,.9-.21,9.63,9.63,0,0,1,2.83-.16,6.84,6.84,0,0,1,3.07.77,5.46,5.46,0,0,1,2.67,3.08,3.28,3.28,0,0,1,.38,1.13c0,.79.24,1.53.24,2.32,0,7.46,0,14.91,0,22.37-.81.14-6.54.18-9,.06v-1c0-5.82,0-11.65,0-17.48a7.84,7.84,0,0,0-.46-2.21,2.64,2.64,0,0,0-1.27-1.44,1.79,1.79,0,0,0-1.49-.23,13.55,13.55,0,0,0-2,.93,8.41,8.41,0,0,0-1.19,1l-1.19,1Z"/><path d="M365,101.22v19.26c-.81.15-6.1.19-9,.07v-29c.78-.14,6.12-.19,9-.06v3.83c.2-.09.34-.11.41-.19a20.62,20.62,0,0,1,3.42-2.61,10.68,10.68,0,0,1,3.68-1.5,10.38,10.38,0,0,1,3.42-.13,5.67,5.67,0,0,1,3.95,1.76,6.92,6.92,0,0,1,1.53,3.06c.11.51.09,1,.21,1.51a14,14,0,0,1,.17,3c0,1,0,2,0,3v17.37h-9.19v-1c0-6.06,0-12.12,0-18.18a4.28,4.28,0,0,0-.67-2.12,2,2,0,0,0-1.31-.91,2.29,2.29,0,0,0-1.44,0,6.47,6.47,0,0,0-2.44,1.37C366.15,100.26,365.54,100.75,365,101.22Z"/><path d="M338.56,90.8c.51,0,.85,0,1.18,0a12.18,12.18,0,0,1,3.12.44,7.19,7.19,0,0,1,1.34.36l.24.15c.72.35,1.45.67,2.15,1.06a8.69,8.69,0,0,1,1.15.84c.36.28.82.5,1,.87a8.38,8.38,0,0,0,.81,1A17.87,17.87,0,0,1,351.12,98a20.58,20.58,0,0,1,1.3,4.06c.11.55.05,1.11.2,1.61a6.32,6.32,0,0,1,.17,1.72c0,.57,0,1.14,0,1.7a4.86,4.86,0,0,1-.19,1.42c-.11.46.13,1-.21,1.41a9.61,9.61,0,0,1-.74,2.89,11.46,11.46,0,0,1-1.64,3.21,12.06,12.06,0,0,1-5.22,4.23,17.89,17.89,0,0,1-2.4.71,13.32,13.32,0,0,1-4.82.35,13.74,13.74,0,0,1-3.08-.5,22.75,22.75,0,0,1-2.86-1,10.64,10.64,0,0,1-2.25-1.56,10.41,10.41,0,0,1-2.05-2.24,16.86,16.86,0,0,1-1.3-2.35c-.14-.34-.3-.68-.42-1s0-.84-.24-1.08,0-.82-.37-1.06c.08-.72-.35-1.39-.2-2.11a8.86,8.86,0,0,1-.18-3.12,18.32,18.32,0,0,1,.36-2.93,20.34,20.34,0,0,1,.76-3,12.76,12.76,0,0,1,7.35-7.73c1-.12,1.87-.49,2.83-.64A21.64,21.64,0,0,1,338.56,90.8Zm5,15.4c0-.5,0-.9,0-1.3s-.15-.81-.19-1.22c-.07-.57.14-1.17-.21-1.71a6,6,0,0,0-.86-2.74,3.93,3.93,0,0,0-2.23-1.81c-.23-.09-.57.07-.77,0a1.34,1.34,0,0,0-1.26,0,6.22,6.22,0,0,0-1.27.32,5,5,0,0,0-1.8,1.84,11.94,11.94,0,0,0-1,3.38,10.5,10.5,0,0,0,0,1.59c0,.54-.13,1.08-.19,1.61-.09.72.29,1.39.21,2.12a9.14,9.14,0,0,0,.61,3.54,4.32,4.32,0,0,0,1.59,2.31,3.32,3.32,0,0,0,2.5.72,5.34,5.34,0,0,1,.8,0,4,4,0,0,0,2.5-1.46,9.26,9.26,0,0,0,1.38-3.62C343.24,108.49,343.73,107.31,343.59,106.2Z"/><path d="M233.85,106.44c0-1.08,0-1.82,0-2.54a16.28,16.28,0,0,1,1.19-5.1A18.25,18.25,0,0,1,236,97a9.09,9.09,0,0,1,1.14-1.71A11.41,11.41,0,0,1,239,93.53a16.37,16.37,0,0,1,2.15-1.33,12.71,12.71,0,0,1,3.08-1c.57-.13,1.17-.14,1.75-.32a6.27,6.27,0,0,1,1.79,0,8.51,8.51,0,0,1,1.89,0,26.94,26.94,0,0,1,2.76.55,14.24,14.24,0,0,1,2.58,1,11.84,11.84,0,0,1,3.52,2.8,15.27,15.27,0,0,1,2.17,3.89,24.05,24.05,0,0,1,1,3.79,15.75,15.75,0,0,1,.16,2.82,23.38,23.38,0,0,1,0,2.9,18,18,0,0,1-1,4.35,13.86,13.86,0,0,1-2.17,3.81,9.14,9.14,0,0,1-1.08,1.24,14.94,14.94,0,0,1-1.75,1.33,8.49,8.49,0,0,1-2,1,7.37,7.37,0,0,1-2.52.68c-.47.32-1.07,0-1.5.24a3.69,3.69,0,0,1-1.53.15,7.13,7.13,0,0,1-1.6,0,22.26,22.26,0,0,1-3.87-.76,16.61,16.61,0,0,1-3.42-1.65,10.79,10.79,0,0,1-3.12-3.36,33.67,33.67,0,0,1-1.54-3.06,8.18,8.18,0,0,0-.48-2A17,17,0,0,1,233.85,106.44Zm18.79-.37c0-1.08,0-2.25-.16-3.43a8.28,8.28,0,0,0-1.06-3.46A4.62,4.62,0,0,0,250,97.81a4.28,4.28,0,0,0-3.52-.35,3.85,3.85,0,0,0-1.67,1,8.13,8.13,0,0,0-1.18,2.11c-.16.5-.26,1-.39,1.53s0,1.1-.23,1.61c0,2.28-.18,4.58.4,6.83a5.81,5.81,0,0,0,1.94,3.48,3.3,3.3,0,0,0,1.9.73c.46,0,.93,0,1.4,0a1.49,1.49,0,0,0,.55-.1,3.9,3.9,0,0,0,2-1.42,5.87,5.87,0,0,0,1-2,8.21,8.21,0,0,0,.26-1.51c0-.54.15-1.07.18-1.61S252.64,106.83,252.64,106.07Z"/><path d="M219,113.39h12.79v7.14H209.7V86.3c.78-.14,6.4-.19,9.33-.06Z"/><path d="M418,148.65a6.15,6.15,0,0,1-2.93-2.34,5.18,5.18,0,0,1-1.11-3.23c0-.4,0-.8,0-1.2a6.24,6.24,0,0,1,1.47-3.68,6.65,6.65,0,0,1,3.32-2.11,5.15,5.15,0,0,1,1.66-.32c.8,0,1.6,0,2.4,0a6,6,0,0,1,2.44.39,2,2,0,0,0,.69,0h5.77c0,.35,0,.7,0,1.05s0,.73,0,1.16h-3.68a4.6,4.6,0,0,1,1.39,2.21,6.62,6.62,0,0,1,.27,1.58c0,.5.24,1.05-.18,1.51a4.06,4.06,0,0,1-.58,2.06A5.63,5.63,0,0,1,426.9,148a7.48,7.48,0,0,1-3.6,1.22,11,11,0,0,1-1.52.16c-.54,0-1.08-.08-1.61-.12l-1.05,1.09-.15-.11v1a1.9,1.9,0,0,0,1.54.88c1,.16,2,.48,3,.68a33.43,33.43,0,0,1,3.79,1,6.65,6.65,0,0,1,2.5,1.4,3.69,3.69,0,0,1,1.32,2.75c0,.15.09.3.1.45s.12.55,0,.72a1,1,0,0,0-.11.56,3.31,3.31,0,0,1-.56,1.77,4.77,4.77,0,0,1-1.17,1.41,9.93,9.93,0,0,1-3.89,1.75c-.41.1-.83.07-1.22.18a14.72,14.72,0,0,1-8.31-1,4.54,4.54,0,0,1-2.51-3c0-.11-.14-.23-.13-.34a15.23,15.23,0,0,1,.15-2.32,5.25,5.25,0,0,1,1.06-2.06,5.46,5.46,0,0,1,1.75-1.52c.3-.16.57-.35.92-.57-.17-.17-.28-.35-.43-.42a1.39,1.39,0,0,1-.86-1.45,3.15,3.15,0,0,1,.3-1.78A5.75,5.75,0,0,1,418,148.65ZM422.06,138h-1.15a7.9,7.9,0,0,0-1.44.38,4,4,0,0,0-2.2,2.35,4.88,4.88,0,0,0,0,3.43,4.32,4.32,0,0,0,2.34,2.6c.44.2.9.11,1.28.28,1,.44,2.69,0,3.57-.46a3.86,3.86,0,0,0,1.73-1.83,11.66,11.66,0,0,0,.59-2.45c-.26-.55-.17-1.18-.41-1.73a3.58,3.58,0,0,0-1.79-2A4.5,4.5,0,0,0,422.06,138Zm-2.81,17a2.56,2.56,0,0,1-.55.54,5,5,0,0,0-1.88,1.92A2.89,2.89,0,0,0,418,161.6a11,11,0,0,0,5.6,1c.41,0,.77-.26,1.22-.23s.61-.25.93-.37a3.93,3.93,0,0,0,1.43-.88,2.9,2.9,0,0,0,.85-2.71,2.34,2.34,0,0,0-.66-1.13,4.92,4.92,0,0,0-2.15-1.05c-1.53-.33-3-.77-4.57-1.06A10,10,0,0,0,419.25,155Z"/><path d="M306.83,134.54v8.21h11.33v2.81H306.85V155h12.32v2.8H304.26a1.71,1.71,0,0,1-.6,0,1,1,0,0,1-.43-.43c-.07-.13,0-.32,0-.49v-25h15.57v2.72Z"/><path d="M280.06,129.38v16.09l1.77-2.14c.06-.07.11-.16.17-.23.66-.73,1.32-1.45,2-2.18.3-.33.57-.7.85-1s.73-.57.85-1c0-.06.1-.09.14-.14l2.24-2.47h4.21c-.89,1-1.75,1.85-2.56,2.79-1.23,1.4-2.5,2.76-3.72,4.16a17.52,17.52,0,0,0-2.48,3L293,157.72h-4.28l-8.66-11v9.9a2.26,2.26,0,0,1,0,.69c-.06.18-.26.43-.41.43-.83,0-1.67,0-2.5,0a.45.45,0,0,1-.47-.5V129.38Z"/><path d="M221.14,137a3.68,3.68,0,0,0-1.58-2.24,5.89,5.89,0,0,0-4.08-.71,3.13,3.13,0,0,0-2.31,1.15,3.89,3.89,0,0,0-.91,2c0,.31-.19.62-.18.92s.19.58.21.91a1.76,1.76,0,0,0,.39,1,5.23,5.23,0,0,0,1.59,1.44,15.57,15.57,0,0,0,1.77.78c.58.19,1.05.67,1.7.71,1.4.8,3,1.2,4.28,2.21a6,6,0,0,1,2.68,3.8,10,10,0,0,1,.11,3.12,5.94,5.94,0,0,1-.72,2.19,7.8,7.8,0,0,1-4,3.29,10.08,10.08,0,0,1-3.56.59c-.53,0-1.06,0-1.59,0a7.39,7.39,0,0,1-2.75-.61,7.65,7.65,0,0,1-3.32-2.54,3.82,3.82,0,0,1-.8-1.47,3.61,3.61,0,0,0-.44-.88L211,151.4a6.69,6.69,0,0,0,1.26,2.44,5.55,5.55,0,0,0,2.14,1.32,6.27,6.27,0,0,0,4.49-.34,4.39,4.39,0,0,0,1.8-6.14,3.24,3.24,0,0,0-1.34-1.33c-1.83-.89-3.63-1.84-5.49-2.66a19.94,19.94,0,0,1-3.19-1.71,5.69,5.69,0,0,1-2-3.41,7.84,7.84,0,0,0-.18-.81,3.88,3.88,0,0,1,0-.9,6.57,6.57,0,0,1,.8-2.87,7.13,7.13,0,0,1,2.6-2.63,8.64,8.64,0,0,1,4.4-1.18c.5,0,1,0,1.5,0a7.68,7.68,0,0,1,4.39,1.44,6.46,6.46,0,0,1,2.21,2.76c.16.4.1.67-.26.79-.81.28-1.63.55-2.46.8A2.17,2.17,0,0,1,221.14,137Z"/><path d="M362,139.5c.5-.43.89-.75,1.26-1.09a10.5,10.5,0,0,1,3-2,5.4,5.4,0,0,1,2.46-.59c.36,0,.73,0,1.1,0a4.36,4.36,0,0,1,3.29,1.45,5.67,5.67,0,0,1,1.06,2.16,6.89,6.89,0,0,1,.18,2q0,7.54,0,15.08v1h-3.2v-1c0-4.89,0-9.79,0-14.68a4.41,4.41,0,0,0-.89-2.43c-.08-.12-.27-.15-.4-.24a3.76,3.76,0,0,0-3.52-.3,6.1,6.1,0,0,0-2.56,1.56c-.6.62-1.22,1.22-1.86,1.87v15.24h-3.14V129.4H362Z"/><path d="M449.57,147.78h-14a10.33,10.33,0,0,0,1.42,5.41,5.84,5.84,0,0,0,2.65,2.15c.81-.09,1.59.58,2.44,0,.26-.17.72.14,1-.22a4.49,4.49,0,0,0,3.09-3c.05-.14.2-.24.29-.35l2.72.91a16.28,16.28,0,0,1-1.17,2.17,6.43,6.43,0,0,1-2.64,2.3,5.84,5.84,0,0,1-3,.83c-.66,0-1.33,0-2,0a7.76,7.76,0,0,1-4.23-1.36,6.39,6.39,0,0,1-1.67-1.69,9.31,9.31,0,0,1-1.1-2,17.9,17.9,0,0,1-.79-2.68c-.12-.55-.09-1.08-.16-1.62,0-.34-.16-.68-.19-1a4.1,4.1,0,0,1,0-1,21.72,21.72,0,0,1,.79-4.87,13.16,13.16,0,0,1,1.57-3.05,9,9,0,0,1,2.3-2,6.23,6.23,0,0,1,1.9-.68,11.37,11.37,0,0,1,4.11-.16,6,6,0,0,1,3.37,1.48,10.93,10.93,0,0,1,2.07,2.54,6.43,6.43,0,0,1,.67,1.81c.19.66.29,1.35.44,2C449.68,145,449.4,146.35,449.57,147.78Zm-3.28-2.59a3.46,3.46,0,0,1-.15-.6c0-.33,0-.67,0-1a3.62,3.62,0,0,0-.2-.91,8.41,8.41,0,0,0-.88-2.14,14.1,14.1,0,0,0-1-1.16,4.41,4.41,0,0,0-3.08-1.2c-.24,0-.48.2-.72.18a2.84,2.84,0,0,0-1.88.75,6.73,6.73,0,0,0-2.44,4,5.36,5.36,0,0,1-.35,1.65c-.19.32.13.65.59.65h9.67A1.5,1.5,0,0,0,446.29,145.19Z"/><path d="M378.11,141.1a11.53,11.53,0,0,1,.54-1.49c.38-.68.91-1.28,1.33-1.94a9.25,9.25,0,0,1,3.49-1.74,20.84,20.84,0,0,1,4-.12,5.57,5.57,0,0,1,3,1.14,4.9,4.9,0,0,1,1.86,2.64,4.06,4.06,0,0,1,.37,1c0,.78.25,1.52.25,2.31-.05,4.17,0,8.33,0,12.5a2.51,2.51,0,0,0,.18,1.52c.09.14,0,.37,0,.58h-3.4V154c-.42.54-.67.95-1,1.28a8.69,8.69,0,0,1-3.64,2.31,3.66,3.66,0,0,1-1.32.21c-.53,0-1.06,0-1.59,0a5,5,0,0,1-3.26-1.31,6.36,6.36,0,0,1-1.76-3,2.21,2.21,0,0,1,0-.58c0-.7,0-1.41,0-2.1a5.92,5.92,0,0,1,1.52-3.67,8.25,8.25,0,0,1,3.94-2.31,5.74,5.74,0,0,1,1.6-.24,13.71,13.71,0,0,1,1.82-.22,17.81,17.81,0,0,0,1.79,0h1.92a20.74,20.74,0,0,0,0-2.74,3.61,3.61,0,0,0-1.14-2.52,3.74,3.74,0,0,0-2.41-.94c-.33,0-.66,0-1,0a3.52,3.52,0,0,0-2.56,1,6.27,6.27,0,0,0-1.66,2.32,2.72,2.72,0,0,1-.11.25.4.4,0,0,1-.13.13Zm11.63,5.66a31,31,0,0,0-4.42.18,13.86,13.86,0,0,0-1.64.38,5.41,5.41,0,0,0-1.52.65c-.34.26-.63.57-1,.86a4,4,0,0,0-1,2.86,2.42,2.42,0,0,0,.18.81,3.53,3.53,0,0,0,1.55,2.35c.46.26,1,.16,1.35.36a2.59,2.59,0,0,0,2.09-.18,7.55,7.55,0,0,0,3-1.94c.46-.48.94-.94,1.39-1.4Z"/><path d="M256.44,146.59a15.91,15.91,0,0,1-.37,3.83,13.75,13.75,0,0,1-1,3.08,6.71,6.71,0,0,1-1.55,2.23,6.81,6.81,0,0,1-2.49,1.68c-.78.23-1.55.43-2.35.6a5.41,5.41,0,0,1-1.82.13,9.12,9.12,0,0,1-3.7-1,7,7,0,0,1-3.09-3,12.47,12.47,0,0,1-1.44-4.2c-.1-.55-.1-1.09-.16-1.63a3.91,3.91,0,0,0-.15-.93,1.54,1.54,0,0,1,.09-1.33,1.16,1.16,0,0,0,.06-.57,8.36,8.36,0,0,1,.17-1.72c.12-.52.27-1,.37-1.54a7,7,0,0,1,.72-2,8.08,8.08,0,0,1,1.87-2.51,7.73,7.73,0,0,1,3.45-1.82,8.07,8.07,0,0,0,1.32-.19,2.46,2.46,0,0,1,1.22-.16,12.76,12.76,0,0,1,4,.95,8.73,8.73,0,0,1,3.08,2.8,14,14,0,0,1,1.36,3.13c.21.55.06,1.23.25,1.8A9.3,9.3,0,0,1,256.44,146.59Zm-14.59.15c0,.6,0,1.2,0,1.79a12.36,12.36,0,0,0,.2,1.82,7.89,7.89,0,0,0,.48,1.59,7.53,7.53,0,0,0,1,1.78,4,4,0,0,0,3.4,1.65,6.68,6.68,0,0,1,1,0,4.51,4.51,0,0,0,3.73-2.31,10.85,10.85,0,0,0,1.36-5.21,14.26,14.26,0,0,0-.14-3.32,13.58,13.58,0,0,0-.85-3.15,2.68,2.68,0,0,0-.69-1.21c-.48-.38-.85-.87-1.38-1.23a5.86,5.86,0,0,0-4.37-.34A4.28,4.28,0,0,0,243.5,140a9.69,9.69,0,0,0-1.64,5C241.82,145.61,241.85,146.17,241.85,146.74Z"/><path d="M399,157.55H395.8V136.19c.47,0,1,0,1.51,0H399v3.17c.14,0,.22.06.26,0a12.78,12.78,0,0,0,1.27-1,11.55,11.55,0,0,1,3.21-2.14,3.92,3.92,0,0,1,1.42-.4,13,13,0,0,1,2.5,0,4.52,4.52,0,0,1,1.64.6,5,5,0,0,1,2.12,3.39,14.89,14.89,0,0,1,.17,3.12c0,4.86,0,9.71,0,14.61h-3.19v-1c0-4.79,0-9.59,0-14.38a4.06,4.06,0,0,0-.75-2.38,2.88,2.88,0,0,0-3-1.16,6.49,6.49,0,0,0-2,.65,7.69,7.69,0,0,0-3.09,2.65,3.76,3.76,0,0,1-.56.57Z"/><path d="M330.68,144.38c1.47-2.88,3.28-5.46,4.92-8.17H339c.16.38-.22.44-.34.65C337.38,139,336,141,334.68,143L333,145.7a.76.76,0,0,0,0,1l2,3.26c.58,1,1.11,2,1.74,2.87.49.73.87,1.52,1.39,2.23s1,1.64,1.47,2.51h-3.78l-1.42-2.34c-.94-1.58-1.71-3.25-2.8-4.74-.13-.68-.77-1.13-.86-1.84,0-.08-.14-.14-.19-.19l-5.67,9.12h-3.66c1.16-1.75,2.2-3.54,3.33-5.28.51-.77,1-1.57,1.46-2.38s1-1.57,1.53-2.36a4.74,4.74,0,0,1,.57-1c.18-.18.12-.39,0-.61-.42-.65-.8-1.33-1.21-2-.65-1.07-1.31-2.12-2-3.18-.76-1.22-1.51-2.44-2.26-3.66l-.54-.89c1.25-.1,2.4,0,3.6-.06a13.74,13.74,0,0,1,1.66,2.67c.56.93,1.1,1.87,1.67,2.8S330,143.5,330.68,144.38Z"/><path d="M274.4,141.33c-.42.15-.83.27-1.23.45a8,8,0,0,0-1.24.37.48.48,0,0,1-.68-.35c0-.51-.39-.84-.56-1.27a3.11,3.11,0,0,0-1.47-1.68,3.71,3.71,0,0,0-1.4-.48h-1.1a3.82,3.82,0,0,0-2.73,1.14,6.2,6.2,0,0,0-1.95,4c-.45.62-.1,1.36-.35,2.05a5.57,5.57,0,0,0,0,2.08,10,10,0,0,0,.19,1.22c.07.4-.17.84.18,1.23.12.13,0,.47,0,.68a7.33,7.33,0,0,0,1.89,3.62,3.22,3.22,0,0,0,2.39,1,4.09,4.09,0,0,1,.7,0,3.81,3.81,0,0,0,2.92-1.19,7.09,7.09,0,0,0,1.49-2.19,3.85,3.85,0,0,1,.25-.42l2.75.85a3.67,3.67,0,0,1-.72,1.73,7.07,7.07,0,0,1-1.35,1.92,6,6,0,0,1-1.94,1.32,13.55,13.55,0,0,1-2.35.62,15,15,0,0,1-1.62.15c-.14,0-.32.06-.4,0-.5-.41-1.13,0-1.67-.31s-1.1-.35-1.64-.63a10.27,10.27,0,0,1-2.74-2.64,12.2,12.2,0,0,1-1.35-3.34c-.19-.6-.07-1.3-.24-1.91a19.73,19.73,0,0,1-.19-3.51,4.39,4.39,0,0,1,.21-1.22c.07-.37-.18-.8.2-1.12a3.39,3.39,0,0,1,.3-1.67,12,12,0,0,1,1.58-3.05,7.56,7.56,0,0,1,3.09-2.44,5,5,0,0,1,2.18-.52,5.37,5.37,0,0,0,.92-.21,9.75,9.75,0,0,1,3.78.74,5.67,5.67,0,0,1,2.55,2.29A12.81,12.81,0,0,1,274.4,141.33Z"/><path d="M353.65,151.56l2.75.9c0,.16-.09.36-.16.55a9.8,9.8,0,0,1-1.78,2.94,6.07,6.07,0,0,1-2.52,1.61,5.74,5.74,0,0,1-2.53.41c-.63,0-1.27,0-1.89,0a7.59,7.59,0,0,1-3.64-1.35c-1-.69-1.49-1.79-2.23-2.68-.21-1-.87-1.8-.86-2.84-.62-2.08-.37-4.21-.37-6.32a8.49,8.49,0,0,1,.39-2.23,10.86,10.86,0,0,1,1-2.68,8.24,8.24,0,0,1,4.66-3.84,6.83,6.83,0,0,1,1.7-.23c.63,0,1.27,0,1.9,0a4.92,4.92,0,0,1,2.62.66,5.89,5.89,0,0,1,2.31,2.18,15.09,15.09,0,0,1,1.35,2.73l-2.9.89a5.48,5.48,0,0,0-1.95-3.22,2.52,2.52,0,0,0-1.43-.65c-.34,0-.67-.31-1-.18-.67.26-1.4.25-2.06.58a5,5,0,0,0-1.81,1.57,9.21,9.21,0,0,0-1.23,3.29c-.14.64,0,1.32-.21,1.91a4.84,4.84,0,0,0-.14,1.92c0,.57.18,1.13.19,1.72a5.12,5.12,0,0,0,.2,1.61,8,8,0,0,0,2.32,4,4.34,4.34,0,0,0,1,.43,4.49,4.49,0,0,0,4.7-1A5.89,5.89,0,0,0,353.65,151.56Z"/><path d="M238,155v2.3c-.35.4-.83.4-1.29.53a5.58,5.58,0,0,1-2.44.33,7,7,0,0,1-2.58-.76,4.4,4.4,0,0,1-2-2.86,10.43,10.43,0,0,1-.24-2.51c0-3.52,0-7,0-10.58v-1h-3.15a6.27,6.27,0,0,1-.05-1.29c0-.43,0-.86,0-1.32h3.17v-5.28l3.21-1.39v6.63h5.21c0,.68,0,1.34,0,2,0,.48-.15.62-.65.62h-4.54v1c0,3.09,0,6.19,0,9.28,0,1,.25,2,.25,3a2,2,0,0,0,.69,1.3,1.41,1.41,0,0,0,1.14.39,5.46,5.46,0,0,1,1,0,2.79,2.79,0,0,0,1.49-.28A2.26,2.26,0,0,1,238,155Z"/><path d="M103,113a10.07,10.07,0,0,1,3.44-1.85,3.63,3.63,0,0,1,1.22-.2c1,0,1.93,0,2.9,0a3.1,3.1,0,0,1,2.81,1.38h-7.56V114L104.53,115Z"/><path d="M145.09,114v-1.62h-7.62a2.92,2.92,0,0,1,1.82-1.27,4.94,4.94,0,0,1,.65-.12c.9,0,1.8,0,2.69,0a6.64,6.64,0,0,1,4.06,1.29c.39.26.81.48,1.24.73l-1.67,2Z"/><path d="M99.71,101.11v2A1.93,1.93,0,0,1,98,104a7.48,7.48,0,0,1-1.46-.32,5.7,5.7,0,0,0-2.09-.26,6.22,6.22,0,0,0-.71.19l-.6.15a2.77,2.77,0,0,1,3-1.51,8.44,8.44,0,0,0,1.87.17,1.49,1.49,0,0,0,1.47-1C99.45,101.33,99.55,101.27,99.71,101.11Z"/><path d="M151.15,101.07a2.71,2.71,0,0,0,.91,1.13c.34.29.84,0,1.14.39.45-.5,1.18.11,1.63-.4a3,3,0,0,1,2.14.6,2,2,0,0,1,.79.95c-.28-.06-.51-.09-.72-.15s-.41-.16-.62-.19a3.93,3.93,0,0,0-2.07.29c-.39.18-.81,0-1.2.27-.23.18-.72,0-1.09-.13s-.59-.51-.91-.67Z"/><path d="M112.73,137.35v-1.73l1.59.52V132.9a2.62,2.62,0,0,1,.08-1.06c.18-.34,0-.66.13-1a8.09,8.09,0,0,1,.5-.9c.58.07.76.24.89.86a6.07,6.07,0,0,1,.19.82,10.07,10.07,0,0,1,0,1.1v3.13c.63.27,1.14-.09,1.76-.42a14.39,14.39,0,0,1,0,1.56c-.45.64-1.22.4-1.76.84-.07.26-.31.65-.2.9a3.46,3.46,0,0,1,.17,1c-.27.54-.71.65-1.37.53l-.28-.51a1.11,1.11,0,0,1,0-.92,1,1,0,0,0-.77-1.33Z"/><path d="M103.56,169,105,167.8l.91.46a.9.9,0,0,0-.42.83c0,.7,0,1.4,0,2.1a8.2,8.2,0,0,0,.21,1.16l-1.24-.46a7.41,7.41,0,0,0,.24-2.55l-1.28.86-1-1.71c-.16,1.41-.14,1.88.11,2.39-.44.3-.75-.29-1.12-.12,0-.89.1-1.73.11-2.56a2.29,2.29,0,0,0-.39-1.73,1.08,1.08,0,0,1,1.23.61C102.75,167.73,103.17,168.36,103.56,169Z"/><path d="M173.09,164.38l-1.25,1.25-1.26-1.52c-.29.93.13,1.74.13,2.57l-1.14-.17a3.53,3.53,0,0,0,.12-.63c0-.86,0-1.73,0-2.59a1,1,0,0,0-.49-.88h1.17l1.41,2c.38-.43.77-.82,1.09-1.26s.59-.53,1.1-.17c-.19,1.34,0,2.65-.11,4h-1c.07-.43.16-.85.19-1.27S173.09,164.81,173.09,164.38Z"/><path d="M98.44,165.12l.87.45v4.14a1.68,1.68,0,0,1-.86-.55h-.37a2.15,2.15,0,0,1-1.66-.81,1.74,1.74,0,0,1-.49-1.4c0-.5,0-1,0-1.5s-.09-.8-.13-1.24l1.12.41c-.07.12-.18.22-.18.33,0,.76,0,1.53,0,2.29a1.33,1.33,0,0,0,.77,1.12c.14.06.28.14.52.26l.36-.7.13.14a12.5,12.5,0,0,1,0-1.5C98.61,166.08,98.1,165.67,98.44,165.12Z"/><path d="M148.62,170.7l1.74-5.19c1,1,1.58,2.33,2.57,3.41l-1.16.49-.11-.64a3.25,3.25,0,0,0-1.73.69c-.07.06-.39.38,0,.61Z"/><path d="M77.53,167a4.75,4.75,0,0,0,.2-2.14c0-.69,0-1.38,0-2,1.26-.63,2.17-.15,3,.84a1.51,1.51,0,0,0,0,.42,2.14,2.14,0,0,1-2,2.66C78.38,166.81,78,166.92,77.53,167Zm1.11-.88c1.18-.46,1.36-.76,1.23-2.22l-1.05-.78A5.25,5.25,0,0,0,78.64,166.15Z"/><path d="M164.09,162.36h1a3.37,3.37,0,0,0-.1.61,8.94,8.94,0,0,0,0,2.13c.21,1,.81,1,1.72.37,0-.51,0-1,0-1.57a3.18,3.18,0,0,0-.16-1.52h1.08a6.07,6.07,0,0,0-.11,2.08,3.9,3.9,0,0,0,.2,2c-.07,0-.13.09-.18.09a1.72,1.72,0,0,1-1.11-.19c-.29.35-.68.18-1,.19a1,1,0,0,1-1.09-.78,4.15,4.15,0,0,1-.22-1.32C164.12,163.76,164.09,163.06,164.09,162.36Z"/><path d="M144.89,168a3.39,3.39,0,0,1,2.53-.64l.45.45v.86a4.49,4.49,0,0,1-2,1.55l.14,1.46-1.14.55c.09-.55.19-1,.22-1.4a12.35,12.35,0,0,0,0-1.49C145.07,168.92,145.27,168.44,144.89,168Zm2.24.31-.14-.19a.66.66,0,0,0-.81-.14c-.27.09-.3.38-.28.66s0,.58,0,.84A1.69,1.69,0,0,0,147.13,168.33Z"/><path d="M156.88,163.56v.92a2.14,2.14,0,0,0-.81-.1,2.24,2.24,0,0,0-1.56,1.55,1.05,1.05,0,0,0,.12.64,5.57,5.57,0,0,0,.47.74,2,2,0,0,0,2.16-.84v1l-.44.26a2.38,2.38,0,0,1-2.08.35c-.94-.26-1.2-1.54-1-2.3A3.16,3.16,0,0,1,156.88,163.56Z"/><path d="M88.91,162.64v.87l-.1.08-.13-.42H87.07c-.49.18-.45.73-.71,1.07a.31.31,0,0,0,0,.19c.06.67,1,1.74,1.91,1.51a6.52,6.52,0,0,0,.83-.36c.1.37.14.72-.25,1H87.65a2.25,2.25,0,0,1-2.11-1.84,2.13,2.13,0,0,1,1.9-2.35A1.76,1.76,0,0,1,88.91,162.64Z"/><path d="M94.11,163.57l-.25.6-1.13-.25a13.61,13.61,0,0,0,.22,3.6,4.6,4.6,0,0,0-.49-.16,4.66,4.66,0,0,0-.53,0c0-1.08,0-2.1,0-3.12a2.93,2.93,0,0,0-.2-.7l-1.22.3a3.35,3.35,0,0,0,.22-.47,1.6,1.6,0,0,0,0-.38,3.19,3.19,0,0,1,1.12,0C92.58,163.32,93.42,163.18,94.11,163.57Z"/><path d="M161.17,166.87l-1.08.23v-3.61L159,164c-.31-.52.11-.73.36-1l2.87-.39c.14.13.12.33,0,.54a.49.49,0,0,1-.51.21c-.1,0-.2,0-.3,0a.45.45,0,0,0-.5.47c0,.77,0,1.53,0,2.29A2.58,2.58,0,0,0,161.17,166.87Z"/><path d="M164.09,162.36c-.43-.2-.23-.61-.17-.84a5.28,5.28,0,0,1,1-2.16h1.3l.3.57a3.17,3.17,0,0,1-.2.51,1.42,1.42,0,0,1-.67.7A3.06,3.06,0,0,0,164.09,162.36Z"/><path d="M84.63,159.36a4.08,4.08,0,0,1,.78,0,1.34,1.34,0,0,1,1,.63,8,8,0,0,1,.58,2.33c-.54-.36-.89-.89-1.53-1-.14-.31-.65-.26-.69-.69-.49-.29-.46-.67-.18-1.09C84.57,159.5,84.59,159.44,84.63,159.36Z"/><path d="M142.46,140.67a10.07,10.07,0,0,1,1.1-.44,1.92,1.92,0,0,1,1.68.38,2.18,2.18,0,0,1,.22.21c.21.24.61.43.43.81a1.4,1.4,0,0,1-1.06.73.59.59,0,0,1-.41-.18c-.23-.26-.42-.56-.64-.83a1,1,0,0,0-.22-.18Z"/><path d="M108.15,140.69c-.7.48-1.57.76-1.89,1.65-.87-.06-1.18-.31-1.33-1A2.1,2.1,0,0,1,108.15,140.69Z"/><path d="M142.52,144.93a1.09,1.09,0,0,1-1-.17,3.63,3.63,0,0,0-2.23-.86c.8-.74.86-.74,2.21-.74a1.84,1.84,0,0,1,1.42.8Z"/><path d="M111.62,143.94a3.15,3.15,0,0,0-2.58,1c-.37,0-.73.07-.9-.29s-.27-.59-.18-.79a1.39,1.39,0,0,1,1-.7A3.19,3.19,0,0,1,111.62,143.94Z"/><path d="M83.76,162.2a9.54,9.54,0,0,0,0,4.12H82.58a4.67,4.67,0,0,0,.15-2,3.92,3.92,0,0,0-.22-2.07A3.29,3.29,0,0,1,83.76,162.2Z"/><path d="M163,157.76c.57.28.34.81.32,1.22a.68.68,0,0,1-.53.65,3.33,3.33,0,0,0-1,.42,6.13,6.13,0,0,0-.83.81C161.13,159.4,161.51,158.23,163,157.76Z"/><path d="M89.69,160.59a2.85,2.85,0,0,0-1.42-.85,1,1,0,0,1-.73-1c0-.35-.11-.74.33-.94A2.58,2.58,0,0,1,89.69,160.59Z"/><path d="M142.35,149c-.61,0-1.1,0-1.59,0s-.92.14-1.48.23c.18-.29.3-.49.43-.67a2.19,2.19,0,0,1,1.93-1,.6.6,0,0,1,.45.3A7,7,0,0,1,142.35,149Z"/><path d="M105.73,137.9c-1.15.77-1.67.91-2.83.37a3.11,3.11,0,0,0,1.32-.88,6.61,6.61,0,0,1,.7-.7.48.48,0,0,1,.8.3C105.75,137.29,105.73,137.58,105.73,137.9Z"/><path d="M108.58,149a1.31,1.31,0,0,1,.43-1.39,3.24,3.24,0,0,1,.82,0c.23.06.41.29.63.39.45.22.6.66,1,1-.54.38-.94-.16-1.4-.06A7.59,7.59,0,0,1,108.58,149Z"/><path d="M145.1,137.9a4.43,4.43,0,0,1,0-.82.72.72,0,0,1,.27-.47.45.45,0,0,1,.6.15c.06.08.18.13.21.22.27.79,1.08.86,1.63,1.26C147,138.79,146.35,138.72,145.1,137.9Z"/><path d="M142.71,138.37a1.09,1.09,0,0,1,.78-.8c.69.37.75.36.91,1a2.1,2.1,0,0,0,.72,1.09A2.07,2.07,0,0,1,142.71,138.37Z"/><path d="M160.34,158.74c-.21-.69.29-1.05.57-1.47a8.33,8.33,0,0,1,.93-1c.2.1.45.16.56.31a1.71,1.71,0,0,1,.28.76c0,.24-.2.34-.44.43a10.67,10.67,0,0,0-1.24.58C160.79,158.47,160.58,158.6,160.34,158.74Z"/><path d="M107.92,137.85c0,.55,0,1.12-.43,1.43a1.8,1.8,0,0,1-1.78.4,2,2,0,0,0,.72-1.09c.16-.66.22-.64.87-1.05a1.62,1.62,0,0,0,.29.19C107.7,137.78,107.82,137.81,107.92,137.85Z"/><path d="M88.65,156.3a3.13,3.13,0,0,1,1.91,2.51,4,4,0,0,0-1.62-.85,1.89,1.89,0,0,1-.51-.21.53.53,0,0,1-.23-.74A8.28,8.28,0,0,1,88.65,156.3Z"/><path d="M151.45,131.22c.83.87.33,1.82.17,2.8a4.82,4.82,0,0,0-.44-.85,6.14,6.14,0,0,0-.68-.67v-.43C150.51,131.21,150.54,131.19,151.45,131.22Z"/><path d="M99.21,133.91a2.94,2.94,0,0,1-.27-1.68,2.69,2.69,0,0,1,.23-.78c.15-.34.49-.31.77-.26s.4.26.4.57a1.59,1.59,0,0,1-.4,1.12A11.41,11.41,0,0,0,99.21,133.91Z"/><path d="M118,173.61l1.4-1.45h1.09c0,.26-.33.32-.42.51,0,1.15.06,2.3.11,3.45,0,0,.07.1.11.14-.79.11-.79.11-1.2-.26.39-.7.13-1.45.24-2.34a2.56,2.56,0,0,0-.43.27c-.3.34-.58.7-.84,1l-1.31-1.75a4.61,4.61,0,0,0,.21,2.46,1.24,1.24,0,0,1-1.2-.16,3.08,3.08,0,0,0,.14-.54c0-.87,0-1.73,0-2.59,0-.38,0-.72-.6-.91,1-.08,1.37.13,1.72.72S117.68,173.11,118,173.61Z"/><path d="M131.83,173.7c0,.81-.32,1.55.08,2.26-.36.39-.36.39-1.15.34a15.19,15.19,0,0,0,.14-3.5c0-.18-.22-.37-.37-.61l.95-.05,1.51,1.51.92-1.38a2.5,2.5,0,0,1,.5-.68,2.61,2.61,0,0,1,.84-.24c-.05.43-.11.85-.13,1.27a10.73,10.73,0,0,0,0,1.5c0,.44-.18.92.22,1.39l-1.22.32c-.05-.9.43-1.67.09-2.53-.59.36-.66,1.16-1.35,1.5Z"/><path d="M129.22,176.57c-.32-.09-.64.09-1-.13-.13-.09-.5,0-.66.15-.46.41-.87.11-1.22-.1a1.37,1.37,0,0,1-.67-1.21c0-.69,0-1.39,0-2.09a3.1,3.1,0,0,0-.13-.58h1.06a3.07,3.07,0,0,0-.12.56c0,.49,0,1,0,1.49a1.71,1.71,0,0,0,.45,1.26h.89a1.4,1.4,0,0,0,.46-1c0-.59,0-1.19,0-1.79a4.74,4.74,0,0,0-.21-.77h1.15a5.83,5.83,0,0,0-.13,2.08A7.36,7.36,0,0,0,129.22,176.57Z"/><path d="M124.35,175.86l-.41.83a9.11,9.11,0,0,0-2.21-.15c.06-.48.15-.91.18-1.35a12.35,12.35,0,0,0,0-1.49c0-.44-.12-.86-.18-1.3h2.46l-.48.93-.95-.43v1.24H124l-.32.86-.85-.26V176c.47,0,1,.12,1.44-.25Z"/><path d="M114.89,123.12l-2.17.23c.1-.77.74-1.22,1-1.86a12.85,12.85,0,0,1,1.14-1.73Z"/><path d="M136,119.78l2.31,3.58-2.31-.24Z"/><path d="M118,123.38l-2.27-.25v-3.29Z"/><path d="M135.08,123.12l-2.12.26a17.78,17.78,0,0,1,2.12-3.4Z"/><path d="M114.9,123.72V125a6,6,0,0,1-3.17-.58c.29-.13.42-.18.54-.25s.15-.13.24-.14C113.28,123.89,114.05,123.81,114.9,123.72Z"/><path d="M135.94,125v-1.18a5.47,5.47,0,0,1,3,.5c-.38.54-1,.31-1.44.49A8.13,8.13,0,0,1,135.94,125Z"/><path d="M135.09,123.82V125c-.82-.08-1.62-.14-2.41-.25-.15,0-.29-.23-.47-.38.14-.15.22-.3.32-.32A7,7,0,0,1,135.09,123.82Z"/><path d="M118.74,124.45a6.88,6.88,0,0,1-3,.51v-1.11c.82-.28,1.6.13,2.4.15C118.28,124,118.42,124.2,118.74,124.45Z"/><path d="M134.91,118.71c0-.43-.13-.87.3-1.12a.85.85,0,0,1,.81.21,1.22,1.22,0,0,1,0,1C135.78,119.06,135.75,119.06,134.91,118.71Z"/><path d="M115.92,118.73c-.39,0-.69.53-1.07.08a1.18,1.18,0,0,1,0-1,.89.89,0,0,1,.81-.21C115.82,117.66,115.91,118,115.92,118.73Z"/><path d="M87.89,115.56l1-1-.37-.45.24-.26.6.4,1-1.06c.33-.16-.38-.54.29-.76l.38.49,1.28-1-.25-.65c.46-.23.5.29.78.32l1.36-.8-.13-.74c.5-.26.34.6.79.34.24-.13.49-.24.79-.39l0,.44-1.69,1.06.26.4-.3.32-.3-.5c-1.28.51-2.11,1.52-3.2,2.2l.32.72-.75-.26-1.07,1,.35.7-.87-.23-1,1-.35-.35.36-.32-.22-.84Z"/><path d="M160.16,112.35l.33.33-.39.41.78.78c.48.46.51.46,1.11-.08l.39.38a3.41,3.41,0,0,0-.33.17.72.72,0,0,0-.15.19c0,.08,0,.13,0,.15l.93.93.69-.3-.14.86.35.35-.52.26c-.44,0-.29-.92-1-1l-.38.35c-.37-.22-.36-.49-.06-.8l-1.16-.92-.56.23.28-.72a17.16,17.16,0,0,0-3.1-2.21l-.33.5-.34-.32.19-.37c-.39-.65-1.34-.48-1.66-1.2a.41.41,0,0,1,.61-.09c.33.21.58.22.69-.23,0,0,.17,0,.35-.06l-.13.82,1.32.83.65-.5a.94.94,0,0,1-.09.79l1.28,1Z"/></svg>