<svg id="Layer_1" data-name="Layer 1" xmlns="http://www.w3.org/2000/svg" viewBox="0 0 532 266"><title>SVG-</title><path d="M111.58,152.23c.35-.51.73-1,1-1.55q13.17-22.77,26.32-45.54a7.17,7.17,0,0,1,5.49-3.6,85.26,85.26,0,0,1,9-.48c6.17-.06,12.33-.08,18.49,0a20.3,20.3,0,0,1,5.35.88c3.7,1.08,4.77,3.72,2.89,7-4.34,7.66-8.77,15.27-13.13,22.92q-7.89,13.83-15.71,27.7a9,9,0,0,1-8.19,4.66c-10.54.15-21.08.06-31.62.05-2.09,0-3.08-1.17-4.08-3-2.32-4.21-5.16-8.13-7.6-12.28-6-10.29-12-20.64-17.93-31C76.43,108.5,71,98.89,65.44,89.36c-2.38-4.08-1-8.28,2.4-9.31a7,7,0,0,1,1.9-.38q14.81,0,29.62,0c3.72,0,5.82,2.47,7.49,5.34C113,95.5,119,106,125.08,116.53a3.36,3.36,0,0,1,.21,3.44C120.8,130,116.43,140,112,150.09c-.28.65-.52,1.31-.78,2Z"/><path d="M348.12,156.08h-9.33c0-.78-.11-1.56-.11-2.34,0-7.57,0-15.15,0-22.72a29,29,0,0,0-.62-5.73c-.71-3.34-2.66-5-5.71-5.34-3.33-.32-6.56,1-7.51,4a39.72,39.72,0,0,0-1.8,10.2c-.27,6.44-.07,12.91-.07,19.37V156h-9.26c0-.77-.12-1.55-.12-2.32,0-7.43.12-14.86-.07-22.28a22,22,0,0,0-1.5-7.77c-1.93-4.59-8.85-4.91-11.74-.78-2.45,3.52-2.39,7.58-2.47,11.57-.13,6.38,0,12.77,0,19.15v2.53H288.6V112.79h9.29c.06,1.15.13,2.28.19,3.5,9.45-6.93,15.95-6.45,22.91,2.1a7.64,7.64,0,0,1,.84-1.59,15.61,15.61,0,0,1,15.94-4.94,11.35,11.35,0,0,1,8.7,8.1A34.08,34.08,0,0,1,348,128.9c.25,8.6.17,17.22.22,25.83C348.24,155.09,348.18,155.46,348.12,156.08Z"/><path d="M366.28,151v29.14h-9.22V112.81h9.33v5.42a13.18,13.18,0,0,0,1.18-1c8.71-9.44,22.56-6.57,29.07,2.73,7.08,10.11,5,26.46-4.36,33.49-7.64,5.76-17.12,5.35-24.25-1C367.61,152,367.15,151.72,366.28,151Zm25.4-16.44a49.78,49.78,0,0,0-1.82-7c-4.16-9.93-15.6-8.92-19.84-4.11a17,17,0,0,0-2.47,18.92,11.36,11.36,0,0,0,8.09,6.39C384.42,150.53,391.39,144.25,391.68,134.59Z"/><path d="M449.65,134.79c0,12.88-10.29,23-23.38,22.89-12.75-.06-22.65-10.25-22.67-23.34a23,23,0,1,1,46,.45Zm-23-14.25a13.8,13.8,0,0,0-13.7,14c0,7.65,6.23,14.12,13.67,14.13a13.9,13.9,0,0,0,13.64-14.1A13.61,13.61,0,0,0,426.69,120.54Z"/><path d="M262.79,138.47c.6-1.1,1-1.77,1.35-2.48,3.52-7.18,7.06-14.36,10.51-21.58a2.58,2.58,0,0,1,2.83-1.79c2.73.14,5.48,0,8.6,0-.41.84-.7,1.47-1,2.09q-16.33,32-32.65,64a2.52,2.52,0,0,1-2.71,1.64c-2.8-.12-5.6,0-8.76,0l7.46-14.14c2.84-5.38,5.62-10.78,8.54-16.11a3.33,3.33,0,0,0-.08-3.67q-8.81-15.83-17.5-31.73c-.31-.56-.6-1.14-1.05-2,3.45,0,6.61-.09,9.76.07.64,0,1.45.86,1.81,1.52,3.9,7.25,7.72,14.54,11.56,21.81C261.81,136.75,262.2,137.41,262.79,138.47Z"/><path d="M221.49,147.2h20.36V156H212v-69h9.5Z"/></svg>