<?xml version="1.0" encoding="utf-8"?>
<!-- Generator: Adobe Illustrator 22.0.1, SVG Export Plug-In . SVG Version: 6.00 Build 0)  -->
<svg version="1.1" id="Vector_Logo" xmlns="http://www.w3.org/2000/svg" xmlns:xlink="http://www.w3.org/1999/xlink" x="0px"
	 y="0px" viewBox="0 0 754.6 155.2" style="enable-background:new 0 0 754.6 155.2;" xml:space="preserve">
<style type="text/css">
	.st0{fill-rule:evenodd;clip-rule:evenodd;}
</style>
<g>
	<polygon class="st0" points="79.2,77.2 82.7,75.2 126.2,105 79.2,77.2 	"/>
	<polygon class="st0" points="76.7,75.6 73.5,73.7 77.1,16.9 76.7,75.6 	"/>
	<polygon class="st0" points="72.8,75.4 58.4,87.3 75.7,77.1 72.8,75.4 	"/>
	<path class="st0" d="M77.6,0C34.7,0,0,34.7,0,77.6c0,42.9,34.7,77.6,77.6,77.6c42.9,0,77.6-34.8,77.6-77.6
		C155.2,34.7,120.5,0,77.6,0L77.6,0z M77.6,151.1c-17.7,0-34.3-5.9-46.7-16.8C18.9,123.8,9.5,107,7.2,89.1
		c5.5,33.9,34.9,59.9,70.4,59.9c39.4,0,71.3-31.9,71.3-71.3c0-16.3-6.1-32.3-15.3-44.3c9.4,7.2,17.5,27.8,17.5,44.3
		C151,118.2,118.2,151.1,77.6,151.1L77.6,151.1z M70.9,72.1l6.3-64.4c0.2,0,0.3,0,0.5,0c0.1,0,0.1,0,0.2,0l0.6,67.7L89.2,69
		L78.3,7.7c38.3,0.4,69.2,31.5,69.2,69.9c0,12.3-3.2,23.9-8.8,34L90.2,71l-4.6,2.6l52.8,38.6c-0.1,0.2-0.3,0.5-0.4,0.7L78.6,78.7v12
		l58.9,22.8c-12.2,20.4-34.5,34-60,34c-25.4,0-47.7-13.6-59.9-33.9l58.9-23v-12l-59.4,34.1c-0.1-0.2-0.3-0.5-0.4-0.7l52.6-38.5
		L64.8,71l-48.4,40.4c-5.5-10-8.7-21.5-8.7-33.7c0-38.1,30.4-69,68.3-69.9l-9.5,61.7L70.9,72.1L70.9,72.1z M77.6,4.2
		C37.1,4.2,4.2,37,4.2,77.6c0,16.5,6,32,15.1,45.5c3.1,5.8,6.4,9.4,10.9,14.1c-17.5-14-28.8-35.5-28.8-59.6
		c0-42.1,34.1-76.2,76.2-76.2c42.1,0,76.9,35.6,75.6,76.2C152.2,38,117.5,4.2,77.6,4.2L77.6,4.2z"/>
	<path class="st0" d="M418.5,82.8c0-13.6-6-24.6-19.2-24.6c-12.3,0-19.2,11-19.2,24.6c0,13.6,5.8,24.7,19.2,24.7
		c13,0,16.9-6.5,18.9-16.8l-4.5,0c-0.4,3.8-2.9,12.4-12.5,12.6c-10.9,0.2-11.7-13.8-11.5-20.5l0.2-3.8c0-4.2-0.4-16.7,9.8-16.7
		c8,0,9.2,10.3,9.2,16.7h-19l-0.2,3.8H418.5L418.5,82.8z"/>
	<path class="st0" d="M192,41.1l-0.2,3.1h2.9c2.1,0,4.8,0.2,4.8,2.9l-1,51.9c0,1.9-1,4-4.8,4h-2.9l-0.2,3.1H210V103h-3.3
		c-2.5,0-4.2-0.8-4.2-4l1-49.8l20.7,53.6h2.1l20.9-54.2l1,50.4c0,1.7-1.7,4-4.4,4h-4v3.1H264V103h-2.9c-2.1,0-4.6-1.2-4.6-3.8
		l-1-51.3c0-1.7,1.9-3.6,3.8-3.6h3.6v-3.1h-17.4l-18,47.1l-18-47.1H192L192,41.1z"/>
	<path class="st0" d="M326.7,106.1v-2.5h-1.9c-1.7,0-4.8-0.6-4.8-4V74.5c0-7.9,4-10.7,8-10.7c1.5,0,2.5,0.8,2.1,3.6
		c-0.4,2.9,2.1,4.8,4.2,4.6c2.1-0.2,4.8-0.6,4.4-5.9c-0.4-5.4-3.4-7.9-8.8-7.9c-4.2,0-7.7,2.7-8.6,4c-1.1,1.6-2.5,1-2.7-0.8
		c-0.2-1.7-1-3.4-2.9-2.9c-4.2,1.3-8,1.9-11.3,2.1v1.9c8-0.4,7.3,3.6,7.3,5.6v31.4c0,3.4-3.1,4-4.8,4h-2.7v2.5H326.7L326.7,106.1z"
		/>
	<path class="st0" d="M369.4,61.2c-2.8-2.1-6.4-3.2-10.7-3.2c-12.3,0-19.2,11-19.2,24.6c0,13.6,5.8,24.6,19.2,24.7
		c11.9,0.1,14.7-6.6,16.7-17l-4.5,0c-0.4,3.8-1.7,12.6-10.3,12.8c-10.9,0.2-11.7-13.8-11.5-20.5c0-4.2,0.6-21.1,9.8-21.1
		c7.9,0,12.6,5.6,12.6,11.9h2.5V57.3h-2.1L369.4,61.2L369.4,61.2z"/>
	<path class="st0" d="M646.5,103.2c-10.9,0.2-11.7-13.8-11.5-20.5h28.8c0-13.6-6-24.6-19.2-24.6c-12.3,0-19.2,11-19.2,24.6
		c0,13.6,5.8,24.7,19.2,24.7c13,0,16.9-6.5,18.9-16.8l-4.5,0C658.5,94.4,656,103.1,646.5,103.2L646.5,103.2z M644.9,62.3
		c8,0,9.2,10.3,9.2,16.7h-19C635.2,74.7,634.8,62.3,644.9,62.3L644.9,62.3z"/>
	<path class="st0" d="M489,103.2c-10.9,0.2-11.7-13.8-11.5-20.5h28.8c0-13.6-6-24.6-19.2-24.6c-12.3,0-19.2,11-19.2,24.6
		c0,13.6,5.8,24.7,19.2,24.7c13,0,16.9-6.5,18.9-16.8l-4.5,0C501.1,94.4,498.6,103.1,489,103.2L489,103.2z M487.5,62.3
		c8,0,9.2,10.3,9.2,16.7h-19C477.7,74.7,477.3,62.3,487.5,62.3L487.5,62.3z"/>
	<path class="st0" d="M285.7,103.2c-10.9,0.2-11.7-13.8-11.5-20.5H303c0-13.6-6-24.6-19.2-24.6c-12.3,0-19.2,11-19.2,24.6
		c0,13.6,5.8,24.7,19.2,24.7c13,0,16.9-6.5,18.9-16.8l-4.5,0C297.8,94.4,295.3,103.1,285.7,103.2L285.7,103.2z M284.2,62.3
		c8,0,9.2,10.3,9.2,16.7h-19C274.4,74.7,274,62.3,284.2,62.3L284.2,62.3z"/>
	<path class="st0" d="M460.3,96.1V42.7c0-2.2-1.1-4-3.1-3.4c-4.2,1.3-8,1.9-11.3,2.1v1.9c5.6-0.4,6.1,1.3,6.1,3.3V63
		c-2.5-2.3-5.4-4.6-10.5-4.6c-6.5,0-18.6,5.2-18.6,23.4c0,23.9,14,25.5,18.2,25.5c4.2,0,9.8-3.4,10.9-5.3c0.1-0.4,0.7-0.9,0.9,0
		c0.2,1.7,1.4,4.3,3.4,3.7c4.2-1.3,8-1.9,11.3-2.1v-1.9C459.5,102.1,460.3,98,460.3,96.1L460.3,96.1z M452,90.4
		c-0.2,10.5-5.7,13.8-10.3,13.8c-10.3-0.2-9.6-15.9-9.6-22.6c0-6.7,0.4-19.9,9.8-18.8c9.4,1.1,10.2,11.1,10.2,17V90.4L452,90.4z"/>
	<polygon class="st0" points="572.7,78.7 572.7,74.3 547.4,74.3 547.4,78.7 572.7,78.7 	"/>
	<path class="st0" d="M512.6,89.8v16.3h2.1l1.9-4.2c1.9,1.7,5.9,4.6,11.1,4.6c5.2,0,12.5-2.9,15.3-8.2c2.9-5.4,1.5-14.2-5-16.9
		c-5.7-2.3-10.7-5.2-14.6-7.1c-3.1-1.5-3.8-4.6-3.4-6.5c0.6-3.1,3.3-6.3,9.4-6.5c6.1-0.2,9.2,5,10,10.9h2.1V56.9h-1.9l-2.1,3.6
		c-4-2.7-5.7-3.1-9.4-3.1c-3.6,0-9.8,1.9-13.2,7.3c-3.4,5.4-2.5,13.8,5.7,17.2c8.2,3.4,12.1,5.6,14.4,6.7c2.3,1.2,3.6,5.7,2.1,8.4
		c-1.5,2.7-4.4,5.7-9,5.7c-4.6,0-11.9-3.3-13.6-13H512.6L512.6,89.8z"/>
	<path class="st0" d="M608.7,71c4.6-1.1,9.2-9.4,9.2-14.9c0-5.6-2.1-14.9-15.5-14.9h-28.7v2.5c2.9,0,7.9,0.6,7.9,5.4v47.3
		c0,2.7-0.2,7.1-7.9,7.1v2.7h23.6c7.1,0,23.4-0.6,23.8-19.3C621,80.4,617.9,72.9,608.7,71L608.7,71z M589.7,44.2h9.6
		c7.1,0,10,5.2,10,11.9c0,8.2-2.5,14.6-10,14.6h-9.6V44.2L589.7,44.2z M599.5,103h-9.8V73.7h10.9c6.3,0,11.9,4.4,11.9,14
		C612.5,97.3,606.8,103,599.5,103L599.5,103z"/>
	<path class="st0" d="M699.2,71.3v28.3c0,3.4-3.1,4-4.8,4h-1.1v2.5h20.9v-2.5h-1.9c-1.7,0-4.8-0.6-4.8-4V71.4
		c-0.2-12.8-11.7-13.2-15.7-13.2c-4.2,0-8.8,2.7-9.8,4c-1.1,1.6-2.5,1-2.7-0.8c-0.2-1.7-1-3.4-2.9-2.9c-4.2,1.3-8,1.9-11.3,2.1v1.9
		c8-0.4,7.3,3.6,7.3,5.6v31.4c0,3.4-3.1,4-4.8,4h-2.7v2.5h22.4v-2.5h-1.9c-1.7,0-4.8-0.6-4.8-4V74.5c0-4.2,1.5-10.9,9.4-11.5
		C697.8,62.4,699.2,67.6,699.2,71.3L699.2,71.3z"/>
	<path class="st0" d="M718.6,72.2l3.4-13h32.6l-28,44.2h14.9c3.4,0,6.1-1.3,9.8-10.2h1.5l-3.1,12.8h-33.3l27.8-44.2h-12.5
		c-3.1,0-6.5,0-11.3,10.3H718.6L718.6,72.2z"/>
</g>
</svg>
