<svg id="Layer_1" data-name="Layer 1" xmlns="http://www.w3.org/2000/svg" viewBox="0 0 532 266"><title>SVG-</title><path d="M128.36,149.88c0,3,0,5.91,0,8.86-.06,3.43-2.06,5.62-5.07,5.69s-5-1.89-5.11-5.48c-.08-4.48,0-9,0-13.45a20.09,20.09,0,0,0-.29-3.64,5.77,5.77,0,0,0-11.49.92c-.07,5.3,0,10.6,0,15.9,0,3.19-1.78,5.36-4.4,5.72-3.23.45-5.71-1.58-5.81-5.08-.15-4.78,0-9.58-.1-14.36a14.5,14.5,0,0,0-.61-4.51,5.75,5.75,0,0,0-11.06,2.29c-.08,5.09,0,10.19,0,15.28,0,4.12-2,6.44-5.29,6.41s-5.12-2.26-5.17-6.23c-.06-4.89,0-9.79,0-14.68,0-3.92-2.31-6.55-5.65-6.62s-5.87,2.64-5.88,6.68c0,4.89,0,9.79,0,14.68,0,3.87-2,6.16-5.23,6.17s-5.35-2.29-5.24-6.15c.23-7.92-.15-16,1.22-23.72,2.87-16.21,16.57-28,32.9-29.84,21.55-2.49,39.89,13.7,41.94,33,.43,4,.5,8.11.73,12.17Z"/><path d="M296.32,158c.2.31.31.42.29.48-.76,2.4,2.13,6-2,7.24-6.07,1.8-11.06.11-13.09-4.13a38.65,38.65,0,0,1-1.43-4.05c-2.07,1.64-4.07,3.48-6.32,4.94a26.89,26.89,0,0,1-20.46,4A17.56,17.56,0,0,1,239.39,152c-1.15-8.71,1.76-15.71,9.18-18.82,5.15-2.16,10.95-2.79,16.5-3.94,2.68-.55,5.44-.78,8.17-1.06s5.69-.91,6.36-4.19c.76-3.7.56-7.39-2.74-10-4.56-3.68-16.13-4.06-20.55-.21-1.92,1.66-2.7,4.58-4.15,6.83-.53.83-1.47,1.84-2.31,1.93a70.55,70.55,0,0,1-7.46.09c.21-7.41,2.25-13.43,9-16.72,10.2-5,20.52-4.64,30.66.08,5.72,2.65,7.84,7.68,7.83,13.76q0,13.14,0,26.29v5.2C289.91,157.76,289.91,157.76,296.32,158ZM279.5,135c-5.37.94-10.74,1.85-16.09,2.85a45.92,45.92,0,0,0-7.11,1.66,9.21,9.21,0,0,0-6.48,9.91,9.08,9.08,0,0,0,7.89,8.47,23.05,23.05,0,0,0,7.55-.08c8.08-1.4,13.28-6.14,14.17-13.09C279.85,141.31,279.5,137.86,279.5,135Z"/><path d="M416,137.71H372.19c.29,5.93,1.3,11.26,5,15.69,6.95,8.35,22.61,5.78,27.13-4.61,1.11-2.55,2.36-3.36,4.93-3.09a58.45,58.45,0,0,0,6.07,0c-.91,9.66-9.55,18.6-19.71,20.66-17.62,3.58-31.73-6.61-34-24.49-1-8.26-.4-16.31,3.31-23.88,6.83-13.93,22.48-19.33,36.58-12.79,9.59,4.44,13.51,12.53,14.44,22.46C416.28,130.9,416,134.15,416,137.71Zm-10.36-8.24c-.23-11.77-7.6-19-17.94-18-8.9.89-16.2,9.74-14.77,18Z"/><path d="M439,104.19v7.56l.83.53a12.29,12.29,0,0,1,1.24-2c6.58-7.14,14.82-8.9,24-7.08,7,1.38,11.27,5.86,12.8,12.76a42.67,42.67,0,0,1,1.07,8.78c.12,12.64.06,25.28.06,37.92,0,.59-.09,1.19-.15,2H468.4V128.31c0-1.12,0-2.24,0-3.36-.21-5-1-9.91-6.16-12A15.6,15.6,0,0,0,446.28,115c-5,3.72-6.71,9-6.72,15q0,15.58,0,31.19v3.49H429.45V104.19Z"/><path d="M306.54,164.69V104.15h9.71v24.92l1,.63c6.41-6.65,13.09-13.07,19.14-20,4-4.58,8.37-6.68,14.31-5.75a23.13,23.13,0,0,0,3.62,0l-21.77,23.38q11.51,17.88,24.14,37.55c-4.38,0-8.21.13-12-.09-.81-.05-1.76-1.21-2.3-2.07-5.44-8.73-10.81-17.5-16.2-26.26-.47-.77-1-1.52-2.05-3.17-2.5,2.81-4.88,5.32-7,8a5.31,5.31,0,0,0-.81,3.08c-.06,6.71,0,13.41,0,20.33Z"/><path d="M171.15,127.31c7.7,12,15.77,24.54,24.15,37.56-4.29,0-8.13.12-11.94-.09-.83-.05-1.8-1.16-2.33-2-5.34-8.55-10.6-17.15-15.89-25.73-.58-.95-1.2-1.88-2-3.11-2.64,2.57-5.24,5-7.63,7.54a4.53,4.53,0,0,0-.67,2.82c-.05,6.71,0,13.42,0,20.37h-9.63V104.17h9.53v25.36c1-.8,1.59-1.21,2.1-1.71,7.26-7.16,14.55-14.29,21.7-21.56a7,7,0,0,1,5.89-2.36c2.9.19,5.83,0,8.47,0Z"/><path d="M213.77,164.73h-10V104.18H213v9.89c5.39-7.08,10.6-13,20-11.09v10.39c-.63,0-1.3,0-2,0-10.16-.41-17.14,6.08-17.26,16.33-.12,10.5,0,21,0,31.5Z"/></svg>