<svg id="Layer_1" data-name="Layer 1" xmlns="http://www.w3.org/2000/svg" viewBox="0 0 532 266"><title>SVG-</title><path d="M260.18,141Q148.91,141,37.63,141c-1.45,0-3.74,1.28-4.08-2s1.31-3.32,3.78-3.32q153.89.08,307.75,0,69.36,0,138.71,0c2.38,0,4,.16,3.6,3.2-.19,1.59-.69,2.26-2.27,2.14-.91-.07-1.82,0-2.73,0Z"/><path d="M73.19,101.88c-3.94,7.82-7.84,15.65-11.85,23.43-.74,1.45-1,3.93-2.67,4s-1.89-2.51-2.59-3.94C52.46,118,49,110.52,44.76,103.19c-.33,5.6-.67,11.2-1,16.8-.05,1,.08,2.05,0,3.06-.29,2.83.57,4.66,3.72,4.86.65,0,1.82-.1,1.65,1.15-.13,1-1,.66-1.64.67-3.52,0-7,0-10.56,0-.64,0-1.52.21-1.6-.75s.83-1,1.44-1.11c2.92-.3,3.45-2.23,3.78-4.73.94-7,1.26-14,1.84-21,.22-2.66-.5-4.49-3.57-4.56-.75,0-1.81,0-1.68-1.14s1.21-.68,1.92-.8c.22,0,.46,0,.68,0,5.28-1,8.34.92,10.46,6.13,2.71,6.66,6.52,12.86,10.11,19.73,4.07-7.77,8-15,11.63-22.35,1.33-2.73,2.87-4.09,5.92-3.52.76.14,1.6-.09,2.37,0,1.24.21,3.33-.79,3.55.7.3,2.17-2,.9-3.11,1.36a3,3,0,0,0-2.11,3.11q.34,11.91.73,23.8c.08,2.52,1.84,3.11,3.91,3.38.6.07,1.53,0,1.4,1s-1,.72-1.61.72q-6.12,0-12.26,0c-.61,0-1.48.32-1.67-.64s.7-1.05,1.31-1.08c3.08-.16,3.55-2.09,3.51-4.67-.08-7.1,0-14.2,0-21.3Z"/><path d="M282.59,121.74c.08-7.64.27-14.3-.32-20.94-.21-2.41-1.94-3.11-4.06-3.26-.65,0-1.51,0-1.56-.89-.06-1.26,1-1,1.7-1q5.26,0,10.55,0c.61,0,1.45-.24,1.59.75s-.51,1.13-1.26,1.15c-3.05.07-3.72,2.13-3.75,4.61-.11,8.39-.17,16.78-.29,25.18,0,1,.56,2.27-.57,2.78s-2.06-.61-2.82-1.43q-11.06-12-22.08-24c-.28-.31-.36-.81-.93-1a117.8,117.8,0,0,0-.12,21.4c.15,2.28,2.14,2.65,4,3,.62.12,1.55,0,1.58.89s-.86.85-1.5.85c-3.74,0-7.49,0-11.23,0-.55,0-1.21.09-1.27-.73s.53-.89,1.11-.94c3.42-.31,4.1-2.62,4.11-5.51,0-6.69.18-13.38.16-20.07,0-3-1.85-4.47-4.67-4.9-.79-.11-1.75-.1-1.53-1.26.17-.91,1-.65,1.67-.71,4.31-.4,7.82.28,11,4C268.31,107.09,275.25,113.93,282.59,121.74Z"/><path d="M141.16,95.63a60.86,60.86,0,0,1,10.53.49c4.35.75,7.22,3,7.89,6.42.79,4-.75,7.43-4.81,9.58-2,1-2.38,1.78-.91,3.62,3.57,4.5,6.22,9.83,11.7,12.52.6.29.95.62.79,1.26s-.83.68-1.38.67c-3.74-.09-7.28-.79-9.73-3.94-2.23-2.86-4.34-5.82-6.43-8.77a5,5,0,0,0-2.85-2.24c-3.48-.88-4.12-.42-4.13,3.18,0,1.37.1,2.74,0,4.09-.25,3,.21,5.49,4,5.56.56,0,1.19.19,1.1,1s-.77.71-1.31.71H132.69c-.58,0-1.22,0-1.25-.77s.61-.91,1.17-.92c3.87-.07,4-2.59,4-5.6-.12-6.92-.09-13.85,0-20.78,0-2.36-.45-4-3.24-4.11-.74,0-1.77.06-1.6-1.16s1.22-.74,1.91-.76C136.16,95.59,138.66,95.62,141.16,95.63Zm3.27,17.59c1.11-.16,2.23-.27,3.33-.49,4.74-1,7.25-5,6-9.58-1.1-4.05-6.25-6.69-10.31-5.35a2.24,2.24,0,0,0-1.62,2.56c0,3.39.1,6.78,0,10.17C141.71,112.54,142.17,113.63,144.43,113.22Z"/><path d="M107.53,130.42c-9.66,0-17.25-5.56-18.87-13.88-2.09-10.64,5-19.8,16.55-21.46,14.54-2.07,25.57,10.2,21.07,23.45C123.76,125.94,116.7,130.42,107.53,130.42Zm-13-19a17.68,17.68,0,0,0,4.07,12.3,12.66,12.66,0,0,0,12.87,4.37c4.74-1,7.53-4.3,8.83-8.93a22.72,22.72,0,0,0,.46-9.1c-1-7.92-7.06-13.43-14.38-13C99.32,97.39,94.63,103.1,94.56,111.43Z"/><path d="M367.51,113.6c4.14,5.28,7,11.44,13.13,14.65.58.3.94.62.76,1.27s-.8.7-1.37.67c-3.47-.14-6.72-.8-9.24-3.53a80.7,80.7,0,0,1-6.48-8.72,5.67,5.67,0,0,0-3.28-2.73c-3.3-.8-4-.32-4,3,0,1.47.07,3,0,4.42-.18,2.88.15,5.3,3.85,5.39.52,0,1.24.05,1.21.84,0,1-.88.83-1.51.83q-6.29,0-12.58,0c-.63,0-1.52.18-1.49-.84s1-.83,1.55-.86c3.09-.16,3.92-1.93,3.87-4.76-.11-7.15-.06-14.29,0-21.44,0-2.47-.57-4.27-3.5-4.28-.67,0-1.5,0-1.52-.94,0-1.26,1-1,1.74-1,5.66.12,11.34-.37,17,.31s8.43,2.92,9.22,7-1.25,7.22-6.11,9.87C368.41,113,368.13,113.21,367.51,113.6ZM357,105.48a41.61,41.61,0,0,1,0,4.74c-.29,2.42.69,3.29,3,2.91,1.11-.18,2.25-.25,3.34-.5a7.52,7.52,0,0,0,4.85-11.41c-1.55-2.59-6.08-4.35-9.26-3.47-3.35.93-1.41,3.75-1.88,5.7A8.58,8.58,0,0,0,357,105.48Z"/><path d="M457.87,95.63h6.47c.57,0,1.18.07,1.22.83s-.47,1-1.09,1c-4-.08-4.19,2.55-4.09,5.52.07,2.15.06,4.31,0,6.46,0,1.51.29,2.33,1.85,1.22a80.55,80.55,0,0,0,12.35-11.13c.93-1,.88-1.8-.75-2-.82-.08-2.12.23-1.9-1.21s1.46-.71,2.23-.73c3.52-.07,7,0,10.56,0,.65,0,1.44-.13,1.41.92,0,.72-.48.94-1.11,1-5.91.28-9.32,4.72-13.35,8.08-1.77,1.48-4.76,2.79-4.69,4.82.06,1.73,2.66,3.44,4.24,5q4.89,5,9.91,9.82a9.18,9.18,0,0,0,4,2.42c.74.19,2.18.06,1.87,1.38s-1.54.47-2.35.63c-5,1-8.56-1.13-11.68-4.91-2.95-3.58-6.34-6.79-9.57-10.13-.68-.71-1.39-1.79-2.53-1.3s-.44,1.61-.48,2.43c-.08,2.26.07,4.54-.05,6.8-.16,2.95.41,5.21,4,5.42.59,0,1.52,0,1.31,1.05s-1.07.63-1.67.64c-4,0-7.94,0-11.91,0-.64,0-1.54.21-1.59-.77s.86-1,1.5-1c2.86-.23,3.41-2.14,3.4-4.52q0-10.72,0-21.44c0-2.52-.58-4.55-3.73-4.47-.67,0-1.47-.1-1.43-1s.9-.84,1.54-.85C453.79,95.61,455.83,95.63,457.87,95.63Z"/><path d="M396.66,129.75c-4.09,0-8.18,0-12.27,0-.66,0-1.77.51-1.8-.82,0-1,.94-.9,1.5-.91,3.7,0,4.36-2.16,4.28-5.38-.18-6.92-.09-13.86,0-20.78,0-2.45-.44-4.31-3.43-4.3-.65,0-1.49,0-1.48-1,0-1.28,1.08-.92,1.77-.92,7.61,0,15.22,0,22.83,0,.91,0,1.82-.15,1.84,1.29,0,1.81.24,3.62.35,5.43,0,.6-.1,1.12-.82,1.26s-1-.3-1.23-.86c-.74-1.73-1-3.85-3.22-4.47-3.33-1-6.76-.57-10.16-.46-1.24,0-1.18,1.16-1.18,2.07,0,3.06,0,6.13,0,9.19,0,.67-.12,1.39.57,1.85,2.15,1.43,9.7-.37,10.81-2.69.35-.72.63-1.15,1.42-1.1,1,.06.81.88.81,1.5,0,2.5,0,5,0,7.5,0,.57,0,1.17-.78,1.2-.58,0-1.19,0-1.3-.76-.62-4-3.73-3.26-6.35-3.28-5.2-.06-5.2,0-5.2,5,0,9.61,0,9.51,9.53,9.4,3.7,0,5.93-1.75,7.43-4.88.35-.73.42-1.93,1.79-1.52s.54,1.42.39,2.16c-1.26,6.28-1.27,6.28-7.57,6.28Z"/><path d="M198.5,113.92c2,0,4.09,0,6.13,0,.51,0,1.21-.22,1.39.56s-.36,1.08-.94,1.13c-2.79.26-2.67,2.25-2.59,4.24,0,.57,0,1.13,0,1.7,0,7.51,0,7.64-7.48,8.55-5.66.68-11.32.68-16.72-1.76-6.34-2.87-10.12-7.6-10.44-14.65s3-12.46,9.29-15.74c7.57-3.94,15.53-3.54,23.57-1.77.79.18,1.18.51,1.22,1.32s.2,1.58.21,2.37c0,1.69,1.55,4.15-.29,4.85s-1.51-2.21-2.33-3.41c-2.75-4-9.59-5.57-15.86-3.35-7,2.48-10.86,9.65-9.35,17.24,1.7,8.61,8.12,13.69,16.69,13.2a7.39,7.39,0,0,0,5.8-11.26c-1-1.63-2.82-1.15-4.3-1.56-.59-.17-1.54,0-1.42-1s1-.64,1.62-.65C194.63,113.9,196.57,113.92,198.5,113.92Z"/><path d="M430.1,129.74c-4,0-8,0-11.92,0-.71,0-1.81.4-2-.66-.21-1.22,1.05-1.06,1.68-1.07,3.61-.11,4.12-2.44,4.1-5.33,0-6.7,0-13.39,0-20.09,0-2.65-.23-5.13-3.85-5.06-.7,0-1.45-.2-1.28-1.15s1-.72,1.65-.72c7.6,0,15.2,0,22.81,0,1.44,0,2.12.4,2,1.88,0,.45.09.91,0,1.36-.18,1.57,1.37,3.94-.43,4.54-2,.66-1.6-2.17-2.38-3.36-1.1-1.68-2.68-2-4.35-2.22-8.86-1.24-9.19-1-9.19,7.73,0,5.57,0,5.61,5.48,5.53,2.54,0,5.46.5,6.12-3.22.13-.71.78-.74,1.35-.66.8.11.67.78.68,1.31,0,2.5,0,5,0,7.49,0,.54.11,1.2-.68,1.31-.56.07-1.22.06-1.33-.68-.56-3.72-3.37-3.35-6-3.34a22.28,22.28,0,0,1-3.06,0c-2.15-.3-2.76.57-2.61,2.65.19,2.59,0,5.22.08,7.82s1.31,4,4,3.94q2.9-.08,5.79,0c3.38.12,5.51-1.62,6.94-4.5.48-1,.8-2.45,2.3-1.78,1.21.55.16,1.59,0,2.36-1.27,6-1.29,6-7.48,6Z"/><path d="M328.78,130.5a23.75,23.75,0,0,1-12.73-3A16.48,16.48,0,0,1,314.2,100c7.78-5.89,16.59-5.85,25.65-3.84,1,.23,1.23.78,1.37,1.6a12.53,12.53,0,0,1,.41,2.67c-.11,1.35,1.58,3.21-.16,3.93-2.19.92-1.81-1.74-2.48-2.76-2.71-4.12-9.35-5.82-15.4-3.71-7.67,2.67-11.47,11.27-8.79,19.9A15,15,0,0,0,333,128c3.13-.88,5.27-3,7.08-5.54.6-.86.91-2.46,2.41-1.66,1.31.71.05,1.74-.11,2.63-.84,4.76-3.83,6.8-8.51,6.81C332.17,130.23,330.48,130.4,328.78,130.5Z"/><path d="M239.82,129.74c-1.93,0-3.86,0-5.8,0-.51,0-1.18.18-1.36-.61s.35-1.07.92-1.12c3.76-.33,2.5-2.47,1.7-4.52-2.4-6.12-2.38-6.14-8.68-6.12-2,0-5-.68-5.89.36-1.71,2.06-2.3,5.08-3.24,7.74-.63,1.78.73,2,2,2.39.74.23,2.2-.11,2,1.23-.22,1.18-1.52.61-2.32.63-2.84.08-5.68.06-8.52,0-.71,0-1.79.4-1.89-.79-.07-.85.82-1,1.47-1.1,2.67-.35,3.71-2.37,4.65-4.47q5.7-12.69,11.37-25.4c.54-1.19.8-2.93,2.5-2.82,1.53.09,1.42,1.85,1.86,2.9,3.44,8.25,6.8,16.53,10.17,24.81,1,2.48,2.1,4.84,5.24,5.15.57.05,1.25.24,1.22.92,0,1-.91.81-1.56.81C243.68,129.75,241.75,129.74,239.82,129.74Zm-13-27.62c-.92,2.12-1.69,3.86-2.42,5.61-3.31,8-3.31,8,5.55,7.25,1.36-.12,1.84-.34,1.26-1.76C229.77,109.67,228.39,106.09,226.83,102.12Z"/><path d="M392.68,164.53a26.79,26.79,0,0,1-7.54,0c3.88-1.85,3.18-5,3.31-7.68.13-2.46,2-5.61-2.3-7.3,3.87-.8,6.53-.66,8,3.29a19,19,0,0,0,3.75,6.57,43.86,43.86,0,0,0,3.27-6.09c1.35-3.83,3.86-4.87,7.52-3.89-3.12,2.63-2.78,12.91.51,14.64-2.18.87-3.71,1-7.88.43,3.75-2.89,1.18-6.84,2.12-10.19l-.83-.37c-1.44,2.77-2.84,5.57-4.35,8.3-.45.81-.56,2.23-1.83,2.1-1-.1-1.08-1.35-1.48-2.12a59.9,59.9,0,0,0-4.43-7.75C391,157.77,387.79,161.73,392.68,164.53Z"/><path d="M219.61,149.63c4-1.14,6.63-.45,8,3.51a47.32,47.32,0,0,0,3.26,6.22,16.6,16.6,0,0,0,3.74-6.27c1.43-3.65,3.81-4.63,7.36-3.62-2.93,2.46-2.54,13,.54,14.74a14.48,14.48,0,0,1-7.74.15c2.25-1.59,2.3-1.87,1.81-11.54-2,3.8-3.73,6.87-5.28,10-1,2-1.74,2.12-2.72,0a94.07,94.07,0,0,0-4.65-9c.44,3.43-2.92,7.44,1.72,10.45-2.11.89-4.32.32-7,.35C222.87,161.6,223.38,151.49,219.61,149.63Z"/><path d="M286.51,164.6H279.3c3.66-1.94,2.92-5,2.87-7.72s1.34-6.13-3-7.25c8.1-1.64,10.06,6.64,15.42,9.29,1.42-4.59.77-7.62-2.36-9.48h6.53c-1.94,1.05-2.17,2.69-2.11,4.58.08,2.6.09,5.22,0,7.82,0,1,.74,2.54-.63,3-1.21.4-1.87-1.05-2.65-1.8-3.17-3-6.3-6.07-10-9.62C284.46,157.37,281.73,161.58,286.51,164.6Z"/><path d="M442.12,164.54c4.44-2.59,4.23-12.61.32-14.87,3.78-1.53,6.15.46,8.44,3a68.91,68.91,0,0,0,7.12,6.71c-.81-3.26,2.46-7.47-3-9.84h8.06c-3.36,1-3.33,3.06-3.33,5.12,0,2.84,0,5.67,0,8.5,0,.64.24,1.47-.56,1.77s-1.25-.39-1.72-.86c-3.37-3.3-6.72-6.62-10.81-10.66.9,4.27-1.93,8.3,3.16,11.18Z"/><path d="M375.05,152.93c-1.72-2.48-4.16-3.54-6.47-2.21-1.34.78-1.23,4-.18,4.92,1.57,1.41,3.75.57,5.14-1.77.9,2,.65,3.57.28,5.83-1.68-2.28-3.9-3.17-5.47-1.6-.94.94-1,3.56.34,5s4.94.23,7.51-2.47c.84,3.27.31,4.14-2.66,4.18-3.82,0-7.64,0-12,0,3.77-2.87,3.82-13.11-.27-15.64,4.83,0,8.86-.23,12.85.09C376.26,149.46,375.36,151.42,375.05,152.93Z"/><path d="M419.18,149.22h11.18c3.15,0,1.42,2.27,1.76,3.7-2-2-4.36-3.83-6.91-2.19-1.22.78-1.15,4.07-.09,5,1.5,1.3,3.76.58,5.36-1.81a11.29,11.29,0,0,1,.11,5.66c-1.72-2.13-3.9-3.05-5.56-1.49-.94.88-.73,3.35.08,4.85.9,1.65,4.82.52,8.38-2.39,0,2.55,0,4.53-3.39,4.31-3.72-.23-7.46-.05-11.51-.29,4.07-1.47,2.72-4.72,2.56-7.26S422.94,151.29,419.18,149.22Z"/><path d="M95,158.35c-.11,2.44-1.09,5.07,2.38,6.19h-8c2.88-2.48,2.89-12.95-.4-15.24,3.58,0,6.71-.11,9.84,0,2.58.11,4.71,1.1,4.85,4.14s-1.71,4.2-4.25,4.88A10.22,10.22,0,0,1,95,158.35ZM94.75,154c.93.91-1.18,3.38,1.76,3.38,2.34,0,3.42-1.47,3.44-3.71a3.11,3.11,0,0,0-3.35-3.42C93.9,150.26,95.31,152.55,94.75,154Z"/><path d="M343.69,150c-4.1,1.36-5.68,3.33-5.57,7,.11,3.26,1.55,5.71,4.78,6.61,1.49.42,3.7,1.25,4.34-1,.57-2,.68-4.47-2.78-4.68,2.68-.8,5.24-.37,8.69-.51a3.55,3.55,0,0,0-2,4.15c.42,2.4-.82,3.17-2.91,3.35-2.83.25-5.64.48-8.41-.47-3.64-1.26-5.73-3.78-5.81-7.11-.08-3.49,1.63-6,5.35-7.42a30.36,30.36,0,0,1,4.26-1Z"/><path d="M270.12,164.6h-7.43c1.91-1.84,1.62-3.95-.18-4.77-1.45-.66-3.88-1.25-5.26.57-.92,1.21-1.92,3,1.75,3.95a21.57,21.57,0,0,1-8.2.08c4.08-1.27,4.45-4.32,5.69-6.71s2.3-4.91,3.49-7.34c.33-.69.68-1.58,1.64-1.45.76.1.88.92,1.15,1.54,1.47,3.43,3,6.84,4.46,10.25C267.87,162.16,268.38,163.71,270.12,164.6Zm-10-11.12c-.59,1.57-1.59,2.83-1.68,4.51a5.57,5.57,0,0,0,3.56-.07A11.11,11.11,0,0,0,260.11,153.48Z"/><path d="M68.19,164.44a21.2,21.2,0,0,1-7.82,0c3.85-1.27,4.25-4.14,5.43-6.44s2.3-4.9,3.46-7.34c.33-.71.58-1.59,1.51-1.67,1.27-.12,1.23,1.13,1.56,1.85q2.1,4.62,4,9.3c.73,1.74,1.23,3.62,3.4,4.43H72.23c2-1.74,1.36-3.79-.2-4.64s-3.91-1.2-5.32.4C65.67,161.48,64.68,163.38,68.19,164.44Zm1.45-11.12c-.87,1.94-1.46,3.27-2.15,4.79h4.2Z"/><path d="M483.91,164.12a19.22,19.22,0,0,1-8.87.2c3.32-.51,2.76-2.81,2.78-4.81s.12-4.08,0-6.11c-.08-1.06.85-2.84-1-3-1.46-.15-3.24-.14-4,1.78-.18.47-.27,1.15-1.05,1.09-.83-4-.68-4.14,3-4,3.39.09,6.86.44,10.15-.12,2.56-.44,2.85.36,2.72,2.35,0,.56-.06,1.12-.1,1.9-1.71-.73-1.9-3.14-4.16-3-1.45.07-2,.22-2,1.76.08,3.17.11,6.34,0,9.5C481.23,163.45,482.33,163.85,483.91,164.12Z"/><path d="M143.94,164.1a19.36,19.36,0,0,1-9.08.17c3.14-.43,2.87-2.49,2.82-4.47s.08-4.09,0-6.12c-.07-1.12.75-2.87-.79-3.24s-3.44-.23-4.24,1.82a9,9,0,0,1-.73,1.17c-1.49-3.7-1-4.37,2.51-4.23,3.16.12,6.43.5,9.49-.09,4.38-.85,3.7,1.51,3.41,4.06-1.13.07-1.1-.73-1.4-1.31-.81-1.59-2.47-1.72-3.83-1.52-1.61.24-.8,1.85-.85,2.83-.11,2.49,0,5,0,7.48C141.14,162.46,141,164.28,143.94,164.1Z"/><path d="M164.85,164.54c2.76-1.59,1.58-3.69.47-4.45a4.48,4.48,0,0,0-5.54.21c-1,1-2,2.93,1.64,4.23H154.2c4.52-3.4,5.21-8.86,7.83-13.22.56-.93.66-2.48,2-2.37,1.13.08,1.18,1.54,1.58,2.42,1.3,2.88,2.48,5.81,3.72,8.71.73,1.71,1.4,3.49,3.37,4.47Zm-2.3-11.27c-.56,1.92-2,3.21-1.46,4.51.46,1.05,2.13.33,3.34.29C164.3,156.38,163.5,155.06,162.55,153.27Z"/><path d="M313.74,164.57c-2.91.23-4.88.43-7-.3,2.4-.7,2.88-2.77,3.73-4.54q2.21-4.59,4.37-9.19c.35-.73.66-1.59,1.55-1.62s1.07,1,1.36,1.67c1.42,3.21,2.78,6.44,4.15,9.66.7,1.66,1.28,3.42,3.51,3.89-2.53,1.06-5,.5-7.92.62,2.25-1.94,1.64-4,0-4.89-1.44-.73-3.85-1.23-5.31.46C311.07,161.69,310.68,163.39,313.74,164.57Zm1.37-11.28-2.17,5.13c1.7-.46,2.91.16,4.13-.55-.28-.75-.52-1.49-.82-2.2S315.7,154.51,315.11,153.29Z"/><path d="M51.69,153.74c-4.22-4.11-7.88-4.69-10.69-1.94a7.42,7.42,0,0,0-.38,9.64c2.62,3.3,5.9,3,11.46-1.18,0,2.69-.77,4.47-3.6,4.7s-5.44.4-8-.63c-3.21-1.26-5.36-3.48-5.42-7.06s1.91-5.92,5.09-7.31a16.8,16.8,0,0,1,8-1.14C51,149,52.21,150.47,51.69,153.74Z"/><path d="M182.09,149.39h8.15c-2.08.89-2.15,2.52-2.05,4.36.11,2.15-.05,4.31.05,6.47.06,1.13-.7,2.73,1,3.19a4.64,4.64,0,0,0,4.78-.91c.63-.61.72-1.68,1.71-2,.8,3.5.28,4.25-3,4.27-3.48,0-7,0-10.94,0C185.79,162,185.79,151.76,182.09,149.39Z"/><path d="M113.06,149.42h8.25c-3.06,2.52-3,12.82.29,15.19h-8.37C116.58,162.2,116.52,151.63,113.06,149.42Z"/><path d="M343.69,150l-.06-1.1a33.18,33.18,0,0,1,4.35.1c3,.44,3.21.83,2.63,5C348.85,151.27,346.78,149.6,343.69,150Z"/></svg>