<svg id="Layer_1" data-name="Layer 1" xmlns="http://www.w3.org/2000/svg" viewBox="0 0 119 112.46"><title>N-Nagele</title><path d="M47.35,33.51A4.22,4.22,0,0,1,49.28,32a14.06,14.06,0,0,1,8.92-.49,6.31,6.31,0,0,1,4.33,4.29c.75,2.14,1.39,4.32,2.07,6.49.87,2.78,1.72,5.58,2.62,8.36a8.3,8.3,0,0,0,1.86,3.26,2.13,2.13,0,0,0,2.52.71,5.25,5.25,0,0,1-2,1.55,12.41,12.41,0,0,1-6.45,1,7.21,7.21,0,0,1-6.92-5.48Q54,44.73,51.76,37.84a8.74,8.74,0,0,0-2.13-3.72A2,2,0,0,0,47.35,33.51Z"/><path d="M83.19,30.53c-.5,1.15-.94,2.19-1.4,3.22-2.31,5.27-4.59,10.55-7,15.8a28.22,28.22,0,0,1-2.27,3.91,1.66,1.66,0,0,1-2.77.27,7.67,7.67,0,0,1-1.72-2.45c-.83-2.1-1.43-4.3-2.2-6.44A2.83,2.83,0,0,1,66,42.48c1.2-2.48,2.21-5.06,3.53-7.47a8.22,8.22,0,0,1,7.78-4.49c1.75,0,3.51,0,5.26,0Z"/><path d="M35.75,57.54l1.67-3.84c2.27-5.17,4.51-10.35,6.82-15.5a27.57,27.57,0,0,1,2.13-3.63,1.59,1.59,0,0,1,2.49-.37A6.3,6.3,0,0,1,51,37.31c.81,2.26,1.53,4.54,2.27,6.82a.94.94,0,0,1,0,.62c-1.15,2.59-2.28,5.19-3.5,7.74A9.32,9.32,0,0,1,46.6,56.2a7.82,7.82,0,0,1-4.33,1.37c-2.06.06-4.11,0-6.17,0A2.36,2.36,0,0,1,35.75,57.54Z"/><path d="M11.59,66.05c1.2,0,2.34,0,3.47,0a1.44,1.44,0,0,1,.92.58c.93,1.28,1.88,2.56,2.68,3.92,1.44,2.48,2.78,5,4.16,7.54a.88.88,0,0,0,.38.4v-.59c0-3.63,0-7.26,0-10.89,0-.56.09-.8.71-.8,1,0,2-.11,3-.18,0,.23,0,.42,0,.61,0,5.55,0,11.09,0,16.64,0,.52-.13.7-.66.66a14.29,14.29,0,0,0-2.17,0,2.74,2.74,0,0,1-2.34-1,18.69,18.69,0,0,1-2.86-4.13c-1.1-2-2.16-4-3.23-6a1.47,1.47,0,0,0-.42-.53c0,.19,0,.37,0,.56,0,3.49,0,7,0,10.46,0,.5-.13.65-.63.63-1,0-2,0-3.07,0Z"/><path d="M98.83,80.49h8.58c-.08,1.12-.15,2.18-.25,3.23,0,.09-.29.23-.45.23-.68,0-1.37,0-2.06,0-3,0-6,0-9,0-.49,0-.6-.14-.6-.61,0-5.56,0-11.12,0-16.69V66.1h12c-.08,1.12-.15,2.22-.23,3.39h-8v3.79h.65c2.09,0,4.19,0,6.28,0,.53,0,.65.16.59.65a21.81,21.81,0,0,0-.15,2.27c0,.47-.2.56-.62.56-2.06,0-4.12,0-6.18,0-.5,0-.64.15-.63.64C98.85,78.38,98.83,79.39,98.83,80.49Z"/><path d="M65,66.05h.53c3.62,0,7.23,0,10.84,0,.47,0,.63.12.58.61-.1.93-.14,1.87-.21,2.86h-8v3.77h.6c2.11,0,4.23,0,6.34,0,.51,0,.66.15.61.65-.09.77-.14,1.55-.16,2.32,0,.41-.18.51-.56.51H68.74v3.75H77.3c-.08,1.13-.14,2.19-.25,3.24,0,.09-.29.22-.45.22-1.36,0-2.71,0-4.06,0-2.35,0-4.7,0-7.05,0-.4,0-.52-.12-.52-.52q0-8.48,0-17C65,66.37,65,66.25,65,66.05Z"/><path d="M45.45,84c-1.25,0-2.4,0-3.55,0-.1,0-.25-.27-.28-.44-.23-1.11-.44-2.22-.63-3.34-.07-.4-.27-.52-.66-.51-2,0-3.94,0-5.91,0a.52.52,0,0,0-.62.49c-.19,1.1-.43,2.19-.61,3.3-.06.39-.19.55-.61.53-1,0-2.09,0-3.22,0,.11-.67.18-1.27.29-1.86a56.83,56.83,0,0,1,5-14.27c.23-.47.43-1,.7-1.4a.86.86,0,0,1,.57-.36c1,0,2.06,0,3.08,0a.64.64,0,0,1,.49.3A58.27,58.27,0,0,1,45,81.55C45.16,82.31,45.29,83.08,45.45,84Zm-5.57-7.81-2.38-6h-.23l-2.36,5.94Z"/><path d="M61.66,74.7v.67c0,1.67,0,3.33,0,5a1.87,1.87,0,0,1-.38,1c-3.33,4.06-11.32,4-13.67-2.56a9.83,9.83,0,0,1,1.56-10.19A7.48,7.48,0,0,1,56,66a7.63,7.63,0,0,1,5.17,2.53l.25.29.16.24L58.7,71.44c-.17-.22-.31-.43-.48-.61-1.71-1.77-5.56-1.85-6.7,1.3a7.92,7.92,0,0,0-.4,4,7.62,7.62,0,0,0,.74,2.4,3.92,3.92,0,0,0,5.34,1.38,1.53,1.53,0,0,0,1-1.65c-.09-.93,0-1.87,0-2.81,0-.38.08-.56.5-.57C59.62,74.84,60.59,74.76,61.66,74.7Z"/><path d="M80.37,66.29c1.14-.07,2.22-.13,3.29-.22.48,0,.43.25.43.54V80.49h8.58c-.09,1.13-.15,2.19-.26,3.24,0,.09-.29.22-.45.22-1.35,0-2.71,0-4.06,0h-7c-.39,0-.54-.1-.54-.51,0-5.56,0-11.12,0-16.68C80.33,66.64,80.36,66.5,80.37,66.29Z"/><path d="M41.43,63.52a1.67,1.67,0,0,1-1.65,1.71,1.73,1.73,0,0,1-1.68-1.71,1.71,1.71,0,0,1,1.7-1.73A1.66,1.66,0,0,1,41.43,63.52Z"/><path d="M36.58,63.53A1.66,1.66,0,0,1,35,65.23a1.73,1.73,0,0,1,0-3.45A1.66,1.66,0,0,1,36.58,63.53Z"/></svg>