<svg id="Layer_1" data-name="Layer 1" xmlns="http://www.w3.org/2000/svg" viewBox="0 0 532 266"><title>SVG-</title><path d="M237.51,151V108.85H246v55.34a99,99,0,0,1-10.79-.14c-1.12-.13-2.3-1.82-3-3.05-6.65-11.44-13.2-22.95-19.79-34.43a24.16,24.16,0,0,0-3.72-5.18c-1.08,14.12-.42,28.18-.93,42.54h-7.52V108.57a85.91,85.91,0,0,1,10.29.15c1.13.13,2.31,1.8,3,3,7,11.91,13.85,23.87,20.76,35.81.73,1.27,1.52,2.5,2.29,3.74Z"/><path d="M370.5,121.87V105.51H379c.1,1.2.29,2.4.29,3.6q0,25.47,0,51c0,4.45,0,4.66-4.7,4.81-6.2.21-12.57.88-18.61-.16-9.62-1.65-15.28-9.2-15.45-19a36.93,36.93,0,0,1,.85-9.09c2.07-8.79,9.36-14.51,18.42-14.74C363.13,121.8,366.45,121.87,370.5,121.87Zm0,36.66c0-9.38.06-18.26-.1-27.13a3.3,3.3,0,0,0-2.21-2.35c-3.28-.18-6.72-.46-9.87.3-6.26,1.49-8,6.69-8.81,12.35-1.29,9.5,4.6,16.89,14.07,17.45C365.62,159.28,367.69,158.8,370.5,158.53Z"/><path d="M463.17,183.07V166c-4.95-.36-9.26-.37-13.46-1.06-9.14-1.5-15-7.55-16.13-16.7a33.82,33.82,0,0,1,.22-10.39c1.64-8.5,6.76-13.85,15.51-15.31,7.47-1.24,14.92-.91,22.87.26v51.12c0,5.73,0,5.74-5.17,7.89C466,182.2,465,182.48,463.17,183.07ZM463,129.18a26.5,26.5,0,0,0-4.93-.77c-4.93.17-10,.61-13,5.2-3.91,5.95-3.87,12.42-.85,18.69,2.77,5.72,8.1,6.67,13.83,6.39.42,0,.84,0,1.25,0,3.58-.21,4.08-.63,4.11-4.23.06-7.38,0-14.75,0-22.13A27.73,27.73,0,0,0,463,129.18Z"/><path d="M415.25,138.36c1.26-6.85-.32-9.56-6.43-9.92-4.8-.29-9.67.53-14.51.86-1.05.08-2.11.2-3.55.33-.09-1.71-.46-3.13-.15-4.38.24-1,1.23-2.29,2.07-2.44,7.7-1.41,15.49-1.82,23.18-.18,5.63,1.19,8.56,4.92,8.68,10.7.17,9.32,0,18.65.11,28,0,2.58-1.25,3.5-3.55,3.51-7.23,0-14.48.33-21.7,0s-11.36-4.79-11.95-12c-.55-6.91,2.77-11.88,9.83-13.35,4.43-.93,9.1-.77,13.66-1C412.42,138.28,413.9,138.36,415.25,138.36Zm1.32,13.33c0-1.11,0-2.23,0-3.34-.11-3.62-.36-4.09-4.12-4.1a64,64,0,0,0-11.15.85c-3.35.59-5.06,3-5.23,6.13-.18,3.48,1.23,6.05,4.6,7a29.72,29.72,0,0,0,8.17,1.18C418,159.5,416.45,158.89,416.57,151.69Z"/><path d="M257.72,129.77c0-1.82-.27-3.24.08-4.49.28-1,1.3-2.42,2-2.45,7.46-.31,15-1,22.39-.3,6.61.65,9.34,4.57,9.45,11.17.17,9.05,0,18.1.1,27.15,0,2.56-.89,4-3.57,4-7.24,0-14.48.31-21.7,0-6.88-.32-11-4.56-11.47-10.94-.66-8.39,1.88-12.82,9.24-14.39,4.56-1,9.37-.75,14.07-1.13,1.75-.14,4.15,1.11,4.78-1.84.69-3.19-1-6.9-3.94-7.36a67.43,67.43,0,0,0-12-.57A90.17,90.17,0,0,0,257.72,129.77Zm25.91,22.38c0-1.39-.11-2.79,0-4.17.26-2.69-.91-3.92-3.56-3.77-3.59.19-7.21.18-10.75.71-4,.6-6.16,3.21-6.21,6.69s1.92,6.1,5.86,7a31.23,31.23,0,0,0,7.41.81C285.1,159.42,283.5,159,283.63,152.15Z"/><path d="M301.46,156.93a66.77,66.77,0,0,0,8.47,1.25,63.91,63.91,0,0,0,11.15-.64c2.18-.34,4.23-1.7,4.35-4.41s-1.64-4.08-3.8-4.91a58.94,58.94,0,0,0-6-1.68c-2.14-.57-4.34-1-6.43-1.72-6-2.11-8.41-5.53-8.2-11.52.2-5.48,3-9.07,8.91-10.58,7-1.78,14.06-1.2,21.42.16v6.67a70,70,0,0,0-8-1,57.54,57.54,0,0,0-9.91.69,4.24,4.24,0,0,0-3.77,3.95c-.13,2.31,1.42,3.6,3.37,4.25,2.37.8,4.82,1.32,7.23,2a60,60,0,0,1,7.18,2.15c3.76,1.6,6.51,4.16,6.89,8.63.41,5-.8,9.26-5.26,11.87a19.44,19.44,0,0,1-7.37,2.67,55,55,0,0,1-20.22-1Z"/><path d="M105.79,135.73c-1.58,4.16-2.85,7.34-4,10.55C96.93,159.63,92,173,87.34,186.39c-1,2.84-2.47,4-5.45,3.9-8.5-.13-17,0-25.51-.06-4,0-4.58-.75-3.24-4.46q8.67-24,17.44-47.91c3.87-10.6,7.77-21.19,11.61-31.8,2-5.4,3.07-6.23,8.85-6.24l29.69,0c5.19,0,6.59.93,8.39,5.78,1.65,4.44,3.18,8.93,4.79,13.38.46,1.27,1,2.49,2,4.76,1.35-3.19,2.38-5.38,3.21-7.66q7.49-20.61,14.9-41.26c1.79-5,1.83-5.07,7.15-5.08q12.13,0,24.26,0c1.35,0,2.7.12,4.66.22-2.41,6.75-4.61,13-6.88,19.26q-8.88,24.35-17.8,48.67c-2.06,5.62-4.18,11.23-6.17,16.87-1.33,3.76-3.73,5.53-7.85,5.47-9.89-.16-19.79-.12-29.68,0-4.49,0-7.37-1.8-8.83-6.11-1.56-4.62-3.35-9.16-5.06-13.72C107.3,139.1,106.72,137.9,105.79,135.73Z"/></svg>