<svg id="Layer_1" data-name="Layer 1" xmlns="http://www.w3.org/2000/svg" viewBox="0 0 532 266"><title>SVG-</title><path d="M124.38,138.17c0,9.18,0,18.35,0,27.53a2,2,0,0,1-1.12,2q-23.37,13.77-46.69,27.62a1.89,1.89,0,0,1-2.26,0Q51,181.48,27.65,167.72a2,2,0,0,1-1.14-2q0-27.67,0-55.35a2,2,0,0,1,1.18-2Q51.06,94.63,74.38,80.78a1.77,1.77,0,0,1,2.13,0q23.38,13.89,46.82,27.7a1.88,1.88,0,0,1,1.07,1.88C124.36,119.62,124.38,128.9,124.38,138.17ZM98.27,171.84l.3-.14q0-35.65,0-71.31c0-1-.5-1.29-1.17-1.68q-10.35-6.1-20.68-12.26a2.13,2.13,0,0,0-2.55,0q-10.11,6.07-20.31,12c-1.21.7-1.44,1.14-.63,2.42q21.61,34,43.13,68ZM52.2,107l-.27.1c0,.25,0,.5,0,.74q0,33.74,0,67.46a2,2,0,0,0,1.24,1.95q10.62,6.24,21.21,12.56a1.89,1.89,0,0,0,2.28,0q9.48-5.69,19-11.26c1.09-.63,1.33-1,.57-2.2q-19.7-31-39.3-62Q54.56,110.64,52.2,107Zm50.43,31q0,17.43,0,34.85c0,1.08,0,1.64,1.29.84,4.9-3,9.84-5.87,14.79-8.75a1.78,1.78,0,0,0,1-1.8q0-25,0-50a1.89,1.89,0,0,0-1.1-1.88c-4.82-2.81-9.61-5.67-14.41-8.5-.42-.25-.88-.8-1.3-.57s-.22,1-.22,1.51Q102.62,120.79,102.63,137.91ZM47.68,102.36a1.84,1.84,0,0,0-.46.09c-5.07,3-10.12,6-15.2,8.94-.76.44-.77,1-.77,1.76q0,24.9,0,49.8a2,2,0,0,0,1.15,2c4.7,2.72,9.36,5.51,14,8.26.37.22.69.58,1.27.48Z"/><path d="M431.08,151.09c0-12,0-24-.11-36,0-2.09.18-3.17,2.78-3.15s2.51,1.2,2.51,3c0,15.81,0,31.62-.05,47.43,0,.76.36,1.64-.78,2.74-11.5-13.56-22.95-27.07-34.75-41v7.9c0,10-.08,20,.06,29.95,0,2.34-1.05,2.35-2.78,2.37s-2.52-.23-2.51-2.27c.09-16.52.05-33,.07-49.57a9.08,9.08,0,0,1,.42-1.58l34.53,40.6c.1.28.17.73.58.45C431.2,151.92,431.08,151.42,431.08,151.09Z"/><path d="M450.75,138c0-7.72.08-15.45-.06-23.17,0-2.2.55-2.9,2.77-2.78,6.85.34,13.77-.62,20.53,1.44,12,3.66,18.55,13.2,18,26.58-.52,12-8.3,21.05-20.1,23.51-6.36,1.33-12.8.58-19.2.84-2.05.08-1.93-1.15-1.92-2.52C450.76,153.89,450.75,145.93,450.75,138Zm5.6,0q0,9.43,0,18.87c0,1.31-.26,2.61,1.85,2.54,4.26-.15,8.54.15,12.75-.85,9.26-2.19,14.75-9.17,15.19-19.36.44-10.35-4.57-17.88-13.7-20.83-4.74-1.54-9.61-1.15-14.45-1.27-1.94,0-1.63,1.24-1.63,2.39Q456.35,128.71,456.35,138Z"/><path d="M184.92,152.32c0-12.69,0-24.9,0-37.11,0-1.9-.17-3.25,2.64-3.28,3,0,2.5,1.66,2.5,3.38v49.41l-.79.37-34.7-40.92c0,12.41,0,24.49,0,36.57,0,1.73.79,3.72-2.52,3.74-3.09,0-2.7-1.63-2.7-3.54,0-16.39,0-32.78.76-49.69C161.58,124.8,173.08,138.36,184.92,152.32Z"/><path d="M204.69,138.08c0-7.73.11-15.46-.06-23.19,0-2.45.77-2.92,3-2.89,8.8.12,17.6.1,26.39,0,1.91,0,2.72.34,2.68,2.48s-.69,2.59-2.68,2.56c-7-.11-14,0-21-.09-2.14,0-2.88.52-2.83,2.77.15,6.41.14,12.84,0,19.25,0,2.11.7,2.56,2.64,2.53,6.18-.11,12.37,0,18.55-.08,1.79,0,2.52.38,2.48,2.33s-.28,2.75-2.48,2.7c-6.18-.16-12.37,0-18.55-.09-1.94,0-2.78.41-2.63,2.53a52.61,52.61,0,0,1,0,7.84c-.19,2.35.82,2.72,2.87,2.69,7.37-.1,14.74,0,22.11-.08,1.89,0,2.76.33,2.74,2.5s-.68,2.56-2.64,2.54c-9.27-.09-18.55-.11-27.82,0-2.22,0-2.81-.61-2.78-2.8C204.77,153.77,204.69,145.92,204.69,138.08Z"/><path d="M286.49,131.78c0,5.59.2,11.18-.05,16.75-.44,9.85-7.79,16.33-18.31,16.46-10.68.14-18.43-5.9-18.88-15.73-.54-11.74-.22-23.52-.37-35.28,0-2.78,1.87-1.72,3.18-1.93,1.79-.29,2.45.33,2.43,2.29-.1,9.62-.05,19.25,0,28.88,0,1.42,0,2.85.14,4.27,1,10.17,9.37,15.32,18.92,11.58a10.89,10.89,0,0,0,7.25-10.49q.38-16.56.22-33.14c0-2.88.82-3.63,3.55-3.47,1.83.1,2.1.77,2.08,2.34-.07,5.83,0,11.65,0,17.47Z"/><path d="M381.3,131.46c0,5.22.1,10.46,0,15.68C381,158.06,373.62,165,362.41,165s-18.65-6.93-18.82-17.88,0-21.63-.11-32.44c0-2.31.73-2.69,2.81-2.72,2.28,0,3,.56,2.95,3q-.19,15.67,0,31.36c.12,10.64,7.9,16.18,18.11,13,5.21-1.61,8.2-5.85,8.28-12.33q.18-15.86,0-31.73c0-2.25.2-3.31,2.95-3.33,3,0,2.8,1.47,2.77,3.49-.07,5.34,0,10.69,0,16Z"/><path d="M300.75,138c0-7.73.07-15.46-.05-23.19,0-2.1.38-2.88,2.69-2.84,8.8.14,17.6.11,26.4,0,1.92,0,2.71.36,2.69,2.5s-.81,2.56-2.74,2.53c-6.78-.1-13.56.09-20.33-.1-2.58-.08-3.15.75-3.08,3.18.18,6.06.24,12.14,0,18.19-.12,2.83.86,3.3,3.39,3.22,5.94-.18,11.89,0,17.83-.11,2.14,0,2.49.73,2.53,2.65,0,2.08-.66,2.56-2.62,2.52-6.19-.11-12.37,0-18.55-.09-2.06,0-2.61.62-2.54,2.6.13,4.39-.11,8.8.1,13.19.11,2.39-1.26,2.11-2.69,2.06s-3.1.58-3.06-2.08C300.83,154.19,300.75,146.1,300.75,138Z"/></svg>