<svg id="Layer_1" data-name="Layer 1" xmlns="http://www.w3.org/2000/svg" viewBox="0 0 125.4 73.11"><defs><style>.cls-1{fill:#0057ff;}</style></defs><polygon class="cls-1" points="45.77 50.82 48.62 50.82 47.21 47.43 45.77 50.82"/><polygon class="cls-1" points="74.41 50.82 77.25 50.82 75.84 47.43 74.41 50.82"/><path class="cls-1" d="M30.8,12.05v49H94.6v-49ZM49.5,53l-.67-1.65H45.54L44.83,53h-.6l2.7-6.19h.59L50.13,53ZM43.38,27.87V38.75H39V20.23H43.4l6.81,11.38V20.23h4.42V38.77H50.36ZM56.22,53H52.75V46.79h.57v5.66H56.2V53Zm6.27-3.82a1.43,1.43,0,0,1-.41.51,1.71,1.71,0,0,1-.59.29,2.57,2.57,0,0,1-.7.1H59.46V53h-.57V46.8h1.78a2.82,2.82,0,0,1,.69.08,2.26,2.26,0,0,1,.64.26,1.41,1.41,0,0,1,.49.51,1.58,1.58,0,0,1,.2.8A2.46,2.46,0,0,1,62.49,49.16ZM70.24,53h-.57V50H66.2V53h-.57V46.79h.57v2.72h3.47V46.79h.57Zm-1-20,3.56,5.78H67.73L64.55,33.1v0l-3.62,5.67H56l5.6-9.35L56,20.25h5.27l3.06,5.58,3.23-5.6h5.27L64.63,33Zm8.88,20-.67-1.65H74.2L73.49,53h-.61l2.71-6.19h.59L78.78,53ZM86.45,24.3H82.53V38.77H77.94V24.3H74V20.23H86.45Z"/><path class="cls-1" d="M61.65,47.57a1.06,1.06,0,0,0-.43-.2,2.05,2.05,0,0,0-.49-.06H59.46v2.2h1.31a2.18,2.18,0,0,0,.49-.06,1.28,1.28,0,0,0,.41-.18.88.88,0,0,0,.3-.33,1.13,1.13,0,0,0,.11-.51,1.16,1.16,0,0,0-.11-.51A1.34,1.34,0,0,0,61.65,47.57Z"/></svg>