<svg id="Layer_1" data-name="Layer 1" xmlns="http://www.w3.org/2000/svg" viewBox="0 0 532 266"><title>SVG-</title><polygon points="208.63 183.79 219.75 183.79 214.23 170.53 208.63 183.79"/><polygon points="320.67 183.79 331.78 183.79 326.26 170.53 320.67 183.79"/><path d="M150.17,32.21V223.79H399.6V32.21Zm73.1,160-2.6-6.44H207.79L205,192.22h-2.37L213.23,168h2.3l10.19,24.22ZM199.36,94.05v42.53H182.12V64.17h17.32L226,108.69V64.17h17.32v72.49H226.64Zm50.2,98.17H236V168h2.22v22.15h11.27v2.07Zm24.52-14.95a5.76,5.76,0,0,1-1.61,2,6.47,6.47,0,0,1-2.3,1.15,10.39,10.39,0,0,1-2.76.39H262.2v11.49H260V168.08h7a11.07,11.07,0,0,1,2.68.3,9.09,9.09,0,0,1,2.53,1,6,6,0,0,1,1.92,2,6.33,6.33,0,0,1,.76,3.14A9.6,9.6,0,0,1,274.08,177.27Zm30.27,14.95h-2.23v-11.5H288.56v11.5h-2.22V168h2.22v10.65h13.56V168h2.23Zm-3.84-78.17,13.95,22.61H294.54l-12.42-22.15v.08L268,136.73H248.64l21.91-36.55L248.64,64.24h20.61L281.2,86.08l12.65-21.91h20.61l-32,49.88Zm34.72,78.17-2.61-6.44H319.83l-2.76,6.44h-2.38L325.27,168h2.3l10.19,24.22ZM367.72,80.1H352.39v56.56H334.46V80.1H319.14V64.17h48.58Z"/><path d="M270.86,171.07a4.09,4.09,0,0,0-1.69-.77,8.31,8.31,0,0,0-1.91-.23h-5v8.58h5.13a9,9,0,0,0,1.92-.23,5,5,0,0,0,1.61-.69,3.63,3.63,0,0,0,1.14-1.3,4.56,4.56,0,0,0,0-4A5.16,5.16,0,0,0,270.86,171.07Z"/></svg>