<svg id="Layer_1" data-name="Layer 1" xmlns="http://www.w3.org/2000/svg" viewBox="0 0 532 266"><title>SVG-</title><path d="M95.84,161.56v-1.21q0-36.66,0-73.34,0-7.89,0-15.77c0-1.39.8-2,2.36-1.68L96,71.89l.23.27a4.46,4.46,0,0,0,.85-.63,8.51,8.51,0,0,0,1.11-1.44,1.47,1.47,0,0,1,1.47-.69l52.64,0h1.23v1q0,38.46-.07,76.92c0,.71-.15,1-.94,1.2q-26,6-52,12Z"/><path d="M232.52,166V114.35H245.6v71.93h-.95c-5.76,0-11.52,0-17.28,0a1.17,1.17,0,0,1-1.26-.85q-12-27.48-24-54.94a1.78,1.78,0,0,0-.56-.79v56.51H188.26V114.32c.31,0,.61,0,.9,0,6.65,0,13.29,0,19.94,0a1.13,1.13,0,0,1,1.22.81q10.8,25.1,21.65,50.18c.12.26.25.51.37.77Z"/><path d="M420.53,176.18v10H376v-71.9c.27,0,.56,0,.85,0q20.76,0,41.54,0c.79,0,1,.25,1,1,0,2.72,0,5.43,0,8.14,0,.82-.26,1-1.05,1q-13.29,0-26.58,0c-1.18,0-1.18,0-1.18,1.16V144h26.33v10.12h-1c-8.09,0-16.17,0-24.26,0-.86,0-1.06.25-1,1.08q0,10,0,20c0,.8.22,1,1,1q13.92,0,27.83,0Z"/><path d="M318.31,173c1.52.48,3,1,4.46,1.42a45.51,45.51,0,0,0,15.2,2.14,19.8,19.8,0,0,0,6.49-1.23,7.6,7.6,0,0,0,5.06-6.15c.59-3.34-.18-6.25-3.1-8.15-2.69-1.74-5.53-3.24-8.34-4.77-3.93-2.14-8-4.08-11.82-6.36-4.09-2.43-7.26-5.78-8.45-10.55-2.54-10.19,1.47-19.32,11.8-23.56a36.37,36.37,0,0,1,16.13-2.29,48.25,48.25,0,0,1,13.74,2.88,1,1,0,0,1,.81,1.2c0,2.9,0,5.81,0,8.72v.88c-1.85-.61-3.61-1.23-5.4-1.76a36.06,36.06,0,0,0-11.52-1.69,19.41,19.41,0,0,0-6.74,1.22c-2.53,1-4.31,2.72-4.72,5.52-.45,3.06.34,5.75,3.06,7.45a77.21,77.21,0,0,0,7.48,4.08c4.49,2.15,9.07,4.1,13.16,7,3.53,2.49,6.55,5.45,7.83,9.7,3.1,10.26-.22,21.55-12.27,26.31a33.3,33.3,0,0,1-11.68,2.17,60,60,0,0,1-20.53-3.3c-.42-.14-.73-.25-.73-.81,0-3.24,0-6.48,0-9.72A2.79,2.79,0,0,1,318.31,173Z"/><path d="M284.67,146.05c.23-.42.4-.72.55-1q7.29-14.9,14.57-29.8a1.42,1.42,0,0,1,1.49-1c4.15,0,8.3,0,12.46,0h.95c-.17.34-.27.59-.39.82q-11.44,21.35-22.92,42.68a4.65,4.65,0,0,0-.57,2.28q0,12.58,0,25.16v1H275.61c0-.33-.05-.67-.05-1,0-8.47,0-16.94,0-25.41a4,4,0,0,0-.43-1.73q-11.3-21.29-22.64-42.54c-.2-.36-.38-.73-.63-1.21.36,0,.62,0,.88,0,5.06,0,10.13,0,15.2,0a1.12,1.12,0,0,1,1.19.74q7.51,15.08,15.07,30.12C284.31,145.39,284.46,145.65,284.67,146.05Z"/></svg>