<svg id="Layer_1" data-name="Layer 1" xmlns="http://www.w3.org/2000/svg" viewBox="0 0 532 266"><title>SVG-</title><path d="M378.85,144.55c-7.74,0-15.47,0-23.21,0-.88,0-1.12-.22-1.11-1.11q0-45.22,0-90.44c0-1.41.17-1.26-1.29-1.26H187.57c-1.36,0-1.36,0-1.36,1.33V218.3c0,1.37,0,1.37,1.41,1.37,5.34,0,10.68,0,16,0,.77,0,1,.2,1,1,0,7.92,0,15.84,0,23.76H161.5c0-.3,0-.61,0-.91v-215c0-1.39,0-1.39,1.39-1.39h215c.31,0,.61,0,.92,0Z"/><path d="M378.85,27c-.31,0-.61,0-.92,0h-215c-1.39,0-1.39,0-1.39,1.39v215c0,.3,0,.61,0,.91-.06,0-.19.1-.19-.09s0-.49,0-.73q0-107.92,0-215.84c0-.74.15-.89.9-.89q107.91,0,215.83,0C378.29,26.86,378.64,26.65,378.85,27Z"/><path d="M355.12,212.66c-7.12,0-14.24,0-21.36,0-.71,0-.91.14-.85.9a22.25,22.25,0,0,0,4,12,18,18,0,0,0,12.64,7.25,40.61,40.61,0,0,0,21.61-2.86c.82-.35,1.06-.21,1.24.63.59,2.76,1.25,5.5,1.93,8.23.14.55,0,.73-.47.94a47.85,47.85,0,0,1-14.34,3.76,54.23,54.23,0,0,1-12.67,0,29.27,29.27,0,0,1-26-24.87c-1.49-8.93-.74-17.63,3.14-25.88,4-8.55,10.52-14.35,19.89-16.39,7.65-1.67,15.07-1,21.84,3.37a25.13,25.13,0,0,1,9.79,12.76,39.68,39.68,0,0,1,2.09,19.64c-.1.73-.54.53-.92.53H355.12Zm-6-9.95c5.09,0,10.18,0,15.27,0,.65,0,.84-.15.78-.81a28.28,28.28,0,0,0-.85-5.26c-1.19-4.2-3.33-7.73-7.41-9.67-5.39-2.56-13.58-2.26-18.72,4a24.61,24.61,0,0,0-4.93,10.83c-.16.73,0,.93.76.93C339,202.69,344.06,202.71,349.1,202.71Z"/><path d="M312.64,190a22.44,22.44,0,0,0-5.68-2.4,29.29,29.29,0,0,0-14.11-.33,18.39,18.39,0,0,0-12.94,10.14c-4.1,8.54-4.16,17.22.44,25.59,3.42,6.22,9.1,9.25,16.1,9.79a31.13,31.13,0,0,0,15.8-3.05c.72-.34.93-.24,1.1.56.59,2.85,1.26,5.68,1.94,8.51a.93.93,0,0,1-.6,1.26,44.72,44.72,0,0,1-28.14,2.58c-11.49-3.19-18.69-10.73-21.66-22.18a38.12,38.12,0,0,1,1.33-24c4.15-10.49,11.92-17,22.81-19.6a41.26,41.26,0,0,1,24.25,1.46c2.55.93,2.54.95,1.78,3.52S313.46,187.2,312.64,190Z"/><path d="M253.22,211.23q0,15.84,0,31.68c0,.75-.15,1-.93,1-3.81,0-7.61,0-11.42,0-.67,0-.93-.1-.93-.87q0-31.83,0-63.64c0-.71.15-.92.89-.91,3.81,0,7.61.05,11.42,0,.87,0,1,.28,1,1Q253.21,195.35,253.22,211.23Z"/></svg>