<svg id="Layer_1" data-name="Layer 1" xmlns="http://www.w3.org/2000/svg" viewBox="0 0 532 266"><title>SVG-</title><path d="M257.9,54.86a8.3,8.3,0,0,1,8.47-8.63A8.41,8.41,0,0,1,275,55.36a8.53,8.53,0,0,1-8.56,8.12A8.42,8.42,0,0,1,257.9,54.86Z"/><path d="M291.52,76a8.4,8.4,0,0,1-8.65-8.5c.1-5.29,3.81-8.71,8.52-8.68,5.22,0,8.65,3.53,8.69,8.73A8.38,8.38,0,0,1,291.52,76Z"/><path d="M216.64,71.39c4.59-.28,8.69,3.72,8.63,8.73a8.55,8.55,0,0,1-9.16,8.35A8.43,8.43,0,0,1,208,80,8.35,8.35,0,0,1,216.64,71.39Z"/><path d="M291.38,83.63a8.25,8.25,0,0,1,8.7,8.48,8.61,8.61,0,0,1-17.22,0C282.85,87.59,286.66,83.27,291.38,83.63Z"/><path d="M316.19,71.39a8.32,8.32,0,0,1,8.61,8.51,8.45,8.45,0,0,1-9.15,8.58,8.63,8.63,0,0,1-8.09-8.59C307.61,75.11,311.56,71.12,316.19,71.39Z"/><path d="M266.45,113.15c-4.65.47-8.77-4.05-8.63-8.81a8.6,8.6,0,1,1,17.18.78C274.79,109.13,271.12,113.57,266.45,113.15Z"/><path d="M241.66,83.63c4.49-.5,8.83,4,8.64,8.82a8.6,8.6,0,1,1-17.19-.69C233.24,87.77,237.06,83.23,241.66,83.63Z"/><path d="M250.22,67.28c.39,4.71-3.88,8.81-8.64,8.7a8.6,8.6,0,0,1-8.43-9,8.4,8.4,0,0,1,8.51-8.25A8.22,8.22,0,0,1,250.22,67.28Z"/><path d="M266.38,88.43c-4.16.47-8.75-3.84-8.56-8.83a8.6,8.6,0,1,1,17.18.81C274.82,84.47,270.81,88.9,266.38,88.43Z"/><path d="M277.45,198.35H260c.4,4.24,2.18,6.58,6.19,7.7a7.9,7.9,0,0,0,7.22-1.51l.56-.43c1.53-1.06,1.53-1.05,2.81.36a11.33,11.33,0,0,1-13.89,2.75,10.36,10.36,0,0,1-5.28-8,11.9,11.9,0,0,1,1.94-8.71,9,9,0,0,1,6.87-4.14c5.65-.58,9.13,2.53,10.55,7.55A26.68,26.68,0,0,1,277.45,198.35ZM260,196.13h14.92c-.62-5.3-3.67-7.88-7.47-7.82C264,188.36,260.5,191.1,260,196.13Z"/><path d="M297.42,195.27a6,6,0,0,0-5.54-6.81,16.72,16.72,0,0,0-8,1.64l-.83-2a19.51,19.51,0,0,1,6.49-1.78,12.29,12.29,0,0,1,6,.89,6.51,6.51,0,0,1,4,5.87c.19,4.91,0,9.82,0,14.81h-2.13v-3.15a9.13,9.13,0,0,1-5.82,3.58c-3.67.53-7.57.05-9.7-3.54a6.26,6.26,0,0,1,2.32-8.69,12.18,12.18,0,0,1,7.84-1.34C293.9,195,295.66,195.1,297.42,195.27Zm-6.86,1.23a36.45,36.45,0,0,0-3.81.9,4.27,4.27,0,0,0-1.05,7.81,7.08,7.08,0,0,0,5.09,1c4.39-.59,7.25-3.28,6.68-8.09a1.11,1.11,0,0,0-.74-.72C294.76,197.09,292.77,196.83,290.56,196.5Z"/><path d="M219,208.43a10.62,10.62,0,0,1-11-11c.07-6.33,4.28-11.07,10.93-11.19,6.12-.11,10.89,4.25,11,11.06A10.69,10.69,0,0,1,219,208.43Zm-8.4-11.16a8.69,8.69,0,0,0,8.12,9c5.2.16,8.63-4,8.89-8.89.24-4.61-4.19-9.27-8.64-9.14A8.65,8.65,0,0,0,210.62,197.27Z"/><path d="M285,115.69c-.41-3.44,2.87-6.45,6.3-6.41a6.4,6.4,0,1,1-.21,12.8C287.68,122,284.67,119.08,285,115.69Z"/><path d="M322.7,103.05a6.3,6.3,0,0,1-6.31,6.51,6.41,6.41,0,1,1,.44-12.8C319.75,97,322.85,99.63,322.7,103.05Z"/><path d="M247.82,115.64c.37,3.41-2.69,6.45-6.29,6.42a6.39,6.39,0,1,1,.17-12.78C245.17,109.35,248.16,112.29,247.82,115.64Z"/><path d="M260.3,127.93c-.45-3.34,2.95-6.59,6.41-6.45a6.53,6.53,0,0,1,6.29,6.46,6.31,6.31,0,0,1-6.35,6.34C263.34,134.34,259.91,131.52,260.3,127.93Z"/><path d="M223.1,103.26c.41,3.49-3.14,6.38-6.28,6.3a6.3,6.3,0,0,1-6.41-6.53,6.38,6.38,0,0,1,6.82-6.25C220.11,96.9,223.47,99.52,223.1,103.26Z"/><path d="M306.7,186.84h1.51a4.27,4.27,0,0,1,.57.07v3.31c.8-.86,1.38-1.6,2.08-2.21a8.06,8.06,0,0,1,6.21-1.7,7.88,7.88,0,0,1,5.47,2.39,6.59,6.59,0,0,1,2,4.38c.12,5,.05,10,.05,15h-2.16V194.85A6.58,6.58,0,0,0,319,189a6.84,6.84,0,0,0-7.73,1.24,7.52,7.52,0,0,0-2.48,6c0,3.55,0,7.11,0,10.67v1.22H306.7Z"/><path d="M254,204.23a11,11,0,0,1-16.5,1,11.56,11.56,0,0,1,.64-16.27,11,11,0,0,1,15.64,1.17l-1.59,1.44c-1.12-.74-2.35-1.72-3.71-2.45-2.8-1.5-6.31-.58-8.59,1.4a9.39,9.39,0,0,0-.78,12.89c3.12,3.54,8,4,11.91.73l.09-.08C252.55,202.66,252.55,202.66,254,204.23Z"/><path d="M295.58,134.68a4.19,4.19,0,0,1-4.26,4.37c-2.47-.12-4.28-1.44-4.37-4.39a4.33,4.33,0,0,1,4.34-4.44C293.92,130.38,295.75,132.2,295.58,134.68Z"/><path d="M237.26,134.64c-.13-2.62,1.82-4.31,4.33-4.42a4.32,4.32,0,0,1,4.3,4.36,4.32,4.32,0,1,1-8.63.06Z"/><path d="M315.84,126.36a4.12,4.12,0,0,1-3.9-4.33,4.25,4.25,0,0,1,4.7-4.28,4.06,4.06,0,0,1,4.07,4.51A4.1,4.1,0,0,1,315.84,126.36Z"/><path d="M212.54,122.15c-.26-2.86,2.46-4.45,4.33-4.44a4.26,4.26,0,0,1,4.29,4.49c-.11,2.85-1.76,4.26-4.29,4.29A4,4,0,0,1,212.54,122.15Z"/><path d="M270.86,147.19a4.13,4.13,0,0,1-4.25,4.36,4.3,4.3,0,0,1-4.39-4.29c0-2.58,1.77-4.24,4.39-4.38A4.12,4.12,0,0,1,270.86,147.19Z"/><path d="M216.87,139.31a2.28,2.28,0,1,1-.06-4.56,2.28,2.28,0,0,1,2.44,2.31A2.25,2.25,0,0,1,216.87,139.31Z"/><path d="M266.54,159.72a2.4,2.4,0,0,1,.13,4.79,2.24,2.24,0,0,1-2.29-2.51A2.21,2.21,0,0,1,266.54,159.72Z"/><path d="M241.4,151.79a2.18,2.18,0,0,1-2.22-2.21,2.23,2.23,0,0,1,2.25-2.35,2.53,2.53,0,0,1,2.52,2.15A2.27,2.27,0,0,1,241.4,151.79Z"/><path d="M291.32,151.79a2.25,2.25,0,0,1-2.44-2.16,2.5,2.5,0,0,1,2.39-2.4,2.27,2.27,0,0,1,2.39,2.46A2.21,2.21,0,0,1,291.32,151.79Z"/><path d="M318.62,137a2.15,2.15,0,0,1-2.2,2.34,2.28,2.28,0,1,1,2.2-2.34Z"/></svg>