<svg id="Layer_1" data-name="Layer 1" xmlns="http://www.w3.org/2000/svg" viewBox="0 0 532 266"><title>SVG-</title><path d="M121.07,132.24c-.48,13.91-5.4,26.11-17.59,34.59-7.87,5.47-16.82,7.26-26.26,6.89-12.48-.49-23.11-5-30.91-15-7.19-9.25-9.44-20-8.57-31.48.74-9.78,4-18.67,10.87-25.83C58.2,91.43,70.23,88.2,83.68,89.24a39.11,39.11,0,0,1,23.57,9.66C117.08,107.62,120.85,118.94,121.07,132.24Zm-19.45-1c-.85-4.21-1.37-8.52-2.62-12.61a19.55,19.55,0,0,0-17.59-13.8c-10.26-.49-17.59,3.61-21.17,12.09-3.72,8.78-3.74,17.81-.85,26.79,2.47,7.69,7.77,12.76,15.85,14,8.9,1.38,16.57-1.12,21.66-9.1C100.25,143.4,101.08,137.47,101.62,131.26Z"/><path d="M153.66,133.28a11.61,11.61,0,0,0-.26,1.74c0,11.46,0,22.91.06,34.37,0,2.15-.57,3-2.84,2.94-4.89-.14-9.78-.09-14.67,0-1.71,0-2.41-.49-2.41-2.32q.06-38.58,0-77.16c0-1.83.72-2.35,2.42-2.32,5,.06,9.94.09,14.91,0,2,0,2.59.82,2.58,2.73-.06,11.06,0,22.12,0,33.18,0,.72.15,1.45.31,2.89.89-1.13,1.35-1.64,1.72-2.2,7.43-11.3,14.89-22.58,22.25-33.93a5,5,0,0,1,4.84-2.69c5.28.17,10.58.06,15.86.06h3.14c-.66,1.22-1,2-1.53,2.79q-12.12,17.75-24.29,35.45a3.18,3.18,0,0,0,.08,4.29q13.27,18.39,26.41,36.9c.4.56.72,1.18,1.29,2.12-1.22.08-2.06.19-2.89.19-6.09,0-12.18,0-18.27,0a3.86,3.86,0,0,1-3.71-2q-11.43-17.62-23-35.17c-.42-.65-.87-1.28-1.31-1.92Z"/><path d="M402.78,100.64c-2.8,3.79-5.61,7.67-8.57,11.43-.3.39-1.74.35-2.32,0a47.14,47.14,0,0,0-16.37-6.64,24.34,24.34,0,0,0-15.26,1.66,6.93,6.93,0,0,0-4.29,6c-.14,2.65,1.5,4.5,3.84,5.61a22.86,22.86,0,0,0,4.66,1.82c7.25,1.67,14.56,3.08,21.78,4.85,5.47,1.34,10.76,3.36,14.77,7.54,5.5,5.75,6.52,12.85,5.34,20.35-1.65,10.46-8.49,16.36-18.21,18.78a57.27,57.27,0,0,1-44.42-6.42c-1.58-.93-3-2.08-4.54-3.14-1-.69-1.38-1.42-.56-2.59,2.41-3.4,4.74-6.84,7.09-10.27.95-1.39,1.8-1,3-.16a49.77,49.77,0,0,0,22.61,8.76c4.51.5,9,.23,13.06-2.11a13.61,13.61,0,0,0,4.26-4,5.76,5.76,0,0,0-1.48-7.91c-3.66-2.86-8.08-3.74-12.49-4.56-7.71-1.43-15.48-2.55-22.66-6-8.58-4.13-13.55-10.68-13.27-20.41s5.11-16.5,14-20.28,18.26-4,27.63-2.66A44.58,44.58,0,0,1,399.8,98c.85.59,1.68,1.21,2.5,1.85C402.47,100,402.54,100.22,402.78,100.64Z"/><path d="M413.21,91a20.09,20.09,0,0,1,2.25-.28c5.37,0,10.74.07,16.11-.08a5.28,5.28,0,0,1,4.79,2.5c5.86,7.92,11.78,15.79,17.68,23.68,1.6,2.12,1.92,2.16,3.5.06,6.07-8.05,12.07-16.17,18.2-24.18a4.75,4.75,0,0,1,3.06-1.88c6.16-.17,12.34-.08,18.51,0,.2,0,.4.2.86.46-1.48,2-2.88,3.84-4.33,5.71Q481,113.42,468.13,129.88c-1.08,1.37-1.2,2.29-.07,3.73,8.65,11,17.22,22.1,25.81,33.18,1.21,1.56,2.38,3.17,3.91,5.21-1.43.09-2.41.2-3.39.2-5.21,0-10.42,0-15.62,0a4,4,0,0,1-3.65-1.77q-8.67-11.65-17.49-23.21c-1.75-2.31-1.95-2.29-3.75.11-5.54,7.35-11.11,14.68-16.57,22.1a6,6,0,0,1-5.63,2.8c-5-.2-9.93-.06-14.9-.08-.78,0-1.55-.07-3-.15,1.38-1.84,2.43-3.28,3.52-4.68q12.72-16.29,25.45-32.55c2.33-3,2.29-3-.12-6.1q-13.43-17.1-26.85-34.19C414.94,93.48,414.21,92.38,413.21,91Z"/><path d="M213.62,82.47c5.8,4.32,10.91,8.14,16,11.93,8.56,6.32,17.15,12.6,25.71,18.92q6.66,4.91,13.26,9.91c1.3,1,2.3,1.22,3.8.11,13.07-9.79,26.22-19.48,39.34-29.2q7-5.15,13.91-10.28c.67-.5,1.41-.9,2.73-1.72,0,2.66,0,4.69,0,6.73,0,3,.19,5.95-.06,8.89a5.48,5.48,0,0,1-1.78,3.56q-24.7,18.5-49.57,36.8a44.34,44.34,0,0,0-4.05,3c-1.54,1.44-2.78,1-4.21-.1q-20.28-15.18-40.6-30.31a9,9,0,0,0-1.37-1c-1.29-.62-2.17-.51-2.17,1.25,0,7.61,0,15.22,0,22.83q0,22.23.13,44.47a11.43,11.43,0,0,1-.28,1.53c-3.59-2.78-7-5.25-10.14-8-.65-.55-.64-2.07-.64-3.14q0-40.4,0-80.78Z"/><path d="M236,131.41c2.85,2,5.2,3.67,7.49,5.38q12.7,9.47,25.36,19a2.37,2.37,0,0,0,3.37,0q14.6-11,29.25-21.86,12-9,24.13-17.88c.68-.5,1.43-.93,2.46-1.6a19.11,19.11,0,0,1,.27,2.15c0,17.4,0,34.79,0,52.18a4.79,4.79,0,0,1-2.4,4.55c-2.41,1.56-4.63,3.43-6.95,5.14-.61.46-1.28.84-2.52,1.64V141.66a30.07,30.07,0,0,0-2.76,1.53q-14.47,10.74-28.91,21.52c-3.85,2.87-7.75,5.68-11.56,8.61-1.64,1.27-2.79,1.24-4.56-.11-10.23-7.82-20.59-15.48-31-23.12A3.89,3.89,0,0,1,236,146.5C236.08,141.7,236,136.91,236,131.41Z"/></svg>