<svg id="Layer_1" data-name="Layer 1" xmlns="http://www.w3.org/2000/svg" viewBox="0 0 532 266"><title>SVG-</title><path d="M113.66,136.06a40.7,40.7,0,0,1-2.17,13.4,33.08,33.08,0,0,1-6.35,11.08,29.78,29.78,0,0,1-10.24,7.61,32.57,32.57,0,0,1-13.75,2.79,32.4,32.4,0,0,1-13.81-2.79,30,30,0,0,1-10.18-7.61,33.08,33.08,0,0,1-6.35-11.08,42.61,42.61,0,0,1,0-26.79,33.13,33.13,0,0,1,6.35-11.09A30.13,30.13,0,0,1,67.34,104a32.4,32.4,0,0,1,13.81-2.79A32.57,32.57,0,0,1,94.9,104a29.88,29.88,0,0,1,10.24,7.6,33.13,33.13,0,0,1,6.35,11.09A40.64,40.64,0,0,1,113.66,136.06Zm-12.56,0a36.82,36.82,0,0,0-1.26-9.76,24.86,24.86,0,0,0-3.69-8,17.43,17.43,0,0,0-6.21-5.38,20.76,20.76,0,0,0-17.57,0,17.35,17.35,0,0,0-6.21,5.38,24.88,24.88,0,0,0-3.7,8,38.74,38.74,0,0,0,0,19.6,25.09,25.09,0,0,0,3.7,7.95,17.22,17.22,0,0,0,6.21,5.37,18.69,18.69,0,0,0,8.78,1.95,18.74,18.74,0,0,0,8.79-1.95,17.31,17.31,0,0,0,6.21-5.37,25.08,25.08,0,0,0,3.69-7.95A36.61,36.61,0,0,0,101.1,136.06Z"/><path d="M202.51,111.37a17.16,17.16,0,0,0-9.83,3.07,35.08,35.08,0,0,0-8,7.53,57.74,57.74,0,0,1,1.25,12.28v35.29H173.36V134.67a59.08,59.08,0,0,0-.7-9.42,23,23,0,0,0-2.37-7.32,12.06,12.06,0,0,0-11.44-6.56A17,17,0,0,0,149,114.3a30.73,30.73,0,0,0-6.76,6.14v49.1H129.7v-67h12v9.77a27.33,27.33,0,0,1,9.07-8.24A25,25,0,0,1,163,101.19a19.14,19.14,0,0,1,11.79,3.49,23.09,23.09,0,0,1,7.33,9.62,30.93,30.93,0,0,1,10-9.69,27.1,27.1,0,0,1,14-3.42,20.64,20.64,0,0,1,10.74,2.65,20.85,20.85,0,0,1,7.25,7.18,34.16,34.16,0,0,1,4.12,10.54,58.87,58.87,0,0,1,1.32,12.69v35.29H217V134.67a57.94,57.94,0,0,0-.7-9.42,22.75,22.75,0,0,0-2.37-7.32,12.73,12.73,0,0,0-4.46-4.82A13,13,0,0,0,202.51,111.37Z"/><path d="M322.62,111.37a17.16,17.16,0,0,0-9.83,3.07,35.08,35.08,0,0,0-8,7.53A57.74,57.74,0,0,1,306,134.25v35.29H293.47V134.67a59.08,59.08,0,0,0-.7-9.42,23,23,0,0,0-2.37-7.32A12.06,12.06,0,0,0,279,111.37a17,17,0,0,0-9.84,2.93,30.73,30.73,0,0,0-6.76,6.14v49.1H249.81v-67h12v9.77a27.33,27.33,0,0,1,9.07-8.24,25,25,0,0,1,12.27-2.92,19.14,19.14,0,0,1,11.79,3.49,23.09,23.09,0,0,1,7.33,9.62,30.93,30.93,0,0,1,10-9.69,27.1,27.1,0,0,1,14-3.42A20.64,20.64,0,0,1,337,103.84a20.85,20.85,0,0,1,7.25,7.18,34.16,34.16,0,0,1,4.12,10.54,58.87,58.87,0,0,1,1.32,12.69v35.29H337.13V134.67a57.94,57.94,0,0,0-.7-9.42,22.75,22.75,0,0,0-2.37-7.32,12.73,12.73,0,0,0-4.46-4.82A13,13,0,0,0,322.62,111.37Z"/><path d="M395.72,101.19A28.06,28.06,0,0,1,407,103.28,23.18,23.18,0,0,1,415,109a23.48,23.48,0,0,1,4.89,8.58,34.72,34.72,0,0,1,1.6,10.67,46.93,46.93,0,0,1-1.39,11.3H377.87a31.08,31.08,0,0,0,1.39,8.79,18.12,18.12,0,0,0,3.84,6.76,16.65,16.65,0,0,0,6.69,4.4,28.52,28.52,0,0,0,10,1.54A45.55,45.55,0,0,0,410,159.92a58,58,0,0,0,8.86-2.79l1.67,9.35a45.68,45.68,0,0,1-10.39,3.27A62.11,62.11,0,0,1,398,170.94a36.08,36.08,0,0,1-14.57-2.72,28.35,28.35,0,0,1-10.26-7.4,31,31,0,0,1-6.06-10.95,45.82,45.82,0,0,1,.07-27.2,34,34,0,0,1,6.06-11.23,27.91,27.91,0,0,1,9.7-7.53A29.4,29.4,0,0,1,395.72,101.19Zm-17.85,28.73h31.52a28.49,28.49,0,0,0-.13-7.46,16.19,16.19,0,0,0-2.24-6.2,11.73,11.73,0,0,0-4.6-4.19,15.1,15.1,0,0,0-7.12-1.54,15.6,15.6,0,0,0-7.11,1.54,16.44,16.44,0,0,0-5.3,4.19,19.64,19.64,0,0,0-3.49,6.2,28,28,0,0,0-1.53,7.46"/><path d="M475.09,112.9h-3.2a27.37,27.37,0,0,0-12.77,2.79,23.48,23.48,0,0,0-9.14,9.07v44.78H437.43v-67h12v12.84a24.11,24.11,0,0,1,7.74-10.19q4.81-3.48,12.77-3.48a16.58,16.58,0,0,1,5.15.69Z"/></svg>