<svg id="Layer_1" data-name="Layer 1" xmlns="http://www.w3.org/2000/svg" viewBox="0 0 532 266"><title>SVG-</title><path d="M77.1,122.28c1.7-1,3.42-2,5.11-3.06q8.36-5.16,16.7-10.36l13.68-8.51,17.58-10.94c2.52-1.57,5-3.16,7.53-4.73.89.61.65,1.11-.08,1.57l-25.36,15.8Q102.12,108.37,92,114.67c-4.5,2.79-9,5.52-13.5,8.36a1,1,0,0,1-1.39,0Z"/><path d="M206.42,158.42v23.07c-2.92.41-5.48,0-7.52-2.31a7,7,0,0,1-1.78-4.74c0-17.75-.08-35.5,0-53.25a14.86,14.86,0,0,1,3.47-8.82c2.95-3.87,7.11-5.29,11.63-6.19a40.81,40.81,0,0,1,10.84-.91c4.79.34,9.51,1.11,13.6,3.92a16.12,16.12,0,0,1,6.73,11.14,76.86,76.86,0,0,1,1.16,16c-.18,4.91-.31,9.86-1.67,14.63a16.27,16.27,0,0,1-9.83,11.19A31.61,31.61,0,0,1,218.77,164c-3.64-.24-7.22-1-10.14-3.54C207.92,159.83,207.24,159.18,206.42,158.42Zm.28-23.28c0,3.47,0,7,0,10.43a9.1,9.1,0,0,0,4.15,7.67,11.61,11.61,0,0,0,6.06,2,33,33,0,0,0,10.27-.34c3.86-.84,6.56-3.24,7.34-7.21a51.19,51.19,0,0,0,.94-8.55,91.89,91.89,0,0,0-.66-16.41c-.6-3.94-2.67-6.75-6.5-7.83a32.19,32.19,0,0,0-13.68-.36,8.81,8.81,0,0,0-4.68,2.25,10.19,10.19,0,0,0-3.22,7.82C206.66,128.1,206.7,131.62,206.7,135.14Z"/><path d="M288.11,157.45c-1.92,1.41-3.73,2.9-5.7,4.15a16.26,16.26,0,0,1-6.87,2.18,26,26,0,0,1-4.74.23c-3.83-.28-7.71-.19-11.34-1.86a12.92,12.92,0,0,1-6.5-6.22,21.32,21.32,0,0,1-2.33-10.48A18.64,18.64,0,0,1,255,133.67a11.53,11.53,0,0,1,7.2-3.67c3-.42,6.05-.59,9.09-.74,3.3-.17,6.61-.24,9.91-.24,2.22,0,4.44.2,6.86.32,0-1.12.08-2.11,0-3.08-.23-2.22-.52-4.44-.85-6.66a5.41,5.41,0,0,0-4.62-4.84,32.19,32.19,0,0,0-6.84-1.05c-5.36.07-10.28,1.59-14.23,5.49-.67.66-1.3,1.35-2,2a2,2,0,0,1-2.49.31,32.25,32.25,0,0,1-4-3,1.82,1.82,0,0,1-.14-2.51,32.57,32.57,0,0,1,4-4.52,22,22,0,0,1,10.06-5.08c1.49-.32,3-.45,4.55-.62a18.33,18.33,0,0,1,2.95-.23c4,.17,7.95.2,11.82,1.36,5.44,1.63,8.54,5.35,9.7,10.75a46,46,0,0,1,.75,6.21c1,12.83.27,25.69.51,38.54,0,1.18-.36,1.43-1.49,1.47-4.16.16-5.95-2-7.18-5.23C288.36,158.12,288.18,157.65,288.11,157.45Zm-16.89-2a38.89,38.89,0,0,1,3.89-.31,13.63,13.63,0,0,0,12.71-9.62c.7-2.29,0-4.62.26-6.92.1-1.07-.47-1.34-1.31-1.36-3.6-.05-7.21-.16-10.82-.1-3.37.06-6.75.19-10.1.5a5.57,5.57,0,0,0-5.44,4.55,18.28,18.28,0,0,0-.14,7.65,6.14,6.14,0,0,0,5.22,5.24A55.2,55.2,0,0,0,271.22,155.49Z"/><path d="M415.49,181.12c1.36-3.32,2.68-6.49,4-9.67,1.39-3.4,2.76-6.8,4.19-10.19,1-2.4.3-4.59-.6-6.82q-5.62-14-11.22-27.95c-2.1-5.25-4.25-10.5-6.31-15.77a10.17,10.17,0,0,1-.58-2.86,1.74,1.74,0,0,1,1.78-1.9,18.63,18.63,0,0,0,2-.23,4.66,4.66,0,0,1,5.17,2.6c.42.88.75,1.8,1.11,2.71q3.83,9.63,7.64,19.27l6.8,17.22a2.71,2.71,0,0,0,.4.53c.68-1.6,1.33-3.08,1.94-4.58q3.6-9,7.18-17.95c2.1-5.26,4.18-10.53,6.32-15.77.67-1.66,1.54-3.24,3.35-3.93a5.44,5.44,0,0,1,5.38.64,2.1,2.1,0,0,1,.68,2.66q-1.8,4.58-3.62,9.15c-2.82,7.11-5.63,14.23-8.49,21.34-2.12,5.29-4.32,10.55-6.46,15.84q-3.51,8.7-6.95,17.41c-1.29,3.26-3,6.16-6.36,7.65A10.13,10.13,0,0,1,415.49,181.12Z"/><path d="M377.1,90.38c1.64.25,3.1.35,4.49.7a5.06,5.06,0,0,1,3.86,4.82c.27,2.69.21,5.4.28,8.11,0,.75,0,1.51,0,2.43h1.33c3.88,0,7.76,0,11.63,0,1.1,0,1.76.53,1.84,1.41a23.4,23.4,0,0,1,0,5c-.21,1.57-1.27,2.22-3,2.23-3.64,0-7.28,0-10.92,0h-.84V163c-3.18.32-6-.07-7.73-3a6,6,0,0,1-.9-2.86q-.22-11.79-.27-23.59c0-5.42.15-10.85.22-16.27a4.23,4.23,0,0,0,0-1.07c-.17-.74-.46-1.25-1.43-1.17-1.47.11-3,0-4.44,0a2.4,2.4,0,0,1-2.7-2.44c-.08-1.56-.06-3.12,0-4.68,0-1,.68-1.53,1.72-1.52,1.84,0,3.67,0,5.51,0,1.14,0,1.39-.4,1.26-1.52a16.52,16.52,0,0,1,.13-2.09c0-3.64,0-7.28,0-10.92Z"/><path d="M317.83,111.65c1.9-1.34,3.59-2.71,5.44-3.8a17,17,0,0,1,8.33-2.17,28.78,28.78,0,0,1,10,1.4c1.68.55,2.36,1.74,1.78,3.36a14.82,14.82,0,0,1-1.76,3.43c-.78,1.12-2.05.77-3.18.61a37.92,37.92,0,0,0-5.94-.78,19.15,19.15,0,0,0-11.94,4.3,8.31,8.31,0,0,0-3,6.67c0,12.51,0,25,0,37.53v1.41c-4.79,1.11-8.94-2.05-8.91-6.9.08-16.59,0-33.19,0-49.78,0-1.15,0-1.53,1.52-1.43,2.38.16,4.59.84,6.06,2.9a17.05,17.05,0,0,1,1.3,2.6C317.68,111.24,317.76,111.48,317.83,111.65Z"/><path d="M350.25,105.55c3.42-.42,6.16.59,7.83,3.46a9.25,9.25,0,0,1,1.21,4.45c.08,16.1,0,32.21.07,48.31,0,1.1-.38,1.3-1.39,1.34-2.9.1-5.3-.78-6.82-3.35a6,6,0,0,1-.89-2.86c-.06-16.86,0-33.73,0-50.59C350.22,106.08,350.24,105.84,350.25,105.55Z"/><path d="M348.54,88.19c-.22-3,2.71-6.17,6.43-6a6.15,6.15,0,0,1,6,6,6.06,6.06,0,0,1-6.35,6.29A6,6,0,0,1,348.54,88.19Z"/><path d="M81.46,129.55l-.74-1c1.66-1,3.3-2.1,5-3.13,7-4.33,14-8.64,21-13,5.23-3.25,10.43-6.54,15.65-9.81q9.27-5.79,18.56-11.56c.23-.14.66,0,1,.05-.09.35-.08.89-.31,1q-6.4,4-12.87,8-6.1,3.76-12.2,7.54-9.41,5.82-18.78,11.67c-4,2.46-7.91,5-11.86,7.43Z"/><path d="M92.77,147.72l-.6-1.1,60.75-37.82.75,1Z"/><path d="M107.31,170.8c1.53-1,3.07-1.94,4.63-2.91,4.69-2.91,9.4-5.82,14.09-8.74l17.57-10.94,15.57-9.71c2.69-1.67,5.44-3.28,8.08-5,.88-.58,1.16-.33,1.44.55-3.57,2.24-7.14,4.49-10.73,6.72-4.07,2.53-8.14,5-12.2,7.55q-8.81,5.46-17.58,10.94c-4.59,2.86-9.16,5.75-13.75,8.61-1.86,1.17-3.74,2.3-5.6,3.47C108.26,171.67,107.75,171.89,107.31,170.8Z"/><path d="M175.61,145l.75,1L115.6,183.86c-.86-.57-.65-1.09.08-1.55l13.59-8.43,12.19-7.58,16.67-10.38,13.79-8.57C173.12,146.61,174.3,145.85,175.61,145Z"/><path d="M104.2,165.79c-.66-.66-.73-1,.07-1.52,6.31-3.88,12.59-7.81,18.88-11.73l13.68-8.5,17.57-10.95q4.54-2.82,9.1-5.63c.78-.48.78-.48,1.46.51Z"/><path d="M100.39,159.76l-.74-1,60.9-37.91.59,1.1Z"/><path d="M157.29,115.81c-.19.14-.4.34-.64.49q-5.73,3.6-11.47,7.17-6.13,3.84-12.27,7.65l-18.59,11.54q-6.88,4.28-13.76,8.58c-1.13.71-2.24,1.46-3.39,2.13-.23.12-.64-.08-1-.14.12-.31.14-.77.37-.91q4.14-2.69,8.34-5.29,6.09-3.78,12.21-7.53L134,129c4-2.47,7.9-4.95,11.86-7.43l10-6.24C156.38,115,157,114.69,157.29,115.81Z"/><path d="M89,141.62l-.68-1,60.79-37.84c.69.63.76,1,0,1.5-5.68,3.49-11.33,7-17,10.54l-13.67,8.5-17.57,11-11.17,7C89.45,141.38,89.22,141.49,89,141.62Z"/><path d="M146,97.7c-.82.55-1.64,1.13-2.5,1.66l-21.09,13.07c-5,3.1-10,6.23-15,9.34l-19.38,12a17.62,17.62,0,0,0-2,1.26c-.76.63-1.19.51-1.46-.52,2.89-1.81,5.84-3.67,8.8-5.51,4.06-2.52,8.14-5,12.2-7.55l17.57-10.94,15-9.33c2.13-1.33,4.27-2.65,6.39-4C145.18,96.8,145.62,96.84,146,97.7Z"/><path d="M171.91,138.92l.46,1c-.05.13-.06.24-.11.27q-8.32,5.21-16.66,10.4-7.44,4.63-14.89,9.24l-17.57,10.94c-3.32,2.08-6.62,4.19-10,6.23-.49.3-1.14,1.25-1.73.36s.6-1.14,1-1.42q11.69-7.38,23.45-14.64,13.74-8.5,27.51-17C166.24,142.55,169,140.77,171.91,138.92Z"/><path d="M110.9,130.75l15-9.36a26.58,26.58,0,0,0,2.48-1.57,4,4,0,0,1,3.59-.76l-4.25,2.72q-6.18,3.85-12.38,7.68C114,130.28,112.81,131.42,110.9,130.75Z"/><path d="M145.34,119.19l-12.05,7.49c-1.73,1.07-3.47,2.14-5.18,3.25s-1.6,1.07-3.75.88c1.75-1.12,3.32-2.17,4.92-3.16,4.53-2.81,9.05-5.62,13.62-8.35a7.21,7.21,0,0,1,2.33-.49Z"/><path d="M136.85,141.23c-1.77,1.12-3.54,2.25-5.32,3.36-4.06,2.52-8.1,5.07-12.2,7.52a17.83,17.83,0,0,1-3.08,1.18l-.23-.47c.61-.41,1.2-.84,1.81-1.22,5.48-3.43,11-6.87,16.47-10.23a7.2,7.2,0,0,1,2.38-.48Z"/><path d="M129.45,152.82c2.9-1.83,5.79-3.68,8.7-5.49,3.23-2,6.46-4,9.74-5.91a8.2,8.2,0,0,1,2.38-.53l.09.31c-2,1.28-4,2.58-6,3.83-4,2.5-8,5-12.11,7.44a9.8,9.8,0,0,1-2.71.69Z"/><path d="M102.92,152.58c1-.65,1.93-1.33,2.93-1.94,4.55-2.84,9.11-5.65,13.67-8.47,1.17-.72,2.3-1.58,3.91-1-1.53,1-3,2-4.52,2.91-4.49,2.78-9,5.56-13.51,8.29a11.62,11.62,0,0,1-2.21.8Z"/><path d="M103.08,128.7v-1.44c4.22-2.65,8.43-5.36,12.72-8a7.72,7.72,0,0,1,2.56-.49l.09.32Z"/><path d="M137.81,130.79l13.76-8.55c.35,1,0,1.48-.85,2-3.2,1.89-6.34,3.9-9.45,5.93A4.34,4.34,0,0,1,137.81,130.79Z"/><path d="M151.62,147.37a1.54,1.54,0,0,1-.93,2.06c-1.83,1-3.54,2.29-5.38,3.31a6.56,6.56,0,0,1-2.22.3l-.08-.29Z"/><path d="M103.15,145.45c-.4-1.18.14-1.71,1-2.13a12.63,12.63,0,0,0,2.39-1.46,4.34,4.34,0,0,1,3.56-.77Z"/><path d="M105.14,119l-2,1.33V119Z"/></svg>