<?xml version="1.0" standalone="no"?>
<!DOCTYPE svg PUBLIC "-//W3C//DTD SVG 20010904//EN"
 "http://www.w3.org/TR/2001/REC-SVG-20010904/DTD/svg10.dtd">
<svg version="1.0" xmlns="http://www.w3.org/2000/svg"
 width="337.000000pt" height="121.000000pt" viewBox="0 0 337.000000 121.000000"
 preserveAspectRatio="xMidYMid meet">
<metadata>
Created by potrace 1.15, written by Peter Selinger 2001-2017
</metadata>
<g transform="translate(0.000000,121.000000) scale(0.100000,-0.100000)"
fill="#000000" stroke="none">
<path d="M244 957 c-3 -8 -4 -52 -2 -98 l3 -84 98 -3 97 -3 0 101 0 100 -95 0
c-71 0 -97 -4 -101 -13z"/>
<path d="M495 958 c-3 -8 -5 -53 -3 -99 l3 -84 91 -5 c80 -5 95 -8 129 -34 76
-58 94 -161 40 -232 -14 -18 -25 -36 -25 -40 0 -23 64 -174 74 -174 21 0 54
30 99 89 118 157 97 356 -52 494 -74 68 -126 87 -253 94 -80 5 -99 3 -103 -9z"/>
<path d="M1030 606 c0 -357 4 -407 31 -365 5 8 8 174 6 369 -2 329 -3 355 -19
358 -17 3 -18 -19 -18 -362z"/>
<path d="M1155 868 c-11 -6 -23 -16 -27 -22 -4 -6 -8 -125 -8 -264 l0 -253 63
3 62 3 3 273 2 272 -37 0 c-21 0 -47 -6 -58 -12z"/>
<path d="M1308 860 l-28 -21 0 -255 0 -254 133 0 c72 0 148 5 168 10 99 28
158 111 166 239 8 108 -15 182 -72 237 -50 49 -64 52 -220 60 -113 6 -122 5
-147 -16z m248 -105 c45 -19 64 -64 64 -151 0 -73 -18 -121 -52 -143 -13 -8
-53 -16 -90 -19 l-68 -5 0 167 0 166 55 0 c31 0 71 -7 91 -15z"/>
<path d="M1896 765 c-86 -33 -106 -75 -113 -236 -3 -64 -3 -132 1 -152 l7 -37
59 0 60 0 0 148 c0 132 2 151 18 165 25 23 68 21 92 -3 18 -18 20 -33 20 -148
0 -149 6 -162 78 -162 l42 0 0 153 c0 139 -2 157 -22 197 -13 25 -37 53 -56
63 -43 25 -136 31 -186 12z"/>
<path d="M2314 770 c-41 -13 -100 -79 -113 -127 -14 -49 -14 -127 0 -176 33
-119 191 -173 300 -102 50 32 72 84 77 178 4 68 1 84 -23 132 -35 73 -70 96
-148 101 -34 2 -76 -1 -93 -6z m117 -119 c21 -17 24 -27 24 -94 0 -86 -18
-117 -67 -117 -50 0 -68 30 -68 113 0 77 4 87 35 105 29 16 50 15 76 -7z"/>
<path d="M2574 753 c5 -16 64 -226 102 -360 l15 -53 59 0 c54 0 60 2 65 23 3
12 16 69 29 126 12 57 25 98 28 90 3 -8 15 -65 28 -126 l23 -113 61 0 61 0 58
203 c31 112 57 208 57 215 0 19 -104 16 -120 -3 -7 -9 -25 -66 -40 -127 l-27
-112 -17 113 c-9 62 -20 119 -23 127 -4 10 -23 14 -68 14 l-62 0 -22 -100
c-11 -56 -21 -108 -21 -116 0 -8 -4 -12 -10 -9 -5 3 -10 15 -10 27 0 11 -9 60
-21 109 l-21 89 -65 0 c-57 0 -64 -2 -59 -17z"/>
<path d="M243 704 c-10 -26 5 -175 22 -224 34 -98 132 -196 229 -230 94 -33
264 -20 251 19 -3 9 -18 49 -33 90 l-29 74 -69 1 c-122 2 -174 63 -174 206 l0
80 -95 0 c-78 0 -97 -3 -102 -16z"/>
</g>
</svg>
