<svg id="Layer_1" data-name="Layer 1" xmlns="http://www.w3.org/2000/svg" viewBox="0 0 125.4 73.11"><defs><style>.cls-1{fill:#0057ff;}</style></defs><title>svg</title><path class="cls-1" d="M93.69,42.42c-.18,0-.29.17-.42.27a4.71,4.71,0,0,1-2.39.94,4.2,4.2,0,0,1-2.42-.46A2.9,2.9,0,0,1,87,40.83a3.59,3.59,0,0,1,.36-2.11,2.72,2.72,0,0,1,1.74-1.35,20.26,20.26,0,0,1,4-.68c.22,0,.37,0,.4-.35.09-1.23-.7-1.65-1.65-1.72a3.73,3.73,0,0,0-2.65.91c-.11.09-.19.13-.32,0-.51-.34-1-.68-1.55-1-.17-.11-.15-.18,0-.33a4,4,0,0,1,3.28-1.54,13.87,13.87,0,0,1,3.46.28A2.46,2.46,0,0,1,96,35.32c0,2.58,0,5.16,0,7.74,0,.21-.06.29-.28.29-.4,0-.8,0-1.21,0-.62,0-.79-.16-.81-.78C93.73,42.54,93.75,42.47,93.69,42.42Zm-.13-3.1h0c0-.2,0-.41,0-.61s-.06-.28-.28-.25c-.6.11-1.22.18-1.82.3a3,3,0,0,0-1.22.41,1.44,1.44,0,0,0-.54,1.76,1.31,1.31,0,0,0,1.57.7,10.22,10.22,0,0,0,1.08-.31,1.53,1.53,0,0,0,1.18-1.25A6.26,6.26,0,0,0,93.56,39.32Z"/><path class="cls-1" d="M70.74,38.69c-.95,0-1.9,0-2.85,0-.19,0-.34,0-.29.26s.07.66.16,1A1.92,1.92,0,0,0,69,41.26,3.14,3.14,0,0,0,72,41a.85.85,0,0,1,1.18.11,7.55,7.55,0,0,0,.93.67c.19.12.18.22.07.39a3.15,3.15,0,0,1-1.84,1.25,8,8,0,0,1-2.66.3,5.76,5.76,0,0,1-2.88-.83,3.46,3.46,0,0,1-1.55-2.55,14.9,14.9,0,0,1-.17-2.83,5.92,5.92,0,0,1,.72-2.91,3.86,3.86,0,0,1,2.61-1.8,7.44,7.44,0,0,1,2.86,0,3.59,3.59,0,0,1,2.89,2.54,6.32,6.32,0,0,1,.29,1.93,4.65,4.65,0,0,1,0,.75c-.06.48-.17.69-.89.71C72.64,38.71,71.69,38.69,70.74,38.69ZM69.84,37h1.8c.14,0,.24,0,.25-.2a1.88,1.88,0,0,0-1.55-2.12,2,2,0,0,0-2.56,2.08c0,.19.06.25.24.24Z"/><path class="cls-1" d="M52.13,43.68a6.27,6.27,0,0,1-2.81-.54,13.71,13.71,0,0,1-1.61-1c-.12-.08-.08-.14,0-.21l1.72-1.22c.11-.07.19,0,.27.06a3.16,3.16,0,0,0,2.87.79,1.48,1.48,0,0,0,1.2-.92.55.55,0,0,0-.25-.72,6,6,0,0,0-1.68-.59,9.69,9.69,0,0,1-2.3-.82A2.88,2.88,0,0,1,48,36.08a2.95,2.95,0,0,1,1.82-3,5.41,5.41,0,0,1,1.37-.35,7.39,7.39,0,0,1,2.61.13,4.36,4.36,0,0,1,1.75.8,7.57,7.57,0,0,0,.66.44c.15.09.2.17,0,.3-.56.4-1.11.81-1.66,1.22a.21.21,0,0,1-.29,0,6.48,6.48,0,0,0-.73-.53,3.28,3.28,0,0,0-2-.28,1,1,0,0,0-1,.66.77.77,0,0,0,.26.89,2.78,2.78,0,0,0,.77.34,18.42,18.42,0,0,1,3.24,1.09A2.62,2.62,0,0,1,56.29,40a3.11,3.11,0,0,1-.48,2.21,3.45,3.45,0,0,1-2.23,1.35A6.34,6.34,0,0,1,52.13,43.68Z"/><path class="cls-1" d="M58.51,37.69c0-.81,0-1.62,0-2.43,0-.2,0-.29-.27-.29a6.3,6.3,0,0,1-.75,0,.14.14,0,0,1-.16-.16V33.15c0-.13.05-.18.18-.18s.48,0,.72,0,.27-.08.28-.29c0-.64,0-1.29,0-1.93s.17-.74.73-.74c.26,0,.53,0,.79,0,.87-.05,1,.43,1,1a14.78,14.78,0,0,1,0,1.63c0,.27.09.32.33.31.57,0,1.13,0,1.7,0,.22,0,.31,0,.3.28,0,.48,0,.95,0,1.43,0,.26-.09.3-.32.3-.53,0-1.07,0-1.61,0-.21,0-.3,0-.3.28,0,1.21,0,2.41,0,3.61,0,.65,0,1.29.05,1.94a.81.81,0,0,0,.74.79,3.73,3.73,0,0,0,1.33-.07c.22,0,.38,0,.43.27s.18.77.27,1.15a.46.46,0,0,1-.39.63,3.84,3.84,0,0,1-.75.09,8.67,8.67,0,0,1-2.16-.07,2.47,2.47,0,0,1-2.05-2.25,10,10,0,0,1-.11-1.81Z"/><path class="cls-1" d="M79.25,36.05q0,3.45,0,6.89c0,.29,0,.42-.37.42-.52,0-1,0-1.57,0a.72.72,0,0,1-.55-.71,2.08,2.08,0,0,1,0-.25c0-4.29,0-8.58,0-12.87,0-.57.31-.9,1-.79a7,7,0,0,0,1.12,0c.4,0,.4,0,.4.39Z"/><path class="cls-1" d="M84.67,36c0,2.31,0,4.61,0,6.92,0,.31-.08.4-.38.41-.51,0-1,0-1.54,0-.24,0-.51-.36-.52-.66-.07-1.77-.1-3.54,0-5.31.06-2,0-3.95,0-5.92,0-.62,0-1.25,0-1.87s.3-.94,1-.85a7.75,7.75,0,0,0,1.18,0c.25,0,.33.06.33.31Q84.67,32.55,84.67,36Z"/><path class="cls-1" d="M98.88,38.17c0-1.39,0-2.79,0-4.18,0-.31-.08-.66.24-.9a.55.55,0,0,1,.32-.14l1.7,0c.16,0,.21.06.22.21s.06.58.09.87.13.23.28.11.58-.51.89-.73a3.51,3.51,0,0,1,2.29-.62c.5,0,.75.33.62.78s-.21,1-.34,1.54c0,.14-.06.25-.29.21a3.75,3.75,0,0,0-1.85.12,2.33,2.33,0,0,0-1.64,2.18c0,.85-.06,1.7,0,2.55s0,1.94,0,2.91c0,.21,0,.29-.28.3a15.51,15.51,0,0,1-1.67,0,.58.58,0,0,1-.56-.52,8.14,8.14,0,0,1,0-.85Z"/><path class="cls-1" d="M35.8,48.78a9.49,9.49,0,0,0-.68-2A9.27,9.27,0,0,0,33,43.93c-.13-.12-.2-.08-.29,0a2.37,2.37,0,0,1-.35.42A1,1,0,0,1,31,44.31c-1.52-1.17-3.11-2.25-4.65-3.38-.11-.07-.18-.14-.3,0a8.83,8.83,0,0,0-1.39,2.29,4.28,4.28,0,0,0-.16,3A1.83,1.83,0,0,0,26,47.32a4.07,4.07,0,0,0,3-1.24,8.53,8.53,0,0,0,.84-.86,1,1,0,0,1-.27.53,8.68,8.68,0,0,1-3.24,2.67,2,2,0,0,1-2.15-.08,1.83,1.83,0,0,1-.77-1.62A7.84,7.84,0,0,1,24.31,43,9.57,9.57,0,0,1,25.81,41c.18-.2.15-.3,0-.43a2.44,2.44,0,0,1-.39-.33.81.81,0,0,1-.13-1.25c.29-.42.29-.41-.18-.63a8.79,8.79,0,0,0-3-.88,7.82,7.82,0,0,0-2,0,1.07,1.07,0,0,1-.18,0A10.06,10.06,0,0,1,21,36.18,9.67,9.67,0,0,1,23,34.7a7.18,7.18,0,0,1,2.26-.76,8.49,8.49,0,0,1,2,0,1.24,1.24,0,0,0,1.16-.65c.74-1.13,1.38-2.32,2-3.51a9.27,9.27,0,0,1,4.77-4.23,14.59,14.59,0,0,1,3.15-.93c.71-.12,1.44-.16,2.16-.24a.34.34,0,0,1,.41.3,16.67,16.67,0,0,1,.69,4,14.2,14.2,0,0,1-.23,3.19,9.69,9.69,0,0,1-2,4.13c-.71.9-1.44,1.79-2.17,2.68-.17.22-.37.43-.52.66a1.56,1.56,0,0,0,0,1.71,6.37,6.37,0,0,1,.6,2.23,8,8,0,0,1-.45,3.36A7.34,7.34,0,0,1,35.8,48.78Zm2.84-17.14a3.45,3.45,0,0,0-3.37-3.49,3.41,3.41,0,0,0-3.45,3.47,3.41,3.41,0,1,0,6.82,0Z"/><path class="cls-1" d="M35.25,34.21a2.5,2.5,0,0,1-2.58-2.59,2.55,2.55,0,1,1,5.1-.11A2.51,2.51,0,0,1,35.25,34.21Z"/></svg>