<?xml version="1.0" standalone="no"?>
<!DOCTYPE svg PUBLIC "-//W3C//DTD SVG 20010904//EN"
 "http://www.w3.org/TR/2001/REC-SVG-20010904/DTD/svg10.dtd">
<svg version="1.0" xmlns="http://www.w3.org/2000/svg"
 width="1958.000000pt" height="1850.000000pt" viewBox="0 0 1958.000000 1850.000000"
 preserveAspectRatio="xMidYMid meet">
<metadata>
Created by potrace 1.15, written by Peter Selinger 2001-2017
</metadata>
<g transform="translate(0.000000,1850.000000) scale(0.100000,-0.100000)"
fill="#000000" stroke="none">
<path d="M830 15585 l0 -2085 2085 0 2085 0 0 2085 0 2085 -2085 0 -2085 0 0
-2085z"/>
<path d="M830 11005 l0 -2085 2085 0 2085 0 0 2085 0 2085 -2085 0 -2085 0 0
-2085z"/>
<path d="M5410 11005 l0 -2085 2090 0 2090 0 0 2085 0 2085 -2090 0 -2090 0 0
-2085z"/>
<path d="M9990 11005 l0 -2085 2090 0 2090 0 0 2085 0 2085 -2090 0 -2090 0 0
-2085z"/>
<path d="M14580 11005 l0 -2085 2085 0 2085 0 0 2085 0 2085 -2085 0 -2085 0
0 -2085z"/>
<path d="M9990 6425 l0 -2085 2090 0 2090 0 0 2085 0 2085 -2090 0 -2090 0 0
-2085z"/>
<path d="M5210 2195 c-281 -62 -477 -247 -546 -515 -23 -87 -23 -254 -1 -340
10 -36 35 -101 56 -145 68 -138 169 -239 306 -305 129 -62 188 -75 360 -75
174 0 232 13 365 78 111 54 238 177 293 282 107 209 107 461 0 668 -55 107
-181 230 -293 284 -47 23 -112 49 -145 58 -84 23 -310 29 -395 10z m295 -352
c196 -68 296 -270 225 -456 -29 -76 -112 -167 -181 -196 -154 -67 -319 -37
-432 76 -108 108 -131 251 -63 397 73 159 277 240 451 179z"/>
<path d="M16193 2195 c-215 -60 -338 -241 -320 -470 8 -92 21 -133 58 -184 44
-62 106 -96 277 -151 170 -56 196 -69 218 -113 34 -65 -13 -138 -100 -158 -89
-20 -207 17 -309 95 -27 21 -50 36 -52 34 -1 -2 -35 -67 -76 -145 -86 -164
-90 -145 46 -212 135 -67 180 -76 355 -76 136 0 163 3 222 23 202 70 308 241
296 475 -10 191 -99 277 -373 362 -171 53 -216 94 -180 166 49 94 206 91 342
-7 22 -16 23 -14 92 125 l71 141 -49 25 c-28 13 -89 37 -138 51 -111 33 -298
42 -380 19z"/>
<path d="M18170 2195 c-209 -59 -320 -210 -320 -434 0 -113 19 -176 71 -235
52 -59 118 -92 286 -145 165 -52 203 -79 203 -148 0 -36 -6 -50 -28 -73 -79
-79 -241 -57 -385 52 -28 21 -54 34 -58 30 -3 -4 -38 -69 -78 -144 l-72 -137
38 -24 c131 -83 241 -117 393 -124 195 -9 326 27 424 117 99 91 140 195 140
355 0 125 -22 181 -98 253 -64 61 -103 81 -231 122 -158 49 -182 59 -209 87
-30 30 -33 63 -9 104 48 80 210 77 319 -6 20 -15 37 -25 39 -24 8 10 135 270
135 278 0 11 -104 55 -195 82 -95 28 -288 35 -365 14z"/>
<path d="M7592 2180 c-194 -52 -358 -185 -445 -360 -56 -112 -77 -202 -77
-325 0 -262 144 -496 375 -609 115 -56 182 -70 335 -71 121 0 145 3 228 29
l92 29 0 209 c0 114 -2 208 -4 208 -3 0 -34 -22 -70 -49 -80 -61 -149 -84
-241 -84 -135 2 -255 75 -312 191 -25 50 -28 68 -28 152 0 82 4 103 27 152 37
80 96 140 171 174 52 23 75 28 147 28 74 0 93 -4 150 -30 36 -17 84 -50 108
-72 23 -23 44 -42 47 -42 3 0 5 96 5 213 l0 214 -87 28 c-120 38 -310 45 -421
15z"/>
<path d="M830 1511 l0 -671 323 0 c360 0 416 7 518 61 101 54 158 137 179 261
30 174 -54 340 -193 380 -23 6 -44 13 -46 14 -2 2 10 15 27 29 17 14 44 52 59
83 25 51 28 68 28 157 0 133 -20 191 -89 260 -86 86 -98 89 -478 93 l-328 3 0
-670z m511 373 c41 -21 59 -53 59 -104 0 -81 -50 -120 -155 -120 l-55 0 0 126
0 127 62 -7 c34 -4 74 -14 89 -22z m81 -517 c47 -20 71 -58 71 -112 0 -92 -51
-126 -200 -133 l-103 -5 0 138 0 138 98 -5 c54 -3 114 -13 134 -21z"/>
<path d="M2910 1510 l0 -670 385 0 385 0 0 150 0 150 -210 0 -210 0 0 520 0
520 -175 0 -175 0 0 -670z"/>
<path d="M9250 1510 l0 -670 180 0 180 0 0 281 0 281 217 -277 c119 -152 221
-279 227 -281 6 -2 112 -3 235 -2 l223 3 -286 347 c-157 190 -286 349 -286
353 0 3 117 145 260 316 143 170 260 312 260 314 0 3 -99 5 -219 5 l-220 0
-203 -264 -203 -263 -3 263 -2 264 -180 0 -180 0 0 -670z"/>
<path d="M11610 1510 l0 -670 175 0 175 0 0 220 0 220 144 0 c79 0 167 5 196
10 167 32 288 152 320 318 18 89 8 242 -20 315 -26 70 -108 162 -177 200 -97
52 -139 57 -490 57 l-323 0 0 -670z m568 360 c56 -25 87 -89 79 -161 -12 -100
-57 -131 -199 -137 l-98 -4 0 161 0 161 88 0 c65 0 98 -5 130 -20z"/>
<path d="M14076 2172 c-9 -16 -506 -1314 -506 -1323 0 -6 76 -8 187 -7 l187 3
44 108 45 107 237 0 237 0 39 -107 39 -108 194 -3 c182 -2 193 -1 186 15 -4
10 -117 312 -252 671 l-246 652 -193 0 c-106 0 -195 -4 -198 -8z m266 -637
l67 -195 -139 0 -138 0 67 195 c36 107 68 195 71 195 3 0 35 -88 72 -195z"/>
</g>
</svg>
