<svg id="Layer_1" data-name="Layer 1" xmlns="http://www.w3.org/2000/svg" viewBox="0 0 125.4 73.11"><defs><style>.cls-1{fill:#0068ff;}</style></defs><title>svg</title><path class="cls-1" d="M19.18,27.79a2.46,2.46,0,0,1,2.25,1,3,3,0,0,1,.41,2,9.19,9.19,0,0,1-1.32,3.71.59.59,0,0,0,0,.67c.82,1.33,1.62,2.68,2.42,4a.66.66,0,0,0,.42.32,15,15,0,0,1,6.51,4.15,3,3,0,0,1-1.15,4.69,3,3,0,0,1-3.48-1.28c-.89-1.44-1.75-2.91-2.62-4.36-.26-.44-.51-.88-.79-1.31a.52.52,0,0,0-.31-.23,9.16,9.16,0,0,0-3-.27c-.59.07-1.18.17-1.77.28a.5.5,0,0,0-.28.24l-2.52,4.21a17.15,17.15,0,0,1-1.06,1.69A2.9,2.9,0,0,1,9,48.09a2.76,2.76,0,0,1-1.22-2A3.19,3.19,0,0,1,9,43.14a16.06,16.06,0,0,1,5.83-3.51,1.1,1.1,0,0,0,.64-.53q1.17-2,2.37-4a.44.44,0,0,0,0-.51,9.24,9.24,0,0,1-1.3-3.43,4.58,4.58,0,0,1,0-1.61A2.29,2.29,0,0,1,19,27.79ZM13.41,42.52l-.15,0A13.49,13.49,0,0,0,10.06,45a1,1,0,0,0-.15,1.15.65.65,0,0,0,.71.34,1,1,0,0,0,.75-.52l1.38-2.32Zm11.52,0a1.7,1.7,0,0,0,.07.18c.67,1.11,1.32,2.22,2,3.33a1.2,1.2,0,0,0,.39.35.69.69,0,0,0,.95-.17A1,1,0,0,0,28.28,45,13.7,13.7,0,0,0,24.93,42.5Zm-5.81-9.88h.07a3.59,3.59,0,0,0,.2-.51,14.87,14.87,0,0,0,.39-1.7c.06-.38-.19-.56-.61-.57s-.66.18-.65.57A6.26,6.26,0,0,0,19.12,32.62Zm0,4.32-1.16,2h2.33Z"/><path class="cls-1" d="M41.58,40.8c-.08.08-.16.22-.24.22a.41.41,0,0,1-.31-.17c-.14-.23-.24-.49-.37-.73a4,4,0,0,0-4-2.06,4,4,0,0,0-3.15,2.32l-.2.42c-.07.15-.18.29-.37.21s-.21-.25-.11-.43c.37-.67.73-1.35,1.11-2l3-5.22c.17-.3.36-.3.53,0L41,39.69c.16.29.3.58.45.87C41.52,40.62,41.54,40.69,41.58,40.8Zm-4.44-6.89L34.79,38l0,.06a4.94,4.94,0,0,1,4.65,0l0-.06Z"/><path class="cls-1" d="M55.74,36.53V33.34a.57.57,0,0,1,0-.26c.06-.08.17-.19.26-.19s.18.11.24.19a.52.52,0,0,1,0,.22c0,1.64,0,3.27,0,4.91a2.85,2.85,0,1,1-.78-1.89Zm0,1.74A2.2,2.2,0,0,0,53.5,36a2.25,2.25,0,0,0-2.28,2.24,2.31,2.31,0,0,0,2.27,2.31A2.27,2.27,0,0,0,55.74,38.27Z"/><path class="cls-1" d="M77.5,37.08a3.92,3.92,0,0,1,7-2.41c.11.15.23.31,0,.48s-.32.06-.49-.15v0a3.35,3.35,0,0,0-3.69-1.13,3.44,3.44,0,0,0-2.26,3.92,3.34,3.34,0,0,0,3.41,2.71A3.43,3.43,0,0,0,84.29,39l.13-.2c.08-.12.18-.21.32-.12a.24.24,0,0,1,.08.36,5.92,5.92,0,0,1-.53.75A3.7,3.7,0,0,1,80.71,41a3.83,3.83,0,0,1-2.92-2.4A4,4,0,0,1,77.5,37.08Z"/><path class="cls-1" d="M69.49,40c-.26.22-.44.41-.65.56a2.83,2.83,0,1,1,1-3.39,3.32,3.32,0,0,1,.21,1c0,.83,0,1.67,0,2.5,0,.28-.11.43-.3.42s-.29-.16-.3-.43Zm0-1.76A2.26,2.26,0,1,0,65,38.18a2.3,2.3,0,0,0,2.25,2.39A2.26,2.26,0,0,0,69.48,38.26Z"/><path class="cls-1" d="M94.07,40.64c0-.9,0-1.8,0-2.69a2.4,2.4,0,0,1,.7-1.57,2.79,2.79,0,0,1,1.83-.9,2.66,2.66,0,0,1,2.39.93A2.74,2.74,0,0,1,99.61,39a2.49,2.49,0,0,1-.73,1.23,2.72,2.72,0,0,1-1.18.74,2.76,2.76,0,0,1-2.82-.71,1.45,1.45,0,0,0-.29-.19,1.65,1.65,0,0,0-.06.32c0,.89,0,1.78,0,2.67a.63.63,0,0,1,0,.24.28.28,0,0,1-.18.16c-.06,0-.16-.07-.19-.13a.68.68,0,0,1,0-.29V40.64Zm5.11-2.39a2.27,2.27,0,0,0-2.29-2.36,2.38,2.38,0,0,0-2.38,2.58,2.45,2.45,0,0,0,2.37,2.11A2.35,2.35,0,0,0,99.18,38.25Z"/><path class="cls-1" d="M114.37,40c-.12.1-.21.17-.29.25a2.8,2.8,0,0,1-4.65-1.13,2.82,2.82,0,1,1,5.46-1.41,1,1,0,0,1,0,.24c0,1,0,1.9,0,2.85,0,.17,0,.32-.25.32s-.27-.15-.27-.33v-.2c0-.1,0-.21,0-.31A2.43,2.43,0,0,0,114.37,40Zm-2.24-4.06a2.27,2.27,0,0,0-2.3,2.32,2.3,2.3,0,1,0,4.59,0A2.29,2.29,0,0,0,112.13,35.93Z"/><path class="cls-1" d="M91.49,40l-.25.21a2.65,2.65,0,0,1-2.79.76,2.69,2.69,0,0,1-2-2.25,2.83,2.83,0,0,1,5.57-1,2.7,2.7,0,0,1,0,.49v2.65c0,.16-.09.3-.25.26a.43.43,0,0,1-.25-.26,3.21,3.21,0,0,1,0-.54C91.53,40.22,91.51,40.14,91.49,40Zm0-1.72a2.28,2.28,0,0,0-2.29-2.33,2.33,2.33,0,0,0,0,4.66A2.29,2.29,0,0,0,91.53,38.26Z"/><path class="cls-1" d="M43.2,39.37a11.44,11.44,0,0,1,0-1.55,2.74,2.74,0,0,1,2.59-2.41,2.81,2.81,0,0,1,2.92,2,2.93,2.93,0,0,1,.12.72c0,.85,0,1.7,0,2.55,0,.2,0,.36-.27.39s-.32-.14-.32-.38c0-.85,0-1.71,0-2.56A2.23,2.23,0,0,0,43.78,38c-.05.74,0,1.49-.06,2.24,0,.18,0,.35,0,.53s-.06.32-.26.32-.28-.14-.28-.33c0-.46,0-.92,0-1.39Z"/><path class="cls-1" d="M59.25,36.48a2.81,2.81,0,0,1,3.24-.89,4.55,4.55,0,0,1,.51.21.28.28,0,0,1,.14.43c-.1.17-.26.16-.44.08a4.35,4.35,0,0,0-1-.33,2.26,2.26,0,0,0-2.54,2.08c0,.88,0,1.76,0,2.65a.51.51,0,0,1-.17.34.31.31,0,0,1-.28,0,.62.62,0,0,1-.14-.36c0-1,0-2,0-3v-1.9c0-.26.12-.4.32-.4s.29.16.29.4v.62Z"/><path class="cls-1" d="M105,37.37a13.72,13.72,0,0,0,.12,1.45,2.17,2.17,0,0,0,2,1.76c.08,0,.17,0,.23,0a1.2,1.2,0,0,1,.22.23c-.08.07-.16.19-.24.19a2.15,2.15,0,0,1-.67-.05,2.78,2.78,0,0,1-2-2.09,3.83,3.83,0,0,1-.07-.83q0-2.27,0-4.53c0-.08,0-.19,0-.23s.2-.16.28-.13a.32.32,0,0,1,.18.25c0,.54,0,1.09,0,1.63s0,.47.47.47c.62,0,1.25,0,1.87,0,.07,0,.21.09.21.14a.56.56,0,0,1-.12.3s-.17,0-.26,0c-.63,0-1.25,0-1.87,0-.23,0-.31.08-.31.3s0,.73,0,1.09Z"/><path class="cls-1" d="M117.15,37.05V33.57a.63.63,0,0,1,0-.24c0-.09.13-.21.2-.21a.4.4,0,0,1,.26.17.53.53,0,0,1,0,.26V40.6a.52.52,0,0,1-.05.28.34.34,0,0,1-.24.11c-.07,0-.15-.1-.19-.18a.63.63,0,0,1,0-.24Z"/><path class="cls-1" d="M101.67,38.22V35.79c0-.09,0-.18,0-.24a.31.31,0,0,1,.18-.16.31.31,0,0,1,.24.12.68.68,0,0,1,0,.32c0,1.6,0,3.2,0,4.8a.16.16,0,0,0,0,.07c0,.19,0,.37-.26.37s-.24-.19-.24-.37Z"/></svg>