<svg id="Layer_1" data-name="Layer 1" xmlns="http://www.w3.org/2000/svg" viewBox="0 0 532 266"><title>SVG-</title><polygon points="472.93 133.68 490.87 106.56 471.28 106.56 462.85 118.92 472.93 133.68"/><polygon points="472.89 146.22 462.85 160.25 472.34 173.51 491.88 173.51 472.89 146.22"/><path d="M86.06,106.56q9.76,0,14.33,4.9c3,3.27,4.57,10.26,4.57,16.78s-1.59,14.51-4.76,17.77-7.89,4.88-14.14,4.88h-20v22.63H51v-67Zm-20,11.38v21.65H81.21a16,16,0,0,0,4.21-.46,6,6,0,0,0,2.63-1.45,5.24,5.24,0,0,0,1.36-2.55c.26-1,.38-7.38.38-8.82a18,18,0,0,0-.34-3.76,5.22,5.22,0,0,0-1.31-2.61,5.85,5.85,0,0,0-2.7-1.51,16.93,16.93,0,0,0-4.53-.49Z"/><path d="M110,128.65a32.68,32.68,0,0,1,1.46-10.45,16.33,16.33,0,0,1,4.55-7.1,18.91,18.91,0,0,1,7.86-4,44.85,44.85,0,0,1,11.45-1.27h7.13A46,46,0,0,1,153.92,107a18.61,18.61,0,0,1,7.84,4,15.92,15.92,0,0,1,4.48,7.09,34.08,34.08,0,0,1,1.43,10.52v20.93c0,4.07-.49,9.41-1.45,12.3a16.21,16.21,0,0,1-4.5,7.09,18.54,18.54,0,0,1-7.84,4,44.86,44.86,0,0,1-11.45,1.28H135.3A44.81,44.81,0,0,1,123.85,173a18.68,18.68,0,0,1-7.86-4,16.29,16.29,0,0,1-4.55-7.09c-1-2.89-1.46-8.23-1.46-12.3Zm28.36-10a32,32,0,0,0-6,.49,8.52,8.52,0,0,0-4,1.87,7.91,7.91,0,0,0-2.27,3.89,43.27,43.27,0,0,0-.7,8.39v13.56a43,43,0,0,0,.7,8.37,8,8,0,0,0,2.27,3.89,8.45,8.45,0,0,0,4,1.89,32,32,0,0,0,6,.49h1a32,32,0,0,0,6-.49,8.52,8.52,0,0,0,4-1.87,7.83,7.83,0,0,0,2.27-3.89,42.49,42.49,0,0,0,.7-8.39V133.22a42.14,42.14,0,0,0-.7-8.37,7.94,7.94,0,0,0-2.25-3.87,8.19,8.19,0,0,0-4-1.85,33.35,33.35,0,0,0-6-.47Z"/><path d="M189,160.65h25.72v12.87H174v-67h15Z"/><path d="M217.94,128.65a32.66,32.66,0,0,1,1.47-10.45,16.4,16.4,0,0,1,4.54-7.1,19,19,0,0,1,7.87-4,44.85,44.85,0,0,1,11.45-1.27h7.13A46.12,46.12,0,0,1,261.89,107a18.61,18.61,0,0,1,7.84,4,15.92,15.92,0,0,1,4.48,7.09,34.1,34.1,0,0,1,1.42,10.52v20.93c0,4.07-.48,9.41-1.44,12.3a16.21,16.21,0,0,1-4.5,7.09,18.6,18.6,0,0,1-7.84,4,44.92,44.92,0,0,1-11.45,1.28h-7.13A44.81,44.81,0,0,1,231.82,173a18.78,18.78,0,0,1-7.87-4,16.37,16.37,0,0,1-4.54-7.09c-1-2.89-1.47-8.23-1.47-12.3Zm28.37-10a32,32,0,0,0-6,.49,8.52,8.52,0,0,0-4,1.87,7.83,7.83,0,0,0-2.27,3.89,42.49,42.49,0,0,0-.7,8.39v13.56a42.21,42.21,0,0,0,.7,8.37,8,8,0,0,0,2.27,3.89,8.45,8.45,0,0,0,4,1.89,32,32,0,0,0,6,.49h1a32,32,0,0,0,6-.49,8.52,8.52,0,0,0,4-1.87,7.91,7.91,0,0,0,2.27-3.89,43.27,43.27,0,0,0,.7-8.39V133.22a42.9,42.9,0,0,0-.7-8.37,7.94,7.94,0,0,0-2.25-3.87,8.19,8.19,0,0,0-4-1.85,33.47,33.47,0,0,0-6-.47Z"/><path d="M282.78,106.56h17.29l25.05,45.71V106.56h14.11v67h-17.3l-25.05-46.23v46.23h-14.1Z"/><path d="M348.37,106.56h15v67h-15Z"/><path d="M372.46,106.56h46.26v12.87H387.5v13.7h30.2v12.79H387.5v14.73h31.22v12.87H372.46Z"/><path d="M466.38,140l-24.07,33.48H422.8l23.33-33.42-22.27-33.54h19.59L466.38,140"/></svg>