<svg id="Layer_1" data-name="Layer 1" xmlns="http://www.w3.org/2000/svg" viewBox="0 0 532 266"><title>SVG-</title><path d="M352.36,156c-1.9,2.59-3.92,5-6.78,6.32-4.8,2.24-9.7,3.22-14.51,0-1.64-1.11-2.26-2.9-2.8-4.7l-.26-.82c-1.26,1.38-2.37,2.75-3.63,4-4.64,4.48-12.47,5.58-17.74,1.86a11.79,11.79,0,0,1-4.26-6c-.1-.29-.24-.58-.41-1a20.45,20.45,0,0,1-6.45,6.72c-4.13,2.4-8.5,3.45-13.19,1.67-2.61-1-3.9-3.12-4.7-5.63-.15-.47-.23-1-.38-1.6-1.07,1.15-2.09,2.23-3.11,3.31a14.32,14.32,0,0,1-12.08,4.72c-5.11-.43-8.78-2.84-10.72-8.79-1.26,1.5-2.45,3.06-3.79,4.48-3.59,3.8-8,4.85-13.13,4.11a10.56,10.56,0,0,1-6.69-3.3,9.85,9.85,0,0,1-2.17-4.91c-.78-4,.6-7.74,1.22-11.59a16.57,16.57,0,0,0,.09-4.82c-.29-2.11-2.28-3.17-4.52-2.3a17.52,17.52,0,0,0-4.85,2.92c-.7.6-.86,1.93-1.09,3-1.22,5.54-2.38,11.08-3.55,16.62-.23,1.07-.37,2.16-.68,3.2a1.42,1.42,0,0,1-.93.85c-4.36,0-8.71,0-13.12,0l.78-3.39a63,63,0,0,1-6,3,14.63,14.63,0,0,1-9.17.56c-4.22-1.19-6.62-4.53-6.73-9.06A92.73,92.73,0,0,1,178,143c.33-3,.86-6,1.3-9.06-2.7,2.2-5.73,3.27-9.27,2.37a41.72,41.72,0,0,1-3.19,13.3c-3,6.82-7.31,12.35-14.89,14.3-5,1.28-10,1-14.42-1.79a11.07,11.07,0,0,1-5.13-8.34c-1.22-9.91,1.32-19,6.62-27.33a22.3,22.3,0,0,1,13.27-9.92c4-1.1,8.09-1.26,12,.6a9.47,9.47,0,0,1,5,6.46c.6,2.22.76,4.55,1.18,6.83a1.45,1.45,0,0,0,.77.9c3.54,1.62,7.07-.26,8.81-3,.85-1.32.89-3.19,1.24-4.82,1.17-5.46,2.3-10.92,3.47-16.37.53-2.48,1.11-4.95,1.69-7.53l14.39-2c-.67,3-1.33,5.89-1.92,8.75q-1.74,8.47-3.43,16.94c-.92,4.58-1.89,9.15-2.71,13.75-.68,3.81-1.18,7.64-1.73,11.47-.15,1-.15,2.1-.3,3.14-.38,2.77,2.2,4.13,4.7,3.45a8.92,8.92,0,0,0,5.28-4.47c1.7-2.87,2.17-6.14,2.82-9.33,1.26-6.22,2.41-12.47,3.64-18.7,1.46-7.39,2.95-14.77,4.42-22.15.24-1.25.43-2.51.66-3.84l14.39-2-7.48,35.92c1.28-1,2.41-1.81,3.53-2.68L234.14,119a7.7,7.7,0,0,0,1.13-1c1.47-1.72,3.6-1.54,5.52-1.88,2.2-.39,4.43-.61,6.64-.89a1.63,1.63,0,0,1,1.16.27l-19.54,13.68a48.17,48.17,0,0,1,5.39.81c4.36,1.17,6.38,5,6.72,9.14.38,4.52-1.22,8.72-2,13.05a22.43,22.43,0,0,0-.43,3.66A2,2,0,0,0,241,158a6.93,6.93,0,0,0,4.79-2.58,33.16,33.16,0,0,0,3.37-5.27,16.4,16.4,0,0,0,1.64-5.12,43.9,43.9,0,0,1,4.52-15c2.57-5,6.05-9.27,11.17-11.87a18,18,0,0,1,13.05-1.25c1.63.42,2.52,1.69,3.28,3.26.25-1.21.48-2.3.72-3.42l14-1.51c-1,3.68-2,7.24-2.81,10.85-1.09,4.91-2.06,9.85-2.94,14.81-.67,3.76-1.11,7.56-1.67,11.33-.35,2.28,2.43,4.28,5,3.53s3.82-2.85,5.07-5c1.52-2.65,1.14-5.67,1.92-8.45.88-3.13,1.66-6.3,2.77-9.35a28.2,28.2,0,0,1,7.17-11c3.72-3.51,8.05-5.77,13.38-5.57,1.91.07,3.91-.28,5.61.87a23.94,23.94,0,0,1,2.68,2.4l3.92-18.1c.22-1,.37-2.05.68-3a1.29,1.29,0,0,1,.91-.74c4.33-.61,8.67-1.16,13-1.74a5.18,5.18,0,0,0,.91-.35c-.36,1.15-.69,2.06-.93,3-1.87,7.18-3.89,14.33-5.53,21.57-1.45,6.42-2.47,12.93-3.68,19.4-.65,3.48-1.32,7-1.9,10.44a10.06,10.06,0,0,0,0,3.05c.28,1.79,2.5,2.73,4.79,2.17,2.81-.69,5.25-4.13,5.45-6.58.69-8.19,2.68-15.94,7.5-22.76,3.59-5.08,8.28-8.66,14.47-9.78,3.8-.69,7.64-.72,11.15,1.44a9.57,9.57,0,0,1,4.11,5.48,30.66,30.66,0,0,1,1.15,6.41c.18,2.1,1.71,3.53,3.73,2.94a26,26,0,0,0,3.71-1.63c.36-.18.66-.49,1-.69a3.07,3.07,0,0,0,1.7-2.44c.33-2.28,1-4.51,1.5-6.86h-3.06c.25-1.43.48-2.74.72-4.14h3.13c.88-4.05,1.72-8,2.67-12a2.57,2.57,0,0,1,1.28-1.46c4.51-2.28,9.05-4.49,13.08-7.58.76-.58,1.34-1.39,2.18-1.95-1.79,7.57-3.57,15.15-5.41,22.91h10.64c-.25,1.48-.48,2.79-.72,4.21-3.11,0-6.17,0-9.22,0-1,0-1.41.19-1.65,1.38-1.92,9.28-4,18.52-6,27.78a15.85,15.85,0,0,0-.08,2.93c-.06,2.33,2.1,3.07,4,2.64a20.43,20.43,0,0,0,9.05-5l2.3-2a14.23,14.23,0,0,1-2.2,7.13,19.39,19.39,0,0,1-14.26,8.87,23.54,23.54,0,0,1-6.81-.09c-3.12-.53-5.59-4.23-6.06-7.46-.76-5.2.93-10,1.87-15,.49-2.53,1.05-5,1.64-7.88a13,13,0,0,1-8.93,2.27c-.42,2.33-.72,4.57-1.23,6.77-1.44,6.23-4,11.93-8.76,16.35a17.6,17.6,0,0,1-12.19,5,22.92,22.92,0,0,1-7.32-.85A11.79,11.79,0,0,1,352.36,156Zm-87.63-7.8c.11.93.19,2,.38,3.11.64,3.56,3.42,5.1,6.5,3.48a10.7,10.7,0,0,0,5.42-7.22c.74-2.89,1.28-5.84,1.89-8.76.87-4.17,1.8-8.33,2.57-12.51.4-2.18-1.12-3.75-3.32-3.82a7,7,0,0,0-6,3.12C267.19,132.19,265.35,139.9,264.73,148.18Zm50.91-.26a36,36,0,0,0,.4,3.76c.68,3.27,3.25,4.49,6.3,3.09,3.27-1.5,4.9-4.26,5.62-7.61,1.32-6.11,2.58-12.24,3.82-18.37.25-1.27.72-2.66.42-3.83-.59-2.28-2.66-3.08-5.07-2.33-2.57.8-4.2,2.77-5.52,4.91A41.81,41.81,0,0,0,315.64,147.92Zm50.14,1.1c.08.67.24,1.85.33,3a4.11,4.11,0,0,0,6,3.32,10.17,10.17,0,0,0,3.75-3.47c3-4.23,4.15-9.13,5.24-14.05.18-.84.1-1.66-.95-2a1.62,1.62,0,0,1-.72-.72,6.45,6.45,0,0,1,.92-7c1.54-1.55,1.68-2.4.72-4.38-.59-1.22-1.51-2.14-2.9-1.77a8.8,8.8,0,0,0-3.58,1.7c-2.48,2.24-3.92,5.22-5.16,8.28A47.93,47.93,0,0,0,365.78,149ZM162.27,127.11c-.06-.66-.07-1.2-.16-1.72-.52-3-2.13-4.71-5.62-2.71-2.51,1.44-4,3.91-5.18,6.41-3.37,7.06-5.4,14.44-4.78,22.37.31,4,3.4,5.35,6.39,3.79a9.64,9.64,0,0,0,3.26-2.9c3-4.08,4.33-8.83,5.36-13.69.24-1.14.67-2.43-1-2.95-.26-.08-.45-.45-.61-.73C158.72,132.87,159.18,128.18,162.27,127.11Z"/><path d="M101.92,116.44c-3.93-.53-7.68-.25-10.69-2.85a7.74,7.74,0,0,1-2.59-4.91c-.87-5.75,1.63-10.26,5.37-14.24a42.73,42.73,0,0,1,13.21-9.63,47.07,47.07,0,0,1,14.67-4.37c5.13-.56,10.23-.6,15.21,1.1a20.79,20.79,0,0,1,8,4.6,18.13,18.13,0,0,1,5.38,11.06c.86,6.86-1.22,12.86-5.07,18.35a26.41,26.41,0,0,1-8.8,7.74,30.07,30.07,0,0,1-10.36,3.59c-1.67.25-3.39.24-5.16.35-1.07,4.63-2.06,9.27-3.21,13.87-1.69,6.76-3.32,13.55-5.3,20.22-1.79,6-6.29,9.26-12.34,10.39-1.74.32-3.52.42-5.46.64,1.1-4.32,2.23-8.44,3.2-12.6,2-8.29,3.89-16.58,5.71-24.91s3.4-17,5.32-25.42c1.28-5.65,3-11.2,4.45-16.8.67-2.54,2.54-3.57,4.87-4.17A12.22,12.22,0,0,1,128,89.79a1.3,1.3,0,0,1,.63,1.71c-1.55,7-3.13,13.88-4.63,20.83-.72,3.33-1.3,6.68-1.94,10a5.08,5.08,0,0,0,.08,1,35.82,35.82,0,0,0,4.6-1.71,21.1,21.1,0,0,0,8.13-8.13,30.14,30.14,0,0,0,4.21-13,16.33,16.33,0,0,0-2.24-10.7,10.29,10.29,0,0,0-7.4-4.64c-4.21-.7-8.28,0-12.31,1.13a22.88,22.88,0,0,0-11.86,7.9,21.43,21.43,0,0,0-4.63,9.3C99.76,107.79,99.36,112.1,101.92,116.44Z"/><path d="M437.16,148.91a7.6,7.6,0,0,1,7.94,7.78,7.77,7.77,0,0,1-8.09,8.08,7.93,7.93,0,1,1,.15-15.86Z"/></svg>