<?xml version="1.0" encoding="utf-8"?>
<!-- Generator: Adobe Illustrator 23.0.1, SVG Export Plug-In . SVG Version: 6.00 Build 0)  -->
<svg version="1.1" id="Layer_1" xmlns="http://www.w3.org/2000/svg" xmlns:xlink="http://www.w3.org/1999/xlink" x="0px" y="0px"
	 viewBox="0 0 1031 246" style="enable-background:new 0 0 1031 246;" xml:space="preserve">
<style type="text/css">
	.st0{fill:#FFFFFF;}
</style>
<g>
	<circle cx="123" cy="123" r="120"/>
</g>
<path class="st0" d="M139,63L139,63H81v120h24v-36h34v0c23.2,0,42-18.8,42-42C181,81.8,162.2,63,139,63z M139,123L139,123l-34,0V87
	h34v0c9.9,0,18,8.1,18,18C157,114.9,148.9,123,139,123z"/>
<g>
	<path d="M323,163V83h36.8c17.1,0,26.4,11.5,26.4,25.3c0,13.7-9.4,25.2-26.4,25.2h-20V163H323z M369.1,108.3
		c0-6.6-5.1-10.6-11.7-10.6h-17.7v21.1h17.7C364,118.8,369.1,114.8,369.1,108.3z"/>
	<path d="M396.3,163v-58.3h15v7.7c4.1-5,11.1-9.1,18.2-9.1v14.6c-1.1-0.2-2.4-0.4-4.1-0.4c-5,0-11.6,2.8-14,6.5v39H396.3z"/>
	<path d="M435.1,133.1c0-16.1,11.3-29.8,30-29.8c18.9,0,30.2,13.7,30.2,29.8S484,163,465.1,163C446.4,163,435.1,149.2,435.1,133.1z
		 M479.8,133.1c0-8.8-5.2-16.5-14.6-16.5c-9.3,0-14.5,7.7-14.5,16.5c0,9,5.2,16.6,14.5,16.6C474.6,149.7,479.8,142,479.8,133.1z"/>
	<path d="M545.7,163v-8.7c-4.5,5.7-10.6,8.7-17.6,8.7c-14.3,0-25.2-10.8-25.2-29.9c0-18.5,10.7-29.8,25.2-29.8
		c6.7,0,13.1,2.8,17.6,8.7V83h15.1v80H545.7z M545.7,143.2v-20.1c-2.5-3.8-7.9-6.5-12.8-6.5c-8.6,0-14.5,6.7-14.5,16.5
		c0,9.9,5.9,16.6,14.5,16.6C537.8,149.7,543.2,147,545.7,143.2z"/>
	<path d="M614,163v-8.6c-3.9,4.2-10.7,8.6-20,8.6c-12.5,0-18.4-6.8-18.4-17.9v-40.4h15v34.5c0,7.9,4.1,10.5,10.5,10.5
		c5.8,0,10.4-3.2,13-6.5v-38.5h15V163H614z"/>
	<path d="M640.2,133.1c0-17.4,12.7-29.8,30.2-29.8c11.7,0,18.7,5.1,22.5,10.3l-9.8,9.2c-2.7-4-6.8-6.1-12-6.1
		c-9.1,0-15.4,6.6-15.4,16.5s6.4,16.6,15.4,16.6c5.2,0,9.3-2.4,12-6.2l9.8,9.2c-3.8,5.2-10.8,10.4-22.5,10.4
		C652.9,163,640.2,150.6,640.2,133.1z"/>
	<path d="M705.8,147.3v-29.6h-9.4v-13.1h9.4V89.1h15v15.6h11.5v13.1h-11.5v25.6c0,3.7,1.9,6.4,5.2,6.4c2.2,0,4.4-0.8,5.2-1.8
		l3.2,11.4c-2.2,2-6.2,3.7-12.5,3.7C711.3,163,705.8,157.6,705.8,147.3z"/>
	<path d="M828.1,163v-34.5H791V163h-16.7V83H791v30.9h37.1V83H845v80H828.1z"/>
	<path d="M898.5,163v-8.6c-3.9,4.2-10.7,8.6-20,8.6c-12.5,0-18.4-6.8-18.4-17.9v-40.4h15v34.5c0,7.9,4.1,10.5,10.5,10.5
		c5.8,0,10.4-3.2,13-6.5v-38.5h15V163H898.5z"/>
	<path d="M966.7,163v-35.8c0-7.9-4.1-10.6-10.5-10.6c-5.9,0-10.4,3.3-13,6.6V163h-15v-58.3h15v7.3c3.7-4.2,10.7-8.7,19.9-8.7
		c12.6,0,18.6,7.1,18.6,18.1V163H966.7z"/>
	<path d="M999.7,147.3v-29.6h-9.4v-13.1h9.4V89.1h15v15.6h11.5v13.1h-11.5v25.6c0,3.7,1.9,6.4,5.2,6.4c2.2,0,4.4-0.8,5.2-1.8
		l3.2,11.4c-2.2,2-6.2,3.7-12.5,3.7C1005.2,163,999.7,157.6,999.7,147.3z"/>
</g>
</svg>
