<svg xmlns="http://www.w3.org/2000/svg" xmlns:xlink="http://www.w3.org/1999/xlink" viewBox="0 0 32 31">
  <defs>
    <style>
      .cls-1 {
        clip-path: url(#clip-reddit);
      }

      .cls-2 {
        fill: none;
        stroke: #000;
        stroke-miterlimit: 10;
      }

      .cls-3 {
        fill: #fff;
      }
    </style>
    <clipPath id="clip-reddit">
      <rect width="32" height="31"/>
    </clipPath>
  </defs>
  <g id="reddit" class="cls-1">
    <rect class="cls-3" width="32" height="31"/>
    <g id="Group_1" data-name="Group 1" transform="translate(5.514 6.007)">
      <ellipse id="Ellipse_5" data-name="Ellipse 5" class="cls-2" cx="9.374" cy="6.144" rx="9.374" ry="6.144" transform="translate(0.733 5.405)"/>
      <circle id="Ellipse_6" data-name="Ellipse 6" class="cls-2" cx="1.812" cy="1.812" r="1.812" transform="translate(15.542 0.915)"/>
      <path id="Path_3103" data-name="Path 3103" class="cls-2" d="M18.371,1.939,14.039.6,12.7,5.405" transform="translate(-2.593)"/>
      <path id="Path_3104" data-name="Path 3104" class="cls-2" d="M23.948,13.321a2.2,2.2,0,0,0,1.024-3.072A2.2,2.2,0,0,0,21.9,9.225" transform="translate(-4.546 -1.771)"/>
      <path id="Path_3105" data-name="Path 3105" class="cls-2" d="M4.593,7.764a2.206,2.206,0,0,0-3.23-.315,2.206,2.206,0,0,0-.315,3.23" transform="translate(0 -1.334)"/>
      <path id="Path_3106" data-name="Path 3106" class="cls-2" d="M8.3,17.4s1.024,1.339,3.781,1.339S15.074,17.4,15.074,17.4" transform="translate(-1.659 -3.567)"/>
      <circle id="Ellipse_7" data-name="Ellipse 7" class="cls-2" cx="1.339" cy="1.339" r="1.339" transform="translate(5.46 8.635)"/>
      <circle id="Ellipse_8" data-name="Ellipse 8" class="cls-2" cx="1.339" cy="1.339" r="1.339" transform="translate(11.998 8.635)"/>
    </g>
  </g>
</svg>
