<svg id="Layer_1" data-name="Layer 1" xmlns="http://www.w3.org/2000/svg" viewBox="0 0 532 266"><title>SVG-</title><path d="M353.59,142.43H320.41a4.84,4.84,0,0,0-2.21.17c-.37.21-.27,1.21-.39,1.86,0,.19-.16.37-.18.56a36.88,36.88,0,0,1-3.76,12.28,43.1,43.1,0,0,1-12.19,15.15,43.63,43.63,0,0,1-12.46,7,48,48,0,0,1-11.45,2.44,41,41,0,0,1-11.56-.63,40,40,0,0,1-13.8-5.43,45.43,45.43,0,0,1-11.68-10.11,40.91,40.91,0,0,1-5.88-9.72,46.09,46.09,0,0,1-3.33-12.17c-.14-1.1-.39-1.39-1.47-1.39-11.12,0-22.24,0-33.36,0h-1.24c1.51,23.89,11.34,43.44,29.93,58.28s40.13,19.74,63.54,15.85C325.23,210.54,352.9,177.83,353.59,142.43Zm.28-7.73c-1.63-24-11.5-43.65-30.22-58.51S283.2,56.5,259.78,60.68c-21.21,3.78-37.93,15.07-50.3,32.63a75.66,75.66,0,0,0-13.94,41.14h35.69a43.93,43.93,0,0,1,48.56-39,42.27,42.27,0,0,1,24,11c8.43,7.51,12.9,17.14,14.21,28.28Zm-115,3.83a35.75,35.75,0,1,0,37.4-35.69A35.51,35.51,0,0,0,238.91,138.53Z"/><path d="M353.59,142.43c-.69,35.4-28.36,68.11-64.67,74.13-23.41,3.89-44.86-.94-63.54-15.85S197,166.32,195.45,142.43h1.24c11.12,0,22.24,0,33.36,0,1.08,0,1.33.29,1.47,1.39A46.09,46.09,0,0,0,234.85,156a40.91,40.91,0,0,0,5.88,9.72,45.43,45.43,0,0,0,11.68,10.11,40,40,0,0,0,13.8,5.43,41,41,0,0,0,11.56.63,48,48,0,0,0,11.45-2.44,43.63,43.63,0,0,0,12.46-7,43.1,43.1,0,0,0,12.19-15.15A36.88,36.88,0,0,0,317.63,145c0-.19.14-.37.18-.56.12-.65,0-1.65.39-1.86a4.84,4.84,0,0,1,2.21-.17h33.18Z"/><path d="M353.87,134.7H318c-1.31-11.14-5.78-20.77-14.21-28.28a43.07,43.07,0,0,0-56.36-1.59,43,43,0,0,0-16.16,29.62H195.54a75.66,75.66,0,0,1,13.94-41.14c12.37-17.56,29.09-28.85,50.3-32.63,23.42-4.18,45.06.58,63.87,15.51S352.24,110.73,353.87,134.7Z"/><path d="M238.91,138.53a35.75,35.75,0,1,1,34.53,35.79A35.51,35.51,0,0,1,238.91,138.53Z"/></svg>