<?xml version="1.0" encoding="utf-8"?>
<!-- Generator: Adobe Illustrator 23.0.0, SVG Export Plug-In . SVG Version: 6.00 Build 0)  -->
<svg version="1.1" id="图层_1" xmlns="http://www.w3.org/2000/svg" xmlns:xlink="http://www.w3.org/1999/xlink" x="0px" y="0px"
	 viewBox="0 0 652 144.6" style="enable-background:new 0 0 652 144.6;" xml:space="preserve">
<g id="XMLID_1833_">
	<path d="M186.4,64.7c-7-2.6-15.2-6.4-15.2-17.8c0-10.5,7.3-18.4,24.5-18.4c10,0,15.3,2.3,17.1,3c-0.2,4.3-0.2,8.1,0,12.3h-3.5
		l-1.1-3.1c-1.6-4.6-4.4-8.1-11.8-8.1c-9.5,0-12.5,4.5-12.5,10c0,5.8,2.8,7.9,9,10.3l8.7,3.3c9.4,3.5,14.3,8.7,14.3,18.7
		c0,9.4-6.4,19.6-25.4,19.6c-10,0-16.7-2.2-18.5-2.9c0.2-4.3,0.2-9.4,0-13.7h4l1.1,4.4c1.3,4.7,4.4,8,13,8c8.1,0,12.9-4,12.9-11.2
		c0-5.3-2.5-9.2-8.1-11.2L186.4,64.7z M246.6,29.7c12.6,0,23.7,1.4,23.7,14.5c0,8.9-6,12.7-12.9,14.1c8.2,0.5,15.1,6.3,15.1,15.8
		c0,15.6-10.5,19.1-26.4,19.1h-24v-2c3.2-0.7,3.6-1.6,3.6-5.1V36.8c0-3.4-0.5-4.4-3.6-5.1v-2H246.6z M239.4,56.4h6
		c7.3,0,11.2-2.6,11.2-11.2s-3.6-11.6-10.6-11.6h-2.6c-3.4,0-3.9,1-3.9,3.7V56.4z M239.4,60.4v23.5c0,4.1,0.8,5.3,5.3,5.3h2.5
		c7.3,0,11.4-4.6,11.4-14.5c0-9.5-3.5-14.2-13.6-14.2H239.4z M301.2,33.7c-2.7,0-3.2,0.7-3.2,2.9v19.7h8.4c3.5,0,9.1-0.4,11.2-1.9v8
		c-2.2-1.5-7.7-1.9-11.2-1.9H298v23.7c0,3.8,1.5,5.1,9.9,5.1h1.8c8.2,0,10.4-0.5,12.2-8.4l0.5-2.4h4c-0.2,4.9-0.2,9.9,0,14.8h-45.7
		v-2c3.2-0.7,3.6-1.6,3.6-5.1V36.8c0-3.4-0.5-4.4-3.6-5.1v-2h44.3c-0.2,4.6-0.2,9.2,0,13.8h-3.4l-0.8-2.6c-2-6.5-4.3-7.2-12.5-7.2
		H301.2z M388.5,93.2h-17.4c-1.1-3.4-6-16.1-7.8-20.7l-3.5-8.5h-7.4v22.1c0,3.5,0.5,4.4,3.6,5.1v2h-20.9v-2c3.2-0.7,3.6-1.6,3.6-5.1
		V36.8c0-3.4-0.4-4.4-3.6-5.1v-2h25.3c13.6,0,23,3.3,23,16.7c0,9.2-5.3,13.6-11.2,15.7C373.5,64.4,383.3,85.6,388.5,93.2 M358.2,60
		c8.8,0,11.3-4.5,11.3-13.2c0-9.2-4.1-13.1-10.1-13.1h-3.1c-2.7,0-4,0.5-4,3.4V60H358.2z M418.8,29.7c12.6,0,23.7,1.4,23.7,14.5
		c0,8.9-6,12.7-12.9,14.1c8.2,0.5,15.1,6.3,15.1,15.8c0,15.6-10.5,19.1-26.4,19.1h-24v-2c3.2-0.7,3.6-1.6,3.6-5.1V36.8
		c0-3.4-0.5-4.4-3.6-5.1v-2H418.8z M411.6,56.4h6c7.3,0,11.1-2.6,11.1-11.2s-3.6-11.6-10.6-11.6h-2.6c-3.4,0-3.9,1-3.9,3.7V56.4z
		 M411.6,60.4v23.5c0,4.1,0.8,5.3,5.3,5.3h2.5c7.3,0,11.4-4.6,11.4-14.5c0-9.5-3.5-14.2-13.6-14.2H411.6z M491.4,93.2
		c-0.5-3.5-2.5-9.8-4.3-14.9l-2.7-8.1h-20.1c-2.1,6.4-3.6,11.5-4.4,15.2c-0.7,3.6-1.3,6.3-1.4,7.8H447c1.5-2.5,4.4-8.1,8.8-18.7
		l11.7-28.8c2.6-6.4,3.1-8.4,3.1-10.3c0-1.3-0.4-3-3.6-3.7v-2h18.1c0.3,1.9,0.5,4.1,2.4,9.4l13.3,38c2.6,7.4,5.4,13.8,6.8,16.1
		H491.4z M483.1,66l-8.5-25.6L465.7,66H483.1z M522.4,41.1v45c0,3.5,0.9,4.4,4.5,5.1v2h-15.4v-2c3.6-0.7,4.5-1.6,4.5-5.1V36.8
		c0-3.4-1-4.6-4.5-5.1v-2h19.3c1.4,2.4,3.8,6.3,9.6,14.5l19.1,26.4V36.8c0-3.4-0.9-4.4-4.5-5.1v-2h15.4v2c-3.6,0.7-4.5,1.6-4.5,5.1
		v56.9h-6L522.4,41.1z M582.8,36.8c0-3.4-0.5-4.4-3.6-5.1v-2h20.9v2c-3.2,0.7-3.6,1.6-3.6,5.1v49.3c0,3.5,0.4,4.4,3.6,5.1v2h-20.9
		v-2c3.2-0.7,3.6-1.6,3.6-5.1V36.8z M616.6,65.3c4.4,6.3,14.8,20.2,22.3,27.8h-21.3c-1.5-3.4-3.8-8.9-10.4-18.9l-9.6-14.4l8.3-10.8
		c5-6.4,11.4-15.1,13.1-19.4h14.9v0.1c-6,3.5-16.1,13.6-19,16.8l-6.6,7.1L616.6,65.3z"/>
	<rect id="XMLID_1_" x="172" y="109" width="466.8" height="6.4"/>
</g>
<path d="M52.4,87.4l-37-21.3c-0.1,1.2-0.1,2.5-0.1,3.8c0,3.8,0.3,7.6,1,11.4c1.3,7.2,3.8,13.8,7.3,19.7c4.4,7.6,10.4,14,17.4,19
	c4.7,3.4,9.9,6.1,15.4,8c2.2,0.7,4.4,1.4,6.6,1.9c4.3,1,8.8,1.5,13.4,1.5c1,0,1.9,0,2.9-0.1c1.6-0.1,3.2-0.2,4.8-0.4
	c8.1-1,16-3.7,23-7.8c3.5-2.1,6.8-4.5,9.9-7.2c3.4-3.1,6.5-6.5,9.2-10.2c5-7,8.5-15,10.2-23.6c0.2-1.2,0.4-2.3,0.6-3.5
	c0.4-2.7,0.6-5.5,0.6-8.3c0-0.3,0-0.6,0-0.9c0-2.8-0.3-5.5-0.7-8.4c-1-6.5-3-12.8-6-18.7L52.4,87.4z M52.4,72L18,52.2
	c-0.4,1.4-0.8,2.8-1.1,4.2c-0.2,0.8-0.4,1.7-0.5,2.5l36.1,20.8l75-43.2c-0.1-0.2-0.2-0.4-0.4-0.6c-0.4-0.6-0.8-1.1-1.2-1.6
	c-0.6-0.8-1.2-1.7-1.9-2.5c-0.2-0.2-0.4-0.5-0.6-0.7L52.4,72z M52.4,56.6L23.3,39.8c-1.1,1.9-2.1,3.9-3,6l32.1,18.5l66.4-38.2
	c-1.7-1.6-3.5-3.2-5.4-4.6L52.4,56.6z M52.4,41.2L31.2,29c-1.5,1.7-2.9,3.4-4.3,5.2l25.5,14.7l54.8-31.5c-2.3-1.3-4.7-2.5-7.1-3.6
	L52.4,41.2z"/>
</svg>
