<svg id="Layer_1" data-name="Layer 1" xmlns="http://www.w3.org/2000/svg" viewBox="0 0 532 266"><defs><style>.cls-1{isolation:isolate;}</style></defs><title>SVG-</title><g class="cls-1"><path d="M37,156V152.7a1.28,1.28,0,0,1,1.45-1.45h4.67a1.28,1.28,0,0,1,1.45,1.45v2.7q0,9.33,9.23,9.33h9.12q9.23,0,9.22-9.54v-3.52q0-7.47-12.33-9.75-5.19-.93-10.37-2.18a18.39,18.39,0,0,1-8.81-4.82Q37,131.35,37,125.13v-5.08q0-7.15,4.1-11.25t11.24-4.1H63.84q7.05,0,11.2,4.1t4.14,11.25v2.59c0,1-.45,1.55-1.34,1.55H73.07c-.9,0-1.35-.51-1.35-1.55v-1.87q0-9.42-9.23-9.43H53.68q-9.23,0-9.23,9.85v4.14q0,5.3,6.95,7.26c2.07.55,4.35,1.06,6.84,1.51a74.85,74.85,0,0,1,7.52,1.76,37.3,37.3,0,0,1,6.89,2.69,12.34,12.34,0,0,1,5,4.88,15.35,15.35,0,0,1,1.92,7.93V156q0,7.15-4.15,11.25c-2.76,2.73-6.5,4.09-11.19,4.09H52.33q-7,0-11.19-4.09T37,156Z"/><path d="M129.26,171.36H96.7a1.28,1.28,0,0,1-1.45-1.45V106.15a1.28,1.28,0,0,1,1.45-1.45h32.56a1.29,1.29,0,0,1,1.45,1.45v3.74a1.28,1.28,0,0,1-1.45,1.45h-25.4c-.69,0-1,.31-1,.93v20.94c0,.62.35.93,1,.93H126a1.29,1.29,0,0,1,1.45,1.46v3.73a1.28,1.28,0,0,1-1.45,1.45H103.86c-.69,0-1,.31-1,.94V163.8c0,.62.35.93,1,.93h25.4a1.29,1.29,0,0,1,1.45,1.45v3.73A1.28,1.28,0,0,1,129.26,171.36Z"/><path d="M171.76,171.36H159.32q-7.15,0-11.25-4T144,156v-36q0-7.26,4.09-11.3t11.25-4h12.44q7.16,0,11.25,4t4.09,11.3v5.08a1.28,1.28,0,0,1-1.45,1.45H181a1.28,1.28,0,0,1-1.45-1.45v-4.77q0-9-8.71-9H160.15q-8.61,0-8.6,9v35.35q0,9,8.6,9h10.68q8.7,0,8.71-9v-4.77a1.28,1.28,0,0,1,1.45-1.45h4.66a1.28,1.28,0,0,1,1.45,1.45V156q0,7.26-4.09,11.3T171.76,171.36Z"/><path d="M236.56,104.7h4.66c1,0,1.45.45,1.45,1.35v50q0,7.26-4,11.3t-11.19,4H215.93q-7.16,0-11.25-4t-4.1-11.3V106.15A1.29,1.29,0,0,1,202,104.7h4.66a1.28,1.28,0,0,1,1.45,1.45v49.56q0,9,8.61,9h9.74q8.72,0,8.71-9V106.15C235.21,105.19,235.66,104.7,236.56,104.7Z"/><path d="M258.53,152.23V106.15A1.29,1.29,0,0,1,260,104.7h23.85q7.16,0,11.3,4.1t4.15,11.25v9.43a15.73,15.73,0,0,1-2.8,9.59,13.33,13.33,0,0,1-7.78,5v.41l12,25.2c.62,1.1.27,1.65-1,1.65H295a2.77,2.77,0,0,1-2.59-1.45l-11.61-25.09H267.14c-.69,0-1,.32-1,.94v6.47m1-13.73h15.65q8.93,0,8.92-8.91v-9.23q0-9-8.92-9H267.14c-.69,0-1,.31-1,.93v25.3C266.1,138.19,266.45,138.5,267.14,138.5Z"/><path d="M322.29,106.15v63.76a1.28,1.28,0,0,1-1.45,1.45h-4.66a1.29,1.29,0,0,1-1.46-1.45V106.15a1.29,1.29,0,0,1,1.46-1.45h4.66A1.28,1.28,0,0,1,322.29,106.15Z"/><path d="M355.47,171.36H350.8a1.28,1.28,0,0,1-1.45-1.45V112.27c0-.62-.35-.93-1-.93h-14.1c-1,0-1.55-.48-1.55-1.45v-3.74c0-1,.52-1.45,1.55-1.45h37.85c1,0,1.55.49,1.55,1.45v3.74c0,1-.52,1.45-1.55,1.45H358c-.69,0-1,.31-1,.93v57.64A1.28,1.28,0,0,1,355.47,171.36Z"/><path d="M391.54,106.15v63.76a1.28,1.28,0,0,1-1.45,1.45h-4.66a1.29,1.29,0,0,1-1.46-1.45V106.15a1.29,1.29,0,0,1,1.46-1.45h4.66A1.28,1.28,0,0,1,391.54,106.15Z"/><path d="M404.81,169.91v-3.73a4.58,4.58,0,0,1,.62-2.69l32.14-51.32v-.42h-30a1.28,1.28,0,0,1-1.45-1.45v-4.15a1.28,1.28,0,0,1,1.45-1.45h36.7a1.28,1.28,0,0,1,1.45,1.45v5a5.09,5.09,0,0,1-.83,2.91l-31.3,49.86v.42h31.72c1,0,1.45.45,1.45,1.34v4.15c0,1-.48,1.55-1.45,1.55H406.26A1.28,1.28,0,0,1,404.81,169.91Z"/><path d="M493.56,171.36H461a1.28,1.28,0,0,1-1.45-1.45V106.15A1.29,1.29,0,0,1,461,104.7h32.56a1.28,1.28,0,0,1,1.45,1.45v3.74a1.28,1.28,0,0,1-1.45,1.45h-25.4c-.69,0-1,.31-1,.93v20.94c0,.62.35.93,1,.93h22.18a1.29,1.29,0,0,1,1.46,1.46v3.73a1.29,1.29,0,0,1-1.46,1.45H468.16c-.69,0-1,.31-1,.94V163.8c0,.62.35.93,1,.93h25.4a1.28,1.28,0,0,1,1.45,1.45v3.73A1.28,1.28,0,0,1,493.56,171.36Z"/></g><circle class="cls-1" cx="262.99" cy="165.61" r="5.76"/></svg>