<svg id="Layer_1" data-name="Layer 1" xmlns="http://www.w3.org/2000/svg" viewBox="0 0 532 266"><title>SVG-</title><path d="M279.73,118.38c.77,1,1.55,2,2.38,3a8.27,8.27,0,0,1,2,4.69,12.54,12.54,0,0,1-9.58,14.15c-5,1.3-9.84,1.23-14.46-1.15s-7.13-6.36-6.86-11.86h8.57a5.46,5.46,0,0,0,3.53,5.13,8.13,8.13,0,0,0,8.26-.77,4.51,4.51,0,0,0-1.92-8,30,30,0,0,0-4.45-.5c-5.19-.29-9.5-2.24-12.21-6.82-1.83-3.08-2.09-6.54-1.65-10.07a13,13,0,0,1,2.22-6A14.36,14.36,0,0,1,265.2,94a20.06,20.06,0,0,1,9.14.45A2.26,2.26,0,0,0,276,94a4.12,4.12,0,0,0,1.29-1.52c.51-1,1.05-1.08,1.92-.43,1.85,1.39,3.74,2.72,5.66,4.11-1,1.17-1.9,2.29-2.84,3.38-.36.43-.49.71-.08,1.27a11.92,11.92,0,0,1,2.24,8.86c-.26,2.19-.61,4.29-2,6A35.37,35.37,0,0,1,279.73,118.38Zm-4.26-9.85c0-4-2.9-7.2-6.71-7.12-4.41.1-6.82,3-6.89,6.93s2.39,6.79,6.7,6.93A6.51,6.51,0,0,0,275.47,108.53Z"/><path d="M201.81,90.56l-6.88,3.5a31.43,31.43,0,0,0-3.6-3c-3.2-1.95-8.52-2.3-11.8.35-1.81,1.45-2,4,.45,5a46.52,46.52,0,0,0,6.64,1.83c2.81.68,5.7,1.09,8.44,2,4.9,1.58,7.62,5.22,7.71,10.65a12.26,12.26,0,0,1-2.68,8.56,13.72,13.72,0,0,1-5.84,3.81,26.86,26.86,0,0,1-12,1.37c-4.55-.39-8.82-1.82-11.81-5.59a48.17,48.17,0,0,1-3.12-5l7.63-4a30.73,30.73,0,0,0,1.75,2.82,10,10,0,0,0,7.29,3.62c2.78.29,5.61.17,8.08-1.54a4,4,0,0,0,1.83-3.94,3.43,3.43,0,0,0-2.71-3.07c-3.11-.79-6.24-1.46-9.36-2.19s-6.2-1.24-8.78-3.33a9.68,9.68,0,0,1-3.28-5.44,12.11,12.11,0,0,1,.75-8.07c1.32-2.89,3.74-4.48,6.49-5.65a21,21,0,0,1,9.68-1.73,21.79,21.79,0,0,1,10.76,3.33A13.09,13.09,0,0,1,201.81,90.56Z"/><path d="M365.66,94.67v29h-7.74c-.13-.71-.26-1.45-.41-2.25-4.82,4.36-13.23,3.94-17.93.29a13.58,13.58,0,0,1-5.08-9.52,19.08,19.08,0,0,1,.7-9,12.8,12.8,0,0,1,10.9-9c2.67-.39,5.36-.58,7.92.5a35.7,35.7,0,0,1,3.5,1.94,3.89,3.89,0,0,0,0-.61c-.07-1,.3-1.41,1.37-1.37C361.15,94.73,363.37,94.67,365.66,94.67Zm-15.65,7c-4.41-.16-7.31,3.16-7.33,7.28,0,4.89,3.1,7.75,7.26,7.83a7.38,7.38,0,0,0,7.42-7.47C357.48,105.26,354.15,101.28,350,101.63Z"/><path d="M466.63,94.68c-.48,1.24-.88,2.33-1.34,3.39-3.1,7.17-6.23,14.34-9.32,21.52-1.87,4.34-3.7,8.7-5.55,13a8,8,0,0,1-.77,1.7,2,2,0,0,1-1.29.85c-2.71.08-5.43,0-8.32,0,.78-1.95,1.49-3.79,2.27-5.61.89-2.08,1.9-4.12,2.72-6.23a3.13,3.13,0,0,0,0-2.09c-3.39-8.4-6.84-16.78-10.26-25.17-.17-.42-.27-.88-.45-1.45,3.08,0,6-.06,9,.06.41,0,.93.86,1.14,1.42.86,2.3,1.62,4.64,2.43,7,1.06,3,2.14,6.11,3.25,9.27,1.18-2.87,2.33-5.64,3.47-8.42s2.23-5.58,3.41-8.34a1.64,1.64,0,0,1,1.11-.91C460.86,94.64,463.66,94.68,466.63,94.68Z"/><path d="M241.39,123.71c0-5.2.07-10.24,0-15.27,0-2.24-.65-4.33-2.76-5.67a6,6,0,0,0-8.94,3.63,21.22,21.22,0,0,0-.48,4.21c-.07,4.31,0,8.62,0,13h-8.09V94.44h6.49c.82,0,1,.69,1.1,1.29a9.29,9.29,0,0,1,0,1.52c.81-.53,1.41-1,2-1.32a12.6,12.6,0,0,1,5.64-1.78A11.73,11.73,0,0,1,244,96a11.22,11.22,0,0,1,5.24,8.32c.42,4.22.4,8.49.53,12.73.06,1.84,0,3.68,0,5.52,0,.81-.29,1.19-1.2,1.17C246.24,123.68,243.89,123.71,241.39,123.71Z"/><path d="M308.59,94.73h8.1v28.89h-7.33l-.46-2.48a37.15,37.15,0,0,1-3.51,2,12.32,12.32,0,0,1-13.75-2.37,12.15,12.15,0,0,1-3.42-8.28c-.17-5.62-.19-11.24-.27-16.86v-.89h8.4V96c0,4.64,0,9.28,0,13.91a8.38,8.38,0,0,0,1.3,4.32c1.41,2.32,6,2.75,8,1a7.92,7.92,0,0,0,2.87-6.4c.05-4.24,0-8.48,0-12.71Z"/><path d="M415.83,102.1H410.9V94.5h4.94v-7l8.39-.87v7.7h7.64v7.73h-7.59c0,4-.09,7.79,0,11.61.07,2.06,1.81,3.05,3.82,2.42.89-.27,1.77-.57,2.7-.87.76,2.25,1.52,4.42,2.2,6.61a1.07,1.07,0,0,1-.4,1c-3.45,1.15-7,1.72-10.54.6a8.1,8.1,0,0,1-5.92-7.46c-.36-4.35-.23-8.75-.31-13.13C415.87,102.67,415.85,102.47,415.83,102.1Z"/><path d="M391.05,104.42c-1.69-1.41-3.35-2.44-5.45-2.3-3.29.22-5.74,2.08-5.73,5.83,0,5.19,0,10.39,0,15.67h-8.32V94.74h7.51c.13.46.28,1,.46,1.57a10.06,10.06,0,0,1,7.23-2.58,12,12,0,0,1,6.93,2.2c.81.6,1.34,1.17.63,2.33C393.14,100.2,392.18,102.26,391.05,104.42Z"/><path d="M322.6,83.21h8v40.45h-8Z"/><path d="M398,94.49h8v29.13h-8Z"/><path d="M207.16,94.73h8v28.89h-8Z"/><path d="M94.73,166.91c4-.29,7.57,3.56,7.5,7.52a7.51,7.51,0,0,1-7.57,7.36,7.44,7.44,0,1,1,.07-14.88Z"/><path d="M116,81.47c-4,.46-7.64-3.34-7.38-7.6a7.29,7.29,0,0,1,7.53-7.23,7.39,7.39,0,0,1,7.4,7.55A7.17,7.17,0,0,1,116,81.47Z"/><path d="M217.64,161.78V148.52h2.8v18.29a3.66,3.66,0,0,1-4.29-1.79c-2.59-3.89-5.39-7.64-8.32-11.74v13.55H205V148.26c1.54-.19,2.79,0,3.81,1.42C211.6,153.68,214.55,157.57,217.64,161.78Z"/><path d="M332.81,160v6.9H330V148.43c2.37,0,4.75,0,7.13,0a25,25,0,0,1,2.58.24c2.5.3,3.84,2.88,3.88,4.79a6,6,0,0,1-.64,3.66,5.89,5.89,0,0,1-3.71,2.46l4.63,7.32a14.4,14.4,0,0,1-2.82,0,2.75,2.75,0,0,1-1.49-1.1c-1-1.49-1.9-3.05-2.79-4.61a2.07,2.07,0,0,0-2.3-1.22A11.83,11.83,0,0,1,332.81,160Zm.09-2.54c1.84-.12,3.61-.17,5.37-.36a2.93,2.93,0,0,0,2.24-2.91c.05-1.42-.6-2.63-1.69-2.79-1.94-.27-3.9-.39-5.92-.58Z"/><path d="M359.28,164.41c.56-.77,1.13-1.54,1.76-2.38.76.53,1.42,1.09,2.15,1.5a6.46,6.46,0,0,0,6.51.3,1.83,1.83,0,0,0,1-2.28,2.69,2.69,0,0,0-1.34-1.56c-2.2-.9-4.48-1.58-6.7-2.44a4.21,4.21,0,0,1-2.68-4.2A4.81,4.81,0,0,1,362.6,149a9.39,9.39,0,0,1,10.23,1.12,6,6,0,0,0,.73.51l-1.63,2.27c-.85-.53-1.64-1.09-2.49-1.54a5.52,5.52,0,0,0-5.41.23,1.93,1.93,0,0,0-.87,1.6,2.75,2.75,0,0,0,1.41,1.65c1.91.77,3.9,1.34,5.86,2,4.29,1.39,4.14,6,2.32,8.37-1,1.31-2.7,1.64-4.3,1.95C364.94,167.85,362,166.67,359.28,164.41Z"/><path d="M171.07,148.48H174c0,3.19,0,6.34,0,9.48a13.11,13.11,0,0,0,.48,3.48c.72,2.48,2.74,3.57,5.62,3.05a4.15,4.15,0,0,0,3.49-4.45c-.06-3.82,0-7.63,0-11.53h3.12c0,2.21,0,4.39,0,6.58s0,4.61-.27,6.89a5.61,5.61,0,0,1-5,5.08,12.23,12.23,0,0,1-6.88-.66,5.71,5.71,0,0,1-3.43-5.12C170.93,157.06,171.07,152.83,171.07,148.48Z"/><path d="M297.82,166.83v-18.3H310v2.25h-9.18v5.3H310v2.61h-9.2v5.54h9.18v2.6Z"/><path d="M261.51,148.19h1.3c1.78,0,2.2.35,2.83,2.06,1.55,4.14,3.13,8.25,4.7,12.37a6.39,6.39,0,0,0,.33.56c.84-2.13,1.62-4.11,2.39-6.11,1-2.62,1.95-5.27,3-7.87a2.18,2.18,0,0,1,1.43-1,9,9,0,0,1,2.29.15c-.42,1.15-.83,2.38-1.31,3.58q-2.72,6.93-5.47,13.84c-.28.7-.69,1.23-1.59,1.12a10.22,10.22,0,0,1-1.67-.05,2.21,2.21,0,0,1-1.33-.93c-2.31-5.68-4.55-11.39-6.8-17.09A6,6,0,0,1,261.51,148.19Z"/><path d="M132.43,105.53c-.06-3.76,2.4-6.06,5.88-6s5.76,2.35,5.82,5.91c.06,3.29-2.19,5.66-5.95,5.78A5.58,5.58,0,0,1,132.43,105.53Z"/><path d="M111.07,124.32c0,3.64-2.12,5.5-6,5.68a5.82,5.82,0,0,1-5.57-5.91,6,6,0,0,1,6.19-5.72C108.16,118.4,111.56,121.06,111.07,124.32Z"/><path d="M66.67,105.11a5.83,5.83,0,0,1,5.71-5.84c3.72.07,6,2.34,6,6A5.62,5.62,0,0,1,72.72,111,5.78,5.78,0,0,1,66.67,105.11Z"/><path d="M111.07,162.15a5.63,5.63,0,0,1-5.85,5.89,5.5,5.5,0,0,1-5.81-5.8c0-3.3,1.87-5.7,5.75-5.85A5.55,5.55,0,0,1,111.07,162.15Z"/><path d="M132.43,143.43a5.49,5.49,0,0,1,5.7-6,5.69,5.69,0,0,1,5.85,6,5.76,5.76,0,0,1-5.84,5.65C135.38,149.2,132.15,146.84,132.43,143.43Z"/><path d="M99.79,86.31c-.37-3.15,2.44-5.81,5.61-5.79a5.72,5.72,0,0,1,5.93,5.79,5.79,5.79,0,0,1-5.79,5.91A5.51,5.51,0,0,1,99.79,86.31Z"/><path d="M72.4,137.39a5.62,5.62,0,0,1,6,5.6,5.68,5.68,0,0,1-5.84,5.92,5.6,5.6,0,0,1-5.87-5.83C66.65,139.89,69.38,137,72.4,137.39Z"/><path d="M456.45,148.16c-1.66,2.49-3,4.78-4.63,6.88a12.42,12.42,0,0,0-2.84,9.32,22.49,22.49,0,0,1,0,2.47h-2.88c0-1.39-.1-2.78,0-4.15.24-2.71-.92-4.85-2.42-6.93-1.61-2.26-3.15-4.58-4.7-6.88-.1-.14-.06-.37-.09-.56,3-.43,3.62,0,5.56,3.36.89,1.54,1.95,3,3,4.64,1.49-2.27,2.92-4.36,4.26-6.5.86-1.37,1.34-1.63,3-1.41A7.64,7.64,0,0,0,456.45,148.16Z"/><path d="M411.64,148.44h13.51a3.53,3.53,0,0,1,.5.06v2.29h-5.42v16.05h-3.12V151.13h-5.47Z"/><path d="M406.75,87.65a4.55,4.55,0,0,1-4.82,4.62c-3,0-4.77-1.8-4.78-4.86a4.8,4.8,0,1,1,9.6.24Z"/><path d="M216,87.48a4.66,4.66,0,0,1-4.86,4.79,4.43,4.43,0,0,1-4.75-4.67,4.81,4.81,0,1,1,9.61-.12Z"/><path d="M240.75,148.49h2.74v18.33h-2.74Z"/><path d="M392,148.49h2.74v18.33H392Z"/><path d="M130.27,107.52a3.72,3.72,0,0,1-3.8,3.93,4,4,0,0,1-4.12-3.92,4.09,4.09,0,0,1,4-4.17A3.78,3.78,0,0,1,130.27,107.52Z"/><path d="M84.19,114.44a3.77,3.77,0,0,1-3.88,4,4.07,4.07,0,0,1-4-4,4,4,0,0,1,4.06-4.06A3.69,3.69,0,0,1,84.19,114.44Z"/><path d="M130.48,130.19a3.51,3.51,0,0,1,3.87,3.85,3.89,3.89,0,0,1-3.83,4.07,4,4,0,0,1-4.09-4.08A3.7,3.7,0,0,1,130.48,130.19Z"/><path d="M101.37,93.71a3.84,3.84,0,0,1,4,3.92,3.89,3.89,0,0,1-4.12,4,3.83,3.83,0,0,1-3.82-4.17A3.78,3.78,0,0,1,101.37,93.71Z"/><path d="M88.27,141.07a3.79,3.79,0,0,1-3.86,4,4,4,0,0,1-4.06-4,3.8,3.8,0,0,1,4-3.91C86.85,137.15,88.27,138.56,88.27,141.07Z"/><path d="M112.21,106.91a3.78,3.78,0,0,1-4-3.83,4,4,0,0,1,4-4.07,3.94,3.94,0,0,1,4,4A3.78,3.78,0,0,1,112.21,106.91Z"/><path d="M102.43,145.63c0,2.37-1.49,3.74-4,3.77a3.85,3.85,0,0,1-3.94-4,4,4,0,0,1,4.07-4A3.82,3.82,0,0,1,102.43,145.63Z"/><path d="M83.57,124.91A3.78,3.78,0,0,1,87.51,129a3.68,3.68,0,0,1-3.87,3.86,4,4,0,1,1-.07-7.92Z"/><path d="M123.31,119.49a3.75,3.75,0,0,1,3.8-3.92,3.91,3.91,0,0,1,4.1,3.92c.13,2.31-1.7,4-4.13,4A3.69,3.69,0,0,1,123.31,119.49Z"/><path d="M109.43,154.67c-2.06.37-4.13-1.6-4.11-3.88a4.29,4.29,0,0,1,4.05-4,4,4,0,0,1,3.93,4.13C113.31,152.92,111.52,155.05,109.43,154.67Z"/><path d="M120.3,136.91a3.7,3.7,0,0,1,4,3.9,4,4,0,1,1-7.93-.11A3.77,3.77,0,0,1,120.3,136.91Z"/><path d="M86.59,107.68a3.57,3.57,0,0,1,3.86-3.9c2.78.13,4,1.94,4,4a4,4,0,0,1-4.18,3.93A3.78,3.78,0,0,1,86.59,107.68Z"/><path d="M107,141.3a3,3,0,0,1,3-3,3.12,3.12,0,0,1,3,3.17,3.07,3.07,0,0,1-3.17,2.83A2.74,2.74,0,0,1,107,141.3Z"/><path d="M90,136.77a2.88,2.88,0,1,1,2.86,3A2.75,2.75,0,0,1,90,136.77Z"/><path d="M125.47,128.87c.31,1.43-1.27,3-3,3a2.83,2.83,0,0,1-3-2.82,3,3,0,0,1,3-3.14A2.84,2.84,0,0,1,125.47,128.87Z"/><path d="M88.23,122.51a3.06,3.06,0,0,1-3.08-2.9A3.37,3.37,0,0,1,88,116.54a3,3,0,0,1,3.15,3.06A2.68,2.68,0,0,1,88.23,122.51Z"/><path d="M97.87,107.16c-.31-1.71,1.39-3,2.87-3.1a3.29,3.29,0,0,1,3.12,3,3,3,0,0,1-3.15,3A2.66,2.66,0,0,1,97.87,107.16Z"/><path d="M117.85,108.83a2.89,2.89,0,1,1,.13,5.77,2.89,2.89,0,1,1-.13-5.77Z"/><path d="M90.43,153.19a3,3,0,0,1,2.94-3.05,3,3,0,0,1,3,2.93,3,3,0,0,1-3,3.05A2.88,2.88,0,0,1,90.43,153.19Z"/><path d="M120.19,95.42a2.69,2.69,0,0,1-2.86,2.86,3,3,0,0,1-3-2.79,3.31,3.31,0,0,1,3-3.22A3,3,0,0,1,120.19,95.42Z"/><path d="M74.24,125.39a2.7,2.7,0,0,1,3,2.86,3.08,3.08,0,0,1-2.73,3.13c-1.49.05-3.36-1.61-3.24-3C71.43,126.54,72.74,125.14,74.24,125.39Z"/><path d="M127.39,149.06a2.88,2.88,0,0,1-2.93,3,3.08,3.08,0,0,1-3.06-2.85,3,3,0,0,1,2.89-3.1C126.36,146.23,127.63,147.58,127.39,149.06Z"/><path d="M83.47,99.51a2.85,2.85,0,0,1,2.89-3.14,3,3,0,0,1,2.87,3.12,2.72,2.72,0,0,1-3,2.86A2.56,2.56,0,0,1,83.47,99.51Z"/><path d="M136.46,123a2.7,2.7,0,0,1-3.05-2.82,2.94,2.94,0,0,1,3-2.94,2.87,2.87,0,0,1,3,3A2.67,2.67,0,0,1,136.46,123Z"/><path d="M143.07,120.83c1.18-.07,1.51.67,1.59,1.55a1.81,1.81,0,0,1-1.67,1.81,1.85,1.85,0,0,1-1.68-1.82C141.33,121.37,142,120.83,143.07,120.83Z"/><path d="M127.39,155.86a1.5,1.5,0,0,1-1.66,1.69,1.84,1.84,0,0,1-1.69-1.64,1.76,1.76,0,0,1,1.65-1.69C126.83,154.34,127.37,154.65,127.39,155.86Z"/><path d="M85,91.07c1.21,0,1.65.42,1.62,1.5A1.45,1.45,0,0,1,85,94.19a1.8,1.8,0,0,1-1.78-1.53C83.21,91.63,83.83,91.06,85,91.07Z"/><path d="M89.71,157.76c0,1.1-.59,1.74-1.6,1.7a1.68,1.68,0,0,1,.1-3.35C89.2,156.09,89.71,156.64,89.71,157.76Z"/><path d="M122.57,92.27c-1.13,0-1.69-.51-1.66-1.51a1.46,1.46,0,0,1,1.61-1.61c1.13,0,1.71.54,1.75,1.62C124.31,91.68,123.64,92.28,122.57,92.27Z"/><path d="M66.19,126.05c0-1.1.51-1.62,1.56-1.62a1.39,1.39,0,0,1,1.56,1.62c0,1.11-.5,1.64-1.52,1.67S66.18,127.22,66.19,126.05Z"/><path d="M100.54,114.06a1.82,1.82,0,0,1,1.74-1.59,1.7,1.7,0,0,1,1.55,1.65,1.74,1.74,0,0,1-1.66,1.67A1.82,1.82,0,0,1,100.54,114.06Z"/><path d="M94.59,123.46c-.68-.13-1.11-.7-1-1.69a1.33,1.33,0,0,1,1.52-1.41c1.21,0,1.59.71,1.56,1.76S95.87,123.52,94.59,123.46Z"/><path d="M99.79,131.89a1.58,1.58,0,1,1-3.12.1,1.43,1.43,0,0,1,1.57-1.52C99,130.59,100,130.77,99.79,131.89Z"/><path d="M108.52,132.83c1.19-.06,1.52.7,1.57,1.57a1.31,1.31,0,0,1-1.41,1.52c-1.16-.08-1.67-.44-1.68-1.65A1.35,1.35,0,0,1,108.52,132.83Z"/><path d="M115.72,128a1.41,1.41,0,0,1-1.53-1.64,1.44,1.44,0,0,1,1.6-1.47c1.07,0,1.37.83,1.5,1.64S116.67,128,115.72,128Z"/><path d="M112.44,118a1.44,1.44,0,0,1-1.6-1.47,1.78,1.78,0,0,1,1.72-1.62c.83.12,1.46.51,1.41,1.55C113.91,117.65,113.64,118,112.44,118Z"/><path d="M149.18,125c-.5.65-1.08,1.27-1.91.59a1.27,1.27,0,0,1,.1-1.22C148.17,123.79,148.7,124.43,149.18,125Z"/><path d="M86.27,86.91c-.66.65-1,1.53-1.92.78a1.05,1.05,0,0,1-.12-1C84.92,85.82,85.51,86.48,86.27,86.91Z"/><path d="M127.4,89.25c-.55-.6-1.45-1-.71-1.86a1,1,0,0,1,1-.21C128.65,87.87,127.87,88.49,127.4,89.25Z"/><path d="M82.51,160.73c.71-1.42,1.49-1.08,2.23-.13C83.9,161.69,83.49,161.73,82.51,160.73Z"/><path d="M127.21,161.4c-.55.62-1,1.27-1.86.61a1,1,0,0,1-.08-1C126,160.34,126.6,160.58,127.21,161.4Z"/></svg>