<svg id="Layer_1" data-name="Layer 1" xmlns="http://www.w3.org/2000/svg" viewBox="0 0 532 266"><title>SVG-</title><path d="M273.91,181.52V165.1c7,0,13.8-.38,20.56.09,10.06.71,17.73-2.77,23.59-11,4.46-6.27,13.18-12.2,13.15-18.23s-8.82-11.91-13.29-18.2c-6.1-8.58-14.26-11.7-24.48-11.09-6.3.38-12.64.07-19.34.07V89.18c13.77,0,28.73-4.05,41.06,3.51,11.44,7,20.48,18,30.92,27.55,10.73-9.9,17.27-26.66,34.28-29.79,11.54-2.13,23.58-1.53,35.85-2.17v18.46c-5.77,0-11.75.38-17.67-.08-11.47-.88-20,3.15-27.37,12.27-14,17.34-14,16.75-.08,34.13,7.09,8.82,15.14,13.23,26.48,12.14,6-.57,12.1-.1,18.59-.1v16.45c-31.06,7.59-54.54-2.89-71-33.58C328.87,178.37,305.58,189.08,273.91,181.52Z"/><path d="M72.25,183.1v-18c7.25,0,14.15-.36,21,.09,9.49.63,16.38-3.1,22.28-10.37,12.94-15.95,26.75-31.21,39.37-47.4C165.35,94,178.3,87.64,195.21,88.74c6,.39,12.09.06,19.25.06,0,4.89.64,8.85-.24,12.44-.52,2.12-3.26,5-5.28,5.21-5.75.73-11.64.44-17.47.29-8.42-.22-14.84,3.16-20.18,9.63-13.95,16.93-28.39,33.45-42.16,50.52-9.06,11.22-20.11,17-34.61,16.27C87.36,182.81,80.18,183.1,72.25,183.1Z"/><path d="M252.9,182a10.15,10.15,0,0,1-2.08.83c-16,1.6-16,1.59-16-14.45q0-33.63,0-67.26c0-12.85,0-12.87,12.79-12.25,1.61.07,3.21.43,5.34.73Z"/></svg>