<svg id="Layer_1" data-name="Layer 1" xmlns="http://www.w3.org/2000/svg" viewBox="0 0 532 266"><title>SVG-</title><path d="M84.25,78h76.59c-2.38,6.15-4.2,11.69-6.75,16.87-.69,1.4-3.58,2.36-5.48,2.41-8.94.24-17.89.1-26.84.1h-8c2.64,6.24,4.48,11.57,7.19,16.4.84,1.51,4.06,2.33,6.21,2.35,17.88.18,35.77.11,53.66.11h7.52c-1.6,4.43-2.8,8-4.18,11.55-7.64,19.48-15.44,38.9-22.89,58.45-1.91,5-4.4,7.66-10.18,7.06-7-.72-15.65,1.66-20.7-1.67-4.79-3.18-5.92-12-8.52-18.33-2.43-6-4.69-12-7.43-19.07,7.15,0,13.34-.24,19.48.18,1.44.1,3.24,2.19,4,3.78,2.07,4.37,3.67,9,7,13.66l13.54-35.34c-3.36-.34-5.69-.75-8-.77-12.8-.06-25.61.12-38.41-.18-2.12,0-5.39-1.57-6.08-3.25C98.61,114.67,91.71,96.87,84.25,78Z"/><path d="M301.87,79.71v50.62h-7.79v-32l-1.37-.43c-3.28,5.41-6.5,10.85-9.86,16.2-3.26,5.18-4.82,5.18-8.08,0S268.26,103.49,264,98.32v32.07h-8.29V79.66c5.52-1.84,8.83,0,11.4,4.94C270.41,91,274.51,97,278.77,104c4.21-6.92,8.28-12.92,11.62-19.32C293,79.83,296.15,77.77,301.87,79.71Z"/><path d="M390.12,167.31c0,15.52-11.29,26.93-26.77,27a26.4,26.4,0,0,1-27-26.88c0-15.28,11.7-27.07,26.87-27C378.65,140.39,390.08,151.86,390.12,167.31Zm-8.62.44c.13-10.29-7.61-18.55-17.61-18.81a18.6,18.6,0,0,0-18.95,18.3,18.41,18.41,0,0,0,18.11,18.44A18,18,0,0,0,381.5,167.75Z"/><path d="M426.28,172.87c4,6.85,7.81,13.26,11.88,20.18-6.3,1.42-11,1.42-13.31-5.16-.87-2.44-2.94-4.45-3.86-6.88-2.68-7.12-7.88-7.77-14.92-5.87v17.62c-8.46,1.79-8.76,1.57-8.76-5.93q0-19.5,0-39c0-2,.18-4,.29-6.26,8.5,0,16.62-.56,24.62.18,6.07.56,10.23,4.87,12.07,10.74s.92,11.67-3.56,16.4C429.52,170.19,428.07,171.29,426.28,172.87Zm-20-7.17c4.58,0,8.63.32,12.6-.09,4.62-.47,7.38-3.37,7.38-8.12,0-4.55-2.85-7-7.08-7.81-11.47-2.22-13.32-.65-13.16,11C406,162.07,406.16,163.46,406.28,165.7Z"/><path d="M360.64,130.79V79.3c8.12,0,16-.55,23.78.18,6,.57,10.3,4.6,12.18,10.54a16.3,16.3,0,0,1-3.82,16.9c-1.08,1.16-2.37,2.13-3.8,3.41l11.46,19.79c-6.31,1.62-10.77.85-13.2-5.32-.88-2.24-2.67-4.12-3.54-6.36-2.58-6.68-7.26-8.55-14.62-6.33v18.27Zm8.27-43.07c0,4.54-.21,8.55.14,12.52a4.17,4.17,0,0,0,2.87,2.86c3.61.27,7.64.87,10.78-.43,2.62-1.08,5.95-4.75,5.8-7.07-.17-2.74-3.29-6.68-6-7.55C378.57,86.76,373.88,87.72,368.91,87.72Z"/><path d="M295.49,193.06c-6.08,1.62-10.19,1.13-11.4-5.43-.87-4.67-3.58-7-8.6-6.1a14.42,14.42,0,0,1-4.86,0c-6.64-1.14-10.82,1.09-12.15,8.06-1.2,6.24-5.94,3.73-10.77,3.94,3.41-8.83,6.56-17,9.73-25.23,3.08-7.93,6-15.93,9.4-23.73a6.4,6.4,0,0,1,4.75-3.14c1.67,0,3.71,1.5,5,2.91s1.47,3.28,2.13,5C284.22,163.7,289.73,178.06,295.49,193.06Zm-17.26-20.27-6.48-17.6-6.64,17.6Z"/><path d="M246.82,91.85,240,95.55c-1.12-1.7-1.77-3.85-3.14-4.52-3.39-1.67-7.07-3.37-10.73-3.62-1.66-.11-4.76,3-5,5s2.09,4.7,4,5.79c3.48,2,7.56,2.85,11.31,4.37,8.73,3.53,11.88,8.28,10.84,16-1,7.14-6.14,11.65-14.94,12.65-6.77.77-13.24-.58-17.85-5.76-6-6.66-6.81-9.08,2.59-12.79,2.07,7.21,6.71,11.58,14.47,10.07,2.64-.51,5.88-3.15,6.74-5.57.54-1.51-2.38-5.27-4.6-6.52-4-2.25-8.77-3.09-13-5-6.77-3.1-8.95-7.07-8.35-13.94.54-6.21,4.29-10.65,10.64-12.59C233,76,242,80.52,246.82,91.85Z"/><path d="M354.56,130.1c-5.76,1.85-9.73.7-10.84-5.61-.84-4.72-3.56-6.43-8.16-5.74a15.51,15.51,0,0,1-4.25,0c-6.58-.94-11.31.39-12.65,8.1-1.08,6.15-6.07,3.22-10.74,4.22,3.34-8.71,6.21-16.23,9.12-23.74,3.14-8.12,6.16-16.31,9.65-24.28.76-1.73,3.29-3.67,5-3.69s4.3,1.93,5,3.64c6,14.62,11.61,29.39,17.31,44.13A16.51,16.51,0,0,1,354.56,130.1Zm-29.33-20h12.95l-6.45-16.92C329.36,99.35,327.43,104.39,325.23,110.1Z"/><path d="M233,176.74c3.57-9.68,7.59-19.22,10.53-29.08,1.94-6.48,5.41-7.66,11.73-5.79-6.15,16.52-12.14,32.86-18.42,49.09-.51,1.32-3,2.62-4.57,2.6s-4.08-1.33-4.6-2.69c-6.3-16.24-12.31-32.6-18.39-48.94,6.72-2.28,9.93,0,11.9,6.34,3,9.64,6.9,19,10.42,28.47Z"/><path d="M423.61,130.51h-8.46V87.86l-14.57-.77V79.42h37.28v7.31a11.5,11.5,0,0,1-2.05.61c-12.2.86-12.2.85-12.2,13Z"/><path d="M302.91,193.26V141.57h8.48V185h21.9v8.28Z"/><path d="M173.93,97.37c2.71-6.63,4.82-12.07,7.22-17.37a4.47,4.47,0,0,1,3.16-2.29c6.2-.22,12.4-.1,19.83-.1-2.7,6.7-4.84,12.3-7.29,17.76a4.47,4.47,0,0,1-3.36,1.91C187.44,97.47,181.38,97.37,173.93,97.37Z"/></svg>