<svg id="Layer_1" data-name="Layer 1" xmlns="http://www.w3.org/2000/svg" viewBox="0 0 532 266"><title>SVG-</title><path d="M106,108.83c.84,1.52,1.5,2.89,2.31,4.16,2.38,3.74,5.81,6.39,9.49,8.69a74.79,74.79,0,0,0,14.45,6.74c6.63,2.4,13.53,3.79,20.33,5.55a58.93,58.93,0,0,1,20.94,9.74,29.73,29.73,0,0,1,9.66,11.73,28,28,0,0,1,2.17,8.48,29.72,29.72,0,0,1-1.48,12.67,25.91,25.91,0,0,1-8.4,11.74,38.57,38.57,0,0,1-15.54,7.45,58,58,0,0,1-8.13,1.27,60.21,60.21,0,0,1-7.94.46A49.42,49.42,0,0,1,126,193.72a42.75,42.75,0,0,1-15.72-10.84,34.36,34.36,0,0,1-3.15-4.39,1.88,1.88,0,0,1,0-1.49c.63-1.44,1.39-2.82,2.07-4.24.35-.72.68-.86,1.28-.21A43.88,43.88,0,0,0,133.74,185a42.86,42.86,0,0,0,8.6.7c5.57-.2,11-1.17,15.73-4.47a16.41,16.41,0,0,0,6.79-10.63,18.68,18.68,0,0,0-1.27-12.32c-1.65-3.37-4.44-5.68-7.61-7.55-5.17-3-10.89-4.64-16.61-6.3a64.45,64.45,0,0,1-20.51-9.66,32.5,32.5,0,0,1-10.73-12.57,25.67,25.67,0,0,1-2.54-12.1A6.28,6.28,0,0,1,106,108.83Z"/><path d="M186.19,151.43c-1-1.76-1.92-3.57-3-5.27a31.07,31.07,0,0,0-9.94-9.32,60.17,60.17,0,0,0-16-7c-4.81-1.34-9.7-2.39-14.55-3.58a84.69,84.69,0,0,1-15.13-4.94,41.5,41.5,0,0,1-9.51-5.77,25.21,25.21,0,0,1-8.89-14A28.87,28.87,0,0,1,112,81.14a33.09,33.09,0,0,1,12.87-12.89,40.7,40.7,0,0,1,13.4-4.81,57.08,57.08,0,0,1,6-.52c.51,0,1,0,1.68,0-.1,1.47-.19,3.09-.35,4.69A1.59,1.59,0,0,1,144.33,69a4.44,4.44,0,0,0-3,4.25c-.09,1.29-.23,2.59-.35,4h-2.57c.56,1.93-1,2.29-2,2.86a18.6,18.6,0,0,0-9.7,11.46c-1.38,4.75-1.25,9.44,1.69,13.69a15,15,0,0,0,5.57,4.67c5.35,2.82,11.13,4.34,16.95,5.71a62.7,62.7,0,0,1,16.81,6.15,39.78,39.78,0,0,1,10.84,8.84,33.06,33.06,0,0,1,6.85,13.23,47.29,47.29,0,0,1,.82,5.71l.24,1.78Z"/><path d="M183.56,105h-17c0-2.12,0-4.06,0-6a20.37,20.37,0,0,0-5.6-14.45A22.74,22.74,0,0,0,155.16,80a1.85,1.85,0,0,1-.82-1.35c0-1.09-.39-1.44-1.41-1.32a12.64,12.64,0,0,1-1.52,0c0-1.14,0-2.17,0-3.2-.06-2.45-.83-4.44-3.38-5.37a1.64,1.64,0,0,1-.84-1.12c-.2-1.6-.26-3.21-.39-5.06,2.37.21,4.58.27,6.74.64a39,39,0,0,1,12.38,4.21,32.09,32.09,0,0,1,12.35,11.76,31.4,31.4,0,0,1,4.56,13.32C183.2,96.56,183.32,100.65,183.56,105Z"/><path d="M238.38,135.63c1.52,0,3-.07,4.38.05a2.21,2.21,0,0,1,1.36.9c2.8,4.06,5.56,8.15,8.33,12.23,1.09,1.61,2.15,3.24,3.42,5.16a21.16,21.16,0,0,1-.29-2.21c0-5,0-9.92,0-14.87,0-.95.37-1.28,1.24-1.26s2,0,3,0c.73,0,1,.31,1.06.95,0,.19,0,.4,0,.6,0,7.83,0,15.67,0,23.5,0,1-.27,1.28-1.32,1.41-2.8.34-4.56-.53-6.09-3.1-2.9-4.86-6.28-9.44-9.47-14.13-.15-.22-.35-.4-.76-.86.13,1.66.32,3,.33,4.38,0,4.11,0,8.23,0,12.35,0,1-.36,1.34-1.3,1.32-1.28,0-2.55,0-3.91,0Z"/><path d="M363.93,106.27V124h-5.1V97.73a28.33,28.33,0,0,1,4.7.08c.64.1,1.21,1,1.67,1.72q4.79,7,9.48,14c.54.8,1,1.68,1.49,2.62V97.92H381V124.1a36.84,36.84,0,0,1-4.7-.07c-.53-.07-1-.91-1.42-1.48q-4.71-6.8-9.37-13.64C365,108.08,364.49,107.2,363.93,106.27Z"/><path d="M413.2,97.8v26.31c-1.59,0-3.14,0-4.68,0-.27,0-.59-.31-.76-.56q-4.23-6-8.4-12c-1.21-1.76-2.33-3.59-3.5-5.41v18H391V97.71c1.49,0,3,0,4.5,0a1.51,1.51,0,0,1,.9.63q4.23,6.09,8.4,12.2c1.11,1.63,2.15,3.32,3.34,5.15V97.8Z"/><path d="M335.84,97.42c6.29,0,10.83,2.42,13.33,7.67a13.31,13.31,0,0,1-1.5,14.39c-2.36,3.18-5.62,4.63-9.52,5.16a14.18,14.18,0,0,1-11.93-3.72,12.78,12.78,0,0,1-3.93-7.48,13.37,13.37,0,0,1,10.87-15.72C334.21,97.53,335.28,97.49,335.84,97.42Zm9.25,13.33a8.61,8.61,0,0,0-8.72-8.89c-5.42.08-9,3.85-8.93,9,0,5.35,3.5,9,8.79,9.14C341.19,120.15,345.33,115.55,345.09,110.75Z"/><path d="M232.77,110.9c-.51-7.3,6.13-14,15-13.48,6.93.41,13.59,5.56,13.31,14-.25,7.49-5.93,13.47-14.5,13.39C239.17,124.76,232.42,119,232.77,110.9Zm5.28,0A8.78,8.78,0,0,0,246.7,120a8.88,8.88,0,0,0,9.05-9c0-6-4.28-9-9.1-9.08A8.74,8.74,0,0,0,238.05,110.89Z"/><path d="M296.66,124.11V97.71h9.72a11.09,11.09,0,0,1,5.21,1.22,5.54,5.54,0,0,1,3.07,3.91c.65,3.1-.16,5.5-2.66,7.29a6.71,6.71,0,0,1,3.64,4.06c1.1,4-.68,8-4.7,9.17a19.51,19.51,0,0,1-4.62.72C303.13,124.19,299.94,124.11,296.66,124.11Zm5-4.32c2,0,3.82,0,5.65,0a3.52,3.52,0,0,0,3.24-3c.24-2.82-1.1-3.93-2.71-4.13a46.86,46.86,0,0,0-5.44-.23c-.24,0-.69.52-.7.81C301.63,115.34,301.65,117.49,301.65,119.79Zm-.11-11.28c1.85,0,3.37,0,4.88,0a3.12,3.12,0,1,0-.06-6.23c-1.28,0-2.55,0-3.82,0-.77,0-1.12.29-1.12,1C301.44,105,301.5,106.7,301.54,108.51Z"/><path d="M269.09,124c-.1-1.5-.3-3-.3-4.41,0-6.87,0-13.75,0-20.62,0-1,.23-1.34,1.27-1.32,3.12.06,6.24-.07,9.35,0s5.88.84,7.36,3.81c2,3.92,1.29,8.76-3,11.33a2.48,2.48,0,0,0-.31.29l6.36,10.93c-2,0-3.82,0-5.62,0-.28,0-.58-.57-.78-.93-1.51-2.65-3-5.31-4.49-8a1.42,1.42,0,0,0-1.49-.88c-1.07,0-2.15,0-3.35,0V124Zm5-21.88c0,2.57,0,4.85,0,7.12,0,.68.26,1,.93.91l4.14-.24c2.06-.11,3.08-1.66,3.31-3.61a3.32,3.32,0,0,0-2.58-3.79A56.06,56.06,0,0,0,274.05,102.16Z"/><path d="M334,162V135.74a9.28,9.28,0,0,1,1-.1c3.27,0,6.55-.08,9.83,0,2.55.08,4.91.82,6.48,3,2.59,3.64,2,9.58-2.47,12.11a2.84,2.84,0,0,0-.31.26l3.15,5.43,3.21,5.55a39,39,0,0,1-5.24-.08c-.6-.09-1.19-1-1.58-1.69-1.28-2.2-2.48-4.44-3.69-6.68a2.32,2.32,0,0,0-2.47-1.41c-.86.09-1.75,0-2.81,0v2.87c0,2,0,4,0,6,0,.61-.14,1-.86,1C336.89,162,335.54,162,334,162Zm5.19-14.16c1.73,0,3.34-.07,4.93,0s3.16-1.44,3.38-3.3-.43-3.7-2.33-4.07a45.37,45.37,0,0,0-6-.43Z"/><path d="M207.81,135.68h5V137c0,4.92,0,9.84,0,14.75a9.71,9.71,0,0,0,.48,2.88c.82,2.63,4.41,3.69,6.77,3.16a8.8,8.8,0,0,0,2.23-.64,5.14,5.14,0,0,0,2.74-4.86c0-5.16,0-10.32,0-15.48v-1.35h5.21c0,.33.07.67.07,1,0,5,.06,10.08,0,15.12a15.2,15.2,0,0,1-.71,4.38,8.56,8.56,0,0,1-6.85,5.9c-3.94.85-7.73.7-11.2-1.68a8.21,8.21,0,0,1-3.71-6.75C207.69,147.56,207.81,141.68,207.81,135.68Z"/><path d="M423.21,97.74h16.3a35.5,35.5,0,0,1,.07,3.57c0,.27-.7.68-1.09.69-3,.06-5.92,0-8.87,0h-1.4v6.71h9V113h-9v6.76h1.22c3.16,0,6.32,0,9.48,0,.93,0,1.32.24,1.25,1.22s0,2,0,3.11c-.95.09-1.84.24-2.73.24-4.36,0-8.72,0-13.08,0-.69,0-1.24,0-1.24-1,0-8.44,0-16.88,0-25.31A1.48,1.48,0,0,1,423.21,97.74Z"/><path d="M439.38,135.64v4.27H428.45v6.73h9c0,1.31.06,2.53-.05,3.75,0,.23-.68.57-1.05.57-2.23.06-4.47,0-6.71,0h-1.23v6.67h11.69c0,1.31.05,2.5,0,3.68,0,.25-.56.66-.86.66-5.08,0-10.16,0-15.23,0-.68,0-.91-.28-.91-.94q0-12.22,0-24.47c0-.67.32-1,.89-1C429.08,135.63,434.18,135.64,439.38,135.64Z"/><path d="M310,162v-26a17.07,17.07,0,0,1,2.05-.29c4.27,0,8.55,0,12.83,0,1.17,0,1.69.34,1.55,1.57-.09.86,0,1.74,0,2.75H315.16v6.69h9V151h-9v6.74H327V162Z"/><path d="M361.45,155.41c1.76.81,3.43,1.66,5.16,2.33a4.66,4.66,0,0,0,4.36-.37,2.63,2.63,0,0,0-.1-4.62C369,151.68,367,150.94,365,150c-2.37-1.13-4.65-2.35-5.32-5.23a7,7,0,0,1,4.3-8.5,13,13,0,0,1,12.57,1.45,2.94,2.94,0,0,1,.45.47c-.7,1.3-1.4,2.6-2.17,4-.92-.49-1.78-1-2.7-1.43a6.5,6.5,0,0,0-4.89-.59,3.08,3.08,0,0,0-2.46,2.57c-.12,1.34.86,2.21,2,2.74,2.27,1.06,4.58,2,6.84,3.11a6.7,6.7,0,0,1,4,7.21,7.59,7.59,0,0,1-6.69,6.47A14.13,14.13,0,0,1,362,161a31.27,31.27,0,0,1-3.07-2Z"/><path d="M225.52,100.21l-2.14,3.93c-1-.52-1.92-1-2.88-1.53a6.77,6.77,0,0,0-4.78-.56,3.32,3.32,0,0,0-2.38,2.55,2.33,2.33,0,0,0,1.49,2.46c2.11,1,4.27,1.93,6.39,2.9,2.82,1.28,4.75,3.27,5.07,6.5a7.47,7.47,0,0,1-3.7,6.63c-4.71,2.28-9.22,1.58-13.56-1a14.57,14.57,0,0,1-1.53-1.2L210,117.3c1.74.82,3.38,1.75,5.11,2.37a4.65,4.65,0,0,0,4.59-.52c1.5-1.09,1.43-3.41,0-4.15-2.51-1.35-5.1-2.56-7.63-3.86-2-1-3.6-2.46-4-4.7-.56-3.51.46-6.52,4-8.09a12.31,12.31,0,0,1,12.45,1,4.1,4.1,0,0,1,.47.35A5.2,5.2,0,0,1,225.52,100.21Z"/><path d="M279.8,135.63c1.63,0,3.19-.06,4.74.05.37,0,.88.58,1,1,1.47,4,2.89,8.09,4.3,12.14.83,2.38,1.61,4.77,2.44,7.23.71-2.16,1.39-4.29,2.12-6.4,1.51-4.35,3-8.7,4.6-13a1.65,1.65,0,0,1,1.08-.94c1.51-.11,3-.05,4.74-.05-.38,1.13-.68,2.16-1.06,3.15q-4.29,11.28-8.63,22.52a1.36,1.36,0,0,1-1,.7,20.11,20.11,0,0,1-3.47,0,1.67,1.67,0,0,1-1.21-.79c-1.63-4.09-3.18-8.22-4.76-12.34s-3.19-8.3-4.78-12.46A5.75,5.75,0,0,1,279.8,135.63Z"/><path d="M403.41,139.93h-8.57v-4.3h9.57c3.91,0,7.83,0,11.75,0,1,0,1.54.3,1.43,1.43-.08.9,0,1.82,0,2.87h-8.86V162c-1.59,0-3.06.06-4.51-.05-.29,0-.71-.66-.75-1a29.27,29.27,0,0,1,0-3.11V139.93Z"/><path d="M269.58,135.69h4.89v26.25h-4.89Z"/><path d="M384.27,162V135.69h4.91c0,.34.07.68.07,1,0,8,0,16,0,24,0,1.06-.31,1.42-1.37,1.35S385.53,162,384.27,162Z"/><path d="M148.77,104.86H144V97.2c0-.88,0-1.75,0-2.63a2.25,2.25,0,0,1,2.36-2.14,2.22,2.22,0,0,1,2.42,2C148.79,97.91,148.77,101.33,148.77,104.86Z"/><path d="M158.37,104.86h-4.79c0-3.57,0-7.07,0-10.58A2.21,2.21,0,0,1,156,92.43a2.33,2.33,0,0,1,2.38,2.4C158.42,98.14,158.37,101.45,158.37,104.86Z"/><path d="M139.17,104.86h-4.8v-2.6c0-2.39,0-4.79,0-7.18a2.57,2.57,0,0,1,1.75-2.55,2.21,2.21,0,0,1,2.55.76,2.07,2.07,0,0,1,.47,1.16C139.19,97.87,139.17,101.3,139.17,104.86Z"/><path d="M148.53,77.26h-4.41a46.45,46.45,0,0,1,.44-4.9c.23-1.2,1.39-1.13,2.34-1a1.7,1.7,0,0,1,1.62,1.72C148.57,74.41,148.53,75.76,148.53,77.26Z"/><path d="M437.55,129.15c-.57.78-1,1.41-1.47,2a12.45,12.45,0,0,0-1.27,1.55,3.07,3.07,0,0,1-3.42,1.49c-.58-.06-1.17,0-2,0,.66-1.17,1.28-2.1,1.73-3.11a3,3,0,0,1,3.6-2A18.88,18.88,0,0,0,437.55,129.15Z"/></svg>