<svg id="Layer_1" data-name="Layer 1" xmlns="http://www.w3.org/2000/svg" viewBox="0 0 532 266"><title>SVG-</title><path d="M372,157.25c-.7.09-1.11.69-1.64,1.05-2.85,1.92-5.77,3.49-9.34,3.67-3.34.16-6.53-.05-9.45-1.79A11.33,11.33,0,0,1,346,151a14,14,0,0,1,1.39-8.23,10.59,10.59,0,0,1,6.83-5.28,80,80,0,0,1,15.68-2.67c.83-.06,1.45-.13,1.54-1.36.36-4.83-2.74-6.45-6.45-6.73a14.67,14.67,0,0,0-10.37,3.57c-.43.34-.71.49-1.22.15q-3-2-6.07-3.92c-.68-.42-.61-.71-.16-1.27a15.57,15.57,0,0,1,12.81-6,54,54,0,0,1,13.53,1.1,9.59,9.59,0,0,1,7.51,9.15c.09,10.09.07,20.18.12,30.27,0,.81-.23,1.12-1.07,1.11-1.58,0-3.16.07-4.74.08-2.45,0-3.11-.64-3.18-3C372.15,157.71,372.23,157.46,372,157.25Zm-.48-12.12h.08c0-.79,0-1.59,0-2.37s-.21-1.12-1.08-1c-2.36.41-4.75.69-7.11,1.16a12.26,12.26,0,0,0-4.79,1.58,5.68,5.68,0,0,0-2.09,6.9c1,2.29,3.31,3.29,6.14,2.73a33.67,33.67,0,0,0,4.2-1.22c2.36-.8,4.27-2.15,4.62-4.86A22.33,22.33,0,0,0,371.51,145.13Z"/><path d="M282.28,142.69c-3.72,0-7.44,0-11.16,0-.74,0-1.32.1-1.13,1,.26,1.27.29,2.56.64,3.83a7.46,7.46,0,0,0,4.93,5.19,12.28,12.28,0,0,0,11.62-1.21c1.77-1.13,3-.94,4.6.43a31.35,31.35,0,0,0,3.63,2.63c.73.47.71.86.27,1.52-1.73,2.63-4.29,4-7.19,4.87a29.83,29.83,0,0,1-10.41,1.17,22.11,22.11,0,0,1-11.23-3.23,13.52,13.52,0,0,1-6.08-10,58.72,58.72,0,0,1-.68-11.08c.21-4,.69-7.86,2.83-11.34a15.09,15.09,0,0,1,10.22-7.05,28.52,28.52,0,0,1,11.16,0,14.08,14.08,0,0,1,11.33,9.92,25.25,25.25,0,0,1,1.13,7.57,20.07,20.07,0,0,1,.13,2.92c-.24,1.87-.64,2.71-3.46,2.78C289.72,142.76,286,142.69,282.28,142.69Zm-3.5-6.71c2.33,0,4.67,0,7,0,.58,0,1-.05,1-.8.13-3.89-1.56-7.55-6.08-8.26-5.66-.88-10.23,2.29-10,8.12,0,.73.24,1,1,.95C274,136,276.4,136,278.78,136Z"/><path d="M209.53,162.18c-4.25-.05-7.76-.52-11-2.12a51.74,51.74,0,0,1-6.28-4c-.46-.31-.3-.56.06-.81l6.76-4.78c.4-.28.72-.07,1,.23,3.17,3.06,7,3.78,11.21,3.1a5.87,5.87,0,0,0,4.69-3.6,2.16,2.16,0,0,0-1-2.82,24.19,24.19,0,0,0-6.56-2.32,39.73,39.73,0,0,1-9-3.18,11.28,11.28,0,0,1-6.21-9.4,11.76,11.76,0,0,1,2.82-8.87,11.5,11.5,0,0,1,4.31-3,20.54,20.54,0,0,1,5.36-1.39,28.49,28.49,0,0,1,10.21.53,17.35,17.35,0,0,1,6.84,3.11c.82.62,1.69,1.17,2.55,1.71.62.38.8.69.1,1.19-2.18,1.57-4.33,3.17-6.49,4.76a.79.79,0,0,1-1.13,0,23.9,23.9,0,0,0-2.86-2.1c-2.53-1.43-5.25-1.36-8-1.09a4.06,4.06,0,0,0-3.78,2.6,2.93,2.93,0,0,0,1,3.47,10.49,10.49,0,0,0,3,1.33c4.25,1.31,8.68,2.15,12.65,4.26a10.24,10.24,0,0,1,5.92,8.67c.25,3.13,0,6.06-1.88,8.67a13.62,13.62,0,0,1-8.71,5.26A25.91,25.91,0,0,1,209.53,162.18Z"/><path d="M234.46,138.75c0-3.16,0-6.33,0-9.5,0-.78-.18-1.14-1.05-1.12s-2-.13-2.95-.18c-.44,0-.64-.2-.63-.65,0-2.09,0-4.19,0-6.29,0-.51.2-.69.7-.71.95,0,1.89-.16,2.84-.15s1.07-.32,1.11-1.12a73.32,73.32,0,0,0,0-7.56c-.12-2.22.67-2.91,2.88-2.91,1,0,2.06.06,3.08,0,3.41-.21,3.89,1.67,4,4,.13,2.13.16,4.27.09,6.4,0,1.06.34,1.23,1.27,1.2,2.22-.06,4.43,0,6.65,0,.85,0,1.2.18,1.16,1.11-.07,1.86-.08,3.72,0,5.58,0,1-.35,1.19-1.23,1.17-2.1-.06-4.2,0-6.3,0-.83,0-1.18.17-1.18,1.11,0,4.7-.13,9.4-.14,14.11,0,2.52.09,5,.17,7.58a3.19,3.19,0,0,0,2.91,3.09,15.24,15.24,0,0,0,5.17-.26c.89-.23,1.5-.05,1.69,1.05.27,1.51.72,3,1.06,4.48a1.82,1.82,0,0,1-1.52,2.46,15.13,15.13,0,0,1-2.93.34,33.55,33.55,0,0,1-8.44-.27c-4.7-1-7.22-3.91-8-8.79a41.71,41.71,0,0,1-.43-7.07C234.47,143.42,234.46,141.09,234.46,138.75Z"/><path d="M315.56,132.35c0,9,0,18,0,27,0,1.11-.17,1.63-1.43,1.65-2.06,0-4.11,0-6.16-.09-1.07-.07-2-1.35-2.13-2.8,0-.31,0-.63,0-.95,0-16.78,0-33.56,0-50.34,0-2.23,1.21-3.5,3.81-3.08a29,29,0,0,0,4.38.09c1.56,0,1.56,0,1.56,1.5Z"/><path d="M336.75,132.31c0,9,0,18,0,27.07,0,1.18-.31,1.56-1.48,1.57-2,0-4,0-6.05-.08-.91-.06-2-1.42-2-2.61-.27-6.92-.39-13.84-.16-20.75.25-7.72.13-15.42.09-23.13,0-2.44-.1-4.89-.13-7.34,0-2.7,1.2-3.65,3.85-3.32a27.41,27.41,0,0,0,4.62,0c1-.05,1.27.24,1.27,1.24C336.73,114.1,336.75,123.21,336.75,132.31Z"/><path d="M392.28,140.66c0-5.46,0-10.92,0-16.38,0-1.2-.31-2.56.92-3.5a2.13,2.13,0,0,1,1.26-.55c2.21,0,4.43,0,6.64-.11.61,0,.81.22.84.82.08,1.14.26,2.27.36,3.41.09,1,.51.89,1.11.4,1.15-1,2.26-2,3.48-2.82a13.64,13.64,0,0,1,9-2.42c1.93.12,2.93,1.26,2.43,3-.55,2-.82,4-1.35,6-.15.55-.21,1-1.12.83a14.13,14.13,0,0,0-7.23.5c-3.21,1.1-6.65,4.28-6.43,8.52.17,3.3-.24,6.63-.1,9.94.16,3.79.07,7.58.16,11.37,0,.84-.18,1.16-1.11,1.2-2.17.1-4.34.07-6.51,0a2.33,2.33,0,0,1-2.22-2.07c-.1-1.09-.11-2.2-.11-3.31Q392.28,148.08,392.28,140.66Z"/><path d="M145.68,182.12a39,39,0,0,0-2.68-7.94,35.86,35.86,0,0,0-8.25-11c-.5-.45-.78-.3-1.12.17a10.17,10.17,0,0,1-1.35,1.63c-1.49,1.31-3.32,1.19-5.26-.32-5.93-4.58-12.14-8.78-18.19-13.19-.41-.3-.7-.56-1.16,0a34.32,34.32,0,0,0-5.44,9c-1.43,3.79-2,7.68-.63,11.67a7.19,7.19,0,0,0,5.75,4.31c4.64.2,8.3-1.9,11.58-4.85a33.91,33.91,0,0,0,3.3-3.37,3.71,3.71,0,0,1-1.07,2.06,34,34,0,0,1-12.66,10.45c-2.83,1.31-5.62,1.68-8.4-.29a7.25,7.25,0,0,1-3-6.36,31,31,0,0,1,3.66-14.42,37.28,37.28,0,0,1,5.86-8.13c.73-.77.6-1.16-.18-1.67a11.83,11.83,0,0,1-1.54-1.29c-1.72-1.64-1.85-3-.49-4.9,1.14-1.65,1.12-1.61-.72-2.46A33.72,33.72,0,0,0,92,137.75a30.51,30.51,0,0,0-8,.21,3.45,3.45,0,0,1-.67,0,36.71,36.71,0,0,1,4.72-5,37.12,37.12,0,0,1,7.6-5.8,27.9,27.9,0,0,1,8.8-3,33.76,33.76,0,0,1,7.65-.2,4.86,4.86,0,0,0,4.52-2.53c2.9-4.43,5.4-9.08,7.88-13.76,4.15-7.81,10.59-13.09,18.67-16.51a56,56,0,0,1,12.32-3.64c2.79-.48,5.64-.62,8.46-.93a1.3,1.3,0,0,1,1.6,1.14,66.26,66.26,0,0,1,2.7,15.82,57.12,57.12,0,0,1-.9,12.46,37.64,37.64,0,0,1-7.79,16.15c-2.79,3.53-5.64,7-8.47,10.5-.7.85-1.45,1.67-2.07,2.57-1.54,2.27-.89,4.45.23,6.69a24.86,24.86,0,0,1,2.34,8.71,30.56,30.56,0,0,1-1.79,13.12A28.79,28.79,0,0,1,145.68,182.12Zm11.09-67a13.47,13.47,0,0,0-13.17-13.66A13.34,13.34,0,0,0,130.11,115a13.14,13.14,0,0,0,13.32,13.54C151.4,128.49,156.63,122.46,156.77,115.12Z"/><path d="M143.53,125.17c-5.79,0-10-4.23-10.11-10.14a10,10,0,0,1,20-.44C153.47,120.7,149.4,125.06,143.53,125.17Z"/></svg>