<svg id="Layer_1" data-name="Layer 1" xmlns="http://www.w3.org/2000/svg" viewBox="0 0 532 266"><title>SVG-</title><path d="M340.86,95.54c6.4-6.09,12-12.09,18.33-17.12,3.28-2.61,7.89-4.84,12-4.94,19.74-.45,39.51-.2,59.27,0,2.61,0,5.21,1.41,7.81,2.16-1.46,2.28-2.46,5.1-4.44,6.75-20,16.68-40,33.29-60.27,49.61-4.42,3.55-6.15,7.39-6,12.92.27,11.08.12,22.17-.07,33.25,0,1.72-1.14,3.42-1.75,5.13-1.7-.63-3.81-.81-5-1.94-17.26-16.11-34.74-32-51.28-48.85-3.19-3.25-3.13-10.15-3.67-15.45-.62-6.16,2.09-14.44-1-18.06-2.87-3.35-11.52-1.63-17.59-2.42a7.4,7.4,0,0,1-4.67-2.32c-.5-.67.64-3.2,1.68-4.28,7-7.29,14.2-14.41,21.32-21.61,3.22-3.25,5.81-2,8.59.81C322.69,77.86,331.49,86.37,340.86,95.54Zm85.72-15.47c-3.81-.29-5.88-.58-7.94-.59-14.69,0-29.4-.35-44.07.28a22,22,0,0,0-12.71,5c-13.95,12.21-27.35,25-40.91,37.69-2,1.89-3.79,4-6.11,6.51,7.25,6.59,14,12.37,20.31,18.62,3.57,3.56,6,3.06,9.61,0,24.24-20.2,48.66-40.17,73-60.22C420.29,85.32,422.79,83.22,426.58,80.07ZM313.32,120.75c8-7.47,14.82-13.9,20.11-18.88l-20.11-21.1ZM361,171.24V143.05l-15.72,13.21ZM305.42,80.37l-10.78,9.17C305.75,91.89,307.5,90.12,305.42,80.37Z"/><path d="M264.77,145.13l25.84,33.61c8.63-11.16,16.68-21.55,25.84-33.37v51h-8.56V174l-1.43-.47-15.78,20.27-16.85-21.45v23.8h-9.06Z"/><path d="M248.67,179.68l13.12,16.06c-5.74,1.82-9.86,1.68-13.27-2.92a76.79,76.79,0,0,0-8-9.27c-1.38-1.34-3.83-2.71-5.4-2.36-1.19.28-2.21,3.18-2.53,5.05a89.77,89.77,0,0,0-.75,9.65c-6.73,2.2-9.55.52-9.37-6.37.33-12,.21-24,.05-36.06-.06-4.52,1.45-6.75,6.23-6.48s9.65-.15,14.4.43c6.89.83,12.44,4.15,14.45,11.24,2.09,7.36.39,13.79-6,18.54C250.8,177.74,250.13,178.41,248.67,179.68Zm-16.18-16.57c0,5.23-1,10.23,6.47,9.7,6.8-.48,10.77-3.47,10.77-9s-4-8.52-10.79-9C231.44,154.28,232.51,159.31,232.49,163.11Z"/><path d="M220.83,195.79c-6.91,2.24-10.66.82-13.11-5.13-.79-1.94-4.19-3.79-6.5-3.94-7.41-.46-15.56-2.2-18.82,8.2-.48,1.55-5.72,1.6-8.76,2.34l-1.36-1.67c7.72-16.37,15.44-32.74,24.16-51.21C205,162.5,212.78,178.83,220.83,195.79Zm-24.42-30.27-5.48,12.64h11.2Z"/><path d="M166.14,148.7c4.38,9.1,8.43,16.17,11.07,23.73.92,2.64-1.64,6.5-3.27,12l-7.57-13.58-14,28.5-25.59-51.16c7-2.55,10.62-.83,13.13,5,3.51,8.13,7.7,15.95,12.29,25.32Z"/><path d="M125.6,154.61,115.93,156l-6.64.92c.79,2,1.06,4.5,2.46,5.89,3.74,3.71,8.08,6.82,12,10.4,8.94,8.21,6.52,19.31-5.13,22.73-8.19,2.41-15.58.7-21.61-6.2,3-4.29,5.85-6.07,10.75-2.77,1.86,1.25,5.17,1.31,7.49.69,4.59-1.23,5.84-4.3,2.08-7.89s-7.64-6.61-11.48-9.88c-7.09-6.05-8.88-11.27-5.7-16.63,3.54-5.94,12.89-8.41,20-5.11a47.81,47.81,0,0,1,5.36,3.45Z"/></svg>