<?xml version="1.0" encoding="utf-8"?>
<!-- Generator: Adobe Illustrator 23.0.1, SVG Export Plug-In . SVG Version: 6.00 Build 0)  -->
<svg version="1.1" id="Layer_1" xmlns="http://www.w3.org/2000/svg" xmlns:xlink="http://www.w3.org/1999/xlink" x="0px" y="0px"
	 viewBox="0 0 81.1 34.7" style="enable-background:new 0 0 81.1 34.7;" xml:space="preserve">
<g id="_x35_Afr2K_1_">
	<g>
		<path d="M80.7,18.8c0,5.2,0,10.5,0,15.7c-25.8,0-51.6,0-77.3,0c0-4.5,0-9,0-13.5c-0.5,0-0.9,0-1.3,0.1C1.5,15.8,0.9,10.7,0.3,5.4
			c14.6-1.7,29-3.4,43.6-5.1c0.6,5.3,1.2,10.5,1.8,15.7c-7.5,0.9-14.9,1.7-22.3,2.6v0.1c0.7,0,1.3,0,2,0c18.2,0,36.4,0,54.6,0
			C80.1,18.8,80.4,18.8,80.7,18.8z M34,29.4c-0.1-0.2-0.2-0.2-0.2-0.3c-1.2-2.3-2.5-4.6-3.5-6.9c-0.7-1.4-1.5-2-3.1-1.8
			c-1.2,0.1-1.3,0.2-1.3,1.4c0,3.4,0,6.8,0,10.3c0,1,0.1,1.1,1.1,1.1c0.2,0,0.3,0,0.5,0c0.5,0,0.8-0.2,0.8-0.8
			c-0.1-2.8-0.1-5.7-0.1-8.5c0-0.1,0-0.2,0.1-0.3c1.4,2.7,2.9,5.3,4.2,8c0.6,1.2,1.4,1.8,2.7,1.6c1-0.1,1.2-0.2,1.2-1.3
			c0-3.3,0-6.7,0-10c0-1.5-0.1-1.5-1.6-1.4c-0.5,0-0.7,0.2-0.7,0.8c0,2.4,0,4.8,0,7.2C34,28.6,34,28.9,34,29.4z M40.6,9.6
			c0.2,1.6,0.4,3.2,0.5,4.7c0.1,0.5,0.3,0.7,0.8,0.7c0.2,0,0.5,0,0.7,0c1.1-0.1,1.2-0.2,1-1.3c-0.4-3.4-0.8-6.8-1.2-10.3
			c-0.1-1.2-0.3-1.3-1.5-1.1c-0.1,0-0.1,0-0.2,0c-1,0.2-1,0.2-0.9,1.2c0.2,1.3,0.3,2.6,0.5,4c-1.6,0.2-3.2,0.4-4.7,0.5
			c-0.1-0.1-0.1-0.2-0.1-0.2c-0.1-1.1-0.3-2.2-0.4-3.3c-0.2-1.6-0.3-1.6-1.8-1.4c-0.8,0.1-0.9,0.2-0.8,1.1c0.4,3.6,0.9,7.2,1.3,10.9
			c0.1,0.7,0.4,0.9,1,0.8c0.2,0,0.4,0,0.5-0.1c1.1-0.2,1.1-0.2,1-1.3c-0.2-1.4-0.3-2.8-0.5-4.3c0.8-0.1,1.5-0.2,2.2-0.3
			C38.9,9.8,39.7,9.7,40.6,9.6z M51.6,27.9c1.5-0.2,2.1,0.1,2.7,1.3c0.4,0.8,0.7,1.6,1,2.3c0.6,1.6,0.7,1.6,2.4,1.5h0.1
			c0.6,0,0.8-0.3,0.5-0.8c-0.9-1.8-1.2-3.8-2.9-5.1c1-0.4,1.7-0.9,2.1-1.8c0.9-2.2-0.2-4.4-2.6-4.7c-1.5-0.2-3.1-0.1-4.7-0.2
			c-1.1,0-1.2,0.1-1.2,1.2c0,3.4,0,6.8,0,10.1c0,1.3,0.1,1.4,1.4,1.4c0.1,0,0.2,0,0.3,0c0.6,0,0.9-0.3,0.8-0.9
			C51.6,30.7,51.6,29.3,51.6,27.9z M65.1,20.2c-0.1,0-0.3,0-0.4,0c-1.2,0-1.2,0-1.6,1.2c-1.2,3.3-2.3,6.6-3.5,9.9
			C59,33,59.2,33.2,61,33c0.4,0,0.7-0.2,0.8-0.6c0.2-0.6,0.4-1.2,0.6-1.8c0.1-0.2,0.4-0.4,0.6-0.4c0.7-0.1,1.4,0,2.1,0
			c0.8,0,1.7-0.2,2.2,0.2c0.5,0.3,0.6,1.3,0.8,2c0.2,0.6,0.5,0.8,1.1,0.8c0.2,0,0.4,0,0.6,0c1.3,0,1.4-0.1,0.9-1.3
			c-1.2-3.3-2.3-6.7-3.5-10C66.6,20.2,66.6,20.2,65.1,20.2z M18.5,27.4c0.1,0,0.2-0.1,0.2-0.1c1.1,0,2.1,0,3.2,0
			c0.7,0,0.9-0.1,0.9-1c0-0.8-0.1-0.9-0.8-0.9c-1.1,0-2.2,0-3.4,0c0-1.1,0-2.1,0-3.1c1.4,0,2.7,0,4,0c0.7,0,0.8-0.1,0.8-1
			c0-0.8-0.1-1-0.8-1c-1.9,0-3.8,0-5.7,0c-0.7,0-1,0.2-1,1c0,3.6,0,7.2,0,10.7c0,0.7,0.2,0.9,1,0.9c1.9,0,3.8,0,5.8,0
			c0.6,0,0.8-0.2,0.7-0.7c0-0.2,0-0.4,0-0.5c0-0.5-0.2-0.7-0.7-0.7c-1.2,0-2.4,0-3.6,0c-0.2,0-0.4,0-0.6,0
			C18.5,29.7,18.5,28.6,18.5,27.4z M15.2,7.3c1.4-0.2,2.7-0.3,4-0.5c0.8-0.1,0.9-0.2,0.8-1c-0.1-1-0.2-1.1-1-1
			c-1.8,0.2-3.7,0.4-5.5,0.7c-0.8,0.1-0.9,0.3-0.9,1c0.1,1.2,0.3,2.4,0.4,3.6c0.3,2.4,0.6,4.7,0.8,7.1c0.1,0.5,0.2,1,0.9,0.9
			c2-0.2,4-0.5,6.1-0.7c0.2,0,0.4-0.2,0.5-0.3c0.4-1-0.2-1.7-1.2-1.6c-0.2,0-0.3,0-0.5,0.1c-1.1,0.1-2.2,0.2-3.3,0.4
			c-0.1-1.2-0.3-2.4-0.4-3.5c1.1-0.1,2.2-0.3,3.3-0.4c0.8-0.1,0.9-0.2,0.8-1c-0.1-0.9-0.2-1.1-1-1c-1.1,0.1-2.2,0.2-3.3,0.4
			C15.5,9.4,15.4,8.4,15.2,7.3z M22,10.1c0,1.2,0.3,2.6,0.9,3.9c0.7,1.3,1.7,2.2,3.2,2.6c1.7,0.4,3.2,0.2,4.7-0.6
			c1.1-0.6,1.3-1.2,0.9-2.4c-0.1-0.4-0.3-0.5-0.6-0.2c-0.5,0.3-0.9,0.7-1.4,0.9c-1.9,0.9-3.8,0.1-4.5-1.9c-0.4-1.2-0.6-2.4-0.4-3.6
			C25,7.1,26,6,27.6,5.9c0.8,0,1.7,0.3,2.5,0.6c0.6,0.2,0.7,0.2,0.8-0.5c0-1.4-0.4-1.9-1.8-2.1C25.1,3,22,5.7,22,10.1z M13.7,23.4
			c0.7-0.8,0.5-2.1-0.4-2.6c-1.2-0.7-2.5-0.6-3.8-0.5c-1.8,0.2-3.1,1.1-3.9,2.7c-1.2,2.4-1.1,4.8-0.2,7.2c0.5,1.3,1.5,2.2,2.9,2.6
			c1.5,0.5,3,0.4,4.5-0.1c1.3-0.5,1.6-1.1,1.3-2.4c-0.1-0.4-0.2-0.5-0.6-0.3c-0.4,0.2-0.8,0.5-1.2,0.7c-2.2,0.9-4.2-0.1-4.6-2.4
			c-0.2-1.1-0.2-2.2,0-3.3c0.5-2.6,2.8-3.5,5.1-2.2C13.1,23,13.4,23.2,13.7,23.4z M43.9,22.4c0.2,0,0.2-0.1,0.3-0.1
			c0.7,0,1.4,0,2.1,0c1.1,0,1.2-0.1,1.1-1.2c0-0.1,0-0.2,0-0.3c0-0.4-0.2-0.6-0.6-0.6c-2.8,0-5.6,0-8.5,0c-0.4,0-0.6,0.2-0.6,0.5
			c0,0.2,0,0.5,0,0.7c0,0.6,0.2,0.8,0.8,0.8c0.9,0,1.8,0,2.8,0c0,0.3,0,0.6,0,0.9c0,2.8,0,5.5,0,8.3c0,1.5,0.1,1.5,1.5,1.5
			c0.1,0,0.1,0,0.2,0c0.6,0,0.8-0.3,0.8-0.9c0-3,0-6,0-8.9C43.9,22.9,43.9,22.7,43.9,22.4z M5.1,8.6c0.1,0.3,0.1,0.6,0.1,0.9
			c0.3,2.9,0.7,5.7,1,8.6c0.1,1,0.2,1,1.2,1c0.1,0,0.2,0,0.3,0c1.2-0.2,1.2-0.2,1-1.4C8.4,14.8,8,11.9,7.7,9
			C7.6,8.4,7.8,8.2,8.4,8.2C9.1,8.2,9.8,8,10.5,8c0.5,0,0.7-0.3,0.6-0.7C11.1,7,11,6.8,11,6.5c-0.1-0.5-0.3-0.6-0.8-0.6
			C7.6,6.2,5,6.5,2.5,6.8c-1.1,0.1-1.2,0.3-1,1.4c0,0.1,0,0.2,0.1,0.3C1.7,8.9,1.9,9.1,2.3,9C3.1,8.8,4.1,8.7,5.1,8.6z M75.1,30.9
			c0-0.3,0-0.6,0-0.8c0-2.7,0-5.4,0-8.1c0-1.7-0.2-1.9-2-1.7c-0.4,0.1-0.6,0.2-0.6,0.6c0,3.7,0,7.5,0,11.2c0,0.5,0.2,0.8,0.8,0.8
			c1.8,0,3.7,0,5.5,0c0.2,0,0.5-0.1,0.5-0.2c0.1-0.5,0.1-1.1,0-1.6c0-0.1-0.6-0.2-0.9-0.3C77.4,30.9,76.3,30.9,75.1,30.9z"/>
		<path d="M51.6,26c0-1.2,0-2.3,0-3.4c0-0.1,0.3-0.3,0.4-0.3c0.6,0,1.1,0,1.7,0.1c0.9,0.1,1.3,0.6,1.4,1.4c0.1,0.8-0.3,1.7-1,1.9
			C53.3,25.9,52.5,25.9,51.6,26z"/>
		<path d="M66.7,28.1c-1.3,0-2.4,0-3.6,0c0.6-1.8,1.2-3.5,1.7-5.2c0.1,0,0.1,0,0.2,0C65.6,24.6,66.1,26.3,66.7,28.1z"/>
	</g>
</g>
</svg>
