<svg id="Layer_1" data-name="Layer 1" xmlns="http://www.w3.org/2000/svg" viewBox="0 0 532 266"><title>SVG-</title><path d="M230.31,138.15c.91-1.61,1.71-3.09,2.57-4.54l19.39-32.82a4.67,4.67,0,0,1,4.19-2.55c2.34,0,4.67,0,7,0,1.72,0,2.56,1,2.36,2.62q-1.56,12.83-3.15,25.63-1.31,10.62-2.58,21.23c-.39,3.11-.82,6.21-1.17,9.32a2.15,2.15,0,0,1-2.29,2.14q-3,.09-6.08,0c-1.62-.06-2.36-1-2.17-2.62,1.24-10.29,2.52-20.58,3.72-30.87.33-2.87.72-5.72,1.08-8.65-.83,1.39-1.67,2.77-2.49,4.16q-8,13.62-16,27.24c-2.3,3.92-4,3.81-7.92,3.48-1.69-.14-2.57-1.42-3.1-3q-3.6-10.41-7.24-20.79c-1.27-3.66-2.55-7.33-4-10.95q-.63,5.59-1.27,11.19-1.14,9.72-2.29,19.45-.52,4.44-1,8.9c-.21,1.76-.87,2.41-2.65,2.43s-3.75,0-5.62,0-2.58-.9-2.36-2.73q1.72-14.17,3.47-28.34,1.6-13.11,3.19-26.21c.08-.66.16-1.31.3-2a2,2,0,0,1,2.18-1.69c2.54,0,5.07,0,7.61,0a3.45,3.45,0,0,1,3.54,2.57c4.13,12.28,8.74,24.39,12.56,36.77A4.15,4.15,0,0,0,230.31,138.15Z"/><path d="M432.12,30.63a28.79,28.79,0,0,0-4.85,5.14q-12.56,14.94-25,29.94a2.58,2.58,0,0,1-2.73.77c-5.45-.83-10.9-1.69-16.34-2.54l-4.65-.73c-.49-.08-1.12,0-1.27-.62s.51-.92.93-1.22Q388.58,54,399,46.62l26.32-18.55c4.51-3.17,9-6.37,13.51-9.56.41-.29.82-.72,1.36-.42s.34.91.34,1.38c0,8.32,0,16.64.05,25q0,12.24.14,24.49c0,1.93,0,2-1.94,1.84-6.95-.73-13.89-1.5-20.84-2.26l-7.7-.81c-2-.22-2.13-.6-1-2.23q10.48-15.37,20.95-30.76A9.84,9.84,0,0,0,432.12,30.63Z"/><path d="M338,148.41l-.22.23c-2.24.53-3.39,2.5-4.88,4-.4.38-1.44.66-1.24,1.63l-.07-.07.08.06a2.3,2.3,0,0,0-1.81.61c-1.65,1.73-3.6,3.16-5.25,4.87-2.92,3-6.29,5.53-9.32,8.42a4.86,4.86,0,0,1-3.84,1.25c-.8,0-1.42-.17-1.63-1s.46-1,.91-1.39c1.24-1.1,3-1.46,4-2.88a20.94,20.94,0,0,1,2.09-2.12c1.09-1.16,2.83-1.79,3.21-3.59h0c1.4.13,2.1-1.08,3-1.76a53.14,53.14,0,0,0,5.2-4.76c1.24-1.26,3-2,3.68-3.85l.21-.25c1,0,1.63-.4,1.65-1.49l0,0a.84.84,0,0,0,.82-.71h0c.77.38,1.34.33,1.49-.67a1.1,1.1,0,0,1,1-1c.65-.06.93-.5,1.33-.88a30.27,30.27,0,0,1,4.08-3.78c1.45-1,2.05-3.28,4.37-3,.07,0,.21-.21.24-.34.66-2.86,3.42-4.08,5.05-6.19a23.23,23.23,0,0,1,4.83-4.58c.54-.39,1.52-.61,1.64-1.39a4.11,4.11,0,0,1,2-2.55,4.78,4.78,0,0,0,1.49-1.61c.39-.76.78-1.53,1.79-1.7a.76.76,0,0,0,.58-.94c-.37-2-.42-4.13-2.37-5.4-.55-.36-1-.86-1.49-1.21-1.49-1-2.27-3.15-4.56-3a6.2,6.2,0,0,1-2.1-.19c-4-1.1-7.66.25-11.2,1.78-2.71,1.17-4.65,3.36-6.45,5.67a19.33,19.33,0,0,0-3.68,8.47,44.55,44.55,0,0,0-.53,15,1.78,1.78,0,0,1-.94,1.74c-1.57,1.11-3.21,2.17-4.06,4l0,0c-.56,0-1.18-.16-1.49.45-.46.91-1.24.67-2,.73-.95.07-1-1.1-1.77-1.21a.59.59,0,0,1-.24-.64c.43-.55.24-1.14.12-1.74-.42-2.22-1.29-4.34-1.12-6.68.17-2.17-.28-4.43.44-6.51.49-1.41-.17-2.79.33-4.1.67-1.76.62-3.72,2.17-5.25,1.28-1.28.25-3.94,2.45-4.93-.17-2.24,1.44-3.35,2.81-4.71a24.91,24.91,0,0,0,3-2.92,11.81,11.81,0,0,1,5.11-3.87,47.36,47.36,0,0,0,5.17-2.63,4.17,4.17,0,0,1,1.3-.37c2.05-.39,4.1-.89,6.17-1.1a20.47,20.47,0,0,1,7,.25c2.29.56,4.57,1.5,7,1.37h0c.81,1,1.4,2.33,3,2.33.34,0,.5.49.77.66,1.16.71,1.77,2.28,3.42,2.2a.17.17,0,0,1,.12.18,1.61,1.61,0,0,0,1.16,1.88c.84.32,1.43-.36,1.72-.93.92-1.82,2.5-3.11,3.83-4.5,2.09-2.2,3.74-4.79,6.08-6.77.73-.61,1.08-1.71,1.84-2.27,1.11-.83,1.33-2.4,2.53-3,1.44-.69,1.51-2.14,2.2-3.24l0,.07,0-.07c1.12.13,1.29.68.6,1.5a3,3,0,0,0-.85,1.88v0c-1.8.28-1.92,2.36-3.32,3.07-1.21.6-1.42,2-2.13,3-1,1.33-2.31,2.36-3.19,3.78a13.14,13.14,0,0,1-2.84,3.58c-1.76,1.37-2.77,3.28-4.09,5s-1,3.1.37,4.62a7,7,0,0,1,.7,1.13c1.2,1.93,1.21,4.27,1.54,6.3a26.06,26.06,0,0,1-.4,11,42.21,42.21,0,0,0-1.24,7.26l0,.08c-1.4,1.41-2.56,2.93-2.42,5.08l0,.08c-1.73.88-2.64,2.68-3.62,4.09-1.64,2.39-4.19,3.62-6,5.72-.66.78-2.11.66-2.23,2a.61.61,0,0,1-.6.34c-.42-.42-1.18-.44-1.37-.19-1,1.3-2.87,1.08-3.78,2.41l-.64.2a1.52,1.52,0,0,0-1.58-.17c-3.86,1.28-7.83.87-11.77.81-.79,0-1.72,0-2.07-.92s.14-1.6.8-2.26,1.65-1.1,1.55-2.28h0a1.62,1.62,0,0,0,1.54-.78,6.77,6.77,0,0,1,5.16-2.28c1.34-.08,2.67-.53,4,0a.8.8,0,0,0,.93-.37c.85-1.25,2.33-1.64,3.44-2.55a29.45,29.45,0,0,0,3.11-2.66c1-1.07,1.6-2.49,3-3.19a1.15,1.15,0,0,0,.55-1.3,2.81,2.81,0,0,1,.34-2,22.05,22.05,0,0,0,1.57-5,65.1,65.1,0,0,0,.7-11c-.05-1.53,0-2.94-1.77-3.68a3.13,3.13,0,0,1-1.62,2.88,4.78,4.78,0,0,0-2.07,2c-1.4,2.14-3.24,3.95-4.79,6-.71.95-1.36,2.21-2.59,2.66-.94.34-.95.92-.8,1.67l0-.09,0,.08c-.37-.13-.67.09-1,.22-.06-.3.11-.75-.41-.77-.13,0-.38.25-.38.37,0,.52.47.36.78.41-.06.19-.06.44-.18.56-2.08,2.12-4.25,4.16-6.24,6.37-1.21,1.34-3,2.17-3.54,4.13h0C340.23,145.38,338.18,147.36,338,148.41Z"/><path d="M290.93,98.24c3.12.09,7.44-.26,11.72.47,10.68,1.84,15.18,9.1,14.22,19.25a22.28,22.28,0,0,1-4.1,11.42c-3.32,4.47-7.94,6.77-13.21,8-4.2,1-8.48.62-12.72.62-1.25,0-1.72.29-1.86,1.65-.6,5.74-1.37,11.46-2.09,17.18-.22,1.78-.91,2.37-2.69,2.38-2.28,0-4.56,0-6.84,0-1.9,0-2.66-1-2.43-2.8,1-8,1.91-16.07,2.89-24.1q1.94-15.81,3.89-31.62c.24-1.94.77-2.41,2.77-2.42C283.57,98.22,286.66,98.24,290.93,98.24Zm2.81,9.41v-.11c-1.22,0-2.44,0-3.65,0-.89,0-1.26.31-1.36,1.18-.73,6.27-1.47,12.55-2.28,18.81-.14,1.08.16,1.33,1.16,1.3,1.92,0,3.85.05,5.77,0,3.72-.12,7.16-.94,9.36-4.33a14.28,14.28,0,0,0,1.83-10.63c-.64-3.57-3-5.57-6.44-6.15A26.78,26.78,0,0,0,293.74,107.65Z"/><path d="M170.29,159.2c-4.91,0-9.83,0-14.75,0-2.62,0-3.23-.74-2.92-3.3,1.06-8.68,2.09-17.36,3.15-26q1.8-14.76,3.63-29.52c.19-1.53,1-2.12,2.78-2.12H182.1c3.35,0,6.69,0,10,0,2.24,0,3,1,2.69,3.13-.18,1.2-.33,2.41-.45,3.62-.22,2.31-.8,2.88-3.16,2.88-6.29,0-12.57,0-18.86,0-1.34,0-1.83.38-2,1.72-.45,4.28-1,8.55-1.56,12.81-.16,1.18.14,1.59,1.41,1.58,4.67-.06,9.33,0,14,0,1.79,0,2.39.65,2.25,2.45s-.36,3.42-.65,5.11c-.23,1.29-1.24,1.59-2.41,1.59-4.71,0-9.43.07-14.14,0-1.46,0-1.86.49-2,1.84-.45,4.43-1,8.85-1.59,13.25-.2,1.4.33,1.45,1.42,1.45,6.24,0,12.47,0,18.71,0,2.48,0,3.05.67,2.8,3.11-.13,1.31-.24,2.62-.44,3.92-.33,2.14-.84,2.56-3,2.56C180.23,159.21,175.26,159.2,170.29,159.2Z"/><path d="M183.88,240.66c6.48-.06,14.16-2,21.68-4.67,15.26-5.42,29.23-13.37,42.86-22,5.69-3.59,11.29-7.34,16.75-11.27a5.92,5.92,0,0,1,4.07-1.31c1.21.1,2.43,0,3.65,0,.78,0,1.56,0,1.82,1s-.32,1.4-.95,1.88c-3.17,2.35-6.31,4.75-9.5,7.07-10.09,7.3-20.37,14.32-31.14,20.6-10.51,6.13-21.32,11.65-33,15.4a67.3,67.3,0,0,1-22.54,3.54,31.54,31.54,0,0,1-29.23-22.79c-2.45-8.71-2.15-17.4-.46-26.15.14-.73.26-1.63,1.32-1.54s1,1,1,1.84a46.18,46.18,0,0,0,2.24,17.07,31.51,31.51,0,0,0,5.6,9.66c2.72,3.29,5.42,6.51,9.35,8.5C172.15,239.89,177.13,240.68,183.88,240.66Z"/><path d="M130,98.24h19.16c2.4,0,3.07.81,2.77,3.19-.17,1.41-.33,2.82-.52,4.23-.23,1.83-.93,2.47-2.78,2.48-4.06,0-8.11,0-12.17,0-1,0-1.41.16-1.54,1.26-.73,6.43-1.55,12.86-2.33,19.28q-1.73,14.1-3.44,28.18c-.22,1.77-.92,2.34-2.73,2.35-2.28,0-4.56,0-6.84,0-1.86,0-2.63-1-2.41-2.82.8-6.48,1.54-13,2.33-19.44.87-7.19,1.77-14.37,2.65-21.55.25-2,.43-4,.7-6,.13-.95-.21-1.23-1.14-1.22-3.91,0-7.81,0-11.72,0-2.19,0-2.8-.64-2.65-2.84.11-1.56.34-3.12.54-4.68.25-1.88.76-2.36,2.65-2.37,4,0,8,0,12,0H130Z"/><path d="M117.89,178.16c3.63-4.29,8.18-4.11,9.44.83.69-.76,1.33-1.55,2-2.23a5.41,5.41,0,0,1,5.89-1.29c2,.77,2.59,2.57,2.74,4.54a31.64,31.64,0,0,1-.5,5.74q-.45,3.84-.91,7.68c0,.33.06.81-.44.84-1.41.06-2.83.14-4.24.07-.57,0-.28-.66-.24-1,.35-3.17.73-6.33,1.08-9.5.1-.85.18-1.71.21-2.57s0-1.48-.78-1.84a1.93,1.93,0,0,0-2.12.46,7.75,7.75,0,0,0-2.59,5c-.4,2.75-.68,5.52-.94,8.29-.08.81-.32,1.21-1.18,1.18-4.93-.19-4,1-3.53-3.86.3-2.86.71-5.72,1-8.59.09-.87.3-2-.68-2.45-1.15-.58-2.1.16-2.8,1a8.17,8.17,0,0,0-2,4.51c-.34,2.82-.73,5.62-1,8.44-.09.85-.36,1.14-1.22,1a13.08,13.08,0,0,0-2.58,0c-1,.1-1.33-.31-1.2-1.3.69-5.52,1.38-11,2-16.57.1-.91.4-1.29,1.29-1.13h.15C117.53,175.38,117.53,175.38,117.89,178.16Z"/><path d="M275.15,191.53c-.48.46-1,.94-1.47,1.4a5.61,5.61,0,0,1-5.6,1.47c-2.07-.59-3-2.22-3.44-4.23a12.56,12.56,0,0,1,14.17-14.94c3.15.41,3.22.42,2.88,3.47-.55,4.92-1.23,9.83-1.79,14.75-.08.75-.42.94-1,.94-.45,0-.91,0-1.36-.06-1.79,0-2-.26-2.07-2C275.42,192.08,275.51,191.82,275.15,191.53Zm-5.66-4.91c0,.68,0,1.09.06,1.49.08,1,.31,1.91,1.39,2.3s1.84-.22,2.54-.9a6.82,6.82,0,0,0,.89-1.22,16.77,16.77,0,0,0,2.14-7.63c.19-2.08-.2-2.38-2.27-1.65a5.54,5.54,0,0,0-1.32.69A8,8,0,0,0,269.49,186.62Z"/><path d="M292.29,178.6a23.28,23.28,0,0,1,2.38-2.1c1.94-1.27,4-2,6.28-.81s2.62,3.24,2.46,5.35c-.32,4.18-.91,8.35-1.35,12.53-.08.67-.41.82-1,.8-1.11,0-2.23,0-3.34,0-.93,0-.78-.6-.72-1.14.43-3.61.88-7.23,1.32-10.84,0-.2.05-.4.06-.61,0-.87.12-1.83-.76-2.3a2.32,2.32,0,0,0-2.67.49,8.63,8.63,0,0,0-3.18,5.85q-.42,3.46-.73,6.94c-.1,1.12-.46,1.81-1.75,1.57a4.59,4.59,0,0,0-.91,0c-2.75,0-2.7,0-2.33-2.78.62-4.81,1.32-9.63,1.69-14.47.15-2,1.22-1.63,2.4-1.68s2.19.34,2.16,1.84Z"/><path d="M170.06,178.46a8.42,8.42,0,0,1,5-3.11c3-.8,5.35.58,6.05,3.64a14.37,14.37,0,0,1-.11,5c-.35,3-.7,6-1,9.05-.11,1-.43,1.62-1.61,1.35a7,7,0,0,0-1.52,0c-2.17,0-2.15,0-1.87-2.23.41-3.46.81-6.93,1.17-10.41.08-.78.23-1.73-.64-2.19a2.4,2.4,0,0,0-2.69.47c-2.31,1.83-3.15,4.35-3.38,7.18-.17,2.06-.43,4.12-.64,6.19-.05.54-.11,1-.83,1-1.32,0-2.91.41-3.88-.18-1.14-.69-.15-2.31,0-3.48.45-4.68,1.14-9.33,1.64-14,.12-1.08.51-1.41,1.5-1.27a4.61,4.61,0,0,0,.91,0c1.43-.09,2.09.55,2,2C170,177.75,170.06,178.1,170.06,178.46Z"/><path d="M159.76,183.37c-.17,4.37-1.77,8-5.74,10.18-5.77,3.17-11.62-.34-11.56-6.9,0-3.87,1.28-7.28,4.54-9.62,2.72-2,5.73-2.65,8.85-1.12S159.87,180.13,159.76,183.37Zm-12.23,3.08c0,.26,0,.51,0,.76.06,2.12.63,3.09,2,3.47s2.74-.19,3.77-1.87A10.64,10.64,0,0,0,154.7,182c-.13-1.32-.51-2.52-2-2.9a3.35,3.35,0,0,0-3.7,1.76A9.87,9.87,0,0,0,147.53,186.45Z"/><path d="M193.29,194.62c-4.31,0-7-2.4-7.48-6.72-.58-5.1,1.88-9.94,6.07-11.87a8.77,8.77,0,0,1,6.21-.56,5.16,5.16,0,0,1,3.83,4.43,5,5,0,0,1-2.9,4.61,19.42,19.42,0,0,1-6.84,1.84c-1.52.19-1.73.45-1.36,1.91.54,2.08,2.41,3,4.85,2.29a10.21,10.21,0,0,0,2.52-1.35,2.25,2.25,0,0,1,3.09,1.46c.08.49-.34.7-.62,1A9.94,9.94,0,0,1,193.29,194.62Zm-1-11.54a10.69,10.69,0,0,0,4-1.23,1.76,1.76,0,0,0,.87-2.07c-.28-.89-1-1.06-1.8-1.07a4.63,4.63,0,0,0-4,3.41C191.31,182.87,191.58,183.18,192.33,183.08Z"/><path d="M346.46,194.62c-4.41,0-7.1-2.39-7.65-6.62-.79-6.08,3-11.75,8.63-12.74a7.5,7.5,0,0,1,4.73.64,4.52,4.52,0,0,1,2.76,4.06,4.62,4.62,0,0,1-2.39,4.29,18.67,18.67,0,0,1-7.37,2.11c-1.52.19-1.71.43-1.3,1.93.6,2.19,2.89,3.13,5.28,2.1a16.89,16.89,0,0,0,2.09-1.21c1.35-.81,2,.14,2.75,1s-.2,1.33-.67,1.75A9.48,9.48,0,0,1,346.46,194.62Zm-2.22-11.45a11.34,11.34,0,0,0,5.17-1.32,1.78,1.78,0,0,0,.88-2.06c-.25-.91-1-1.15-1.92-1.09C346.29,178.83,344.82,180.4,344.24,183.17Z"/><path d="M213.48,186.61c1.29-2.79,2.75-5.52,3.81-8.4.82-2.24,2.08-3.18,4.41-2.81a13.09,13.09,0,0,0,1.92,0l-4,7.83q-4,7.77-7.94,15.54a4.62,4.62,0,0,1-5.12,1.67c-.63-.31-.2-.68,0-1,1-1.79,1.88-3.59,2.91-5.33a3.15,3.15,0,0,0,.39-2.69c-1.36-4.81-2.61-9.65-4-14.47-.31-1.1-.34-1.62,1.1-1.58,4.42.12,3.62-.49,4.54,3.62.57,2.51,1.12,5,1.68,7.52Z"/><path d="M334.51,179.13c-1.66-.53-1.83.51-2,1.91-.72,5.06-.8,10.2-2.22,15.15-.65,2.28-1.21,2.66-3.52,2.72-1.2,0-1.34-.49-1.21-1.45.46-3.66.9-7.33,1.35-11,.24-2,.48-3.92.74-5.88.13-1,0-1.59-1.15-1.8s-.92-1.33-.89-2.22.54-1.23,1.39-1.09,1.27-.28,1.4-1.22c.75-5.5,5.06-7.31,8.38-7,.71.06,1.75-.1,1.52,1.11-.18,1,.21,2.33-1.52,2.51-2.5.25-3.17,1-3.6,3.31-.16.87,0,1.4,1,1.3.15,0,.31,0,.46,0,2.46,0,2.37,0,2.12,2.46C336.57,179.59,335.43,178.93,334.51,179.13Z"/><path d="M244.38,179.09c-2.28,0-2.26,0-2.51,2.17q-.42,3.54-.89,7.06c-.25,2,.25,2.45,2.22,1.92.25-.07.53-.18.71,0a4.88,4.88,0,0,1,1.3,2.5c.15.69-.73.88-1.24,1.14a7.61,7.61,0,0,1-4.43.7A4.1,4.1,0,0,1,236,190c.33-3.21.7-6.43,1.07-9.64.09-.75.1-1.34-.92-1.25-.74.07-1.38-.09-1.26-1s-.29-2.15,1-2.16c2,0,2.41-1.28,2.79-2.74.13-.49.29-1,.44-1.45a2.65,2.65,0,0,1,3.68-2c.58.2.42.55.36,1-.15,1.15-.24,2.31-.4,3.46-.13.93.1,1.48,1.18,1.32.19,0,.4,0,.6,0,2.43,0,2.34,0,2.21,2.38C246.61,179.91,245.1,178.73,244.38,179.09Z"/><path d="M312.68,194.62a7.56,7.56,0,0,1-4.38-1c-.67-.44-2-.65-1.09-2.09,1.17-1.88,1.74-2.21,3.16-1.32a4.84,4.84,0,0,0,3,.91,2.29,2.29,0,0,0,2.4-1.7c.32-1.34-.61-1.91-1.64-2.34-.61-.26-1.23-.47-1.84-.72-3.8-1.59-4.74-5.41-2.14-8.63,2.41-3,7.95-3.5,10.88-1,.5.42.79.83.25,1.38-.7.72-1,2.25-2.52,1.48a6.14,6.14,0,0,0-3.17-.88c-1,.06-1.92.33-2.26,1.43s.41,1.8,1.31,2.25,2.13.91,3.16,1.45a4.26,4.26,0,0,1,2.42,5.27C319.42,192.5,316.56,194.61,312.68,194.62Z"/><path d="M256.45,179.07c.76-.9,1.32-1.6,1.92-2.26a4.4,4.4,0,0,1,2.48-1.38c1.88-.35,2.28,0,1.93,1.87a9.69,9.69,0,0,0-.23,1c-.12,1.22-.19,2.22-2,1.74-1.34-.35-2.32.72-3.06,1.83-1.35,2-1.65,4.31-1.92,6.63-.18,1.56-.38,3.11-.57,4.67,0,.15,0,.34-.06.44-1.16,1.48-2.76.41-4.15.67-.94.18-.77-.71-.71-1.27.64-5.48,1.31-11,1.94-16.43.1-.91.45-1.36,1.42-1.22a10.42,10.42,0,0,0,1.37,0c1.14,0,1.65.61,1.66,1.71Z"/><path d="M365.28,179l2-2.27a4.1,4.1,0,0,1,2-1.26c2-.52,2.54,0,2.18,2a8.92,8.92,0,0,0-.26,1.33c0,1.23-.4,1.6-1.76,1.34-1.65-.33-2.69.88-3.48,2.19-1.36,2.25-1.45,4.81-1.79,7.31-.1.7-.16,1.41-.28,2.11-.15.86.24,2.23-.63,2.47a13.53,13.53,0,0,1-4.22.08c-.56,0-.35-.65-.31-1,.44-3.55.9-7.11,1.34-10.66.25-2,.53-4,.68-6,.07-.94.42-1.27,1.31-1.15a6.91,6.91,0,0,0,.91,0c1.88,0,2.29.46,2.21,2.38C365.17,178.16,365,178.56,365.28,179Z"/><path d="M327.06,143.84c.85-1.85,2.49-2.91,4.06-4a1.78,1.78,0,0,0,.94-1.74,44.55,44.55,0,0,1,.53-15,19.33,19.33,0,0,1,3.68-8.47c1.8-2.31,3.74-4.5,6.45-5.67,3.54-1.53,7.19-2.88,11.2-1.78a6.2,6.2,0,0,0,2.1.19c2.29-.18,3.07,2,4.56,3,.51.35.94.85,1.49,1.21,1.95,1.27,2,3.42,2.37,5.4a.76.76,0,0,1-.58.94c-1,.17-1.4.94-1.79,1.7a4.78,4.78,0,0,1-1.49,1.61,4.11,4.11,0,0,0-2,2.55c-.12.78-1.1,1-1.64,1.39a23.23,23.23,0,0,0-4.83,4.58c-1.63,2.11-4.39,3.33-5.05,6.19,0,.13-.17.35-.24.34-2.32-.29-2.92,2-4.37,3a30.27,30.27,0,0,0-4.08,3.78c-.4.38-.68.82-1.33.88a1.1,1.1,0,0,0-1,1c-.15,1-.72,1-1.49.67,2.44-2.64,5.22-4.91,7.89-7.29,6.67-5.94,12.63-12.55,18.72-19,.2-.22.4-.45.61-.67,2.48-2.66,2.46-3,.18-5.89-3.54-4.52-8.27-5.8-13.68-4.9-7.3,1.22-11.65,6-14.06,12.61a33,33,0,0,0-1.55,16.89,2.35,2.35,0,0,1-.58,2.26A38.58,38.58,0,0,1,327.06,143.84Z"/><path d="M363.56,100c-2.45.13-4.73-.81-7-1.37a20.47,20.47,0,0,0-7-.25c-2.07.21-4.12.71-6.17,1.1a4.17,4.17,0,0,0-1.3.37,47.36,47.36,0,0,1-5.17,2.63,11.81,11.81,0,0,0-5.11,3.87,24.91,24.91,0,0,1-3,2.92c-1.37,1.36-3,2.47-2.81,4.71-2.2,1-1.17,3.65-2.45,4.93-1.55,1.53-1.5,3.49-2.17,5.25-.5,1.31.16,2.69-.33,4.1-.72,2.08-.27,4.34-.44,6.51-.17,2.34.7,4.46,1.12,6.68.12.6.31,1.19-.12,1.74a23.77,23.77,0,0,1-1.67-8.27c-.32-8.25,1.27-16,5.92-23a31.59,31.59,0,0,1,34.66-13.22A9,9,0,0,1,363.56,100Z"/><path d="M352.37,133.83c-.15-.75-.14-1.33.8-1.67,1.23-.45,1.88-1.71,2.59-2.66,1.55-2,3.39-3.85,4.79-6a4.78,4.78,0,0,1,2.07-2,3.13,3.13,0,0,0,1.62-2.88c1.78.74,1.72,2.15,1.77,3.68a65.1,65.1,0,0,1-.7,11,22.05,22.05,0,0,1-1.57,5,2.81,2.81,0,0,0-.34,2,1.15,1.15,0,0,1-.55,1.3c-1.41.7-2,2.12-3,3.19a29.45,29.45,0,0,1-3.11,2.66c-1.11.91-2.59,1.3-3.44,2.55a.8.8,0,0,1-.93.37c-1.35-.51-2.68-.06-4,0a6.77,6.77,0,0,0-5.16,2.28,1.62,1.62,0,0,1-1.54.78,19.71,19.71,0,0,1,3.15-3.24,1.52,1.52,0,0,1,1.12-.38c10,.25,15.7-6.47,18.09-14.19a38.29,38.29,0,0,0,1.36-13.51,4.17,4.17,0,0,0-.1-.6c-.09-.33,0-.79-.37-.93s-.68.33-.93.6c-2.63,2.93-5.22,5.91-7.88,8.81A27.47,27.47,0,0,1,352.37,133.83Z"/><path d="M412.2,73.49c1.88.21,3.79.43,5.7.63,1,.1,1.14.61.84,1.46-.89,2.52-1.75,5-2.64,7.58-.15.41-.3.89-.87.93s-.69-.39-.85-.75c-1.24-2.87-2.53-5.72-3.67-8.63C410.12,73.22,411.38,73.54,412.2,73.49Z"/><path d="M375.38,138.52a42.21,42.21,0,0,1,1.24-7.26,26.06,26.06,0,0,0,.4-11c-.33-2-.34-4.37-1.54-6.3a7,7,0,0,0-.7-1.13c-1.4-1.52-1.67-3-.37-4.62s2.33-3.58,4.09-5a13.14,13.14,0,0,0,2.84-3.58c.88-1.42,2.2-2.45,3.19-3.78.71-1,.92-2.35,2.13-3,1.4-.71,1.52-2.79,3.32-3.07a97.16,97.16,0,0,1-6.52,8.33q-4,5-8.25,9.91a2.32,2.32,0,0,0-.34,2.94C379,120.15,378.76,129.31,375.38,138.52Z"/><path d="M320,158.37c-.38,1.8-2.12,2.43-3.21,3.59a20.94,20.94,0,0,0-2.09,2.12c-1,1.42-2.75,1.78-4,2.88-.45.4-1.09.64-.91,1.39s.83,1,1.63,1a4.86,4.86,0,0,0,3.84-1.25c3-2.89,6.4-5.39,9.32-8.42,1.65-1.71,3.6-3.14,5.25-4.87a2.3,2.3,0,0,1,1.81-.61c-2.55,2.8-5.56,5.1-8.34,7.66-2.48,2.3-5.11,4.44-7.55,6.78-1.66,1.59-3.59,1.47-5.53,1.2-1.13-.15-1.48-2-.54-2.83C313.16,164.14,316.44,161.07,320,158.37Z"/><path d="M390,89.89a3,3,0,0,1,.85-1.88c.69-.82.52-1.37-.6-1.5,1.59-2.47,3.78-4.45,5.56-6.79,1.43-1.89,3-3.67,4.52-5.5a.57.57,0,0,1,.74-.28,16.9,16.9,0,0,1-2.16,3.91A104.57,104.57,0,0,1,390,89.89Z"/><path d="M390.25,86.51c-.69,1.1-.76,2.55-2.2,3.24-1.2.58-1.42,2.15-2.53,3-.76.56-1.11,1.66-1.84,2.27-2.34,2-4,4.57-6.08,6.77-1.33,1.39-2.91,2.68-3.83,4.5-.29.57-.88,1.25-1.72.93a1.61,1.61,0,0,1-1.16-1.88c1.51,1.37,1.48,1.35,2.76-.12q7.94-9.08,15.9-18.13A4.3,4.3,0,0,1,390.25,86.51Z"/><path d="M341.63,153.52c.1,1.18-.91,1.63-1.55,2.28s-1.15,1.36-.8,2.26,1.28.91,2.07.92c3.94.06,7.91.47,11.77-.81a1.52,1.52,0,0,1,1.58.17,31.2,31.2,0,0,1-14.36,1.14,2.12,2.12,0,0,1-1.09-3.87A17.55,17.55,0,0,1,341.63,153.52Z"/><path d="M361.09,155.58c.12-1.35,1.57-1.23,2.23-2,1.77-2.1,4.32-3.33,6-5.72,1-1.41,1.89-3.21,3.62-4.09a29,29,0,0,1-9.24,10.3A8.24,8.24,0,0,1,361.09,155.58Z"/><path d="M331.88,148c-.65,1.82-2.44,2.59-3.68,3.85a53.14,53.14,0,0,1-5.2,4.76c-.88.68-1.58,1.89-3,1.76C323.85,154.78,327.76,151.27,331.88,148Z"/><path d="M341.41,145.11c.5-2,2.33-2.79,3.54-4.13,2-2.21,4.16-4.25,6.24-6.37.12-.12.12-.37.18-.56h0c.32-.13.62-.35,1-.22-1.91,2.66-4.39,4.8-6.63,7.15A25.34,25.34,0,0,1,341.41,145.11Z"/><path d="M370.77,105.14c-1.65.08-2.26-1.49-3.42-2.2-.27-.17-.43-.66-.77-.66-1.63,0-2.22-1.3-3-2.33A18.06,18.06,0,0,1,370.77,105.14Z"/><path d="M331.67,154.22c-.2-1,.84-1.25,1.24-1.63,1.49-1.45,2.64-3.42,4.88-4A43.18,43.18,0,0,1,331.67,154.22Z"/><path d="M321.85,143.79c.79.11.82,1.28,1.77,1.21.74-.06,1.52.18,2-.73.31-.61.93-.49,1.49-.45-.19.57-.7.86-1.11,1.22C324,146.78,322.56,146.35,321.85,143.79Z"/><path d="M372.94,143.68c-.14-2.15,1-3.67,2.42-5.08A15.55,15.55,0,0,1,372.94,143.68Z"/><path d="M355.34,158.14c.91-1.33,2.81-1.11,3.78-2.41.19-.25.95-.23,1.37.19A16.25,16.25,0,0,1,355.34,158.14Z"/><path d="M338,148.41c.17-1,2.22-3,3.42-3.29A15.48,15.48,0,0,1,338,148.41Z"/><path d="M333.74,146.26c0,1.09-.62,1.53-1.65,1.49A3.89,3.89,0,0,1,333.74,146.26Z"/><path d="M334.6,145.53a.84.84,0,0,1-.82.71A1,1,0,0,1,334.6,145.53Z"/><path d="M351.37,134.05c-.31-.05-.76.11-.78-.41,0-.12.25-.38.38-.37.52,0,.35.47.41.77Z"/></svg>