<svg id="Layer_1" data-name="Layer 1" xmlns="http://www.w3.org/2000/svg" viewBox="0 0 532 266"><title>SVG-</title><path d="M151.18,193.4H157a20.55,20.55,0,0,0,8.48-1.75,11.63,11.63,0,0,0,6-6.4A20.88,20.88,0,0,0,173,176.9c0-2,0-4.06,0-6.09.07-19.27.17-38.54.2-57.81,0-7.57-.17-15.13-.18-22.69,0-4.67.13-9.34.18-14A13,13,0,0,0,173,74a2.18,2.18,0,0,0-2.31-1.85,35.87,35.87,0,0,0-5,.46,36.76,36.76,0,0,0-11,3.84A31.31,31.31,0,0,0,146,83.5c-5,5.93-7.77,12.88-9.34,20.37-.69,3.29-1.3,6.6-2,10l-3.46-.23c-.68,0-1.35-.15-2-.17s-1.06-.21-1-1c0-2,0-4.06,0-6.09.1-3.63.27-7.25.41-10.88s.27-7.1.41-10.66.26-7.25.42-10.87c.12-2.69.29-5.38.45-8.15H236.75a2.61,2.61,0,0,1,.08.35c.07,3.84.12,7.68.22,11.53.11,4.38.26,8.76.41,13.14,0,1.74.15,3.49.2,5.23.14,5,.29,9.93.41,14.9,0,1.81-.85,2.69-2.65,2.71-1.07,0-2.13,0-3.22,0L229,100.49a40.93,40.93,0,0,0-7.55-16.17,30.37,30.37,0,0,0-9.26-7.7,41.47,41.47,0,0,0-12.35-4.28,30.56,30.56,0,0,0-4-.43,2.17,2.17,0,0,0-2.33,2.16c0,.24,0,.48,0,.72q0,51.34,0,102.69a17.5,17.5,0,0,0,2.89,10.28,12.63,12.63,0,0,0,7.74,5c3.2.77,6.45.61,9.69.62h1.27c.24,1.1.49,2.14.68,3.19.46,2.51-.35,3.52-2.89,3.63h-59.2a4.34,4.34,0,0,1-1-.05c-1.54-.37-2.17-1.33-2-3C150.81,195.92,151,194.72,151.18,193.4Z"/><path d="M376.77,155.31V128.63c3.15-.63,19.67.18,25.49.8.1,1.07.24,2.15.29,3.23.1,2.4.1,4.8.22,7.19.17,3.37.39,6.74.62,10.1.12,1.76.32,3.52.48,5.36Z"/><path d="M155.37,128.52v26.65h-1.09c-6.37,0-12.74,0-19.11,0-1.37,0-2.73-.11-4.09-.2-.79-.05-2-1.69-2.11-2.75v-.11c-.07-2.81-.2-5.62-.19-8.43,0-3.81.11-7.62.19-11.43a3.72,3.72,0,0,1,3.28-3.51c1.26-.11,2.52-.2,3.78-.2,6.06,0,12.12,0,18.18,0Z"/><path d="M294.28,154.89c0-3.1,0-6.12,0-9.15.05-4.8.13-9.61.21-14.42a3.36,3.36,0,0,1,3.25-2.79c7.53,0,15.07,0,22.7,0v26.37Z"/><path d="M237.79,154.92h-26v-1.14c0-4.4,0-8.81,0-13.21,0-3.33.12-6.65.2-10,0-1,1.57-2.08,3.09-2.08,5.16,0,10.32,0,15.48,0h7.18Z"/></svg>