<svg id="Layer_1" data-name="Layer 1" xmlns="http://www.w3.org/2000/svg" viewBox="0 0 532 266"><title>SVG-</title><path d="M98.42,158.86c0-12.9,0-25.8,0-38.71,0-6.22,3.08-9.12,9.08-8.85,4.8.21,7.75,3.21,7.78,8.16.07,8.9.14,17.81,0,26.71-.06,3.2,1.18,4.22,4.2,4.2q17.64-.12,35.28,0c6.22,0,9.6,4.28,8.55,10.42-.68,4-3.62,6.49-8,6.51-11.3.07-22.61,0-33.91,0-6.09,0-6.09,0-6.09,5.92,0,8.11,0,16.21,0,24.32,0,5.73-3.09,8.91-8.49,8.94s-8.37-3.07-8.39-9C98.39,184.67,98.42,171.76,98.42,158.86Z"/><path d="M106.28,100.72q-30.48,0-61,0c-6.69,0-10.84-6-7.92-12,1-2,3.7-3.31,5.8-4.66.75-.48,2-.18,3-.18q60.45,0,120.9,0c3.79,0,7.11.67,8.93,4.39a8.51,8.51,0,0,1-7.78,12.51C147.61,100.75,127,100.72,106.28,100.72Z"/><path d="M223.57,140.36v3.35H218v16.73H213.8V143.71h-5.54v-3.35Z"/><path d="M249.13,150.4a11.78,11.78,0,0,1-.67,4,9.94,9.94,0,0,1-2,3.3,9.13,9.13,0,0,1-3.17,2.25,11.53,11.53,0,0,1-8.59,0,9.17,9.17,0,0,1-3.18-2.25,9.46,9.46,0,0,1-2-3.3,12.54,12.54,0,0,1,0-8,9.5,9.5,0,0,1,2-3.31,9.17,9.17,0,0,1,3.18-2.25,11.53,11.53,0,0,1,8.59,0,9.13,9.13,0,0,1,3.17,2.25,10,10,0,0,1,2,3.31A11.89,11.89,0,0,1,249.13,150.4ZM239,157.48a5.76,5.76,0,0,0,2.57-.54,5.16,5.16,0,0,0,1.84-1.49,6.23,6.23,0,0,0,1.1-2.25,11.07,11.07,0,0,0,0-5.6,6.23,6.23,0,0,0-1.1-2.25,5.16,5.16,0,0,0-1.84-1.49,6.41,6.41,0,0,0-5.15,0,5.16,5.16,0,0,0-1.84,1.49,6.39,6.39,0,0,0-1.1,2.25,11.07,11.07,0,0,0,0,5.6,6.39,6.39,0,0,0,1.1,2.25,5.16,5.16,0,0,0,1.84,1.49A5.77,5.77,0,0,0,239,157.48Z"/><path d="M256.58,160.44V140.36h4.22V150l7-9.65h4.88l-7.38,9.92,7.9,10.16H268l-7.15-9.86v9.86Z"/><path d="M279.61,140.36h12.06v3.35h-7.84v4.85h7.47v3.35h-7.47v5.18h7.93v3.35H279.61Z"/><path d="M313,160.44l-9.37-13.15v13.15h-4V140.36h4L313,153.51V140.36h4v20.08Z"/><path d="M336.15,160.44V140.36h12.12v3.35h-7.89v5.36h7.53v3.35h-7.53v8Z"/><path d="M374.89,150.4a11.78,11.78,0,0,1-.68,4,9.75,9.75,0,0,1-1.95,3.3,9.23,9.23,0,0,1-3.17,2.25,11.53,11.53,0,0,1-8.59,0,9.17,9.17,0,0,1-3.18-2.25,9.46,9.46,0,0,1-2-3.3,12.37,12.37,0,0,1,0-8,9.5,9.5,0,0,1,2-3.31,9.17,9.17,0,0,1,3.18-2.25,11.53,11.53,0,0,1,8.59,0,9.23,9.23,0,0,1,3.17,2.25,9.8,9.8,0,0,1,1.95,3.31A11.89,11.89,0,0,1,374.89,150.4Zm-10.1,7.08a5.77,5.77,0,0,0,2.58-.54,5.25,5.25,0,0,0,1.84-1.49,6.39,6.39,0,0,0,1.1-2.25,11.07,11.07,0,0,0,0-5.6,6.39,6.39,0,0,0-1.1-2.25,5.25,5.25,0,0,0-1.84-1.49,5.77,5.77,0,0,0-2.58-.54,5.83,5.83,0,0,0-2.58.54,5.21,5.21,0,0,0-1.83,1.49,6.39,6.39,0,0,0-1.1,2.25,10.78,10.78,0,0,0,0,5.6,6.39,6.39,0,0,0,1.1,2.25,5.21,5.21,0,0,0,1.83,1.49A5.83,5.83,0,0,0,364.79,157.48Z"/><path d="M394.63,140.36h4.23V153.2a8.18,8.18,0,0,1-.58,3.12,6.6,6.6,0,0,1-1.63,2.4,7.17,7.17,0,0,1-2.61,1.54,11.52,11.52,0,0,1-7,0,7.3,7.3,0,0,1-2.6-1.54,6.7,6.7,0,0,1-1.62-2.4,8.18,8.18,0,0,1-.57-3.12V140.36h4.21v13a4.15,4.15,0,0,0,1,3,4.87,4.87,0,0,0,6.09,0,4.14,4.14,0,0,0,1-3Z"/><path d="M420.62,160.44l-9.37-13.15v13.15h-4V140.36h4l9.37,13.15V140.36h4v20.08Z"/><path d="M433.07,140.36h6.06a14.32,14.32,0,0,1,4.81.76,11.12,11.12,0,0,1,3.68,2.09,9.44,9.44,0,0,1,2.35,3.18,10.21,10.21,0,0,1,0,8,9.35,9.35,0,0,1-2.35,3.18,11.12,11.12,0,0,1-3.68,2.09,14.32,14.32,0,0,1-4.81.76h-6.06Zm6.15,16.73a9.31,9.31,0,0,0,2.95-.45,6.85,6.85,0,0,0,2.34-1.32,6,6,0,0,0,1.52-2.1,7.63,7.63,0,0,0,0-5.64,6,6,0,0,0-1.52-2.1,6.85,6.85,0,0,0-2.34-1.32,9.31,9.31,0,0,0-2.95-.45h-1.93v13.38Z"/><path d="M472.59,146.48a5.42,5.42,0,0,1-1.21,3.6,7.54,7.54,0,0,1-3.46,2.25l6.78,8.11h-5.25l-5.82-7.33h-1.35v7.33h-4.22V140.36h6a14.71,14.71,0,0,1,3.43.38,7.9,7.9,0,0,1,2.7,1.15,5.24,5.24,0,0,1,2.4,4.59Zm-4.22.09a2.39,2.39,0,0,0-1.21-2.23,6.23,6.23,0,0,0-3.13-.69h-1.75v6.27h1.26a6.36,6.36,0,0,0,3.5-.85A2.76,2.76,0,0,0,468.37,146.57Z"/><path d="M491,140.36h4.61l-6.63,12.57v7.51h-4.22v-7.51l-6.63-12.57h4.61l4.13,8.83Z"/></svg>