<svg id="Layer_1" data-name="Layer 1" xmlns="http://www.w3.org/2000/svg" viewBox="0 0 532 266"><title>SVG-</title><path d="M173.41,122.33H157.7v-7.27h39.8v7.15H182.05v42.42h-8.64Z"/><path d="M280.87,138.76c-2.4,0-4.66.05-6.92,0a1.89,1.89,0,0,1-1.37-1c-.89-2.56-3-3.47-5.33-3.61a17.56,17.56,0,0,0-6,.59,4,4,0,0,0-2.35,2.79,3.89,3.89,0,0,0,1.82,3.16,74.28,74.28,0,0,0,8.27,2.61c2.71.82,5.59,1.31,8.07,2.57,6.38,3.23,6.9,11.91,1.17,16.37-5.55,4.31-16.79,4.82-22.69.93a11,11,0,0,1-5.24-9.84c2.3,0,4.48-.08,6.65.06.45,0,1.09.79,1.24,1.33a6.07,6.07,0,0,0,4.51,4.41,12.34,12.34,0,0,0,9-.52,4.81,4.81,0,0,0,2.52-3.26,4.72,4.72,0,0,0-2.08-3.75c-2.75-1.26-5.81-1.82-8.73-2.73-2.69-.84-5.56-1.4-8-2.74a9.09,9.09,0,0,1-1.08-15c5.5-4.43,17-4.49,22.49-.09A10.63,10.63,0,0,1,280.87,138.76Z"/><path d="M246.26,164.54a9.28,9.28,0,0,1-1.39.25c-1.88,0-3.76,0-5.87,0v-4.35l-.87-.66a7.08,7.08,0,0,1-.91,1.8c-4,4.48-9.1,4.91-14.52,3.36-5.15-1.46-7.28-5.43-7.47-10.33-.32-8.11-.28-16.24-.27-24.35,0-.54,1-1.46,1.68-1.53a57.52,57.52,0,0,1,5.93-.07c.05.93.13,1.75.13,2.58q0,9.34,0,18.69c0,.63,0,1.26,0,1.89.19,5,2.39,7.56,6.71,7.8,4.9.27,8.76-2.61,9-7.35.34-6.85.24-13.71.31-20.57,0-3.05,0-3.05,3.11-3.05,1.19,0,2.37,0,3.55,0a3.85,3.85,0,0,1,.86.24Z"/><path d="M436.53,153.54a13.16,13.16,0,0,1-4.19,8.21c-6.92,6.27-20,4.83-24.86-3.12-4.36-7.11-4.77-14.82-.8-22.3,3.53-6.63,10.4-9.55,17.86-8.15,6.06,1.14,11,6.75,12.2,13.83.32,2,.43,4,.68,6.38H410.55a10.33,10.33,0,0,0,8.24,11.91c5.8,1,9.2-.63,12-5.83a1.77,1.77,0,0,1,1.15-.89C433.38,153.48,434.87,153.54,436.53,153.54ZM431,143.19A10.32,10.32,0,0,0,420,133c-6.14.27-10.13,6.15-9.46,10.24Z"/><path d="M373.1,115h5.65v29.49c1.1-.9,1.76-1.38,2.35-1.94,4-3.87,8.16-7.67,12.07-11.68a6.33,6.33,0,0,1,5.61-2.23,43.43,43.43,0,0,0,4.37,0L389,141.79l15,22.52c-4.23,1.51-6.89.65-9.18-2.85-3.35-5.14-6.72-10.27-10.22-15.61-1.82,1.66-3.56,3.12-5.13,4.75a3.63,3.63,0,0,0-.53,2.2c-.05,3.15-.16,6.32,0,9.46.13,2.19-.7,2.82-2.71,2.56a24.31,24.31,0,0,0-3.09,0Z"/><path d="M333.33,146.78c.3-4.65,1.22-9,4.11-12.7,4.2-5.37,11.71-7.55,18.86-5.53a16.5,16.5,0,0,1,11.85,14.18c.77,6,.24,11.69-3.55,16.64-4.34,5.65-10.43,6.84-17,5.87s-11-4.9-12.95-11.3A63.17,63.17,0,0,1,333.33,146.78Zm6.07,0a53.1,53.1,0,0,0,1.23,5.94,10.63,10.63,0,0,0,10.6,7.8c4.91-.06,8.86-3.14,10.35-8.16a18.57,18.57,0,0,0-.27-11.83c-1.69-4.7-5.43-7.43-10.13-7.49a10.43,10.43,0,0,0-10.31,7.2A48.87,48.87,0,0,0,339.4,146.74Z"/><path d="M318.49,164.79V120.46H302V115h39.43v5.28H324.88v3c0,12.85-.06,25.71.06,38.56,0,2.39-.57,3.36-3,3A24.3,24.3,0,0,0,318.49,164.79Z"/><path d="M470.37,164.41a3.43,3.43,0,0,1-.65.28c-5,.67-5,.61-5-4.32,0-6.24,0-12.47,0-18.7,0-4.9-1.7-7.64-5.2-8.46-4.83-1.13-9.93.89-11.63,5a21.19,21.19,0,0,0-1.44,7.1c-.21,5.51-.07,11-.07,16.56v2.73h-5.48V128.82H446c.09,1.54.19,3.21.29,4.87l.66.53a3.59,3.59,0,0,1,.36-1.12,14.34,14.34,0,0,1,16.64-4.24c4.68,1.92,6.31,5.83,6.41,10.4C470.5,147.62,470.37,156,470.37,164.41Z"/><path d="M302.62,165.1a89.2,89.2,0,0,1-9.65-.63c-3-.52-4.68-2.52-4.79-5.64-.25-7.17-.27-14.35-.38-21.52,0-.79,0-1.57,0-2.72H282v-5.92h5.78c0-3.16.06-6.06,0-8.95,0-1.43.42-2,1.88-1.92,1.88.09,3.76,0,5.9,0v10.8h7.08v5.84h-7v3.65q0,7.69,0,15.39c0,4.9.54,5.43,5.41,5.42h1.56Z"/><path d="M201,164.59c-.8.09-1.33.21-1.87.21-1.8,0-3.6,0-5.59,0v-36h6.81v6c3.44-4.84,7.5-7.89,13.78-6.88v7.25c-.46,0-.9,0-1.33,0-6.28-.46-10.71,2.76-11.34,9.06-.57,5.71-.34,11.5-.46,17.25C201,162.45,201,163.39,201,164.59Z"/><path d="M63.87,177.63c5.47.46,11.57,1.56,17.63,1.36,14.18-.48,27.14-4.64,36.78-15.72,7.85-9,10.19-19.72,6.85-31.2-3.28-11.25-11.45-18-22.66-20.15-6.64-1.29-13.64-.81-20.48-1-3.77-.12-7.54,0-11.57,0v14.67H86.08c0,7.38.29,14.37-.12,21.32-.21,3.35-2.71,5.8-6.38,7.87v-21H61.84V103.16a18.7,18.7,0,0,1,2.16-.27c11,0,22-.58,32.9.08,19.42,1.18,35.07,15.49,36.7,35,1.45,17.48-6.75,29.85-20.85,38.82C98.09,186.14,77.35,186.14,63.87,177.63Z"/><path d="M101.07,125.32h7.36c0,3.2,0,6.24,0,9.27-.2,9.28-2.52,17.76-9.19,24.65-10.29,10.6-25.39,13.64-39.4,7.07-13.22-6.19-20.32-17.09-21.42-31.64a52.27,52.27,0,0,1,.43-14.09c2.68-13.29,10.42-23.28,21.81-30.44,19.66-12.36,45.82-10.64,63.1,6.19a46,46,0,0,1,11.63,18.15c-1.39-1.8-2.71-3.65-4.17-5.39-8.81-10.47-19.72-17.53-33.44-19.25-17.54-2.21-33,2.24-44.44,16.42-6.15,7.61-8.22,16.69-7.6,26.43a35.49,35.49,0,0,0,3.86,14.51c4.48,8.52,11.82,12.81,21,14.38a27.19,27.19,0,0,0,16-1.89c8.46-3.79,12.23-11.09,13.72-19.7.65-3.69.41-7.54.58-11.31C101,127.67,101,126.67,101.07,125.32Z"/></svg>