<svg xmlns="http://www.w3.org/2000/svg" viewBox="0 0 32.54 27.36"><defs><style>.cls-1{fill:#cee7fd;}.cls-1,.cls-2{stroke:#1060ea;stroke-linecap:round;stroke-linejoin:round;}.cls-2{fill:none;}</style></defs><title>Asset 10</title><g id="Layer_2" data-name="Layer 2"><g id="Layer_1-2" data-name="Layer 1"><path id="Path_1632" data-name="Path 1632" class="cls-1" d="M16.26,8.53a18.27,18.27,0,0,1-7.62-2,18.34,18.34,0,0,1-6-4.95,6.43,6.43,0,0,0-.14,6.52,7.42,7.42,0,0,0,2.15,2.41,6.27,6.27,0,0,1-3-.89v.13a6.41,6.41,0,0,0,1.53,4.18A6.65,6.65,0,0,0,7,16.25a8.22,8.22,0,0,1-1.78.19q-.57,0-1.2-.06a6.61,6.61,0,0,0,2.31,3.26,6.17,6.17,0,0,0,3.9,1.3c3.23-.36,7-2.25,8.45-5.17C20.08,13.06,18.81,9,16.26,8.53Z"/><path id="Path_1632-2" data-name="Path 1632" class="cls-2" d="M29.34,5.81A7.42,7.42,0,0,0,32,1,13.71,13.71,0,0,1,27.79,2.6a7.54,7.54,0,0,0-2.18-1.53,6.59,6.59,0,0,0-6,.32,6.51,6.51,0,0,0-2.4,2.43,6.66,6.66,0,0,0-.89,3.34,8.59,8.59,0,0,0,.13,1.52,18.28,18.28,0,0,1-7.63-2,18.21,18.21,0,0,1-6-4.95A6.31,6.31,0,0,0,1.84,5a6.4,6.4,0,0,0,.81,3.2,7.31,7.31,0,0,0,2.16,2.4,6.13,6.13,0,0,1-3-.89v.13a6.38,6.38,0,0,0,1.52,4.18,6.75,6.75,0,0,0,3.79,2.35,8.8,8.8,0,0,1-1.77.19,10.17,10.17,0,0,1-1.21-.07A6.68,6.68,0,0,0,6.48,19.8a6.18,6.18,0,0,0,3.9,1.29,13.15,13.15,0,0,1-8.3,2.84c-.59,0-1.12,0-1.58-.05a18.43,18.43,0,0,0,10.2,3,18.26,18.26,0,0,0,10.32-3,18.11,18.11,0,0,0,6.4-7.16,18.9,18.9,0,0,0,2.21-8.81C29.64,7.64,29.39,6.08,29.34,5.81Z"/></g></g></svg>