<svg id="Layer_1" data-name="Layer 1" xmlns="http://www.w3.org/2000/svg" viewBox="0 0 532 266"><title>SVG-</title><path d="M188.08,133q0,14.78,0,29.55A36.17,36.17,0,0,1,180.57,185a36.78,36.78,0,0,1-24.49,14.58,39.33,39.33,0,0,1-5.32.42c-3.72.06-7.44.05-11.16,0a36.78,36.78,0,0,1-23.9-8.78A36.39,36.39,0,0,1,103,169.78a38.51,38.51,0,0,1-.7-7.19c-.05-19.72,0-39.44,0-59.16a37.53,37.53,0,0,1,27.47-36.09,36,36,0,0,1,9.9-1.35c4.12,0,8.24-.07,12.35.05a36.24,36.24,0,0,1,22.6,8.64A36.64,36.64,0,0,1,187.5,96.79a39.24,39.24,0,0,1,.55,6.85C188.11,113.41,188.08,123.19,188.08,133Zm-22.24-20.84-.19,0c-.16.24-.33.47-.48.71Q153,132.89,140.86,153l-11.19,18.52c-.24.39-.46.72,0,1.16a17.55,17.55,0,0,0,11.59,5.19c2.7.13,5.41,0,8.11,0a24.05,24.05,0,0,0,3.4-.17,15.42,15.42,0,0,0,13.16-15c0-16.63,0-33.26,0-49.9A6.49,6.49,0,0,0,165.84,112.12Zm-41.32,37.6.18.05c.16-.22.33-.44.48-.68q10.75-17.35,21.49-34.72,6.5-10.5,13-21c.26-.43.38-.74-.1-1.13A16.9,16.9,0,0,0,151,88.34a57.38,57.38,0,0,0-12.9-.13,15.2,15.2,0,0,0-13.65,15.12q0,22.82,0,45.62C124.49,149.2,124.51,149.46,124.52,149.72Z"/><path d="M101.92,178.91l-2,3.31L89.39,199.33a.92.92,0,0,1-1.11.56A39.09,39.09,0,0,1,57.2,169.58a41.63,41.63,0,0,1-.83-7.63c-.11-6.86,0-13.72,0-20.58,0-1,0-1-1-1-1.84,0-3.67,0-5.51,0-.58,0-.77-.2-.77-.78q0-10,0-20.06c0-.6.21-.77.78-.76,1.86,0,3.72,0,5.58,0,.73,0,1-.21,1-1,0-5.55,0-11.1,0-16.66a.92.92,0,0,1,.56-1q10.31-4.86,20.6-9.76l.53-.19c0,.36.06.66.06,1v26.43c0,1.16,0,1.16,1.2,1.16H94.51c1,0,1,0,1,1v19.62c0,1,0,1-1,1H79.14c-1.07,0-1.07,0-1.07,1.07,0,6.74,0,13.48,0,20.21a17.22,17.22,0,0,0,13.57,16.82,24,24,0,0,0,4.49.45C98,179,99.86,178.91,101.92,178.91Z"/><path d="M408.56,143.58l9.17,12.82c-2.44,0-4.55,0-6.64,0-.4,0-.86-.51-1.13-.89-2.36-3.28-4.71-6.56-7-9.89a2.17,2.17,0,0,0-2.09-1.06c-2,.06-3.95,0-6.11,0V156.3h-6V122.61c.12-.08.2-.17.28-.17,6.16.08,12.37-.28,18.46.39,6.88.75,10.47,6.81,8.71,13.44a9.77,9.77,0,0,1-5.88,6.59C409.83,143.09,409.3,143.28,408.56,143.58ZM394.78,139c3.74,0,7.42.26,11-.09a5.17,5.17,0,0,0,4.69-5.59,5.09,5.09,0,0,0-4.9-5.24c-3.17-.33-6.39-.19-9.59-.25-.41,0-.82.06-1.24.09Z"/><path d="M438.18,139.42c0-10.06,7.69-17.6,17.91-17.6s17.8,7.5,17.78,17.67A17.46,17.46,0,0,1,456,157C445.79,157,438.17,149.43,438.18,139.42Zm6.29-.11c0,6.91,5,12.12,11.61,12.12s11.54-5.16,11.52-12-5-12-11.56-12.09S444.48,132.46,444.47,139.31Z"/><path d="M345.54,151H365v5.25H339.69V122.5h25v5.23H345.63v8.85h1.6c4.71,0,9.42,0,14.13,0,1.06,0,1.43.3,1.36,1.35-.08,1.26,0,2.52,0,3.93-.66,0-1.2.1-1.74.1-4.66,0-9.33,0-14,0-1.07,0-1.5.25-1.46,1.4C345.6,145.84,345.54,148.36,345.54,151Z"/><path d="M289,127.73v-5.27H316.2c0,2.11.48,4.06-1.2,6-6,7-11.82,14.12-17.7,21.19l-1.14,1.42h20.11c0,1.68.06,3.2-.06,4.71,0,.24-.83.59-1.28.59-5.18,0-10.36,0-15.54,0H288.33c-.19-2.43-.26-4.46,1.5-6.49,5.95-6.83,11.65-13.88,17.44-20.85.3-.35.56-.73,1-1.34Z"/><path d="M266.38,131.43v5.33h-5.52c0,3.16-.23,6.16.07,9.11a6.05,6.05,0,0,0,5.31,5.11c.46.07.93.12,1.63.21-1,1.68-1.95,3.28-3,4.8-.16.23-.95.18-1.38,0a11.92,11.92,0,0,1-8.35-11c-.07-2.66,0-5.32,0-8.11l-2.29-.16v-5.19l2.27-.21a42,42,0,0,0,0-4.35,2.36,2.36,0,0,1,1.82-2.81c1.22-.44,2.38-1.08,3.85-1.77,0,1.8,0,3.4,0,5,0,1.3-.33,3,.34,3.76s2.37.24,3.63.28C265.23,131.45,265.73,131.43,266.38,131.43Z"/></svg>