<svg id="Layer_1" data-name="Layer 1" xmlns="http://www.w3.org/2000/svg" viewBox="0 0 532 266"><title>SVG-</title><path d="M105.2,92.36c.27-1.92,1.56-2,3.15-2,14.36,0,28.73.1,43.1,0A11.85,11.85,0,0,1,163,99.53c1.54,6.9,2.63,13.91,3.94,20.87,1,5.2,2,10.4,3,15.6.93,4.89,1.87,9.79,2.79,14.69.45,2.42.86,4.85,1.31,7.27a4.32,4.32,0,0,0,.48.92c1.58-3.91,3.11-7.69,4.62-11.48,2.71-6.81,5.39-13.63,8.1-20.44l11.2-28.17c1-2.48,1.91-5,2.93-7.45a1.56,1.56,0,0,1,1-.87c9,0,18.1,0,27.43,0-1,2.36-1.85,4.53-2.74,6.69q-4,9.72-8.08,19.44c-2.66,6.33-5.37,12.64-8,19-3.14,7.49-6.21,15-9.35,22.49-2.41,5.75-4.92,11.46-7.33,17.21-2.3,5.45-4.52,10.94-6.83,16.39-.24.57-.91,1.35-1.39,1.35-9.11.09-18.22.06-27.42.06-1.44-5.62-2.84-11.19-4.29-16.75-2.74-10.54-5.52-21.06-8.25-31.6-2.21-8.51-4.35-17-6.54-25.56-.89-3.44-1.78-6.89-2.71-10.32-1.1-4.06-4.26-6.11-7.78-7.69a119,119,0,0,0-21.31-7c-.86-.21-1.74-.34-2.62-.51Z"/><path d="M337.77,193c1-2.4,1.92-4.7,2.87-7q6-14.43,12-28.86c3.5-8.36,7.06-16.69,10.56-25,3.14-7.49,6.22-15,9.34-22.48,1.74-4.16,3.34-8.38,5.32-12.42,2.06-4.22,5.52-6.72,10.4-6.75,7.18,0,14.36,0,21.54,0h1.91Q422.41,141.7,433.11,193H408.33c-1.05-5-2.11-10.1-3.19-15.3-.37,0-.84-.06-1.31-.06-10.29,0-20.58,0-30.87,0a1.89,1.89,0,0,0-2.12,1.57c-1.58,4.64-3.29,9.24-5,13.86Zm62.89-36.69c-2.58-12.35-5.14-24.62-7.7-36.9l-.4-.06c-4.45,12.28-8.89,24.56-13.38,37Z"/><path d="M339.67,114.56c-4.51-1.27-8.78-2.72-13.16-3.64-5.67-1.18-11.43-1.47-17.07.41-2.87,1-5.3,2.5-6.58,5.45a4.84,4.84,0,0,0,1.06,5.81,46.59,46.59,0,0,0,7.15,5.43c5.15,3.14,10.59,5.82,15.65,9.09,6,3.88,10.76,9,12,16.34a46.41,46.41,0,0,1,.24,10.74,26.49,26.49,0,0,1-5.18,13.65,33.47,33.47,0,0,1-10.34,9.44,47.21,47.21,0,0,1-18.93,6.37,80.89,80.89,0,0,1-12.5.91c-8-.25-16-1.15-23.62-3.73a31.29,31.29,0,0,0-3.56-1.24c-1.13-.23-1.24-.9-1.06-1.73,1.46-6.6,2.95-13.18,4.41-19.78.11-.49.13-1,.22-1.69,2.5,1,4.83,2,7.18,3a41,41,0,0,0,12.79,3.08,87.25,87.25,0,0,0,9.42.28,17.94,17.94,0,0,0,10.8-3.82c4.21-3.46,3.7-9.44-.78-12.47a135.36,135.36,0,0,0-12.24-7.11c-5.6-3-10.9-6.31-15.08-11.13a22.69,22.69,0,0,1-5.86-14.45,30.34,30.34,0,0,1,4.88-17.85A32.07,32.07,0,0,1,289.92,96a44.36,44.36,0,0,1,17.91-6.51,127.49,127.49,0,0,1,13.94-1,60.36,60.36,0,0,1,18.16,3,25.94,25.94,0,0,0,3.12,1c1.36.24,1.28,1.17,1.1,2-1.36,6.4-2.76,12.79-4.16,19.18A3.66,3.66,0,0,1,339.67,114.56Z"/><path d="M219,192.88c.59-2.82,1.17-5.62,1.76-8.41q2.21-10.38,4.41-20.75c1.1-5.12,2.25-10.23,3.35-15.35,1.26-5.89,2.48-11.79,3.73-17.68q1.63-7.69,3.3-15.36Q237.78,105,240,94.58a31.23,31.23,0,0,1,.7-3.22,1.5,1.5,0,0,1,1-.89c8.57,0,17.14,0,25.71.06,0,0,.08,0,.22.14-1.14,5.27-2.31,10.59-3.44,15.91-1.77,8.35-3.5,16.71-5.28,25.07-1.09,5.12-2.24,10.23-3.34,15.35-1.47,6.86-2.91,13.73-4.37,20.59-1.22,5.69-2.46,11.37-3.68,17-.5,2.36-1,4.71-1.46,7.08-.15.8-.34,1.34-1.36,1.33-8.36,0-16.72,0-25.08,0A3.44,3.44,0,0,1,219,192.88Z"/></svg>