<svg id="Layer_1" data-name="Layer 1" xmlns="http://www.w3.org/2000/svg" viewBox="0 0 532 266"><title>SVG-</title><path d="M120.23,73.07c5.24,0,10.48,0,15.72,0,1,0,1.53.27,1.82,1.3,1.88,6.57,3.82,13.12,5.74,19.67q3.6,12.32,7.21,24.62,3.5,11.91,7,23.82c1,3.32,2,6.63,3.13,10.27.78-2.43,1.48-4.53,2.11-6.65,1.07-3.67,2.09-7.36,3.15-11q2.64-9,5.29-18.09c1.19-4,2.4-8,3.6-12,.46-1.49.91-3,1.41-4.47s-.22-3-.64-4.42c-2.14-7.22-4.33-14.43-6.49-21.65-.11-.37-.16-.76-.26-1.26.38,0,.75-.06,1.13-.06,4.92,0,9.84,0,14.76,0a1.42,1.42,0,0,1,1.63,1.25c1.7,5.93,3.49,11.83,5.23,17.75q3.25,11.07,6.49,22.14,3.35,11.4,6.72,22.8,2.15,7.24,4.3,14.48l.38,1.28c1-3.37,2-6.56,3-9.77,1.15-3.9,2.25-7.81,3.39-11.7q3.22-11,6.48-22l7.2-24.5c1-3.55,2.05-7.12,3.16-10.66.13-.42.74-.71,1.16-1,.14-.1.39,0,.59,0h62.53a58.32,58.32,0,0,1-.11,8.06c-.2,1.48-1.42,2.84-2.22,4.22q-3.28,5.7-6.6,11.38c-2.36,4.06-4.74,8.12-7.1,12.18q-2.91,5-5.8,10l-2,3.46a44.17,44.17,0,0,1,4.26,1.86,65.6,65.6,0,0,1,7.18,4.39A32.29,32.29,0,0,1,294.86,142a47.41,47.41,0,0,1,3.24,11.11,59.42,59.42,0,0,1,.66,12.7,49.7,49.7,0,0,1-4,17.78,39.57,39.57,0,0,1-9.53,13.51,25.74,25.74,0,0,1-13.63,6.94,47.72,47.72,0,0,1-9.08.69,28.24,28.24,0,0,1-16.86-6.37,39.34,39.34,0,0,1-10.93-14c-1-2-1.75-4.17-2.7-6.43l13.37-5.54c1.45,2.56,2.66,5.12,4.24,7.44,2.79,4.1,6.43,7.2,11.45,8.27,4,.86,7.75.29,10.93-2.48,3.76-3.28,5.93-7.52,7.34-12.21a41.08,41.08,0,0,0,1.41-14.33c-.3-5.49-1.68-10.73-5.12-15.14A17.57,17.57,0,0,0,265,137.42a53.24,53.24,0,0,0-6.2-.73c-2.53-.19-5.07-.25-7.76-.38,0-2.62-.07-5.28.05-7.94a5.12,5.12,0,0,1,1-2q4.36-7.53,8.74-15c2.47-4.22,4.95-8.44,7.4-12.68,1.74-3,3.43-6,5.24-9.23-.56,0-1-.06-1.39-.06-8.16,0-16.32,0-24.48,0a1.9,1.9,0,0,0-2.08,1.29c-.81,2.19-1.67,4.37-2.35,6.6-1.28,4.14-2.43,8.32-3.66,12.48-2.3,7.79-4.63,15.56-6.93,23.35s-4.65,15.72-7,23.58q-3.84,13-7.68,25.94-3,10.28-6,20.57c-.08.3-.21.59-.3.89-.2.63-.65,1-1.26.74a1.8,1.8,0,0,1-1-.89c-1.33-4.29-2.59-8.6-3.87-12.9L198,166q-3.72-12.51-7.45-25-2.26-7.57-4.56-15.14c-.21-.69-.45-1.37-.79-2.4-1.65,5.65-3.17,10.93-4.73,16.2-1,3.36-2.08,6.71-3.09,10.07q-2.78,9.25-5.52,18.52-3.72,12.47-7.44,24.91c-1.05,3.56-2.07,7.13-3.17,10.67a1.79,1.79,0,0,1-1,1c-.69.21-1.13-.17-1.35-.94-1.32-4.5-2.7-9-4-13.46-.93-3.14-1.79-6.31-2.73-9.45-1.71-5.8-3.47-11.59-5.19-17.39q-3.51-11.79-7-23.59l-7-23.46-7.68-25.94q-2.4-8.09-4.81-16.16a1.94,1.94,0,0,0-.24-.37Z"/><path d="M312.14,148.73c-.92-2.48-2-4.92-2.73-7.45a64.33,64.33,0,0,1-1.92-8.21c-.44-2.88-.59-5.81-.76-8.73-.11-2-.06-4,0-6a69.54,69.54,0,0,1,2.74-17.89A51.15,51.15,0,0,1,317,84.39c3.41-4.69,7.58-8.41,13.43-9.75a15.72,15.72,0,0,1,9.24.9,22.22,22.22,0,0,1,9.07,6.2c2.12,2.5,3.84,5.34,5.74,8,.27.38.51.79.81,1.26l9.45-18.87.32,0c.22,1.24.44,2.47.65,3.7.46,2.7,1,5.4,1.37,8.11a26.19,26.19,0,0,1,.47,5.42c-.08,1.07-1,2.09-1.5,3.14q-2.38,4.67-4.78,9.33c-1,2-2.09,4-3.29,6.2-.59-1-1.06-1.88-1.66-2.69a64.75,64.75,0,0,0-5.53-7.17C347.7,95,344,92.51,339.42,91.86a13.92,13.92,0,0,0-7.43,1,25.33,25.33,0,0,0-9.71,7.64c-4.85,5.9-7.13,12.9-8.81,20.14a63.71,63.71,0,0,0-1.43,9.53c-.29,3.89-.32,7.81-.24,11.71a65.07,65.07,0,0,0,.79,6.79Z"/><path d="M301,165c1.07,1.81,2.2,3.58,3.18,5.43A46,46,0,0,0,313.86,183a32.5,32.5,0,0,0,12.48,7.51,25.79,25.79,0,0,0,17.43-.85,38.11,38.11,0,0,0,11-7.31c4.4-3.92,7.55-8.7,10.46-13.72.26-.45.58-.87,1-1.53.65,3.43,1.25,6.56,1.84,9.69a8.56,8.56,0,0,0,.25,1.14c.9,2.59-.54,4.57-1.73,6.58a48.92,48.92,0,0,1-8.34,10.54c-4.33,4.08-9.06,7.52-15.1,8.67a28.93,28.93,0,0,1-10.21.19,27.54,27.54,0,0,1-12.75-5.86,50.18,50.18,0,0,1-10.38-11.79c-4.18-6.33-6.83-13.34-9.15-20.5a2.42,2.42,0,0,1,0-.66Z"/><path d="M398.39,85.32c.44,7.28-5.85,13-13.09,12.76-5.82-.19-12.48-5.76-11.93-13.49a12.86,12.86,0,0,1,13.14-11.78C392.57,73,398.89,78.5,398.39,85.32ZM386,96.11c5.8-.24,10.68-4.51,10.68-10.63A10.47,10.47,0,0,0,385.91,74.8c-5.72-.08-10.37,4.92-10.61,10.23A11,11,0,0,0,386,96.11Z"/><path d="M389.32,86.06c1,2.14,1.95,4.21,2.94,6.32-2.72.39-3.25.13-4.35-2.1-.33-.66-.6-1.35-.89-2-.75-1.81-.93-1.91-3.23-1.61v5.55H381V77.91c3,.22,6,.33,9,.71a3.05,3.05,0,0,1,2.43,3.3,3.59,3.59,0,0,1-1.8,3.46C390.13,85.59,389.73,85.83,389.32,86.06Zm-5.52-1.57c1.41-.13,2.75-.19,4.06-.4a1.66,1.66,0,0,0,1.39-1.78,1.77,1.77,0,0,0-1.33-2c-1.34-.23-2.7-.26-4.12-.39Z"/></svg>